M48
; DRILL file {KiCad (6.99.0-1603-g82820d4b1c)} date Fri Jun 17 11:00:46 2022
; FORMAT={-:-/ absolute / metric / decimal}
; #@! TF.CreationDate,2022-06-17T11:00:46+02:00
; #@! TF.GenerationSoftware,Kicad,Pcbnew,(6.99.0-1603-g82820d4b1c)
; #@! TF.FileFunction,Plated,1,2,PTH
FMAT,2
METRIC
; #@! TA.AperFunction,Plated,PTH,ViaDrill
T1C0.400
; #@! TA.AperFunction,Plated,PTH,ComponentDrill
T2C0.500
; #@! TA.AperFunction,Plated,PTH,ComponentDrill
T3C0.600
; #@! TA.AperFunction,Plated,PTH,ComponentDrill
T4C0.700
; #@! TA.AperFunction,Plated,PTH,ComponentDrill
T5C0.800
; #@! TA.AperFunction,Plated,PTH,ComponentDrill
T6C0.850
; #@! TA.AperFunction,Plated,PTH,ComponentDrill
T7C1.000
; #@! TA.AperFunction,Plated,PTH,ComponentDrill
T8C2.700
%
G90
G05
T1
X65.024Y-141.224
X87.757Y-61.595
X91.44Y-161.798
X104.648Y-164.084
X125.603Y-70.231
X125.603Y-73.533
X134.239Y-68.453
X135.636Y-107.188
X136.017Y-65.278
X136.144Y-97.79
X136.398Y-145.542
X136.652Y-63.754
X136.652Y-149.098
X137.414Y-126.492
X138.938Y-159.258
X139.192Y-63.627
X140.843Y-147.32
X140.843Y-150.876
X144.78Y-159.258
X144.78Y-126.492
X145.034Y-74.676
X145.034Y-97.79
X145.542Y-108.204
X145.542Y-141.605
X145.542Y-146.812
X145.542Y-151.13
X146.685Y-71.755
X148.336Y-70.358
X151.892Y-66.548
X152.654Y-61.976
X153.543Y-54.991
X154.14Y-69.596
X154.178Y-71.374
X155.448Y-60.706
X157.226Y-59.69
X157.353Y-79.629
X157.861Y-73.842
X158.369Y-70.993
X159.004Y-56.642
X160.274Y-89.408
X160.274Y-159.258
X161.798Y-68.58
X163.322Y-105.156
X163.957Y-98.806
X166.624Y-67.564
X169.418Y-128.016
X172.593Y-79.502
X175.387Y-82.169
X176.657Y-72.39
X176.784Y-79.375
X180.34Y-91.186
X186.182Y-164.338
X193.675Y-73.66
X196.85Y-164.338
X211.709Y-73.66
X224.663Y-157.734
T5
X132.748Y-51.816
X134.748Y-51.816
X136.748Y-51.816
X138.748Y-51.816
X140.748Y-51.816
X142.748Y-51.816
X146.812Y-51.816
X148.812Y-51.816
X150.812Y-51.816
X152.812Y-51.816
X162.052Y-51.816
X164.052Y-51.816
X166.052Y-51.816
X168.052Y-51.816
T6
X152.36Y-49.976
T7
X120.65Y-49.022
X123.19Y-49.022
X125.73Y-49.022
X128.27Y-49.022
T8
X9.144Y-135.636
X57.912Y-50.038
X81.788Y-168.402
X101.854Y-100.33
X160.02Y-129.54
X195.834Y-82.296
X219.71Y-168.402
X242.316Y-50.038
X291.592Y-108.966
T2
X20.794Y-83.303G85X20.794Y-84.003
G05
X20.794Y-105.02G85X20.794Y-105.72
G05
X20.794Y-126.61G85X20.794Y-127.31
G05
X24.477Y-61.84G85X24.477Y-62.54
G05
X40.098Y-82.16G85X40.098Y-82.86
G05
X40.098Y-101.464G85X40.098Y-102.164
G05
X40.098Y-120.768G85X40.098Y-121.468
G05
X40.098Y-143.628G85X40.098Y-144.328
G05
X43.781Y-62.856G85X43.781Y-63.556
G05
X59.402Y-85.589G85X59.402Y-86.289
G05
X59.402Y-104.893G85X59.402Y-105.593
G05
X59.402Y-124.324G85X59.402Y-125.024
G05
X59.402Y-143.628G85X59.402Y-144.328
G05
X63.085Y-66.412G85X63.085Y-67.112
G05
X78.706Y-89.145G85X78.706Y-89.845
G05
X78.706Y-108.449G85X78.706Y-109.149
G05
X78.706Y-127.88G85X78.706Y-128.58
G05
X78.706Y-146.93G85X78.706Y-147.63
G05
X82.389Y-69.841G85X82.389Y-70.541
G05
X98.01Y-92.701G85X98.01Y-93.401
G05
X98.01Y-112.259G85X98.01Y-112.959
G05
X98.01Y-131.309G85X98.01Y-132.009
G05
X98.01Y-150.74G85X98.01Y-151.44
G05
X98.01Y-166.996G85X98.01Y-167.696
G05
X101.693Y-73.397G85X101.693Y-74.097
G05
X117.314Y-96.384G85X117.314Y-97.084
G05
X117.314Y-115.688G85X117.314Y-116.388
G05
X117.314Y-134.992G85X117.314Y-135.692
G05
X117.314Y-154.296G85X117.314Y-154.996
G05
X120.997Y-77.08G85X120.997Y-77.78
G05
X136.618Y-100.956G85X136.618Y-101.656
G05
X136.618Y-120.26G85X136.618Y-120.96
G05
X136.618Y-139.564G85X136.618Y-140.264
G05
X136.618Y-158.868G85X136.618Y-159.568
G05
X140.301Y-81.525G85X140.301Y-82.225
G05
X155.922Y-102.607G85X155.922Y-103.307
G05
X155.922Y-122.038G85X155.922Y-122.738
G05
X155.922Y-141.342G85X155.922Y-142.042
G05
X155.922Y-160.646G85X155.922Y-161.346
G05
X170.4Y-81.652G85X170.4Y-82.352
G05
X175.226Y-100.956G85X175.226Y-101.656
G05
X175.226Y-120.26G85X175.226Y-120.96
G05
X175.226Y-139.564G85X175.226Y-140.264
G05
X175.226Y-158.868G85X175.226Y-159.568
G05
X189.704Y-77.08G85X189.704Y-77.78
G05
X194.53Y-96.384G85X194.53Y-97.084
G05
X194.53Y-115.688G85X194.53Y-116.388
G05
X194.53Y-134.992G85X194.53Y-135.692
G05
X194.53Y-154.296G85X194.53Y-154.996
G05
X209.008Y-73.27G85X209.008Y-73.97
G05
X213.834Y-92.828G85X213.834Y-93.528
G05
X213.834Y-112.132G85X213.834Y-112.832
G05
X213.834Y-131.436G85X213.834Y-132.136
G05
X214.088Y-150.74G85X214.088Y-151.44
G05
X214.088Y-166.996G85X214.088Y-167.696
G05
X228.312Y-69.968G85X228.312Y-70.668
G05
X233.138Y-89.272G85X233.138Y-89.972
G05
X233.138Y-108.576G85X233.138Y-109.276
G05
X233.138Y-127.88G85X233.138Y-128.58
G05
X233.138Y-147.184G85X233.138Y-147.884
G05
X247.616Y-66.412G85X247.616Y-67.112
G05
X252.442Y-85.716G85X252.442Y-86.416
G05
X252.442Y-105.02G85X252.442Y-105.72
G05
X252.442Y-124.324G85X252.442Y-125.024
G05
X252.442Y-143.374G85X252.442Y-144.074
G05
X252.442Y-162.932G85X252.442Y-163.632
G05
X266.92Y-62.856G85X266.92Y-63.556
G05
X271.746Y-82.16G85X271.746Y-82.86
G05
X271.746Y-101.464G85X271.746Y-102.164
G05
X271.746Y-120.768G85X271.746Y-121.468
G05
X271.746Y-143.12G85X271.746Y-143.82
G05
X271.746Y-162.678G85X271.746Y-163.378
G05
X286.224Y-61.84G85X286.224Y-62.54
G05
X291.05Y-81.144G85X291.05Y-81.844
G05
X291.05Y-100.194G85X291.05Y-100.894
G05
X291.05Y-122.038G85X291.05Y-122.738
G05
X291.05Y-143.374G85X291.05Y-144.074
G05
X291.05Y-162.932G85X291.05Y-163.632
G05
T3
X146.36Y-47.627G85X146.36Y-46.926
G05
X153.36Y-46.926G85X153.36Y-47.627
G05
T4
X18.024Y-77.153G85X18.024Y-77.653
G05
X18.024Y-98.87G85X18.024Y-99.37
G05
X18.024Y-120.46G85X18.024Y-120.96
G05
X21.707Y-55.69G85X21.707Y-56.19
G05
X37.328Y-76.01G85X37.328Y-76.51
G05
X37.328Y-95.314G85X37.328Y-95.814
G05
X37.328Y-114.618G85X37.328Y-115.118
G05
X37.328Y-137.478G85X37.328Y-137.978
G05
X41.011Y-56.706G85X41.011Y-57.206
G05
X56.632Y-79.439G85X56.632Y-79.939
G05
X56.632Y-98.743G85X56.632Y-99.243
G05
X56.632Y-118.174G85X56.632Y-118.674
G05
X56.632Y-137.478G85X56.632Y-137.978
G05
X60.315Y-60.262G85X60.315Y-60.762
G05
X75.936Y-82.995G85X75.936Y-83.495
G05
X75.936Y-102.299G85X75.936Y-102.799
G05
X75.936Y-121.73G85X75.936Y-122.23
G05
X75.936Y-140.78G85X75.936Y-141.28
G05
X79.619Y-63.691G85X79.619Y-64.191
G05
X95.24Y-86.551G85X95.24Y-87.051
G05
X95.24Y-106.109G85X95.24Y-106.609
G05
X95.24Y-125.159G85X95.24Y-125.659
G05
X95.24Y-144.59G85X95.24Y-145.09
G05
X95.24Y-160.846G85X95.24Y-161.346
G05
X98.923Y-67.247G85X98.923Y-67.747
G05
X114.544Y-90.234G85X114.544Y-90.734
G05
X114.544Y-109.538G85X114.544Y-110.038
G05
X114.544Y-128.842G85X114.544Y-129.342
G05
X114.544Y-148.146G85X114.544Y-148.646
G05
X118.227Y-70.93G85X118.227Y-71.43
G05
X133.848Y-94.806G85X133.848Y-95.306
G05
X133.848Y-114.11G85X133.848Y-114.61
G05
X133.848Y-133.414G85X133.848Y-133.914
G05
X133.848Y-152.718G85X133.848Y-153.218
G05
X137.531Y-75.375G85X137.531Y-75.875
G05
X153.152Y-96.457G85X153.152Y-96.957
G05
X153.152Y-115.888G85X153.152Y-116.388
G05
X153.152Y-135.192G85X153.152Y-135.692
G05
X153.152Y-154.496G85X153.152Y-154.996
G05
X167.63Y-75.502G85X167.63Y-76.002
G05
X172.456Y-94.806G85X172.456Y-95.306
G05
X172.456Y-114.11G85X172.456Y-114.61
G05
X172.456Y-133.414G85X172.456Y-133.914
G05
X172.456Y-152.718G85X172.456Y-153.218
G05
X186.934Y-70.93G85X186.934Y-71.43
G05
X191.76Y-90.234G85X191.76Y-90.734
G05
X191.76Y-109.538G85X191.76Y-110.038
G05
X191.76Y-128.842G85X191.76Y-129.342
G05
X191.76Y-148.146G85X191.76Y-148.646
G05
X206.238Y-67.12G85X206.238Y-67.62
G05
X211.064Y-86.678G85X211.064Y-87.178
G05
X211.064Y-105.982G85X211.064Y-106.482
G05
X211.064Y-125.286G85X211.064Y-125.786
G05
X211.318Y-144.59G85X211.318Y-145.09
G05
X211.318Y-160.846G85X211.318Y-161.346
G05
X225.542Y-63.818G85X225.542Y-64.318
G05
X230.368Y-83.122G85X230.368Y-83.622
G05
X230.368Y-102.426G85X230.368Y-102.926
G05
X230.368Y-121.73G85X230.368Y-122.23
G05
X230.368Y-141.034G85X230.368Y-141.534
G05
X244.846Y-60.262G85X244.846Y-60.762
G05
X249.672Y-79.566G85X249.672Y-80.066
G05
X249.672Y-98.87G85X249.672Y-99.37
G05
X249.672Y-118.174G85X249.672Y-118.674
G05
X249.672Y-137.224G85X249.672Y-137.724
G05
X249.672Y-156.782G85X249.672Y-157.282
G05
X264.15Y-56.706G85X264.15Y-57.206
G05
X268.976Y-76.01G85X268.976Y-76.51
G05
X268.976Y-95.314G85X268.976Y-95.814
G05
X268.976Y-114.618G85X268.976Y-115.118
G05
X268.976Y-136.97G85X268.976Y-137.47
G05
X268.976Y-156.528G85X268.976Y-157.028
G05
X283.454Y-55.69G85X283.454Y-56.19
G05
X288.28Y-74.994G85X288.28Y-75.494
G05
X288.28Y-94.044G85X288.28Y-94.544
G05
X288.28Y-115.888G85X288.28Y-116.388
G05
X288.28Y-137.224G85X288.28Y-137.724
G05
X288.28Y-156.782G85X288.28Y-157.282
G05
T0
M30
