G04 #@! TF.GenerationSoftware,KiCad,Pcbnew,5.1.9+dfsg1-1+deb11u1*
G04 #@! TF.CreationDate,2022-10-03T19:41:32+02:00*
G04 #@! TF.ProjectId,BalthazarKeyboard3-keycaps,42616c74-6861-47a6-9172-4b6579626f61,v0.2*
G04 #@! TF.SameCoordinates,Original*
G04 #@! TF.FileFunction,Legend,Bot*
G04 #@! TF.FilePolarity,Positive*
%FSLAX46Y46*%
G04 Gerber Fmt 4.6, Leading zero omitted, Abs format (unit mm)*
G04 Created by KiCad (PCBNEW 5.1.9+dfsg1-1+deb11u1) date 2022-10-03 19:41:32*
%MOMM*%
%LPD*%
G01*
G04 APERTURE LIST*
%ADD10C,0.150000*%
%ADD11C,0.120000*%
G04 APERTURE END LIST*
D10*
X145193000Y-64167000D02*
X145768000Y-64167000D01*
X145193000Y-74517000D02*
X145868000Y-74517000D01*
X155543000Y-74517000D02*
X154868000Y-74517000D01*
X155543000Y-64167000D02*
X154868000Y-64167000D01*
X145193000Y-64167000D02*
X145193000Y-64842000D01*
X155543000Y-64167000D02*
X155543000Y-64842000D01*
X155543000Y-74517000D02*
X155543000Y-73842000D01*
X145193000Y-74517000D02*
X145193000Y-73842000D01*
X145768000Y-64167000D02*
X145768000Y-62892000D01*
D11*
X145960000Y-50276500D02*
X146410000Y-50276500D01*
X145960000Y-48426500D02*
X145960000Y-50276500D01*
X153760000Y-45876500D02*
X153760000Y-46126500D01*
X145960000Y-45876500D02*
X145960000Y-46126500D01*
X153760000Y-48426500D02*
X153760000Y-50276500D01*
X153760000Y-50276500D02*
X153310000Y-50276500D01*
X148160000Y-50826500D02*
X148610000Y-50826500D01*
X148160000Y-50826500D02*
X148160000Y-50376500D01*
X267995000Y-165185000D02*
X271880000Y-165185000D01*
X267995000Y-167455000D02*
X267995000Y-165185000D01*
X271880000Y-167455000D02*
X267995000Y-167455000D01*
X188435064Y-49932000D02*
X187230936Y-49932000D01*
X188435064Y-48112000D02*
X187230936Y-48112000D01*
X160992000Y-51816000D02*
X160992000Y-52751000D01*
X160992000Y-52751000D02*
X162052000Y-52751000D01*
X160992000Y-44136000D02*
X169112000Y-44136000D01*
X169112000Y-44136000D02*
X169112000Y-50606000D01*
X160992000Y-50606000D02*
X169112000Y-50606000D01*
X160992000Y-44136000D02*
X160992000Y-50606000D01*
X167052000Y-44136000D02*
X167052000Y-50606000D01*
X165052000Y-44136000D02*
X165052000Y-50606000D01*
X163052000Y-44136000D02*
X163052000Y-50606000D01*
X168412000Y-50606000D02*
X168412000Y-50953083D01*
X167692000Y-50606000D02*
X167692000Y-50953083D01*
X166412000Y-50606000D02*
X166412000Y-50953083D01*
X165692000Y-50606000D02*
X165692000Y-50953083D01*
X164412000Y-50606000D02*
X164412000Y-50953083D01*
X163692000Y-50606000D02*
X163692000Y-50953083D01*
X162412000Y-50606000D02*
X162412000Y-50881000D01*
X161692000Y-50606000D02*
X161692000Y-50881000D01*
X162937888Y-44136000D02*
X162937888Y-50606000D01*
X162823770Y-44136000D02*
X162823770Y-50606000D01*
X162709652Y-44136000D02*
X162709652Y-50606000D01*
X162595534Y-44136000D02*
X162595534Y-50606000D01*
X162481416Y-44136000D02*
X162481416Y-50606000D01*
X162367298Y-44136000D02*
X162367298Y-50606000D01*
X162253180Y-44136000D02*
X162253180Y-50606000D01*
X162139062Y-44136000D02*
X162139062Y-50606000D01*
X162024944Y-44136000D02*
X162024944Y-50606000D01*
X161910826Y-44136000D02*
X161910826Y-50606000D01*
X161796708Y-44136000D02*
X161796708Y-50606000D01*
X161682590Y-44136000D02*
X161682590Y-50606000D01*
X161568472Y-44136000D02*
X161568472Y-50606000D01*
X161454354Y-44136000D02*
X161454354Y-50606000D01*
X161340236Y-44136000D02*
X161340236Y-50606000D01*
X161226118Y-44136000D02*
X161226118Y-50606000D01*
X161112000Y-44136000D02*
X161112000Y-50606000D01*
X154792000Y-56866064D02*
X154792000Y-55661936D01*
X156612000Y-56866064D02*
X156612000Y-55661936D01*
X20829000Y-64905000D02*
X24714000Y-64905000D01*
X20829000Y-67175000D02*
X20829000Y-64905000D01*
X24714000Y-67175000D02*
X20829000Y-67175000D01*
X40133000Y-65667000D02*
X44018000Y-65667000D01*
X40133000Y-67937000D02*
X40133000Y-65667000D01*
X44018000Y-67937000D02*
X40133000Y-67937000D01*
X59437000Y-69223000D02*
X63322000Y-69223000D01*
X59437000Y-71493000D02*
X59437000Y-69223000D01*
X63322000Y-71493000D02*
X59437000Y-71493000D01*
X78741000Y-72779000D02*
X82626000Y-72779000D01*
X78741000Y-75049000D02*
X78741000Y-72779000D01*
X82626000Y-75049000D02*
X78741000Y-75049000D01*
X98045000Y-76335000D02*
X101930000Y-76335000D01*
X98045000Y-78605000D02*
X98045000Y-76335000D01*
X101930000Y-78605000D02*
X98045000Y-78605000D01*
X117349000Y-80145000D02*
X121234000Y-80145000D01*
X117349000Y-82415000D02*
X117349000Y-80145000D01*
X121234000Y-82415000D02*
X117349000Y-82415000D01*
X136399000Y-84463000D02*
X140284000Y-84463000D01*
X136399000Y-86733000D02*
X136399000Y-84463000D01*
X140284000Y-86733000D02*
X136399000Y-86733000D01*
X36323000Y-85225000D02*
X40208000Y-85225000D01*
X36323000Y-87495000D02*
X36323000Y-85225000D01*
X40208000Y-87495000D02*
X36323000Y-87495000D01*
X55627000Y-88527000D02*
X59512000Y-88527000D01*
X55627000Y-90797000D02*
X55627000Y-88527000D01*
X59512000Y-90797000D02*
X55627000Y-90797000D01*
X74931000Y-92083000D02*
X78816000Y-92083000D01*
X74931000Y-94353000D02*
X74931000Y-92083000D01*
X78816000Y-94353000D02*
X74931000Y-94353000D01*
X94235000Y-95639000D02*
X98120000Y-95639000D01*
X94235000Y-97909000D02*
X94235000Y-95639000D01*
X98120000Y-97909000D02*
X94235000Y-97909000D01*
X113539000Y-99449000D02*
X117424000Y-99449000D01*
X113539000Y-101719000D02*
X113539000Y-99449000D01*
X117424000Y-101719000D02*
X113539000Y-101719000D01*
X132843000Y-103767000D02*
X136728000Y-103767000D01*
X132843000Y-106037000D02*
X132843000Y-103767000D01*
X136728000Y-106037000D02*
X132843000Y-106037000D01*
X152147000Y-105799000D02*
X156032000Y-105799000D01*
X152147000Y-108069000D02*
X152147000Y-105799000D01*
X156032000Y-108069000D02*
X152147000Y-108069000D01*
X17019000Y-86241000D02*
X20904000Y-86241000D01*
X17019000Y-88511000D02*
X17019000Y-86241000D01*
X20904000Y-88511000D02*
X17019000Y-88511000D01*
X55627000Y-107831000D02*
X59512000Y-107831000D01*
X55627000Y-110101000D02*
X55627000Y-107831000D01*
X59512000Y-110101000D02*
X55627000Y-110101000D01*
X74931000Y-111387000D02*
X78816000Y-111387000D01*
X74931000Y-113657000D02*
X74931000Y-111387000D01*
X78816000Y-113657000D02*
X74931000Y-113657000D01*
X94235000Y-115197000D02*
X98120000Y-115197000D01*
X94235000Y-117467000D02*
X94235000Y-115197000D01*
X98120000Y-117467000D02*
X94235000Y-117467000D01*
X113539000Y-118499000D02*
X117424000Y-118499000D01*
X113539000Y-120769000D02*
X113539000Y-118499000D01*
X117424000Y-120769000D02*
X113539000Y-120769000D01*
X132843000Y-123071000D02*
X136728000Y-123071000D01*
X132843000Y-125341000D02*
X132843000Y-123071000D01*
X136728000Y-125341000D02*
X132843000Y-125341000D01*
X152147000Y-125103000D02*
X156032000Y-125103000D01*
X152147000Y-127373000D02*
X152147000Y-125103000D01*
X156032000Y-127373000D02*
X152147000Y-127373000D01*
X36323000Y-104275000D02*
X40208000Y-104275000D01*
X36323000Y-106545000D02*
X36323000Y-104275000D01*
X40208000Y-106545000D02*
X36323000Y-106545000D01*
X55627000Y-127389000D02*
X59512000Y-127389000D01*
X55627000Y-129659000D02*
X55627000Y-127389000D01*
X59512000Y-129659000D02*
X55627000Y-129659000D01*
X74931000Y-130691000D02*
X78816000Y-130691000D01*
X74931000Y-132961000D02*
X74931000Y-130691000D01*
X78816000Y-132961000D02*
X74931000Y-132961000D01*
X94235000Y-134247000D02*
X98120000Y-134247000D01*
X94235000Y-136517000D02*
X94235000Y-134247000D01*
X98120000Y-136517000D02*
X94235000Y-136517000D01*
X113539000Y-137803000D02*
X117424000Y-137803000D01*
X113539000Y-140073000D02*
X113539000Y-137803000D01*
X117424000Y-140073000D02*
X113539000Y-140073000D01*
X132843000Y-142375000D02*
X136728000Y-142375000D01*
X132843000Y-144645000D02*
X132843000Y-142375000D01*
X136728000Y-144645000D02*
X132843000Y-144645000D01*
X152147000Y-144153000D02*
X156032000Y-144153000D01*
X152147000Y-146423000D02*
X152147000Y-144153000D01*
X156032000Y-146423000D02*
X152147000Y-146423000D01*
X17019000Y-108085000D02*
X20904000Y-108085000D01*
X17019000Y-110355000D02*
X17019000Y-108085000D01*
X20904000Y-110355000D02*
X17019000Y-110355000D01*
X55627000Y-146439000D02*
X59512000Y-146439000D01*
X55627000Y-148709000D02*
X55627000Y-146439000D01*
X59512000Y-148709000D02*
X55627000Y-148709000D01*
X74931000Y-149741000D02*
X78816000Y-149741000D01*
X74931000Y-152011000D02*
X74931000Y-149741000D01*
X78816000Y-152011000D02*
X74931000Y-152011000D01*
X94235000Y-153805000D02*
X98120000Y-153805000D01*
X94235000Y-156075000D02*
X94235000Y-153805000D01*
X98120000Y-156075000D02*
X94235000Y-156075000D01*
X113539000Y-157107000D02*
X117424000Y-157107000D01*
X113539000Y-159377000D02*
X113539000Y-157107000D01*
X117424000Y-159377000D02*
X113539000Y-159377000D01*
X132843000Y-161679000D02*
X136728000Y-161679000D01*
X132843000Y-163949000D02*
X132843000Y-161679000D01*
X136728000Y-163949000D02*
X132843000Y-163949000D01*
X152147000Y-163457000D02*
X156032000Y-163457000D01*
X152147000Y-165727000D02*
X152147000Y-163457000D01*
X156032000Y-165727000D02*
X152147000Y-165727000D01*
X17019000Y-129421000D02*
X20904000Y-129421000D01*
X17019000Y-131691000D02*
X17019000Y-129421000D01*
X20904000Y-131691000D02*
X17019000Y-131691000D01*
X36323000Y-123833000D02*
X40208000Y-123833000D01*
X36323000Y-126103000D02*
X36323000Y-123833000D01*
X40208000Y-126103000D02*
X36323000Y-126103000D01*
X36323000Y-146439000D02*
X40208000Y-146439000D01*
X36323000Y-148709000D02*
X36323000Y-146439000D01*
X40208000Y-148709000D02*
X36323000Y-148709000D01*
X83189000Y-157615000D02*
X87074000Y-157615000D01*
X83189000Y-159885000D02*
X83189000Y-157615000D01*
X87074000Y-159885000D02*
X83189000Y-159885000D01*
X248667000Y-165575000D02*
X252552000Y-165575000D01*
X248667000Y-167845000D02*
X248667000Y-165575000D01*
X252552000Y-167845000D02*
X248667000Y-167845000D01*
X287305000Y-165445000D02*
X291190000Y-165445000D01*
X287305000Y-167715000D02*
X287305000Y-165445000D01*
X291190000Y-167715000D02*
X287305000Y-167715000D01*
X166625000Y-84717000D02*
X170510000Y-84717000D01*
X166625000Y-86987000D02*
X166625000Y-84717000D01*
X170510000Y-86987000D02*
X166625000Y-86987000D01*
X185929000Y-80145000D02*
X189814000Y-80145000D01*
X185929000Y-82415000D02*
X185929000Y-80145000D01*
X189814000Y-82415000D02*
X185929000Y-82415000D01*
X205233000Y-76335000D02*
X209118000Y-76335000D01*
X205233000Y-78605000D02*
X205233000Y-76335000D01*
X209118000Y-78605000D02*
X205233000Y-78605000D01*
X224537000Y-73033000D02*
X228422000Y-73033000D01*
X224537000Y-75303000D02*
X224537000Y-73033000D01*
X228422000Y-75303000D02*
X224537000Y-75303000D01*
X243841000Y-69223000D02*
X247726000Y-69223000D01*
X243841000Y-71493000D02*
X243841000Y-69223000D01*
X247726000Y-71493000D02*
X243841000Y-71493000D01*
X263145000Y-65667000D02*
X267030000Y-65667000D01*
X263145000Y-67937000D02*
X263145000Y-65667000D01*
X267030000Y-67937000D02*
X263145000Y-67937000D01*
X282449000Y-64651000D02*
X286334000Y-64651000D01*
X282449000Y-66921000D02*
X282449000Y-64651000D01*
X286334000Y-66921000D02*
X282449000Y-66921000D01*
X171451000Y-103767000D02*
X175336000Y-103767000D01*
X171451000Y-106037000D02*
X171451000Y-103767000D01*
X175336000Y-106037000D02*
X171451000Y-106037000D01*
X190755000Y-99449000D02*
X194640000Y-99449000D01*
X190755000Y-101719000D02*
X190755000Y-99449000D01*
X194640000Y-101719000D02*
X190755000Y-101719000D01*
X210059000Y-95639000D02*
X213944000Y-95639000D01*
X210059000Y-97909000D02*
X210059000Y-95639000D01*
X213944000Y-97909000D02*
X210059000Y-97909000D01*
X229363000Y-92083000D02*
X233248000Y-92083000D01*
X229363000Y-94353000D02*
X229363000Y-92083000D01*
X233248000Y-94353000D02*
X229363000Y-94353000D01*
X248667000Y-88781000D02*
X252552000Y-88781000D01*
X248667000Y-91051000D02*
X248667000Y-88781000D01*
X252552000Y-91051000D02*
X248667000Y-91051000D01*
X267971000Y-84971000D02*
X271856000Y-84971000D01*
X267971000Y-87241000D02*
X267971000Y-84971000D01*
X271856000Y-87241000D02*
X267971000Y-87241000D01*
X287275000Y-83955000D02*
X291160000Y-83955000D01*
X287275000Y-86225000D02*
X287275000Y-83955000D01*
X291160000Y-86225000D02*
X287275000Y-86225000D01*
X171451000Y-122817000D02*
X175336000Y-122817000D01*
X171451000Y-125087000D02*
X171451000Y-122817000D01*
X175336000Y-125087000D02*
X171451000Y-125087000D01*
X190755000Y-118499000D02*
X194640000Y-118499000D01*
X190755000Y-120769000D02*
X190755000Y-118499000D01*
X194640000Y-120769000D02*
X190755000Y-120769000D01*
X210059000Y-114943000D02*
X213944000Y-114943000D01*
X210059000Y-117213000D02*
X210059000Y-114943000D01*
X213944000Y-117213000D02*
X210059000Y-117213000D01*
X229363000Y-111387000D02*
X233248000Y-111387000D01*
X229363000Y-113657000D02*
X229363000Y-111387000D01*
X233248000Y-113657000D02*
X229363000Y-113657000D01*
X248667000Y-107831000D02*
X252552000Y-107831000D01*
X248667000Y-110101000D02*
X248667000Y-107831000D01*
X252552000Y-110101000D02*
X248667000Y-110101000D01*
X267971000Y-104275000D02*
X271856000Y-104275000D01*
X267971000Y-106545000D02*
X267971000Y-104275000D01*
X271856000Y-106545000D02*
X267971000Y-106545000D01*
X287275000Y-103005000D02*
X291160000Y-103005000D01*
X287275000Y-105275000D02*
X287275000Y-103005000D01*
X291160000Y-105275000D02*
X287275000Y-105275000D01*
X171451000Y-142629000D02*
X175336000Y-142629000D01*
X171451000Y-144899000D02*
X171451000Y-142629000D01*
X175336000Y-144899000D02*
X171451000Y-144899000D01*
X190755000Y-137803000D02*
X194640000Y-137803000D01*
X190755000Y-140073000D02*
X190755000Y-137803000D01*
X194640000Y-140073000D02*
X190755000Y-140073000D01*
X210059000Y-134247000D02*
X213944000Y-134247000D01*
X210059000Y-136517000D02*
X210059000Y-134247000D01*
X213944000Y-136517000D02*
X210059000Y-136517000D01*
X229363000Y-130691000D02*
X233248000Y-130691000D01*
X229363000Y-132961000D02*
X229363000Y-130691000D01*
X233248000Y-132961000D02*
X229363000Y-132961000D01*
X248667000Y-127135000D02*
X252552000Y-127135000D01*
X248667000Y-129405000D02*
X248667000Y-127135000D01*
X252552000Y-129405000D02*
X248667000Y-129405000D01*
X271856000Y-125849000D02*
X267971000Y-125849000D01*
X267971000Y-125849000D02*
X267971000Y-123579000D01*
X267971000Y-123579000D02*
X271856000Y-123579000D01*
X291160000Y-127119000D02*
X287275000Y-127119000D01*
X287275000Y-127119000D02*
X287275000Y-124849000D01*
X287275000Y-124849000D02*
X291160000Y-124849000D01*
X171451000Y-161679000D02*
X175336000Y-161679000D01*
X171451000Y-163949000D02*
X171451000Y-161679000D01*
X175336000Y-163949000D02*
X171451000Y-163949000D01*
X190755000Y-157107000D02*
X194640000Y-157107000D01*
X190755000Y-159377000D02*
X190755000Y-157107000D01*
X194640000Y-159377000D02*
X190755000Y-159377000D01*
X210313000Y-153551000D02*
X214198000Y-153551000D01*
X210313000Y-155821000D02*
X210313000Y-153551000D01*
X214198000Y-155821000D02*
X210313000Y-155821000D01*
X229363000Y-149995000D02*
X233248000Y-149995000D01*
X229363000Y-152265000D02*
X229363000Y-149995000D01*
X233248000Y-152265000D02*
X229363000Y-152265000D01*
X248667000Y-146185000D02*
X252552000Y-146185000D01*
X248667000Y-148455000D02*
X248667000Y-146185000D01*
X252552000Y-148455000D02*
X248667000Y-148455000D01*
X267971000Y-145931000D02*
X271856000Y-145931000D01*
X267971000Y-148201000D02*
X267971000Y-145931000D01*
X271856000Y-148201000D02*
X267971000Y-148201000D01*
X287275000Y-146185000D02*
X291160000Y-146185000D01*
X287275000Y-148455000D02*
X287275000Y-146185000D01*
X291160000Y-148455000D02*
X287275000Y-148455000D01*
X149754000Y-55785936D02*
X149754000Y-56990064D01*
X147934000Y-55785936D02*
X147934000Y-56990064D01*
X152040000Y-55785936D02*
X152040000Y-56990064D01*
X150220000Y-55785936D02*
X150220000Y-56990064D01*
X135033936Y-52938000D02*
X136238064Y-52938000D01*
X135033936Y-54758000D02*
X136238064Y-54758000D01*
X167081295Y-68396711D02*
X164394289Y-65709705D01*
X162767944Y-64083359D02*
X163100284Y-64415700D01*
X160222359Y-66628944D02*
X160554700Y-66961284D01*
X162767944Y-64083359D02*
X161848705Y-65002598D01*
X161141598Y-65709705D02*
X160222359Y-66628944D01*
X161848705Y-68255289D02*
X164535711Y-70942295D01*
X168707641Y-70023056D02*
X168375300Y-69690716D01*
X166162056Y-72568641D02*
X168707641Y-70023056D01*
X165829716Y-72236300D02*
X166162056Y-72568641D01*
X161848706Y-65002599D02*
G75*
G02*
X161141598Y-65709705I-353554J-353553D01*
G01*
X195074000Y-50157000D02*
X191189000Y-50157000D01*
X195074000Y-47887000D02*
X195074000Y-50157000D01*
X191189000Y-47887000D02*
X195074000Y-47887000D01*
X145752000Y-51816000D02*
X145752000Y-52751000D01*
X145752000Y-52751000D02*
X146812000Y-52751000D01*
X145752000Y-44136000D02*
X153872000Y-44136000D01*
X153872000Y-44136000D02*
X153872000Y-50606000D01*
X145752000Y-50606000D02*
X153872000Y-50606000D01*
X145752000Y-44136000D02*
X145752000Y-50606000D01*
X151812000Y-44136000D02*
X151812000Y-50606000D01*
X149812000Y-44136000D02*
X149812000Y-50606000D01*
X147812000Y-44136000D02*
X147812000Y-50606000D01*
X153172000Y-50606000D02*
X153172000Y-50953083D01*
X152452000Y-50606000D02*
X152452000Y-50953083D01*
X151172000Y-50606000D02*
X151172000Y-50953083D01*
X150452000Y-50606000D02*
X150452000Y-50953083D01*
X149172000Y-50606000D02*
X149172000Y-50953083D01*
X148452000Y-50606000D02*
X148452000Y-50953083D01*
X147172000Y-50606000D02*
X147172000Y-50881000D01*
X146452000Y-50606000D02*
X146452000Y-50881000D01*
X147697888Y-44136000D02*
X147697888Y-50606000D01*
X147583770Y-44136000D02*
X147583770Y-50606000D01*
X147469652Y-44136000D02*
X147469652Y-50606000D01*
X147355534Y-44136000D02*
X147355534Y-50606000D01*
X147241416Y-44136000D02*
X147241416Y-50606000D01*
X147127298Y-44136000D02*
X147127298Y-50606000D01*
X147013180Y-44136000D02*
X147013180Y-50606000D01*
X146899062Y-44136000D02*
X146899062Y-50606000D01*
X146784944Y-44136000D02*
X146784944Y-50606000D01*
X146670826Y-44136000D02*
X146670826Y-50606000D01*
X146556708Y-44136000D02*
X146556708Y-50606000D01*
X146442590Y-44136000D02*
X146442590Y-50606000D01*
X146328472Y-44136000D02*
X146328472Y-50606000D01*
X146214354Y-44136000D02*
X146214354Y-50606000D01*
X146100236Y-44136000D02*
X146100236Y-50606000D01*
X145986118Y-44136000D02*
X145986118Y-50606000D01*
X145872000Y-44136000D02*
X145872000Y-50606000D01*
X152506000Y-59784064D02*
X152506000Y-58579936D01*
X154326000Y-59784064D02*
X154326000Y-58579936D01*
X140621936Y-75332000D02*
X141826064Y-75332000D01*
X140621936Y-73512000D02*
X141826064Y-73512000D01*
X147566000Y-54788000D02*
X147566000Y-58673000D01*
X147566000Y-58673000D02*
X145296000Y-58673000D01*
X145296000Y-58673000D02*
X145296000Y-54788000D01*
X136619064Y-59542000D02*
X135414936Y-59542000D01*
X136619064Y-61362000D02*
X135414936Y-61362000D01*
X156668064Y-76440000D02*
X155463936Y-76440000D01*
X156668064Y-78260000D02*
X155463936Y-78260000D01*
X143326000Y-61376936D02*
X143326000Y-62581064D01*
X141506000Y-61376936D02*
X141506000Y-62581064D01*
X159675256Y-62557809D02*
X158823809Y-63409256D01*
X160962191Y-63844744D02*
X160110744Y-64696191D01*
X163484936Y-55859000D02*
X164689064Y-55859000D01*
X163484936Y-57679000D02*
X164689064Y-57679000D01*
X163481936Y-55393000D02*
X164686064Y-55393000D01*
X163481936Y-53573000D02*
X164686064Y-53573000D01*
X130290000Y-59000000D02*
X136410000Y-59000000D01*
X136410000Y-59000000D02*
X136410000Y-55300000D01*
X136410000Y-55300000D02*
X130290000Y-55300000D01*
X130290000Y-55300000D02*
X130290000Y-59000000D01*
X166816204Y-62434112D02*
X167181888Y-62799796D01*
X165812112Y-63438204D02*
X166177796Y-63803888D01*
X169425204Y-71974888D02*
X169790888Y-71609204D01*
X168421112Y-70970796D02*
X168786796Y-70605112D01*
X191440000Y-61349000D02*
X195325000Y-61349000D01*
X195325000Y-61349000D02*
X195325000Y-63619000D01*
X195325000Y-63619000D02*
X191440000Y-63619000D01*
X188816064Y-61574000D02*
X187611936Y-61574000D01*
X188816064Y-63394000D02*
X187611936Y-63394000D01*
X143808000Y-50376000D02*
X131688000Y-50376000D01*
X131688000Y-50376000D02*
X131688000Y-48756000D01*
X131688000Y-48756000D02*
X143808000Y-48756000D01*
X143808000Y-48756000D02*
X143808000Y-50376000D01*
X143058000Y-48756000D02*
X143058000Y-44556000D01*
X143058000Y-44556000D02*
X142438000Y-44556000D01*
X142438000Y-44556000D02*
X142438000Y-48756000D01*
X142998000Y-48756000D02*
X142998000Y-44556000D01*
X142878000Y-48756000D02*
X142878000Y-44556000D01*
X142758000Y-48756000D02*
X142758000Y-44556000D01*
X142638000Y-48756000D02*
X142638000Y-44556000D01*
X142518000Y-48756000D02*
X142518000Y-44556000D01*
X143058000Y-50881000D02*
X143058000Y-50376000D01*
X142438000Y-50881000D02*
X142438000Y-50376000D01*
X141748000Y-50376000D02*
X141748000Y-48756000D01*
X141058000Y-48756000D02*
X141058000Y-44556000D01*
X141058000Y-44556000D02*
X140438000Y-44556000D01*
X140438000Y-44556000D02*
X140438000Y-48756000D01*
X141058000Y-50933886D02*
X141058000Y-50376000D01*
X140438000Y-50933886D02*
X140438000Y-50376000D01*
X139748000Y-50376000D02*
X139748000Y-48756000D01*
X139058000Y-48756000D02*
X139058000Y-44556000D01*
X139058000Y-44556000D02*
X138438000Y-44556000D01*
X138438000Y-44556000D02*
X138438000Y-48756000D01*
X139058000Y-50933886D02*
X139058000Y-50376000D01*
X138438000Y-50933886D02*
X138438000Y-50376000D01*
X137748000Y-50376000D02*
X137748000Y-48756000D01*
X137058000Y-48756000D02*
X137058000Y-44556000D01*
X137058000Y-44556000D02*
X136438000Y-44556000D01*
X136438000Y-44556000D02*
X136438000Y-48756000D01*
X137058000Y-50933886D02*
X137058000Y-50376000D01*
X136438000Y-50933886D02*
X136438000Y-50376000D01*
X135748000Y-50376000D02*
X135748000Y-48756000D01*
X135058000Y-48756000D02*
X135058000Y-44556000D01*
X135058000Y-44556000D02*
X134438000Y-44556000D01*
X134438000Y-44556000D02*
X134438000Y-48756000D01*
X135058000Y-50933886D02*
X135058000Y-50376000D01*
X134438000Y-50933886D02*
X134438000Y-50376000D01*
X133748000Y-50376000D02*
X133748000Y-48756000D01*
X133058000Y-48756000D02*
X133058000Y-44556000D01*
X133058000Y-44556000D02*
X132438000Y-44556000D01*
X132438000Y-44556000D02*
X132438000Y-48756000D01*
X133058000Y-50933886D02*
X133058000Y-50376000D01*
X132438000Y-50933886D02*
X132438000Y-50376000D01*
X142748000Y-52816000D02*
X143748000Y-52816000D01*
X143748000Y-52816000D02*
X143748000Y-51816000D01*
D10*
X142370380Y-68580095D02*
X143179904Y-68580095D01*
X143275142Y-68627714D01*
X143322761Y-68675333D01*
X143370380Y-68770571D01*
X143370380Y-68961047D01*
X143322761Y-69056285D01*
X143275142Y-69103904D01*
X143179904Y-69151523D01*
X142370380Y-69151523D01*
X143370380Y-70151523D02*
X143370380Y-69580095D01*
X143370380Y-69865809D02*
X142370380Y-69865809D01*
X142513238Y-69770571D01*
X142608476Y-69675333D01*
X142656095Y-69580095D01*
X150193333Y-51078880D02*
X150193333Y-51793166D01*
X150240952Y-51936023D01*
X150336190Y-52031261D01*
X150479047Y-52078880D01*
X150574285Y-52078880D01*
X149764761Y-51174119D02*
X149717142Y-51126500D01*
X149621904Y-51078880D01*
X149383809Y-51078880D01*
X149288571Y-51126500D01*
X149240952Y-51174119D01*
X149193333Y-51269357D01*
X149193333Y-51364595D01*
X149240952Y-51507452D01*
X149812380Y-52078880D01*
X149193333Y-52078880D01*
X271494285Y-168592380D02*
X271494285Y-167592380D01*
X271256190Y-167592380D01*
X271113333Y-167640000D01*
X271018095Y-167735238D01*
X270970476Y-167830476D01*
X270922857Y-168020952D01*
X270922857Y-168163809D01*
X270970476Y-168354285D01*
X271018095Y-168449523D01*
X271113333Y-168544761D01*
X271256190Y-168592380D01*
X271494285Y-168592380D01*
X270065714Y-167925714D02*
X270065714Y-168592380D01*
X270303809Y-167544761D02*
X270541904Y-168259047D01*
X269922857Y-168259047D01*
X269637142Y-167592380D02*
X269018095Y-167592380D01*
X269351428Y-167973333D01*
X269208571Y-167973333D01*
X269113333Y-168020952D01*
X269065714Y-168068571D01*
X269018095Y-168163809D01*
X269018095Y-168401904D01*
X269065714Y-168497142D01*
X269113333Y-168544761D01*
X269208571Y-168592380D01*
X269494285Y-168592380D01*
X269589523Y-168544761D01*
X269637142Y-168497142D01*
X187999666Y-47654380D02*
X188333000Y-47178190D01*
X188571095Y-47654380D02*
X188571095Y-46654380D01*
X188190142Y-46654380D01*
X188094904Y-46702000D01*
X188047285Y-46749619D01*
X187999666Y-46844857D01*
X187999666Y-46987714D01*
X188047285Y-47082952D01*
X188094904Y-47130571D01*
X188190142Y-47178190D01*
X188571095Y-47178190D01*
X187428238Y-47082952D02*
X187523476Y-47035333D01*
X187571095Y-46987714D01*
X187618714Y-46892476D01*
X187618714Y-46844857D01*
X187571095Y-46749619D01*
X187523476Y-46702000D01*
X187428238Y-46654380D01*
X187237761Y-46654380D01*
X187142523Y-46702000D01*
X187094904Y-46749619D01*
X187047285Y-46844857D01*
X187047285Y-46892476D01*
X187094904Y-46987714D01*
X187142523Y-47035333D01*
X187237761Y-47082952D01*
X187428238Y-47082952D01*
X187523476Y-47130571D01*
X187571095Y-47178190D01*
X187618714Y-47273428D01*
X187618714Y-47463904D01*
X187571095Y-47559142D01*
X187523476Y-47606761D01*
X187428238Y-47654380D01*
X187237761Y-47654380D01*
X187142523Y-47606761D01*
X187094904Y-47559142D01*
X187047285Y-47463904D01*
X187047285Y-47273428D01*
X187094904Y-47178190D01*
X187142523Y-47130571D01*
X187237761Y-47082952D01*
X159438380Y-51556666D02*
X160152666Y-51556666D01*
X160295523Y-51509047D01*
X160390761Y-51413809D01*
X160438380Y-51270952D01*
X160438380Y-51175714D01*
X159438380Y-51937619D02*
X159438380Y-52556666D01*
X159819333Y-52223333D01*
X159819333Y-52366190D01*
X159866952Y-52461428D01*
X159914571Y-52509047D01*
X160009809Y-52556666D01*
X160247904Y-52556666D01*
X160343142Y-52509047D01*
X160390761Y-52461428D01*
X160438380Y-52366190D01*
X160438380Y-52080476D01*
X160390761Y-51985238D01*
X160343142Y-51937619D01*
X157879142Y-56097333D02*
X157926761Y-56049714D01*
X157974380Y-55906857D01*
X157974380Y-55811619D01*
X157926761Y-55668761D01*
X157831523Y-55573523D01*
X157736285Y-55525904D01*
X157545809Y-55478285D01*
X157402952Y-55478285D01*
X157212476Y-55525904D01*
X157117238Y-55573523D01*
X157022000Y-55668761D01*
X156974380Y-55811619D01*
X156974380Y-55906857D01*
X157022000Y-56049714D01*
X157069619Y-56097333D01*
X156974380Y-56430666D02*
X156974380Y-57049714D01*
X157355333Y-56716380D01*
X157355333Y-56859238D01*
X157402952Y-56954476D01*
X157450571Y-57002095D01*
X157545809Y-57049714D01*
X157783904Y-57049714D01*
X157879142Y-57002095D01*
X157926761Y-56954476D01*
X157974380Y-56859238D01*
X157974380Y-56573523D01*
X157926761Y-56478285D01*
X157879142Y-56430666D01*
X23852095Y-68312380D02*
X23852095Y-67312380D01*
X23614000Y-67312380D01*
X23471142Y-67360000D01*
X23375904Y-67455238D01*
X23328285Y-67550476D01*
X23280666Y-67740952D01*
X23280666Y-67883809D01*
X23328285Y-68074285D01*
X23375904Y-68169523D01*
X23471142Y-68264761D01*
X23614000Y-68312380D01*
X23852095Y-68312380D01*
X22328285Y-68312380D02*
X22899714Y-68312380D01*
X22614000Y-68312380D02*
X22614000Y-67312380D01*
X22709238Y-67455238D01*
X22804476Y-67550476D01*
X22899714Y-67598095D01*
X43156095Y-69074380D02*
X43156095Y-68074380D01*
X42918000Y-68074380D01*
X42775142Y-68122000D01*
X42679904Y-68217238D01*
X42632285Y-68312476D01*
X42584666Y-68502952D01*
X42584666Y-68645809D01*
X42632285Y-68836285D01*
X42679904Y-68931523D01*
X42775142Y-69026761D01*
X42918000Y-69074380D01*
X43156095Y-69074380D01*
X42203714Y-68169619D02*
X42156095Y-68122000D01*
X42060857Y-68074380D01*
X41822761Y-68074380D01*
X41727523Y-68122000D01*
X41679904Y-68169619D01*
X41632285Y-68264857D01*
X41632285Y-68360095D01*
X41679904Y-68502952D01*
X42251333Y-69074380D01*
X41632285Y-69074380D01*
X62460095Y-72630380D02*
X62460095Y-71630380D01*
X62222000Y-71630380D01*
X62079142Y-71678000D01*
X61983904Y-71773238D01*
X61936285Y-71868476D01*
X61888666Y-72058952D01*
X61888666Y-72201809D01*
X61936285Y-72392285D01*
X61983904Y-72487523D01*
X62079142Y-72582761D01*
X62222000Y-72630380D01*
X62460095Y-72630380D01*
X61555333Y-71630380D02*
X60936285Y-71630380D01*
X61269619Y-72011333D01*
X61126761Y-72011333D01*
X61031523Y-72058952D01*
X60983904Y-72106571D01*
X60936285Y-72201809D01*
X60936285Y-72439904D01*
X60983904Y-72535142D01*
X61031523Y-72582761D01*
X61126761Y-72630380D01*
X61412476Y-72630380D01*
X61507714Y-72582761D01*
X61555333Y-72535142D01*
X81764095Y-76186380D02*
X81764095Y-75186380D01*
X81526000Y-75186380D01*
X81383142Y-75234000D01*
X81287904Y-75329238D01*
X81240285Y-75424476D01*
X81192666Y-75614952D01*
X81192666Y-75757809D01*
X81240285Y-75948285D01*
X81287904Y-76043523D01*
X81383142Y-76138761D01*
X81526000Y-76186380D01*
X81764095Y-76186380D01*
X80335523Y-75519714D02*
X80335523Y-76186380D01*
X80573619Y-75138761D02*
X80811714Y-75853047D01*
X80192666Y-75853047D01*
X101068095Y-79742380D02*
X101068095Y-78742380D01*
X100830000Y-78742380D01*
X100687142Y-78790000D01*
X100591904Y-78885238D01*
X100544285Y-78980476D01*
X100496666Y-79170952D01*
X100496666Y-79313809D01*
X100544285Y-79504285D01*
X100591904Y-79599523D01*
X100687142Y-79694761D01*
X100830000Y-79742380D01*
X101068095Y-79742380D01*
X99591904Y-78742380D02*
X100068095Y-78742380D01*
X100115714Y-79218571D01*
X100068095Y-79170952D01*
X99972857Y-79123333D01*
X99734761Y-79123333D01*
X99639523Y-79170952D01*
X99591904Y-79218571D01*
X99544285Y-79313809D01*
X99544285Y-79551904D01*
X99591904Y-79647142D01*
X99639523Y-79694761D01*
X99734761Y-79742380D01*
X99972857Y-79742380D01*
X100068095Y-79694761D01*
X100115714Y-79647142D01*
X120372095Y-83552380D02*
X120372095Y-82552380D01*
X120134000Y-82552380D01*
X119991142Y-82600000D01*
X119895904Y-82695238D01*
X119848285Y-82790476D01*
X119800666Y-82980952D01*
X119800666Y-83123809D01*
X119848285Y-83314285D01*
X119895904Y-83409523D01*
X119991142Y-83504761D01*
X120134000Y-83552380D01*
X120372095Y-83552380D01*
X118943523Y-82552380D02*
X119134000Y-82552380D01*
X119229238Y-82600000D01*
X119276857Y-82647619D01*
X119372095Y-82790476D01*
X119419714Y-82980952D01*
X119419714Y-83361904D01*
X119372095Y-83457142D01*
X119324476Y-83504761D01*
X119229238Y-83552380D01*
X119038761Y-83552380D01*
X118943523Y-83504761D01*
X118895904Y-83457142D01*
X118848285Y-83361904D01*
X118848285Y-83123809D01*
X118895904Y-83028571D01*
X118943523Y-82980952D01*
X119038761Y-82933333D01*
X119229238Y-82933333D01*
X119324476Y-82980952D01*
X119372095Y-83028571D01*
X119419714Y-83123809D01*
X139422095Y-87870380D02*
X139422095Y-86870380D01*
X139184000Y-86870380D01*
X139041142Y-86918000D01*
X138945904Y-87013238D01*
X138898285Y-87108476D01*
X138850666Y-87298952D01*
X138850666Y-87441809D01*
X138898285Y-87632285D01*
X138945904Y-87727523D01*
X139041142Y-87822761D01*
X139184000Y-87870380D01*
X139422095Y-87870380D01*
X138517333Y-86870380D02*
X137850666Y-86870380D01*
X138279238Y-87870380D01*
X39346095Y-88632380D02*
X39346095Y-87632380D01*
X39108000Y-87632380D01*
X38965142Y-87680000D01*
X38869904Y-87775238D01*
X38822285Y-87870476D01*
X38774666Y-88060952D01*
X38774666Y-88203809D01*
X38822285Y-88394285D01*
X38869904Y-88489523D01*
X38965142Y-88584761D01*
X39108000Y-88632380D01*
X39346095Y-88632380D01*
X38203238Y-88060952D02*
X38298476Y-88013333D01*
X38346095Y-87965714D01*
X38393714Y-87870476D01*
X38393714Y-87822857D01*
X38346095Y-87727619D01*
X38298476Y-87680000D01*
X38203238Y-87632380D01*
X38012761Y-87632380D01*
X37917523Y-87680000D01*
X37869904Y-87727619D01*
X37822285Y-87822857D01*
X37822285Y-87870476D01*
X37869904Y-87965714D01*
X37917523Y-88013333D01*
X38012761Y-88060952D01*
X38203238Y-88060952D01*
X38298476Y-88108571D01*
X38346095Y-88156190D01*
X38393714Y-88251428D01*
X38393714Y-88441904D01*
X38346095Y-88537142D01*
X38298476Y-88584761D01*
X38203238Y-88632380D01*
X38012761Y-88632380D01*
X37917523Y-88584761D01*
X37869904Y-88537142D01*
X37822285Y-88441904D01*
X37822285Y-88251428D01*
X37869904Y-88156190D01*
X37917523Y-88108571D01*
X38012761Y-88060952D01*
X58650095Y-91934380D02*
X58650095Y-90934380D01*
X58412000Y-90934380D01*
X58269142Y-90982000D01*
X58173904Y-91077238D01*
X58126285Y-91172476D01*
X58078666Y-91362952D01*
X58078666Y-91505809D01*
X58126285Y-91696285D01*
X58173904Y-91791523D01*
X58269142Y-91886761D01*
X58412000Y-91934380D01*
X58650095Y-91934380D01*
X57602476Y-91934380D02*
X57412000Y-91934380D01*
X57316761Y-91886761D01*
X57269142Y-91839142D01*
X57173904Y-91696285D01*
X57126285Y-91505809D01*
X57126285Y-91124857D01*
X57173904Y-91029619D01*
X57221523Y-90982000D01*
X57316761Y-90934380D01*
X57507238Y-90934380D01*
X57602476Y-90982000D01*
X57650095Y-91029619D01*
X57697714Y-91124857D01*
X57697714Y-91362952D01*
X57650095Y-91458190D01*
X57602476Y-91505809D01*
X57507238Y-91553428D01*
X57316761Y-91553428D01*
X57221523Y-91505809D01*
X57173904Y-91458190D01*
X57126285Y-91362952D01*
X78430285Y-95490380D02*
X78430285Y-94490380D01*
X78192190Y-94490380D01*
X78049333Y-94538000D01*
X77954095Y-94633238D01*
X77906476Y-94728476D01*
X77858857Y-94918952D01*
X77858857Y-95061809D01*
X77906476Y-95252285D01*
X77954095Y-95347523D01*
X78049333Y-95442761D01*
X78192190Y-95490380D01*
X78430285Y-95490380D01*
X76906476Y-95490380D02*
X77477904Y-95490380D01*
X77192190Y-95490380D02*
X77192190Y-94490380D01*
X77287428Y-94633238D01*
X77382666Y-94728476D01*
X77477904Y-94776095D01*
X76287428Y-94490380D02*
X76192190Y-94490380D01*
X76096952Y-94538000D01*
X76049333Y-94585619D01*
X76001714Y-94680857D01*
X75954095Y-94871333D01*
X75954095Y-95109428D01*
X76001714Y-95299904D01*
X76049333Y-95395142D01*
X76096952Y-95442761D01*
X76192190Y-95490380D01*
X76287428Y-95490380D01*
X76382666Y-95442761D01*
X76430285Y-95395142D01*
X76477904Y-95299904D01*
X76525523Y-95109428D01*
X76525523Y-94871333D01*
X76477904Y-94680857D01*
X76430285Y-94585619D01*
X76382666Y-94538000D01*
X76287428Y-94490380D01*
X97734285Y-99046380D02*
X97734285Y-98046380D01*
X97496190Y-98046380D01*
X97353333Y-98094000D01*
X97258095Y-98189238D01*
X97210476Y-98284476D01*
X97162857Y-98474952D01*
X97162857Y-98617809D01*
X97210476Y-98808285D01*
X97258095Y-98903523D01*
X97353333Y-98998761D01*
X97496190Y-99046380D01*
X97734285Y-99046380D01*
X96210476Y-99046380D02*
X96781904Y-99046380D01*
X96496190Y-99046380D02*
X96496190Y-98046380D01*
X96591428Y-98189238D01*
X96686666Y-98284476D01*
X96781904Y-98332095D01*
X95258095Y-99046380D02*
X95829523Y-99046380D01*
X95543809Y-99046380D02*
X95543809Y-98046380D01*
X95639047Y-98189238D01*
X95734285Y-98284476D01*
X95829523Y-98332095D01*
X117038285Y-102856380D02*
X117038285Y-101856380D01*
X116800190Y-101856380D01*
X116657333Y-101904000D01*
X116562095Y-101999238D01*
X116514476Y-102094476D01*
X116466857Y-102284952D01*
X116466857Y-102427809D01*
X116514476Y-102618285D01*
X116562095Y-102713523D01*
X116657333Y-102808761D01*
X116800190Y-102856380D01*
X117038285Y-102856380D01*
X115514476Y-102856380D02*
X116085904Y-102856380D01*
X115800190Y-102856380D02*
X115800190Y-101856380D01*
X115895428Y-101999238D01*
X115990666Y-102094476D01*
X116085904Y-102142095D01*
X115133523Y-101951619D02*
X115085904Y-101904000D01*
X114990666Y-101856380D01*
X114752571Y-101856380D01*
X114657333Y-101904000D01*
X114609714Y-101951619D01*
X114562095Y-102046857D01*
X114562095Y-102142095D01*
X114609714Y-102284952D01*
X115181142Y-102856380D01*
X114562095Y-102856380D01*
X136342285Y-107174380D02*
X136342285Y-106174380D01*
X136104190Y-106174380D01*
X135961333Y-106222000D01*
X135866095Y-106317238D01*
X135818476Y-106412476D01*
X135770857Y-106602952D01*
X135770857Y-106745809D01*
X135818476Y-106936285D01*
X135866095Y-107031523D01*
X135961333Y-107126761D01*
X136104190Y-107174380D01*
X136342285Y-107174380D01*
X134818476Y-107174380D02*
X135389904Y-107174380D01*
X135104190Y-107174380D02*
X135104190Y-106174380D01*
X135199428Y-106317238D01*
X135294666Y-106412476D01*
X135389904Y-106460095D01*
X134485142Y-106174380D02*
X133866095Y-106174380D01*
X134199428Y-106555333D01*
X134056571Y-106555333D01*
X133961333Y-106602952D01*
X133913714Y-106650571D01*
X133866095Y-106745809D01*
X133866095Y-106983904D01*
X133913714Y-107079142D01*
X133961333Y-107126761D01*
X134056571Y-107174380D01*
X134342285Y-107174380D01*
X134437523Y-107126761D01*
X134485142Y-107079142D01*
X155646285Y-109206380D02*
X155646285Y-108206380D01*
X155408190Y-108206380D01*
X155265333Y-108254000D01*
X155170095Y-108349238D01*
X155122476Y-108444476D01*
X155074857Y-108634952D01*
X155074857Y-108777809D01*
X155122476Y-108968285D01*
X155170095Y-109063523D01*
X155265333Y-109158761D01*
X155408190Y-109206380D01*
X155646285Y-109206380D01*
X154122476Y-109206380D02*
X154693904Y-109206380D01*
X154408190Y-109206380D02*
X154408190Y-108206380D01*
X154503428Y-108349238D01*
X154598666Y-108444476D01*
X154693904Y-108492095D01*
X153265333Y-108539714D02*
X153265333Y-109206380D01*
X153503428Y-108158761D02*
X153741523Y-108873047D01*
X153122476Y-108873047D01*
X20518285Y-89648380D02*
X20518285Y-88648380D01*
X20280190Y-88648380D01*
X20137333Y-88696000D01*
X20042095Y-88791238D01*
X19994476Y-88886476D01*
X19946857Y-89076952D01*
X19946857Y-89219809D01*
X19994476Y-89410285D01*
X20042095Y-89505523D01*
X20137333Y-89600761D01*
X20280190Y-89648380D01*
X20518285Y-89648380D01*
X18994476Y-89648380D02*
X19565904Y-89648380D01*
X19280190Y-89648380D02*
X19280190Y-88648380D01*
X19375428Y-88791238D01*
X19470666Y-88886476D01*
X19565904Y-88934095D01*
X18089714Y-88648380D02*
X18565904Y-88648380D01*
X18613523Y-89124571D01*
X18565904Y-89076952D01*
X18470666Y-89029333D01*
X18232571Y-89029333D01*
X18137333Y-89076952D01*
X18089714Y-89124571D01*
X18042095Y-89219809D01*
X18042095Y-89457904D01*
X18089714Y-89553142D01*
X18137333Y-89600761D01*
X18232571Y-89648380D01*
X18470666Y-89648380D01*
X18565904Y-89600761D01*
X18613523Y-89553142D01*
X59126285Y-111238380D02*
X59126285Y-110238380D01*
X58888190Y-110238380D01*
X58745333Y-110286000D01*
X58650095Y-110381238D01*
X58602476Y-110476476D01*
X58554857Y-110666952D01*
X58554857Y-110809809D01*
X58602476Y-111000285D01*
X58650095Y-111095523D01*
X58745333Y-111190761D01*
X58888190Y-111238380D01*
X59126285Y-111238380D01*
X57602476Y-111238380D02*
X58173904Y-111238380D01*
X57888190Y-111238380D02*
X57888190Y-110238380D01*
X57983428Y-110381238D01*
X58078666Y-110476476D01*
X58173904Y-110524095D01*
X56745333Y-110238380D02*
X56935809Y-110238380D01*
X57031047Y-110286000D01*
X57078666Y-110333619D01*
X57173904Y-110476476D01*
X57221523Y-110666952D01*
X57221523Y-111047904D01*
X57173904Y-111143142D01*
X57126285Y-111190761D01*
X57031047Y-111238380D01*
X56840571Y-111238380D01*
X56745333Y-111190761D01*
X56697714Y-111143142D01*
X56650095Y-111047904D01*
X56650095Y-110809809D01*
X56697714Y-110714571D01*
X56745333Y-110666952D01*
X56840571Y-110619333D01*
X57031047Y-110619333D01*
X57126285Y-110666952D01*
X57173904Y-110714571D01*
X57221523Y-110809809D01*
X78430285Y-114794380D02*
X78430285Y-113794380D01*
X78192190Y-113794380D01*
X78049333Y-113842000D01*
X77954095Y-113937238D01*
X77906476Y-114032476D01*
X77858857Y-114222952D01*
X77858857Y-114365809D01*
X77906476Y-114556285D01*
X77954095Y-114651523D01*
X78049333Y-114746761D01*
X78192190Y-114794380D01*
X78430285Y-114794380D01*
X76906476Y-114794380D02*
X77477904Y-114794380D01*
X77192190Y-114794380D02*
X77192190Y-113794380D01*
X77287428Y-113937238D01*
X77382666Y-114032476D01*
X77477904Y-114080095D01*
X76573142Y-113794380D02*
X75906476Y-113794380D01*
X76335047Y-114794380D01*
X97734285Y-118604380D02*
X97734285Y-117604380D01*
X97496190Y-117604380D01*
X97353333Y-117652000D01*
X97258095Y-117747238D01*
X97210476Y-117842476D01*
X97162857Y-118032952D01*
X97162857Y-118175809D01*
X97210476Y-118366285D01*
X97258095Y-118461523D01*
X97353333Y-118556761D01*
X97496190Y-118604380D01*
X97734285Y-118604380D01*
X96210476Y-118604380D02*
X96781904Y-118604380D01*
X96496190Y-118604380D02*
X96496190Y-117604380D01*
X96591428Y-117747238D01*
X96686666Y-117842476D01*
X96781904Y-117890095D01*
X95639047Y-118032952D02*
X95734285Y-117985333D01*
X95781904Y-117937714D01*
X95829523Y-117842476D01*
X95829523Y-117794857D01*
X95781904Y-117699619D01*
X95734285Y-117652000D01*
X95639047Y-117604380D01*
X95448571Y-117604380D01*
X95353333Y-117652000D01*
X95305714Y-117699619D01*
X95258095Y-117794857D01*
X95258095Y-117842476D01*
X95305714Y-117937714D01*
X95353333Y-117985333D01*
X95448571Y-118032952D01*
X95639047Y-118032952D01*
X95734285Y-118080571D01*
X95781904Y-118128190D01*
X95829523Y-118223428D01*
X95829523Y-118413904D01*
X95781904Y-118509142D01*
X95734285Y-118556761D01*
X95639047Y-118604380D01*
X95448571Y-118604380D01*
X95353333Y-118556761D01*
X95305714Y-118509142D01*
X95258095Y-118413904D01*
X95258095Y-118223428D01*
X95305714Y-118128190D01*
X95353333Y-118080571D01*
X95448571Y-118032952D01*
X117038285Y-121906380D02*
X117038285Y-120906380D01*
X116800190Y-120906380D01*
X116657333Y-120954000D01*
X116562095Y-121049238D01*
X116514476Y-121144476D01*
X116466857Y-121334952D01*
X116466857Y-121477809D01*
X116514476Y-121668285D01*
X116562095Y-121763523D01*
X116657333Y-121858761D01*
X116800190Y-121906380D01*
X117038285Y-121906380D01*
X115514476Y-121906380D02*
X116085904Y-121906380D01*
X115800190Y-121906380D02*
X115800190Y-120906380D01*
X115895428Y-121049238D01*
X115990666Y-121144476D01*
X116085904Y-121192095D01*
X115038285Y-121906380D02*
X114847809Y-121906380D01*
X114752571Y-121858761D01*
X114704952Y-121811142D01*
X114609714Y-121668285D01*
X114562095Y-121477809D01*
X114562095Y-121096857D01*
X114609714Y-121001619D01*
X114657333Y-120954000D01*
X114752571Y-120906380D01*
X114943047Y-120906380D01*
X115038285Y-120954000D01*
X115085904Y-121001619D01*
X115133523Y-121096857D01*
X115133523Y-121334952D01*
X115085904Y-121430190D01*
X115038285Y-121477809D01*
X114943047Y-121525428D01*
X114752571Y-121525428D01*
X114657333Y-121477809D01*
X114609714Y-121430190D01*
X114562095Y-121334952D01*
X136342285Y-126478380D02*
X136342285Y-125478380D01*
X136104190Y-125478380D01*
X135961333Y-125526000D01*
X135866095Y-125621238D01*
X135818476Y-125716476D01*
X135770857Y-125906952D01*
X135770857Y-126049809D01*
X135818476Y-126240285D01*
X135866095Y-126335523D01*
X135961333Y-126430761D01*
X136104190Y-126478380D01*
X136342285Y-126478380D01*
X135389904Y-125573619D02*
X135342285Y-125526000D01*
X135247047Y-125478380D01*
X135008952Y-125478380D01*
X134913714Y-125526000D01*
X134866095Y-125573619D01*
X134818476Y-125668857D01*
X134818476Y-125764095D01*
X134866095Y-125906952D01*
X135437523Y-126478380D01*
X134818476Y-126478380D01*
X134199428Y-125478380D02*
X134104190Y-125478380D01*
X134008952Y-125526000D01*
X133961333Y-125573619D01*
X133913714Y-125668857D01*
X133866095Y-125859333D01*
X133866095Y-126097428D01*
X133913714Y-126287904D01*
X133961333Y-126383142D01*
X134008952Y-126430761D01*
X134104190Y-126478380D01*
X134199428Y-126478380D01*
X134294666Y-126430761D01*
X134342285Y-126383142D01*
X134389904Y-126287904D01*
X134437523Y-126097428D01*
X134437523Y-125859333D01*
X134389904Y-125668857D01*
X134342285Y-125573619D01*
X134294666Y-125526000D01*
X134199428Y-125478380D01*
X155646285Y-128510380D02*
X155646285Y-127510380D01*
X155408190Y-127510380D01*
X155265333Y-127558000D01*
X155170095Y-127653238D01*
X155122476Y-127748476D01*
X155074857Y-127938952D01*
X155074857Y-128081809D01*
X155122476Y-128272285D01*
X155170095Y-128367523D01*
X155265333Y-128462761D01*
X155408190Y-128510380D01*
X155646285Y-128510380D01*
X154693904Y-127605619D02*
X154646285Y-127558000D01*
X154551047Y-127510380D01*
X154312952Y-127510380D01*
X154217714Y-127558000D01*
X154170095Y-127605619D01*
X154122476Y-127700857D01*
X154122476Y-127796095D01*
X154170095Y-127938952D01*
X154741523Y-128510380D01*
X154122476Y-128510380D01*
X153170095Y-128510380D02*
X153741523Y-128510380D01*
X153455809Y-128510380D02*
X153455809Y-127510380D01*
X153551047Y-127653238D01*
X153646285Y-127748476D01*
X153741523Y-127796095D01*
X39822285Y-107682380D02*
X39822285Y-106682380D01*
X39584190Y-106682380D01*
X39441333Y-106730000D01*
X39346095Y-106825238D01*
X39298476Y-106920476D01*
X39250857Y-107110952D01*
X39250857Y-107253809D01*
X39298476Y-107444285D01*
X39346095Y-107539523D01*
X39441333Y-107634761D01*
X39584190Y-107682380D01*
X39822285Y-107682380D01*
X38869904Y-106777619D02*
X38822285Y-106730000D01*
X38727047Y-106682380D01*
X38488952Y-106682380D01*
X38393714Y-106730000D01*
X38346095Y-106777619D01*
X38298476Y-106872857D01*
X38298476Y-106968095D01*
X38346095Y-107110952D01*
X38917523Y-107682380D01*
X38298476Y-107682380D01*
X37965142Y-106682380D02*
X37346095Y-106682380D01*
X37679428Y-107063333D01*
X37536571Y-107063333D01*
X37441333Y-107110952D01*
X37393714Y-107158571D01*
X37346095Y-107253809D01*
X37346095Y-107491904D01*
X37393714Y-107587142D01*
X37441333Y-107634761D01*
X37536571Y-107682380D01*
X37822285Y-107682380D01*
X37917523Y-107634761D01*
X37965142Y-107587142D01*
X59126285Y-130796380D02*
X59126285Y-129796380D01*
X58888190Y-129796380D01*
X58745333Y-129844000D01*
X58650095Y-129939238D01*
X58602476Y-130034476D01*
X58554857Y-130224952D01*
X58554857Y-130367809D01*
X58602476Y-130558285D01*
X58650095Y-130653523D01*
X58745333Y-130748761D01*
X58888190Y-130796380D01*
X59126285Y-130796380D01*
X58173904Y-129891619D02*
X58126285Y-129844000D01*
X58031047Y-129796380D01*
X57792952Y-129796380D01*
X57697714Y-129844000D01*
X57650095Y-129891619D01*
X57602476Y-129986857D01*
X57602476Y-130082095D01*
X57650095Y-130224952D01*
X58221523Y-130796380D01*
X57602476Y-130796380D01*
X56745333Y-130129714D02*
X56745333Y-130796380D01*
X56983428Y-129748761D02*
X57221523Y-130463047D01*
X56602476Y-130463047D01*
X78430285Y-134098380D02*
X78430285Y-133098380D01*
X78192190Y-133098380D01*
X78049333Y-133146000D01*
X77954095Y-133241238D01*
X77906476Y-133336476D01*
X77858857Y-133526952D01*
X77858857Y-133669809D01*
X77906476Y-133860285D01*
X77954095Y-133955523D01*
X78049333Y-134050761D01*
X78192190Y-134098380D01*
X78430285Y-134098380D01*
X77477904Y-133193619D02*
X77430285Y-133146000D01*
X77335047Y-133098380D01*
X77096952Y-133098380D01*
X77001714Y-133146000D01*
X76954095Y-133193619D01*
X76906476Y-133288857D01*
X76906476Y-133384095D01*
X76954095Y-133526952D01*
X77525523Y-134098380D01*
X76906476Y-134098380D01*
X76001714Y-133098380D02*
X76477904Y-133098380D01*
X76525523Y-133574571D01*
X76477904Y-133526952D01*
X76382666Y-133479333D01*
X76144571Y-133479333D01*
X76049333Y-133526952D01*
X76001714Y-133574571D01*
X75954095Y-133669809D01*
X75954095Y-133907904D01*
X76001714Y-134003142D01*
X76049333Y-134050761D01*
X76144571Y-134098380D01*
X76382666Y-134098380D01*
X76477904Y-134050761D01*
X76525523Y-134003142D01*
X97734285Y-137654380D02*
X97734285Y-136654380D01*
X97496190Y-136654380D01*
X97353333Y-136702000D01*
X97258095Y-136797238D01*
X97210476Y-136892476D01*
X97162857Y-137082952D01*
X97162857Y-137225809D01*
X97210476Y-137416285D01*
X97258095Y-137511523D01*
X97353333Y-137606761D01*
X97496190Y-137654380D01*
X97734285Y-137654380D01*
X96781904Y-136749619D02*
X96734285Y-136702000D01*
X96639047Y-136654380D01*
X96400952Y-136654380D01*
X96305714Y-136702000D01*
X96258095Y-136749619D01*
X96210476Y-136844857D01*
X96210476Y-136940095D01*
X96258095Y-137082952D01*
X96829523Y-137654380D01*
X96210476Y-137654380D01*
X95353333Y-136654380D02*
X95543809Y-136654380D01*
X95639047Y-136702000D01*
X95686666Y-136749619D01*
X95781904Y-136892476D01*
X95829523Y-137082952D01*
X95829523Y-137463904D01*
X95781904Y-137559142D01*
X95734285Y-137606761D01*
X95639047Y-137654380D01*
X95448571Y-137654380D01*
X95353333Y-137606761D01*
X95305714Y-137559142D01*
X95258095Y-137463904D01*
X95258095Y-137225809D01*
X95305714Y-137130571D01*
X95353333Y-137082952D01*
X95448571Y-137035333D01*
X95639047Y-137035333D01*
X95734285Y-137082952D01*
X95781904Y-137130571D01*
X95829523Y-137225809D01*
X117038285Y-141210380D02*
X117038285Y-140210380D01*
X116800190Y-140210380D01*
X116657333Y-140258000D01*
X116562095Y-140353238D01*
X116514476Y-140448476D01*
X116466857Y-140638952D01*
X116466857Y-140781809D01*
X116514476Y-140972285D01*
X116562095Y-141067523D01*
X116657333Y-141162761D01*
X116800190Y-141210380D01*
X117038285Y-141210380D01*
X116085904Y-140305619D02*
X116038285Y-140258000D01*
X115943047Y-140210380D01*
X115704952Y-140210380D01*
X115609714Y-140258000D01*
X115562095Y-140305619D01*
X115514476Y-140400857D01*
X115514476Y-140496095D01*
X115562095Y-140638952D01*
X116133523Y-141210380D01*
X115514476Y-141210380D01*
X115181142Y-140210380D02*
X114514476Y-140210380D01*
X114943047Y-141210380D01*
X136342285Y-145782380D02*
X136342285Y-144782380D01*
X136104190Y-144782380D01*
X135961333Y-144830000D01*
X135866095Y-144925238D01*
X135818476Y-145020476D01*
X135770857Y-145210952D01*
X135770857Y-145353809D01*
X135818476Y-145544285D01*
X135866095Y-145639523D01*
X135961333Y-145734761D01*
X136104190Y-145782380D01*
X136342285Y-145782380D01*
X135389904Y-144877619D02*
X135342285Y-144830000D01*
X135247047Y-144782380D01*
X135008952Y-144782380D01*
X134913714Y-144830000D01*
X134866095Y-144877619D01*
X134818476Y-144972857D01*
X134818476Y-145068095D01*
X134866095Y-145210952D01*
X135437523Y-145782380D01*
X134818476Y-145782380D01*
X134247047Y-145210952D02*
X134342285Y-145163333D01*
X134389904Y-145115714D01*
X134437523Y-145020476D01*
X134437523Y-144972857D01*
X134389904Y-144877619D01*
X134342285Y-144830000D01*
X134247047Y-144782380D01*
X134056571Y-144782380D01*
X133961333Y-144830000D01*
X133913714Y-144877619D01*
X133866095Y-144972857D01*
X133866095Y-145020476D01*
X133913714Y-145115714D01*
X133961333Y-145163333D01*
X134056571Y-145210952D01*
X134247047Y-145210952D01*
X134342285Y-145258571D01*
X134389904Y-145306190D01*
X134437523Y-145401428D01*
X134437523Y-145591904D01*
X134389904Y-145687142D01*
X134342285Y-145734761D01*
X134247047Y-145782380D01*
X134056571Y-145782380D01*
X133961333Y-145734761D01*
X133913714Y-145687142D01*
X133866095Y-145591904D01*
X133866095Y-145401428D01*
X133913714Y-145306190D01*
X133961333Y-145258571D01*
X134056571Y-145210952D01*
X155646285Y-147560380D02*
X155646285Y-146560380D01*
X155408190Y-146560380D01*
X155265333Y-146608000D01*
X155170095Y-146703238D01*
X155122476Y-146798476D01*
X155074857Y-146988952D01*
X155074857Y-147131809D01*
X155122476Y-147322285D01*
X155170095Y-147417523D01*
X155265333Y-147512761D01*
X155408190Y-147560380D01*
X155646285Y-147560380D01*
X154693904Y-146655619D02*
X154646285Y-146608000D01*
X154551047Y-146560380D01*
X154312952Y-146560380D01*
X154217714Y-146608000D01*
X154170095Y-146655619D01*
X154122476Y-146750857D01*
X154122476Y-146846095D01*
X154170095Y-146988952D01*
X154741523Y-147560380D01*
X154122476Y-147560380D01*
X153646285Y-147560380D02*
X153455809Y-147560380D01*
X153360571Y-147512761D01*
X153312952Y-147465142D01*
X153217714Y-147322285D01*
X153170095Y-147131809D01*
X153170095Y-146750857D01*
X153217714Y-146655619D01*
X153265333Y-146608000D01*
X153360571Y-146560380D01*
X153551047Y-146560380D01*
X153646285Y-146608000D01*
X153693904Y-146655619D01*
X153741523Y-146750857D01*
X153741523Y-146988952D01*
X153693904Y-147084190D01*
X153646285Y-147131809D01*
X153551047Y-147179428D01*
X153360571Y-147179428D01*
X153265333Y-147131809D01*
X153217714Y-147084190D01*
X153170095Y-146988952D01*
X20518285Y-111492380D02*
X20518285Y-110492380D01*
X20280190Y-110492380D01*
X20137333Y-110540000D01*
X20042095Y-110635238D01*
X19994476Y-110730476D01*
X19946857Y-110920952D01*
X19946857Y-111063809D01*
X19994476Y-111254285D01*
X20042095Y-111349523D01*
X20137333Y-111444761D01*
X20280190Y-111492380D01*
X20518285Y-111492380D01*
X19613523Y-110492380D02*
X18994476Y-110492380D01*
X19327809Y-110873333D01*
X19184952Y-110873333D01*
X19089714Y-110920952D01*
X19042095Y-110968571D01*
X18994476Y-111063809D01*
X18994476Y-111301904D01*
X19042095Y-111397142D01*
X19089714Y-111444761D01*
X19184952Y-111492380D01*
X19470666Y-111492380D01*
X19565904Y-111444761D01*
X19613523Y-111397142D01*
X18375428Y-110492380D02*
X18280190Y-110492380D01*
X18184952Y-110540000D01*
X18137333Y-110587619D01*
X18089714Y-110682857D01*
X18042095Y-110873333D01*
X18042095Y-111111428D01*
X18089714Y-111301904D01*
X18137333Y-111397142D01*
X18184952Y-111444761D01*
X18280190Y-111492380D01*
X18375428Y-111492380D01*
X18470666Y-111444761D01*
X18518285Y-111397142D01*
X18565904Y-111301904D01*
X18613523Y-111111428D01*
X18613523Y-110873333D01*
X18565904Y-110682857D01*
X18518285Y-110587619D01*
X18470666Y-110540000D01*
X18375428Y-110492380D01*
X59126285Y-149846380D02*
X59126285Y-148846380D01*
X58888190Y-148846380D01*
X58745333Y-148894000D01*
X58650095Y-148989238D01*
X58602476Y-149084476D01*
X58554857Y-149274952D01*
X58554857Y-149417809D01*
X58602476Y-149608285D01*
X58650095Y-149703523D01*
X58745333Y-149798761D01*
X58888190Y-149846380D01*
X59126285Y-149846380D01*
X58221523Y-148846380D02*
X57602476Y-148846380D01*
X57935809Y-149227333D01*
X57792952Y-149227333D01*
X57697714Y-149274952D01*
X57650095Y-149322571D01*
X57602476Y-149417809D01*
X57602476Y-149655904D01*
X57650095Y-149751142D01*
X57697714Y-149798761D01*
X57792952Y-149846380D01*
X58078666Y-149846380D01*
X58173904Y-149798761D01*
X58221523Y-149751142D01*
X56650095Y-149846380D02*
X57221523Y-149846380D01*
X56935809Y-149846380D02*
X56935809Y-148846380D01*
X57031047Y-148989238D01*
X57126285Y-149084476D01*
X57221523Y-149132095D01*
X78430285Y-153148380D02*
X78430285Y-152148380D01*
X78192190Y-152148380D01*
X78049333Y-152196000D01*
X77954095Y-152291238D01*
X77906476Y-152386476D01*
X77858857Y-152576952D01*
X77858857Y-152719809D01*
X77906476Y-152910285D01*
X77954095Y-153005523D01*
X78049333Y-153100761D01*
X78192190Y-153148380D01*
X78430285Y-153148380D01*
X77525523Y-152148380D02*
X76906476Y-152148380D01*
X77239809Y-152529333D01*
X77096952Y-152529333D01*
X77001714Y-152576952D01*
X76954095Y-152624571D01*
X76906476Y-152719809D01*
X76906476Y-152957904D01*
X76954095Y-153053142D01*
X77001714Y-153100761D01*
X77096952Y-153148380D01*
X77382666Y-153148380D01*
X77477904Y-153100761D01*
X77525523Y-153053142D01*
X76525523Y-152243619D02*
X76477904Y-152196000D01*
X76382666Y-152148380D01*
X76144571Y-152148380D01*
X76049333Y-152196000D01*
X76001714Y-152243619D01*
X75954095Y-152338857D01*
X75954095Y-152434095D01*
X76001714Y-152576952D01*
X76573142Y-153148380D01*
X75954095Y-153148380D01*
X97734285Y-157212380D02*
X97734285Y-156212380D01*
X97496190Y-156212380D01*
X97353333Y-156260000D01*
X97258095Y-156355238D01*
X97210476Y-156450476D01*
X97162857Y-156640952D01*
X97162857Y-156783809D01*
X97210476Y-156974285D01*
X97258095Y-157069523D01*
X97353333Y-157164761D01*
X97496190Y-157212380D01*
X97734285Y-157212380D01*
X96829523Y-156212380D02*
X96210476Y-156212380D01*
X96543809Y-156593333D01*
X96400952Y-156593333D01*
X96305714Y-156640952D01*
X96258095Y-156688571D01*
X96210476Y-156783809D01*
X96210476Y-157021904D01*
X96258095Y-157117142D01*
X96305714Y-157164761D01*
X96400952Y-157212380D01*
X96686666Y-157212380D01*
X96781904Y-157164761D01*
X96829523Y-157117142D01*
X95877142Y-156212380D02*
X95258095Y-156212380D01*
X95591428Y-156593333D01*
X95448571Y-156593333D01*
X95353333Y-156640952D01*
X95305714Y-156688571D01*
X95258095Y-156783809D01*
X95258095Y-157021904D01*
X95305714Y-157117142D01*
X95353333Y-157164761D01*
X95448571Y-157212380D01*
X95734285Y-157212380D01*
X95829523Y-157164761D01*
X95877142Y-157117142D01*
X117038285Y-160514380D02*
X117038285Y-159514380D01*
X116800190Y-159514380D01*
X116657333Y-159562000D01*
X116562095Y-159657238D01*
X116514476Y-159752476D01*
X116466857Y-159942952D01*
X116466857Y-160085809D01*
X116514476Y-160276285D01*
X116562095Y-160371523D01*
X116657333Y-160466761D01*
X116800190Y-160514380D01*
X117038285Y-160514380D01*
X116133523Y-159514380D02*
X115514476Y-159514380D01*
X115847809Y-159895333D01*
X115704952Y-159895333D01*
X115609714Y-159942952D01*
X115562095Y-159990571D01*
X115514476Y-160085809D01*
X115514476Y-160323904D01*
X115562095Y-160419142D01*
X115609714Y-160466761D01*
X115704952Y-160514380D01*
X115990666Y-160514380D01*
X116085904Y-160466761D01*
X116133523Y-160419142D01*
X114657333Y-159847714D02*
X114657333Y-160514380D01*
X114895428Y-159466761D02*
X115133523Y-160181047D01*
X114514476Y-160181047D01*
X136342285Y-165086380D02*
X136342285Y-164086380D01*
X136104190Y-164086380D01*
X135961333Y-164134000D01*
X135866095Y-164229238D01*
X135818476Y-164324476D01*
X135770857Y-164514952D01*
X135770857Y-164657809D01*
X135818476Y-164848285D01*
X135866095Y-164943523D01*
X135961333Y-165038761D01*
X136104190Y-165086380D01*
X136342285Y-165086380D01*
X135437523Y-164086380D02*
X134818476Y-164086380D01*
X135151809Y-164467333D01*
X135008952Y-164467333D01*
X134913714Y-164514952D01*
X134866095Y-164562571D01*
X134818476Y-164657809D01*
X134818476Y-164895904D01*
X134866095Y-164991142D01*
X134913714Y-165038761D01*
X135008952Y-165086380D01*
X135294666Y-165086380D01*
X135389904Y-165038761D01*
X135437523Y-164991142D01*
X133913714Y-164086380D02*
X134389904Y-164086380D01*
X134437523Y-164562571D01*
X134389904Y-164514952D01*
X134294666Y-164467333D01*
X134056571Y-164467333D01*
X133961333Y-164514952D01*
X133913714Y-164562571D01*
X133866095Y-164657809D01*
X133866095Y-164895904D01*
X133913714Y-164991142D01*
X133961333Y-165038761D01*
X134056571Y-165086380D01*
X134294666Y-165086380D01*
X134389904Y-165038761D01*
X134437523Y-164991142D01*
X155646285Y-166864380D02*
X155646285Y-165864380D01*
X155408190Y-165864380D01*
X155265333Y-165912000D01*
X155170095Y-166007238D01*
X155122476Y-166102476D01*
X155074857Y-166292952D01*
X155074857Y-166435809D01*
X155122476Y-166626285D01*
X155170095Y-166721523D01*
X155265333Y-166816761D01*
X155408190Y-166864380D01*
X155646285Y-166864380D01*
X154741523Y-165864380D02*
X154122476Y-165864380D01*
X154455809Y-166245333D01*
X154312952Y-166245333D01*
X154217714Y-166292952D01*
X154170095Y-166340571D01*
X154122476Y-166435809D01*
X154122476Y-166673904D01*
X154170095Y-166769142D01*
X154217714Y-166816761D01*
X154312952Y-166864380D01*
X154598666Y-166864380D01*
X154693904Y-166816761D01*
X154741523Y-166769142D01*
X153265333Y-165864380D02*
X153455809Y-165864380D01*
X153551047Y-165912000D01*
X153598666Y-165959619D01*
X153693904Y-166102476D01*
X153741523Y-166292952D01*
X153741523Y-166673904D01*
X153693904Y-166769142D01*
X153646285Y-166816761D01*
X153551047Y-166864380D01*
X153360571Y-166864380D01*
X153265333Y-166816761D01*
X153217714Y-166769142D01*
X153170095Y-166673904D01*
X153170095Y-166435809D01*
X153217714Y-166340571D01*
X153265333Y-166292952D01*
X153360571Y-166245333D01*
X153551047Y-166245333D01*
X153646285Y-166292952D01*
X153693904Y-166340571D01*
X153741523Y-166435809D01*
X20518285Y-132828380D02*
X20518285Y-131828380D01*
X20280190Y-131828380D01*
X20137333Y-131876000D01*
X20042095Y-131971238D01*
X19994476Y-132066476D01*
X19946857Y-132256952D01*
X19946857Y-132399809D01*
X19994476Y-132590285D01*
X20042095Y-132685523D01*
X20137333Y-132780761D01*
X20280190Y-132828380D01*
X20518285Y-132828380D01*
X19613523Y-131828380D02*
X18994476Y-131828380D01*
X19327809Y-132209333D01*
X19184952Y-132209333D01*
X19089714Y-132256952D01*
X19042095Y-132304571D01*
X18994476Y-132399809D01*
X18994476Y-132637904D01*
X19042095Y-132733142D01*
X19089714Y-132780761D01*
X19184952Y-132828380D01*
X19470666Y-132828380D01*
X19565904Y-132780761D01*
X19613523Y-132733142D01*
X18423047Y-132256952D02*
X18518285Y-132209333D01*
X18565904Y-132161714D01*
X18613523Y-132066476D01*
X18613523Y-132018857D01*
X18565904Y-131923619D01*
X18518285Y-131876000D01*
X18423047Y-131828380D01*
X18232571Y-131828380D01*
X18137333Y-131876000D01*
X18089714Y-131923619D01*
X18042095Y-132018857D01*
X18042095Y-132066476D01*
X18089714Y-132161714D01*
X18137333Y-132209333D01*
X18232571Y-132256952D01*
X18423047Y-132256952D01*
X18518285Y-132304571D01*
X18565904Y-132352190D01*
X18613523Y-132447428D01*
X18613523Y-132637904D01*
X18565904Y-132733142D01*
X18518285Y-132780761D01*
X18423047Y-132828380D01*
X18232571Y-132828380D01*
X18137333Y-132780761D01*
X18089714Y-132733142D01*
X18042095Y-132637904D01*
X18042095Y-132447428D01*
X18089714Y-132352190D01*
X18137333Y-132304571D01*
X18232571Y-132256952D01*
X39822285Y-127240380D02*
X39822285Y-126240380D01*
X39584190Y-126240380D01*
X39441333Y-126288000D01*
X39346095Y-126383238D01*
X39298476Y-126478476D01*
X39250857Y-126668952D01*
X39250857Y-126811809D01*
X39298476Y-127002285D01*
X39346095Y-127097523D01*
X39441333Y-127192761D01*
X39584190Y-127240380D01*
X39822285Y-127240380D01*
X38917523Y-126240380D02*
X38298476Y-126240380D01*
X38631809Y-126621333D01*
X38488952Y-126621333D01*
X38393714Y-126668952D01*
X38346095Y-126716571D01*
X38298476Y-126811809D01*
X38298476Y-127049904D01*
X38346095Y-127145142D01*
X38393714Y-127192761D01*
X38488952Y-127240380D01*
X38774666Y-127240380D01*
X38869904Y-127192761D01*
X38917523Y-127145142D01*
X37822285Y-127240380D02*
X37631809Y-127240380D01*
X37536571Y-127192761D01*
X37488952Y-127145142D01*
X37393714Y-127002285D01*
X37346095Y-126811809D01*
X37346095Y-126430857D01*
X37393714Y-126335619D01*
X37441333Y-126288000D01*
X37536571Y-126240380D01*
X37727047Y-126240380D01*
X37822285Y-126288000D01*
X37869904Y-126335619D01*
X37917523Y-126430857D01*
X37917523Y-126668952D01*
X37869904Y-126764190D01*
X37822285Y-126811809D01*
X37727047Y-126859428D01*
X37536571Y-126859428D01*
X37441333Y-126811809D01*
X37393714Y-126764190D01*
X37346095Y-126668952D01*
X39822285Y-149846380D02*
X39822285Y-148846380D01*
X39584190Y-148846380D01*
X39441333Y-148894000D01*
X39346095Y-148989238D01*
X39298476Y-149084476D01*
X39250857Y-149274952D01*
X39250857Y-149417809D01*
X39298476Y-149608285D01*
X39346095Y-149703523D01*
X39441333Y-149798761D01*
X39584190Y-149846380D01*
X39822285Y-149846380D01*
X38393714Y-149179714D02*
X38393714Y-149846380D01*
X38631809Y-148798761D02*
X38869904Y-149513047D01*
X38250857Y-149513047D01*
X37679428Y-148846380D02*
X37584190Y-148846380D01*
X37488952Y-148894000D01*
X37441333Y-148941619D01*
X37393714Y-149036857D01*
X37346095Y-149227333D01*
X37346095Y-149465428D01*
X37393714Y-149655904D01*
X37441333Y-149751142D01*
X37488952Y-149798761D01*
X37584190Y-149846380D01*
X37679428Y-149846380D01*
X37774666Y-149798761D01*
X37822285Y-149751142D01*
X37869904Y-149655904D01*
X37917523Y-149465428D01*
X37917523Y-149227333D01*
X37869904Y-149036857D01*
X37822285Y-148941619D01*
X37774666Y-148894000D01*
X37679428Y-148846380D01*
X86688285Y-161022380D02*
X86688285Y-160022380D01*
X86450190Y-160022380D01*
X86307333Y-160070000D01*
X86212095Y-160165238D01*
X86164476Y-160260476D01*
X86116857Y-160450952D01*
X86116857Y-160593809D01*
X86164476Y-160784285D01*
X86212095Y-160879523D01*
X86307333Y-160974761D01*
X86450190Y-161022380D01*
X86688285Y-161022380D01*
X85259714Y-160355714D02*
X85259714Y-161022380D01*
X85497809Y-159974761D02*
X85735904Y-160689047D01*
X85116857Y-160689047D01*
X84212095Y-161022380D02*
X84783523Y-161022380D01*
X84497809Y-161022380D02*
X84497809Y-160022380D01*
X84593047Y-160165238D01*
X84688285Y-160260476D01*
X84783523Y-160308095D01*
X252166285Y-168982380D02*
X252166285Y-167982380D01*
X251928190Y-167982380D01*
X251785333Y-168030000D01*
X251690095Y-168125238D01*
X251642476Y-168220476D01*
X251594857Y-168410952D01*
X251594857Y-168553809D01*
X251642476Y-168744285D01*
X251690095Y-168839523D01*
X251785333Y-168934761D01*
X251928190Y-168982380D01*
X252166285Y-168982380D01*
X250737714Y-168315714D02*
X250737714Y-168982380D01*
X250975809Y-167934761D02*
X251213904Y-168649047D01*
X250594857Y-168649047D01*
X250261523Y-168077619D02*
X250213904Y-168030000D01*
X250118666Y-167982380D01*
X249880571Y-167982380D01*
X249785333Y-168030000D01*
X249737714Y-168077619D01*
X249690095Y-168172857D01*
X249690095Y-168268095D01*
X249737714Y-168410952D01*
X250309142Y-168982380D01*
X249690095Y-168982380D01*
X290804285Y-168852380D02*
X290804285Y-167852380D01*
X290566190Y-167852380D01*
X290423333Y-167900000D01*
X290328095Y-167995238D01*
X290280476Y-168090476D01*
X290232857Y-168280952D01*
X290232857Y-168423809D01*
X290280476Y-168614285D01*
X290328095Y-168709523D01*
X290423333Y-168804761D01*
X290566190Y-168852380D01*
X290804285Y-168852380D01*
X289375714Y-168185714D02*
X289375714Y-168852380D01*
X289613809Y-167804761D02*
X289851904Y-168519047D01*
X289232857Y-168519047D01*
X288423333Y-168185714D02*
X288423333Y-168852380D01*
X288661428Y-167804761D02*
X288899523Y-168519047D01*
X288280476Y-168519047D01*
X170124285Y-88124380D02*
X170124285Y-87124380D01*
X169886190Y-87124380D01*
X169743333Y-87172000D01*
X169648095Y-87267238D01*
X169600476Y-87362476D01*
X169552857Y-87552952D01*
X169552857Y-87695809D01*
X169600476Y-87886285D01*
X169648095Y-87981523D01*
X169743333Y-88076761D01*
X169886190Y-88124380D01*
X170124285Y-88124380D01*
X168695714Y-87457714D02*
X168695714Y-88124380D01*
X168933809Y-87076761D02*
X169171904Y-87791047D01*
X168552857Y-87791047D01*
X167695714Y-87124380D02*
X168171904Y-87124380D01*
X168219523Y-87600571D01*
X168171904Y-87552952D01*
X168076666Y-87505333D01*
X167838571Y-87505333D01*
X167743333Y-87552952D01*
X167695714Y-87600571D01*
X167648095Y-87695809D01*
X167648095Y-87933904D01*
X167695714Y-88029142D01*
X167743333Y-88076761D01*
X167838571Y-88124380D01*
X168076666Y-88124380D01*
X168171904Y-88076761D01*
X168219523Y-88029142D01*
X189428285Y-83552380D02*
X189428285Y-82552380D01*
X189190190Y-82552380D01*
X189047333Y-82600000D01*
X188952095Y-82695238D01*
X188904476Y-82790476D01*
X188856857Y-82980952D01*
X188856857Y-83123809D01*
X188904476Y-83314285D01*
X188952095Y-83409523D01*
X189047333Y-83504761D01*
X189190190Y-83552380D01*
X189428285Y-83552380D01*
X187999714Y-82885714D02*
X187999714Y-83552380D01*
X188237809Y-82504761D02*
X188475904Y-83219047D01*
X187856857Y-83219047D01*
X187047333Y-82552380D02*
X187237809Y-82552380D01*
X187333047Y-82600000D01*
X187380666Y-82647619D01*
X187475904Y-82790476D01*
X187523523Y-82980952D01*
X187523523Y-83361904D01*
X187475904Y-83457142D01*
X187428285Y-83504761D01*
X187333047Y-83552380D01*
X187142571Y-83552380D01*
X187047333Y-83504761D01*
X186999714Y-83457142D01*
X186952095Y-83361904D01*
X186952095Y-83123809D01*
X186999714Y-83028571D01*
X187047333Y-82980952D01*
X187142571Y-82933333D01*
X187333047Y-82933333D01*
X187428285Y-82980952D01*
X187475904Y-83028571D01*
X187523523Y-83123809D01*
X208732285Y-79742380D02*
X208732285Y-78742380D01*
X208494190Y-78742380D01*
X208351333Y-78790000D01*
X208256095Y-78885238D01*
X208208476Y-78980476D01*
X208160857Y-79170952D01*
X208160857Y-79313809D01*
X208208476Y-79504285D01*
X208256095Y-79599523D01*
X208351333Y-79694761D01*
X208494190Y-79742380D01*
X208732285Y-79742380D01*
X207303714Y-79075714D02*
X207303714Y-79742380D01*
X207541809Y-78694761D02*
X207779904Y-79409047D01*
X207160857Y-79409047D01*
X206875142Y-78742380D02*
X206208476Y-78742380D01*
X206637047Y-79742380D01*
X228036285Y-76440380D02*
X228036285Y-75440380D01*
X227798190Y-75440380D01*
X227655333Y-75488000D01*
X227560095Y-75583238D01*
X227512476Y-75678476D01*
X227464857Y-75868952D01*
X227464857Y-76011809D01*
X227512476Y-76202285D01*
X227560095Y-76297523D01*
X227655333Y-76392761D01*
X227798190Y-76440380D01*
X228036285Y-76440380D01*
X226607714Y-75773714D02*
X226607714Y-76440380D01*
X226845809Y-75392761D02*
X227083904Y-76107047D01*
X226464857Y-76107047D01*
X225941047Y-75868952D02*
X226036285Y-75821333D01*
X226083904Y-75773714D01*
X226131523Y-75678476D01*
X226131523Y-75630857D01*
X226083904Y-75535619D01*
X226036285Y-75488000D01*
X225941047Y-75440380D01*
X225750571Y-75440380D01*
X225655333Y-75488000D01*
X225607714Y-75535619D01*
X225560095Y-75630857D01*
X225560095Y-75678476D01*
X225607714Y-75773714D01*
X225655333Y-75821333D01*
X225750571Y-75868952D01*
X225941047Y-75868952D01*
X226036285Y-75916571D01*
X226083904Y-75964190D01*
X226131523Y-76059428D01*
X226131523Y-76249904D01*
X226083904Y-76345142D01*
X226036285Y-76392761D01*
X225941047Y-76440380D01*
X225750571Y-76440380D01*
X225655333Y-76392761D01*
X225607714Y-76345142D01*
X225560095Y-76249904D01*
X225560095Y-76059428D01*
X225607714Y-75964190D01*
X225655333Y-75916571D01*
X225750571Y-75868952D01*
X247340285Y-72630380D02*
X247340285Y-71630380D01*
X247102190Y-71630380D01*
X246959333Y-71678000D01*
X246864095Y-71773238D01*
X246816476Y-71868476D01*
X246768857Y-72058952D01*
X246768857Y-72201809D01*
X246816476Y-72392285D01*
X246864095Y-72487523D01*
X246959333Y-72582761D01*
X247102190Y-72630380D01*
X247340285Y-72630380D01*
X245911714Y-71963714D02*
X245911714Y-72630380D01*
X246149809Y-71582761D02*
X246387904Y-72297047D01*
X245768857Y-72297047D01*
X245340285Y-72630380D02*
X245149809Y-72630380D01*
X245054571Y-72582761D01*
X245006952Y-72535142D01*
X244911714Y-72392285D01*
X244864095Y-72201809D01*
X244864095Y-71820857D01*
X244911714Y-71725619D01*
X244959333Y-71678000D01*
X245054571Y-71630380D01*
X245245047Y-71630380D01*
X245340285Y-71678000D01*
X245387904Y-71725619D01*
X245435523Y-71820857D01*
X245435523Y-72058952D01*
X245387904Y-72154190D01*
X245340285Y-72201809D01*
X245245047Y-72249428D01*
X245054571Y-72249428D01*
X244959333Y-72201809D01*
X244911714Y-72154190D01*
X244864095Y-72058952D01*
X266644285Y-69074380D02*
X266644285Y-68074380D01*
X266406190Y-68074380D01*
X266263333Y-68122000D01*
X266168095Y-68217238D01*
X266120476Y-68312476D01*
X266072857Y-68502952D01*
X266072857Y-68645809D01*
X266120476Y-68836285D01*
X266168095Y-68931523D01*
X266263333Y-69026761D01*
X266406190Y-69074380D01*
X266644285Y-69074380D01*
X265168095Y-68074380D02*
X265644285Y-68074380D01*
X265691904Y-68550571D01*
X265644285Y-68502952D01*
X265549047Y-68455333D01*
X265310952Y-68455333D01*
X265215714Y-68502952D01*
X265168095Y-68550571D01*
X265120476Y-68645809D01*
X265120476Y-68883904D01*
X265168095Y-68979142D01*
X265215714Y-69026761D01*
X265310952Y-69074380D01*
X265549047Y-69074380D01*
X265644285Y-69026761D01*
X265691904Y-68979142D01*
X264501428Y-68074380D02*
X264406190Y-68074380D01*
X264310952Y-68122000D01*
X264263333Y-68169619D01*
X264215714Y-68264857D01*
X264168095Y-68455333D01*
X264168095Y-68693428D01*
X264215714Y-68883904D01*
X264263333Y-68979142D01*
X264310952Y-69026761D01*
X264406190Y-69074380D01*
X264501428Y-69074380D01*
X264596666Y-69026761D01*
X264644285Y-68979142D01*
X264691904Y-68883904D01*
X264739523Y-68693428D01*
X264739523Y-68455333D01*
X264691904Y-68264857D01*
X264644285Y-68169619D01*
X264596666Y-68122000D01*
X264501428Y-68074380D01*
X285948285Y-68058380D02*
X285948285Y-67058380D01*
X285710190Y-67058380D01*
X285567333Y-67106000D01*
X285472095Y-67201238D01*
X285424476Y-67296476D01*
X285376857Y-67486952D01*
X285376857Y-67629809D01*
X285424476Y-67820285D01*
X285472095Y-67915523D01*
X285567333Y-68010761D01*
X285710190Y-68058380D01*
X285948285Y-68058380D01*
X284472095Y-67058380D02*
X284948285Y-67058380D01*
X284995904Y-67534571D01*
X284948285Y-67486952D01*
X284853047Y-67439333D01*
X284614952Y-67439333D01*
X284519714Y-67486952D01*
X284472095Y-67534571D01*
X284424476Y-67629809D01*
X284424476Y-67867904D01*
X284472095Y-67963142D01*
X284519714Y-68010761D01*
X284614952Y-68058380D01*
X284853047Y-68058380D01*
X284948285Y-68010761D01*
X284995904Y-67963142D01*
X283472095Y-68058380D02*
X284043523Y-68058380D01*
X283757809Y-68058380D02*
X283757809Y-67058380D01*
X283853047Y-67201238D01*
X283948285Y-67296476D01*
X284043523Y-67344095D01*
X174950285Y-107174380D02*
X174950285Y-106174380D01*
X174712190Y-106174380D01*
X174569333Y-106222000D01*
X174474095Y-106317238D01*
X174426476Y-106412476D01*
X174378857Y-106602952D01*
X174378857Y-106745809D01*
X174426476Y-106936285D01*
X174474095Y-107031523D01*
X174569333Y-107126761D01*
X174712190Y-107174380D01*
X174950285Y-107174380D01*
X173474095Y-106174380D02*
X173950285Y-106174380D01*
X173997904Y-106650571D01*
X173950285Y-106602952D01*
X173855047Y-106555333D01*
X173616952Y-106555333D01*
X173521714Y-106602952D01*
X173474095Y-106650571D01*
X173426476Y-106745809D01*
X173426476Y-106983904D01*
X173474095Y-107079142D01*
X173521714Y-107126761D01*
X173616952Y-107174380D01*
X173855047Y-107174380D01*
X173950285Y-107126761D01*
X173997904Y-107079142D01*
X173045523Y-106269619D02*
X172997904Y-106222000D01*
X172902666Y-106174380D01*
X172664571Y-106174380D01*
X172569333Y-106222000D01*
X172521714Y-106269619D01*
X172474095Y-106364857D01*
X172474095Y-106460095D01*
X172521714Y-106602952D01*
X173093142Y-107174380D01*
X172474095Y-107174380D01*
X194254285Y-102856380D02*
X194254285Y-101856380D01*
X194016190Y-101856380D01*
X193873333Y-101904000D01*
X193778095Y-101999238D01*
X193730476Y-102094476D01*
X193682857Y-102284952D01*
X193682857Y-102427809D01*
X193730476Y-102618285D01*
X193778095Y-102713523D01*
X193873333Y-102808761D01*
X194016190Y-102856380D01*
X194254285Y-102856380D01*
X192778095Y-101856380D02*
X193254285Y-101856380D01*
X193301904Y-102332571D01*
X193254285Y-102284952D01*
X193159047Y-102237333D01*
X192920952Y-102237333D01*
X192825714Y-102284952D01*
X192778095Y-102332571D01*
X192730476Y-102427809D01*
X192730476Y-102665904D01*
X192778095Y-102761142D01*
X192825714Y-102808761D01*
X192920952Y-102856380D01*
X193159047Y-102856380D01*
X193254285Y-102808761D01*
X193301904Y-102761142D01*
X192397142Y-101856380D02*
X191778095Y-101856380D01*
X192111428Y-102237333D01*
X191968571Y-102237333D01*
X191873333Y-102284952D01*
X191825714Y-102332571D01*
X191778095Y-102427809D01*
X191778095Y-102665904D01*
X191825714Y-102761142D01*
X191873333Y-102808761D01*
X191968571Y-102856380D01*
X192254285Y-102856380D01*
X192349523Y-102808761D01*
X192397142Y-102761142D01*
X213558285Y-99046380D02*
X213558285Y-98046380D01*
X213320190Y-98046380D01*
X213177333Y-98094000D01*
X213082095Y-98189238D01*
X213034476Y-98284476D01*
X212986857Y-98474952D01*
X212986857Y-98617809D01*
X213034476Y-98808285D01*
X213082095Y-98903523D01*
X213177333Y-98998761D01*
X213320190Y-99046380D01*
X213558285Y-99046380D01*
X212082095Y-98046380D02*
X212558285Y-98046380D01*
X212605904Y-98522571D01*
X212558285Y-98474952D01*
X212463047Y-98427333D01*
X212224952Y-98427333D01*
X212129714Y-98474952D01*
X212082095Y-98522571D01*
X212034476Y-98617809D01*
X212034476Y-98855904D01*
X212082095Y-98951142D01*
X212129714Y-98998761D01*
X212224952Y-99046380D01*
X212463047Y-99046380D01*
X212558285Y-98998761D01*
X212605904Y-98951142D01*
X211177333Y-98379714D02*
X211177333Y-99046380D01*
X211415428Y-97998761D02*
X211653523Y-98713047D01*
X211034476Y-98713047D01*
X232862285Y-95490380D02*
X232862285Y-94490380D01*
X232624190Y-94490380D01*
X232481333Y-94538000D01*
X232386095Y-94633238D01*
X232338476Y-94728476D01*
X232290857Y-94918952D01*
X232290857Y-95061809D01*
X232338476Y-95252285D01*
X232386095Y-95347523D01*
X232481333Y-95442761D01*
X232624190Y-95490380D01*
X232862285Y-95490380D01*
X231386095Y-94490380D02*
X231862285Y-94490380D01*
X231909904Y-94966571D01*
X231862285Y-94918952D01*
X231767047Y-94871333D01*
X231528952Y-94871333D01*
X231433714Y-94918952D01*
X231386095Y-94966571D01*
X231338476Y-95061809D01*
X231338476Y-95299904D01*
X231386095Y-95395142D01*
X231433714Y-95442761D01*
X231528952Y-95490380D01*
X231767047Y-95490380D01*
X231862285Y-95442761D01*
X231909904Y-95395142D01*
X230433714Y-94490380D02*
X230909904Y-94490380D01*
X230957523Y-94966571D01*
X230909904Y-94918952D01*
X230814666Y-94871333D01*
X230576571Y-94871333D01*
X230481333Y-94918952D01*
X230433714Y-94966571D01*
X230386095Y-95061809D01*
X230386095Y-95299904D01*
X230433714Y-95395142D01*
X230481333Y-95442761D01*
X230576571Y-95490380D01*
X230814666Y-95490380D01*
X230909904Y-95442761D01*
X230957523Y-95395142D01*
X252166285Y-92188380D02*
X252166285Y-91188380D01*
X251928190Y-91188380D01*
X251785333Y-91236000D01*
X251690095Y-91331238D01*
X251642476Y-91426476D01*
X251594857Y-91616952D01*
X251594857Y-91759809D01*
X251642476Y-91950285D01*
X251690095Y-92045523D01*
X251785333Y-92140761D01*
X251928190Y-92188380D01*
X252166285Y-92188380D01*
X250690095Y-91188380D02*
X251166285Y-91188380D01*
X251213904Y-91664571D01*
X251166285Y-91616952D01*
X251071047Y-91569333D01*
X250832952Y-91569333D01*
X250737714Y-91616952D01*
X250690095Y-91664571D01*
X250642476Y-91759809D01*
X250642476Y-91997904D01*
X250690095Y-92093142D01*
X250737714Y-92140761D01*
X250832952Y-92188380D01*
X251071047Y-92188380D01*
X251166285Y-92140761D01*
X251213904Y-92093142D01*
X249785333Y-91188380D02*
X249975809Y-91188380D01*
X250071047Y-91236000D01*
X250118666Y-91283619D01*
X250213904Y-91426476D01*
X250261523Y-91616952D01*
X250261523Y-91997904D01*
X250213904Y-92093142D01*
X250166285Y-92140761D01*
X250071047Y-92188380D01*
X249880571Y-92188380D01*
X249785333Y-92140761D01*
X249737714Y-92093142D01*
X249690095Y-91997904D01*
X249690095Y-91759809D01*
X249737714Y-91664571D01*
X249785333Y-91616952D01*
X249880571Y-91569333D01*
X250071047Y-91569333D01*
X250166285Y-91616952D01*
X250213904Y-91664571D01*
X250261523Y-91759809D01*
X271470285Y-88378380D02*
X271470285Y-87378380D01*
X271232190Y-87378380D01*
X271089333Y-87426000D01*
X270994095Y-87521238D01*
X270946476Y-87616476D01*
X270898857Y-87806952D01*
X270898857Y-87949809D01*
X270946476Y-88140285D01*
X270994095Y-88235523D01*
X271089333Y-88330761D01*
X271232190Y-88378380D01*
X271470285Y-88378380D01*
X269994095Y-87378380D02*
X270470285Y-87378380D01*
X270517904Y-87854571D01*
X270470285Y-87806952D01*
X270375047Y-87759333D01*
X270136952Y-87759333D01*
X270041714Y-87806952D01*
X269994095Y-87854571D01*
X269946476Y-87949809D01*
X269946476Y-88187904D01*
X269994095Y-88283142D01*
X270041714Y-88330761D01*
X270136952Y-88378380D01*
X270375047Y-88378380D01*
X270470285Y-88330761D01*
X270517904Y-88283142D01*
X269613142Y-87378380D02*
X268946476Y-87378380D01*
X269375047Y-88378380D01*
X290774285Y-87362380D02*
X290774285Y-86362380D01*
X290536190Y-86362380D01*
X290393333Y-86410000D01*
X290298095Y-86505238D01*
X290250476Y-86600476D01*
X290202857Y-86790952D01*
X290202857Y-86933809D01*
X290250476Y-87124285D01*
X290298095Y-87219523D01*
X290393333Y-87314761D01*
X290536190Y-87362380D01*
X290774285Y-87362380D01*
X289298095Y-86362380D02*
X289774285Y-86362380D01*
X289821904Y-86838571D01*
X289774285Y-86790952D01*
X289679047Y-86743333D01*
X289440952Y-86743333D01*
X289345714Y-86790952D01*
X289298095Y-86838571D01*
X289250476Y-86933809D01*
X289250476Y-87171904D01*
X289298095Y-87267142D01*
X289345714Y-87314761D01*
X289440952Y-87362380D01*
X289679047Y-87362380D01*
X289774285Y-87314761D01*
X289821904Y-87267142D01*
X288679047Y-86790952D02*
X288774285Y-86743333D01*
X288821904Y-86695714D01*
X288869523Y-86600476D01*
X288869523Y-86552857D01*
X288821904Y-86457619D01*
X288774285Y-86410000D01*
X288679047Y-86362380D01*
X288488571Y-86362380D01*
X288393333Y-86410000D01*
X288345714Y-86457619D01*
X288298095Y-86552857D01*
X288298095Y-86600476D01*
X288345714Y-86695714D01*
X288393333Y-86743333D01*
X288488571Y-86790952D01*
X288679047Y-86790952D01*
X288774285Y-86838571D01*
X288821904Y-86886190D01*
X288869523Y-86981428D01*
X288869523Y-87171904D01*
X288821904Y-87267142D01*
X288774285Y-87314761D01*
X288679047Y-87362380D01*
X288488571Y-87362380D01*
X288393333Y-87314761D01*
X288345714Y-87267142D01*
X288298095Y-87171904D01*
X288298095Y-86981428D01*
X288345714Y-86886190D01*
X288393333Y-86838571D01*
X288488571Y-86790952D01*
X174950285Y-126224380D02*
X174950285Y-125224380D01*
X174712190Y-125224380D01*
X174569333Y-125272000D01*
X174474095Y-125367238D01*
X174426476Y-125462476D01*
X174378857Y-125652952D01*
X174378857Y-125795809D01*
X174426476Y-125986285D01*
X174474095Y-126081523D01*
X174569333Y-126176761D01*
X174712190Y-126224380D01*
X174950285Y-126224380D01*
X173474095Y-125224380D02*
X173950285Y-125224380D01*
X173997904Y-125700571D01*
X173950285Y-125652952D01*
X173855047Y-125605333D01*
X173616952Y-125605333D01*
X173521714Y-125652952D01*
X173474095Y-125700571D01*
X173426476Y-125795809D01*
X173426476Y-126033904D01*
X173474095Y-126129142D01*
X173521714Y-126176761D01*
X173616952Y-126224380D01*
X173855047Y-126224380D01*
X173950285Y-126176761D01*
X173997904Y-126129142D01*
X172950285Y-126224380D02*
X172759809Y-126224380D01*
X172664571Y-126176761D01*
X172616952Y-126129142D01*
X172521714Y-125986285D01*
X172474095Y-125795809D01*
X172474095Y-125414857D01*
X172521714Y-125319619D01*
X172569333Y-125272000D01*
X172664571Y-125224380D01*
X172855047Y-125224380D01*
X172950285Y-125272000D01*
X172997904Y-125319619D01*
X173045523Y-125414857D01*
X173045523Y-125652952D01*
X172997904Y-125748190D01*
X172950285Y-125795809D01*
X172855047Y-125843428D01*
X172664571Y-125843428D01*
X172569333Y-125795809D01*
X172521714Y-125748190D01*
X172474095Y-125652952D01*
X194254285Y-121906380D02*
X194254285Y-120906380D01*
X194016190Y-120906380D01*
X193873333Y-120954000D01*
X193778095Y-121049238D01*
X193730476Y-121144476D01*
X193682857Y-121334952D01*
X193682857Y-121477809D01*
X193730476Y-121668285D01*
X193778095Y-121763523D01*
X193873333Y-121858761D01*
X194016190Y-121906380D01*
X194254285Y-121906380D01*
X192825714Y-120906380D02*
X193016190Y-120906380D01*
X193111428Y-120954000D01*
X193159047Y-121001619D01*
X193254285Y-121144476D01*
X193301904Y-121334952D01*
X193301904Y-121715904D01*
X193254285Y-121811142D01*
X193206666Y-121858761D01*
X193111428Y-121906380D01*
X192920952Y-121906380D01*
X192825714Y-121858761D01*
X192778095Y-121811142D01*
X192730476Y-121715904D01*
X192730476Y-121477809D01*
X192778095Y-121382571D01*
X192825714Y-121334952D01*
X192920952Y-121287333D01*
X193111428Y-121287333D01*
X193206666Y-121334952D01*
X193254285Y-121382571D01*
X193301904Y-121477809D01*
X192111428Y-120906380D02*
X192016190Y-120906380D01*
X191920952Y-120954000D01*
X191873333Y-121001619D01*
X191825714Y-121096857D01*
X191778095Y-121287333D01*
X191778095Y-121525428D01*
X191825714Y-121715904D01*
X191873333Y-121811142D01*
X191920952Y-121858761D01*
X192016190Y-121906380D01*
X192111428Y-121906380D01*
X192206666Y-121858761D01*
X192254285Y-121811142D01*
X192301904Y-121715904D01*
X192349523Y-121525428D01*
X192349523Y-121287333D01*
X192301904Y-121096857D01*
X192254285Y-121001619D01*
X192206666Y-120954000D01*
X192111428Y-120906380D01*
X213558285Y-118350380D02*
X213558285Y-117350380D01*
X213320190Y-117350380D01*
X213177333Y-117398000D01*
X213082095Y-117493238D01*
X213034476Y-117588476D01*
X212986857Y-117778952D01*
X212986857Y-117921809D01*
X213034476Y-118112285D01*
X213082095Y-118207523D01*
X213177333Y-118302761D01*
X213320190Y-118350380D01*
X213558285Y-118350380D01*
X212129714Y-117350380D02*
X212320190Y-117350380D01*
X212415428Y-117398000D01*
X212463047Y-117445619D01*
X212558285Y-117588476D01*
X212605904Y-117778952D01*
X212605904Y-118159904D01*
X212558285Y-118255142D01*
X212510666Y-118302761D01*
X212415428Y-118350380D01*
X212224952Y-118350380D01*
X212129714Y-118302761D01*
X212082095Y-118255142D01*
X212034476Y-118159904D01*
X212034476Y-117921809D01*
X212082095Y-117826571D01*
X212129714Y-117778952D01*
X212224952Y-117731333D01*
X212415428Y-117731333D01*
X212510666Y-117778952D01*
X212558285Y-117826571D01*
X212605904Y-117921809D01*
X211082095Y-118350380D02*
X211653523Y-118350380D01*
X211367809Y-118350380D02*
X211367809Y-117350380D01*
X211463047Y-117493238D01*
X211558285Y-117588476D01*
X211653523Y-117636095D01*
X232862285Y-114794380D02*
X232862285Y-113794380D01*
X232624190Y-113794380D01*
X232481333Y-113842000D01*
X232386095Y-113937238D01*
X232338476Y-114032476D01*
X232290857Y-114222952D01*
X232290857Y-114365809D01*
X232338476Y-114556285D01*
X232386095Y-114651523D01*
X232481333Y-114746761D01*
X232624190Y-114794380D01*
X232862285Y-114794380D01*
X231433714Y-113794380D02*
X231624190Y-113794380D01*
X231719428Y-113842000D01*
X231767047Y-113889619D01*
X231862285Y-114032476D01*
X231909904Y-114222952D01*
X231909904Y-114603904D01*
X231862285Y-114699142D01*
X231814666Y-114746761D01*
X231719428Y-114794380D01*
X231528952Y-114794380D01*
X231433714Y-114746761D01*
X231386095Y-114699142D01*
X231338476Y-114603904D01*
X231338476Y-114365809D01*
X231386095Y-114270571D01*
X231433714Y-114222952D01*
X231528952Y-114175333D01*
X231719428Y-114175333D01*
X231814666Y-114222952D01*
X231862285Y-114270571D01*
X231909904Y-114365809D01*
X230957523Y-113889619D02*
X230909904Y-113842000D01*
X230814666Y-113794380D01*
X230576571Y-113794380D01*
X230481333Y-113842000D01*
X230433714Y-113889619D01*
X230386095Y-113984857D01*
X230386095Y-114080095D01*
X230433714Y-114222952D01*
X231005142Y-114794380D01*
X230386095Y-114794380D01*
X252166285Y-111238380D02*
X252166285Y-110238380D01*
X251928190Y-110238380D01*
X251785333Y-110286000D01*
X251690095Y-110381238D01*
X251642476Y-110476476D01*
X251594857Y-110666952D01*
X251594857Y-110809809D01*
X251642476Y-111000285D01*
X251690095Y-111095523D01*
X251785333Y-111190761D01*
X251928190Y-111238380D01*
X252166285Y-111238380D01*
X250737714Y-110238380D02*
X250928190Y-110238380D01*
X251023428Y-110286000D01*
X251071047Y-110333619D01*
X251166285Y-110476476D01*
X251213904Y-110666952D01*
X251213904Y-111047904D01*
X251166285Y-111143142D01*
X251118666Y-111190761D01*
X251023428Y-111238380D01*
X250832952Y-111238380D01*
X250737714Y-111190761D01*
X250690095Y-111143142D01*
X250642476Y-111047904D01*
X250642476Y-110809809D01*
X250690095Y-110714571D01*
X250737714Y-110666952D01*
X250832952Y-110619333D01*
X251023428Y-110619333D01*
X251118666Y-110666952D01*
X251166285Y-110714571D01*
X251213904Y-110809809D01*
X250309142Y-110238380D02*
X249690095Y-110238380D01*
X250023428Y-110619333D01*
X249880571Y-110619333D01*
X249785333Y-110666952D01*
X249737714Y-110714571D01*
X249690095Y-110809809D01*
X249690095Y-111047904D01*
X249737714Y-111143142D01*
X249785333Y-111190761D01*
X249880571Y-111238380D01*
X250166285Y-111238380D01*
X250261523Y-111190761D01*
X250309142Y-111143142D01*
X271470285Y-107682380D02*
X271470285Y-106682380D01*
X271232190Y-106682380D01*
X271089333Y-106730000D01*
X270994095Y-106825238D01*
X270946476Y-106920476D01*
X270898857Y-107110952D01*
X270898857Y-107253809D01*
X270946476Y-107444285D01*
X270994095Y-107539523D01*
X271089333Y-107634761D01*
X271232190Y-107682380D01*
X271470285Y-107682380D01*
X270041714Y-106682380D02*
X270232190Y-106682380D01*
X270327428Y-106730000D01*
X270375047Y-106777619D01*
X270470285Y-106920476D01*
X270517904Y-107110952D01*
X270517904Y-107491904D01*
X270470285Y-107587142D01*
X270422666Y-107634761D01*
X270327428Y-107682380D01*
X270136952Y-107682380D01*
X270041714Y-107634761D01*
X269994095Y-107587142D01*
X269946476Y-107491904D01*
X269946476Y-107253809D01*
X269994095Y-107158571D01*
X270041714Y-107110952D01*
X270136952Y-107063333D01*
X270327428Y-107063333D01*
X270422666Y-107110952D01*
X270470285Y-107158571D01*
X270517904Y-107253809D01*
X269089333Y-107015714D02*
X269089333Y-107682380D01*
X269327428Y-106634761D02*
X269565523Y-107349047D01*
X268946476Y-107349047D01*
X290774285Y-106412380D02*
X290774285Y-105412380D01*
X290536190Y-105412380D01*
X290393333Y-105460000D01*
X290298095Y-105555238D01*
X290250476Y-105650476D01*
X290202857Y-105840952D01*
X290202857Y-105983809D01*
X290250476Y-106174285D01*
X290298095Y-106269523D01*
X290393333Y-106364761D01*
X290536190Y-106412380D01*
X290774285Y-106412380D01*
X289345714Y-105412380D02*
X289536190Y-105412380D01*
X289631428Y-105460000D01*
X289679047Y-105507619D01*
X289774285Y-105650476D01*
X289821904Y-105840952D01*
X289821904Y-106221904D01*
X289774285Y-106317142D01*
X289726666Y-106364761D01*
X289631428Y-106412380D01*
X289440952Y-106412380D01*
X289345714Y-106364761D01*
X289298095Y-106317142D01*
X289250476Y-106221904D01*
X289250476Y-105983809D01*
X289298095Y-105888571D01*
X289345714Y-105840952D01*
X289440952Y-105793333D01*
X289631428Y-105793333D01*
X289726666Y-105840952D01*
X289774285Y-105888571D01*
X289821904Y-105983809D01*
X288345714Y-105412380D02*
X288821904Y-105412380D01*
X288869523Y-105888571D01*
X288821904Y-105840952D01*
X288726666Y-105793333D01*
X288488571Y-105793333D01*
X288393333Y-105840952D01*
X288345714Y-105888571D01*
X288298095Y-105983809D01*
X288298095Y-106221904D01*
X288345714Y-106317142D01*
X288393333Y-106364761D01*
X288488571Y-106412380D01*
X288726666Y-106412380D01*
X288821904Y-106364761D01*
X288869523Y-106317142D01*
X174950285Y-146036380D02*
X174950285Y-145036380D01*
X174712190Y-145036380D01*
X174569333Y-145084000D01*
X174474095Y-145179238D01*
X174426476Y-145274476D01*
X174378857Y-145464952D01*
X174378857Y-145607809D01*
X174426476Y-145798285D01*
X174474095Y-145893523D01*
X174569333Y-145988761D01*
X174712190Y-146036380D01*
X174950285Y-146036380D01*
X173521714Y-145036380D02*
X173712190Y-145036380D01*
X173807428Y-145084000D01*
X173855047Y-145131619D01*
X173950285Y-145274476D01*
X173997904Y-145464952D01*
X173997904Y-145845904D01*
X173950285Y-145941142D01*
X173902666Y-145988761D01*
X173807428Y-146036380D01*
X173616952Y-146036380D01*
X173521714Y-145988761D01*
X173474095Y-145941142D01*
X173426476Y-145845904D01*
X173426476Y-145607809D01*
X173474095Y-145512571D01*
X173521714Y-145464952D01*
X173616952Y-145417333D01*
X173807428Y-145417333D01*
X173902666Y-145464952D01*
X173950285Y-145512571D01*
X173997904Y-145607809D01*
X172569333Y-145036380D02*
X172759809Y-145036380D01*
X172855047Y-145084000D01*
X172902666Y-145131619D01*
X172997904Y-145274476D01*
X173045523Y-145464952D01*
X173045523Y-145845904D01*
X172997904Y-145941142D01*
X172950285Y-145988761D01*
X172855047Y-146036380D01*
X172664571Y-146036380D01*
X172569333Y-145988761D01*
X172521714Y-145941142D01*
X172474095Y-145845904D01*
X172474095Y-145607809D01*
X172521714Y-145512571D01*
X172569333Y-145464952D01*
X172664571Y-145417333D01*
X172855047Y-145417333D01*
X172950285Y-145464952D01*
X172997904Y-145512571D01*
X173045523Y-145607809D01*
X194254285Y-141210380D02*
X194254285Y-140210380D01*
X194016190Y-140210380D01*
X193873333Y-140258000D01*
X193778095Y-140353238D01*
X193730476Y-140448476D01*
X193682857Y-140638952D01*
X193682857Y-140781809D01*
X193730476Y-140972285D01*
X193778095Y-141067523D01*
X193873333Y-141162761D01*
X194016190Y-141210380D01*
X194254285Y-141210380D01*
X192825714Y-140210380D02*
X193016190Y-140210380D01*
X193111428Y-140258000D01*
X193159047Y-140305619D01*
X193254285Y-140448476D01*
X193301904Y-140638952D01*
X193301904Y-141019904D01*
X193254285Y-141115142D01*
X193206666Y-141162761D01*
X193111428Y-141210380D01*
X192920952Y-141210380D01*
X192825714Y-141162761D01*
X192778095Y-141115142D01*
X192730476Y-141019904D01*
X192730476Y-140781809D01*
X192778095Y-140686571D01*
X192825714Y-140638952D01*
X192920952Y-140591333D01*
X193111428Y-140591333D01*
X193206666Y-140638952D01*
X193254285Y-140686571D01*
X193301904Y-140781809D01*
X192397142Y-140210380D02*
X191730476Y-140210380D01*
X192159047Y-141210380D01*
X213558285Y-137654380D02*
X213558285Y-136654380D01*
X213320190Y-136654380D01*
X213177333Y-136702000D01*
X213082095Y-136797238D01*
X213034476Y-136892476D01*
X212986857Y-137082952D01*
X212986857Y-137225809D01*
X213034476Y-137416285D01*
X213082095Y-137511523D01*
X213177333Y-137606761D01*
X213320190Y-137654380D01*
X213558285Y-137654380D01*
X212129714Y-136654380D02*
X212320190Y-136654380D01*
X212415428Y-136702000D01*
X212463047Y-136749619D01*
X212558285Y-136892476D01*
X212605904Y-137082952D01*
X212605904Y-137463904D01*
X212558285Y-137559142D01*
X212510666Y-137606761D01*
X212415428Y-137654380D01*
X212224952Y-137654380D01*
X212129714Y-137606761D01*
X212082095Y-137559142D01*
X212034476Y-137463904D01*
X212034476Y-137225809D01*
X212082095Y-137130571D01*
X212129714Y-137082952D01*
X212224952Y-137035333D01*
X212415428Y-137035333D01*
X212510666Y-137082952D01*
X212558285Y-137130571D01*
X212605904Y-137225809D01*
X211463047Y-137082952D02*
X211558285Y-137035333D01*
X211605904Y-136987714D01*
X211653523Y-136892476D01*
X211653523Y-136844857D01*
X211605904Y-136749619D01*
X211558285Y-136702000D01*
X211463047Y-136654380D01*
X211272571Y-136654380D01*
X211177333Y-136702000D01*
X211129714Y-136749619D01*
X211082095Y-136844857D01*
X211082095Y-136892476D01*
X211129714Y-136987714D01*
X211177333Y-137035333D01*
X211272571Y-137082952D01*
X211463047Y-137082952D01*
X211558285Y-137130571D01*
X211605904Y-137178190D01*
X211653523Y-137273428D01*
X211653523Y-137463904D01*
X211605904Y-137559142D01*
X211558285Y-137606761D01*
X211463047Y-137654380D01*
X211272571Y-137654380D01*
X211177333Y-137606761D01*
X211129714Y-137559142D01*
X211082095Y-137463904D01*
X211082095Y-137273428D01*
X211129714Y-137178190D01*
X211177333Y-137130571D01*
X211272571Y-137082952D01*
X232862285Y-134098380D02*
X232862285Y-133098380D01*
X232624190Y-133098380D01*
X232481333Y-133146000D01*
X232386095Y-133241238D01*
X232338476Y-133336476D01*
X232290857Y-133526952D01*
X232290857Y-133669809D01*
X232338476Y-133860285D01*
X232386095Y-133955523D01*
X232481333Y-134050761D01*
X232624190Y-134098380D01*
X232862285Y-134098380D01*
X231433714Y-133098380D02*
X231624190Y-133098380D01*
X231719428Y-133146000D01*
X231767047Y-133193619D01*
X231862285Y-133336476D01*
X231909904Y-133526952D01*
X231909904Y-133907904D01*
X231862285Y-134003142D01*
X231814666Y-134050761D01*
X231719428Y-134098380D01*
X231528952Y-134098380D01*
X231433714Y-134050761D01*
X231386095Y-134003142D01*
X231338476Y-133907904D01*
X231338476Y-133669809D01*
X231386095Y-133574571D01*
X231433714Y-133526952D01*
X231528952Y-133479333D01*
X231719428Y-133479333D01*
X231814666Y-133526952D01*
X231862285Y-133574571D01*
X231909904Y-133669809D01*
X230862285Y-134098380D02*
X230671809Y-134098380D01*
X230576571Y-134050761D01*
X230528952Y-134003142D01*
X230433714Y-133860285D01*
X230386095Y-133669809D01*
X230386095Y-133288857D01*
X230433714Y-133193619D01*
X230481333Y-133146000D01*
X230576571Y-133098380D01*
X230767047Y-133098380D01*
X230862285Y-133146000D01*
X230909904Y-133193619D01*
X230957523Y-133288857D01*
X230957523Y-133526952D01*
X230909904Y-133622190D01*
X230862285Y-133669809D01*
X230767047Y-133717428D01*
X230576571Y-133717428D01*
X230481333Y-133669809D01*
X230433714Y-133622190D01*
X230386095Y-133526952D01*
X252166285Y-130542380D02*
X252166285Y-129542380D01*
X251928190Y-129542380D01*
X251785333Y-129590000D01*
X251690095Y-129685238D01*
X251642476Y-129780476D01*
X251594857Y-129970952D01*
X251594857Y-130113809D01*
X251642476Y-130304285D01*
X251690095Y-130399523D01*
X251785333Y-130494761D01*
X251928190Y-130542380D01*
X252166285Y-130542380D01*
X251261523Y-129542380D02*
X250594857Y-129542380D01*
X251023428Y-130542380D01*
X250023428Y-129542380D02*
X249928190Y-129542380D01*
X249832952Y-129590000D01*
X249785333Y-129637619D01*
X249737714Y-129732857D01*
X249690095Y-129923333D01*
X249690095Y-130161428D01*
X249737714Y-130351904D01*
X249785333Y-130447142D01*
X249832952Y-130494761D01*
X249928190Y-130542380D01*
X250023428Y-130542380D01*
X250118666Y-130494761D01*
X250166285Y-130447142D01*
X250213904Y-130351904D01*
X250261523Y-130161428D01*
X250261523Y-129923333D01*
X250213904Y-129732857D01*
X250166285Y-129637619D01*
X250118666Y-129590000D01*
X250023428Y-129542380D01*
X271470285Y-126986380D02*
X271470285Y-125986380D01*
X271232190Y-125986380D01*
X271089333Y-126034000D01*
X270994095Y-126129238D01*
X270946476Y-126224476D01*
X270898857Y-126414952D01*
X270898857Y-126557809D01*
X270946476Y-126748285D01*
X270994095Y-126843523D01*
X271089333Y-126938761D01*
X271232190Y-126986380D01*
X271470285Y-126986380D01*
X270565523Y-125986380D02*
X269898857Y-125986380D01*
X270327428Y-126986380D01*
X268994095Y-126986380D02*
X269565523Y-126986380D01*
X269279809Y-126986380D02*
X269279809Y-125986380D01*
X269375047Y-126129238D01*
X269470285Y-126224476D01*
X269565523Y-126272095D01*
X290774285Y-128256380D02*
X290774285Y-127256380D01*
X290536190Y-127256380D01*
X290393333Y-127304000D01*
X290298095Y-127399238D01*
X290250476Y-127494476D01*
X290202857Y-127684952D01*
X290202857Y-127827809D01*
X290250476Y-128018285D01*
X290298095Y-128113523D01*
X290393333Y-128208761D01*
X290536190Y-128256380D01*
X290774285Y-128256380D01*
X289869523Y-127256380D02*
X289202857Y-127256380D01*
X289631428Y-128256380D01*
X288869523Y-127351619D02*
X288821904Y-127304000D01*
X288726666Y-127256380D01*
X288488571Y-127256380D01*
X288393333Y-127304000D01*
X288345714Y-127351619D01*
X288298095Y-127446857D01*
X288298095Y-127542095D01*
X288345714Y-127684952D01*
X288917142Y-128256380D01*
X288298095Y-128256380D01*
X174950285Y-165086380D02*
X174950285Y-164086380D01*
X174712190Y-164086380D01*
X174569333Y-164134000D01*
X174474095Y-164229238D01*
X174426476Y-164324476D01*
X174378857Y-164514952D01*
X174378857Y-164657809D01*
X174426476Y-164848285D01*
X174474095Y-164943523D01*
X174569333Y-165038761D01*
X174712190Y-165086380D01*
X174950285Y-165086380D01*
X174045523Y-164086380D02*
X173378857Y-164086380D01*
X173807428Y-165086380D01*
X173093142Y-164086380D02*
X172474095Y-164086380D01*
X172807428Y-164467333D01*
X172664571Y-164467333D01*
X172569333Y-164514952D01*
X172521714Y-164562571D01*
X172474095Y-164657809D01*
X172474095Y-164895904D01*
X172521714Y-164991142D01*
X172569333Y-165038761D01*
X172664571Y-165086380D01*
X172950285Y-165086380D01*
X173045523Y-165038761D01*
X173093142Y-164991142D01*
X194254285Y-160514380D02*
X194254285Y-159514380D01*
X194016190Y-159514380D01*
X193873333Y-159562000D01*
X193778095Y-159657238D01*
X193730476Y-159752476D01*
X193682857Y-159942952D01*
X193682857Y-160085809D01*
X193730476Y-160276285D01*
X193778095Y-160371523D01*
X193873333Y-160466761D01*
X194016190Y-160514380D01*
X194254285Y-160514380D01*
X193349523Y-159514380D02*
X192682857Y-159514380D01*
X193111428Y-160514380D01*
X191873333Y-159847714D02*
X191873333Y-160514380D01*
X192111428Y-159466761D02*
X192349523Y-160181047D01*
X191730476Y-160181047D01*
X213812285Y-156958380D02*
X213812285Y-155958380D01*
X213574190Y-155958380D01*
X213431333Y-156006000D01*
X213336095Y-156101238D01*
X213288476Y-156196476D01*
X213240857Y-156386952D01*
X213240857Y-156529809D01*
X213288476Y-156720285D01*
X213336095Y-156815523D01*
X213431333Y-156910761D01*
X213574190Y-156958380D01*
X213812285Y-156958380D01*
X212907523Y-155958380D02*
X212240857Y-155958380D01*
X212669428Y-156958380D01*
X211383714Y-155958380D02*
X211859904Y-155958380D01*
X211907523Y-156434571D01*
X211859904Y-156386952D01*
X211764666Y-156339333D01*
X211526571Y-156339333D01*
X211431333Y-156386952D01*
X211383714Y-156434571D01*
X211336095Y-156529809D01*
X211336095Y-156767904D01*
X211383714Y-156863142D01*
X211431333Y-156910761D01*
X211526571Y-156958380D01*
X211764666Y-156958380D01*
X211859904Y-156910761D01*
X211907523Y-156863142D01*
X232862285Y-153402380D02*
X232862285Y-152402380D01*
X232624190Y-152402380D01*
X232481333Y-152450000D01*
X232386095Y-152545238D01*
X232338476Y-152640476D01*
X232290857Y-152830952D01*
X232290857Y-152973809D01*
X232338476Y-153164285D01*
X232386095Y-153259523D01*
X232481333Y-153354761D01*
X232624190Y-153402380D01*
X232862285Y-153402380D01*
X231957523Y-152402380D02*
X231290857Y-152402380D01*
X231719428Y-153402380D01*
X230481333Y-152402380D02*
X230671809Y-152402380D01*
X230767047Y-152450000D01*
X230814666Y-152497619D01*
X230909904Y-152640476D01*
X230957523Y-152830952D01*
X230957523Y-153211904D01*
X230909904Y-153307142D01*
X230862285Y-153354761D01*
X230767047Y-153402380D01*
X230576571Y-153402380D01*
X230481333Y-153354761D01*
X230433714Y-153307142D01*
X230386095Y-153211904D01*
X230386095Y-152973809D01*
X230433714Y-152878571D01*
X230481333Y-152830952D01*
X230576571Y-152783333D01*
X230767047Y-152783333D01*
X230862285Y-152830952D01*
X230909904Y-152878571D01*
X230957523Y-152973809D01*
X252166285Y-149592380D02*
X252166285Y-148592380D01*
X251928190Y-148592380D01*
X251785333Y-148640000D01*
X251690095Y-148735238D01*
X251642476Y-148830476D01*
X251594857Y-149020952D01*
X251594857Y-149163809D01*
X251642476Y-149354285D01*
X251690095Y-149449523D01*
X251785333Y-149544761D01*
X251928190Y-149592380D01*
X252166285Y-149592380D01*
X251261523Y-148592380D02*
X250594857Y-148592380D01*
X251023428Y-149592380D01*
X250309142Y-148592380D02*
X249642476Y-148592380D01*
X250071047Y-149592380D01*
X271470285Y-149338380D02*
X271470285Y-148338380D01*
X271232190Y-148338380D01*
X271089333Y-148386000D01*
X270994095Y-148481238D01*
X270946476Y-148576476D01*
X270898857Y-148766952D01*
X270898857Y-148909809D01*
X270946476Y-149100285D01*
X270994095Y-149195523D01*
X271089333Y-149290761D01*
X271232190Y-149338380D01*
X271470285Y-149338380D01*
X270565523Y-148338380D02*
X269898857Y-148338380D01*
X270327428Y-149338380D01*
X269375047Y-148766952D02*
X269470285Y-148719333D01*
X269517904Y-148671714D01*
X269565523Y-148576476D01*
X269565523Y-148528857D01*
X269517904Y-148433619D01*
X269470285Y-148386000D01*
X269375047Y-148338380D01*
X269184571Y-148338380D01*
X269089333Y-148386000D01*
X269041714Y-148433619D01*
X268994095Y-148528857D01*
X268994095Y-148576476D01*
X269041714Y-148671714D01*
X269089333Y-148719333D01*
X269184571Y-148766952D01*
X269375047Y-148766952D01*
X269470285Y-148814571D01*
X269517904Y-148862190D01*
X269565523Y-148957428D01*
X269565523Y-149147904D01*
X269517904Y-149243142D01*
X269470285Y-149290761D01*
X269375047Y-149338380D01*
X269184571Y-149338380D01*
X269089333Y-149290761D01*
X269041714Y-149243142D01*
X268994095Y-149147904D01*
X268994095Y-148957428D01*
X269041714Y-148862190D01*
X269089333Y-148814571D01*
X269184571Y-148766952D01*
X290774285Y-149592380D02*
X290774285Y-148592380D01*
X290536190Y-148592380D01*
X290393333Y-148640000D01*
X290298095Y-148735238D01*
X290250476Y-148830476D01*
X290202857Y-149020952D01*
X290202857Y-149163809D01*
X290250476Y-149354285D01*
X290298095Y-149449523D01*
X290393333Y-149544761D01*
X290536190Y-149592380D01*
X290774285Y-149592380D01*
X289869523Y-148592380D02*
X289202857Y-148592380D01*
X289631428Y-149592380D01*
X288774285Y-149592380D02*
X288583809Y-149592380D01*
X288488571Y-149544761D01*
X288440952Y-149497142D01*
X288345714Y-149354285D01*
X288298095Y-149163809D01*
X288298095Y-148782857D01*
X288345714Y-148687619D01*
X288393333Y-148640000D01*
X288488571Y-148592380D01*
X288679047Y-148592380D01*
X288774285Y-148640000D01*
X288821904Y-148687619D01*
X288869523Y-148782857D01*
X288869523Y-149020952D01*
X288821904Y-149116190D01*
X288774285Y-149163809D01*
X288679047Y-149211428D01*
X288488571Y-149211428D01*
X288393333Y-149163809D01*
X288345714Y-149116190D01*
X288298095Y-149020952D01*
X149418380Y-59473333D02*
X148942190Y-59140000D01*
X149418380Y-58901904D02*
X148418380Y-58901904D01*
X148418380Y-59282857D01*
X148466000Y-59378095D01*
X148513619Y-59425714D01*
X148608857Y-59473333D01*
X148751714Y-59473333D01*
X148846952Y-59425714D01*
X148894571Y-59378095D01*
X148942190Y-59282857D01*
X148942190Y-58901904D01*
X148418380Y-59806666D02*
X148418380Y-60425714D01*
X148799333Y-60092380D01*
X148799333Y-60235238D01*
X148846952Y-60330476D01*
X148894571Y-60378095D01*
X148989809Y-60425714D01*
X149227904Y-60425714D01*
X149323142Y-60378095D01*
X149370761Y-60330476D01*
X149418380Y-60235238D01*
X149418380Y-59949523D01*
X149370761Y-59854285D01*
X149323142Y-59806666D01*
X151758380Y-59483333D02*
X151282190Y-59150000D01*
X151758380Y-58911904D02*
X150758380Y-58911904D01*
X150758380Y-59292857D01*
X150806000Y-59388095D01*
X150853619Y-59435714D01*
X150948857Y-59483333D01*
X151091714Y-59483333D01*
X151186952Y-59435714D01*
X151234571Y-59388095D01*
X151282190Y-59292857D01*
X151282190Y-58911904D01*
X151091714Y-60340476D02*
X151758380Y-60340476D01*
X150710761Y-60102380D02*
X151425047Y-59864285D01*
X151425047Y-60483333D01*
X139162666Y-54682380D02*
X139496000Y-54206190D01*
X139734095Y-54682380D02*
X139734095Y-53682380D01*
X139353142Y-53682380D01*
X139257904Y-53730000D01*
X139210285Y-53777619D01*
X139162666Y-53872857D01*
X139162666Y-54015714D01*
X139210285Y-54110952D01*
X139257904Y-54158571D01*
X139353142Y-54206190D01*
X139734095Y-54206190D01*
X138829333Y-53682380D02*
X138162666Y-53682380D01*
X138591238Y-54682380D01*
X161636572Y-71827862D02*
X161299854Y-72164580D01*
X162242663Y-71693175D02*
X161636572Y-71827862D01*
X161771259Y-71221771D01*
X160458061Y-71322786D02*
X160862122Y-71726847D01*
X160660091Y-71524816D02*
X161367198Y-70817710D01*
X161333526Y-70986068D01*
X161333526Y-71120755D01*
X161367198Y-71221771D01*
X194003285Y-47654380D02*
X194003285Y-46654380D01*
X193765190Y-46654380D01*
X193622333Y-46702000D01*
X193527095Y-46797238D01*
X193479476Y-46892476D01*
X193431857Y-47082952D01*
X193431857Y-47225809D01*
X193479476Y-47416285D01*
X193527095Y-47511523D01*
X193622333Y-47606761D01*
X193765190Y-47654380D01*
X194003285Y-47654380D01*
X193098523Y-46654380D02*
X192479476Y-46654380D01*
X192812809Y-47035333D01*
X192669952Y-47035333D01*
X192574714Y-47082952D01*
X192527095Y-47130571D01*
X192479476Y-47225809D01*
X192479476Y-47463904D01*
X192527095Y-47559142D01*
X192574714Y-47606761D01*
X192669952Y-47654380D01*
X192955666Y-47654380D01*
X193050904Y-47606761D01*
X193098523Y-47559142D01*
X192146142Y-46654380D02*
X191479476Y-46654380D01*
X191908047Y-47654380D01*
X144128380Y-52006666D02*
X144842666Y-52006666D01*
X144985523Y-51959047D01*
X145080761Y-51863809D01*
X145128380Y-51720952D01*
X145128380Y-51625714D01*
X145128380Y-53006666D02*
X145128380Y-52435238D01*
X145128380Y-52720952D02*
X144128380Y-52720952D01*
X144271238Y-52625714D01*
X144366476Y-52530476D01*
X144414095Y-52435238D01*
X155683142Y-59353333D02*
X155730761Y-59305714D01*
X155778380Y-59162857D01*
X155778380Y-59067619D01*
X155730761Y-58924761D01*
X155635523Y-58829523D01*
X155540285Y-58781904D01*
X155349809Y-58734285D01*
X155206952Y-58734285D01*
X155016476Y-58781904D01*
X154921238Y-58829523D01*
X154826000Y-58924761D01*
X154778380Y-59067619D01*
X154778380Y-59162857D01*
X154826000Y-59305714D01*
X154873619Y-59353333D01*
X155778380Y-60305714D02*
X155778380Y-59734285D01*
X155778380Y-60020000D02*
X154778380Y-60020000D01*
X154921238Y-59924761D01*
X155016476Y-59829523D01*
X155064095Y-59734285D01*
X141390666Y-76599142D02*
X141438285Y-76646761D01*
X141581142Y-76694380D01*
X141676380Y-76694380D01*
X141819238Y-76646761D01*
X141914476Y-76551523D01*
X141962095Y-76456285D01*
X142009714Y-76265809D01*
X142009714Y-76122952D01*
X141962095Y-75932476D01*
X141914476Y-75837238D01*
X141819238Y-75742000D01*
X141676380Y-75694380D01*
X141581142Y-75694380D01*
X141438285Y-75742000D01*
X141390666Y-75789619D01*
X141009714Y-75789619D02*
X140962095Y-75742000D01*
X140866857Y-75694380D01*
X140628761Y-75694380D01*
X140533523Y-75742000D01*
X140485904Y-75789619D01*
X140438285Y-75884857D01*
X140438285Y-75980095D01*
X140485904Y-76122952D01*
X141057333Y-76694380D01*
X140438285Y-76694380D01*
X147028380Y-59473333D02*
X147028380Y-58997142D01*
X146028380Y-58997142D01*
X147028380Y-60330476D02*
X147028380Y-59759047D01*
X147028380Y-60044761D02*
X146028380Y-60044761D01*
X146171238Y-59949523D01*
X146266476Y-59854285D01*
X146314095Y-59759047D01*
X136282666Y-62617142D02*
X136330285Y-62664761D01*
X136473142Y-62712380D01*
X136568380Y-62712380D01*
X136711238Y-62664761D01*
X136806476Y-62569523D01*
X136854095Y-62474285D01*
X136901714Y-62283809D01*
X136901714Y-62140952D01*
X136854095Y-61950476D01*
X136806476Y-61855238D01*
X136711238Y-61760000D01*
X136568380Y-61712380D01*
X136473142Y-61712380D01*
X136330285Y-61760000D01*
X136282666Y-61807619D01*
X135425523Y-62045714D02*
X135425523Y-62712380D01*
X135663619Y-61664761D02*
X135901714Y-62379047D01*
X135282666Y-62379047D01*
X156262666Y-79507142D02*
X156310285Y-79554761D01*
X156453142Y-79602380D01*
X156548380Y-79602380D01*
X156691238Y-79554761D01*
X156786476Y-79459523D01*
X156834095Y-79364285D01*
X156881714Y-79173809D01*
X156881714Y-79030952D01*
X156834095Y-78840476D01*
X156786476Y-78745238D01*
X156691238Y-78650000D01*
X156548380Y-78602380D01*
X156453142Y-78602380D01*
X156310285Y-78650000D01*
X156262666Y-78697619D01*
X155929333Y-78602380D02*
X155262666Y-78602380D01*
X155691238Y-79602380D01*
X140953142Y-61812333D02*
X141000761Y-61764714D01*
X141048380Y-61621857D01*
X141048380Y-61526619D01*
X141000761Y-61383761D01*
X140905523Y-61288523D01*
X140810285Y-61240904D01*
X140619809Y-61193285D01*
X140476952Y-61193285D01*
X140286476Y-61240904D01*
X140191238Y-61288523D01*
X140096000Y-61383761D01*
X140048380Y-61526619D01*
X140048380Y-61621857D01*
X140096000Y-61764714D01*
X140143619Y-61812333D01*
X140476952Y-62383761D02*
X140429333Y-62288523D01*
X140381714Y-62240904D01*
X140286476Y-62193285D01*
X140238857Y-62193285D01*
X140143619Y-62240904D01*
X140096000Y-62288523D01*
X140048380Y-62383761D01*
X140048380Y-62574238D01*
X140096000Y-62669476D01*
X140143619Y-62717095D01*
X140238857Y-62764714D01*
X140286476Y-62764714D01*
X140381714Y-62717095D01*
X140429333Y-62669476D01*
X140476952Y-62574238D01*
X140476952Y-62383761D01*
X140524571Y-62288523D01*
X140572190Y-62240904D01*
X140667428Y-62193285D01*
X140857904Y-62193285D01*
X140953142Y-62240904D01*
X141000761Y-62288523D01*
X141048380Y-62383761D01*
X141048380Y-62574238D01*
X141000761Y-62669476D01*
X140953142Y-62717095D01*
X140857904Y-62764714D01*
X140667428Y-62764714D01*
X140572190Y-62717095D01*
X140524571Y-62669476D01*
X140476952Y-62574238D01*
X158976455Y-62474753D02*
X159043798Y-62474753D01*
X159178485Y-62407409D01*
X159245829Y-62340066D01*
X159313172Y-62205378D01*
X159313172Y-62070691D01*
X159279501Y-61969676D01*
X159178485Y-61801317D01*
X159077470Y-61700302D01*
X158909111Y-61599287D01*
X158808096Y-61565615D01*
X158673409Y-61565615D01*
X158538722Y-61632959D01*
X158471378Y-61700302D01*
X158404035Y-61834989D01*
X158404035Y-61902333D01*
X158707081Y-62878814D02*
X158572394Y-63013501D01*
X158471378Y-63047172D01*
X158404035Y-63047172D01*
X158235676Y-63013501D01*
X158067317Y-62912485D01*
X157797943Y-62643111D01*
X157764272Y-62542096D01*
X157764272Y-62474753D01*
X157797943Y-62373737D01*
X157932630Y-62239050D01*
X158033646Y-62205378D01*
X158100989Y-62205378D01*
X158202004Y-62239050D01*
X158370363Y-62407409D01*
X158404035Y-62508424D01*
X158404035Y-62575768D01*
X158370363Y-62676783D01*
X158235676Y-62811470D01*
X158134661Y-62845142D01*
X158067317Y-62845142D01*
X157966302Y-62811470D01*
X168448857Y-57102380D02*
X168782190Y-56626190D01*
X169020285Y-57102380D02*
X169020285Y-56102380D01*
X168639333Y-56102380D01*
X168544095Y-56150000D01*
X168496476Y-56197619D01*
X168448857Y-56292857D01*
X168448857Y-56435714D01*
X168496476Y-56530952D01*
X168544095Y-56578571D01*
X168639333Y-56626190D01*
X169020285Y-56626190D01*
X167496476Y-57102380D02*
X168067904Y-57102380D01*
X167782190Y-57102380D02*
X167782190Y-56102380D01*
X167877428Y-56245238D01*
X167972666Y-56340476D01*
X168067904Y-56388095D01*
X166925047Y-56530952D02*
X167020285Y-56483333D01*
X167067904Y-56435714D01*
X167115523Y-56340476D01*
X167115523Y-56292857D01*
X167067904Y-56197619D01*
X167020285Y-56150000D01*
X166925047Y-56102380D01*
X166734571Y-56102380D01*
X166639333Y-56150000D01*
X166591714Y-56197619D01*
X166544095Y-56292857D01*
X166544095Y-56340476D01*
X166591714Y-56435714D01*
X166639333Y-56483333D01*
X166734571Y-56530952D01*
X166925047Y-56530952D01*
X167020285Y-56578571D01*
X167067904Y-56626190D01*
X167115523Y-56721428D01*
X167115523Y-56911904D01*
X167067904Y-57007142D01*
X167020285Y-57054761D01*
X166925047Y-57102380D01*
X166734571Y-57102380D01*
X166639333Y-57054761D01*
X166591714Y-57007142D01*
X166544095Y-56911904D01*
X166544095Y-56721428D01*
X166591714Y-56626190D01*
X166639333Y-56578571D01*
X166734571Y-56530952D01*
X168468857Y-55012380D02*
X168802190Y-54536190D01*
X169040285Y-55012380D02*
X169040285Y-54012380D01*
X168659333Y-54012380D01*
X168564095Y-54060000D01*
X168516476Y-54107619D01*
X168468857Y-54202857D01*
X168468857Y-54345714D01*
X168516476Y-54440952D01*
X168564095Y-54488571D01*
X168659333Y-54536190D01*
X169040285Y-54536190D01*
X167516476Y-55012380D02*
X168087904Y-55012380D01*
X167802190Y-55012380D02*
X167802190Y-54012380D01*
X167897428Y-54155238D01*
X167992666Y-54250476D01*
X168087904Y-54298095D01*
X167040285Y-55012380D02*
X166849809Y-55012380D01*
X166754571Y-54964761D01*
X166706952Y-54917142D01*
X166611714Y-54774285D01*
X166564095Y-54583809D01*
X166564095Y-54202857D01*
X166611714Y-54107619D01*
X166659333Y-54060000D01*
X166754571Y-54012380D01*
X166945047Y-54012380D01*
X167040285Y-54060000D01*
X167087904Y-54107619D01*
X167135523Y-54202857D01*
X167135523Y-54440952D01*
X167087904Y-54536190D01*
X167040285Y-54583809D01*
X166945047Y-54631428D01*
X166754571Y-54631428D01*
X166659333Y-54583809D01*
X166611714Y-54536190D01*
X166564095Y-54440952D01*
X133325523Y-60454761D02*
X133182666Y-60502380D01*
X132944571Y-60502380D01*
X132849333Y-60454761D01*
X132801714Y-60407142D01*
X132754095Y-60311904D01*
X132754095Y-60216666D01*
X132801714Y-60121428D01*
X132849333Y-60073809D01*
X132944571Y-60026190D01*
X133135047Y-59978571D01*
X133230285Y-59930952D01*
X133277904Y-59883333D01*
X133325523Y-59788095D01*
X133325523Y-59692857D01*
X133277904Y-59597619D01*
X133230285Y-59550000D01*
X133135047Y-59502380D01*
X132896952Y-59502380D01*
X132754095Y-59550000D01*
X132420761Y-59502380D02*
X132182666Y-60502380D01*
X131992190Y-59788095D01*
X131801714Y-60502380D01*
X131563619Y-59502380D01*
X131039809Y-59930952D02*
X131135047Y-59883333D01*
X131182666Y-59835714D01*
X131230285Y-59740476D01*
X131230285Y-59692857D01*
X131182666Y-59597619D01*
X131135047Y-59550000D01*
X131039809Y-59502380D01*
X130849333Y-59502380D01*
X130754095Y-59550000D01*
X130706476Y-59597619D01*
X130658857Y-59692857D01*
X130658857Y-59740476D01*
X130706476Y-59835714D01*
X130754095Y-59883333D01*
X130849333Y-59930952D01*
X131039809Y-59930952D01*
X131135047Y-59978571D01*
X131182666Y-60026190D01*
X131230285Y-60121428D01*
X131230285Y-60311904D01*
X131182666Y-60407142D01*
X131135047Y-60454761D01*
X131039809Y-60502380D01*
X130849333Y-60502380D01*
X130754095Y-60454761D01*
X130706476Y-60407142D01*
X130658857Y-60311904D01*
X130658857Y-60121428D01*
X130706476Y-60026190D01*
X130754095Y-59978571D01*
X130849333Y-59930952D01*
X130039809Y-59502380D02*
X129944571Y-59502380D01*
X129849333Y-59550000D01*
X129801714Y-59597619D01*
X129754095Y-59692857D01*
X129706476Y-59883333D01*
X129706476Y-60121428D01*
X129754095Y-60311904D01*
X129801714Y-60407142D01*
X129849333Y-60454761D01*
X129944571Y-60502380D01*
X130039809Y-60502380D01*
X130135047Y-60454761D01*
X130182666Y-60407142D01*
X130230285Y-60311904D01*
X130277904Y-60121428D01*
X130277904Y-59883333D01*
X130230285Y-59692857D01*
X130182666Y-59597619D01*
X130135047Y-59550000D01*
X130039809Y-59502380D01*
X167451312Y-62210389D02*
X167451312Y-62277732D01*
X167518656Y-62412419D01*
X167586000Y-62479763D01*
X167720687Y-62547106D01*
X167855374Y-62547106D01*
X167956389Y-62513435D01*
X168124748Y-62412419D01*
X168225763Y-62311404D01*
X168326778Y-62143045D01*
X168360450Y-62042030D01*
X168360450Y-61907343D01*
X168293106Y-61772656D01*
X168225763Y-61705312D01*
X168091076Y-61637969D01*
X168023732Y-61637969D01*
X167451312Y-60930862D02*
X167788030Y-61267580D01*
X167484984Y-61637969D01*
X167484984Y-61570625D01*
X167451312Y-61469610D01*
X167282954Y-61301251D01*
X167181938Y-61267580D01*
X167114595Y-61267580D01*
X167013580Y-61301251D01*
X166845221Y-61469610D01*
X166811549Y-61570625D01*
X166811549Y-61637969D01*
X166845221Y-61738984D01*
X167013580Y-61907343D01*
X167114595Y-61941015D01*
X167181938Y-61941015D01*
X170643115Y-72591413D02*
X170710458Y-72591413D01*
X170845145Y-72524069D01*
X170912489Y-72456726D01*
X170979832Y-72322038D01*
X170979832Y-72187351D01*
X170946161Y-72086336D01*
X170845145Y-71917977D01*
X170744130Y-71816962D01*
X170575771Y-71715947D01*
X170474756Y-71682275D01*
X170340069Y-71682275D01*
X170205382Y-71749619D01*
X170138038Y-71816962D01*
X170070695Y-71951649D01*
X170070695Y-72018993D01*
X169397260Y-72557741D02*
X169531947Y-72423054D01*
X169632962Y-72389382D01*
X169700306Y-72389382D01*
X169868664Y-72423054D01*
X170037023Y-72524069D01*
X170306397Y-72793443D01*
X170340069Y-72894458D01*
X170340069Y-72961802D01*
X170306397Y-73062817D01*
X170171710Y-73197504D01*
X170070695Y-73231176D01*
X170003351Y-73231176D01*
X169902336Y-73197504D01*
X169733977Y-73029145D01*
X169700306Y-72928130D01*
X169700306Y-72860787D01*
X169733977Y-72759771D01*
X169868664Y-72625084D01*
X169969680Y-72591413D01*
X170037023Y-72591413D01*
X170138038Y-72625084D01*
X194254285Y-61116380D02*
X194254285Y-60116380D01*
X194016190Y-60116380D01*
X193873333Y-60164000D01*
X193778095Y-60259238D01*
X193730476Y-60354476D01*
X193682857Y-60544952D01*
X193682857Y-60687809D01*
X193730476Y-60878285D01*
X193778095Y-60973523D01*
X193873333Y-61068761D01*
X194016190Y-61116380D01*
X194254285Y-61116380D01*
X193301904Y-60211619D02*
X193254285Y-60164000D01*
X193159047Y-60116380D01*
X192920952Y-60116380D01*
X192825714Y-60164000D01*
X192778095Y-60211619D01*
X192730476Y-60306857D01*
X192730476Y-60402095D01*
X192778095Y-60544952D01*
X193349523Y-61116380D01*
X192730476Y-61116380D01*
X192349523Y-60211619D02*
X192301904Y-60164000D01*
X192206666Y-60116380D01*
X191968571Y-60116380D01*
X191873333Y-60164000D01*
X191825714Y-60211619D01*
X191778095Y-60306857D01*
X191778095Y-60402095D01*
X191825714Y-60544952D01*
X192397142Y-61116380D01*
X191778095Y-61116380D01*
X188856857Y-61116380D02*
X189190190Y-60640190D01*
X189428285Y-61116380D02*
X189428285Y-60116380D01*
X189047333Y-60116380D01*
X188952095Y-60164000D01*
X188904476Y-60211619D01*
X188856857Y-60306857D01*
X188856857Y-60449714D01*
X188904476Y-60544952D01*
X188952095Y-60592571D01*
X189047333Y-60640190D01*
X189428285Y-60640190D01*
X187904476Y-61116380D02*
X188475904Y-61116380D01*
X188190190Y-61116380D02*
X188190190Y-60116380D01*
X188285428Y-60259238D01*
X188380666Y-60354476D01*
X188475904Y-60402095D01*
X187571142Y-60116380D02*
X186904476Y-60116380D01*
X187333047Y-61116380D01*
X130118380Y-51456666D02*
X130832666Y-51456666D01*
X130975523Y-51409047D01*
X131070761Y-51313809D01*
X131118380Y-51170952D01*
X131118380Y-51075714D01*
X130451714Y-52361428D02*
X131118380Y-52361428D01*
X130070761Y-52123333D02*
X130785047Y-51885238D01*
X130785047Y-52504285D01*
X117772380Y-48688666D02*
X118486666Y-48688666D01*
X118629523Y-48641047D01*
X118724761Y-48545809D01*
X118772380Y-48402952D01*
X118772380Y-48307714D01*
X117772380Y-49641047D02*
X117772380Y-49164857D01*
X118248571Y-49117238D01*
X118200952Y-49164857D01*
X118153333Y-49260095D01*
X118153333Y-49498190D01*
X118200952Y-49593428D01*
X118248571Y-49641047D01*
X118343809Y-49688666D01*
X118581904Y-49688666D01*
X118677142Y-49641047D01*
X118724761Y-49593428D01*
X118772380Y-49498190D01*
X118772380Y-49260095D01*
X118724761Y-49164857D01*
X118677142Y-49117238D01*
X293707428Y-48368571D02*
X294040761Y-48368571D01*
X294040761Y-48892380D02*
X294040761Y-47892380D01*
X293564571Y-47892380D01*
X293183619Y-48892380D02*
X293183619Y-47892380D01*
X292707428Y-48892380D02*
X292707428Y-47892380D01*
X292469333Y-47892380D01*
X292326476Y-47940000D01*
X292231238Y-48035238D01*
X292183619Y-48130476D01*
X292136000Y-48320952D01*
X292136000Y-48463809D01*
X292183619Y-48654285D01*
X292231238Y-48749523D01*
X292326476Y-48844761D01*
X292469333Y-48892380D01*
X292707428Y-48892380D01*
X291278857Y-48225714D02*
X291278857Y-48892380D01*
X291516952Y-47844761D02*
X291755047Y-48559047D01*
X291136000Y-48559047D01*
X9257428Y-48358571D02*
X9590761Y-48358571D01*
X9590761Y-48882380D02*
X9590761Y-47882380D01*
X9114571Y-47882380D01*
X8733619Y-48882380D02*
X8733619Y-47882380D01*
X8257428Y-48882380D02*
X8257428Y-47882380D01*
X8019333Y-47882380D01*
X7876476Y-47930000D01*
X7781238Y-48025238D01*
X7733619Y-48120476D01*
X7686000Y-48310952D01*
X7686000Y-48453809D01*
X7733619Y-48644285D01*
X7781238Y-48739523D01*
X7876476Y-48834761D01*
X8019333Y-48882380D01*
X8257428Y-48882380D01*
X6781238Y-47882380D02*
X7257428Y-47882380D01*
X7305047Y-48358571D01*
X7257428Y-48310952D01*
X7162190Y-48263333D01*
X6924095Y-48263333D01*
X6828857Y-48310952D01*
X6781238Y-48358571D01*
X6733619Y-48453809D01*
X6733619Y-48691904D01*
X6781238Y-48787142D01*
X6828857Y-48834761D01*
X6924095Y-48882380D01*
X7162190Y-48882380D01*
X7257428Y-48834761D01*
X7305047Y-48787142D01*
X293677428Y-168898571D02*
X294010761Y-168898571D01*
X294010761Y-169422380D02*
X294010761Y-168422380D01*
X293534571Y-168422380D01*
X293153619Y-169422380D02*
X293153619Y-168422380D01*
X292677428Y-169422380D02*
X292677428Y-168422380D01*
X292439333Y-168422380D01*
X292296476Y-168470000D01*
X292201238Y-168565238D01*
X292153619Y-168660476D01*
X292106000Y-168850952D01*
X292106000Y-168993809D01*
X292153619Y-169184285D01*
X292201238Y-169279523D01*
X292296476Y-169374761D01*
X292439333Y-169422380D01*
X292677428Y-169422380D01*
X291248857Y-168422380D02*
X291439333Y-168422380D01*
X291534571Y-168470000D01*
X291582190Y-168517619D01*
X291677428Y-168660476D01*
X291725047Y-168850952D01*
X291725047Y-169231904D01*
X291677428Y-169327142D01*
X291629809Y-169374761D01*
X291534571Y-169422380D01*
X291344095Y-169422380D01*
X291248857Y-169374761D01*
X291201238Y-169327142D01*
X291153619Y-169231904D01*
X291153619Y-168993809D01*
X291201238Y-168898571D01*
X291248857Y-168850952D01*
X291344095Y-168803333D01*
X291534571Y-168803333D01*
X291629809Y-168850952D01*
X291677428Y-168898571D01*
X291725047Y-168993809D01*
M02*
