%FSLAX45Y45*%
G04 Gerber Fmt 4.5, Leading zero omitted, Abs format (unit mm)*
G04 Created by KiCad (PCBNEW (6.99.0-1603-g82820d4b1c)) date 2022-06-17 11:00:47*
%MOMM*%
%LPD*%
G01*
G04 APERTURE LIST*
%TA.AperFunction,Profile*%
%ADD10C,0.100000*%
%TD*%
%ADD11C,0.200000*%
%ADD12C,0.175000*%
%ADD13C,0.400000*%
G04 APERTURE END LIST*
D10*
X29540200Y-4572000D02*
X29540200Y-17272000D01*
X482600Y-4572000D02*
X29540200Y-4572000D01*
X482600Y-17272000D02*
X482600Y-4572000D01*
X29540200Y-17272000D02*
X482600Y-17272000D01*
D11*
D12*
X1461900Y-7528800D02*
X1636900Y-7703800D01*
X1636900Y-7528800D02*
X1461900Y-7703800D01*
X1461900Y-8526800D02*
X1636900Y-8701800D01*
X1636900Y-8526800D02*
X1461900Y-8701800D01*
X1461900Y-9700500D02*
X1636900Y-9875500D01*
X1636900Y-9700500D02*
X1461900Y-9875500D01*
X1461900Y-10698500D02*
X1636900Y-10873500D01*
X1636900Y-10698500D02*
X1461900Y-10873500D01*
X1461900Y-11859500D02*
X1636900Y-12034500D01*
X1636900Y-11859500D02*
X1461900Y-12034500D01*
X1461900Y-12857500D02*
X1636900Y-13032500D01*
X1636900Y-12857500D02*
X1461900Y-13032500D01*
X1830200Y-5382500D02*
X2005200Y-5557500D01*
X2005200Y-5382500D02*
X1830200Y-5557500D01*
X1830200Y-6380500D02*
X2005200Y-6555500D01*
X2005200Y-6380500D02*
X1830200Y-6555500D01*
X3392300Y-7414500D02*
X3567300Y-7589500D01*
X3567300Y-7414500D02*
X3392300Y-7589500D01*
X3392300Y-8412500D02*
X3567300Y-8587500D01*
X3567300Y-8412500D02*
X3392300Y-8587500D01*
X3392300Y-9344900D02*
X3567300Y-9519900D01*
X3567300Y-9344900D02*
X3392300Y-9519900D01*
X3392300Y-10342900D02*
X3567300Y-10517900D01*
X3567300Y-10342900D02*
X3392300Y-10517900D01*
X3392300Y-11275300D02*
X3567300Y-11450300D01*
X3567300Y-11275300D02*
X3392300Y-11450300D01*
X3392300Y-12273300D02*
X3567300Y-12448300D01*
X3567300Y-12273300D02*
X3392300Y-12448300D01*
X3392300Y-13561300D02*
X3567300Y-13736300D01*
X3567300Y-13561300D02*
X3392300Y-13736300D01*
X3392300Y-14559300D02*
X3567300Y-14734300D01*
X3567300Y-14559300D02*
X3392300Y-14734300D01*
X3760600Y-5484100D02*
X3935600Y-5659100D01*
X3935600Y-5484100D02*
X3760600Y-5659100D01*
X3760600Y-6482100D02*
X3935600Y-6657100D01*
X3935600Y-6482100D02*
X3760600Y-6657100D01*
X5322700Y-7757400D02*
X5497700Y-7932400D01*
X5497700Y-7757400D02*
X5322700Y-7932400D01*
X5322700Y-8755400D02*
X5497700Y-8930400D01*
X5497700Y-8755400D02*
X5322700Y-8930400D01*
X5322700Y-9687800D02*
X5497700Y-9862800D01*
X5497700Y-9687800D02*
X5322700Y-9862800D01*
X5322700Y-10685800D02*
X5497700Y-10860800D01*
X5497700Y-10685800D02*
X5322700Y-10860800D01*
X5322700Y-11630900D02*
X5497700Y-11805900D01*
X5497700Y-11630900D02*
X5322700Y-11805900D01*
X5322700Y-12628900D02*
X5497700Y-12803900D01*
X5497700Y-12628900D02*
X5322700Y-12803900D01*
X5322700Y-13561300D02*
X5497700Y-13736300D01*
X5497700Y-13561300D02*
X5322700Y-13736300D01*
X5322700Y-14559300D02*
X5497700Y-14734300D01*
X5497700Y-14559300D02*
X5322700Y-14734300D01*
X5691000Y-5839700D02*
X5866000Y-6014700D01*
X5866000Y-5839700D02*
X5691000Y-6014700D01*
X5691000Y-6837700D02*
X5866000Y-7012700D01*
X5866000Y-6837700D02*
X5691000Y-7012700D01*
X7253100Y-8113000D02*
X7428100Y-8288000D01*
X7428100Y-8113000D02*
X7253100Y-8288000D01*
X7253100Y-9111000D02*
X7428100Y-9286000D01*
X7428100Y-9111000D02*
X7253100Y-9286000D01*
X7253100Y-10043400D02*
X7428100Y-10218400D01*
X7428100Y-10043400D02*
X7253100Y-10218400D01*
X7253100Y-11041400D02*
X7428100Y-11216400D01*
X7428100Y-11041400D02*
X7253100Y-11216400D01*
X7253100Y-11986500D02*
X7428100Y-12161500D01*
X7428100Y-11986500D02*
X7253100Y-12161500D01*
X7253100Y-12984500D02*
X7428100Y-13159500D01*
X7428100Y-12984500D02*
X7253100Y-13159500D01*
X7253100Y-13891500D02*
X7428100Y-14066500D01*
X7428100Y-13891500D02*
X7253100Y-14066500D01*
X7253100Y-14889500D02*
X7428100Y-15064500D01*
X7428100Y-14889500D02*
X7253100Y-15064500D01*
X7621400Y-6182600D02*
X7796400Y-6357600D01*
X7796400Y-6182600D02*
X7621400Y-6357600D01*
X7621400Y-7180600D02*
X7796400Y-7355600D01*
X7796400Y-7180600D02*
X7621400Y-7355600D01*
X9183500Y-8468600D02*
X9358500Y-8643600D01*
X9358500Y-8468600D02*
X9183500Y-8643600D01*
X9183500Y-9466600D02*
X9358500Y-9641600D01*
X9358500Y-9466600D02*
X9183500Y-9641600D01*
X9183500Y-10424400D02*
X9358500Y-10599400D01*
X9358500Y-10424400D02*
X9183500Y-10599400D01*
X9183500Y-11422400D02*
X9358500Y-11597400D01*
X9358500Y-11422400D02*
X9183500Y-11597400D01*
X9183500Y-12329400D02*
X9358500Y-12504400D01*
X9358500Y-12329400D02*
X9183500Y-12504400D01*
X9183500Y-13327400D02*
X9358500Y-13502400D01*
X9358500Y-13327400D02*
X9183500Y-13502400D01*
X9183500Y-14272500D02*
X9358500Y-14447500D01*
X9358500Y-14272500D02*
X9183500Y-14447500D01*
X9183500Y-15270500D02*
X9358500Y-15445500D01*
X9358500Y-15270500D02*
X9183500Y-15445500D01*
X9183500Y-15898100D02*
X9358500Y-16073100D01*
X9358500Y-15898100D02*
X9183500Y-16073100D01*
X9183500Y-16896100D02*
X9358500Y-17071100D01*
X9358500Y-16896100D02*
X9183500Y-17071100D01*
X9551800Y-6538200D02*
X9726800Y-6713200D01*
X9726800Y-6538200D02*
X9551800Y-6713200D01*
X9551800Y-7536200D02*
X9726800Y-7711200D01*
X9726800Y-7536200D02*
X9551800Y-7711200D01*
X11113900Y-8836900D02*
X11288900Y-9011900D01*
X11288900Y-8836900D02*
X11113900Y-9011900D01*
X11113900Y-9834900D02*
X11288900Y-10009900D01*
X11288900Y-9834900D02*
X11113900Y-10009900D01*
X11113900Y-10767300D02*
X11288900Y-10942300D01*
X11288900Y-10767300D02*
X11113900Y-10942300D01*
X11113900Y-11765300D02*
X11288900Y-11940300D01*
X11288900Y-11765300D02*
X11113900Y-11940300D01*
X11113900Y-12697700D02*
X11288900Y-12872700D01*
X11288900Y-12697700D02*
X11113900Y-12872700D01*
X11113900Y-13695700D02*
X11288900Y-13870700D01*
X11288900Y-13695700D02*
X11113900Y-13870700D01*
X11113900Y-14628100D02*
X11288900Y-14803100D01*
X11288900Y-14628100D02*
X11113900Y-14803100D01*
X11113900Y-15626100D02*
X11288900Y-15801100D01*
X11288900Y-15626100D02*
X11113900Y-15801100D01*
X11482200Y-6906500D02*
X11657200Y-7081500D01*
X11657200Y-6906500D02*
X11482200Y-7081500D01*
X11482200Y-7904500D02*
X11657200Y-8079500D01*
X11657200Y-7904500D02*
X11482200Y-8079500D01*
X13044300Y-9294100D02*
X13219300Y-9469100D01*
X13219300Y-9294100D02*
X13044300Y-9469100D01*
X13044300Y-10292100D02*
X13219300Y-10467100D01*
X13219300Y-10292100D02*
X13044300Y-10467100D01*
X13044300Y-11224500D02*
X13219300Y-11399500D01*
X13219300Y-11224500D02*
X13044300Y-11399500D01*
X13044300Y-12222500D02*
X13219300Y-12397500D01*
X13219300Y-12222500D02*
X13044300Y-12397500D01*
X13044300Y-13154900D02*
X13219300Y-13329900D01*
X13219300Y-13154900D02*
X13044300Y-13329900D01*
X13044300Y-14152900D02*
X13219300Y-14327900D01*
X13219300Y-14152900D02*
X13044300Y-14327900D01*
X13044300Y-15085300D02*
X13219300Y-15260300D01*
X13219300Y-15085300D02*
X13044300Y-15260300D01*
X13044300Y-16083300D02*
X13219300Y-16258300D01*
X13219300Y-16083300D02*
X13044300Y-16258300D01*
X13412600Y-7351000D02*
X13587600Y-7526000D01*
X13587600Y-7351000D02*
X13412600Y-7526000D01*
X13412600Y-8349000D02*
X13587600Y-8524000D01*
X13587600Y-8349000D02*
X13412600Y-8524000D01*
X14974700Y-9459200D02*
X15149700Y-9634200D01*
X15149700Y-9459200D02*
X14974700Y-9634200D01*
X14974700Y-10457200D02*
X15149700Y-10632200D01*
X15149700Y-10457200D02*
X14974700Y-10632200D01*
X14974700Y-11402300D02*
X15149700Y-11577300D01*
X15149700Y-11402300D02*
X14974700Y-11577300D01*
X14974700Y-12400300D02*
X15149700Y-12575300D01*
X15149700Y-12400300D02*
X14974700Y-12575300D01*
X14974700Y-13332700D02*
X15149700Y-13507700D01*
X15149700Y-13332700D02*
X14974700Y-13507700D01*
X14974700Y-14330700D02*
X15149700Y-14505700D01*
X15149700Y-14330700D02*
X14974700Y-14505700D01*
X14974700Y-15263100D02*
X15149700Y-15438100D01*
X15149700Y-15263100D02*
X14974700Y-15438100D01*
X14974700Y-16261100D02*
X15149700Y-16436100D01*
X15149700Y-16261100D02*
X14974700Y-16436100D01*
X16422500Y-7363700D02*
X16597500Y-7538700D01*
X16597500Y-7363700D02*
X16422500Y-7538700D01*
X16422500Y-8361700D02*
X16597500Y-8536700D01*
X16597500Y-8361700D02*
X16422500Y-8536700D01*
X16905100Y-9294100D02*
X17080100Y-9469100D01*
X17080100Y-9294100D02*
X16905100Y-9469100D01*
X16905100Y-10292100D02*
X17080100Y-10467100D01*
X17080100Y-10292100D02*
X16905100Y-10467100D01*
X16905100Y-11224500D02*
X17080100Y-11399500D01*
X17080100Y-11224500D02*
X16905100Y-11399500D01*
X16905100Y-12222500D02*
X17080100Y-12397500D01*
X17080100Y-12222500D02*
X16905100Y-12397500D01*
X16905100Y-13154900D02*
X17080100Y-13329900D01*
X17080100Y-13154900D02*
X16905100Y-13329900D01*
X16905100Y-14152900D02*
X17080100Y-14327900D01*
X17080100Y-14152900D02*
X16905100Y-14327900D01*
X16905100Y-15085300D02*
X17080100Y-15260300D01*
X17080100Y-15085300D02*
X16905100Y-15260300D01*
X16905100Y-16083300D02*
X17080100Y-16258300D01*
X17080100Y-16083300D02*
X16905100Y-16258300D01*
X18352900Y-6906500D02*
X18527900Y-7081500D01*
X18527900Y-6906500D02*
X18352900Y-7081500D01*
X18352900Y-7904500D02*
X18527900Y-8079500D01*
X18527900Y-7904500D02*
X18352900Y-8079500D01*
X18835500Y-8836900D02*
X19010500Y-9011900D01*
X19010500Y-8836900D02*
X18835500Y-9011900D01*
X18835500Y-9834900D02*
X19010500Y-10009900D01*
X19010500Y-9834900D02*
X18835500Y-10009900D01*
X18835500Y-10767300D02*
X19010500Y-10942300D01*
X19010500Y-10767300D02*
X18835500Y-10942300D01*
X18835500Y-11765300D02*
X19010500Y-11940300D01*
X19010500Y-11765300D02*
X18835500Y-11940300D01*
X18835500Y-12697700D02*
X19010500Y-12872700D01*
X19010500Y-12697700D02*
X18835500Y-12872700D01*
X18835500Y-13695700D02*
X19010500Y-13870700D01*
X19010500Y-13695700D02*
X18835500Y-13870700D01*
X18835500Y-14628100D02*
X19010500Y-14803100D01*
X19010500Y-14628100D02*
X18835500Y-14803100D01*
X18835500Y-15626100D02*
X19010500Y-15801100D01*
X19010500Y-15626100D02*
X18835500Y-15801100D01*
X20283300Y-6525500D02*
X20458300Y-6700500D01*
X20458300Y-6525500D02*
X20283300Y-6700500D01*
X20283300Y-7523500D02*
X20458300Y-7698500D01*
X20458300Y-7523500D02*
X20283300Y-7698500D01*
X20765900Y-8481300D02*
X20940900Y-8656300D01*
X20940900Y-8481300D02*
X20765900Y-8656300D01*
X20765900Y-9479300D02*
X20940900Y-9654300D01*
X20940900Y-9479300D02*
X20765900Y-9654300D01*
X20765900Y-10411700D02*
X20940900Y-10586700D01*
X20940900Y-10411700D02*
X20765900Y-10586700D01*
X20765900Y-11409700D02*
X20940900Y-11584700D01*
X20940900Y-11409700D02*
X20765900Y-11584700D01*
X20765900Y-12342100D02*
X20940900Y-12517100D01*
X20940900Y-12342100D02*
X20765900Y-12517100D01*
X20765900Y-13340100D02*
X20940900Y-13515100D01*
X20940900Y-13340100D02*
X20765900Y-13515100D01*
X20791300Y-14272500D02*
X20966300Y-14447500D01*
X20966300Y-14272500D02*
X20791300Y-14447500D01*
X20791300Y-15270500D02*
X20966300Y-15445500D01*
X20966300Y-15270500D02*
X20791300Y-15445500D01*
X20791300Y-15898100D02*
X20966300Y-16073100D01*
X20966300Y-15898100D02*
X20791300Y-16073100D01*
X20791300Y-16896100D02*
X20966300Y-17071100D01*
X20966300Y-16896100D02*
X20791300Y-17071100D01*
X22213700Y-6195300D02*
X22388700Y-6370300D01*
X22388700Y-6195300D02*
X22213700Y-6370300D01*
X22213700Y-7193300D02*
X22388700Y-7368300D01*
X22388700Y-7193300D02*
X22213700Y-7368300D01*
X22696300Y-8125700D02*
X22871300Y-8300700D01*
X22871300Y-8125700D02*
X22696300Y-8300700D01*
X22696300Y-9123700D02*
X22871300Y-9298700D01*
X22871300Y-9123700D02*
X22696300Y-9298700D01*
X22696300Y-10056100D02*
X22871300Y-10231100D01*
X22871300Y-10056100D02*
X22696300Y-10231100D01*
X22696300Y-11054100D02*
X22871300Y-11229100D01*
X22871300Y-11054100D02*
X22696300Y-11229100D01*
X22696300Y-11986500D02*
X22871300Y-12161500D01*
X22871300Y-11986500D02*
X22696300Y-12161500D01*
X22696300Y-12984500D02*
X22871300Y-13159500D01*
X22871300Y-12984500D02*
X22696300Y-13159500D01*
X22696300Y-13916900D02*
X22871300Y-14091900D01*
X22871300Y-13916900D02*
X22696300Y-14091900D01*
X22696300Y-14914900D02*
X22871300Y-15089900D01*
X22871300Y-14914900D02*
X22696300Y-15089900D01*
X24144100Y-5839700D02*
X24319100Y-6014700D01*
X24319100Y-5839700D02*
X24144100Y-6014700D01*
X24144100Y-6837700D02*
X24319100Y-7012700D01*
X24319100Y-6837700D02*
X24144100Y-7012700D01*
X24626700Y-7770100D02*
X24801700Y-7945100D01*
X24801700Y-7770100D02*
X24626700Y-7945100D01*
X24626700Y-8768100D02*
X24801700Y-8943100D01*
X24801700Y-8768100D02*
X24626700Y-8943100D01*
X24626700Y-9700500D02*
X24801700Y-9875500D01*
X24801700Y-9700500D02*
X24626700Y-9875500D01*
X24626700Y-10698500D02*
X24801700Y-10873500D01*
X24801700Y-10698500D02*
X24626700Y-10873500D01*
X24626700Y-11630900D02*
X24801700Y-11805900D01*
X24801700Y-11630900D02*
X24626700Y-11805900D01*
X24626700Y-12628900D02*
X24801700Y-12803900D01*
X24801700Y-12628900D02*
X24626700Y-12803900D01*
X24626700Y-13535900D02*
X24801700Y-13710900D01*
X24801700Y-13535900D02*
X24626700Y-13710900D01*
X24626700Y-14533900D02*
X24801700Y-14708900D01*
X24801700Y-14533900D02*
X24626700Y-14708900D01*
X24626700Y-15491700D02*
X24801700Y-15666700D01*
X24801700Y-15491700D02*
X24626700Y-15666700D01*
X24626700Y-16489700D02*
X24801700Y-16664700D01*
X24801700Y-16489700D02*
X24626700Y-16664700D01*
X26074500Y-5484100D02*
X26249500Y-5659100D01*
X26249500Y-5484100D02*
X26074500Y-5659100D01*
X26074500Y-6482100D02*
X26249500Y-6657100D01*
X26249500Y-6482100D02*
X26074500Y-6657100D01*
X26557100Y-7414500D02*
X26732100Y-7589500D01*
X26732100Y-7414500D02*
X26557100Y-7589500D01*
X26557100Y-8412500D02*
X26732100Y-8587500D01*
X26732100Y-8412500D02*
X26557100Y-8587500D01*
X26557100Y-9344900D02*
X26732100Y-9519900D01*
X26732100Y-9344900D02*
X26557100Y-9519900D01*
X26557100Y-10342900D02*
X26732100Y-10517900D01*
X26732100Y-10342900D02*
X26557100Y-10517900D01*
X26557100Y-11275300D02*
X26732100Y-11450300D01*
X26732100Y-11275300D02*
X26557100Y-11450300D01*
X26557100Y-12273300D02*
X26732100Y-12448300D01*
X26732100Y-12273300D02*
X26557100Y-12448300D01*
X26557100Y-13510500D02*
X26732100Y-13685500D01*
X26732100Y-13510500D02*
X26557100Y-13685500D01*
X26557100Y-14508500D02*
X26732100Y-14683500D01*
X26732100Y-14508500D02*
X26557100Y-14683500D01*
X26557100Y-15466300D02*
X26732100Y-15641300D01*
X26732100Y-15466300D02*
X26557100Y-15641300D01*
X26557100Y-16464300D02*
X26732100Y-16639300D01*
X26732100Y-16464300D02*
X26557100Y-16639300D01*
X28004900Y-5382500D02*
X28179900Y-5557500D01*
X28179900Y-5382500D02*
X28004900Y-5557500D01*
X28004900Y-6380500D02*
X28179900Y-6555500D01*
X28179900Y-6380500D02*
X28004900Y-6555500D01*
X28487500Y-7312900D02*
X28662500Y-7487900D01*
X28662500Y-7312900D02*
X28487500Y-7487900D01*
X28487500Y-8310900D02*
X28662500Y-8485900D01*
X28662500Y-8310900D02*
X28487500Y-8485900D01*
X28487500Y-9217900D02*
X28662500Y-9392900D01*
X28662500Y-9217900D02*
X28487500Y-9392900D01*
X28487500Y-10215900D02*
X28662500Y-10390900D01*
X28662500Y-10215900D02*
X28487500Y-10390900D01*
X28487500Y-11402300D02*
X28662500Y-11577300D01*
X28662500Y-11402300D02*
X28487500Y-11577300D01*
X28487500Y-12400300D02*
X28662500Y-12575300D01*
X28662500Y-12400300D02*
X28487500Y-12575300D01*
X28487500Y-13535900D02*
X28662500Y-13710900D01*
X28662500Y-13535900D02*
X28487500Y-13710900D01*
X28487500Y-14533900D02*
X28662500Y-14708900D01*
X28662500Y-14533900D02*
X28487500Y-14708900D01*
X28487500Y-15491700D02*
X28662500Y-15666700D01*
X28662500Y-15491700D02*
X28487500Y-15666700D01*
X28487500Y-16489700D02*
X28662500Y-16664700D01*
X28662500Y-16489700D02*
X28487500Y-16664700D01*
D13*
X1749400Y-8115300D02*
G75*
G03*
X1749400Y-8115300I-200000J0D01*
G01*
X1749400Y-10287000D02*
G75*
G03*
X1749400Y-10287000I-200000J0D01*
G01*
X1749400Y-12446000D02*
G75*
G03*
X1749400Y-12446000I-200000J0D01*
G01*
X2117700Y-5969000D02*
G75*
G03*
X2117700Y-5969000I-200000J0D01*
G01*
X3679800Y-8001000D02*
G75*
G03*
X3679800Y-8001000I-200000J0D01*
G01*
X3679800Y-9931400D02*
G75*
G03*
X3679800Y-9931400I-200000J0D01*
G01*
X3679800Y-11861800D02*
G75*
G03*
X3679800Y-11861800I-200000J0D01*
G01*
X3679800Y-14147800D02*
G75*
G03*
X3679800Y-14147800I-200000J0D01*
G01*
X4048100Y-6070600D02*
G75*
G03*
X4048100Y-6070600I-200000J0D01*
G01*
X5610200Y-8343900D02*
G75*
G03*
X5610200Y-8343900I-200000J0D01*
G01*
X5610200Y-10274300D02*
G75*
G03*
X5610200Y-10274300I-200000J0D01*
G01*
X5610200Y-12217400D02*
G75*
G03*
X5610200Y-12217400I-200000J0D01*
G01*
X5610200Y-14147800D02*
G75*
G03*
X5610200Y-14147800I-200000J0D01*
G01*
X5978500Y-6426200D02*
G75*
G03*
X5978500Y-6426200I-200000J0D01*
G01*
X7540600Y-8699500D02*
G75*
G03*
X7540600Y-8699500I-200000J0D01*
G01*
X7540600Y-10629900D02*
G75*
G03*
X7540600Y-10629900I-200000J0D01*
G01*
X7540600Y-12573000D02*
G75*
G03*
X7540600Y-12573000I-200000J0D01*
G01*
X7540600Y-14478000D02*
G75*
G03*
X7540600Y-14478000I-200000J0D01*
G01*
X7908900Y-6769100D02*
G75*
G03*
X7908900Y-6769100I-200000J0D01*
G01*
X9471000Y-9055100D02*
G75*
G03*
X9471000Y-9055100I-200000J0D01*
G01*
X9471000Y-11010900D02*
G75*
G03*
X9471000Y-11010900I-200000J0D01*
G01*
X9471000Y-12915900D02*
G75*
G03*
X9471000Y-12915900I-200000J0D01*
G01*
X9471000Y-14859000D02*
G75*
G03*
X9471000Y-14859000I-200000J0D01*
G01*
X9471000Y-16484600D02*
G75*
G03*
X9471000Y-16484600I-200000J0D01*
G01*
X9839300Y-7124700D02*
G75*
G03*
X9839300Y-7124700I-200000J0D01*
G01*
X11401400Y-9423400D02*
G75*
G03*
X11401400Y-9423400I-200000J0D01*
G01*
X11401400Y-11353800D02*
G75*
G03*
X11401400Y-11353800I-200000J0D01*
G01*
X11401400Y-13284200D02*
G75*
G03*
X11401400Y-13284200I-200000J0D01*
G01*
X11401400Y-15214600D02*
G75*
G03*
X11401400Y-15214600I-200000J0D01*
G01*
X11769700Y-7493000D02*
G75*
G03*
X11769700Y-7493000I-200000J0D01*
G01*
X13331800Y-9880600D02*
G75*
G03*
X13331800Y-9880600I-200000J0D01*
G01*
X13331800Y-11811000D02*
G75*
G03*
X13331800Y-11811000I-200000J0D01*
G01*
X13331800Y-13741400D02*
G75*
G03*
X13331800Y-13741400I-200000J0D01*
G01*
X13331800Y-15671800D02*
G75*
G03*
X13331800Y-15671800I-200000J0D01*
G01*
X13700100Y-7937500D02*
G75*
G03*
X13700100Y-7937500I-200000J0D01*
G01*
X15262200Y-10045700D02*
G75*
G03*
X15262200Y-10045700I-200000J0D01*
G01*
X15262200Y-11988800D02*
G75*
G03*
X15262200Y-11988800I-200000J0D01*
G01*
X15262200Y-13919200D02*
G75*
G03*
X15262200Y-13919200I-200000J0D01*
G01*
X15262200Y-15849600D02*
G75*
G03*
X15262200Y-15849600I-200000J0D01*
G01*
X16710000Y-7950200D02*
G75*
G03*
X16710000Y-7950200I-200000J0D01*
G01*
X17192600Y-9880600D02*
G75*
G03*
X17192600Y-9880600I-200000J0D01*
G01*
X17192600Y-11811000D02*
G75*
G03*
X17192600Y-11811000I-200000J0D01*
G01*
X17192600Y-13741400D02*
G75*
G03*
X17192600Y-13741400I-200000J0D01*
G01*
X17192600Y-15671800D02*
G75*
G03*
X17192600Y-15671800I-200000J0D01*
G01*
X18640400Y-7493000D02*
G75*
G03*
X18640400Y-7493000I-200000J0D01*
G01*
X19123000Y-9423400D02*
G75*
G03*
X19123000Y-9423400I-200000J0D01*
G01*
X19123000Y-11353800D02*
G75*
G03*
X19123000Y-11353800I-200000J0D01*
G01*
X19123000Y-13284200D02*
G75*
G03*
X19123000Y-13284200I-200000J0D01*
G01*
X19123000Y-15214600D02*
G75*
G03*
X19123000Y-15214600I-200000J0D01*
G01*
X20570800Y-7112000D02*
G75*
G03*
X20570800Y-7112000I-200000J0D01*
G01*
X21053400Y-9067800D02*
G75*
G03*
X21053400Y-9067800I-200000J0D01*
G01*
X21053400Y-10998200D02*
G75*
G03*
X21053400Y-10998200I-200000J0D01*
G01*
X21053400Y-12928600D02*
G75*
G03*
X21053400Y-12928600I-200000J0D01*
G01*
X21078800Y-14859000D02*
G75*
G03*
X21078800Y-14859000I-200000J0D01*
G01*
X21078800Y-16484600D02*
G75*
G03*
X21078800Y-16484600I-200000J0D01*
G01*
X22501200Y-6781800D02*
G75*
G03*
X22501200Y-6781800I-200000J0D01*
G01*
X22983800Y-8712200D02*
G75*
G03*
X22983800Y-8712200I-200000J0D01*
G01*
X22983800Y-10642600D02*
G75*
G03*
X22983800Y-10642600I-200000J0D01*
G01*
X22983800Y-12573000D02*
G75*
G03*
X22983800Y-12573000I-200000J0D01*
G01*
X22983800Y-14503400D02*
G75*
G03*
X22983800Y-14503400I-200000J0D01*
G01*
X24431600Y-6426200D02*
G75*
G03*
X24431600Y-6426200I-200000J0D01*
G01*
X24914200Y-8356600D02*
G75*
G03*
X24914200Y-8356600I-200000J0D01*
G01*
X24914200Y-10287000D02*
G75*
G03*
X24914200Y-10287000I-200000J0D01*
G01*
X24914200Y-12217400D02*
G75*
G03*
X24914200Y-12217400I-200000J0D01*
G01*
X24914200Y-14122400D02*
G75*
G03*
X24914200Y-14122400I-200000J0D01*
G01*
X24914200Y-16078200D02*
G75*
G03*
X24914200Y-16078200I-200000J0D01*
G01*
X26362000Y-6070600D02*
G75*
G03*
X26362000Y-6070600I-200000J0D01*
G01*
X26844600Y-8001000D02*
G75*
G03*
X26844600Y-8001000I-200000J0D01*
G01*
X26844600Y-9931400D02*
G75*
G03*
X26844600Y-9931400I-200000J0D01*
G01*
X26844600Y-11861800D02*
G75*
G03*
X26844600Y-11861800I-200000J0D01*
G01*
X26844600Y-14097000D02*
G75*
G03*
X26844600Y-14097000I-200000J0D01*
G01*
X26844600Y-16052800D02*
G75*
G03*
X26844600Y-16052800I-200000J0D01*
G01*
X28292400Y-5969000D02*
G75*
G03*
X28292400Y-5969000I-200000J0D01*
G01*
X28775000Y-7899400D02*
G75*
G03*
X28775000Y-7899400I-200000J0D01*
G01*
X28775000Y-9804400D02*
G75*
G03*
X28775000Y-9804400I-200000J0D01*
G01*
X28775000Y-11988800D02*
G75*
G03*
X28775000Y-11988800I-200000J0D01*
G01*
X28775000Y-14122400D02*
G75*
G03*
X28775000Y-14122400I-200000J0D01*
G01*
X28775000Y-16078200D02*
G75*
G03*
X28775000Y-16078200I-200000J0D01*
G01*
D11*
X725219Y-17570476D02*
X725219Y-17370476D01*
X725219Y-17370476D02*
X772838Y-17370476D01*
X772838Y-17370476D02*
X801409Y-17380000D01*
X801409Y-17380000D02*
X820457Y-17399048D01*
X820457Y-17399048D02*
X829981Y-17418095D01*
X829981Y-17418095D02*
X839505Y-17456190D01*
X839505Y-17456190D02*
X839505Y-17484762D01*
X839505Y-17484762D02*
X829981Y-17522857D01*
X829981Y-17522857D02*
X820457Y-17541905D01*
X820457Y-17541905D02*
X801409Y-17560952D01*
X801409Y-17560952D02*
X772838Y-17570476D01*
X772838Y-17570476D02*
X725219Y-17570476D01*
X925219Y-17570476D02*
X925219Y-17437143D01*
X925219Y-17475238D02*
X934743Y-17456190D01*
X934743Y-17456190D02*
X944267Y-17446667D01*
X944267Y-17446667D02*
X963314Y-17437143D01*
X963314Y-17437143D02*
X982362Y-17437143D01*
X1049029Y-17570476D02*
X1049029Y-17437143D01*
X1049029Y-17370476D02*
X1039505Y-17380000D01*
X1039505Y-17380000D02*
X1049029Y-17389524D01*
X1049029Y-17389524D02*
X1058552Y-17380000D01*
X1058552Y-17380000D02*
X1049029Y-17370476D01*
X1049029Y-17370476D02*
X1049029Y-17389524D01*
X1172838Y-17570476D02*
X1153790Y-17560952D01*
X1153790Y-17560952D02*
X1144267Y-17541905D01*
X1144267Y-17541905D02*
X1144267Y-17370476D01*
X1277600Y-17570476D02*
X1258552Y-17560952D01*
X1258552Y-17560952D02*
X1249029Y-17541905D01*
X1249029Y-17541905D02*
X1249029Y-17370476D01*
X1473790Y-17570476D02*
X1473790Y-17370476D01*
X1473790Y-17370476D02*
X1540457Y-17513333D01*
X1540457Y-17513333D02*
X1607124Y-17370476D01*
X1607124Y-17370476D02*
X1607124Y-17570476D01*
X1788076Y-17570476D02*
X1788076Y-17465714D01*
X1788076Y-17465714D02*
X1778552Y-17446667D01*
X1778552Y-17446667D02*
X1759505Y-17437143D01*
X1759505Y-17437143D02*
X1721409Y-17437143D01*
X1721409Y-17437143D02*
X1702362Y-17446667D01*
X1788076Y-17560952D02*
X1769028Y-17570476D01*
X1769028Y-17570476D02*
X1721409Y-17570476D01*
X1721409Y-17570476D02*
X1702362Y-17560952D01*
X1702362Y-17560952D02*
X1692838Y-17541905D01*
X1692838Y-17541905D02*
X1692838Y-17522857D01*
X1692838Y-17522857D02*
X1702362Y-17503810D01*
X1702362Y-17503810D02*
X1721409Y-17494286D01*
X1721409Y-17494286D02*
X1769028Y-17494286D01*
X1769028Y-17494286D02*
X1788076Y-17484762D01*
X1883314Y-17437143D02*
X1883314Y-17637143D01*
X1883314Y-17446667D02*
X1902362Y-17437143D01*
X1902362Y-17437143D02*
X1940457Y-17437143D01*
X1940457Y-17437143D02*
X1959505Y-17446667D01*
X1959505Y-17446667D02*
X1969028Y-17456190D01*
X1969028Y-17456190D02*
X1978552Y-17475238D01*
X1978552Y-17475238D02*
X1978552Y-17532381D01*
X1978552Y-17532381D02*
X1969028Y-17551429D01*
X1969028Y-17551429D02*
X1959505Y-17560952D01*
X1959505Y-17560952D02*
X1940457Y-17570476D01*
X1940457Y-17570476D02*
X1902362Y-17570476D01*
X1902362Y-17570476D02*
X1883314Y-17560952D01*
X2064267Y-17551429D02*
X2073790Y-17560952D01*
X2073790Y-17560952D02*
X2064267Y-17570476D01*
X2064267Y-17570476D02*
X2054743Y-17560952D01*
X2054743Y-17560952D02*
X2064267Y-17551429D01*
X2064267Y-17551429D02*
X2064267Y-17570476D01*
X2064267Y-17446667D02*
X2073790Y-17456190D01*
X2073790Y-17456190D02*
X2064267Y-17465714D01*
X2064267Y-17465714D02*
X2054743Y-17456190D01*
X2054743Y-17456190D02*
X2064267Y-17446667D01*
X2064267Y-17446667D02*
X2064267Y-17465714D01*
D12*
X302600Y-17829500D02*
X477600Y-18004500D01*
X477600Y-17829500D02*
X302600Y-18004500D01*
D11*
X829981Y-17990476D02*
X715695Y-17990476D01*
X772838Y-17990476D02*
X772838Y-17790476D01*
X772838Y-17790476D02*
X753790Y-17819048D01*
X753790Y-17819048D02*
X734743Y-17838095D01*
X734743Y-17838095D02*
X715695Y-17847619D01*
X915695Y-17971429D02*
X925219Y-17980952D01*
X925219Y-17980952D02*
X915695Y-17990476D01*
X915695Y-17990476D02*
X906171Y-17980952D01*
X906171Y-17980952D02*
X915695Y-17971429D01*
X915695Y-17971429D02*
X915695Y-17990476D01*
X991886Y-17790476D02*
X1125219Y-17790476D01*
X1125219Y-17790476D02*
X1039505Y-17990476D01*
X1296648Y-17790476D02*
X1201410Y-17790476D01*
X1201410Y-17790476D02*
X1191886Y-17885714D01*
X1191886Y-17885714D02*
X1201410Y-17876190D01*
X1201410Y-17876190D02*
X1220457Y-17866667D01*
X1220457Y-17866667D02*
X1268076Y-17866667D01*
X1268076Y-17866667D02*
X1287124Y-17876190D01*
X1287124Y-17876190D02*
X1296648Y-17885714D01*
X1296648Y-17885714D02*
X1306171Y-17904762D01*
X1306171Y-17904762D02*
X1306171Y-17952381D01*
X1306171Y-17952381D02*
X1296648Y-17971429D01*
X1296648Y-17971429D02*
X1287124Y-17980952D01*
X1287124Y-17980952D02*
X1268076Y-17990476D01*
X1268076Y-17990476D02*
X1220457Y-17990476D01*
X1220457Y-17990476D02*
X1201410Y-17980952D01*
X1201410Y-17980952D02*
X1191886Y-17971429D01*
X1429981Y-17790476D02*
X1449029Y-17790476D01*
X1449029Y-17790476D02*
X1468076Y-17800000D01*
X1468076Y-17800000D02*
X1477600Y-17809524D01*
X1477600Y-17809524D02*
X1487124Y-17828571D01*
X1487124Y-17828571D02*
X1496648Y-17866667D01*
X1496648Y-17866667D02*
X1496648Y-17914286D01*
X1496648Y-17914286D02*
X1487124Y-17952381D01*
X1487124Y-17952381D02*
X1477600Y-17971429D01*
X1477600Y-17971429D02*
X1468076Y-17980952D01*
X1468076Y-17980952D02*
X1449029Y-17990476D01*
X1449029Y-17990476D02*
X1429981Y-17990476D01*
X1429981Y-17990476D02*
X1410933Y-17980952D01*
X1410933Y-17980952D02*
X1401409Y-17971429D01*
X1401409Y-17971429D02*
X1391886Y-17952381D01*
X1391886Y-17952381D02*
X1382362Y-17914286D01*
X1382362Y-17914286D02*
X1382362Y-17866667D01*
X1382362Y-17866667D02*
X1391886Y-17828571D01*
X1391886Y-17828571D02*
X1401409Y-17809524D01*
X1401409Y-17809524D02*
X1410933Y-17800000D01*
X1410933Y-17800000D02*
X1429981Y-17790476D01*
X1582362Y-17990476D02*
X1582362Y-17857143D01*
X1582362Y-17876190D02*
X1591886Y-17866667D01*
X1591886Y-17866667D02*
X1610933Y-17857143D01*
X1610933Y-17857143D02*
X1639505Y-17857143D01*
X1639505Y-17857143D02*
X1658552Y-17866667D01*
X1658552Y-17866667D02*
X1668076Y-17885714D01*
X1668076Y-17885714D02*
X1668076Y-17990476D01*
X1668076Y-17885714D02*
X1677600Y-17866667D01*
X1677600Y-17866667D02*
X1696648Y-17857143D01*
X1696648Y-17857143D02*
X1725219Y-17857143D01*
X1725219Y-17857143D02*
X1744267Y-17866667D01*
X1744267Y-17866667D02*
X1753790Y-17885714D01*
X1753790Y-17885714D02*
X1753790Y-17990476D01*
X1849029Y-17990476D02*
X1849029Y-17857143D01*
X1849029Y-17876190D02*
X1858552Y-17866667D01*
X1858552Y-17866667D02*
X1877600Y-17857143D01*
X1877600Y-17857143D02*
X1906171Y-17857143D01*
X1906171Y-17857143D02*
X1925219Y-17866667D01*
X1925219Y-17866667D02*
X1934743Y-17885714D01*
X1934743Y-17885714D02*
X1934743Y-17990476D01*
X1934743Y-17885714D02*
X1944267Y-17866667D01*
X1944267Y-17866667D02*
X1963314Y-17857143D01*
X1963314Y-17857143D02*
X1991886Y-17857143D01*
X1991886Y-17857143D02*
X2010933Y-17866667D01*
X2010933Y-17866667D02*
X2020457Y-17885714D01*
X2020457Y-17885714D02*
X2020457Y-17990476D01*
X2378552Y-17780952D02*
X2207124Y-18038095D01*
X2603314Y-17790476D02*
X2622362Y-17790476D01*
X2622362Y-17790476D02*
X2641410Y-17800000D01*
X2641410Y-17800000D02*
X2650933Y-17809524D01*
X2650933Y-17809524D02*
X2660457Y-17828571D01*
X2660457Y-17828571D02*
X2669981Y-17866667D01*
X2669981Y-17866667D02*
X2669981Y-17914286D01*
X2669981Y-17914286D02*
X2660457Y-17952381D01*
X2660457Y-17952381D02*
X2650933Y-17971429D01*
X2650933Y-17971429D02*
X2641410Y-17980952D01*
X2641410Y-17980952D02*
X2622362Y-17990476D01*
X2622362Y-17990476D02*
X2603314Y-17990476D01*
X2603314Y-17990476D02*
X2584267Y-17980952D01*
X2584267Y-17980952D02*
X2574743Y-17971429D01*
X2574743Y-17971429D02*
X2565219Y-17952381D01*
X2565219Y-17952381D02*
X2555695Y-17914286D01*
X2555695Y-17914286D02*
X2555695Y-17866667D01*
X2555695Y-17866667D02*
X2565219Y-17828571D01*
X2565219Y-17828571D02*
X2574743Y-17809524D01*
X2574743Y-17809524D02*
X2584267Y-17800000D01*
X2584267Y-17800000D02*
X2603314Y-17790476D01*
X2755695Y-17971429D02*
X2765219Y-17980952D01*
X2765219Y-17980952D02*
X2755695Y-17990476D01*
X2755695Y-17990476D02*
X2746172Y-17980952D01*
X2746172Y-17980952D02*
X2755695Y-17971429D01*
X2755695Y-17971429D02*
X2755695Y-17990476D01*
X2889029Y-17790476D02*
X2908076Y-17790476D01*
X2908076Y-17790476D02*
X2927124Y-17800000D01*
X2927124Y-17800000D02*
X2936648Y-17809524D01*
X2936648Y-17809524D02*
X2946171Y-17828571D01*
X2946171Y-17828571D02*
X2955695Y-17866667D01*
X2955695Y-17866667D02*
X2955695Y-17914286D01*
X2955695Y-17914286D02*
X2946171Y-17952381D01*
X2946171Y-17952381D02*
X2936648Y-17971429D01*
X2936648Y-17971429D02*
X2927124Y-17980952D01*
X2927124Y-17980952D02*
X2908076Y-17990476D01*
X2908076Y-17990476D02*
X2889029Y-17990476D01*
X2889029Y-17990476D02*
X2869981Y-17980952D01*
X2869981Y-17980952D02*
X2860457Y-17971429D01*
X2860457Y-17971429D02*
X2850933Y-17952381D01*
X2850933Y-17952381D02*
X2841410Y-17914286D01*
X2841410Y-17914286D02*
X2841410Y-17866667D01*
X2841410Y-17866667D02*
X2850933Y-17828571D01*
X2850933Y-17828571D02*
X2860457Y-17809524D01*
X2860457Y-17809524D02*
X2869981Y-17800000D01*
X2869981Y-17800000D02*
X2889029Y-17790476D01*
X3127124Y-17790476D02*
X3089029Y-17790476D01*
X3089029Y-17790476D02*
X3069981Y-17800000D01*
X3069981Y-17800000D02*
X3060457Y-17809524D01*
X3060457Y-17809524D02*
X3041410Y-17838095D01*
X3041410Y-17838095D02*
X3031886Y-17876190D01*
X3031886Y-17876190D02*
X3031886Y-17952381D01*
X3031886Y-17952381D02*
X3041410Y-17971429D01*
X3041410Y-17971429D02*
X3050933Y-17980952D01*
X3050933Y-17980952D02*
X3069981Y-17990476D01*
X3069981Y-17990476D02*
X3108076Y-17990476D01*
X3108076Y-17990476D02*
X3127124Y-17980952D01*
X3127124Y-17980952D02*
X3136648Y-17971429D01*
X3136648Y-17971429D02*
X3146171Y-17952381D01*
X3146171Y-17952381D02*
X3146171Y-17904762D01*
X3146171Y-17904762D02*
X3136648Y-17885714D01*
X3136648Y-17885714D02*
X3127124Y-17876190D01*
X3127124Y-17876190D02*
X3108076Y-17866667D01*
X3108076Y-17866667D02*
X3069981Y-17866667D01*
X3069981Y-17866667D02*
X3050933Y-17876190D01*
X3050933Y-17876190D02*
X3041410Y-17885714D01*
X3041410Y-17885714D02*
X3031886Y-17904762D01*
X3260457Y-17876190D02*
X3241410Y-17866667D01*
X3241410Y-17866667D02*
X3231886Y-17857143D01*
X3231886Y-17857143D02*
X3222362Y-17838095D01*
X3222362Y-17838095D02*
X3222362Y-17828571D01*
X3222362Y-17828571D02*
X3231886Y-17809524D01*
X3231886Y-17809524D02*
X3241410Y-17800000D01*
X3241410Y-17800000D02*
X3260457Y-17790476D01*
X3260457Y-17790476D02*
X3298552Y-17790476D01*
X3298552Y-17790476D02*
X3317600Y-17800000D01*
X3317600Y-17800000D02*
X3327124Y-17809524D01*
X3327124Y-17809524D02*
X3336648Y-17828571D01*
X3336648Y-17828571D02*
X3336648Y-17838095D01*
X3336648Y-17838095D02*
X3327124Y-17857143D01*
X3327124Y-17857143D02*
X3317600Y-17866667D01*
X3317600Y-17866667D02*
X3298552Y-17876190D01*
X3298552Y-17876190D02*
X3260457Y-17876190D01*
X3260457Y-17876190D02*
X3241410Y-17885714D01*
X3241410Y-17885714D02*
X3231886Y-17895238D01*
X3231886Y-17895238D02*
X3222362Y-17914286D01*
X3222362Y-17914286D02*
X3222362Y-17952381D01*
X3222362Y-17952381D02*
X3231886Y-17971429D01*
X3231886Y-17971429D02*
X3241410Y-17980952D01*
X3241410Y-17980952D02*
X3260457Y-17990476D01*
X3260457Y-17990476D02*
X3298552Y-17990476D01*
X3298552Y-17990476D02*
X3317600Y-17980952D01*
X3317600Y-17980952D02*
X3327124Y-17971429D01*
X3327124Y-17971429D02*
X3336648Y-17952381D01*
X3336648Y-17952381D02*
X3336648Y-17914286D01*
X3336648Y-17914286D02*
X3327124Y-17895238D01*
X3327124Y-17895238D02*
X3317600Y-17885714D01*
X3317600Y-17885714D02*
X3298552Y-17876190D01*
X3431886Y-17990476D02*
X3469981Y-17990476D01*
X3469981Y-17990476D02*
X3489029Y-17980952D01*
X3489029Y-17980952D02*
X3498552Y-17971429D01*
X3498552Y-17971429D02*
X3517600Y-17942857D01*
X3517600Y-17942857D02*
X3527124Y-17904762D01*
X3527124Y-17904762D02*
X3527124Y-17828571D01*
X3527124Y-17828571D02*
X3517600Y-17809524D01*
X3517600Y-17809524D02*
X3508076Y-17800000D01*
X3508076Y-17800000D02*
X3489029Y-17790476D01*
X3489029Y-17790476D02*
X3450933Y-17790476D01*
X3450933Y-17790476D02*
X3431886Y-17800000D01*
X3431886Y-17800000D02*
X3422362Y-17809524D01*
X3422362Y-17809524D02*
X3412838Y-17828571D01*
X3412838Y-17828571D02*
X3412838Y-17876190D01*
X3412838Y-17876190D02*
X3422362Y-17895238D01*
X3422362Y-17895238D02*
X3431886Y-17904762D01*
X3431886Y-17904762D02*
X3450933Y-17914286D01*
X3450933Y-17914286D02*
X3489029Y-17914286D01*
X3489029Y-17914286D02*
X3508076Y-17904762D01*
X3508076Y-17904762D02*
X3517600Y-17895238D01*
X3517600Y-17895238D02*
X3527124Y-17876190D01*
X3603314Y-17790476D02*
X3603314Y-17828571D01*
X3679505Y-17790476D02*
X3679505Y-17828571D01*
X3942362Y-18066667D02*
X3932838Y-18057143D01*
X3932838Y-18057143D02*
X3913791Y-18028571D01*
X3913791Y-18028571D02*
X3904267Y-18009524D01*
X3904267Y-18009524D02*
X3894743Y-17980952D01*
X3894743Y-17980952D02*
X3885219Y-17933333D01*
X3885219Y-17933333D02*
X3885219Y-17895238D01*
X3885219Y-17895238D02*
X3894743Y-17847619D01*
X3894743Y-17847619D02*
X3904267Y-17819048D01*
X3904267Y-17819048D02*
X3913791Y-17800000D01*
X3913791Y-17800000D02*
X3932838Y-17771429D01*
X3932838Y-17771429D02*
X3942362Y-17761905D01*
X4123314Y-17990476D02*
X4009029Y-17990476D01*
X4066171Y-17990476D02*
X4066171Y-17790476D01*
X4066171Y-17790476D02*
X4047124Y-17819048D01*
X4047124Y-17819048D02*
X4028076Y-17838095D01*
X4028076Y-17838095D02*
X4009029Y-17847619D01*
X4304267Y-17790476D02*
X4209029Y-17790476D01*
X4209029Y-17790476D02*
X4199505Y-17885714D01*
X4199505Y-17885714D02*
X4209029Y-17876190D01*
X4209029Y-17876190D02*
X4228076Y-17866667D01*
X4228076Y-17866667D02*
X4275695Y-17866667D01*
X4275695Y-17866667D02*
X4294743Y-17876190D01*
X4294743Y-17876190D02*
X4304267Y-17885714D01*
X4304267Y-17885714D02*
X4313791Y-17904762D01*
X4313791Y-17904762D02*
X4313791Y-17952381D01*
X4313791Y-17952381D02*
X4304267Y-17971429D01*
X4304267Y-17971429D02*
X4294743Y-17980952D01*
X4294743Y-17980952D02*
X4275695Y-17990476D01*
X4275695Y-17990476D02*
X4228076Y-17990476D01*
X4228076Y-17990476D02*
X4209029Y-17980952D01*
X4209029Y-17980952D02*
X4199505Y-17971429D01*
X4485219Y-17790476D02*
X4447124Y-17790476D01*
X4447124Y-17790476D02*
X4428076Y-17800000D01*
X4428076Y-17800000D02*
X4418553Y-17809524D01*
X4418553Y-17809524D02*
X4399505Y-17838095D01*
X4399505Y-17838095D02*
X4389981Y-17876190D01*
X4389981Y-17876190D02*
X4389981Y-17952381D01*
X4389981Y-17952381D02*
X4399505Y-17971429D01*
X4399505Y-17971429D02*
X4409029Y-17980952D01*
X4409029Y-17980952D02*
X4428076Y-17990476D01*
X4428076Y-17990476D02*
X4466172Y-17990476D01*
X4466172Y-17990476D02*
X4485219Y-17980952D01*
X4485219Y-17980952D02*
X4494743Y-17971429D01*
X4494743Y-17971429D02*
X4504267Y-17952381D01*
X4504267Y-17952381D02*
X4504267Y-17904762D01*
X4504267Y-17904762D02*
X4494743Y-17885714D01*
X4494743Y-17885714D02*
X4485219Y-17876190D01*
X4485219Y-17876190D02*
X4466172Y-17866667D01*
X4466172Y-17866667D02*
X4428076Y-17866667D01*
X4428076Y-17866667D02*
X4409029Y-17876190D01*
X4409029Y-17876190D02*
X4399505Y-17885714D01*
X4399505Y-17885714D02*
X4389981Y-17904762D01*
X4709981Y-17990476D02*
X4709981Y-17790476D01*
X4795695Y-17990476D02*
X4795695Y-17885714D01*
X4795695Y-17885714D02*
X4786172Y-17866667D01*
X4786172Y-17866667D02*
X4767124Y-17857143D01*
X4767124Y-17857143D02*
X4738553Y-17857143D01*
X4738553Y-17857143D02*
X4719505Y-17866667D01*
X4719505Y-17866667D02*
X4709981Y-17876190D01*
X4919505Y-17990476D02*
X4900457Y-17980952D01*
X4900457Y-17980952D02*
X4890934Y-17971429D01*
X4890934Y-17971429D02*
X4881410Y-17952381D01*
X4881410Y-17952381D02*
X4881410Y-17895238D01*
X4881410Y-17895238D02*
X4890934Y-17876190D01*
X4890934Y-17876190D02*
X4900457Y-17866667D01*
X4900457Y-17866667D02*
X4919505Y-17857143D01*
X4919505Y-17857143D02*
X4948076Y-17857143D01*
X4948076Y-17857143D02*
X4967124Y-17866667D01*
X4967124Y-17866667D02*
X4976648Y-17876190D01*
X4976648Y-17876190D02*
X4986172Y-17895238D01*
X4986172Y-17895238D02*
X4986172Y-17952381D01*
X4986172Y-17952381D02*
X4976648Y-17971429D01*
X4976648Y-17971429D02*
X4967124Y-17980952D01*
X4967124Y-17980952D02*
X4948076Y-17990476D01*
X4948076Y-17990476D02*
X4919505Y-17990476D01*
X5100457Y-17990476D02*
X5081410Y-17980952D01*
X5081410Y-17980952D02*
X5071886Y-17961905D01*
X5071886Y-17961905D02*
X5071886Y-17790476D01*
X5252838Y-17980952D02*
X5233791Y-17990476D01*
X5233791Y-17990476D02*
X5195695Y-17990476D01*
X5195695Y-17990476D02*
X5176648Y-17980952D01*
X5176648Y-17980952D02*
X5167124Y-17961905D01*
X5167124Y-17961905D02*
X5167124Y-17885714D01*
X5167124Y-17885714D02*
X5176648Y-17866667D01*
X5176648Y-17866667D02*
X5195695Y-17857143D01*
X5195695Y-17857143D02*
X5233791Y-17857143D01*
X5233791Y-17857143D02*
X5252838Y-17866667D01*
X5252838Y-17866667D02*
X5262362Y-17885714D01*
X5262362Y-17885714D02*
X5262362Y-17904762D01*
X5262362Y-17904762D02*
X5167124Y-17923810D01*
X5338553Y-17980952D02*
X5357600Y-17990476D01*
X5357600Y-17990476D02*
X5395695Y-17990476D01*
X5395695Y-17990476D02*
X5414743Y-17980952D01*
X5414743Y-17980952D02*
X5424267Y-17961905D01*
X5424267Y-17961905D02*
X5424267Y-17952381D01*
X5424267Y-17952381D02*
X5414743Y-17933333D01*
X5414743Y-17933333D02*
X5395695Y-17923810D01*
X5395695Y-17923810D02*
X5367124Y-17923810D01*
X5367124Y-17923810D02*
X5348076Y-17914286D01*
X5348076Y-17914286D02*
X5338553Y-17895238D01*
X5338553Y-17895238D02*
X5338553Y-17885714D01*
X5338553Y-17885714D02*
X5348076Y-17866667D01*
X5348076Y-17866667D02*
X5367124Y-17857143D01*
X5367124Y-17857143D02*
X5395695Y-17857143D01*
X5395695Y-17857143D02*
X5414743Y-17866667D01*
X5490934Y-18066667D02*
X5500457Y-18057143D01*
X5500457Y-18057143D02*
X5519505Y-18028571D01*
X5519505Y-18028571D02*
X5529029Y-18009524D01*
X5529029Y-18009524D02*
X5538553Y-17980952D01*
X5538553Y-17980952D02*
X5548076Y-17933333D01*
X5548076Y-17933333D02*
X5548076Y-17895238D01*
X5548076Y-17895238D02*
X5538553Y-17847619D01*
X5538553Y-17847619D02*
X5529029Y-17819048D01*
X5529029Y-17819048D02*
X5519505Y-17800000D01*
X5519505Y-17800000D02*
X5500457Y-17771429D01*
X5500457Y-17771429D02*
X5490934Y-17761905D01*
X5820457Y-18066667D02*
X5810933Y-18057143D01*
X5810933Y-18057143D02*
X5791886Y-18028571D01*
X5791886Y-18028571D02*
X5782362Y-18009524D01*
X5782362Y-18009524D02*
X5772838Y-17980952D01*
X5772838Y-17980952D02*
X5763314Y-17933333D01*
X5763314Y-17933333D02*
X5763314Y-17895238D01*
X5763314Y-17895238D02*
X5772838Y-17847619D01*
X5772838Y-17847619D02*
X5782362Y-17819048D01*
X5782362Y-17819048D02*
X5791886Y-17800000D01*
X5791886Y-17800000D02*
X5810933Y-17771429D01*
X5810933Y-17771429D02*
X5820457Y-17761905D01*
X5896648Y-17857143D02*
X5896648Y-17990476D01*
X5896648Y-17876190D02*
X5906172Y-17866667D01*
X5906172Y-17866667D02*
X5925219Y-17857143D01*
X5925219Y-17857143D02*
X5953791Y-17857143D01*
X5953791Y-17857143D02*
X5972838Y-17866667D01*
X5972838Y-17866667D02*
X5982362Y-17885714D01*
X5982362Y-17885714D02*
X5982362Y-17990476D01*
X6106172Y-17990476D02*
X6087124Y-17980952D01*
X6087124Y-17980952D02*
X6077600Y-17971429D01*
X6077600Y-17971429D02*
X6068076Y-17952381D01*
X6068076Y-17952381D02*
X6068076Y-17895238D01*
X6068076Y-17895238D02*
X6077600Y-17876190D01*
X6077600Y-17876190D02*
X6087124Y-17866667D01*
X6087124Y-17866667D02*
X6106172Y-17857143D01*
X6106172Y-17857143D02*
X6134743Y-17857143D01*
X6134743Y-17857143D02*
X6153791Y-17866667D01*
X6153791Y-17866667D02*
X6163314Y-17876190D01*
X6163314Y-17876190D02*
X6172838Y-17895238D01*
X6172838Y-17895238D02*
X6172838Y-17952381D01*
X6172838Y-17952381D02*
X6163314Y-17971429D01*
X6163314Y-17971429D02*
X6153791Y-17980952D01*
X6153791Y-17980952D02*
X6134743Y-17990476D01*
X6134743Y-17990476D02*
X6106172Y-17990476D01*
X6229981Y-17857143D02*
X6306172Y-17857143D01*
X6258553Y-17790476D02*
X6258553Y-17961905D01*
X6258553Y-17961905D02*
X6268076Y-17980952D01*
X6268076Y-17980952D02*
X6287124Y-17990476D01*
X6287124Y-17990476D02*
X6306172Y-17990476D01*
X6492838Y-17857143D02*
X6492838Y-18057143D01*
X6492838Y-17866667D02*
X6511886Y-17857143D01*
X6511886Y-17857143D02*
X6549981Y-17857143D01*
X6549981Y-17857143D02*
X6569029Y-17866667D01*
X6569029Y-17866667D02*
X6578553Y-17876190D01*
X6578553Y-17876190D02*
X6588076Y-17895238D01*
X6588076Y-17895238D02*
X6588076Y-17952381D01*
X6588076Y-17952381D02*
X6578553Y-17971429D01*
X6578553Y-17971429D02*
X6569029Y-17980952D01*
X6569029Y-17980952D02*
X6549981Y-17990476D01*
X6549981Y-17990476D02*
X6511886Y-17990476D01*
X6511886Y-17990476D02*
X6492838Y-17980952D01*
X6702362Y-17990476D02*
X6683314Y-17980952D01*
X6683314Y-17980952D02*
X6673791Y-17961905D01*
X6673791Y-17961905D02*
X6673791Y-17790476D01*
X6864267Y-17990476D02*
X6864267Y-17885714D01*
X6864267Y-17885714D02*
X6854743Y-17866667D01*
X6854743Y-17866667D02*
X6835695Y-17857143D01*
X6835695Y-17857143D02*
X6797600Y-17857143D01*
X6797600Y-17857143D02*
X6778553Y-17866667D01*
X6864267Y-17980952D02*
X6845219Y-17990476D01*
X6845219Y-17990476D02*
X6797600Y-17990476D01*
X6797600Y-17990476D02*
X6778553Y-17980952D01*
X6778553Y-17980952D02*
X6769029Y-17961905D01*
X6769029Y-17961905D02*
X6769029Y-17942857D01*
X6769029Y-17942857D02*
X6778553Y-17923810D01*
X6778553Y-17923810D02*
X6797600Y-17914286D01*
X6797600Y-17914286D02*
X6845219Y-17914286D01*
X6845219Y-17914286D02*
X6864267Y-17904762D01*
X6930934Y-17857143D02*
X7007124Y-17857143D01*
X6959505Y-17790476D02*
X6959505Y-17961905D01*
X6959505Y-17961905D02*
X6969029Y-17980952D01*
X6969029Y-17980952D02*
X6988076Y-17990476D01*
X6988076Y-17990476D02*
X7007124Y-17990476D01*
X7149981Y-17980952D02*
X7130934Y-17990476D01*
X7130934Y-17990476D02*
X7092838Y-17990476D01*
X7092838Y-17990476D02*
X7073791Y-17980952D01*
X7073791Y-17980952D02*
X7064267Y-17961905D01*
X7064267Y-17961905D02*
X7064267Y-17885714D01*
X7064267Y-17885714D02*
X7073791Y-17866667D01*
X7073791Y-17866667D02*
X7092838Y-17857143D01*
X7092838Y-17857143D02*
X7130934Y-17857143D01*
X7130934Y-17857143D02*
X7149981Y-17866667D01*
X7149981Y-17866667D02*
X7159505Y-17885714D01*
X7159505Y-17885714D02*
X7159505Y-17904762D01*
X7159505Y-17904762D02*
X7064267Y-17923810D01*
X7330934Y-17990476D02*
X7330934Y-17790476D01*
X7330934Y-17980952D02*
X7311886Y-17990476D01*
X7311886Y-17990476D02*
X7273791Y-17990476D01*
X7273791Y-17990476D02*
X7254743Y-17980952D01*
X7254743Y-17980952D02*
X7245219Y-17971429D01*
X7245219Y-17971429D02*
X7235695Y-17952381D01*
X7235695Y-17952381D02*
X7235695Y-17895238D01*
X7235695Y-17895238D02*
X7245219Y-17876190D01*
X7245219Y-17876190D02*
X7254743Y-17866667D01*
X7254743Y-17866667D02*
X7273791Y-17857143D01*
X7273791Y-17857143D02*
X7311886Y-17857143D01*
X7311886Y-17857143D02*
X7330934Y-17866667D01*
X7407124Y-18066667D02*
X7416648Y-18057143D01*
X7416648Y-18057143D02*
X7435695Y-18028571D01*
X7435695Y-18028571D02*
X7445219Y-18009524D01*
X7445219Y-18009524D02*
X7454743Y-17980952D01*
X7454743Y-17980952D02*
X7464267Y-17933333D01*
X7464267Y-17933333D02*
X7464267Y-17895238D01*
X7464267Y-17895238D02*
X7454743Y-17847619D01*
X7454743Y-17847619D02*
X7445219Y-17819048D01*
X7445219Y-17819048D02*
X7435695Y-17800000D01*
X7435695Y-17800000D02*
X7416648Y-17771429D01*
X7416648Y-17771429D02*
X7407124Y-17761905D01*
X477600Y-18212000D02*
G75*
G03*
X477600Y-18212000I-100000J0D01*
G01*
X810933Y-18152143D02*
X810933Y-18285476D01*
X763314Y-18075952D02*
X715695Y-18218810D01*
X715695Y-18218810D02*
X839505Y-18218810D01*
X915695Y-18266429D02*
X925219Y-18275952D01*
X925219Y-18275952D02*
X915695Y-18285476D01*
X915695Y-18285476D02*
X906171Y-18275952D01*
X906171Y-18275952D02*
X915695Y-18266429D01*
X915695Y-18266429D02*
X915695Y-18285476D01*
X1049029Y-18085476D02*
X1068076Y-18085476D01*
X1068076Y-18085476D02*
X1087124Y-18095000D01*
X1087124Y-18095000D02*
X1096648Y-18104524D01*
X1096648Y-18104524D02*
X1106171Y-18123571D01*
X1106171Y-18123571D02*
X1115695Y-18161667D01*
X1115695Y-18161667D02*
X1115695Y-18209286D01*
X1115695Y-18209286D02*
X1106171Y-18247381D01*
X1106171Y-18247381D02*
X1096648Y-18266429D01*
X1096648Y-18266429D02*
X1087124Y-18275952D01*
X1087124Y-18275952D02*
X1068076Y-18285476D01*
X1068076Y-18285476D02*
X1049029Y-18285476D01*
X1049029Y-18285476D02*
X1029981Y-18275952D01*
X1029981Y-18275952D02*
X1020457Y-18266429D01*
X1020457Y-18266429D02*
X1010933Y-18247381D01*
X1010933Y-18247381D02*
X1001409Y-18209286D01*
X1001409Y-18209286D02*
X1001409Y-18161667D01*
X1001409Y-18161667D02*
X1010933Y-18123571D01*
X1010933Y-18123571D02*
X1020457Y-18104524D01*
X1020457Y-18104524D02*
X1029981Y-18095000D01*
X1029981Y-18095000D02*
X1049029Y-18085476D01*
X1239505Y-18085476D02*
X1258552Y-18085476D01*
X1258552Y-18085476D02*
X1277600Y-18095000D01*
X1277600Y-18095000D02*
X1287124Y-18104524D01*
X1287124Y-18104524D02*
X1296648Y-18123571D01*
X1296648Y-18123571D02*
X1306171Y-18161667D01*
X1306171Y-18161667D02*
X1306171Y-18209286D01*
X1306171Y-18209286D02*
X1296648Y-18247381D01*
X1296648Y-18247381D02*
X1287124Y-18266429D01*
X1287124Y-18266429D02*
X1277600Y-18275952D01*
X1277600Y-18275952D02*
X1258552Y-18285476D01*
X1258552Y-18285476D02*
X1239505Y-18285476D01*
X1239505Y-18285476D02*
X1220457Y-18275952D01*
X1220457Y-18275952D02*
X1210933Y-18266429D01*
X1210933Y-18266429D02*
X1201410Y-18247381D01*
X1201410Y-18247381D02*
X1191886Y-18209286D01*
X1191886Y-18209286D02*
X1191886Y-18161667D01*
X1191886Y-18161667D02*
X1201410Y-18123571D01*
X1201410Y-18123571D02*
X1210933Y-18104524D01*
X1210933Y-18104524D02*
X1220457Y-18095000D01*
X1220457Y-18095000D02*
X1239505Y-18085476D01*
X1429981Y-18085476D02*
X1449029Y-18085476D01*
X1449029Y-18085476D02*
X1468076Y-18095000D01*
X1468076Y-18095000D02*
X1477600Y-18104524D01*
X1477600Y-18104524D02*
X1487124Y-18123571D01*
X1487124Y-18123571D02*
X1496648Y-18161667D01*
X1496648Y-18161667D02*
X1496648Y-18209286D01*
X1496648Y-18209286D02*
X1487124Y-18247381D01*
X1487124Y-18247381D02*
X1477600Y-18266429D01*
X1477600Y-18266429D02*
X1468076Y-18275952D01*
X1468076Y-18275952D02*
X1449029Y-18285476D01*
X1449029Y-18285476D02*
X1429981Y-18285476D01*
X1429981Y-18285476D02*
X1410933Y-18275952D01*
X1410933Y-18275952D02*
X1401409Y-18266429D01*
X1401409Y-18266429D02*
X1391886Y-18247381D01*
X1391886Y-18247381D02*
X1382362Y-18209286D01*
X1382362Y-18209286D02*
X1382362Y-18161667D01*
X1382362Y-18161667D02*
X1391886Y-18123571D01*
X1391886Y-18123571D02*
X1401409Y-18104524D01*
X1401409Y-18104524D02*
X1410933Y-18095000D01*
X1410933Y-18095000D02*
X1429981Y-18085476D01*
X1582362Y-18285476D02*
X1582362Y-18152143D01*
X1582362Y-18171190D02*
X1591886Y-18161667D01*
X1591886Y-18161667D02*
X1610933Y-18152143D01*
X1610933Y-18152143D02*
X1639505Y-18152143D01*
X1639505Y-18152143D02*
X1658552Y-18161667D01*
X1658552Y-18161667D02*
X1668076Y-18180714D01*
X1668076Y-18180714D02*
X1668076Y-18285476D01*
X1668076Y-18180714D02*
X1677600Y-18161667D01*
X1677600Y-18161667D02*
X1696648Y-18152143D01*
X1696648Y-18152143D02*
X1725219Y-18152143D01*
X1725219Y-18152143D02*
X1744267Y-18161667D01*
X1744267Y-18161667D02*
X1753790Y-18180714D01*
X1753790Y-18180714D02*
X1753790Y-18285476D01*
X1849029Y-18285476D02*
X1849029Y-18152143D01*
X1849029Y-18171190D02*
X1858552Y-18161667D01*
X1858552Y-18161667D02*
X1877600Y-18152143D01*
X1877600Y-18152143D02*
X1906171Y-18152143D01*
X1906171Y-18152143D02*
X1925219Y-18161667D01*
X1925219Y-18161667D02*
X1934743Y-18180714D01*
X1934743Y-18180714D02*
X1934743Y-18285476D01*
X1934743Y-18180714D02*
X1944267Y-18161667D01*
X1944267Y-18161667D02*
X1963314Y-18152143D01*
X1963314Y-18152143D02*
X1991886Y-18152143D01*
X1991886Y-18152143D02*
X2010933Y-18161667D01*
X2010933Y-18161667D02*
X2020457Y-18180714D01*
X2020457Y-18180714D02*
X2020457Y-18285476D01*
X2378552Y-18075952D02*
X2207124Y-18333095D01*
X2603314Y-18085476D02*
X2622362Y-18085476D01*
X2622362Y-18085476D02*
X2641410Y-18095000D01*
X2641410Y-18095000D02*
X2650933Y-18104524D01*
X2650933Y-18104524D02*
X2660457Y-18123571D01*
X2660457Y-18123571D02*
X2669981Y-18161667D01*
X2669981Y-18161667D02*
X2669981Y-18209286D01*
X2669981Y-18209286D02*
X2660457Y-18247381D01*
X2660457Y-18247381D02*
X2650933Y-18266429D01*
X2650933Y-18266429D02*
X2641410Y-18275952D01*
X2641410Y-18275952D02*
X2622362Y-18285476D01*
X2622362Y-18285476D02*
X2603314Y-18285476D01*
X2603314Y-18285476D02*
X2584267Y-18275952D01*
X2584267Y-18275952D02*
X2574743Y-18266429D01*
X2574743Y-18266429D02*
X2565219Y-18247381D01*
X2565219Y-18247381D02*
X2555695Y-18209286D01*
X2555695Y-18209286D02*
X2555695Y-18161667D01*
X2555695Y-18161667D02*
X2565219Y-18123571D01*
X2565219Y-18123571D02*
X2574743Y-18104524D01*
X2574743Y-18104524D02*
X2584267Y-18095000D01*
X2584267Y-18095000D02*
X2603314Y-18085476D01*
X2755695Y-18266429D02*
X2765219Y-18275952D01*
X2765219Y-18275952D02*
X2755695Y-18285476D01*
X2755695Y-18285476D02*
X2746172Y-18275952D01*
X2746172Y-18275952D02*
X2755695Y-18266429D01*
X2755695Y-18266429D02*
X2755695Y-18285476D01*
X2955695Y-18285476D02*
X2841410Y-18285476D01*
X2898552Y-18285476D02*
X2898552Y-18085476D01*
X2898552Y-18085476D02*
X2879505Y-18114048D01*
X2879505Y-18114048D02*
X2860457Y-18133095D01*
X2860457Y-18133095D02*
X2841410Y-18142619D01*
X3136648Y-18085476D02*
X3041410Y-18085476D01*
X3041410Y-18085476D02*
X3031886Y-18180714D01*
X3031886Y-18180714D02*
X3041410Y-18171190D01*
X3041410Y-18171190D02*
X3060457Y-18161667D01*
X3060457Y-18161667D02*
X3108076Y-18161667D01*
X3108076Y-18161667D02*
X3127124Y-18171190D01*
X3127124Y-18171190D02*
X3136648Y-18180714D01*
X3136648Y-18180714D02*
X3146171Y-18199762D01*
X3146171Y-18199762D02*
X3146171Y-18247381D01*
X3146171Y-18247381D02*
X3136648Y-18266429D01*
X3136648Y-18266429D02*
X3127124Y-18275952D01*
X3127124Y-18275952D02*
X3108076Y-18285476D01*
X3108076Y-18285476D02*
X3060457Y-18285476D01*
X3060457Y-18285476D02*
X3041410Y-18275952D01*
X3041410Y-18275952D02*
X3031886Y-18266429D01*
X3212838Y-18085476D02*
X3346171Y-18085476D01*
X3346171Y-18085476D02*
X3260457Y-18285476D01*
X3517600Y-18085476D02*
X3422362Y-18085476D01*
X3422362Y-18085476D02*
X3412838Y-18180714D01*
X3412838Y-18180714D02*
X3422362Y-18171190D01*
X3422362Y-18171190D02*
X3441410Y-18161667D01*
X3441410Y-18161667D02*
X3489029Y-18161667D01*
X3489029Y-18161667D02*
X3508076Y-18171190D01*
X3508076Y-18171190D02*
X3517600Y-18180714D01*
X3517600Y-18180714D02*
X3527124Y-18199762D01*
X3527124Y-18199762D02*
X3527124Y-18247381D01*
X3527124Y-18247381D02*
X3517600Y-18266429D01*
X3517600Y-18266429D02*
X3508076Y-18275952D01*
X3508076Y-18275952D02*
X3489029Y-18285476D01*
X3489029Y-18285476D02*
X3441410Y-18285476D01*
X3441410Y-18285476D02*
X3422362Y-18275952D01*
X3422362Y-18275952D02*
X3412838Y-18266429D01*
X3603314Y-18085476D02*
X3603314Y-18123571D01*
X3679505Y-18085476D02*
X3679505Y-18123571D01*
X3942362Y-18361667D02*
X3932838Y-18352143D01*
X3932838Y-18352143D02*
X3913791Y-18323571D01*
X3913791Y-18323571D02*
X3904267Y-18304524D01*
X3904267Y-18304524D02*
X3894743Y-18275952D01*
X3894743Y-18275952D02*
X3885219Y-18228333D01*
X3885219Y-18228333D02*
X3885219Y-18190238D01*
X3885219Y-18190238D02*
X3894743Y-18142619D01*
X3894743Y-18142619D02*
X3904267Y-18114048D01*
X3904267Y-18114048D02*
X3913791Y-18095000D01*
X3913791Y-18095000D02*
X3932838Y-18066429D01*
X3932838Y-18066429D02*
X3942362Y-18056905D01*
X3999505Y-18085476D02*
X4132838Y-18085476D01*
X4132838Y-18085476D02*
X4047124Y-18285476D01*
X4237600Y-18171190D02*
X4218553Y-18161667D01*
X4218553Y-18161667D02*
X4209029Y-18152143D01*
X4209029Y-18152143D02*
X4199505Y-18133095D01*
X4199505Y-18133095D02*
X4199505Y-18123571D01*
X4199505Y-18123571D02*
X4209029Y-18104524D01*
X4209029Y-18104524D02*
X4218553Y-18095000D01*
X4218553Y-18095000D02*
X4237600Y-18085476D01*
X4237600Y-18085476D02*
X4275695Y-18085476D01*
X4275695Y-18085476D02*
X4294743Y-18095000D01*
X4294743Y-18095000D02*
X4304267Y-18104524D01*
X4304267Y-18104524D02*
X4313791Y-18123571D01*
X4313791Y-18123571D02*
X4313791Y-18133095D01*
X4313791Y-18133095D02*
X4304267Y-18152143D01*
X4304267Y-18152143D02*
X4294743Y-18161667D01*
X4294743Y-18161667D02*
X4275695Y-18171190D01*
X4275695Y-18171190D02*
X4237600Y-18171190D01*
X4237600Y-18171190D02*
X4218553Y-18180714D01*
X4218553Y-18180714D02*
X4209029Y-18190238D01*
X4209029Y-18190238D02*
X4199505Y-18209286D01*
X4199505Y-18209286D02*
X4199505Y-18247381D01*
X4199505Y-18247381D02*
X4209029Y-18266429D01*
X4209029Y-18266429D02*
X4218553Y-18275952D01*
X4218553Y-18275952D02*
X4237600Y-18285476D01*
X4237600Y-18285476D02*
X4275695Y-18285476D01*
X4275695Y-18285476D02*
X4294743Y-18275952D01*
X4294743Y-18275952D02*
X4304267Y-18266429D01*
X4304267Y-18266429D02*
X4313791Y-18247381D01*
X4313791Y-18247381D02*
X4313791Y-18209286D01*
X4313791Y-18209286D02*
X4304267Y-18190238D01*
X4304267Y-18190238D02*
X4294743Y-18180714D01*
X4294743Y-18180714D02*
X4275695Y-18171190D01*
X4519505Y-18285476D02*
X4519505Y-18085476D01*
X4605219Y-18285476D02*
X4605219Y-18180714D01*
X4605219Y-18180714D02*
X4595695Y-18161667D01*
X4595695Y-18161667D02*
X4576648Y-18152143D01*
X4576648Y-18152143D02*
X4548076Y-18152143D01*
X4548076Y-18152143D02*
X4529029Y-18161667D01*
X4529029Y-18161667D02*
X4519505Y-18171190D01*
X4729029Y-18285476D02*
X4709981Y-18275952D01*
X4709981Y-18275952D02*
X4700457Y-18266429D01*
X4700457Y-18266429D02*
X4690934Y-18247381D01*
X4690934Y-18247381D02*
X4690934Y-18190238D01*
X4690934Y-18190238D02*
X4700457Y-18171190D01*
X4700457Y-18171190D02*
X4709981Y-18161667D01*
X4709981Y-18161667D02*
X4729029Y-18152143D01*
X4729029Y-18152143D02*
X4757600Y-18152143D01*
X4757600Y-18152143D02*
X4776648Y-18161667D01*
X4776648Y-18161667D02*
X4786172Y-18171190D01*
X4786172Y-18171190D02*
X4795695Y-18190238D01*
X4795695Y-18190238D02*
X4795695Y-18247381D01*
X4795695Y-18247381D02*
X4786172Y-18266429D01*
X4786172Y-18266429D02*
X4776648Y-18275952D01*
X4776648Y-18275952D02*
X4757600Y-18285476D01*
X4757600Y-18285476D02*
X4729029Y-18285476D01*
X4909981Y-18285476D02*
X4890934Y-18275952D01*
X4890934Y-18275952D02*
X4881410Y-18256905D01*
X4881410Y-18256905D02*
X4881410Y-18085476D01*
X5062362Y-18275952D02*
X5043315Y-18285476D01*
X5043315Y-18285476D02*
X5005219Y-18285476D01*
X5005219Y-18285476D02*
X4986172Y-18275952D01*
X4986172Y-18275952D02*
X4976648Y-18256905D01*
X4976648Y-18256905D02*
X4976648Y-18180714D01*
X4976648Y-18180714D02*
X4986172Y-18161667D01*
X4986172Y-18161667D02*
X5005219Y-18152143D01*
X5005219Y-18152143D02*
X5043315Y-18152143D01*
X5043315Y-18152143D02*
X5062362Y-18161667D01*
X5062362Y-18161667D02*
X5071886Y-18180714D01*
X5071886Y-18180714D02*
X5071886Y-18199762D01*
X5071886Y-18199762D02*
X4976648Y-18218810D01*
X5148076Y-18275952D02*
X5167124Y-18285476D01*
X5167124Y-18285476D02*
X5205219Y-18285476D01*
X5205219Y-18285476D02*
X5224267Y-18275952D01*
X5224267Y-18275952D02*
X5233791Y-18256905D01*
X5233791Y-18256905D02*
X5233791Y-18247381D01*
X5233791Y-18247381D02*
X5224267Y-18228333D01*
X5224267Y-18228333D02*
X5205219Y-18218810D01*
X5205219Y-18218810D02*
X5176648Y-18218810D01*
X5176648Y-18218810D02*
X5157600Y-18209286D01*
X5157600Y-18209286D02*
X5148076Y-18190238D01*
X5148076Y-18190238D02*
X5148076Y-18180714D01*
X5148076Y-18180714D02*
X5157600Y-18161667D01*
X5157600Y-18161667D02*
X5176648Y-18152143D01*
X5176648Y-18152143D02*
X5205219Y-18152143D01*
X5205219Y-18152143D02*
X5224267Y-18161667D01*
X5300457Y-18361667D02*
X5309981Y-18352143D01*
X5309981Y-18352143D02*
X5329029Y-18323571D01*
X5329029Y-18323571D02*
X5338553Y-18304524D01*
X5338553Y-18304524D02*
X5348076Y-18275952D01*
X5348076Y-18275952D02*
X5357600Y-18228333D01*
X5357600Y-18228333D02*
X5357600Y-18190238D01*
X5357600Y-18190238D02*
X5348076Y-18142619D01*
X5348076Y-18142619D02*
X5338553Y-18114048D01*
X5338553Y-18114048D02*
X5329029Y-18095000D01*
X5329029Y-18095000D02*
X5309981Y-18066429D01*
X5309981Y-18066429D02*
X5300457Y-18056905D01*
X5629981Y-18361667D02*
X5620457Y-18352143D01*
X5620457Y-18352143D02*
X5601410Y-18323571D01*
X5601410Y-18323571D02*
X5591886Y-18304524D01*
X5591886Y-18304524D02*
X5582362Y-18275952D01*
X5582362Y-18275952D02*
X5572838Y-18228333D01*
X5572838Y-18228333D02*
X5572838Y-18190238D01*
X5572838Y-18190238D02*
X5582362Y-18142619D01*
X5582362Y-18142619D02*
X5591886Y-18114048D01*
X5591886Y-18114048D02*
X5601410Y-18095000D01*
X5601410Y-18095000D02*
X5620457Y-18066429D01*
X5620457Y-18066429D02*
X5629981Y-18056905D01*
X5706172Y-18152143D02*
X5706172Y-18285476D01*
X5706172Y-18171190D02*
X5715695Y-18161667D01*
X5715695Y-18161667D02*
X5734743Y-18152143D01*
X5734743Y-18152143D02*
X5763314Y-18152143D01*
X5763314Y-18152143D02*
X5782362Y-18161667D01*
X5782362Y-18161667D02*
X5791886Y-18180714D01*
X5791886Y-18180714D02*
X5791886Y-18285476D01*
X5915695Y-18285476D02*
X5896648Y-18275952D01*
X5896648Y-18275952D02*
X5887124Y-18266429D01*
X5887124Y-18266429D02*
X5877600Y-18247381D01*
X5877600Y-18247381D02*
X5877600Y-18190238D01*
X5877600Y-18190238D02*
X5887124Y-18171190D01*
X5887124Y-18171190D02*
X5896648Y-18161667D01*
X5896648Y-18161667D02*
X5915695Y-18152143D01*
X5915695Y-18152143D02*
X5944267Y-18152143D01*
X5944267Y-18152143D02*
X5963314Y-18161667D01*
X5963314Y-18161667D02*
X5972838Y-18171190D01*
X5972838Y-18171190D02*
X5982362Y-18190238D01*
X5982362Y-18190238D02*
X5982362Y-18247381D01*
X5982362Y-18247381D02*
X5972838Y-18266429D01*
X5972838Y-18266429D02*
X5963314Y-18275952D01*
X5963314Y-18275952D02*
X5944267Y-18285476D01*
X5944267Y-18285476D02*
X5915695Y-18285476D01*
X6039505Y-18152143D02*
X6115695Y-18152143D01*
X6068076Y-18085476D02*
X6068076Y-18256905D01*
X6068076Y-18256905D02*
X6077600Y-18275952D01*
X6077600Y-18275952D02*
X6096648Y-18285476D01*
X6096648Y-18285476D02*
X6115695Y-18285476D01*
X6302362Y-18152143D02*
X6302362Y-18352143D01*
X6302362Y-18161667D02*
X6321410Y-18152143D01*
X6321410Y-18152143D02*
X6359505Y-18152143D01*
X6359505Y-18152143D02*
X6378553Y-18161667D01*
X6378553Y-18161667D02*
X6388076Y-18171190D01*
X6388076Y-18171190D02*
X6397600Y-18190238D01*
X6397600Y-18190238D02*
X6397600Y-18247381D01*
X6397600Y-18247381D02*
X6388076Y-18266429D01*
X6388076Y-18266429D02*
X6378553Y-18275952D01*
X6378553Y-18275952D02*
X6359505Y-18285476D01*
X6359505Y-18285476D02*
X6321410Y-18285476D01*
X6321410Y-18285476D02*
X6302362Y-18275952D01*
X6511886Y-18285476D02*
X6492838Y-18275952D01*
X6492838Y-18275952D02*
X6483314Y-18256905D01*
X6483314Y-18256905D02*
X6483314Y-18085476D01*
X6673791Y-18285476D02*
X6673791Y-18180714D01*
X6673791Y-18180714D02*
X6664267Y-18161667D01*
X6664267Y-18161667D02*
X6645219Y-18152143D01*
X6645219Y-18152143D02*
X6607124Y-18152143D01*
X6607124Y-18152143D02*
X6588076Y-18161667D01*
X6673791Y-18275952D02*
X6654743Y-18285476D01*
X6654743Y-18285476D02*
X6607124Y-18285476D01*
X6607124Y-18285476D02*
X6588076Y-18275952D01*
X6588076Y-18275952D02*
X6578553Y-18256905D01*
X6578553Y-18256905D02*
X6578553Y-18237857D01*
X6578553Y-18237857D02*
X6588076Y-18218810D01*
X6588076Y-18218810D02*
X6607124Y-18209286D01*
X6607124Y-18209286D02*
X6654743Y-18209286D01*
X6654743Y-18209286D02*
X6673791Y-18199762D01*
X6740457Y-18152143D02*
X6816648Y-18152143D01*
X6769029Y-18085476D02*
X6769029Y-18256905D01*
X6769029Y-18256905D02*
X6778553Y-18275952D01*
X6778553Y-18275952D02*
X6797600Y-18285476D01*
X6797600Y-18285476D02*
X6816648Y-18285476D01*
X6959505Y-18275952D02*
X6940457Y-18285476D01*
X6940457Y-18285476D02*
X6902362Y-18285476D01*
X6902362Y-18285476D02*
X6883314Y-18275952D01*
X6883314Y-18275952D02*
X6873791Y-18256905D01*
X6873791Y-18256905D02*
X6873791Y-18180714D01*
X6873791Y-18180714D02*
X6883314Y-18161667D01*
X6883314Y-18161667D02*
X6902362Y-18152143D01*
X6902362Y-18152143D02*
X6940457Y-18152143D01*
X6940457Y-18152143D02*
X6959505Y-18161667D01*
X6959505Y-18161667D02*
X6969029Y-18180714D01*
X6969029Y-18180714D02*
X6969029Y-18199762D01*
X6969029Y-18199762D02*
X6873791Y-18218810D01*
X7140457Y-18285476D02*
X7140457Y-18085476D01*
X7140457Y-18275952D02*
X7121410Y-18285476D01*
X7121410Y-18285476D02*
X7083314Y-18285476D01*
X7083314Y-18285476D02*
X7064267Y-18275952D01*
X7064267Y-18275952D02*
X7054743Y-18266429D01*
X7054743Y-18266429D02*
X7045219Y-18247381D01*
X7045219Y-18247381D02*
X7045219Y-18190238D01*
X7045219Y-18190238D02*
X7054743Y-18171190D01*
X7054743Y-18171190D02*
X7064267Y-18161667D01*
X7064267Y-18161667D02*
X7083314Y-18152143D01*
X7083314Y-18152143D02*
X7121410Y-18152143D01*
X7121410Y-18152143D02*
X7140457Y-18161667D01*
X7216648Y-18361667D02*
X7226172Y-18352143D01*
X7226172Y-18352143D02*
X7245219Y-18323571D01*
X7245219Y-18323571D02*
X7254743Y-18304524D01*
X7254743Y-18304524D02*
X7264267Y-18275952D01*
X7264267Y-18275952D02*
X7273791Y-18228333D01*
X7273791Y-18228333D02*
X7273791Y-18190238D01*
X7273791Y-18190238D02*
X7264267Y-18142619D01*
X7264267Y-18142619D02*
X7254743Y-18114048D01*
X7254743Y-18114048D02*
X7245219Y-18095000D01*
X7245219Y-18095000D02*
X7226172Y-18066429D01*
X7226172Y-18066429D02*
X7216648Y-18056905D01*
M02*
