G04 #@! TF.GenerationSoftware,KiCad,Pcbnew,(6.99.0-1603-g82820d4b1c)*
G04 #@! TF.CreationDate,2022-06-17T11:00:42+02:00*
G04 #@! TF.ProjectId,BalthazarKeyboard3-keycaps,42616c74-6861-47a6-9172-4b6579626f61,rev?*
G04 #@! TF.SameCoordinates,Original*
G04 #@! TF.FileFunction,Paste,Bot*
G04 #@! TF.FilePolarity,Positive*
%FSLAX46Y46*%
G04 Gerber Fmt 4.6, Leading zero omitted, Abs format (unit mm)*
G04 Created by KiCad (PCBNEW (6.99.0-1603-g82820d4b1c)) date 2022-06-17 11:00:42*
%MOMM*%
%LPD*%
G01*
G04 APERTURE LIST*
G04 Aperture macros list*
%AMRoundRect*
0 Rectangle with rounded corners*
0 $1 Rounding radius*
0 $2 $3 $4 $5 $6 $7 $8 $9 X,Y pos of 4 corners*
0 Add a 4 corners polygon primitive as box body*
4,1,4,$2,$3,$4,$5,$6,$7,$8,$9,$2,$3,0*
0 Add four circle primitives for the rounded corners*
1,1,$1+$1,$2,$3*
1,1,$1+$1,$4,$5*
1,1,$1+$1,$6,$7*
1,1,$1+$1,$8,$9*
0 Add four rect primitives between the rounded corners*
20,1,$1+$1,$2,$3,$4,$5,0*
20,1,$1+$1,$4,$5,$6,$7,0*
20,1,$1+$1,$6,$7,$8,$9,0*
20,1,$1+$1,$8,$9,$2,$3,0*%
%AMRotRect*
0 Rectangle, with rotation*
0 The origin of the aperture is its center*
0 $1 length*
0 $2 width*
0 $3 Rotation angle, in degrees counterclockwise*
0 Add horizontal line*
21,1,$1,$2,0,0,$3*%
G04 Aperture macros list end*
%ADD10C,0.150000*%
%ADD11C,0.120000*%
%ADD12R,0.550000X1.500000*%
%ADD13R,1.500000X0.550000*%
%ADD14R,1.500000X1.900000*%
%ADD15R,0.400000X1.350000*%
%ADD16RoundRect,0.250000X-0.375000X-0.625000X0.375000X-0.625000X0.375000X0.625000X-0.375000X0.625000X0*%
%ADD17RoundRect,0.250000X0.375000X0.625000X-0.375000X0.625000X-0.375000X-0.625000X0.375000X-0.625000X0*%
%ADD18RoundRect,0.250000X0.625000X-0.375000X0.625000X0.375000X-0.625000X0.375000X-0.625000X-0.375000X0*%
%ADD19RoundRect,0.250000X-0.625000X0.375000X-0.625000X-0.375000X0.625000X-0.375000X0.625000X0.375000X0*%
%ADD20RotRect,1.430000X2.850000X315.000000*%
%ADD21RoundRect,0.250000X-0.176777X0.707107X-0.707107X0.176777X0.176777X-0.707107X0.707107X-0.176777X0*%
%ADD22R,1.500000X1.500000*%
%ADD23RoundRect,0.243750X-0.494975X-0.150260X-0.150260X-0.494975X0.494975X0.150260X0.150260X0.494975X0*%
%ADD24RoundRect,0.243750X0.150260X-0.494975X0.494975X-0.150260X-0.150260X0.494975X-0.494975X0.150260X0*%
G04 APERTURE END LIST*
D10*
X144799715Y-174080619D02*
X144847334Y-174033000D01*
X144847334Y-174033000D02*
X144942572Y-173985380D01*
X144942572Y-173985380D02*
X145180667Y-173985380D01*
X145180667Y-173985380D02*
X145275905Y-174033000D01*
X145275905Y-174033000D02*
X145323524Y-174080619D01*
X145323524Y-174080619D02*
X145371143Y-174175857D01*
X145371143Y-174175857D02*
X145371143Y-174271095D01*
X145371143Y-174271095D02*
X145323524Y-174413952D01*
X145323524Y-174413952D02*
X144752096Y-174985380D01*
X144752096Y-174985380D02*
X145371143Y-174985380D01*
X145847334Y-174985380D02*
X146037810Y-174985380D01*
X146037810Y-174985380D02*
X146133048Y-174937761D01*
X146133048Y-174937761D02*
X146180667Y-174890142D01*
X146180667Y-174890142D02*
X146275905Y-174747285D01*
X146275905Y-174747285D02*
X146323524Y-174556809D01*
X146323524Y-174556809D02*
X146323524Y-174175857D01*
X146323524Y-174175857D02*
X146275905Y-174080619D01*
X146275905Y-174080619D02*
X146228286Y-174033000D01*
X146228286Y-174033000D02*
X146133048Y-173985380D01*
X146133048Y-173985380D02*
X145942572Y-173985380D01*
X145942572Y-173985380D02*
X145847334Y-174033000D01*
X145847334Y-174033000D02*
X145799715Y-174080619D01*
X145799715Y-174080619D02*
X145752096Y-174175857D01*
X145752096Y-174175857D02*
X145752096Y-174413952D01*
X145752096Y-174413952D02*
X145799715Y-174509190D01*
X145799715Y-174509190D02*
X145847334Y-174556809D01*
X145847334Y-174556809D02*
X145942572Y-174604428D01*
X145942572Y-174604428D02*
X146133048Y-174604428D01*
X146133048Y-174604428D02*
X146228286Y-174556809D01*
X146228286Y-174556809D02*
X146275905Y-174509190D01*
X146275905Y-174509190D02*
X146323524Y-174413952D01*
X146942572Y-173985380D02*
X147037810Y-173985380D01*
X147037810Y-173985380D02*
X147133048Y-174033000D01*
X147133048Y-174033000D02*
X147180667Y-174080619D01*
X147180667Y-174080619D02*
X147228286Y-174175857D01*
X147228286Y-174175857D02*
X147275905Y-174366333D01*
X147275905Y-174366333D02*
X147275905Y-174604428D01*
X147275905Y-174604428D02*
X147228286Y-174794904D01*
X147228286Y-174794904D02*
X147180667Y-174890142D01*
X147180667Y-174890142D02*
X147133048Y-174937761D01*
X147133048Y-174937761D02*
X147037810Y-174985380D01*
X147037810Y-174985380D02*
X146942572Y-174985380D01*
X146942572Y-174985380D02*
X146847334Y-174937761D01*
X146847334Y-174937761D02*
X146799715Y-174890142D01*
X146799715Y-174890142D02*
X146752096Y-174794904D01*
X146752096Y-174794904D02*
X146704477Y-174604428D01*
X146704477Y-174604428D02*
X146704477Y-174366333D01*
X146704477Y-174366333D02*
X146752096Y-174175857D01*
X146752096Y-174175857D02*
X146799715Y-174080619D01*
X146799715Y-174080619D02*
X146847334Y-174033000D01*
X146847334Y-174033000D02*
X146942572Y-173985380D01*
X147704477Y-174890142D02*
X147752096Y-174937761D01*
X147752096Y-174937761D02*
X147704477Y-174985380D01*
X147704477Y-174985380D02*
X147656858Y-174937761D01*
X147656858Y-174937761D02*
X147704477Y-174890142D01*
X147704477Y-174890142D02*
X147704477Y-174985380D01*
X148656857Y-173985380D02*
X148180667Y-173985380D01*
X148180667Y-173985380D02*
X148133048Y-174461571D01*
X148133048Y-174461571D02*
X148180667Y-174413952D01*
X148180667Y-174413952D02*
X148275905Y-174366333D01*
X148275905Y-174366333D02*
X148514000Y-174366333D01*
X148514000Y-174366333D02*
X148609238Y-174413952D01*
X148609238Y-174413952D02*
X148656857Y-174461571D01*
X148656857Y-174461571D02*
X148704476Y-174556809D01*
X148704476Y-174556809D02*
X148704476Y-174794904D01*
X148704476Y-174794904D02*
X148656857Y-174890142D01*
X148656857Y-174890142D02*
X148609238Y-174937761D01*
X148609238Y-174937761D02*
X148514000Y-174985380D01*
X148514000Y-174985380D02*
X148275905Y-174985380D01*
X148275905Y-174985380D02*
X148180667Y-174937761D01*
X148180667Y-174937761D02*
X148133048Y-174890142D01*
X149037810Y-173985380D02*
X149704476Y-173985380D01*
X149704476Y-173985380D02*
X149275905Y-174985380D01*
X150514000Y-173985380D02*
X150323524Y-173985380D01*
X150323524Y-173985380D02*
X150228286Y-174033000D01*
X150228286Y-174033000D02*
X150180667Y-174080619D01*
X150180667Y-174080619D02*
X150085429Y-174223476D01*
X150085429Y-174223476D02*
X150037810Y-174413952D01*
X150037810Y-174413952D02*
X150037810Y-174794904D01*
X150037810Y-174794904D02*
X150085429Y-174890142D01*
X150085429Y-174890142D02*
X150133048Y-174937761D01*
X150133048Y-174937761D02*
X150228286Y-174985380D01*
X150228286Y-174985380D02*
X150418762Y-174985380D01*
X150418762Y-174985380D02*
X150514000Y-174937761D01*
X150514000Y-174937761D02*
X150561619Y-174890142D01*
X150561619Y-174890142D02*
X150609238Y-174794904D01*
X150609238Y-174794904D02*
X150609238Y-174556809D01*
X150609238Y-174556809D02*
X150561619Y-174461571D01*
X150561619Y-174461571D02*
X150514000Y-174413952D01*
X150514000Y-174413952D02*
X150418762Y-174366333D01*
X150418762Y-174366333D02*
X150228286Y-174366333D01*
X150228286Y-174366333D02*
X150133048Y-174413952D01*
X150133048Y-174413952D02*
X150085429Y-174461571D01*
X150085429Y-174461571D02*
X150037810Y-174556809D01*
X151228286Y-173985380D02*
X151323524Y-173985380D01*
X151323524Y-173985380D02*
X151418762Y-174033000D01*
X151418762Y-174033000D02*
X151466381Y-174080619D01*
X151466381Y-174080619D02*
X151514000Y-174175857D01*
X151514000Y-174175857D02*
X151561619Y-174366333D01*
X151561619Y-174366333D02*
X151561619Y-174604428D01*
X151561619Y-174604428D02*
X151514000Y-174794904D01*
X151514000Y-174794904D02*
X151466381Y-174890142D01*
X151466381Y-174890142D02*
X151418762Y-174937761D01*
X151418762Y-174937761D02*
X151323524Y-174985380D01*
X151323524Y-174985380D02*
X151228286Y-174985380D01*
X151228286Y-174985380D02*
X151133048Y-174937761D01*
X151133048Y-174937761D02*
X151085429Y-174890142D01*
X151085429Y-174890142D02*
X151037810Y-174794904D01*
X151037810Y-174794904D02*
X150990191Y-174604428D01*
X150990191Y-174604428D02*
X150990191Y-174366333D01*
X150990191Y-174366333D02*
X151037810Y-174175857D01*
X151037810Y-174175857D02*
X151085429Y-174080619D01*
X151085429Y-174080619D02*
X151133048Y-174033000D01*
X151133048Y-174033000D02*
X151228286Y-173985380D01*
X153190191Y-174985380D02*
X153190191Y-174318714D01*
X153190191Y-174413952D02*
X153237810Y-174366333D01*
X153237810Y-174366333D02*
X153333048Y-174318714D01*
X153333048Y-174318714D02*
X153475905Y-174318714D01*
X153475905Y-174318714D02*
X153571143Y-174366333D01*
X153571143Y-174366333D02*
X153618762Y-174461571D01*
X153618762Y-174461571D02*
X153618762Y-174985380D01*
X153618762Y-174461571D02*
X153666381Y-174366333D01*
X153666381Y-174366333D02*
X153761619Y-174318714D01*
X153761619Y-174318714D02*
X153904476Y-174318714D01*
X153904476Y-174318714D02*
X153999715Y-174366333D01*
X153999715Y-174366333D02*
X154047334Y-174461571D01*
X154047334Y-174461571D02*
X154047334Y-174985380D01*
X154523524Y-174985380D02*
X154523524Y-174318714D01*
X154523524Y-174413952D02*
X154571143Y-174366333D01*
X154571143Y-174366333D02*
X154666381Y-174318714D01*
X154666381Y-174318714D02*
X154809238Y-174318714D01*
X154809238Y-174318714D02*
X154904476Y-174366333D01*
X154904476Y-174366333D02*
X154952095Y-174461571D01*
X154952095Y-174461571D02*
X154952095Y-174985380D01*
X154952095Y-174461571D02*
X154999714Y-174366333D01*
X154999714Y-174366333D02*
X155094952Y-174318714D01*
X155094952Y-174318714D02*
X155237809Y-174318714D01*
X155237809Y-174318714D02*
X155333048Y-174366333D01*
X155333048Y-174366333D02*
X155380667Y-174461571D01*
X155380667Y-174461571D02*
X155380667Y-174985380D01*
D11*
X295402000Y-175006000D02*
X295402000Y-176354420D01*
X4826000Y-175006000D02*
X4826000Y-176354420D01*
X295402000Y-175768000D02*
X4826000Y-175768000D01*
X295402000Y-175768000D02*
X4826000Y-175768000D01*
X295402000Y-175768000D02*
X294275496Y-176354421D01*
X295402000Y-175768000D02*
X294275496Y-175181579D01*
X4826000Y-175768000D02*
X5952504Y-175181579D01*
X4826000Y-175768000D02*
X5952504Y-176354421D01*
D10*
X120096714Y-44632476D02*
X120906238Y-44632476D01*
X120906238Y-44632476D02*
X121001476Y-44680095D01*
X121001476Y-44680095D02*
X121049095Y-44727714D01*
X121049095Y-44727714D02*
X121096714Y-44822952D01*
X121096714Y-44822952D02*
X121096714Y-44965809D01*
X121096714Y-44965809D02*
X121049095Y-45061047D01*
X120715761Y-44632476D02*
X120763380Y-44727714D01*
X120763380Y-44727714D02*
X120763380Y-44918190D01*
X120763380Y-44918190D02*
X120715761Y-45013428D01*
X120715761Y-45013428D02*
X120668142Y-45061047D01*
X120668142Y-45061047D02*
X120572904Y-45108666D01*
X120572904Y-45108666D02*
X120287190Y-45108666D01*
X120287190Y-45108666D02*
X120191952Y-45061047D01*
X120191952Y-45061047D02*
X120144333Y-45013428D01*
X120144333Y-45013428D02*
X120096714Y-44918190D01*
X120096714Y-44918190D02*
X120096714Y-44727714D01*
X120096714Y-44727714D02*
X120144333Y-44632476D01*
X120096714Y-44156285D02*
X120763380Y-44156285D01*
X120191952Y-44156285D02*
X120144333Y-44108666D01*
X120144333Y-44108666D02*
X120096714Y-44013428D01*
X120096714Y-44013428D02*
X120096714Y-43870571D01*
X120096714Y-43870571D02*
X120144333Y-43775333D01*
X120144333Y-43775333D02*
X120239571Y-43727714D01*
X120239571Y-43727714D02*
X120763380Y-43727714D01*
X120763380Y-42822952D02*
X119763380Y-42822952D01*
X120715761Y-42822952D02*
X120763380Y-42918190D01*
X120763380Y-42918190D02*
X120763380Y-43108666D01*
X120763380Y-43108666D02*
X120715761Y-43203904D01*
X120715761Y-43203904D02*
X120668142Y-43251523D01*
X120668142Y-43251523D02*
X120572904Y-43299142D01*
X120572904Y-43299142D02*
X120287190Y-43299142D01*
X120287190Y-43299142D02*
X120191952Y-43251523D01*
X120191952Y-43251523D02*
X120144333Y-43203904D01*
X120144333Y-43203904D02*
X120096714Y-43108666D01*
X120096714Y-43108666D02*
X120096714Y-42918190D01*
X120096714Y-42918190D02*
X120144333Y-42822952D01*
X122557380Y-44640476D02*
X122557380Y-45116666D01*
X122557380Y-45116666D02*
X123033571Y-45164285D01*
X123033571Y-45164285D02*
X122985952Y-45116666D01*
X122985952Y-45116666D02*
X122938333Y-45021428D01*
X122938333Y-45021428D02*
X122938333Y-44783333D01*
X122938333Y-44783333D02*
X122985952Y-44688095D01*
X122985952Y-44688095D02*
X123033571Y-44640476D01*
X123033571Y-44640476D02*
X123128809Y-44592857D01*
X123128809Y-44592857D02*
X123366904Y-44592857D01*
X123366904Y-44592857D02*
X123462142Y-44640476D01*
X123462142Y-44640476D02*
X123509761Y-44688095D01*
X123509761Y-44688095D02*
X123557380Y-44783333D01*
X123557380Y-44783333D02*
X123557380Y-45021428D01*
X123557380Y-45021428D02*
X123509761Y-45116666D01*
X123509761Y-45116666D02*
X123462142Y-45164285D01*
X122557380Y-44307142D02*
X123557380Y-43973809D01*
X123557380Y-43973809D02*
X122557380Y-43640476D01*
X134241380Y-44894476D02*
X134241380Y-45370666D01*
X134241380Y-45370666D02*
X134717571Y-45418285D01*
X134717571Y-45418285D02*
X134669952Y-45370666D01*
X134669952Y-45370666D02*
X134622333Y-45275428D01*
X134622333Y-45275428D02*
X134622333Y-45037333D01*
X134622333Y-45037333D02*
X134669952Y-44942095D01*
X134669952Y-44942095D02*
X134717571Y-44894476D01*
X134717571Y-44894476D02*
X134812809Y-44846857D01*
X134812809Y-44846857D02*
X135050904Y-44846857D01*
X135050904Y-44846857D02*
X135146142Y-44894476D01*
X135146142Y-44894476D02*
X135193761Y-44942095D01*
X135193761Y-44942095D02*
X135241380Y-45037333D01*
X135241380Y-45037333D02*
X135241380Y-45275428D01*
X135241380Y-45275428D02*
X135193761Y-45370666D01*
X135193761Y-45370666D02*
X135146142Y-45418285D01*
X134241380Y-44561142D02*
X135241380Y-44227809D01*
X135241380Y-44227809D02*
X134241380Y-43894476D01*
X132288714Y-44886476D02*
X133098238Y-44886476D01*
X133098238Y-44886476D02*
X133193476Y-44934095D01*
X133193476Y-44934095D02*
X133241095Y-44981714D01*
X133241095Y-44981714D02*
X133288714Y-45076952D01*
X133288714Y-45076952D02*
X133288714Y-45219809D01*
X133288714Y-45219809D02*
X133241095Y-45315047D01*
X132907761Y-44886476D02*
X132955380Y-44981714D01*
X132955380Y-44981714D02*
X132955380Y-45172190D01*
X132955380Y-45172190D02*
X132907761Y-45267428D01*
X132907761Y-45267428D02*
X132860142Y-45315047D01*
X132860142Y-45315047D02*
X132764904Y-45362666D01*
X132764904Y-45362666D02*
X132479190Y-45362666D01*
X132479190Y-45362666D02*
X132383952Y-45315047D01*
X132383952Y-45315047D02*
X132336333Y-45267428D01*
X132336333Y-45267428D02*
X132288714Y-45172190D01*
X132288714Y-45172190D02*
X132288714Y-44981714D01*
X132288714Y-44981714D02*
X132336333Y-44886476D01*
X132288714Y-44410285D02*
X132955380Y-44410285D01*
X132383952Y-44410285D02*
X132336333Y-44362666D01*
X132336333Y-44362666D02*
X132288714Y-44267428D01*
X132288714Y-44267428D02*
X132288714Y-44124571D01*
X132288714Y-44124571D02*
X132336333Y-44029333D01*
X132336333Y-44029333D02*
X132431571Y-43981714D01*
X132431571Y-43981714D02*
X132955380Y-43981714D01*
X132955380Y-43076952D02*
X131955380Y-43076952D01*
X132907761Y-43076952D02*
X132955380Y-43172190D01*
X132955380Y-43172190D02*
X132955380Y-43362666D01*
X132955380Y-43362666D02*
X132907761Y-43457904D01*
X132907761Y-43457904D02*
X132860142Y-43505523D01*
X132860142Y-43505523D02*
X132764904Y-43553142D01*
X132764904Y-43553142D02*
X132479190Y-43553142D01*
X132479190Y-43553142D02*
X132383952Y-43505523D01*
X132383952Y-43505523D02*
X132336333Y-43457904D01*
X132336333Y-43457904D02*
X132288714Y-43362666D01*
X132288714Y-43362666D02*
X132288714Y-43172190D01*
X132288714Y-43172190D02*
X132336333Y-43076952D01*
X125795761Y-45100761D02*
X125843380Y-45005523D01*
X125843380Y-45005523D02*
X125843380Y-44815047D01*
X125843380Y-44815047D02*
X125795761Y-44719809D01*
X125795761Y-44719809D02*
X125700523Y-44672190D01*
X125700523Y-44672190D02*
X125652904Y-44672190D01*
X125652904Y-44672190D02*
X125557666Y-44719809D01*
X125557666Y-44719809D02*
X125510047Y-44815047D01*
X125510047Y-44815047D02*
X125510047Y-44957904D01*
X125510047Y-44957904D02*
X125462428Y-45053142D01*
X125462428Y-45053142D02*
X125367190Y-45100761D01*
X125367190Y-45100761D02*
X125319571Y-45100761D01*
X125319571Y-45100761D02*
X125224333Y-45053142D01*
X125224333Y-45053142D02*
X125176714Y-44957904D01*
X125176714Y-44957904D02*
X125176714Y-44815047D01*
X125176714Y-44815047D02*
X125224333Y-44719809D01*
X125795761Y-43815047D02*
X125843380Y-43910285D01*
X125843380Y-43910285D02*
X125843380Y-44100761D01*
X125843380Y-44100761D02*
X125795761Y-44195999D01*
X125795761Y-44195999D02*
X125748142Y-44243618D01*
X125748142Y-44243618D02*
X125652904Y-44291237D01*
X125652904Y-44291237D02*
X125367190Y-44291237D01*
X125367190Y-44291237D02*
X125271952Y-44243618D01*
X125271952Y-44243618D02*
X125224333Y-44195999D01*
X125224333Y-44195999D02*
X125176714Y-44100761D01*
X125176714Y-44100761D02*
X125176714Y-43910285D01*
X125176714Y-43910285D02*
X125224333Y-43815047D01*
X125843380Y-43243618D02*
X125795761Y-43338856D01*
X125795761Y-43338856D02*
X125700523Y-43386475D01*
X125700523Y-43386475D02*
X124843380Y-43386475D01*
X128589761Y-45061047D02*
X128637380Y-44965809D01*
X128637380Y-44965809D02*
X128637380Y-44775333D01*
X128637380Y-44775333D02*
X128589761Y-44680095D01*
X128589761Y-44680095D02*
X128494523Y-44632476D01*
X128494523Y-44632476D02*
X128446904Y-44632476D01*
X128446904Y-44632476D02*
X128351666Y-44680095D01*
X128351666Y-44680095D02*
X128304047Y-44775333D01*
X128304047Y-44775333D02*
X128304047Y-44918190D01*
X128304047Y-44918190D02*
X128256428Y-45013428D01*
X128256428Y-45013428D02*
X128161190Y-45061047D01*
X128161190Y-45061047D02*
X128113571Y-45061047D01*
X128113571Y-45061047D02*
X128018333Y-45013428D01*
X128018333Y-45013428D02*
X127970714Y-44918190D01*
X127970714Y-44918190D02*
X127970714Y-44775333D01*
X127970714Y-44775333D02*
X128018333Y-44680095D01*
X128637380Y-43775333D02*
X127637380Y-43775333D01*
X128589761Y-43775333D02*
X128637380Y-43870571D01*
X128637380Y-43870571D02*
X128637380Y-44061047D01*
X128637380Y-44061047D02*
X128589761Y-44156285D01*
X128589761Y-44156285D02*
X128542142Y-44203904D01*
X128542142Y-44203904D02*
X128446904Y-44251523D01*
X128446904Y-44251523D02*
X128161190Y-44251523D01*
X128161190Y-44251523D02*
X128065952Y-44203904D01*
X128065952Y-44203904D02*
X128018333Y-44156285D01*
X128018333Y-44156285D02*
X127970714Y-44061047D01*
X127970714Y-44061047D02*
X127970714Y-43870571D01*
X127970714Y-43870571D02*
X128018333Y-43775333D01*
X128637380Y-42870571D02*
X128113571Y-42870571D01*
X128113571Y-42870571D02*
X128018333Y-42918190D01*
X128018333Y-42918190D02*
X127970714Y-43013428D01*
X127970714Y-43013428D02*
X127970714Y-43203904D01*
X127970714Y-43203904D02*
X128018333Y-43299142D01*
X128589761Y-42870571D02*
X128637380Y-42965809D01*
X128637380Y-42965809D02*
X128637380Y-43203904D01*
X128637380Y-43203904D02*
X128589761Y-43299142D01*
X128589761Y-43299142D02*
X128494523Y-43346761D01*
X128494523Y-43346761D02*
X128399285Y-43346761D01*
X128399285Y-43346761D02*
X128304047Y-43299142D01*
X128304047Y-43299142D02*
X128256428Y-43203904D01*
X128256428Y-43203904D02*
X128256428Y-42965809D01*
X128256428Y-42965809D02*
X128208809Y-42870571D01*
X143115380Y-45465808D02*
X142448714Y-45465808D01*
X142543952Y-45465808D02*
X142496333Y-45418189D01*
X142496333Y-45418189D02*
X142448714Y-45322951D01*
X142448714Y-45322951D02*
X142448714Y-45180094D01*
X142448714Y-45180094D02*
X142496333Y-45084856D01*
X142496333Y-45084856D02*
X142591571Y-45037237D01*
X142591571Y-45037237D02*
X143115380Y-45037237D01*
X142591571Y-45037237D02*
X142496333Y-44989618D01*
X142496333Y-44989618D02*
X142448714Y-44894380D01*
X142448714Y-44894380D02*
X142448714Y-44751523D01*
X142448714Y-44751523D02*
X142496333Y-44656284D01*
X142496333Y-44656284D02*
X142591571Y-44608665D01*
X142591571Y-44608665D02*
X143115380Y-44608665D01*
X143115380Y-44132475D02*
X142448714Y-44132475D01*
X142115380Y-44132475D02*
X142163000Y-44180094D01*
X142163000Y-44180094D02*
X142210619Y-44132475D01*
X142210619Y-44132475D02*
X142163000Y-44084856D01*
X142163000Y-44084856D02*
X142115380Y-44132475D01*
X142115380Y-44132475D02*
X142210619Y-44132475D01*
X143067761Y-43703904D02*
X143115380Y-43608666D01*
X143115380Y-43608666D02*
X143115380Y-43418190D01*
X143115380Y-43418190D02*
X143067761Y-43322952D01*
X143067761Y-43322952D02*
X142972523Y-43275333D01*
X142972523Y-43275333D02*
X142924904Y-43275333D01*
X142924904Y-43275333D02*
X142829666Y-43322952D01*
X142829666Y-43322952D02*
X142782047Y-43418190D01*
X142782047Y-43418190D02*
X142782047Y-43561047D01*
X142782047Y-43561047D02*
X142734428Y-43656285D01*
X142734428Y-43656285D02*
X142639190Y-43703904D01*
X142639190Y-43703904D02*
X142591571Y-43703904D01*
X142591571Y-43703904D02*
X142496333Y-43656285D01*
X142496333Y-43656285D02*
X142448714Y-43561047D01*
X142448714Y-43561047D02*
X142448714Y-43418190D01*
X142448714Y-43418190D02*
X142496333Y-43322952D01*
X143115380Y-42703904D02*
X143067761Y-42799142D01*
X143067761Y-42799142D02*
X143020142Y-42846761D01*
X143020142Y-42846761D02*
X142924904Y-42894380D01*
X142924904Y-42894380D02*
X142639190Y-42894380D01*
X142639190Y-42894380D02*
X142543952Y-42846761D01*
X142543952Y-42846761D02*
X142496333Y-42799142D01*
X142496333Y-42799142D02*
X142448714Y-42703904D01*
X142448714Y-42703904D02*
X142448714Y-42561047D01*
X142448714Y-42561047D02*
X142496333Y-42465809D01*
X142496333Y-42465809D02*
X142543952Y-42418190D01*
X142543952Y-42418190D02*
X142639190Y-42370571D01*
X142639190Y-42370571D02*
X142924904Y-42370571D01*
X142924904Y-42370571D02*
X143020142Y-42418190D01*
X143020142Y-42418190D02*
X143067761Y-42465809D01*
X143067761Y-42465809D02*
X143115380Y-42561047D01*
X143115380Y-42561047D02*
X143115380Y-42703904D01*
X141083380Y-45465808D02*
X140416714Y-45465808D01*
X140511952Y-45465808D02*
X140464333Y-45418189D01*
X140464333Y-45418189D02*
X140416714Y-45322951D01*
X140416714Y-45322951D02*
X140416714Y-45180094D01*
X140416714Y-45180094D02*
X140464333Y-45084856D01*
X140464333Y-45084856D02*
X140559571Y-45037237D01*
X140559571Y-45037237D02*
X141083380Y-45037237D01*
X140559571Y-45037237D02*
X140464333Y-44989618D01*
X140464333Y-44989618D02*
X140416714Y-44894380D01*
X140416714Y-44894380D02*
X140416714Y-44751523D01*
X140416714Y-44751523D02*
X140464333Y-44656284D01*
X140464333Y-44656284D02*
X140559571Y-44608665D01*
X140559571Y-44608665D02*
X141083380Y-44608665D01*
X141083380Y-43989618D02*
X141035761Y-44084856D01*
X141035761Y-44084856D02*
X140988142Y-44132475D01*
X140988142Y-44132475D02*
X140892904Y-44180094D01*
X140892904Y-44180094D02*
X140607190Y-44180094D01*
X140607190Y-44180094D02*
X140511952Y-44132475D01*
X140511952Y-44132475D02*
X140464333Y-44084856D01*
X140464333Y-44084856D02*
X140416714Y-43989618D01*
X140416714Y-43989618D02*
X140416714Y-43846761D01*
X140416714Y-43846761D02*
X140464333Y-43751523D01*
X140464333Y-43751523D02*
X140511952Y-43703904D01*
X140511952Y-43703904D02*
X140607190Y-43656285D01*
X140607190Y-43656285D02*
X140892904Y-43656285D01*
X140892904Y-43656285D02*
X140988142Y-43703904D01*
X140988142Y-43703904D02*
X141035761Y-43751523D01*
X141035761Y-43751523D02*
X141083380Y-43846761D01*
X141083380Y-43846761D02*
X141083380Y-43989618D01*
X141035761Y-43275332D02*
X141083380Y-43180094D01*
X141083380Y-43180094D02*
X141083380Y-42989618D01*
X141083380Y-42989618D02*
X141035761Y-42894380D01*
X141035761Y-42894380D02*
X140940523Y-42846761D01*
X140940523Y-42846761D02*
X140892904Y-42846761D01*
X140892904Y-42846761D02*
X140797666Y-42894380D01*
X140797666Y-42894380D02*
X140750047Y-42989618D01*
X140750047Y-42989618D02*
X140750047Y-43132475D01*
X140750047Y-43132475D02*
X140702428Y-43227713D01*
X140702428Y-43227713D02*
X140607190Y-43275332D01*
X140607190Y-43275332D02*
X140559571Y-43275332D01*
X140559571Y-43275332D02*
X140464333Y-43227713D01*
X140464333Y-43227713D02*
X140416714Y-43132475D01*
X140416714Y-43132475D02*
X140416714Y-42989618D01*
X140416714Y-42989618D02*
X140464333Y-42894380D01*
X141083380Y-42418189D02*
X140416714Y-42418189D01*
X140083380Y-42418189D02*
X140131000Y-42465808D01*
X140131000Y-42465808D02*
X140178619Y-42418189D01*
X140178619Y-42418189D02*
X140131000Y-42370570D01*
X140131000Y-42370570D02*
X140083380Y-42418189D01*
X140083380Y-42418189D02*
X140178619Y-42418189D01*
X139003761Y-45497618D02*
X139051380Y-45402380D01*
X139051380Y-45402380D02*
X139051380Y-45211904D01*
X139051380Y-45211904D02*
X139003761Y-45116666D01*
X139003761Y-45116666D02*
X138908523Y-45069047D01*
X138908523Y-45069047D02*
X138860904Y-45069047D01*
X138860904Y-45069047D02*
X138765666Y-45116666D01*
X138765666Y-45116666D02*
X138718047Y-45211904D01*
X138718047Y-45211904D02*
X138718047Y-45354761D01*
X138718047Y-45354761D02*
X138670428Y-45449999D01*
X138670428Y-45449999D02*
X138575190Y-45497618D01*
X138575190Y-45497618D02*
X138527571Y-45497618D01*
X138527571Y-45497618D02*
X138432333Y-45449999D01*
X138432333Y-45449999D02*
X138384714Y-45354761D01*
X138384714Y-45354761D02*
X138384714Y-45211904D01*
X138384714Y-45211904D02*
X138432333Y-45116666D01*
X139003761Y-44211904D02*
X139051380Y-44307142D01*
X139051380Y-44307142D02*
X139051380Y-44497618D01*
X139051380Y-44497618D02*
X139003761Y-44592856D01*
X139003761Y-44592856D02*
X138956142Y-44640475D01*
X138956142Y-44640475D02*
X138860904Y-44688094D01*
X138860904Y-44688094D02*
X138575190Y-44688094D01*
X138575190Y-44688094D02*
X138479952Y-44640475D01*
X138479952Y-44640475D02*
X138432333Y-44592856D01*
X138432333Y-44592856D02*
X138384714Y-44497618D01*
X138384714Y-44497618D02*
X138384714Y-44307142D01*
X138384714Y-44307142D02*
X138432333Y-44211904D01*
X139051380Y-43783332D02*
X138051380Y-43783332D01*
X138670428Y-43688094D02*
X139051380Y-43402380D01*
X138384714Y-43402380D02*
X138765666Y-43783332D01*
X137019380Y-45307047D02*
X136352714Y-45307047D01*
X136543190Y-45307047D02*
X136447952Y-45259428D01*
X136447952Y-45259428D02*
X136400333Y-45211809D01*
X136400333Y-45211809D02*
X136352714Y-45116571D01*
X136352714Y-45116571D02*
X136352714Y-45021333D01*
X136971761Y-44307047D02*
X137019380Y-44402285D01*
X137019380Y-44402285D02*
X137019380Y-44592761D01*
X137019380Y-44592761D02*
X136971761Y-44687999D01*
X136971761Y-44687999D02*
X136876523Y-44735618D01*
X136876523Y-44735618D02*
X136495571Y-44735618D01*
X136495571Y-44735618D02*
X136400333Y-44687999D01*
X136400333Y-44687999D02*
X136352714Y-44592761D01*
X136352714Y-44592761D02*
X136352714Y-44402285D01*
X136352714Y-44402285D02*
X136400333Y-44307047D01*
X136400333Y-44307047D02*
X136495571Y-44259428D01*
X136495571Y-44259428D02*
X136590809Y-44259428D01*
X136590809Y-44259428D02*
X136686047Y-44735618D01*
X136971761Y-43878475D02*
X137019380Y-43783237D01*
X137019380Y-43783237D02*
X137019380Y-43592761D01*
X137019380Y-43592761D02*
X136971761Y-43497523D01*
X136971761Y-43497523D02*
X136876523Y-43449904D01*
X136876523Y-43449904D02*
X136828904Y-43449904D01*
X136828904Y-43449904D02*
X136733666Y-43497523D01*
X136733666Y-43497523D02*
X136686047Y-43592761D01*
X136686047Y-43592761D02*
X136686047Y-43735618D01*
X136686047Y-43735618D02*
X136638428Y-43830856D01*
X136638428Y-43830856D02*
X136543190Y-43878475D01*
X136543190Y-43878475D02*
X136495571Y-43878475D01*
X136495571Y-43878475D02*
X136400333Y-43830856D01*
X136400333Y-43830856D02*
X136352714Y-43735618D01*
X136352714Y-43735618D02*
X136352714Y-43592761D01*
X136352714Y-43592761D02*
X136400333Y-43497523D01*
X136971761Y-42640380D02*
X137019380Y-42735618D01*
X137019380Y-42735618D02*
X137019380Y-42926094D01*
X137019380Y-42926094D02*
X136971761Y-43021332D01*
X136971761Y-43021332D02*
X136876523Y-43068951D01*
X136876523Y-43068951D02*
X136495571Y-43068951D01*
X136495571Y-43068951D02*
X136400333Y-43021332D01*
X136400333Y-43021332D02*
X136352714Y-42926094D01*
X136352714Y-42926094D02*
X136352714Y-42735618D01*
X136352714Y-42735618D02*
X136400333Y-42640380D01*
X136400333Y-42640380D02*
X136495571Y-42592761D01*
X136495571Y-42592761D02*
X136590809Y-42592761D01*
X136590809Y-42592761D02*
X136686047Y-43068951D01*
X136352714Y-42307046D02*
X136352714Y-41926094D01*
X136019380Y-42164189D02*
X136876523Y-42164189D01*
X136876523Y-42164189D02*
X136971761Y-42116570D01*
X136971761Y-42116570D02*
X137019380Y-42021332D01*
X137019380Y-42021332D02*
X137019380Y-41926094D01*
D12*
X146367999Y-63641999D03*
X147167999Y-63641999D03*
X147967999Y-63641999D03*
X148767999Y-63641999D03*
X149567999Y-63641999D03*
X150367999Y-63641999D03*
X151167999Y-63641999D03*
X151967999Y-63641999D03*
X152767999Y-63641999D03*
X153567999Y-63641999D03*
X154367999Y-63641999D03*
D13*
X156067999Y-65341999D03*
X156067999Y-66141999D03*
X156067999Y-66941999D03*
X156067999Y-67741999D03*
X156067999Y-68541999D03*
X156067999Y-69341999D03*
X156067999Y-70141999D03*
X156067999Y-70941999D03*
X156067999Y-71741999D03*
X156067999Y-72541999D03*
X156067999Y-73341999D03*
D12*
X154367999Y-75041999D03*
X153567999Y-75041999D03*
X152767999Y-75041999D03*
X151967999Y-75041999D03*
X151167999Y-75041999D03*
X150367999Y-75041999D03*
X149567999Y-75041999D03*
X148767999Y-75041999D03*
X147967999Y-75041999D03*
X147167999Y-75041999D03*
X146367999Y-75041999D03*
D13*
X144667999Y-73341999D03*
X144667999Y-72541999D03*
X144667999Y-71741999D03*
X144667999Y-70941999D03*
X144667999Y-70141999D03*
X144667999Y-69341999D03*
X144667999Y-68541999D03*
X144667999Y-67741999D03*
X144667999Y-66941999D03*
X144667999Y-66141999D03*
X144667999Y-65341999D03*
D14*
X150859999Y-47276499D03*
D15*
X149209999Y-49976499D03*
X148559999Y-49976499D03*
X151159999Y-49976499D03*
X150509999Y-49976499D03*
X149859999Y-49976499D03*
D14*
X148859999Y-47276499D03*
D16*
X271656000Y-153924000D03*
X268856000Y-153924000D03*
D17*
X186433000Y-49022000D03*
X189233000Y-49022000D03*
D18*
X155702000Y-54864000D03*
X155702000Y-57664000D03*
D16*
X24514000Y-66040000D03*
X21714000Y-66040000D03*
X43818000Y-66802000D03*
X41018000Y-66802000D03*
X63122000Y-70358000D03*
X60322000Y-70358000D03*
X82426000Y-73914000D03*
X79626000Y-73914000D03*
X101730000Y-77470000D03*
X98930000Y-77470000D03*
X121034000Y-81280000D03*
X118234000Y-81280000D03*
X140084000Y-85598000D03*
X137284000Y-85598000D03*
X40008000Y-86360000D03*
X37208000Y-86360000D03*
X59312000Y-89662000D03*
X56512000Y-89662000D03*
X78616000Y-93218000D03*
X75816000Y-93218000D03*
X97920000Y-96774000D03*
X95120000Y-96774000D03*
X117224000Y-100584000D03*
X114424000Y-100584000D03*
X136528000Y-104902000D03*
X133728000Y-104902000D03*
X155832000Y-106934000D03*
X153032000Y-106934000D03*
X20704000Y-87376000D03*
X17904000Y-87376000D03*
X59312000Y-108966000D03*
X56512000Y-108966000D03*
X78616000Y-112522000D03*
X75816000Y-112522000D03*
X97920000Y-116332000D03*
X95120000Y-116332000D03*
X117224000Y-119634000D03*
X114424000Y-119634000D03*
X136528000Y-124206000D03*
X133728000Y-124206000D03*
X155832000Y-126238000D03*
X153032000Y-126238000D03*
X40008000Y-105410000D03*
X37208000Y-105410000D03*
X59312000Y-128524000D03*
X56512000Y-128524000D03*
X78616000Y-131826000D03*
X75816000Y-131826000D03*
X97920000Y-135382000D03*
X95120000Y-135382000D03*
X117224000Y-138938000D03*
X114424000Y-138938000D03*
X136528000Y-143510000D03*
X133728000Y-143510000D03*
X155832000Y-145288000D03*
X153032000Y-145288000D03*
X20704000Y-109220000D03*
X17904000Y-109220000D03*
X59312000Y-147574000D03*
X56512000Y-147574000D03*
X78616000Y-150876000D03*
X75816000Y-150876000D03*
X97920000Y-154940000D03*
X95120000Y-154940000D03*
X117224000Y-158242000D03*
X114424000Y-158242000D03*
X136528000Y-162814000D03*
X133728000Y-162814000D03*
X155832000Y-164592000D03*
X153032000Y-164592000D03*
X20704000Y-130556000D03*
X17904000Y-130556000D03*
X40008000Y-124968000D03*
X37208000Y-124968000D03*
X40008000Y-147574000D03*
X37208000Y-147574000D03*
X86874000Y-158750000D03*
X84074000Y-158750000D03*
X252352000Y-154178000D03*
X249552000Y-154178000D03*
X290960000Y-153924000D03*
X288160000Y-153924000D03*
X170310000Y-85852000D03*
X167510000Y-85852000D03*
X189614000Y-81280000D03*
X186814000Y-81280000D03*
X208918000Y-77470000D03*
X206118000Y-77470000D03*
X228222000Y-74168000D03*
X225422000Y-74168000D03*
X247526000Y-70358000D03*
X244726000Y-70358000D03*
X266830000Y-66802000D03*
X264030000Y-66802000D03*
X286134000Y-65786000D03*
X283334000Y-65786000D03*
X175136000Y-104902000D03*
X172336000Y-104902000D03*
X194440000Y-100584000D03*
X191640000Y-100584000D03*
X213744000Y-96774000D03*
X210944000Y-96774000D03*
X233048000Y-93218000D03*
X230248000Y-93218000D03*
X252352000Y-89916000D03*
X249552000Y-89916000D03*
X271656000Y-86106000D03*
X268856000Y-86106000D03*
X290960000Y-85090000D03*
X288160000Y-85090000D03*
X175136000Y-123952000D03*
X172336000Y-123952000D03*
X194440000Y-119634000D03*
X191640000Y-119634000D03*
X213744000Y-116078000D03*
X210944000Y-116078000D03*
X233048000Y-112522000D03*
X230248000Y-112522000D03*
X252352000Y-108966000D03*
X249552000Y-108966000D03*
X271656000Y-105410000D03*
X268856000Y-105410000D03*
X290960000Y-104140000D03*
X288160000Y-104140000D03*
X175136000Y-143764000D03*
X172336000Y-143764000D03*
X194440000Y-138938000D03*
X191640000Y-138938000D03*
X213744000Y-135382000D03*
X210944000Y-135382000D03*
X233048000Y-131826000D03*
X230248000Y-131826000D03*
X252352000Y-128270000D03*
X249552000Y-128270000D03*
X268856000Y-124714000D03*
X271656000Y-124714000D03*
X288160000Y-125984000D03*
X290960000Y-125984000D03*
X175136000Y-162814000D03*
X172336000Y-162814000D03*
X194440000Y-158242000D03*
X191640000Y-158242000D03*
X213998000Y-154686000D03*
X211198000Y-154686000D03*
X233048000Y-151130000D03*
X230248000Y-151130000D03*
X252352000Y-147320000D03*
X249552000Y-147320000D03*
X271656000Y-147066000D03*
X268856000Y-147066000D03*
X290960000Y-147320000D03*
X288160000Y-147320000D03*
D19*
X148844000Y-57788000D03*
X148844000Y-54988000D03*
X151130000Y-57788000D03*
X151130000Y-54988000D03*
D16*
X137036000Y-53848000D03*
X134236000Y-53848000D03*
D20*
X161007247Y-67802740D03*
X164988258Y-71783751D03*
X167922751Y-68849258D03*
X163941740Y-64868247D03*
D17*
X191389000Y-49022000D03*
X194189000Y-49022000D03*
D18*
X153416000Y-57782000D03*
X153416000Y-60582000D03*
D16*
X139824000Y-74422000D03*
X142624000Y-74422000D03*
D18*
X146431000Y-57788000D03*
X146431000Y-54988000D03*
D17*
X137417000Y-60452000D03*
X134617000Y-60452000D03*
D19*
X155956000Y-75054000D03*
X155956000Y-77854000D03*
X143383000Y-63379000D03*
X143383000Y-60579000D03*
D21*
X160882949Y-62637051D03*
X158903051Y-64616949D03*
D16*
X165487000Y-56769000D03*
X162687000Y-56769000D03*
X162684000Y-54483000D03*
X165484000Y-54483000D03*
D22*
X129449999Y-57149999D03*
X137249999Y-57149999D03*
D23*
X167159913Y-63781913D03*
X165834087Y-62456087D03*
D24*
X167231087Y-72417913D03*
X168556913Y-71092087D03*
D17*
X194440000Y-62484000D03*
X191640000Y-62484000D03*
X189614000Y-62484000D03*
X186814000Y-62484000D03*
M02*
