G04 #@! TF.GenerationSoftware,KiCad,Pcbnew,(6.99.0-1603-g82820d4b1c)*
G04 #@! TF.CreationDate,2022-06-17T11:00:42+02:00*
G04 #@! TF.ProjectId,BalthazarKeyboard3-keycaps,42616c74-6861-47a6-9172-4b6579626f61,rev?*
G04 #@! TF.SameCoordinates,Original*
G04 #@! TF.FileFunction,Soldermask,Top*
G04 #@! TF.FilePolarity,Negative*
%FSLAX46Y46*%
G04 Gerber Fmt 4.6, Leading zero omitted, Abs format (unit mm)*
G04 Created by KiCad (PCBNEW (6.99.0-1603-g82820d4b1c)) date 2022-06-17 11:00:42*
%MOMM*%
%LPD*%
G01*
G04 APERTURE LIST*
G04 Aperture macros list*
%AMRoundRect*
0 Rectangle with rounded corners*
0 $1 Rounding radius*
0 $2 $3 $4 $5 $6 $7 $8 $9 X,Y pos of 4 corners*
0 Add a 4 corners polygon primitive as box body*
4,1,4,$2,$3,$4,$5,$6,$7,$8,$9,$2,$3,0*
0 Add four circle primitives for the rounded corners*
1,1,$1+$1,$2,$3*
1,1,$1+$1,$4,$5*
1,1,$1+$1,$6,$7*
1,1,$1+$1,$8,$9*
0 Add four rect primitives between the rounded corners*
20,1,$1+$1,$2,$3,$4,$5,0*
20,1,$1+$1,$4,$5,$6,$7,0*
20,1,$1+$1,$6,$7,$8,$9,0*
20,1,$1+$1,$8,$9,$2,$3,0*%
G04 Aperture macros list end*
%ADD10C,1.852000*%
%ADD11O,1.602000X2.302000*%
%ADD12O,1.802000X2.302000*%
%ADD13C,4.102000*%
%ADD14C,1.552000*%
%ADD15O,1.302000X2.002000*%
%ADD16C,4.802000*%
%ADD17O,1.452000X1.452000*%
%ADD18RoundRect,0.051000X-0.675000X0.675000X-0.675000X-0.675000X0.675000X-0.675000X0.675000X0.675000X0*%
%ADD19RoundRect,0.051000X0.675000X-0.675000X0.675000X0.675000X-0.675000X0.675000X-0.675000X-0.675000X0*%
%ADD20RoundRect,0.051000X0.850000X-0.850000X0.850000X0.850000X-0.850000X0.850000X-0.850000X-0.850000X0*%
%ADD21O,1.802000X1.802000*%
G04 APERTURE END LIST*
D10*
X247142000Y-107860000D03*
X247142000Y-97880000D03*
D11*
X252441999Y-105369999D03*
D12*
X249671999Y-99119999D03*
D13*
X247142000Y-102870000D03*
D10*
X131318000Y-161708000D03*
X131318000Y-151728000D03*
D11*
X136617999Y-159217999D03*
D12*
X133847999Y-152967999D03*
D13*
X131318000Y-156718000D03*
D10*
X247142000Y-146214000D03*
X247142000Y-136234000D03*
D11*
X252441999Y-143723999D03*
D12*
X249671999Y-137473999D03*
D13*
X247142000Y-141224000D03*
D10*
X19177000Y-64680000D03*
X19177000Y-54700000D03*
D11*
X24476999Y-62189999D03*
D12*
X21706999Y-55939999D03*
D13*
X19177000Y-59690000D03*
D10*
X38481000Y-65696000D03*
X38481000Y-55716000D03*
D11*
X43780999Y-63205999D03*
D12*
X41010999Y-56955999D03*
D13*
X38481000Y-60706000D03*
D10*
X57785000Y-69252000D03*
X57785000Y-59272000D03*
D11*
X63084999Y-66761999D03*
D12*
X60314999Y-60511999D03*
D13*
X57785000Y-64262000D03*
D10*
X77089000Y-72681000D03*
X77089000Y-62701000D03*
D11*
X82388999Y-70190999D03*
D12*
X79618999Y-63940999D03*
D13*
X77089000Y-67691000D03*
D10*
X96393000Y-76237000D03*
X96393000Y-66257000D03*
D11*
X101692999Y-73746999D03*
D12*
X98922999Y-67496999D03*
D13*
X96393000Y-71247000D03*
D10*
X115697000Y-79920000D03*
X115697000Y-69940000D03*
D11*
X120996999Y-77429999D03*
D12*
X118226999Y-71179999D03*
D13*
X115697000Y-74930000D03*
D10*
X135001000Y-84365000D03*
X135001000Y-74385000D03*
D11*
X140300999Y-81874999D03*
D12*
X137530999Y-75624999D03*
D13*
X135001000Y-79375000D03*
D10*
X34798000Y-85000000D03*
X34798000Y-75020000D03*
D11*
X40097999Y-82509999D03*
D12*
X37327999Y-76259999D03*
D13*
X34798000Y-80010000D03*
D10*
X54102000Y-88429000D03*
X54102000Y-78449000D03*
D11*
X59401999Y-85938999D03*
D12*
X56631999Y-79688999D03*
D13*
X54102000Y-83439000D03*
D10*
X73406000Y-91985000D03*
X73406000Y-82005000D03*
D11*
X78705999Y-89494999D03*
D12*
X75935999Y-83244999D03*
D13*
X73406000Y-86995000D03*
D10*
X92710000Y-95541000D03*
X92710000Y-85561000D03*
D11*
X98009999Y-93050999D03*
D12*
X95239999Y-86800999D03*
D13*
X92710000Y-90551000D03*
D10*
X112014000Y-99224000D03*
X112014000Y-89244000D03*
D11*
X117313999Y-96733999D03*
D12*
X114543999Y-90483999D03*
D13*
X112014000Y-94234000D03*
D10*
X131318000Y-103796000D03*
X131318000Y-93816000D03*
D11*
X136617999Y-101305999D03*
D12*
X133847999Y-95055999D03*
D13*
X131318000Y-98806000D03*
D10*
X150622000Y-105447000D03*
X150622000Y-95467000D03*
D11*
X155921999Y-102956999D03*
D12*
X153151999Y-96706999D03*
D13*
X150622000Y-100457000D03*
D10*
X15494000Y-86143000D03*
X15494000Y-76163000D03*
D11*
X20793999Y-83652999D03*
D12*
X18023999Y-77402999D03*
D13*
X15494000Y-81153000D03*
D10*
X54102000Y-107733000D03*
X54102000Y-97753000D03*
D11*
X59401999Y-105242999D03*
D12*
X56631999Y-98992999D03*
D13*
X54102000Y-102743000D03*
D10*
X73406000Y-111289000D03*
X73406000Y-101309000D03*
D11*
X78705999Y-108798999D03*
D12*
X75935999Y-102548999D03*
D13*
X73406000Y-106299000D03*
D10*
X92710000Y-115099000D03*
X92710000Y-105119000D03*
D11*
X98009999Y-112608999D03*
D12*
X95239999Y-106358999D03*
D13*
X92710000Y-110109000D03*
D10*
X112014000Y-118528000D03*
X112014000Y-108548000D03*
D11*
X117313999Y-116037999D03*
D12*
X114543999Y-109787999D03*
D13*
X112014000Y-113538000D03*
D10*
X131318000Y-123100000D03*
X131318000Y-113120000D03*
D11*
X136617999Y-120609999D03*
D12*
X133847999Y-114359999D03*
D13*
X131318000Y-118110000D03*
D10*
X150622000Y-124878000D03*
X150622000Y-114898000D03*
D11*
X155921999Y-122387999D03*
D12*
X153151999Y-116137999D03*
D13*
X150622000Y-119888000D03*
D10*
X34798000Y-104304000D03*
X34798000Y-94324000D03*
D11*
X40097999Y-101813999D03*
D12*
X37327999Y-95563999D03*
D13*
X34798000Y-99314000D03*
D10*
X54102000Y-127164000D03*
X54102000Y-117184000D03*
D11*
X59401999Y-124673999D03*
D12*
X56631999Y-118423999D03*
D13*
X54102000Y-122174000D03*
D10*
X73406000Y-130720000D03*
X73406000Y-120740000D03*
D11*
X78705999Y-128229999D03*
D12*
X75935999Y-121979999D03*
D13*
X73406000Y-125730000D03*
D10*
X92710000Y-134149000D03*
X92710000Y-124169000D03*
D11*
X98009999Y-131658999D03*
D12*
X95239999Y-125408999D03*
D13*
X92710000Y-129159000D03*
D10*
X112014000Y-137832000D03*
X112014000Y-127852000D03*
D11*
X117313999Y-135341999D03*
D12*
X114543999Y-129091999D03*
D13*
X112014000Y-132842000D03*
D10*
X131318000Y-142404000D03*
X131318000Y-132424000D03*
D11*
X136617999Y-139913999D03*
D12*
X133847999Y-133663999D03*
D13*
X131318000Y-137414000D03*
D10*
X150622000Y-144182000D03*
X150622000Y-134202000D03*
D11*
X155921999Y-141691999D03*
D12*
X153151999Y-135441999D03*
D13*
X150622000Y-139192000D03*
D10*
X15494000Y-107860000D03*
X15494000Y-97880000D03*
D11*
X20793999Y-105369999D03*
D12*
X18023999Y-99119999D03*
D13*
X15494000Y-102870000D03*
D10*
X54102000Y-146468000D03*
X54102000Y-136488000D03*
D11*
X59401999Y-143977999D03*
D12*
X56631999Y-137727999D03*
D13*
X54102000Y-141478000D03*
D10*
X73406000Y-149770000D03*
X73406000Y-139790000D03*
D11*
X78705999Y-147279999D03*
D12*
X75935999Y-141029999D03*
D13*
X73406000Y-144780000D03*
D10*
X92710000Y-153580000D03*
X92710000Y-143600000D03*
D11*
X98009999Y-151089999D03*
D12*
X95239999Y-144839999D03*
D13*
X92710000Y-148590000D03*
D10*
X112014000Y-157136000D03*
X112014000Y-147156000D03*
D11*
X117313999Y-154645999D03*
D12*
X114543999Y-148395999D03*
D13*
X112014000Y-152146000D03*
D10*
X150622000Y-163486000D03*
X150622000Y-153506000D03*
D11*
X155921999Y-160995999D03*
D12*
X153151999Y-154745999D03*
D13*
X150622000Y-158496000D03*
D10*
X15494000Y-129450000D03*
X15494000Y-119470000D03*
D11*
X20793999Y-126959999D03*
D12*
X18023999Y-120709999D03*
D13*
X15494000Y-124460000D03*
D10*
X34798000Y-123608000D03*
X34798000Y-113628000D03*
D11*
X40097999Y-121117999D03*
D12*
X37327999Y-114867999D03*
D13*
X34798000Y-118618000D03*
D10*
X34798000Y-146468000D03*
X34798000Y-136488000D03*
D11*
X40097999Y-143977999D03*
D12*
X37327999Y-137727999D03*
D13*
X34798000Y-141478000D03*
D10*
X92710000Y-169836000D03*
X92710000Y-159856000D03*
D11*
X98009999Y-167345999D03*
D12*
X95239999Y-161095999D03*
D13*
X92710000Y-164846000D03*
D10*
X208788000Y-169836000D03*
X208788000Y-159856000D03*
D11*
X214087999Y-167345999D03*
D12*
X211317999Y-161095999D03*
D13*
X208788000Y-164846000D03*
D10*
X247142000Y-165772000D03*
X247142000Y-155792000D03*
D11*
X252441999Y-163281999D03*
D12*
X249671999Y-157031999D03*
D13*
X247142000Y-160782000D03*
D10*
X266446000Y-165518000D03*
X266446000Y-155538000D03*
D11*
X271745999Y-163027999D03*
D12*
X268975999Y-156777999D03*
D13*
X266446000Y-160528000D03*
D10*
X285750000Y-165772000D03*
X285750000Y-155792000D03*
D11*
X291049999Y-163281999D03*
D12*
X288279999Y-157031999D03*
D13*
X285750000Y-160782000D03*
D10*
X165100000Y-84492000D03*
X165100000Y-74512000D03*
D11*
X170399999Y-82001999D03*
D12*
X167629999Y-75751999D03*
D13*
X165100000Y-79502000D03*
D10*
X184404000Y-79920000D03*
X184404000Y-69940000D03*
D11*
X189703999Y-77429999D03*
D12*
X186933999Y-71179999D03*
D13*
X184404000Y-74930000D03*
D10*
X203708000Y-76110000D03*
X203708000Y-66130000D03*
D11*
X209007999Y-73619999D03*
D12*
X206237999Y-67369999D03*
D13*
X203708000Y-71120000D03*
D10*
X223012000Y-72808000D03*
X223012000Y-62828000D03*
D11*
X228311999Y-70317999D03*
D12*
X225541999Y-64067999D03*
D13*
X223012000Y-67818000D03*
D10*
X242316000Y-69252000D03*
X242316000Y-59272000D03*
D11*
X247615999Y-66761999D03*
D12*
X244845999Y-60511999D03*
D13*
X242316000Y-64262000D03*
D10*
X261620000Y-65696000D03*
X261620000Y-55716000D03*
D11*
X266919999Y-63205999D03*
D12*
X264149999Y-56955999D03*
D13*
X261620000Y-60706000D03*
D10*
X280924000Y-64680000D03*
X280924000Y-54700000D03*
D11*
X286223999Y-62189999D03*
D12*
X283453999Y-55939999D03*
D13*
X280924000Y-59690000D03*
D10*
X169926000Y-103796000D03*
X169926000Y-93816000D03*
D11*
X175225999Y-101305999D03*
D12*
X172455999Y-95055999D03*
D13*
X169926000Y-98806000D03*
D10*
X189230000Y-99224000D03*
X189230000Y-89244000D03*
D11*
X194529999Y-96733999D03*
D12*
X191759999Y-90483999D03*
D13*
X189230000Y-94234000D03*
D10*
X208534000Y-95668000D03*
X208534000Y-85688000D03*
D11*
X213833999Y-93177999D03*
D12*
X211063999Y-86927999D03*
D13*
X208534000Y-90678000D03*
D10*
X227838000Y-92112000D03*
X227838000Y-82132000D03*
D11*
X233137999Y-89621999D03*
D12*
X230367999Y-83371999D03*
D13*
X227838000Y-87122000D03*
D10*
X247142000Y-88556000D03*
X247142000Y-78576000D03*
D11*
X252441999Y-86065999D03*
D12*
X249671999Y-79815999D03*
D13*
X247142000Y-83566000D03*
D10*
X266446000Y-85000000D03*
X266446000Y-75020000D03*
D11*
X271745999Y-82509999D03*
D12*
X268975999Y-76259999D03*
D13*
X266446000Y-80010000D03*
D10*
X285750000Y-83984000D03*
X285750000Y-74004000D03*
D11*
X291049999Y-81493999D03*
D12*
X288279999Y-75243999D03*
D13*
X285750000Y-78994000D03*
D10*
X169926000Y-123100000D03*
X169926000Y-113120000D03*
D11*
X175225999Y-120609999D03*
D12*
X172455999Y-114359999D03*
D13*
X169926000Y-118110000D03*
D10*
X189230000Y-118528000D03*
X189230000Y-108548000D03*
D11*
X194529999Y-116037999D03*
D12*
X191759999Y-109787999D03*
D13*
X189230000Y-113538000D03*
D10*
X208534000Y-114972000D03*
X208534000Y-104992000D03*
D11*
X213833999Y-112481999D03*
D12*
X211063999Y-106231999D03*
D13*
X208534000Y-109982000D03*
D10*
X227838000Y-111416000D03*
X227838000Y-101436000D03*
D11*
X233137999Y-108925999D03*
D12*
X230367999Y-102675999D03*
D13*
X227838000Y-106426000D03*
D10*
X266446000Y-104304000D03*
X266446000Y-94324000D03*
D11*
X271745999Y-101813999D03*
D12*
X268975999Y-95563999D03*
D13*
X266446000Y-99314000D03*
D10*
X285750000Y-103034000D03*
X285750000Y-93054000D03*
D11*
X291049999Y-100543999D03*
D12*
X288279999Y-94293999D03*
D13*
X285750000Y-98044000D03*
D10*
X169926000Y-142404000D03*
X169926000Y-132424000D03*
D11*
X175225999Y-139913999D03*
D12*
X172455999Y-133663999D03*
D13*
X169926000Y-137414000D03*
D10*
X189230000Y-137832000D03*
X189230000Y-127852000D03*
D11*
X194529999Y-135341999D03*
D12*
X191759999Y-129091999D03*
D13*
X189230000Y-132842000D03*
D10*
X208534000Y-134276000D03*
X208534000Y-124296000D03*
D11*
X213833999Y-131785999D03*
D12*
X211063999Y-125535999D03*
D13*
X208534000Y-129286000D03*
D10*
X227838000Y-130720000D03*
X227838000Y-120740000D03*
D11*
X233137999Y-128229999D03*
D12*
X230367999Y-121979999D03*
D13*
X227838000Y-125730000D03*
D10*
X247142000Y-127164000D03*
X247142000Y-117184000D03*
D11*
X252441999Y-124673999D03*
D12*
X249671999Y-118423999D03*
D13*
X247142000Y-122174000D03*
D10*
X266446000Y-123608000D03*
X266446000Y-113628000D03*
D11*
X271745999Y-121117999D03*
D12*
X268975999Y-114867999D03*
D13*
X266446000Y-118618000D03*
D10*
X285750000Y-124878000D03*
X285750000Y-114898000D03*
D11*
X291049999Y-122387999D03*
D12*
X288279999Y-116137999D03*
D13*
X285750000Y-119888000D03*
D10*
X169926000Y-161708000D03*
X169926000Y-151728000D03*
D11*
X175225999Y-159217999D03*
D12*
X172455999Y-152967999D03*
D13*
X169926000Y-156718000D03*
D10*
X189230000Y-157136000D03*
X189230000Y-147156000D03*
D11*
X194529999Y-154645999D03*
D12*
X191759999Y-148395999D03*
D13*
X189230000Y-152146000D03*
D10*
X208788000Y-153580000D03*
X208788000Y-143600000D03*
D11*
X214087999Y-151089999D03*
D12*
X211317999Y-144839999D03*
D13*
X208788000Y-148590000D03*
D10*
X227838000Y-150024000D03*
X227838000Y-140044000D03*
D11*
X233137999Y-147533999D03*
D12*
X230367999Y-141283999D03*
D13*
X227838000Y-145034000D03*
D10*
X266446000Y-145960000D03*
X266446000Y-135980000D03*
D11*
X271745999Y-143469999D03*
D12*
X268975999Y-137219999D03*
D13*
X266446000Y-140970000D03*
D10*
X285750000Y-146214000D03*
X285750000Y-136234000D03*
D11*
X291049999Y-143723999D03*
D12*
X288279999Y-137473999D03*
D13*
X285750000Y-141224000D03*
D14*
X152360000Y-49976500D03*
D15*
X146359999Y-47276499D03*
X153359999Y-47276499D03*
D16*
X101854000Y-100330000D03*
X195834000Y-82296000D03*
X9144000Y-135636000D03*
X291592000Y-108966000D03*
X160020000Y-129540000D03*
D17*
X168051999Y-51815999D03*
X166051999Y-51815999D03*
X164051999Y-51815999D03*
D18*
X162052000Y-51816000D03*
D17*
X152811999Y-51815999D03*
X150811999Y-51815999D03*
X148811999Y-51815999D03*
D18*
X146812000Y-51816000D03*
D16*
X81788000Y-168402000D03*
X57912000Y-50038000D03*
X219710000Y-168402000D03*
X242316000Y-50038000D03*
D17*
X142747999Y-51815999D03*
X140747999Y-51815999D03*
X138747999Y-51815999D03*
X136747999Y-51815999D03*
D19*
X134748000Y-51816000D03*
D17*
X132747999Y-51815999D03*
D20*
X120650000Y-49022000D03*
D21*
X123189999Y-49021999D03*
X125729999Y-49021999D03*
X128269999Y-49021999D03*
G36*
X177351562Y-50340816D02*
G01*
X177363944Y-50349555D01*
X178547852Y-51296681D01*
X178575455Y-51308000D01*
X180018567Y-51308000D01*
X180086688Y-51328002D01*
X180123405Y-51364108D01*
X180583951Y-52054926D01*
X180600269Y-52068593D01*
X180607010Y-52070000D01*
X206376000Y-52070000D01*
X206444121Y-52090002D01*
X206490614Y-52143658D01*
X206502000Y-52196000D01*
X206502000Y-52305885D01*
X206506475Y-52321124D01*
X206507865Y-52322329D01*
X206515548Y-52324000D01*
X207252401Y-52324000D01*
X207274825Y-52319837D01*
X208865016Y-51708225D01*
X208935776Y-51702440D01*
X208963531Y-51711648D01*
X210776418Y-52557662D01*
X210829689Y-52604595D01*
X210838946Y-52622207D01*
X211562629Y-54310801D01*
X211571079Y-54381293D01*
X211565634Y-54402370D01*
X210849670Y-56430935D01*
X210808136Y-56488515D01*
X210742066Y-56514500D01*
X210730853Y-56515000D01*
X207017727Y-56515000D01*
X207002504Y-56516874D01*
X206519576Y-56637606D01*
X206505875Y-56645644D01*
X206502000Y-56653291D01*
X206502000Y-57532000D01*
X206481998Y-57600121D01*
X206428342Y-57646614D01*
X206376000Y-57658000D01*
X179838226Y-57658000D01*
X179825895Y-57659221D01*
X178576816Y-57909037D01*
X178550201Y-57921439D01*
X177363944Y-58870445D01*
X177298255Y-58897381D01*
X177228432Y-58884527D01*
X177215340Y-58876894D01*
X175779126Y-57919418D01*
X175754811Y-57909802D01*
X174332776Y-57672796D01*
X174268870Y-57641867D01*
X174231831Y-57581298D01*
X174229204Y-57569224D01*
X173992758Y-56150550D01*
X173979258Y-56121110D01*
X172787219Y-54690663D01*
X172758975Y-54625526D01*
X172770431Y-54555460D01*
X172787219Y-54529337D01*
X173978404Y-53099916D01*
X173990000Y-53073172D01*
X173990000Y-51671280D01*
X174010002Y-51603159D01*
X174063658Y-51556666D01*
X174098181Y-51546546D01*
X175754033Y-51309995D01*
X175779741Y-51300173D01*
X177215340Y-50343106D01*
X177283115Y-50321962D01*
X177351562Y-50340816D01*
G37*
G36*
X177305262Y-50293854D02*
G01*
X177305980Y-50294220D01*
X178530541Y-51273868D01*
X178595125Y-51300352D01*
X178607646Y-51301000D01*
X180068027Y-51301000D01*
X180068590Y-51301081D01*
X180085618Y-51306081D01*
X180085962Y-51306442D01*
X180086101Y-51306349D01*
X180086793Y-51306426D01*
X180091554Y-51307824D01*
X180092393Y-51308317D01*
X180098724Y-51314542D01*
X180098986Y-51314859D01*
X180561072Y-52007990D01*
X180614463Y-52052705D01*
X180663781Y-52063000D01*
X206484027Y-52063000D01*
X206484590Y-52063081D01*
X206501620Y-52068081D01*
X206502185Y-52068673D01*
X206503000Y-52068673D01*
X206503512Y-52069095D01*
X206506403Y-52072432D01*
X206506845Y-52073317D01*
X206508954Y-52083013D01*
X206509000Y-52083438D01*
X206509000Y-52193714D01*
X206528596Y-52260453D01*
X206580999Y-52305859D01*
X206632213Y-52317000D01*
X207239680Y-52317000D01*
X207284184Y-52308736D01*
X208895713Y-51688917D01*
X208896268Y-51688791D01*
X208913958Y-51687345D01*
X208914413Y-51687560D01*
X208915322Y-51687233D01*
X208925384Y-51686411D01*
X208926393Y-51686592D01*
X210806674Y-52564056D01*
X210807150Y-52564367D01*
X210820468Y-52576100D01*
X210820657Y-52576662D01*
X210821566Y-52577068D01*
X210830306Y-52584768D01*
X210830822Y-52585481D01*
X211581354Y-54336722D01*
X211581502Y-54337272D01*
X211583614Y-54354894D01*
X211583388Y-54355423D01*
X211583786Y-54356329D01*
X211585130Y-54367544D01*
X211585030Y-54368448D01*
X210832582Y-56500382D01*
X210832318Y-56500886D01*
X210821936Y-56515280D01*
X210821005Y-56515699D01*
X210821005Y-56516000D01*
X210820005Y-56516861D01*
X210807292Y-56521861D01*
X210806560Y-56522000D01*
X207026127Y-56522000D01*
X206996052Y-56525702D01*
X206602447Y-56624104D01*
X206542452Y-56659303D01*
X206511054Y-56721264D01*
X206509000Y-56743597D01*
X206509000Y-57640027D01*
X206508919Y-57640590D01*
X206503919Y-57657620D01*
X206503327Y-57658185D01*
X206503327Y-57659000D01*
X206502905Y-57659512D01*
X206499568Y-57662403D01*
X206498683Y-57662845D01*
X206488987Y-57664954D01*
X206488562Y-57665000D01*
X179844971Y-57665000D01*
X179820657Y-57667407D01*
X178594625Y-57912614D01*
X178541485Y-57937376D01*
X177310406Y-58922240D01*
X177309916Y-58922528D01*
X177293495Y-58929261D01*
X177292521Y-58929129D01*
X177292327Y-58929420D01*
X177291079Y-58929594D01*
X177278626Y-58927302D01*
X177277879Y-58926999D01*
X175787510Y-57933420D01*
X175739118Y-57914283D01*
X174260578Y-57667860D01*
X174260036Y-57667687D01*
X174244062Y-57659955D01*
X174243495Y-57659120D01*
X174243181Y-57659172D01*
X174242177Y-57658342D01*
X174235209Y-57646947D01*
X174234942Y-57646233D01*
X173988934Y-56170184D01*
X173961884Y-56111194D01*
X172726129Y-54628288D01*
X172725830Y-54627804D01*
X172718769Y-54611521D01*
X172718871Y-54610632D01*
X172718458Y-54610288D01*
X172718430Y-54610000D01*
X172722603Y-54610000D01*
X173991536Y-56132720D01*
X173991973Y-56133671D01*
X174245738Y-57656261D01*
X175768329Y-57910027D01*
X175769109Y-57910336D01*
X177291892Y-58925525D01*
X178560751Y-57910438D01*
X178561608Y-57910039D01*
X179831608Y-57656039D01*
X179832000Y-57656000D01*
X206500000Y-57656000D01*
X206500000Y-56642000D01*
X206501000Y-56640268D01*
X206501515Y-56640060D01*
X207009515Y-56513060D01*
X207010000Y-56513000D01*
X210818585Y-56513000D01*
X211579877Y-54356007D01*
X211579790Y-54355920D01*
X210818433Y-52579420D01*
X210818300Y-52579413D01*
X208914892Y-51691156D01*
X208914839Y-51691205D01*
X207264718Y-52325867D01*
X207264000Y-52326000D01*
X206502000Y-52326000D01*
X206500268Y-52325000D01*
X206500000Y-52324000D01*
X206500000Y-52072000D01*
X180594000Y-52072000D01*
X180592336Y-52071109D01*
X180084930Y-51310000D01*
X178562000Y-51310000D01*
X178560751Y-51309562D01*
X177291892Y-50294475D01*
X175769109Y-51309664D01*
X175768283Y-51309980D01*
X173992000Y-51563735D01*
X173992000Y-53086000D01*
X173991536Y-53087280D01*
X172722603Y-54610000D01*
X172718430Y-54610000D01*
X172718361Y-54609275D01*
X172719950Y-54599558D01*
X172720388Y-54598601D01*
X173954306Y-53117899D01*
X173982073Y-53053862D01*
X173983000Y-53038875D01*
X173983000Y-51579973D01*
X173983081Y-51579410D01*
X173988081Y-51562380D01*
X173988713Y-51561776D01*
X173988629Y-51561186D01*
X173989175Y-51560419D01*
X173995970Y-51554532D01*
X173996717Y-51554125D01*
X173997606Y-51553864D01*
X173997886Y-51553803D01*
X175737599Y-51305272D01*
X175788839Y-51285695D01*
X177273163Y-50296145D01*
X177273676Y-50295900D01*
X177290618Y-50290615D01*
X177291578Y-50290831D01*
X177291797Y-50290557D01*
X177293056Y-50290492D01*
X177305262Y-50293854D01*
G37*
M02*
