M48
; DRILL file {KiCad 5.1.9+dfsg1-1+deb11u1} date Mon Oct  3 19:41:35 2022
; FORMAT={-:-/ absolute / metric / decimal}
; #@! TF.CreationDate,2022-10-03T19:41:35+02:00
; #@! TF.GenerationSoftware,Kicad,Pcbnew,5.1.9+dfsg1-1+deb11u1
; #@! TF.FileFunction,Plated,1,4,PTH
FMAT,2
METRIC
T1C0.400
T2C0.500
T3C0.600
T4C0.700
T5C0.800
T6C0.850
T7C1.000
T8C2.700
%
G90
G05
T1
X5.806Y-171.69
X5.816Y-47.11
X5.816Y-49.65
X5.816Y-52.19
X5.816Y-54.73
X5.816Y-57.27
X5.816Y-59.81
X5.816Y-62.35
X5.816Y-64.89
X5.816Y-67.43
X5.816Y-69.97
X5.816Y-72.51
X5.816Y-75.05
X5.816Y-77.59
X5.816Y-80.13
X5.816Y-82.67
X5.816Y-85.21
X5.816Y-87.75
X5.816Y-90.29
X5.816Y-92.83
X5.816Y-95.37
X5.816Y-97.91
X5.816Y-100.45
X5.816Y-102.99
X5.816Y-105.53
X5.816Y-108.07
X5.816Y-110.61
X5.816Y-113.15
X5.816Y-115.69
X5.816Y-118.23
X5.816Y-120.77
X5.816Y-123.31
X5.816Y-125.85
X5.816Y-128.39
X5.816Y-130.93
X5.816Y-133.47
X5.816Y-138.55
X5.816Y-141.09
X5.816Y-143.63
X5.816Y-146.17
X5.816Y-148.71
X5.816Y-151.25
X5.816Y-153.79
X5.816Y-156.33
X5.816Y-158.87
X5.816Y-161.41
X5.816Y-163.95
X5.816Y-166.49
X5.816Y-169.03
X8.346Y-171.69
X8.836Y-47.12
X10.756Y-119.78
X10.886Y-171.69
X11.376Y-47.12
X11.736Y-98.36
X11.756Y-76.59
X13.426Y-171.69
X13.916Y-47.12
X15.606Y-55.22
X15.966Y-171.69
X16.456Y-47.12
X17.85Y-55.57
X17.876Y-107.53
X17.896Y-85.76
X18.186Y-128.85
X18.506Y-171.69
X18.996Y-47.12
X20.316Y-97.43
X20.336Y-75.66
X20.626Y-118.75
X20.706Y-110.79
X20.726Y-89.02
X21.016Y-132.11
X21.046Y-171.69
X21.536Y-47.12
X21.746Y-64.39
X23.586Y-171.69
X24.076Y-47.12
X24.186Y-54.29
X24.576Y-67.65
X26.126Y-171.69
X26.616Y-47.12
X28.666Y-171.69
X29.156Y-47.12
X29.696Y-136.97
X29.82Y-56.57
X30.126Y-114.07
X30.686Y-75.55
X31.016Y-94.56
X31.206Y-171.69
X31.696Y-47.12
X31.77Y-65.48
X33.746Y-171.69
X34.236Y-47.12
X34.806Y-55.89
X36.286Y-171.69
X36.776Y-47.12
X36.826Y-84.72
X37.126Y-146.04
X37.156Y-103.73
X37.246Y-123.23
X38.826Y-171.69
X39.316Y-47.12
X39.466Y-114.04
X39.566Y-135.94
X39.596Y-74.67
X39.596Y-93.63
X39.656Y-87.98
X39.956Y-149.3
X39.986Y-106.99
X40.076Y-126.49
X40.116Y-57.53
X40.946Y-65.06
X41.366Y-171.69
X41.856Y-47.12
X43.386Y-54.96
X43.776Y-68.32
X43.906Y-171.69
X44.396Y-47.12
X46.446Y-171.69
X46.936Y-47.12
X48.986Y-171.69
X49.036Y-117.82
X49.136Y-136.92
X49.22Y-58.32
X49.476Y-47.12
X50.296Y-98.29
X50.336Y-78.87
X51.526Y-171.69
X52.016Y-47.12
X54.066Y-171.69
X54.136Y-59.51
X54.556Y-47.12
X56.436Y-107.46
X56.466Y-126.89
X56.476Y-88.04
X56.566Y-145.99
X56.606Y-171.69
X57.11Y-59.37
X58.876Y-97.36
X58.906Y-116.79
X58.916Y-77.94
X59.006Y-135.89
X59.146Y-171.69
X59.266Y-110.72
X59.296Y-130.15
X59.306Y-91.3
X59.396Y-149.25
X60.276Y-68.68
X61.126Y-47.12
X61.686Y-171.69
X62.14Y-116.82
X62.716Y-58.58
X63.106Y-71.94
X63.666Y-47.12
X64.226Y-171.69
X65.024Y-141.224
X66.206Y-47.12
X66.766Y-171.69
X68.326Y-140.12
X68.746Y-47.12
X69.306Y-171.69
X69.346Y-121.09
X69.606Y-101.56
X71.286Y-47.12
X71.29Y-59.73
X71.846Y-171.69
X73.436Y-63.23
X73.826Y-47.12
X74.386Y-171.69
X75.746Y-110.73
X75.756Y-149.19
X75.816Y-130.16
X76.366Y-47.12
X76.926Y-171.69
X78.1Y-64.28
X78.186Y-100.63
X78.196Y-139.09
X78.256Y-120.06
X78.586Y-152.45
X78.646Y-133.42
X78.906Y-47.12
X79.296Y-114.14
X79.466Y-171.69
X79.576Y-72.4
X81.446Y-47.12
X82.006Y-171.69
X82.016Y-62.3
X82.406Y-75.66
X83.036Y-157.28
X83.986Y-47.12
X84.546Y-171.69
X86.526Y-47.12
X87.086Y-171.69
X87.556Y-160.32
X87.746Y-144.26
X87.757Y-61.595
X88.556Y-124.61
X88.906Y-85.89
X88.946Y-105.62
X89.066Y-47.12
X89.626Y-171.69
X91.44Y-161.798
X91.606Y-47.12
X92.166Y-171.69
X92.746Y-66.76
X94.146Y-47.12
X94.706Y-171.69
X95.026Y-133.68
X95.046Y-95.06
X95.086Y-114.79
X95.176Y-153.33
X96.376Y-66.65
X96.686Y-47.12
X97.246Y-171.69
X97.466Y-123.58
X97.486Y-84.96
X97.526Y-104.69
X97.616Y-143.23
X97.856Y-136.94
X97.876Y-98.32
X97.916Y-118.05
X98.006Y-156.59
X98.886Y-75.93
X99.226Y-47.12
X99.786Y-171.69
X101.326Y-65.83
X101.716Y-79.19
X101.766Y-47.12
X102.326Y-171.69
X102.97Y-122.93
X104.306Y-47.12
X104.648Y-164.084
X104.866Y-171.69
X106.846Y-47.12
X107.136Y-147.55
X107.406Y-171.69
X107.796Y-128.25
X107.936Y-108.97
X108.266Y-89.79
X109.386Y-47.12
X109.946Y-171.69
X111.766Y-47.09
X112.056Y-70.48
X112.486Y-171.69
X114.266Y-137.32
X114.306Y-47.09
X114.406Y-98.96
X114.406Y-118.04
X114.566Y-156.62
X115.026Y-171.69
X115.6Y-69.83
X116.706Y-127.22
X116.846Y-47.09
X116.846Y-88.86
X116.846Y-107.94
X117.006Y-146.52
X117.096Y-140.58
X117.236Y-102.22
X117.236Y-121.3
X117.396Y-159.88
X117.566Y-171.69
X118.196Y-79.65
X119.386Y-47.09
X120.106Y-171.69
X120.636Y-69.55
X121.026Y-82.91
X122.3Y-128.51
X122.646Y-171.69
X125.186Y-171.69
X125.27Y-161.95
X125.603Y-70.231
X126.266Y-151.96
X127.126Y-132.95
X127.276Y-113.59
X127.516Y-94.11
X127.726Y-171.69
X129.426Y-58.39
X129.82Y-122.62
X129.92Y-130.64
X130.266Y-171.69
X130.54Y-142.38
X131.63Y-147.01
X132.006Y-150.03
X132.806Y-171.69
X132.956Y-83.08
X133.416Y-76.0
X133.596Y-142.02
X133.656Y-103.28
X133.696Y-161.03
X133.746Y-122.66
X134.239Y-68.453
X134.646Y-61.6
X135.346Y-171.69
X135.396Y-72.98
X135.636Y-107.188
X135.77Y-154.03
X136.017Y-65.278
X136.036Y-131.92
X136.096Y-93.18
X136.186Y-112.56
X136.398Y-145.542
X136.526Y-164.29
X136.652Y-63.754
X136.652Y-149.098
X136.82Y-129.83
X137.046Y-106.48
X137.216Y-87.18
X137.486Y-122.71
X137.886Y-171.69
X138.186Y-143.46
X138.456Y-126.87
X138.86Y-159.78
X139.192Y-63.627
X139.711Y-73.042
X140.426Y-171.69
X140.986Y-83.9
X141.056Y-60.59
X141.13Y-147.35
X141.45Y-151.17
X142.906Y-65.882
X142.966Y-171.69
X144.43Y-153.65
X144.78Y-126.492
X145.034Y-74.676
X145.506Y-171.69
X145.542Y-108.204
X145.542Y-146.812
X145.542Y-151.13
X145.606Y-153.91
X145.916Y-72.5
X145.916Y-66.333
X146.096Y-70.98
X146.116Y-68.14
X146.136Y-69.59
X146.486Y-115.58
X146.586Y-134.6
X146.696Y-95.94
X147.65Y-161.35
X148.046Y-171.69
X148.336Y-70.358
X148.486Y-73.42
X148.856Y-48.46
X149.536Y-73.42
X149.576Y-64.87
X150.08Y-93.14
X150.17Y-153.88
X150.52Y-143.5
X150.586Y-171.69
X150.61Y-124.34
X150.866Y-48.54
X151.136Y-73.42
X151.892Y-66.548
X152.654Y-61.976
X152.836Y-105.11
X152.956Y-124.65
X153.036Y-162.98
X153.056Y-143.67
X153.126Y-171.69
X153.543Y-54.991
X154.11Y-111.3
X154.14Y-69.596
X154.178Y-71.374
X154.296Y-73.31
X154.566Y-67.83
X154.946Y-46.96
X155.276Y-95.01
X155.396Y-114.55
X155.448Y-60.706
X155.476Y-152.88
X155.496Y-133.57
X155.666Y-171.69
X155.786Y-127.91
X155.866Y-166.24
X155.886Y-146.93
X156.096Y-108.69
X157.196Y-57.67
X157.226Y-59.69
X157.476Y-78.74
X157.486Y-46.96
X157.799Y-73.409
X158.206Y-171.69
X158.369Y-70.993
X159.004Y-56.642
X160.026Y-46.96
X160.274Y-89.408
X160.746Y-171.69
X161.406Y-75.1
X161.646Y-61.48
X161.956Y-68.79
X163.286Y-171.69
X163.322Y-105.156
X164.986Y-152.04
X165.366Y-94.26
X165.826Y-171.69
X165.856Y-113.25
X165.866Y-132.91
X166.96Y-159.75
X167.546Y-84.27
X168.066Y-62.86
X168.366Y-171.69
X169.29Y-164.36
X169.418Y-128.016
X169.786Y-68.94
X169.986Y-74.17
X170.266Y-47.02
X170.376Y-87.53
X170.44Y-141.44
X170.68Y-122.01
X170.706Y-71.47
X170.906Y-171.69
X172.206Y-103.22
X172.326Y-122.32
X172.336Y-141.98
X172.416Y-161.11
X172.646Y-46.99
X173.446Y-171.69
X174.646Y-93.12
X174.766Y-112.22
X174.776Y-131.88
X174.856Y-151.01
X175.036Y-106.48
X175.156Y-125.58
X175.166Y-145.24
X175.186Y-46.99
X175.246Y-164.37
X175.387Y-82.169
X175.986Y-171.69
X176.657Y-72.39
X176.784Y-79.375
X177.726Y-46.99
X178.526Y-171.69
X178.53Y-134.84
X178.9Y-111.59
X180.266Y-46.99
X180.34Y-91.186
X180.746Y-70.58
X181.066Y-171.69
X181.99Y-97.09
X182.806Y-46.99
X183.606Y-171.69
X184.196Y-147.53
X185.096Y-108.98
X185.276Y-128.21
X185.346Y-46.99
X185.416Y-89.65
X186.146Y-171.69
X186.886Y-79.75
X187.886Y-46.99
X188.686Y-171.69
X189.326Y-69.65
X189.47Y-98.79
X189.716Y-83.01
X190.426Y-46.99
X191.226Y-171.69
X191.556Y-98.82
X191.566Y-118.05
X191.626Y-156.6
X191.746Y-137.28
X192.966Y-46.99
X193.675Y-73.66
X193.766Y-171.69
X193.996Y-88.72
X194.006Y-107.95
X194.066Y-146.5
X194.166Y-50.44
X194.186Y-127.18
X194.386Y-102.08
X194.396Y-121.31
X194.436Y-63.93
X194.456Y-159.86
X194.576Y-140.54
X195.506Y-46.99
X196.306Y-171.69
X198.046Y-46.99
X198.12Y-129.18
X198.846Y-171.69
X199.06Y-111.59
X199.616Y-164.82
X200.086Y-66.47
X200.586Y-46.99
X201.386Y-171.69
X203.126Y-46.99
X203.19Y-65.59
X203.896Y-143.97
X203.926Y-171.69
X204.426Y-105.47
X204.556Y-124.66
X204.846Y-85.93
X205.666Y-46.99
X206.226Y-75.64
X206.466Y-171.69
X206.976Y-160.88
X208.206Y-46.99
X208.666Y-65.54
X209.006Y-171.69
X209.396Y-79.2
X210.746Y-46.99
X210.896Y-114.54
X210.986Y-95.1
X211.026Y-133.73
X211.326Y-153.04
X211.546Y-171.69
X211.709Y-73.66
X213.286Y-46.99
X213.336Y-104.44
X213.426Y-85.0
X213.466Y-123.63
X213.616Y-160.07
X213.726Y-117.8
X213.766Y-142.94
X213.816Y-98.36
X213.856Y-136.99
X214.086Y-171.69
X214.156Y-156.3
X215.826Y-46.99
X216.626Y-171.69
X218.366Y-46.99
X218.74Y-128.89
X219.166Y-171.69
X219.336Y-63.3
X220.906Y-46.99
X221.706Y-171.69
X222.836Y-140.37
X223.446Y-46.99
X223.876Y-121.24
X223.886Y-101.79
X224.086Y-82.46
X224.246Y-171.69
X225.476Y-72.47
X225.746Y-159.85
X225.986Y-46.99
X226.786Y-171.69
X227.916Y-62.37
X228.306Y-75.73
X228.526Y-46.99
X229.326Y-171.69
X230.226Y-91.63
X230.266Y-149.44
X230.346Y-130.31
X230.356Y-110.86
X231.066Y-46.99
X231.866Y-171.69
X232.666Y-81.53
X232.706Y-139.34
X232.786Y-120.21
X232.796Y-100.76
X233.056Y-94.89
X233.096Y-152.7
X233.186Y-114.12
X233.556Y-133.52
X233.606Y-46.99
X234.406Y-171.69
X236.146Y-46.99
X236.946Y-171.69
X238.686Y-46.99
X238.696Y-59.56
X239.06Y-126.56
X239.486Y-171.69
X241.226Y-46.99
X242.026Y-171.69
X242.116Y-136.56
X242.336Y-155.96
X243.086Y-98.16
X243.126Y-117.56
X243.516Y-79.05
X243.766Y-46.99
X244.566Y-171.69
X244.836Y-68.73
X246.306Y-46.99
X247.106Y-171.69
X247.276Y-58.63
X247.666Y-71.99
X248.846Y-46.99
X249.546Y-145.63
X249.556Y-107.23
X249.596Y-126.63
X249.646Y-171.69
X249.656Y-88.22
X249.766Y-165.03
X250.97Y-63.27
X251.386Y-46.99
X251.986Y-135.53
X251.996Y-97.13
X252.036Y-116.53
X252.096Y-78.12
X252.186Y-171.69
X252.206Y-154.93
X252.376Y-148.89
X252.386Y-110.49
X252.426Y-129.89
X252.486Y-91.48
X252.596Y-168.29
X253.926Y-46.99
X254.726Y-171.69
X256.466Y-46.99
X257.266Y-171.69
X257.946Y-56.03
X259.006Y-46.99
X259.806Y-171.69
X261.406Y-136.31
X261.546Y-46.99
X261.676Y-155.65
X262.346Y-171.69
X262.366Y-94.73
X262.496Y-114.05
X262.636Y-75.22
X264.086Y-46.99
X264.086Y-65.2
X264.886Y-171.69
X266.526Y-55.1
X266.626Y-46.99
X266.916Y-68.46
X267.426Y-171.69
X268.776Y-84.39
X268.836Y-103.8
X268.836Y-145.38
X268.966Y-123.12
X269.106Y-164.72
X269.166Y-46.99
X269.966Y-171.69
X271.216Y-74.29
X271.276Y-93.7
X271.276Y-135.28
X271.406Y-113.02
X271.546Y-154.62
X271.606Y-87.65
X271.666Y-107.06
X271.666Y-148.64
X271.706Y-46.99
X271.796Y-126.38
X271.936Y-167.98
X272.29Y-63.48
X272.506Y-171.69
X274.246Y-46.99
X275.046Y-171.69
X276.786Y-46.99
X277.066Y-55.06
X277.586Y-171.69
X279.326Y-46.99
X280.126Y-171.69
X280.746Y-156.0
X281.046Y-136.62
X281.606Y-115.28
X281.866Y-46.99
X281.986Y-93.5
X282.186Y-74.37
X282.666Y-171.69
X283.206Y-64.23
X284.406Y-46.99
X285.206Y-171.69
X285.646Y-54.13
X286.036Y-67.49
X286.946Y-46.99
X287.746Y-171.69
X288.076Y-124.35
X288.176Y-165.07
X288.326Y-83.54
X288.456Y-102.57
X288.476Y-145.69
X289.486Y-46.99
X290.286Y-171.69
X290.516Y-114.25
X290.616Y-154.97
X290.766Y-73.44
X290.896Y-92.47
X290.906Y-127.61
X290.916Y-135.59
X291.006Y-168.33
X291.156Y-86.8
X291.286Y-105.83
X291.306Y-148.95
X292.026Y-46.99
X292.826Y-171.69
X294.566Y-46.99
X294.566Y-49.53
X294.566Y-52.07
X294.566Y-54.61
X294.566Y-57.15
X294.566Y-59.69
X294.566Y-62.23
X294.566Y-64.77
X294.566Y-67.31
X294.566Y-69.85
X294.566Y-72.39
X294.566Y-74.93
X294.566Y-77.47
X294.566Y-80.01
X294.566Y-82.55
X294.566Y-85.09
X294.566Y-87.63
X294.566Y-90.17
X294.566Y-92.71
X294.566Y-95.25
X294.566Y-97.79
X294.566Y-100.33
X294.566Y-102.87
X294.566Y-105.41
X294.566Y-107.95
X294.566Y-110.49
X294.566Y-113.03
X294.566Y-115.57
X294.566Y-118.11
X294.566Y-120.65
X294.566Y-123.19
X294.566Y-125.73
X294.566Y-128.27
X294.566Y-130.81
X294.566Y-133.35
X294.566Y-135.89
X294.566Y-138.43
X294.566Y-140.97
X294.566Y-143.51
X294.566Y-146.05
X294.566Y-148.59
X294.566Y-151.13
X294.566Y-153.67
X294.566Y-156.21
X294.566Y-158.75
X294.566Y-161.29
X294.566Y-163.83
X294.566Y-166.37
X294.566Y-168.91
T5
X132.748Y-51.816
X134.748Y-51.816
X136.748Y-51.816
X138.748Y-51.816
X140.748Y-51.816
X142.748Y-51.816
X146.812Y-51.816
X148.812Y-51.816
X150.812Y-51.816
X152.812Y-51.816
X162.052Y-51.816
X164.052Y-51.816
X166.052Y-51.816
X168.052Y-51.816
T6
X152.36Y-49.976
T7
X120.65Y-49.022
X123.19Y-49.022
X125.73Y-49.022
X128.27Y-49.022
T8
X8.664Y-135.626
X57.912Y-50.038
X81.788Y-168.402
X101.854Y-100.33
X160.02Y-129.54
X195.834Y-82.296
X219.71Y-168.402
X242.316Y-50.038
X291.592Y-108.966
T2
X17.644Y-75.853G85X18.344Y-75.853
G05
X17.644Y-97.57G85X18.344Y-97.57
G05
X17.644Y-119.16G85X18.344Y-119.16
G05
X21.327Y-54.39G85X22.027Y-54.39
G05
X36.948Y-74.71G85X37.648Y-74.71
G05
X36.948Y-94.014G85X37.648Y-94.014
G05
X36.948Y-113.318G85X37.648Y-113.318
G05
X36.948Y-136.178G85X37.648Y-136.178
G05
X40.631Y-55.406G85X41.331Y-55.406
G05
X56.252Y-78.139G85X56.952Y-78.139
G05
X56.252Y-97.443G85X56.952Y-97.443
G05
X56.252Y-116.874G85X56.952Y-116.874
G05
X56.252Y-136.178G85X56.952Y-136.178
G05
X59.935Y-58.962G85X60.635Y-58.962
G05
X75.556Y-81.695G85X76.256Y-81.695
G05
X75.556Y-100.999G85X76.256Y-100.999
G05
X75.556Y-120.43G85X76.256Y-120.43
G05
X75.556Y-139.48G85X76.256Y-139.48
G05
X79.239Y-62.391G85X79.939Y-62.391
G05
X94.86Y-85.251G85X95.56Y-85.251
G05
X94.86Y-104.809G85X95.56Y-104.809
G05
X94.86Y-123.859G85X95.56Y-123.859
G05
X94.86Y-143.29G85X95.56Y-143.29
G05
X94.86Y-159.546G85X95.56Y-159.546
G05
X98.543Y-65.947G85X99.243Y-65.947
G05
X114.164Y-88.934G85X114.864Y-88.934
G05
X114.164Y-108.238G85X114.864Y-108.238
G05
X114.164Y-127.542G85X114.864Y-127.542
G05
X114.164Y-146.846G85X114.864Y-146.846
G05
X117.847Y-69.63G85X118.547Y-69.63
G05
X133.468Y-93.506G85X134.168Y-93.506
G05
X133.468Y-112.81G85X134.168Y-112.81
G05
X133.468Y-132.114G85X134.168Y-132.114
G05
X133.468Y-151.418G85X134.168Y-151.418
G05
X137.151Y-74.075G85X137.851Y-74.075
G05
X152.772Y-95.157G85X153.472Y-95.157
G05
X152.772Y-114.588G85X153.472Y-114.588
G05
X152.772Y-133.892G85X153.472Y-133.892
G05
X152.772Y-153.196G85X153.472Y-153.196
G05
X167.25Y-74.202G85X167.95Y-74.202
G05
X172.076Y-93.506G85X172.776Y-93.506
G05
X172.076Y-112.81G85X172.776Y-112.81
G05
X172.076Y-132.114G85X172.776Y-132.114
G05
X172.076Y-151.418G85X172.776Y-151.418
G05
X186.554Y-69.63G85X187.254Y-69.63
G05
X191.38Y-88.934G85X192.08Y-88.934
G05
X191.38Y-108.238G85X192.08Y-108.238
G05
X191.38Y-127.542G85X192.08Y-127.542
G05
X191.38Y-146.846G85X192.08Y-146.846
G05
X205.858Y-65.82G85X206.558Y-65.82
G05
X210.684Y-85.378G85X211.384Y-85.378
G05
X210.684Y-104.682G85X211.384Y-104.682
G05
X210.684Y-123.986G85X211.384Y-123.986
G05
X210.938Y-143.29G85X211.638Y-143.29
G05
X210.938Y-159.546G85X211.638Y-159.546
G05
X225.162Y-62.518G85X225.862Y-62.518
G05
X229.988Y-81.822G85X230.688Y-81.822
G05
X229.988Y-101.126G85X230.688Y-101.126
G05
X229.988Y-120.43G85X230.688Y-120.43
G05
X229.988Y-139.734G85X230.688Y-139.734
G05
X244.466Y-58.962G85X245.166Y-58.962
G05
X249.292Y-78.266G85X249.992Y-78.266
G05
X249.292Y-97.57G85X249.992Y-97.57
G05
X249.292Y-116.874G85X249.992Y-116.874
G05
X249.292Y-135.924G85X249.992Y-135.924
G05
X249.292Y-155.482G85X249.992Y-155.482
G05
X263.77Y-55.406G85X264.47Y-55.406
G05
X268.596Y-74.71G85X269.296Y-74.71
G05
X268.596Y-94.014G85X269.296Y-94.014
G05
X268.596Y-113.318G85X269.296Y-113.318
G05
X268.596Y-135.67G85X269.296Y-135.67
G05
X268.596Y-155.228G85X269.296Y-155.228
G05
X283.074Y-54.39G85X283.774Y-54.39
G05
X287.9Y-73.694G85X288.6Y-73.694
G05
X287.9Y-92.744G85X288.6Y-92.744
G05
X287.9Y-114.588G85X288.6Y-114.588
G05
X287.9Y-135.924G85X288.6Y-135.924
G05
X287.9Y-155.482G85X288.6Y-155.482
G05
T3
X146.36Y-47.627G85X146.36Y-46.926
G05
X153.36Y-46.926G85X153.36Y-47.627
G05
T4
X11.494Y-78.623G85X11.994Y-78.623
G05
X11.494Y-100.34G85X11.994Y-100.34
G05
X11.494Y-121.93G85X11.994Y-121.93
G05
X15.177Y-57.16G85X15.677Y-57.16
G05
X30.798Y-77.48G85X31.298Y-77.48
G05
X30.798Y-96.784G85X31.298Y-96.784
G05
X30.798Y-116.088G85X31.298Y-116.088
G05
X30.798Y-138.948G85X31.298Y-138.948
G05
X34.481Y-58.176G85X34.981Y-58.176
G05
X50.102Y-80.909G85X50.602Y-80.909
G05
X50.102Y-100.213G85X50.602Y-100.213
G05
X50.102Y-119.644G85X50.602Y-119.644
G05
X50.102Y-138.948G85X50.602Y-138.948
G05
X53.785Y-61.732G85X54.285Y-61.732
G05
X69.406Y-84.465G85X69.906Y-84.465
G05
X69.406Y-103.769G85X69.906Y-103.769
G05
X69.406Y-123.2G85X69.906Y-123.2
G05
X69.406Y-142.25G85X69.906Y-142.25
G05
X73.089Y-65.161G85X73.589Y-65.161
G05
X88.71Y-88.021G85X89.21Y-88.021
G05
X88.71Y-107.579G85X89.21Y-107.579
G05
X88.71Y-126.629G85X89.21Y-126.629
G05
X88.71Y-146.06G85X89.21Y-146.06
G05
X88.71Y-162.316G85X89.21Y-162.316
G05
X92.393Y-68.717G85X92.893Y-68.717
G05
X108.014Y-91.704G85X108.514Y-91.704
G05
X108.014Y-111.008G85X108.514Y-111.008
G05
X108.014Y-130.312G85X108.514Y-130.312
G05
X108.014Y-149.616G85X108.514Y-149.616
G05
X111.697Y-72.4G85X112.197Y-72.4
G05
X127.318Y-96.276G85X127.818Y-96.276
G05
X127.318Y-115.58G85X127.818Y-115.58
G05
X127.318Y-134.884G85X127.818Y-134.884
G05
X127.318Y-154.188G85X127.818Y-154.188
G05
X131.001Y-76.845G85X131.501Y-76.845
G05
X146.622Y-97.927G85X147.122Y-97.927
G05
X146.622Y-117.358G85X147.122Y-117.358
G05
X146.622Y-136.662G85X147.122Y-136.662
G05
X146.622Y-155.966G85X147.122Y-155.966
G05
X161.1Y-76.972G85X161.6Y-76.972
G05
X165.926Y-96.276G85X166.426Y-96.276
G05
X165.926Y-115.58G85X166.426Y-115.58
G05
X165.926Y-134.884G85X166.426Y-134.884
G05
X165.926Y-154.188G85X166.426Y-154.188
G05
X180.404Y-72.4G85X180.904Y-72.4
G05
X185.23Y-91.704G85X185.73Y-91.704
G05
X185.23Y-111.008G85X185.73Y-111.008
G05
X185.23Y-130.312G85X185.73Y-130.312
G05
X185.23Y-149.616G85X185.73Y-149.616
G05
X199.708Y-68.59G85X200.208Y-68.59
G05
X204.534Y-88.148G85X205.034Y-88.148
G05
X204.534Y-107.452G85X205.034Y-107.452
G05
X204.534Y-126.756G85X205.034Y-126.756
G05
X204.788Y-146.06G85X205.288Y-146.06
G05
X204.788Y-162.316G85X205.288Y-162.316
G05
X219.012Y-65.288G85X219.512Y-65.288
G05
X223.838Y-84.592G85X224.338Y-84.592
G05
X223.838Y-103.896G85X224.338Y-103.896
G05
X223.838Y-123.2G85X224.338Y-123.2
G05
X223.838Y-142.504G85X224.338Y-142.504
G05
X238.316Y-61.732G85X238.816Y-61.732
G05
X243.142Y-81.036G85X243.642Y-81.036
G05
X243.142Y-100.34G85X243.642Y-100.34
G05
X243.142Y-119.644G85X243.642Y-119.644
G05
X243.142Y-138.694G85X243.642Y-138.694
G05
X243.142Y-158.252G85X243.642Y-158.252
G05
X257.62Y-58.176G85X258.12Y-58.176
G05
X262.446Y-77.48G85X262.946Y-77.48
G05
X262.446Y-96.784G85X262.946Y-96.784
G05
X262.446Y-116.088G85X262.946Y-116.088
G05
X262.446Y-138.44G85X262.946Y-138.44
G05
X262.446Y-157.998G85X262.946Y-157.998
G05
X276.924Y-57.16G85X277.424Y-57.16
G05
X281.75Y-76.464G85X282.25Y-76.464
G05
X281.75Y-95.514G85X282.25Y-95.514
G05
X281.75Y-117.358G85X282.25Y-117.358
G05
X281.75Y-138.694G85X282.25Y-138.694
G05
X281.75Y-158.252G85X282.25Y-158.252
G05
T0
M30
