M48
; DRILL file {KiCad 5.1.9+dfsg1-1+deb11u1} date Mon Oct  3 13:35:54 2022
; FORMAT={-:-/ absolute / metric / decimal}
; #@! TF.CreationDate,2022-10-03T13:35:54+02:00
; #@! TF.GenerationSoftware,Kicad,Pcbnew,5.1.9+dfsg1-1+deb11u1
; #@! TF.FileFunction,Plated,1,2,PTH
FMAT,2
METRIC
T1C0.400
T2C0.500
T3C0.600
T4C0.700
T5C0.800
T6C0.850
T7C1.000
T8C2.700
%
G90
G05
T1
X17.85Y-55.57
X29.82Y-56.57
X31.77Y-65.48
X38.15Y-57.03
X49.22Y-58.32
X57.11Y-59.37
X62.14Y-116.82
X65.024Y-141.224
X71.29Y-59.73
X78.1Y-64.28
X87.757Y-61.595
X91.44Y-161.798
X96.35Y-67.21
X102.97Y-122.93
X104.648Y-164.084
X115.6Y-69.83
X122.3Y-128.51
X122.48Y-77.43
X125.27Y-161.95
X125.603Y-70.231
X129.82Y-122.62
X129.92Y-130.64
X130.54Y-142.38
X130.8Y-103.06
X131.3Y-152.31
X131.63Y-147.01
X134.239Y-68.453
X135.31Y-84.05
X135.636Y-107.188
X135.77Y-154.03
X136.017Y-65.278
X136.398Y-145.542
X136.652Y-63.754
X136.652Y-149.098
X136.82Y-129.83
X137.414Y-126.492
X138.86Y-159.78
X139.192Y-63.627
X141.13Y-147.35
X141.45Y-151.17
X144.43Y-153.65
X144.78Y-126.492
X145.034Y-74.676
X145.542Y-108.204
X145.542Y-146.812
X145.542Y-151.13
X145.77Y-132.91
X146.685Y-71.755
X147.65Y-161.35
X148.336Y-70.358
X150.08Y-93.14
X150.17Y-153.88
X150.52Y-143.5
X150.61Y-124.34
X151.892Y-66.548
X152.654Y-61.976
X153.543Y-54.991
X154.11Y-111.3
X154.14Y-69.596
X154.178Y-71.374
X155.448Y-60.706
X157.226Y-59.69
X157.24Y-75.1
X157.799Y-73.409
X158.369Y-70.993
X159.004Y-56.642
X160.274Y-89.408
X160.274Y-159.258
X161.798Y-68.58
X162.49Y-96.47
X163.04Y-74.71
X163.29Y-109.56
X163.322Y-105.156
X163.59Y-84.76
X166.624Y-67.564
X166.96Y-159.75
X169.29Y-164.36
X169.418Y-128.016
X170.44Y-141.44
X170.68Y-122.01
X172.593Y-79.502
X175.387Y-82.169
X176.657Y-72.39
X176.784Y-79.375
X178.53Y-134.84
X178.9Y-111.59
X180.34Y-91.186
X181.99Y-97.09
X189.47Y-98.79
X193.675Y-73.66
X195.46Y-164.23
X198.12Y-129.18
X199.06Y-111.59
X203.19Y-65.59
X211.709Y-73.66
X216.0Y-160.33
X218.74Y-128.89
X239.06Y-126.56
X250.97Y-63.27
X272.29Y-63.48
T5
X132.748Y-51.816
X134.748Y-51.816
X136.748Y-51.816
X138.748Y-51.816
X140.748Y-51.816
X142.748Y-51.816
X146.812Y-51.816
X148.812Y-51.816
X150.812Y-51.816
X152.812Y-51.816
X162.052Y-51.816
X164.052Y-51.816
X166.052Y-51.816
X168.052Y-51.816
T6
X152.36Y-49.976
T7
X120.65Y-49.022
X123.19Y-49.022
X125.73Y-49.022
X128.27Y-49.022
T8
X9.144Y-135.636
X57.912Y-50.038
X81.788Y-168.402
X101.854Y-100.33
X160.02Y-129.54
X195.834Y-82.296
X219.71Y-168.402
X242.316Y-50.038
X291.592Y-108.966
T2
X17.644Y-75.853G85X18.344Y-75.853
G05
X17.644Y-97.57G85X18.344Y-97.57
G05
X17.644Y-119.16G85X18.344Y-119.16
G05
X21.327Y-54.39G85X22.027Y-54.39
G05
X36.948Y-74.71G85X37.648Y-74.71
G05
X36.948Y-94.014G85X37.648Y-94.014
G05
X36.948Y-113.318G85X37.648Y-113.318
G05
X36.948Y-136.178G85X37.648Y-136.178
G05
X40.631Y-55.406G85X41.331Y-55.406
G05
X56.252Y-78.139G85X56.952Y-78.139
G05
X56.252Y-97.443G85X56.952Y-97.443
G05
X56.252Y-116.874G85X56.952Y-116.874
G05
X56.252Y-136.178G85X56.952Y-136.178
G05
X59.935Y-58.962G85X60.635Y-58.962
G05
X75.556Y-81.695G85X76.256Y-81.695
G05
X75.556Y-100.999G85X76.256Y-100.999
G05
X75.556Y-120.43G85X76.256Y-120.43
G05
X75.556Y-139.48G85X76.256Y-139.48
G05
X79.239Y-62.391G85X79.939Y-62.391
G05
X94.86Y-85.251G85X95.56Y-85.251
G05
X94.86Y-104.809G85X95.56Y-104.809
G05
X94.86Y-123.859G85X95.56Y-123.859
G05
X94.86Y-143.29G85X95.56Y-143.29
G05
X94.86Y-159.546G85X95.56Y-159.546
G05
X98.543Y-65.947G85X99.243Y-65.947
G05
X114.164Y-88.934G85X114.864Y-88.934
G05
X114.164Y-108.238G85X114.864Y-108.238
G05
X114.164Y-127.542G85X114.864Y-127.542
G05
X114.164Y-146.846G85X114.864Y-146.846
G05
X117.847Y-69.63G85X118.547Y-69.63
G05
X133.468Y-93.506G85X134.168Y-93.506
G05
X133.468Y-112.81G85X134.168Y-112.81
G05
X133.468Y-132.114G85X134.168Y-132.114
G05
X133.468Y-151.418G85X134.168Y-151.418
G05
X137.151Y-74.075G85X137.851Y-74.075
G05
X152.772Y-95.157G85X153.472Y-95.157
G05
X152.772Y-114.588G85X153.472Y-114.588
G05
X152.772Y-133.892G85X153.472Y-133.892
G05
X152.772Y-153.196G85X153.472Y-153.196
G05
X167.25Y-74.202G85X167.95Y-74.202
G05
X172.076Y-93.506G85X172.776Y-93.506
G05
X172.076Y-112.81G85X172.776Y-112.81
G05
X172.076Y-132.114G85X172.776Y-132.114
G05
X172.076Y-151.418G85X172.776Y-151.418
G05
X186.554Y-69.63G85X187.254Y-69.63
G05
X191.38Y-88.934G85X192.08Y-88.934
G05
X191.38Y-108.238G85X192.08Y-108.238
G05
X191.38Y-127.542G85X192.08Y-127.542
G05
X191.38Y-146.846G85X192.08Y-146.846
G05
X205.858Y-65.82G85X206.558Y-65.82
G05
X210.684Y-85.378G85X211.384Y-85.378
G05
X210.684Y-104.682G85X211.384Y-104.682
G05
X210.684Y-123.986G85X211.384Y-123.986
G05
X210.938Y-143.29G85X211.638Y-143.29
G05
X210.938Y-159.546G85X211.638Y-159.546
G05
X225.162Y-62.518G85X225.862Y-62.518
G05
X229.988Y-81.822G85X230.688Y-81.822
G05
X229.988Y-101.126G85X230.688Y-101.126
G05
X229.988Y-120.43G85X230.688Y-120.43
G05
X229.988Y-139.734G85X230.688Y-139.734
G05
X244.466Y-58.962G85X245.166Y-58.962
G05
X249.292Y-78.266G85X249.992Y-78.266
G05
X249.292Y-97.57G85X249.992Y-97.57
G05
X249.292Y-116.874G85X249.992Y-116.874
G05
X249.292Y-135.924G85X249.992Y-135.924
G05
X249.292Y-155.482G85X249.992Y-155.482
G05
X263.77Y-55.406G85X264.47Y-55.406
G05
X268.596Y-74.71G85X269.296Y-74.71
G05
X268.596Y-94.014G85X269.296Y-94.014
G05
X268.596Y-113.318G85X269.296Y-113.318
G05
X268.596Y-135.67G85X269.296Y-135.67
G05
X268.596Y-155.228G85X269.296Y-155.228
G05
X283.074Y-54.39G85X283.774Y-54.39
G05
X287.9Y-73.694G85X288.6Y-73.694
G05
X287.9Y-92.744G85X288.6Y-92.744
G05
X287.9Y-114.588G85X288.6Y-114.588
G05
X287.9Y-135.924G85X288.6Y-135.924
G05
X287.9Y-155.482G85X288.6Y-155.482
G05
T3
X146.36Y-47.627G85X146.36Y-46.926
G05
X153.36Y-46.926G85X153.36Y-47.627
G05
T4
X11.494Y-78.623G85X11.994Y-78.623
G05
X11.494Y-100.34G85X11.994Y-100.34
G05
X11.494Y-121.93G85X11.994Y-121.93
G05
X15.177Y-57.16G85X15.677Y-57.16
G05
X30.798Y-77.48G85X31.298Y-77.48
G05
X30.798Y-96.784G85X31.298Y-96.784
G05
X30.798Y-116.088G85X31.298Y-116.088
G05
X30.798Y-138.948G85X31.298Y-138.948
G05
X34.481Y-58.176G85X34.981Y-58.176
G05
X50.102Y-80.909G85X50.602Y-80.909
G05
X50.102Y-100.213G85X50.602Y-100.213
G05
X50.102Y-119.644G85X50.602Y-119.644
G05
X50.102Y-138.948G85X50.602Y-138.948
G05
X53.785Y-61.732G85X54.285Y-61.732
G05
X69.406Y-84.465G85X69.906Y-84.465
G05
X69.406Y-103.769G85X69.906Y-103.769
G05
X69.406Y-123.2G85X69.906Y-123.2
G05
X69.406Y-142.25G85X69.906Y-142.25
G05
X73.089Y-65.161G85X73.589Y-65.161
G05
X88.71Y-88.021G85X89.21Y-88.021
G05
X88.71Y-107.579G85X89.21Y-107.579
G05
X88.71Y-126.629G85X89.21Y-126.629
G05
X88.71Y-146.06G85X89.21Y-146.06
G05
X88.71Y-162.316G85X89.21Y-162.316
G05
X92.393Y-68.717G85X92.893Y-68.717
G05
X108.014Y-91.704G85X108.514Y-91.704
G05
X108.014Y-111.008G85X108.514Y-111.008
G05
X108.014Y-130.312G85X108.514Y-130.312
G05
X108.014Y-149.616G85X108.514Y-149.616
G05
X111.697Y-72.4G85X112.197Y-72.4
G05
X127.318Y-96.276G85X127.818Y-96.276
G05
X127.318Y-115.58G85X127.818Y-115.58
G05
X127.318Y-134.884G85X127.818Y-134.884
G05
X127.318Y-154.188G85X127.818Y-154.188
G05
X131.001Y-76.845G85X131.501Y-76.845
G05
X146.622Y-97.927G85X147.122Y-97.927
G05
X146.622Y-117.358G85X147.122Y-117.358
G05
X146.622Y-136.662G85X147.122Y-136.662
G05
X146.622Y-155.966G85X147.122Y-155.966
G05
X161.1Y-76.972G85X161.6Y-76.972
G05
X165.926Y-96.276G85X166.426Y-96.276
G05
X165.926Y-115.58G85X166.426Y-115.58
G05
X165.926Y-134.884G85X166.426Y-134.884
G05
X165.926Y-154.188G85X166.426Y-154.188
G05
X180.404Y-72.4G85X180.904Y-72.4
G05
X185.23Y-91.704G85X185.73Y-91.704
G05
X185.23Y-111.008G85X185.73Y-111.008
G05
X185.23Y-130.312G85X185.73Y-130.312
G05
X185.23Y-149.616G85X185.73Y-149.616
G05
X199.708Y-68.59G85X200.208Y-68.59
G05
X204.534Y-88.148G85X205.034Y-88.148
G05
X204.534Y-107.452G85X205.034Y-107.452
G05
X204.534Y-126.756G85X205.034Y-126.756
G05
X204.788Y-146.06G85X205.288Y-146.06
G05
X204.788Y-162.316G85X205.288Y-162.316
G05
X219.012Y-65.288G85X219.512Y-65.288
G05
X223.838Y-84.592G85X224.338Y-84.592
G05
X223.838Y-103.896G85X224.338Y-103.896
G05
X223.838Y-123.2G85X224.338Y-123.2
G05
X223.838Y-142.504G85X224.338Y-142.504
G05
X238.316Y-61.732G85X238.816Y-61.732
G05
X243.142Y-81.036G85X243.642Y-81.036
G05
X243.142Y-100.34G85X243.642Y-100.34
G05
X243.142Y-119.644G85X243.642Y-119.644
G05
X243.142Y-138.694G85X243.642Y-138.694
G05
X243.142Y-158.252G85X243.642Y-158.252
G05
X257.62Y-58.176G85X258.12Y-58.176
G05
X262.446Y-77.48G85X262.946Y-77.48
G05
X262.446Y-96.784G85X262.946Y-96.784
G05
X262.446Y-116.088G85X262.946Y-116.088
G05
X262.446Y-138.44G85X262.946Y-138.44
G05
X262.446Y-157.998G85X262.946Y-157.998
G05
X276.924Y-57.16G85X277.424Y-57.16
G05
X281.75Y-76.464G85X282.25Y-76.464
G05
X281.75Y-95.514G85X282.25Y-95.514
G05
X281.75Y-117.358G85X282.25Y-117.358
G05
X281.75Y-138.694G85X282.25Y-138.694
G05
X281.75Y-158.252G85X282.25Y-158.252
G05
T0
M30
