G04 #@! TF.GenerationSoftware,KiCad,Pcbnew,(6.99.0-1603-g82820d4b1c)*
G04 #@! TF.CreationDate,2022-06-17T11:00:42+02:00*
G04 #@! TF.ProjectId,BalthazarKeyboard3-keycaps,42616c74-6861-47a6-9172-4b6579626f61,rev?*
G04 #@! TF.SameCoordinates,Original*
G04 #@! TF.FileFunction,Soldermask,Bot*
G04 #@! TF.FilePolarity,Negative*
%FSLAX46Y46*%
G04 Gerber Fmt 4.6, Leading zero omitted, Abs format (unit mm)*
G04 Created by KiCad (PCBNEW (6.99.0-1603-g82820d4b1c)) date 2022-06-17 11:00:42*
%MOMM*%
%LPD*%
G01*
G04 APERTURE LIST*
G04 Aperture macros list*
%AMRoundRect*
0 Rectangle with rounded corners*
0 $1 Rounding radius*
0 $2 $3 $4 $5 $6 $7 $8 $9 X,Y pos of 4 corners*
0 Add a 4 corners polygon primitive as box body*
4,1,4,$2,$3,$4,$5,$6,$7,$8,$9,$2,$3,0*
0 Add four circle primitives for the rounded corners*
1,1,$1+$1,$2,$3*
1,1,$1+$1,$4,$5*
1,1,$1+$1,$6,$7*
1,1,$1+$1,$8,$9*
0 Add four rect primitives between the rounded corners*
20,1,$1+$1,$2,$3,$4,$5,0*
20,1,$1+$1,$4,$5,$6,$7,0*
20,1,$1+$1,$6,$7,$8,$9,0*
20,1,$1+$1,$8,$9,$2,$3,0*%
G04 Aperture macros list end*
%ADD10C,1.852000*%
%ADD11O,1.602000X2.302000*%
%ADD12O,1.802000X2.302000*%
%ADD13C,4.102000*%
%ADD14RoundRect,0.051000X-0.275000X0.750000X-0.275000X-0.750000X0.275000X-0.750000X0.275000X0.750000X0*%
%ADD15RoundRect,0.051000X0.750000X0.275000X-0.750000X0.275000X-0.750000X-0.275000X0.750000X-0.275000X0*%
%ADD16RoundRect,0.051000X-0.750000X-0.950000X0.750000X-0.950000X0.750000X0.950000X-0.750000X0.950000X0*%
%ADD17RoundRect,0.051000X-0.200000X-0.675000X0.200000X-0.675000X0.200000X0.675000X-0.200000X0.675000X0*%
%ADD18C,1.552000*%
%ADD19O,1.302000X2.002000*%
%ADD20RoundRect,0.051000X-0.600000X-0.950000X0.600000X-0.950000X0.600000X0.950000X-0.600000X0.950000X0*%
%ADD21C,4.802000*%
%ADD22RoundRect,0.301000X-0.375000X-0.625000X0.375000X-0.625000X0.375000X0.625000X-0.375000X0.625000X0*%
%ADD23RoundRect,0.301000X0.375000X0.625000X-0.375000X0.625000X-0.375000X-0.625000X0.375000X-0.625000X0*%
%ADD24O,1.452000X1.452000*%
%ADD25RoundRect,0.051000X-0.675000X0.675000X-0.675000X-0.675000X0.675000X-0.675000X0.675000X0.675000X0*%
%ADD26RoundRect,0.301000X0.625000X-0.375000X0.625000X0.375000X-0.625000X0.375000X-0.625000X-0.375000X0*%
%ADD27RoundRect,0.301000X-0.625000X0.375000X-0.625000X-0.375000X0.625000X-0.375000X0.625000X0.375000X0*%
%ADD28RoundRect,0.051000X-1.513209X-0.502046X-0.502046X-1.513209X1.513209X0.502046X0.502046X1.513209X0*%
%ADD29RoundRect,0.301000X-0.176777X0.707107X-0.707107X0.176777X0.176777X-0.707107X0.707107X-0.176777X0*%
%ADD30RoundRect,0.051000X-0.750000X-0.750000X0.750000X-0.750000X0.750000X0.750000X-0.750000X0.750000X0*%
%ADD31RoundRect,0.294750X-0.494975X-0.150260X-0.150260X-0.494975X0.494975X0.150260X0.150260X0.494975X0*%
%ADD32RoundRect,0.294750X0.150260X-0.494975X0.494975X-0.150260X-0.150260X0.494975X-0.494975X0.150260X0*%
%ADD33RoundRect,0.051000X0.675000X-0.675000X0.675000X0.675000X-0.675000X0.675000X-0.675000X-0.675000X0*%
%ADD34RoundRect,0.051000X0.850000X-0.850000X0.850000X0.850000X-0.850000X0.850000X-0.850000X-0.850000X0*%
%ADD35O,1.802000X1.802000*%
G04 APERTURE END LIST*
D10*
X247142000Y-107860000D03*
X247142000Y-97880000D03*
D11*
X252441999Y-105369999D03*
D12*
X249671999Y-99119999D03*
D13*
X247142000Y-102870000D03*
D10*
X131318000Y-161708000D03*
X131318000Y-151728000D03*
D11*
X136617999Y-159217999D03*
D12*
X133847999Y-152967999D03*
D13*
X131318000Y-156718000D03*
D10*
X247142000Y-146214000D03*
X247142000Y-136234000D03*
D11*
X252441999Y-143723999D03*
D12*
X249671999Y-137473999D03*
D13*
X247142000Y-141224000D03*
D10*
X19177000Y-64680000D03*
X19177000Y-54700000D03*
D11*
X24476999Y-62189999D03*
D12*
X21706999Y-55939999D03*
D13*
X19177000Y-59690000D03*
D10*
X38481000Y-65696000D03*
X38481000Y-55716000D03*
D11*
X43780999Y-63205999D03*
D12*
X41010999Y-56955999D03*
D13*
X38481000Y-60706000D03*
D10*
X57785000Y-69252000D03*
X57785000Y-59272000D03*
D11*
X63084999Y-66761999D03*
D12*
X60314999Y-60511999D03*
D13*
X57785000Y-64262000D03*
D10*
X77089000Y-72681000D03*
X77089000Y-62701000D03*
D11*
X82388999Y-70190999D03*
D12*
X79618999Y-63940999D03*
D13*
X77089000Y-67691000D03*
D10*
X96393000Y-76237000D03*
X96393000Y-66257000D03*
D11*
X101692999Y-73746999D03*
D12*
X98922999Y-67496999D03*
D13*
X96393000Y-71247000D03*
D10*
X115697000Y-79920000D03*
X115697000Y-69940000D03*
D11*
X120996999Y-77429999D03*
D12*
X118226999Y-71179999D03*
D13*
X115697000Y-74930000D03*
D10*
X135001000Y-84365000D03*
X135001000Y-74385000D03*
D11*
X140300999Y-81874999D03*
D12*
X137530999Y-75624999D03*
D13*
X135001000Y-79375000D03*
D10*
X34798000Y-85000000D03*
X34798000Y-75020000D03*
D11*
X40097999Y-82509999D03*
D12*
X37327999Y-76259999D03*
D13*
X34798000Y-80010000D03*
D10*
X54102000Y-88429000D03*
X54102000Y-78449000D03*
D11*
X59401999Y-85938999D03*
D12*
X56631999Y-79688999D03*
D13*
X54102000Y-83439000D03*
D10*
X73406000Y-91985000D03*
X73406000Y-82005000D03*
D11*
X78705999Y-89494999D03*
D12*
X75935999Y-83244999D03*
D13*
X73406000Y-86995000D03*
D10*
X92710000Y-95541000D03*
X92710000Y-85561000D03*
D11*
X98009999Y-93050999D03*
D12*
X95239999Y-86800999D03*
D13*
X92710000Y-90551000D03*
D10*
X112014000Y-99224000D03*
X112014000Y-89244000D03*
D11*
X117313999Y-96733999D03*
D12*
X114543999Y-90483999D03*
D13*
X112014000Y-94234000D03*
D10*
X131318000Y-103796000D03*
X131318000Y-93816000D03*
D11*
X136617999Y-101305999D03*
D12*
X133847999Y-95055999D03*
D13*
X131318000Y-98806000D03*
D10*
X150622000Y-105447000D03*
X150622000Y-95467000D03*
D11*
X155921999Y-102956999D03*
D12*
X153151999Y-96706999D03*
D13*
X150622000Y-100457000D03*
D10*
X15494000Y-86143000D03*
X15494000Y-76163000D03*
D11*
X20793999Y-83652999D03*
D12*
X18023999Y-77402999D03*
D13*
X15494000Y-81153000D03*
D10*
X54102000Y-107733000D03*
X54102000Y-97753000D03*
D11*
X59401999Y-105242999D03*
D12*
X56631999Y-98992999D03*
D13*
X54102000Y-102743000D03*
D10*
X73406000Y-111289000D03*
X73406000Y-101309000D03*
D11*
X78705999Y-108798999D03*
D12*
X75935999Y-102548999D03*
D13*
X73406000Y-106299000D03*
D10*
X92710000Y-115099000D03*
X92710000Y-105119000D03*
D11*
X98009999Y-112608999D03*
D12*
X95239999Y-106358999D03*
D13*
X92710000Y-110109000D03*
D10*
X112014000Y-118528000D03*
X112014000Y-108548000D03*
D11*
X117313999Y-116037999D03*
D12*
X114543999Y-109787999D03*
D13*
X112014000Y-113538000D03*
D10*
X131318000Y-123100000D03*
X131318000Y-113120000D03*
D11*
X136617999Y-120609999D03*
D12*
X133847999Y-114359999D03*
D13*
X131318000Y-118110000D03*
D10*
X150622000Y-124878000D03*
X150622000Y-114898000D03*
D11*
X155921999Y-122387999D03*
D12*
X153151999Y-116137999D03*
D13*
X150622000Y-119888000D03*
D10*
X34798000Y-104304000D03*
X34798000Y-94324000D03*
D11*
X40097999Y-101813999D03*
D12*
X37327999Y-95563999D03*
D13*
X34798000Y-99314000D03*
D10*
X54102000Y-127164000D03*
X54102000Y-117184000D03*
D11*
X59401999Y-124673999D03*
D12*
X56631999Y-118423999D03*
D13*
X54102000Y-122174000D03*
D10*
X73406000Y-130720000D03*
X73406000Y-120740000D03*
D11*
X78705999Y-128229999D03*
D12*
X75935999Y-121979999D03*
D13*
X73406000Y-125730000D03*
D10*
X92710000Y-134149000D03*
X92710000Y-124169000D03*
D11*
X98009999Y-131658999D03*
D12*
X95239999Y-125408999D03*
D13*
X92710000Y-129159000D03*
D10*
X112014000Y-137832000D03*
X112014000Y-127852000D03*
D11*
X117313999Y-135341999D03*
D12*
X114543999Y-129091999D03*
D13*
X112014000Y-132842000D03*
D10*
X131318000Y-142404000D03*
X131318000Y-132424000D03*
D11*
X136617999Y-139913999D03*
D12*
X133847999Y-133663999D03*
D13*
X131318000Y-137414000D03*
D10*
X150622000Y-144182000D03*
X150622000Y-134202000D03*
D11*
X155921999Y-141691999D03*
D12*
X153151999Y-135441999D03*
D13*
X150622000Y-139192000D03*
D10*
X15494000Y-107860000D03*
X15494000Y-97880000D03*
D11*
X20793999Y-105369999D03*
D12*
X18023999Y-99119999D03*
D13*
X15494000Y-102870000D03*
D10*
X54102000Y-146468000D03*
X54102000Y-136488000D03*
D11*
X59401999Y-143977999D03*
D12*
X56631999Y-137727999D03*
D13*
X54102000Y-141478000D03*
D10*
X73406000Y-149770000D03*
X73406000Y-139790000D03*
D11*
X78705999Y-147279999D03*
D12*
X75935999Y-141029999D03*
D13*
X73406000Y-144780000D03*
D10*
X92710000Y-153580000D03*
X92710000Y-143600000D03*
D11*
X98009999Y-151089999D03*
D12*
X95239999Y-144839999D03*
D13*
X92710000Y-148590000D03*
D10*
X112014000Y-157136000D03*
X112014000Y-147156000D03*
D11*
X117313999Y-154645999D03*
D12*
X114543999Y-148395999D03*
D13*
X112014000Y-152146000D03*
D10*
X150622000Y-163486000D03*
X150622000Y-153506000D03*
D11*
X155921999Y-160995999D03*
D12*
X153151999Y-154745999D03*
D13*
X150622000Y-158496000D03*
D10*
X15494000Y-129450000D03*
X15494000Y-119470000D03*
D11*
X20793999Y-126959999D03*
D12*
X18023999Y-120709999D03*
D13*
X15494000Y-124460000D03*
D10*
X34798000Y-123608000D03*
X34798000Y-113628000D03*
D11*
X40097999Y-121117999D03*
D12*
X37327999Y-114867999D03*
D13*
X34798000Y-118618000D03*
D10*
X34798000Y-146468000D03*
X34798000Y-136488000D03*
D11*
X40097999Y-143977999D03*
D12*
X37327999Y-137727999D03*
D13*
X34798000Y-141478000D03*
D10*
X92710000Y-169836000D03*
X92710000Y-159856000D03*
D11*
X98009999Y-167345999D03*
D12*
X95239999Y-161095999D03*
D13*
X92710000Y-164846000D03*
D10*
X208788000Y-169836000D03*
X208788000Y-159856000D03*
D11*
X214087999Y-167345999D03*
D12*
X211317999Y-161095999D03*
D13*
X208788000Y-164846000D03*
D10*
X247142000Y-165772000D03*
X247142000Y-155792000D03*
D11*
X252441999Y-163281999D03*
D12*
X249671999Y-157031999D03*
D13*
X247142000Y-160782000D03*
D10*
X266446000Y-165518000D03*
X266446000Y-155538000D03*
D11*
X271745999Y-163027999D03*
D12*
X268975999Y-156777999D03*
D13*
X266446000Y-160528000D03*
D10*
X285750000Y-165772000D03*
X285750000Y-155792000D03*
D11*
X291049999Y-163281999D03*
D12*
X288279999Y-157031999D03*
D13*
X285750000Y-160782000D03*
D10*
X165100000Y-84492000D03*
X165100000Y-74512000D03*
D11*
X170399999Y-82001999D03*
D12*
X167629999Y-75751999D03*
D13*
X165100000Y-79502000D03*
D10*
X184404000Y-79920000D03*
X184404000Y-69940000D03*
D11*
X189703999Y-77429999D03*
D12*
X186933999Y-71179999D03*
D13*
X184404000Y-74930000D03*
D10*
X203708000Y-76110000D03*
X203708000Y-66130000D03*
D11*
X209007999Y-73619999D03*
D12*
X206237999Y-67369999D03*
D13*
X203708000Y-71120000D03*
D10*
X223012000Y-72808000D03*
X223012000Y-62828000D03*
D11*
X228311999Y-70317999D03*
D12*
X225541999Y-64067999D03*
D13*
X223012000Y-67818000D03*
D10*
X242316000Y-69252000D03*
X242316000Y-59272000D03*
D11*
X247615999Y-66761999D03*
D12*
X244845999Y-60511999D03*
D13*
X242316000Y-64262000D03*
D10*
X261620000Y-65696000D03*
X261620000Y-55716000D03*
D11*
X266919999Y-63205999D03*
D12*
X264149999Y-56955999D03*
D13*
X261620000Y-60706000D03*
D10*
X280924000Y-64680000D03*
X280924000Y-54700000D03*
D11*
X286223999Y-62189999D03*
D12*
X283453999Y-55939999D03*
D13*
X280924000Y-59690000D03*
D10*
X169926000Y-103796000D03*
X169926000Y-93816000D03*
D11*
X175225999Y-101305999D03*
D12*
X172455999Y-95055999D03*
D13*
X169926000Y-98806000D03*
D10*
X189230000Y-99224000D03*
X189230000Y-89244000D03*
D11*
X194529999Y-96733999D03*
D12*
X191759999Y-90483999D03*
D13*
X189230000Y-94234000D03*
D10*
X208534000Y-95668000D03*
X208534000Y-85688000D03*
D11*
X213833999Y-93177999D03*
D12*
X211063999Y-86927999D03*
D13*
X208534000Y-90678000D03*
D10*
X227838000Y-92112000D03*
X227838000Y-82132000D03*
D11*
X233137999Y-89621999D03*
D12*
X230367999Y-83371999D03*
D13*
X227838000Y-87122000D03*
D10*
X247142000Y-88556000D03*
X247142000Y-78576000D03*
D11*
X252441999Y-86065999D03*
D12*
X249671999Y-79815999D03*
D13*
X247142000Y-83566000D03*
D10*
X266446000Y-85000000D03*
X266446000Y-75020000D03*
D11*
X271745999Y-82509999D03*
D12*
X268975999Y-76259999D03*
D13*
X266446000Y-80010000D03*
D10*
X285750000Y-83984000D03*
X285750000Y-74004000D03*
D11*
X291049999Y-81493999D03*
D12*
X288279999Y-75243999D03*
D13*
X285750000Y-78994000D03*
D10*
X169926000Y-123100000D03*
X169926000Y-113120000D03*
D11*
X175225999Y-120609999D03*
D12*
X172455999Y-114359999D03*
D13*
X169926000Y-118110000D03*
D10*
X189230000Y-118528000D03*
X189230000Y-108548000D03*
D11*
X194529999Y-116037999D03*
D12*
X191759999Y-109787999D03*
D13*
X189230000Y-113538000D03*
D10*
X208534000Y-114972000D03*
X208534000Y-104992000D03*
D11*
X213833999Y-112481999D03*
D12*
X211063999Y-106231999D03*
D13*
X208534000Y-109982000D03*
D10*
X227838000Y-111416000D03*
X227838000Y-101436000D03*
D11*
X233137999Y-108925999D03*
D12*
X230367999Y-102675999D03*
D13*
X227838000Y-106426000D03*
D10*
X266446000Y-104304000D03*
X266446000Y-94324000D03*
D11*
X271745999Y-101813999D03*
D12*
X268975999Y-95563999D03*
D13*
X266446000Y-99314000D03*
D10*
X285750000Y-103034000D03*
X285750000Y-93054000D03*
D11*
X291049999Y-100543999D03*
D12*
X288279999Y-94293999D03*
D13*
X285750000Y-98044000D03*
D10*
X169926000Y-142404000D03*
X169926000Y-132424000D03*
D11*
X175225999Y-139913999D03*
D12*
X172455999Y-133663999D03*
D13*
X169926000Y-137414000D03*
D10*
X189230000Y-137832000D03*
X189230000Y-127852000D03*
D11*
X194529999Y-135341999D03*
D12*
X191759999Y-129091999D03*
D13*
X189230000Y-132842000D03*
D10*
X208534000Y-134276000D03*
X208534000Y-124296000D03*
D11*
X213833999Y-131785999D03*
D12*
X211063999Y-125535999D03*
D13*
X208534000Y-129286000D03*
D10*
X227838000Y-130720000D03*
X227838000Y-120740000D03*
D11*
X233137999Y-128229999D03*
D12*
X230367999Y-121979999D03*
D13*
X227838000Y-125730000D03*
D10*
X247142000Y-127164000D03*
X247142000Y-117184000D03*
D11*
X252441999Y-124673999D03*
D12*
X249671999Y-118423999D03*
D13*
X247142000Y-122174000D03*
D10*
X266446000Y-123608000D03*
X266446000Y-113628000D03*
D11*
X271745999Y-121117999D03*
D12*
X268975999Y-114867999D03*
D13*
X266446000Y-118618000D03*
D10*
X285750000Y-124878000D03*
X285750000Y-114898000D03*
D11*
X291049999Y-122387999D03*
D12*
X288279999Y-116137999D03*
D13*
X285750000Y-119888000D03*
D10*
X169926000Y-161708000D03*
X169926000Y-151728000D03*
D11*
X175225999Y-159217999D03*
D12*
X172455999Y-152967999D03*
D13*
X169926000Y-156718000D03*
D10*
X189230000Y-157136000D03*
X189230000Y-147156000D03*
D11*
X194529999Y-154645999D03*
D12*
X191759999Y-148395999D03*
D13*
X189230000Y-152146000D03*
D10*
X208788000Y-153580000D03*
X208788000Y-143600000D03*
D11*
X214087999Y-151089999D03*
D12*
X211317999Y-144839999D03*
D13*
X208788000Y-148590000D03*
D10*
X227838000Y-150024000D03*
X227838000Y-140044000D03*
D11*
X233137999Y-147533999D03*
D12*
X230367999Y-141283999D03*
D13*
X227838000Y-145034000D03*
D10*
X266446000Y-145960000D03*
X266446000Y-135980000D03*
D11*
X271745999Y-143469999D03*
D12*
X268975999Y-137219999D03*
D13*
X266446000Y-140970000D03*
D10*
X285750000Y-146214000D03*
X285750000Y-136234000D03*
D11*
X291049999Y-143723999D03*
D12*
X288279999Y-137473999D03*
D13*
X285750000Y-141224000D03*
D14*
X146368000Y-63642000D03*
X147168000Y-63642000D03*
X147968000Y-63642000D03*
X148768000Y-63642000D03*
X149568000Y-63642000D03*
X150368000Y-63642000D03*
X151168000Y-63642000D03*
X151968000Y-63642000D03*
X152768000Y-63642000D03*
X153568000Y-63642000D03*
X154368000Y-63642000D03*
D15*
X156068000Y-65342000D03*
X156068000Y-66142000D03*
X156068000Y-66942000D03*
X156068000Y-67742000D03*
X156068000Y-68542000D03*
X156068000Y-69342000D03*
X156068000Y-70142000D03*
X156068000Y-70942000D03*
X156068000Y-71742000D03*
X156068000Y-72542000D03*
X156068000Y-73342000D03*
D14*
X154368000Y-75042000D03*
X153568000Y-75042000D03*
X152768000Y-75042000D03*
X151968000Y-75042000D03*
X151168000Y-75042000D03*
X150368000Y-75042000D03*
X149568000Y-75042000D03*
X148768000Y-75042000D03*
X147968000Y-75042000D03*
X147168000Y-75042000D03*
X146368000Y-75042000D03*
D15*
X144668000Y-73342000D03*
X144668000Y-72542000D03*
X144668000Y-71742000D03*
X144668000Y-70942000D03*
X144668000Y-70142000D03*
X144668000Y-69342000D03*
X144668000Y-68542000D03*
X144668000Y-67742000D03*
X144668000Y-66942000D03*
X144668000Y-66142000D03*
X144668000Y-65342000D03*
D16*
X150860000Y-47276500D03*
D17*
X149210000Y-49976500D03*
X148560000Y-49976500D03*
X151160000Y-49976500D03*
X150510000Y-49976500D03*
X149860000Y-49976500D03*
D18*
X152360000Y-49976500D03*
D16*
X148860000Y-47276500D03*
D19*
X146359999Y-47276499D03*
X153359999Y-47276499D03*
D20*
X152760000Y-47276500D03*
X146960000Y-47276500D03*
D21*
X101854000Y-100330000D03*
X195834000Y-82296000D03*
X9144000Y-135636000D03*
X291592000Y-108966000D03*
X160020000Y-129540000D03*
D22*
X271656000Y-153924000D03*
X268856000Y-153924000D03*
D23*
X186433000Y-49022000D03*
X189233000Y-49022000D03*
D24*
X168051999Y-51815999D03*
X166051999Y-51815999D03*
X164051999Y-51815999D03*
D25*
X162052000Y-51816000D03*
D26*
X155702000Y-54864000D03*
X155702000Y-57664000D03*
D22*
X24514000Y-66040000D03*
X21714000Y-66040000D03*
X43818000Y-66802000D03*
X41018000Y-66802000D03*
X63122000Y-70358000D03*
X60322000Y-70358000D03*
X82426000Y-73914000D03*
X79626000Y-73914000D03*
X101730000Y-77470000D03*
X98930000Y-77470000D03*
X121034000Y-81280000D03*
X118234000Y-81280000D03*
X140084000Y-85598000D03*
X137284000Y-85598000D03*
X40008000Y-86360000D03*
X37208000Y-86360000D03*
X59312000Y-89662000D03*
X56512000Y-89662000D03*
X78616000Y-93218000D03*
X75816000Y-93218000D03*
X97920000Y-96774000D03*
X95120000Y-96774000D03*
X117224000Y-100584000D03*
X114424000Y-100584000D03*
X136528000Y-104902000D03*
X133728000Y-104902000D03*
X155832000Y-106934000D03*
X153032000Y-106934000D03*
X20704000Y-87376000D03*
X17904000Y-87376000D03*
X59312000Y-108966000D03*
X56512000Y-108966000D03*
X78616000Y-112522000D03*
X75816000Y-112522000D03*
X97920000Y-116332000D03*
X95120000Y-116332000D03*
X117224000Y-119634000D03*
X114424000Y-119634000D03*
X136528000Y-124206000D03*
X133728000Y-124206000D03*
X155832000Y-126238000D03*
X153032000Y-126238000D03*
X40008000Y-105410000D03*
X37208000Y-105410000D03*
X59312000Y-128524000D03*
X56512000Y-128524000D03*
X78616000Y-131826000D03*
X75816000Y-131826000D03*
X97920000Y-135382000D03*
X95120000Y-135382000D03*
X117224000Y-138938000D03*
X114424000Y-138938000D03*
X136528000Y-143510000D03*
X133728000Y-143510000D03*
X155832000Y-145288000D03*
X153032000Y-145288000D03*
X20704000Y-109220000D03*
X17904000Y-109220000D03*
X59312000Y-147574000D03*
X56512000Y-147574000D03*
X78616000Y-150876000D03*
X75816000Y-150876000D03*
X97920000Y-154940000D03*
X95120000Y-154940000D03*
X117224000Y-158242000D03*
X114424000Y-158242000D03*
X136528000Y-162814000D03*
X133728000Y-162814000D03*
X155832000Y-164592000D03*
X153032000Y-164592000D03*
X20704000Y-130556000D03*
X17904000Y-130556000D03*
X40008000Y-124968000D03*
X37208000Y-124968000D03*
X40008000Y-147574000D03*
X37208000Y-147574000D03*
X86874000Y-158750000D03*
X84074000Y-158750000D03*
X252352000Y-154178000D03*
X249552000Y-154178000D03*
X290960000Y-153924000D03*
X288160000Y-153924000D03*
X170310000Y-85852000D03*
X167510000Y-85852000D03*
X189614000Y-81280000D03*
X186814000Y-81280000D03*
X208918000Y-77470000D03*
X206118000Y-77470000D03*
X228222000Y-74168000D03*
X225422000Y-74168000D03*
X247526000Y-70358000D03*
X244726000Y-70358000D03*
X266830000Y-66802000D03*
X264030000Y-66802000D03*
X286134000Y-65786000D03*
X283334000Y-65786000D03*
X175136000Y-104902000D03*
X172336000Y-104902000D03*
X194440000Y-100584000D03*
X191640000Y-100584000D03*
X213744000Y-96774000D03*
X210944000Y-96774000D03*
X233048000Y-93218000D03*
X230248000Y-93218000D03*
X252352000Y-89916000D03*
X249552000Y-89916000D03*
X271656000Y-86106000D03*
X268856000Y-86106000D03*
X290960000Y-85090000D03*
X288160000Y-85090000D03*
X175136000Y-123952000D03*
X172336000Y-123952000D03*
X194440000Y-119634000D03*
X191640000Y-119634000D03*
X213744000Y-116078000D03*
X210944000Y-116078000D03*
X233048000Y-112522000D03*
X230248000Y-112522000D03*
X252352000Y-108966000D03*
X249552000Y-108966000D03*
X271656000Y-105410000D03*
X268856000Y-105410000D03*
X290960000Y-104140000D03*
X288160000Y-104140000D03*
X175136000Y-143764000D03*
X172336000Y-143764000D03*
X194440000Y-138938000D03*
X191640000Y-138938000D03*
X213744000Y-135382000D03*
X210944000Y-135382000D03*
X233048000Y-131826000D03*
X230248000Y-131826000D03*
X252352000Y-128270000D03*
X249552000Y-128270000D03*
X268856000Y-124714000D03*
X271656000Y-124714000D03*
X288160000Y-125984000D03*
X290960000Y-125984000D03*
X175136000Y-162814000D03*
X172336000Y-162814000D03*
X194440000Y-158242000D03*
X191640000Y-158242000D03*
X213998000Y-154686000D03*
X211198000Y-154686000D03*
X233048000Y-151130000D03*
X230248000Y-151130000D03*
X252352000Y-147320000D03*
X249552000Y-147320000D03*
X271656000Y-147066000D03*
X268856000Y-147066000D03*
X290960000Y-147320000D03*
X288160000Y-147320000D03*
D27*
X148844000Y-57788000D03*
X148844000Y-54988000D03*
X151130000Y-57788000D03*
X151130000Y-54988000D03*
D22*
X137036000Y-53848000D03*
X134236000Y-53848000D03*
D28*
X161007248Y-67802741D03*
X164988259Y-71783752D03*
X167922752Y-68849259D03*
X163941741Y-64868248D03*
D23*
X191389000Y-49022000D03*
X194189000Y-49022000D03*
D24*
X152811999Y-51815999D03*
X150811999Y-51815999D03*
X148811999Y-51815999D03*
D25*
X146812000Y-51816000D03*
D21*
X81788000Y-168402000D03*
X57912000Y-50038000D03*
X219710000Y-168402000D03*
X242316000Y-50038000D03*
D26*
X153416000Y-57782000D03*
X153416000Y-60582000D03*
D22*
X139824000Y-74422000D03*
X142624000Y-74422000D03*
D26*
X146431000Y-57788000D03*
X146431000Y-54988000D03*
D23*
X137417000Y-60452000D03*
X134617000Y-60452000D03*
D27*
X155956000Y-75054000D03*
X155956000Y-77854000D03*
X143383000Y-63379000D03*
X143383000Y-60579000D03*
D29*
X160882949Y-62637051D03*
X158903051Y-64616949D03*
D22*
X165487000Y-56769000D03*
X162687000Y-56769000D03*
X162684000Y-54483000D03*
X165484000Y-54483000D03*
D30*
X129450000Y-57150000D03*
X137250000Y-57150000D03*
D31*
X167159913Y-63781913D03*
X165834087Y-62456087D03*
D32*
X167231087Y-72417913D03*
X168556913Y-71092087D03*
D23*
X194440000Y-62484000D03*
X191640000Y-62484000D03*
X189614000Y-62484000D03*
X186814000Y-62484000D03*
D24*
X142747999Y-51815999D03*
X140747999Y-51815999D03*
X138747999Y-51815999D03*
X136747999Y-51815999D03*
D33*
X134748000Y-51816000D03*
D24*
X132747999Y-51815999D03*
D34*
X120650000Y-49022000D03*
D35*
X123189999Y-49021999D03*
X125729999Y-49021999D03*
X128269999Y-49021999D03*
G36*
X177351562Y-50340816D02*
G01*
X177363944Y-50349555D01*
X178547852Y-51296681D01*
X178575455Y-51308000D01*
X180018567Y-51308000D01*
X180086688Y-51328002D01*
X180123405Y-51364108D01*
X180583951Y-52054926D01*
X180600269Y-52068593D01*
X180607010Y-52070000D01*
X206376000Y-52070000D01*
X206444121Y-52090002D01*
X206490614Y-52143658D01*
X206502000Y-52196000D01*
X206502000Y-52305885D01*
X206506475Y-52321124D01*
X206507865Y-52322329D01*
X206515548Y-52324000D01*
X207252401Y-52324000D01*
X207274825Y-52319837D01*
X208865016Y-51708225D01*
X208935776Y-51702440D01*
X208963531Y-51711648D01*
X210776418Y-52557662D01*
X210829689Y-52604595D01*
X210838946Y-52622207D01*
X211562629Y-54310801D01*
X211571079Y-54381293D01*
X211565634Y-54402370D01*
X210849670Y-56430935D01*
X210808136Y-56488515D01*
X210742066Y-56514500D01*
X210730853Y-56515000D01*
X207017727Y-56515000D01*
X207002504Y-56516874D01*
X206519576Y-56637606D01*
X206505875Y-56645644D01*
X206502000Y-56653291D01*
X206502000Y-57532000D01*
X206481998Y-57600121D01*
X206428342Y-57646614D01*
X206376000Y-57658000D01*
X179838226Y-57658000D01*
X179825895Y-57659221D01*
X178576816Y-57909037D01*
X178550201Y-57921439D01*
X177363944Y-58870445D01*
X177298255Y-58897381D01*
X177228432Y-58884527D01*
X177215340Y-58876894D01*
X175779126Y-57919418D01*
X175754811Y-57909802D01*
X174332776Y-57672796D01*
X174268870Y-57641867D01*
X174231831Y-57581298D01*
X174229204Y-57569224D01*
X173992758Y-56150550D01*
X173979258Y-56121110D01*
X172787219Y-54690663D01*
X172758975Y-54625526D01*
X172770431Y-54555460D01*
X172787219Y-54529337D01*
X173978404Y-53099916D01*
X173990000Y-53073172D01*
X173990000Y-51671280D01*
X174010002Y-51603159D01*
X174063658Y-51556666D01*
X174098181Y-51546546D01*
X175754033Y-51309995D01*
X175779741Y-51300173D01*
X177215340Y-50343106D01*
X177283115Y-50321962D01*
X177351562Y-50340816D01*
G37*
G36*
X150683660Y-74259493D02*
G01*
X150697452Y-74268709D01*
X150698615Y-74266969D01*
X150700409Y-74266084D01*
X150701560Y-74266545D01*
X150718952Y-74281078D01*
X150787670Y-74289704D01*
X150835288Y-74266918D01*
X150837282Y-74267072D01*
X150837814Y-74267611D01*
X150838548Y-74268709D01*
X150852340Y-74259493D01*
X150854336Y-74259362D01*
X150855447Y-74261025D01*
X150855114Y-74262267D01*
X150847767Y-74273262D01*
X150844000Y-74292199D01*
X150844000Y-75791801D01*
X150847767Y-75810738D01*
X150855114Y-75821733D01*
X150855245Y-75823729D01*
X150853582Y-75824840D01*
X150852340Y-75824507D01*
X150838548Y-75815291D01*
X150837385Y-75817031D01*
X150835591Y-75817916D01*
X150834440Y-75817455D01*
X150817048Y-75802922D01*
X150748330Y-75794296D01*
X150700712Y-75817082D01*
X150698718Y-75816928D01*
X150698186Y-75816389D01*
X150697452Y-75815291D01*
X150683660Y-75824507D01*
X150681664Y-75824638D01*
X150680553Y-75822975D01*
X150680886Y-75821733D01*
X150688233Y-75810738D01*
X150692000Y-75791801D01*
X150692000Y-74292199D01*
X150688233Y-74273262D01*
X150680886Y-74262267D01*
X150680755Y-74260271D01*
X150682418Y-74259160D01*
X150683660Y-74259493D01*
G37*
G36*
X148283660Y-74259493D02*
G01*
X148297452Y-74268709D01*
X148298615Y-74266969D01*
X148300409Y-74266084D01*
X148301560Y-74266545D01*
X148318952Y-74281078D01*
X148387670Y-74289704D01*
X148435288Y-74266918D01*
X148437282Y-74267072D01*
X148437814Y-74267611D01*
X148438548Y-74268709D01*
X148452340Y-74259493D01*
X148454336Y-74259362D01*
X148455447Y-74261025D01*
X148455114Y-74262267D01*
X148447767Y-74273262D01*
X148444000Y-74292199D01*
X148444000Y-75791801D01*
X148447767Y-75810738D01*
X148455114Y-75821733D01*
X148455245Y-75823729D01*
X148453582Y-75824840D01*
X148452340Y-75824507D01*
X148438548Y-75815291D01*
X148437385Y-75817031D01*
X148435591Y-75817916D01*
X148434440Y-75817455D01*
X148417048Y-75802922D01*
X148348330Y-75794296D01*
X148300712Y-75817082D01*
X148298718Y-75816928D01*
X148298186Y-75816389D01*
X148297452Y-75815291D01*
X148283660Y-75824507D01*
X148281664Y-75824638D01*
X148280553Y-75822975D01*
X148280886Y-75821733D01*
X148288233Y-75810738D01*
X148292000Y-75791801D01*
X148292000Y-74292199D01*
X148288233Y-74273262D01*
X148280886Y-74262267D01*
X148280755Y-74260271D01*
X148282418Y-74259160D01*
X148283660Y-74259493D01*
G37*
G36*
X153083660Y-74259493D02*
G01*
X153097452Y-74268709D01*
X153098615Y-74266969D01*
X153100409Y-74266084D01*
X153101560Y-74266545D01*
X153118952Y-74281078D01*
X153187670Y-74289704D01*
X153235288Y-74266918D01*
X153237282Y-74267072D01*
X153237814Y-74267611D01*
X153238548Y-74268709D01*
X153252340Y-74259493D01*
X153254336Y-74259362D01*
X153255447Y-74261025D01*
X153255114Y-74262267D01*
X153247767Y-74273262D01*
X153244000Y-74292199D01*
X153244000Y-75791801D01*
X153247767Y-75810738D01*
X153255114Y-75821733D01*
X153255245Y-75823729D01*
X153253582Y-75824840D01*
X153252340Y-75824507D01*
X153238548Y-75815291D01*
X153237385Y-75817031D01*
X153235591Y-75817916D01*
X153234440Y-75817455D01*
X153217048Y-75802922D01*
X153148330Y-75794296D01*
X153100712Y-75817082D01*
X153098718Y-75816928D01*
X153098186Y-75816389D01*
X153097452Y-75815291D01*
X153083660Y-75824507D01*
X153081664Y-75824638D01*
X153080553Y-75822975D01*
X153080886Y-75821733D01*
X153088233Y-75810738D01*
X153092000Y-75791801D01*
X153092000Y-74292199D01*
X153088233Y-74273262D01*
X153080886Y-74262267D01*
X153080755Y-74260271D01*
X153082418Y-74259160D01*
X153083660Y-74259493D01*
G37*
G36*
X151483660Y-74259493D02*
G01*
X151497452Y-74268709D01*
X151498615Y-74266969D01*
X151500409Y-74266084D01*
X151501560Y-74266545D01*
X151518952Y-74281078D01*
X151587670Y-74289704D01*
X151635288Y-74266918D01*
X151637282Y-74267072D01*
X151637814Y-74267611D01*
X151638548Y-74268709D01*
X151652340Y-74259493D01*
X151654336Y-74259362D01*
X151655447Y-74261025D01*
X151655114Y-74262267D01*
X151647767Y-74273262D01*
X151644000Y-74292199D01*
X151644000Y-75791801D01*
X151647767Y-75810738D01*
X151655114Y-75821733D01*
X151655245Y-75823729D01*
X151653582Y-75824840D01*
X151652340Y-75824507D01*
X151638548Y-75815291D01*
X151637385Y-75817031D01*
X151635591Y-75817916D01*
X151634440Y-75817455D01*
X151617048Y-75802922D01*
X151548330Y-75794296D01*
X151500712Y-75817082D01*
X151498718Y-75816928D01*
X151498186Y-75816389D01*
X151497452Y-75815291D01*
X151483660Y-75824507D01*
X151481664Y-75824638D01*
X151480553Y-75822975D01*
X151480886Y-75821733D01*
X151488233Y-75810738D01*
X151492000Y-75791801D01*
X151492000Y-74292199D01*
X151488233Y-74273262D01*
X151480886Y-74262267D01*
X151480755Y-74260271D01*
X151482418Y-74259160D01*
X151483660Y-74259493D01*
G37*
G36*
X149083660Y-74259493D02*
G01*
X149097452Y-74268709D01*
X149098615Y-74266969D01*
X149100409Y-74266084D01*
X149101560Y-74266545D01*
X149118952Y-74281078D01*
X149187670Y-74289704D01*
X149235288Y-74266918D01*
X149237282Y-74267072D01*
X149237814Y-74267611D01*
X149238548Y-74268709D01*
X149252340Y-74259493D01*
X149254336Y-74259362D01*
X149255447Y-74261025D01*
X149255114Y-74262267D01*
X149247767Y-74273262D01*
X149244000Y-74292199D01*
X149244000Y-75791801D01*
X149247767Y-75810738D01*
X149255114Y-75821733D01*
X149255245Y-75823729D01*
X149253582Y-75824840D01*
X149252340Y-75824507D01*
X149238548Y-75815291D01*
X149237385Y-75817031D01*
X149235591Y-75817916D01*
X149234440Y-75817455D01*
X149217048Y-75802922D01*
X149148330Y-75794296D01*
X149100712Y-75817082D01*
X149098718Y-75816928D01*
X149098186Y-75816389D01*
X149097452Y-75815291D01*
X149083660Y-75824507D01*
X149081664Y-75824638D01*
X149080553Y-75822975D01*
X149080886Y-75821733D01*
X149088233Y-75810738D01*
X149092000Y-75791801D01*
X149092000Y-74292199D01*
X149088233Y-74273262D01*
X149080886Y-74262267D01*
X149080755Y-74260271D01*
X149082418Y-74259160D01*
X149083660Y-74259493D01*
G37*
G36*
X153883660Y-74259493D02*
G01*
X153897452Y-74268709D01*
X153898615Y-74266969D01*
X153900409Y-74266084D01*
X153901560Y-74266545D01*
X153918952Y-74281078D01*
X153987670Y-74289704D01*
X154035288Y-74266918D01*
X154037282Y-74267072D01*
X154037814Y-74267611D01*
X154038548Y-74268709D01*
X154052340Y-74259493D01*
X154054336Y-74259362D01*
X154055447Y-74261025D01*
X154055114Y-74262267D01*
X154047767Y-74273262D01*
X154044000Y-74292199D01*
X154044000Y-75791801D01*
X154047767Y-75810738D01*
X154055114Y-75821733D01*
X154055245Y-75823729D01*
X154053582Y-75824840D01*
X154052340Y-75824507D01*
X154038548Y-75815291D01*
X154037385Y-75817031D01*
X154035591Y-75817916D01*
X154034440Y-75817455D01*
X154017048Y-75802922D01*
X153948330Y-75794296D01*
X153900712Y-75817082D01*
X153898718Y-75816928D01*
X153898186Y-75816389D01*
X153897452Y-75815291D01*
X153883660Y-75824507D01*
X153881664Y-75824638D01*
X153880553Y-75822975D01*
X153880886Y-75821733D01*
X153888233Y-75810738D01*
X153892000Y-75791801D01*
X153892000Y-74292199D01*
X153888233Y-74273262D01*
X153880886Y-74262267D01*
X153880755Y-74260271D01*
X153882418Y-74259160D01*
X153883660Y-74259493D01*
G37*
G36*
X147483660Y-74259493D02*
G01*
X147497452Y-74268709D01*
X147498615Y-74266969D01*
X147500409Y-74266084D01*
X147501560Y-74266545D01*
X147518952Y-74281078D01*
X147587670Y-74289704D01*
X147635288Y-74266918D01*
X147637282Y-74267072D01*
X147637814Y-74267611D01*
X147638548Y-74268709D01*
X147652340Y-74259493D01*
X147654336Y-74259362D01*
X147655447Y-74261025D01*
X147655114Y-74262267D01*
X147647767Y-74273262D01*
X147644000Y-74292199D01*
X147644000Y-75791801D01*
X147647767Y-75810738D01*
X147655114Y-75821733D01*
X147655245Y-75823729D01*
X147653582Y-75824840D01*
X147652340Y-75824507D01*
X147638548Y-75815291D01*
X147637385Y-75817031D01*
X147635591Y-75817916D01*
X147634440Y-75817455D01*
X147617048Y-75802922D01*
X147548330Y-75794296D01*
X147500712Y-75817082D01*
X147498718Y-75816928D01*
X147498186Y-75816389D01*
X147497452Y-75815291D01*
X147483660Y-75824507D01*
X147481664Y-75824638D01*
X147480553Y-75822975D01*
X147480886Y-75821733D01*
X147488233Y-75810738D01*
X147492000Y-75791801D01*
X147492000Y-74292199D01*
X147488233Y-74273262D01*
X147480886Y-74262267D01*
X147480755Y-74260271D01*
X147482418Y-74259160D01*
X147483660Y-74259493D01*
G37*
G36*
X146683660Y-74259493D02*
G01*
X146697452Y-74268709D01*
X146698615Y-74266969D01*
X146700409Y-74266084D01*
X146701560Y-74266545D01*
X146718952Y-74281078D01*
X146787670Y-74289704D01*
X146835288Y-74266918D01*
X146837282Y-74267072D01*
X146837814Y-74267611D01*
X146838548Y-74268709D01*
X146852340Y-74259493D01*
X146854336Y-74259362D01*
X146855447Y-74261025D01*
X146855114Y-74262267D01*
X146847767Y-74273262D01*
X146844000Y-74292199D01*
X146844000Y-75791801D01*
X146847767Y-75810738D01*
X146855114Y-75821733D01*
X146855245Y-75823729D01*
X146853582Y-75824840D01*
X146852340Y-75824507D01*
X146838548Y-75815291D01*
X146837385Y-75817031D01*
X146835591Y-75817916D01*
X146834440Y-75817455D01*
X146817048Y-75802922D01*
X146748330Y-75794296D01*
X146700712Y-75817082D01*
X146698718Y-75816928D01*
X146698186Y-75816389D01*
X146697452Y-75815291D01*
X146683660Y-75824507D01*
X146681664Y-75824638D01*
X146680553Y-75822975D01*
X146680886Y-75821733D01*
X146688233Y-75810738D01*
X146692000Y-75791801D01*
X146692000Y-74292199D01*
X146688233Y-74273262D01*
X146680886Y-74262267D01*
X146680755Y-74260271D01*
X146682418Y-74259160D01*
X146683660Y-74259493D01*
G37*
G36*
X152283660Y-74259493D02*
G01*
X152297452Y-74268709D01*
X152298615Y-74266969D01*
X152300409Y-74266084D01*
X152301560Y-74266545D01*
X152318952Y-74281078D01*
X152387670Y-74289704D01*
X152435288Y-74266918D01*
X152437282Y-74267072D01*
X152437814Y-74267611D01*
X152438548Y-74268709D01*
X152452340Y-74259493D01*
X152454336Y-74259362D01*
X152455447Y-74261025D01*
X152455114Y-74262267D01*
X152447767Y-74273262D01*
X152444000Y-74292199D01*
X152444000Y-75791801D01*
X152447767Y-75810738D01*
X152455114Y-75821733D01*
X152455245Y-75823729D01*
X152453582Y-75824840D01*
X152452340Y-75824507D01*
X152438548Y-75815291D01*
X152437385Y-75817031D01*
X152435591Y-75817916D01*
X152434440Y-75817455D01*
X152417048Y-75802922D01*
X152348330Y-75794296D01*
X152300712Y-75817082D01*
X152298718Y-75816928D01*
X152298186Y-75816389D01*
X152297452Y-75815291D01*
X152283660Y-75824507D01*
X152281664Y-75824638D01*
X152280553Y-75822975D01*
X152280886Y-75821733D01*
X152288233Y-75810738D01*
X152292000Y-75791801D01*
X152292000Y-74292199D01*
X152288233Y-74273262D01*
X152280886Y-74262267D01*
X152280755Y-74260271D01*
X152282418Y-74259160D01*
X152283660Y-74259493D01*
G37*
G36*
X149883660Y-74259493D02*
G01*
X149897452Y-74268709D01*
X149898615Y-74266969D01*
X149900409Y-74266084D01*
X149901560Y-74266545D01*
X149918952Y-74281078D01*
X149987670Y-74289704D01*
X150035288Y-74266918D01*
X150037282Y-74267072D01*
X150037814Y-74267611D01*
X150038548Y-74268709D01*
X150052340Y-74259493D01*
X150054336Y-74259362D01*
X150055447Y-74261025D01*
X150055114Y-74262267D01*
X150047767Y-74273262D01*
X150044000Y-74292199D01*
X150044000Y-75791801D01*
X150047767Y-75810738D01*
X150055114Y-75821733D01*
X150055245Y-75823729D01*
X150053582Y-75824840D01*
X150052340Y-75824507D01*
X150038548Y-75815291D01*
X150037385Y-75817031D01*
X150035591Y-75817916D01*
X150034440Y-75817455D01*
X150017048Y-75802922D01*
X149948330Y-75794296D01*
X149900712Y-75817082D01*
X149898718Y-75816928D01*
X149898186Y-75816389D01*
X149897452Y-75815291D01*
X149883660Y-75824507D01*
X149881664Y-75824638D01*
X149880553Y-75822975D01*
X149880886Y-75821733D01*
X149888233Y-75810738D01*
X149892000Y-75791801D01*
X149892000Y-74292199D01*
X149888233Y-74273262D01*
X149880886Y-74262267D01*
X149880755Y-74260271D01*
X149882418Y-74259160D01*
X149883660Y-74259493D01*
G37*
G36*
X155288267Y-72854886D02*
G01*
X155299262Y-72862233D01*
X155318199Y-72866000D01*
X156817801Y-72866000D01*
X156836738Y-72862233D01*
X156847733Y-72854886D01*
X156849729Y-72854755D01*
X156850840Y-72856418D01*
X156850507Y-72857660D01*
X156841291Y-72871452D01*
X156843031Y-72872615D01*
X156843916Y-72874409D01*
X156843455Y-72875560D01*
X156828922Y-72892952D01*
X156820296Y-72961670D01*
X156843082Y-73009288D01*
X156842928Y-73011282D01*
X156842389Y-73011814D01*
X156841291Y-73012548D01*
X156850507Y-73026340D01*
X156850638Y-73028336D01*
X156848975Y-73029447D01*
X156847733Y-73029114D01*
X156836738Y-73021767D01*
X156817801Y-73018000D01*
X155318199Y-73018000D01*
X155299262Y-73021767D01*
X155288267Y-73029114D01*
X155286271Y-73029245D01*
X155285160Y-73027582D01*
X155285493Y-73026340D01*
X155294709Y-73012548D01*
X155292969Y-73011385D01*
X155292084Y-73009591D01*
X155292545Y-73008440D01*
X155307078Y-72991048D01*
X155315704Y-72922330D01*
X155292918Y-72874712D01*
X155293072Y-72872718D01*
X155293611Y-72872186D01*
X155294709Y-72871452D01*
X155285493Y-72857660D01*
X155285362Y-72855664D01*
X155287025Y-72854553D01*
X155288267Y-72854886D01*
G37*
G36*
X143888267Y-72854886D02*
G01*
X143899262Y-72862233D01*
X143918199Y-72866000D01*
X145417801Y-72866000D01*
X145436738Y-72862233D01*
X145447733Y-72854886D01*
X145449729Y-72854755D01*
X145450840Y-72856418D01*
X145450507Y-72857660D01*
X145441291Y-72871452D01*
X145443031Y-72872615D01*
X145443916Y-72874409D01*
X145443455Y-72875560D01*
X145428922Y-72892952D01*
X145420296Y-72961670D01*
X145443082Y-73009288D01*
X145442928Y-73011282D01*
X145442389Y-73011814D01*
X145441291Y-73012548D01*
X145450507Y-73026340D01*
X145450638Y-73028336D01*
X145448975Y-73029447D01*
X145447733Y-73029114D01*
X145436738Y-73021767D01*
X145417801Y-73018000D01*
X143918199Y-73018000D01*
X143899262Y-73021767D01*
X143888267Y-73029114D01*
X143886271Y-73029245D01*
X143885160Y-73027582D01*
X143885493Y-73026340D01*
X143894709Y-73012548D01*
X143892969Y-73011385D01*
X143892084Y-73009591D01*
X143892545Y-73008440D01*
X143907078Y-72991048D01*
X143915704Y-72922330D01*
X143892918Y-72874712D01*
X143893072Y-72872718D01*
X143893611Y-72872186D01*
X143894709Y-72871452D01*
X143885493Y-72857660D01*
X143885362Y-72855664D01*
X143887025Y-72854553D01*
X143888267Y-72854886D01*
G37*
G36*
X143888267Y-72054886D02*
G01*
X143899262Y-72062233D01*
X143918199Y-72066000D01*
X145417801Y-72066000D01*
X145436738Y-72062233D01*
X145447733Y-72054886D01*
X145449729Y-72054755D01*
X145450840Y-72056418D01*
X145450507Y-72057660D01*
X145441291Y-72071452D01*
X145443031Y-72072615D01*
X145443916Y-72074409D01*
X145443455Y-72075560D01*
X145428922Y-72092952D01*
X145420296Y-72161670D01*
X145443082Y-72209288D01*
X145442928Y-72211282D01*
X145442389Y-72211814D01*
X145441291Y-72212548D01*
X145450507Y-72226340D01*
X145450638Y-72228336D01*
X145448975Y-72229447D01*
X145447733Y-72229114D01*
X145436738Y-72221767D01*
X145417801Y-72218000D01*
X143918199Y-72218000D01*
X143899262Y-72221767D01*
X143888267Y-72229114D01*
X143886271Y-72229245D01*
X143885160Y-72227582D01*
X143885493Y-72226340D01*
X143894709Y-72212548D01*
X143892969Y-72211385D01*
X143892084Y-72209591D01*
X143892545Y-72208440D01*
X143907078Y-72191048D01*
X143915704Y-72122330D01*
X143892918Y-72074712D01*
X143893072Y-72072718D01*
X143893611Y-72072186D01*
X143894709Y-72071452D01*
X143885493Y-72057660D01*
X143885362Y-72055664D01*
X143887025Y-72054553D01*
X143888267Y-72054886D01*
G37*
G36*
X155288267Y-72054886D02*
G01*
X155299262Y-72062233D01*
X155318199Y-72066000D01*
X156817801Y-72066000D01*
X156836738Y-72062233D01*
X156847733Y-72054886D01*
X156849729Y-72054755D01*
X156850840Y-72056418D01*
X156850507Y-72057660D01*
X156841291Y-72071452D01*
X156843031Y-72072615D01*
X156843916Y-72074409D01*
X156843455Y-72075560D01*
X156828922Y-72092952D01*
X156820296Y-72161670D01*
X156843082Y-72209288D01*
X156842928Y-72211282D01*
X156842389Y-72211814D01*
X156841291Y-72212548D01*
X156850507Y-72226340D01*
X156850638Y-72228336D01*
X156848975Y-72229447D01*
X156847733Y-72229114D01*
X156836738Y-72221767D01*
X156817801Y-72218000D01*
X155318199Y-72218000D01*
X155299262Y-72221767D01*
X155288267Y-72229114D01*
X155286271Y-72229245D01*
X155285160Y-72227582D01*
X155285493Y-72226340D01*
X155294709Y-72212548D01*
X155292969Y-72211385D01*
X155292084Y-72209591D01*
X155292545Y-72208440D01*
X155307078Y-72191048D01*
X155315704Y-72122330D01*
X155292918Y-72074712D01*
X155293072Y-72072718D01*
X155293611Y-72072186D01*
X155294709Y-72071452D01*
X155285493Y-72057660D01*
X155285362Y-72055664D01*
X155287025Y-72054553D01*
X155288267Y-72054886D01*
G37*
G36*
X155288267Y-71254886D02*
G01*
X155299262Y-71262233D01*
X155318199Y-71266000D01*
X156817801Y-71266000D01*
X156836738Y-71262233D01*
X156847733Y-71254886D01*
X156849729Y-71254755D01*
X156850840Y-71256418D01*
X156850507Y-71257660D01*
X156841291Y-71271452D01*
X156843031Y-71272615D01*
X156843916Y-71274409D01*
X156843455Y-71275560D01*
X156828922Y-71292952D01*
X156820296Y-71361670D01*
X156843082Y-71409288D01*
X156842928Y-71411282D01*
X156842389Y-71411814D01*
X156841291Y-71412548D01*
X156850507Y-71426340D01*
X156850638Y-71428336D01*
X156848975Y-71429447D01*
X156847733Y-71429114D01*
X156836738Y-71421767D01*
X156817801Y-71418000D01*
X155318199Y-71418000D01*
X155299262Y-71421767D01*
X155288267Y-71429114D01*
X155286271Y-71429245D01*
X155285160Y-71427582D01*
X155285493Y-71426340D01*
X155294709Y-71412548D01*
X155292969Y-71411385D01*
X155292084Y-71409591D01*
X155292545Y-71408440D01*
X155307078Y-71391048D01*
X155315704Y-71322330D01*
X155292918Y-71274712D01*
X155293072Y-71272718D01*
X155293611Y-71272186D01*
X155294709Y-71271452D01*
X155285493Y-71257660D01*
X155285362Y-71255664D01*
X155287025Y-71254553D01*
X155288267Y-71254886D01*
G37*
G36*
X143888267Y-71254886D02*
G01*
X143899262Y-71262233D01*
X143918199Y-71266000D01*
X145417801Y-71266000D01*
X145436738Y-71262233D01*
X145447733Y-71254886D01*
X145449729Y-71254755D01*
X145450840Y-71256418D01*
X145450507Y-71257660D01*
X145441291Y-71271452D01*
X145443031Y-71272615D01*
X145443916Y-71274409D01*
X145443455Y-71275560D01*
X145428922Y-71292952D01*
X145420296Y-71361670D01*
X145443082Y-71409288D01*
X145442928Y-71411282D01*
X145442389Y-71411814D01*
X145441291Y-71412548D01*
X145450507Y-71426340D01*
X145450638Y-71428336D01*
X145448975Y-71429447D01*
X145447733Y-71429114D01*
X145436738Y-71421767D01*
X145417801Y-71418000D01*
X143918199Y-71418000D01*
X143899262Y-71421767D01*
X143888267Y-71429114D01*
X143886271Y-71429245D01*
X143885160Y-71427582D01*
X143885493Y-71426340D01*
X143894709Y-71412548D01*
X143892969Y-71411385D01*
X143892084Y-71409591D01*
X143892545Y-71408440D01*
X143907078Y-71391048D01*
X143915704Y-71322330D01*
X143892918Y-71274712D01*
X143893072Y-71272718D01*
X143893611Y-71272186D01*
X143894709Y-71271452D01*
X143885493Y-71257660D01*
X143885362Y-71255664D01*
X143887025Y-71254553D01*
X143888267Y-71254886D01*
G37*
G36*
X143888267Y-70454886D02*
G01*
X143899262Y-70462233D01*
X143918199Y-70466000D01*
X145417801Y-70466000D01*
X145436738Y-70462233D01*
X145447733Y-70454886D01*
X145449729Y-70454755D01*
X145450840Y-70456418D01*
X145450507Y-70457660D01*
X145441291Y-70471452D01*
X145443031Y-70472615D01*
X145443916Y-70474409D01*
X145443455Y-70475560D01*
X145428922Y-70492952D01*
X145420296Y-70561670D01*
X145443082Y-70609288D01*
X145442928Y-70611282D01*
X145442389Y-70611814D01*
X145441291Y-70612548D01*
X145450507Y-70626340D01*
X145450638Y-70628336D01*
X145448975Y-70629447D01*
X145447733Y-70629114D01*
X145436738Y-70621767D01*
X145417801Y-70618000D01*
X143918199Y-70618000D01*
X143899262Y-70621767D01*
X143888267Y-70629114D01*
X143886271Y-70629245D01*
X143885160Y-70627582D01*
X143885493Y-70626340D01*
X143894709Y-70612548D01*
X143892969Y-70611385D01*
X143892084Y-70609591D01*
X143892545Y-70608440D01*
X143907078Y-70591048D01*
X143915704Y-70522330D01*
X143892918Y-70474712D01*
X143893072Y-70472718D01*
X143893611Y-70472186D01*
X143894709Y-70471452D01*
X143885493Y-70457660D01*
X143885362Y-70455664D01*
X143887025Y-70454553D01*
X143888267Y-70454886D01*
G37*
G36*
X155288267Y-70454886D02*
G01*
X155299262Y-70462233D01*
X155318199Y-70466000D01*
X156817801Y-70466000D01*
X156836738Y-70462233D01*
X156847733Y-70454886D01*
X156849729Y-70454755D01*
X156850840Y-70456418D01*
X156850507Y-70457660D01*
X156841291Y-70471452D01*
X156843031Y-70472615D01*
X156843916Y-70474409D01*
X156843455Y-70475560D01*
X156828922Y-70492952D01*
X156820296Y-70561670D01*
X156843082Y-70609288D01*
X156842928Y-70611282D01*
X156842389Y-70611814D01*
X156841291Y-70612548D01*
X156850507Y-70626340D01*
X156850638Y-70628336D01*
X156848975Y-70629447D01*
X156847733Y-70629114D01*
X156836738Y-70621767D01*
X156817801Y-70618000D01*
X155318199Y-70618000D01*
X155299262Y-70621767D01*
X155288267Y-70629114D01*
X155286271Y-70629245D01*
X155285160Y-70627582D01*
X155285493Y-70626340D01*
X155294709Y-70612548D01*
X155292969Y-70611385D01*
X155292084Y-70609591D01*
X155292545Y-70608440D01*
X155307078Y-70591048D01*
X155315704Y-70522330D01*
X155292918Y-70474712D01*
X155293072Y-70472718D01*
X155293611Y-70472186D01*
X155294709Y-70471452D01*
X155285493Y-70457660D01*
X155285362Y-70455664D01*
X155287025Y-70454553D01*
X155288267Y-70454886D01*
G37*
G36*
X143888267Y-69654886D02*
G01*
X143899262Y-69662233D01*
X143918199Y-69666000D01*
X145417801Y-69666000D01*
X145436738Y-69662233D01*
X145447733Y-69654886D01*
X145449729Y-69654755D01*
X145450840Y-69656418D01*
X145450507Y-69657660D01*
X145441291Y-69671452D01*
X145443031Y-69672615D01*
X145443916Y-69674409D01*
X145443455Y-69675560D01*
X145428922Y-69692952D01*
X145420296Y-69761670D01*
X145443082Y-69809288D01*
X145442928Y-69811282D01*
X145442389Y-69811814D01*
X145441291Y-69812548D01*
X145450507Y-69826340D01*
X145450638Y-69828336D01*
X145448975Y-69829447D01*
X145447733Y-69829114D01*
X145436738Y-69821767D01*
X145417801Y-69818000D01*
X143918199Y-69818000D01*
X143899262Y-69821767D01*
X143888267Y-69829114D01*
X143886271Y-69829245D01*
X143885160Y-69827582D01*
X143885493Y-69826340D01*
X143894709Y-69812548D01*
X143892969Y-69811385D01*
X143892084Y-69809591D01*
X143892545Y-69808440D01*
X143907078Y-69791048D01*
X143915704Y-69722330D01*
X143892918Y-69674712D01*
X143893072Y-69672718D01*
X143893611Y-69672186D01*
X143894709Y-69671452D01*
X143885493Y-69657660D01*
X143885362Y-69655664D01*
X143887025Y-69654553D01*
X143888267Y-69654886D01*
G37*
G36*
X155288267Y-69654886D02*
G01*
X155299262Y-69662233D01*
X155318199Y-69666000D01*
X156817801Y-69666000D01*
X156836738Y-69662233D01*
X156847733Y-69654886D01*
X156849729Y-69654755D01*
X156850840Y-69656418D01*
X156850507Y-69657660D01*
X156841291Y-69671452D01*
X156843031Y-69672615D01*
X156843916Y-69674409D01*
X156843455Y-69675560D01*
X156828922Y-69692952D01*
X156820296Y-69761670D01*
X156843082Y-69809288D01*
X156842928Y-69811282D01*
X156842389Y-69811814D01*
X156841291Y-69812548D01*
X156850507Y-69826340D01*
X156850638Y-69828336D01*
X156848975Y-69829447D01*
X156847733Y-69829114D01*
X156836738Y-69821767D01*
X156817801Y-69818000D01*
X155318199Y-69818000D01*
X155299262Y-69821767D01*
X155288267Y-69829114D01*
X155286271Y-69829245D01*
X155285160Y-69827582D01*
X155285493Y-69826340D01*
X155294709Y-69812548D01*
X155292969Y-69811385D01*
X155292084Y-69809591D01*
X155292545Y-69808440D01*
X155307078Y-69791048D01*
X155315704Y-69722330D01*
X155292918Y-69674712D01*
X155293072Y-69672718D01*
X155293611Y-69672186D01*
X155294709Y-69671452D01*
X155285493Y-69657660D01*
X155285362Y-69655664D01*
X155287025Y-69654553D01*
X155288267Y-69654886D01*
G37*
G36*
X143888267Y-68854886D02*
G01*
X143899262Y-68862233D01*
X143918199Y-68866000D01*
X145417801Y-68866000D01*
X145436738Y-68862233D01*
X145447733Y-68854886D01*
X145449729Y-68854755D01*
X145450840Y-68856418D01*
X145450507Y-68857660D01*
X145441291Y-68871452D01*
X145443031Y-68872615D01*
X145443916Y-68874409D01*
X145443455Y-68875560D01*
X145428922Y-68892952D01*
X145420296Y-68961670D01*
X145443082Y-69009288D01*
X145442928Y-69011282D01*
X145442389Y-69011814D01*
X145441291Y-69012548D01*
X145450507Y-69026340D01*
X145450638Y-69028336D01*
X145448975Y-69029447D01*
X145447733Y-69029114D01*
X145436738Y-69021767D01*
X145417801Y-69018000D01*
X143918199Y-69018000D01*
X143899262Y-69021767D01*
X143888267Y-69029114D01*
X143886271Y-69029245D01*
X143885160Y-69027582D01*
X143885493Y-69026340D01*
X143894709Y-69012548D01*
X143892969Y-69011385D01*
X143892084Y-69009591D01*
X143892545Y-69008440D01*
X143907078Y-68991048D01*
X143915704Y-68922330D01*
X143892918Y-68874712D01*
X143893072Y-68872718D01*
X143893611Y-68872186D01*
X143894709Y-68871452D01*
X143885493Y-68857660D01*
X143885362Y-68855664D01*
X143887025Y-68854553D01*
X143888267Y-68854886D01*
G37*
G36*
X155288267Y-68854886D02*
G01*
X155299262Y-68862233D01*
X155318199Y-68866000D01*
X156817801Y-68866000D01*
X156836738Y-68862233D01*
X156847733Y-68854886D01*
X156849729Y-68854755D01*
X156850840Y-68856418D01*
X156850507Y-68857660D01*
X156841291Y-68871452D01*
X156843031Y-68872615D01*
X156843916Y-68874409D01*
X156843455Y-68875560D01*
X156828922Y-68892952D01*
X156820296Y-68961670D01*
X156843082Y-69009288D01*
X156842928Y-69011282D01*
X156842389Y-69011814D01*
X156841291Y-69012548D01*
X156850507Y-69026340D01*
X156850638Y-69028336D01*
X156848975Y-69029447D01*
X156847733Y-69029114D01*
X156836738Y-69021767D01*
X156817801Y-69018000D01*
X155318199Y-69018000D01*
X155299262Y-69021767D01*
X155288267Y-69029114D01*
X155286271Y-69029245D01*
X155285160Y-69027582D01*
X155285493Y-69026340D01*
X155294709Y-69012548D01*
X155292969Y-69011385D01*
X155292084Y-69009591D01*
X155292545Y-69008440D01*
X155307078Y-68991048D01*
X155315704Y-68922330D01*
X155292918Y-68874712D01*
X155293072Y-68872718D01*
X155293611Y-68872186D01*
X155294709Y-68871452D01*
X155285493Y-68857660D01*
X155285362Y-68855664D01*
X155287025Y-68854553D01*
X155288267Y-68854886D01*
G37*
G36*
X143888267Y-68054886D02*
G01*
X143899262Y-68062233D01*
X143918199Y-68066000D01*
X145417801Y-68066000D01*
X145436738Y-68062233D01*
X145447733Y-68054886D01*
X145449729Y-68054755D01*
X145450840Y-68056418D01*
X145450507Y-68057660D01*
X145441291Y-68071452D01*
X145443031Y-68072615D01*
X145443916Y-68074409D01*
X145443455Y-68075560D01*
X145428922Y-68092952D01*
X145420296Y-68161670D01*
X145443082Y-68209288D01*
X145442928Y-68211282D01*
X145442389Y-68211814D01*
X145441291Y-68212548D01*
X145450507Y-68226340D01*
X145450638Y-68228336D01*
X145448975Y-68229447D01*
X145447733Y-68229114D01*
X145436738Y-68221767D01*
X145417801Y-68218000D01*
X143918199Y-68218000D01*
X143899262Y-68221767D01*
X143888267Y-68229114D01*
X143886271Y-68229245D01*
X143885160Y-68227582D01*
X143885493Y-68226340D01*
X143894709Y-68212548D01*
X143892969Y-68211385D01*
X143892084Y-68209591D01*
X143892545Y-68208440D01*
X143907078Y-68191048D01*
X143915704Y-68122330D01*
X143892918Y-68074712D01*
X143893072Y-68072718D01*
X143893611Y-68072186D01*
X143894709Y-68071452D01*
X143885493Y-68057660D01*
X143885362Y-68055664D01*
X143887025Y-68054553D01*
X143888267Y-68054886D01*
G37*
G36*
X155288267Y-68054886D02*
G01*
X155299262Y-68062233D01*
X155318199Y-68066000D01*
X156817801Y-68066000D01*
X156836738Y-68062233D01*
X156847733Y-68054886D01*
X156849729Y-68054755D01*
X156850840Y-68056418D01*
X156850507Y-68057660D01*
X156841291Y-68071452D01*
X156843031Y-68072615D01*
X156843916Y-68074409D01*
X156843455Y-68075560D01*
X156828922Y-68092952D01*
X156820296Y-68161670D01*
X156843082Y-68209288D01*
X156842928Y-68211282D01*
X156842389Y-68211814D01*
X156841291Y-68212548D01*
X156850507Y-68226340D01*
X156850638Y-68228336D01*
X156848975Y-68229447D01*
X156847733Y-68229114D01*
X156836738Y-68221767D01*
X156817801Y-68218000D01*
X155318199Y-68218000D01*
X155299262Y-68221767D01*
X155288267Y-68229114D01*
X155286271Y-68229245D01*
X155285160Y-68227582D01*
X155285493Y-68226340D01*
X155294709Y-68212548D01*
X155292969Y-68211385D01*
X155292084Y-68209591D01*
X155292545Y-68208440D01*
X155307078Y-68191048D01*
X155315704Y-68122330D01*
X155292918Y-68074712D01*
X155293072Y-68072718D01*
X155293611Y-68072186D01*
X155294709Y-68071452D01*
X155285493Y-68057660D01*
X155285362Y-68055664D01*
X155287025Y-68054553D01*
X155288267Y-68054886D01*
G37*
G36*
X155288267Y-67254886D02*
G01*
X155299262Y-67262233D01*
X155318199Y-67266000D01*
X156817801Y-67266000D01*
X156836738Y-67262233D01*
X156847733Y-67254886D01*
X156849729Y-67254755D01*
X156850840Y-67256418D01*
X156850507Y-67257660D01*
X156841291Y-67271452D01*
X156843031Y-67272615D01*
X156843916Y-67274409D01*
X156843455Y-67275560D01*
X156828922Y-67292952D01*
X156820296Y-67361670D01*
X156843082Y-67409288D01*
X156842928Y-67411282D01*
X156842389Y-67411814D01*
X156841291Y-67412548D01*
X156850507Y-67426340D01*
X156850638Y-67428336D01*
X156848975Y-67429447D01*
X156847733Y-67429114D01*
X156836738Y-67421767D01*
X156817801Y-67418000D01*
X155318199Y-67418000D01*
X155299262Y-67421767D01*
X155288267Y-67429114D01*
X155286271Y-67429245D01*
X155285160Y-67427582D01*
X155285493Y-67426340D01*
X155294709Y-67412548D01*
X155292969Y-67411385D01*
X155292084Y-67409591D01*
X155292545Y-67408440D01*
X155307078Y-67391048D01*
X155315704Y-67322330D01*
X155292918Y-67274712D01*
X155293072Y-67272718D01*
X155293611Y-67272186D01*
X155294709Y-67271452D01*
X155285493Y-67257660D01*
X155285362Y-67255664D01*
X155287025Y-67254553D01*
X155288267Y-67254886D01*
G37*
G36*
X143888267Y-67254886D02*
G01*
X143899262Y-67262233D01*
X143918199Y-67266000D01*
X145417801Y-67266000D01*
X145436738Y-67262233D01*
X145447733Y-67254886D01*
X145449729Y-67254755D01*
X145450840Y-67256418D01*
X145450507Y-67257660D01*
X145441291Y-67271452D01*
X145443031Y-67272615D01*
X145443916Y-67274409D01*
X145443455Y-67275560D01*
X145428922Y-67292952D01*
X145420296Y-67361670D01*
X145443082Y-67409288D01*
X145442928Y-67411282D01*
X145442389Y-67411814D01*
X145441291Y-67412548D01*
X145450507Y-67426340D01*
X145450638Y-67428336D01*
X145448975Y-67429447D01*
X145447733Y-67429114D01*
X145436738Y-67421767D01*
X145417801Y-67418000D01*
X143918199Y-67418000D01*
X143899262Y-67421767D01*
X143888267Y-67429114D01*
X143886271Y-67429245D01*
X143885160Y-67427582D01*
X143885493Y-67426340D01*
X143894709Y-67412548D01*
X143892969Y-67411385D01*
X143892084Y-67409591D01*
X143892545Y-67408440D01*
X143907078Y-67391048D01*
X143915704Y-67322330D01*
X143892918Y-67274712D01*
X143893072Y-67272718D01*
X143893611Y-67272186D01*
X143894709Y-67271452D01*
X143885493Y-67257660D01*
X143885362Y-67255664D01*
X143887025Y-67254553D01*
X143888267Y-67254886D01*
G37*
G36*
X143888267Y-66454886D02*
G01*
X143899262Y-66462233D01*
X143918199Y-66466000D01*
X145417801Y-66466000D01*
X145436738Y-66462233D01*
X145447733Y-66454886D01*
X145449729Y-66454755D01*
X145450840Y-66456418D01*
X145450507Y-66457660D01*
X145441291Y-66471452D01*
X145443031Y-66472615D01*
X145443916Y-66474409D01*
X145443455Y-66475560D01*
X145428922Y-66492952D01*
X145420296Y-66561670D01*
X145443082Y-66609288D01*
X145442928Y-66611282D01*
X145442389Y-66611814D01*
X145441291Y-66612548D01*
X145450507Y-66626340D01*
X145450638Y-66628336D01*
X145448975Y-66629447D01*
X145447733Y-66629114D01*
X145436738Y-66621767D01*
X145417801Y-66618000D01*
X143918199Y-66618000D01*
X143899262Y-66621767D01*
X143888267Y-66629114D01*
X143886271Y-66629245D01*
X143885160Y-66627582D01*
X143885493Y-66626340D01*
X143894709Y-66612548D01*
X143892969Y-66611385D01*
X143892084Y-66609591D01*
X143892545Y-66608440D01*
X143907078Y-66591048D01*
X143915704Y-66522330D01*
X143892918Y-66474712D01*
X143893072Y-66472718D01*
X143893611Y-66472186D01*
X143894709Y-66471452D01*
X143885493Y-66457660D01*
X143885362Y-66455664D01*
X143887025Y-66454553D01*
X143888267Y-66454886D01*
G37*
G36*
X155288267Y-66454886D02*
G01*
X155299262Y-66462233D01*
X155318199Y-66466000D01*
X156817801Y-66466000D01*
X156836738Y-66462233D01*
X156847733Y-66454886D01*
X156849729Y-66454755D01*
X156850840Y-66456418D01*
X156850507Y-66457660D01*
X156841291Y-66471452D01*
X156843031Y-66472615D01*
X156843916Y-66474409D01*
X156843455Y-66475560D01*
X156828922Y-66492952D01*
X156820296Y-66561670D01*
X156843082Y-66609288D01*
X156842928Y-66611282D01*
X156842389Y-66611814D01*
X156841291Y-66612548D01*
X156850507Y-66626340D01*
X156850638Y-66628336D01*
X156848975Y-66629447D01*
X156847733Y-66629114D01*
X156836738Y-66621767D01*
X156817801Y-66618000D01*
X155318199Y-66618000D01*
X155299262Y-66621767D01*
X155288267Y-66629114D01*
X155286271Y-66629245D01*
X155285160Y-66627582D01*
X155285493Y-66626340D01*
X155294709Y-66612548D01*
X155292969Y-66611385D01*
X155292084Y-66609591D01*
X155292545Y-66608440D01*
X155307078Y-66591048D01*
X155315704Y-66522330D01*
X155292918Y-66474712D01*
X155293072Y-66472718D01*
X155293611Y-66472186D01*
X155294709Y-66471452D01*
X155285493Y-66457660D01*
X155285362Y-66455664D01*
X155287025Y-66454553D01*
X155288267Y-66454886D01*
G37*
G36*
X143888267Y-65654886D02*
G01*
X143899262Y-65662233D01*
X143918199Y-65666000D01*
X145417801Y-65666000D01*
X145436738Y-65662233D01*
X145447733Y-65654886D01*
X145449729Y-65654755D01*
X145450840Y-65656418D01*
X145450507Y-65657660D01*
X145441291Y-65671452D01*
X145443031Y-65672615D01*
X145443916Y-65674409D01*
X145443455Y-65675560D01*
X145428922Y-65692952D01*
X145420296Y-65761670D01*
X145443082Y-65809288D01*
X145442928Y-65811282D01*
X145442389Y-65811814D01*
X145441291Y-65812548D01*
X145450507Y-65826340D01*
X145450638Y-65828336D01*
X145448975Y-65829447D01*
X145447733Y-65829114D01*
X145436738Y-65821767D01*
X145417801Y-65818000D01*
X143918199Y-65818000D01*
X143899262Y-65821767D01*
X143888267Y-65829114D01*
X143886271Y-65829245D01*
X143885160Y-65827582D01*
X143885493Y-65826340D01*
X143894709Y-65812548D01*
X143892969Y-65811385D01*
X143892084Y-65809591D01*
X143892545Y-65808440D01*
X143907078Y-65791048D01*
X143915704Y-65722330D01*
X143892918Y-65674712D01*
X143893072Y-65672718D01*
X143893611Y-65672186D01*
X143894709Y-65671452D01*
X143885493Y-65657660D01*
X143885362Y-65655664D01*
X143887025Y-65654553D01*
X143888267Y-65654886D01*
G37*
G36*
X155288267Y-65654886D02*
G01*
X155299262Y-65662233D01*
X155318199Y-65666000D01*
X156817801Y-65666000D01*
X156836738Y-65662233D01*
X156847733Y-65654886D01*
X156849729Y-65654755D01*
X156850840Y-65656418D01*
X156850507Y-65657660D01*
X156841291Y-65671452D01*
X156843031Y-65672615D01*
X156843916Y-65674409D01*
X156843455Y-65675560D01*
X156828922Y-65692952D01*
X156820296Y-65761670D01*
X156843082Y-65809288D01*
X156842928Y-65811282D01*
X156842389Y-65811814D01*
X156841291Y-65812548D01*
X156850507Y-65826340D01*
X156850638Y-65828336D01*
X156848975Y-65829447D01*
X156847733Y-65829114D01*
X156836738Y-65821767D01*
X156817801Y-65818000D01*
X155318199Y-65818000D01*
X155299262Y-65821767D01*
X155288267Y-65829114D01*
X155286271Y-65829245D01*
X155285160Y-65827582D01*
X155285493Y-65826340D01*
X155294709Y-65812548D01*
X155292969Y-65811385D01*
X155292084Y-65809591D01*
X155292545Y-65808440D01*
X155307078Y-65791048D01*
X155315704Y-65722330D01*
X155292918Y-65674712D01*
X155293072Y-65672718D01*
X155293611Y-65672186D01*
X155294709Y-65671452D01*
X155285493Y-65657660D01*
X155285362Y-65655664D01*
X155287025Y-65654553D01*
X155288267Y-65654886D01*
G37*
G36*
X149883660Y-62859493D02*
G01*
X149897452Y-62868709D01*
X149898615Y-62866969D01*
X149900409Y-62866084D01*
X149901560Y-62866545D01*
X149918952Y-62881078D01*
X149987670Y-62889704D01*
X150035288Y-62866918D01*
X150037282Y-62867072D01*
X150037814Y-62867611D01*
X150038548Y-62868709D01*
X150052340Y-62859493D01*
X150054336Y-62859362D01*
X150055447Y-62861025D01*
X150055114Y-62862267D01*
X150047767Y-62873262D01*
X150044000Y-62892199D01*
X150044000Y-64391801D01*
X150047767Y-64410738D01*
X150055114Y-64421733D01*
X150055245Y-64423729D01*
X150053582Y-64424840D01*
X150052340Y-64424507D01*
X150038548Y-64415291D01*
X150037385Y-64417031D01*
X150035591Y-64417916D01*
X150034440Y-64417455D01*
X150017048Y-64402922D01*
X149948330Y-64394296D01*
X149900712Y-64417082D01*
X149898718Y-64416928D01*
X149898186Y-64416389D01*
X149897452Y-64415291D01*
X149883660Y-64424507D01*
X149881664Y-64424638D01*
X149880553Y-64422975D01*
X149880886Y-64421733D01*
X149888233Y-64410738D01*
X149892000Y-64391801D01*
X149892000Y-62892199D01*
X149888233Y-62873262D01*
X149880886Y-62862267D01*
X149880755Y-62860271D01*
X149882418Y-62859160D01*
X149883660Y-62859493D01*
G37*
G36*
X151483660Y-62859493D02*
G01*
X151497452Y-62868709D01*
X151498615Y-62866969D01*
X151500409Y-62866084D01*
X151501560Y-62866545D01*
X151518952Y-62881078D01*
X151587670Y-62889704D01*
X151635288Y-62866918D01*
X151637282Y-62867072D01*
X151637814Y-62867611D01*
X151638548Y-62868709D01*
X151652340Y-62859493D01*
X151654336Y-62859362D01*
X151655447Y-62861025D01*
X151655114Y-62862267D01*
X151647767Y-62873262D01*
X151644000Y-62892199D01*
X151644000Y-64391801D01*
X151647767Y-64410738D01*
X151655114Y-64421733D01*
X151655245Y-64423729D01*
X151653582Y-64424840D01*
X151652340Y-64424507D01*
X151638548Y-64415291D01*
X151637385Y-64417031D01*
X151635591Y-64417916D01*
X151634440Y-64417455D01*
X151617048Y-64402922D01*
X151548330Y-64394296D01*
X151500712Y-64417082D01*
X151498718Y-64416928D01*
X151498186Y-64416389D01*
X151497452Y-64415291D01*
X151483660Y-64424507D01*
X151481664Y-64424638D01*
X151480553Y-64422975D01*
X151480886Y-64421733D01*
X151488233Y-64410738D01*
X151492000Y-64391801D01*
X151492000Y-62892199D01*
X151488233Y-62873262D01*
X151480886Y-62862267D01*
X151480755Y-62860271D01*
X151482418Y-62859160D01*
X151483660Y-62859493D01*
G37*
G36*
X153883660Y-62859493D02*
G01*
X153897452Y-62868709D01*
X153898615Y-62866969D01*
X153900409Y-62866084D01*
X153901560Y-62866545D01*
X153918952Y-62881078D01*
X153987670Y-62889704D01*
X154035288Y-62866918D01*
X154037282Y-62867072D01*
X154037814Y-62867611D01*
X154038548Y-62868709D01*
X154052340Y-62859493D01*
X154054336Y-62859362D01*
X154055447Y-62861025D01*
X154055114Y-62862267D01*
X154047767Y-62873262D01*
X154044000Y-62892199D01*
X154044000Y-64391801D01*
X154047767Y-64410738D01*
X154055114Y-64421733D01*
X154055245Y-64423729D01*
X154053582Y-64424840D01*
X154052340Y-64424507D01*
X154038548Y-64415291D01*
X154037385Y-64417031D01*
X154035591Y-64417916D01*
X154034440Y-64417455D01*
X154017048Y-64402922D01*
X153948330Y-64394296D01*
X153900712Y-64417082D01*
X153898718Y-64416928D01*
X153898186Y-64416389D01*
X153897452Y-64415291D01*
X153883660Y-64424507D01*
X153881664Y-64424638D01*
X153880553Y-64422975D01*
X153880886Y-64421733D01*
X153888233Y-64410738D01*
X153892000Y-64391801D01*
X153892000Y-62892199D01*
X153888233Y-62873262D01*
X153880886Y-62862267D01*
X153880755Y-62860271D01*
X153882418Y-62859160D01*
X153883660Y-62859493D01*
G37*
G36*
X153083660Y-62859493D02*
G01*
X153097452Y-62868709D01*
X153098615Y-62866969D01*
X153100409Y-62866084D01*
X153101560Y-62866545D01*
X153118952Y-62881078D01*
X153187670Y-62889704D01*
X153235288Y-62866918D01*
X153237282Y-62867072D01*
X153237814Y-62867611D01*
X153238548Y-62868709D01*
X153252340Y-62859493D01*
X153254336Y-62859362D01*
X153255447Y-62861025D01*
X153255114Y-62862267D01*
X153247767Y-62873262D01*
X153244000Y-62892199D01*
X153244000Y-64391801D01*
X153247767Y-64410738D01*
X153255114Y-64421733D01*
X153255245Y-64423729D01*
X153253582Y-64424840D01*
X153252340Y-64424507D01*
X153238548Y-64415291D01*
X153237385Y-64417031D01*
X153235591Y-64417916D01*
X153234440Y-64417455D01*
X153217048Y-64402922D01*
X153148330Y-64394296D01*
X153100712Y-64417082D01*
X153098718Y-64416928D01*
X153098186Y-64416389D01*
X153097452Y-64415291D01*
X153083660Y-64424507D01*
X153081664Y-64424638D01*
X153080553Y-64422975D01*
X153080886Y-64421733D01*
X153088233Y-64410738D01*
X153092000Y-64391801D01*
X153092000Y-62892199D01*
X153088233Y-62873262D01*
X153080886Y-62862267D01*
X153080755Y-62860271D01*
X153082418Y-62859160D01*
X153083660Y-62859493D01*
G37*
G36*
X148283660Y-62859493D02*
G01*
X148297452Y-62868709D01*
X148298615Y-62866969D01*
X148300409Y-62866084D01*
X148301560Y-62866545D01*
X148318952Y-62881078D01*
X148387670Y-62889704D01*
X148435288Y-62866918D01*
X148437282Y-62867072D01*
X148437814Y-62867611D01*
X148438548Y-62868709D01*
X148452340Y-62859493D01*
X148454336Y-62859362D01*
X148455447Y-62861025D01*
X148455114Y-62862267D01*
X148447767Y-62873262D01*
X148444000Y-62892199D01*
X148444000Y-64391801D01*
X148447767Y-64410738D01*
X148455114Y-64421733D01*
X148455245Y-64423729D01*
X148453582Y-64424840D01*
X148452340Y-64424507D01*
X148438548Y-64415291D01*
X148437385Y-64417031D01*
X148435591Y-64417916D01*
X148434440Y-64417455D01*
X148417048Y-64402922D01*
X148348330Y-64394296D01*
X148300712Y-64417082D01*
X148298718Y-64416928D01*
X148298186Y-64416389D01*
X148297452Y-64415291D01*
X148283660Y-64424507D01*
X148281664Y-64424638D01*
X148280553Y-64422975D01*
X148280886Y-64421733D01*
X148288233Y-64410738D01*
X148292000Y-64391801D01*
X148292000Y-62892199D01*
X148288233Y-62873262D01*
X148280886Y-62862267D01*
X148280755Y-62860271D01*
X148282418Y-62859160D01*
X148283660Y-62859493D01*
G37*
G36*
X152283660Y-62859493D02*
G01*
X152297452Y-62868709D01*
X152298615Y-62866969D01*
X152300409Y-62866084D01*
X152301560Y-62866545D01*
X152318952Y-62881078D01*
X152387670Y-62889704D01*
X152435288Y-62866918D01*
X152437282Y-62867072D01*
X152437814Y-62867611D01*
X152438548Y-62868709D01*
X152452340Y-62859493D01*
X152454336Y-62859362D01*
X152455447Y-62861025D01*
X152455114Y-62862267D01*
X152447767Y-62873262D01*
X152444000Y-62892199D01*
X152444000Y-64391801D01*
X152447767Y-64410738D01*
X152455114Y-64421733D01*
X152455245Y-64423729D01*
X152453582Y-64424840D01*
X152452340Y-64424507D01*
X152438548Y-64415291D01*
X152437385Y-64417031D01*
X152435591Y-64417916D01*
X152434440Y-64417455D01*
X152417048Y-64402922D01*
X152348330Y-64394296D01*
X152300712Y-64417082D01*
X152298718Y-64416928D01*
X152298186Y-64416389D01*
X152297452Y-64415291D01*
X152283660Y-64424507D01*
X152281664Y-64424638D01*
X152280553Y-64422975D01*
X152280886Y-64421733D01*
X152288233Y-64410738D01*
X152292000Y-64391801D01*
X152292000Y-62892199D01*
X152288233Y-62873262D01*
X152280886Y-62862267D01*
X152280755Y-62860271D01*
X152282418Y-62859160D01*
X152283660Y-62859493D01*
G37*
G36*
X150683660Y-62859493D02*
G01*
X150697452Y-62868709D01*
X150698615Y-62866969D01*
X150700409Y-62866084D01*
X150701560Y-62866545D01*
X150718952Y-62881078D01*
X150787670Y-62889704D01*
X150835288Y-62866918D01*
X150837282Y-62867072D01*
X150837814Y-62867611D01*
X150838548Y-62868709D01*
X150852340Y-62859493D01*
X150854336Y-62859362D01*
X150855447Y-62861025D01*
X150855114Y-62862267D01*
X150847767Y-62873262D01*
X150844000Y-62892199D01*
X150844000Y-64391801D01*
X150847767Y-64410738D01*
X150855114Y-64421733D01*
X150855245Y-64423729D01*
X150853582Y-64424840D01*
X150852340Y-64424507D01*
X150838548Y-64415291D01*
X150837385Y-64417031D01*
X150835591Y-64417916D01*
X150834440Y-64417455D01*
X150817048Y-64402922D01*
X150748330Y-64394296D01*
X150700712Y-64417082D01*
X150698718Y-64416928D01*
X150698186Y-64416389D01*
X150697452Y-64415291D01*
X150683660Y-64424507D01*
X150681664Y-64424638D01*
X150680553Y-64422975D01*
X150680886Y-64421733D01*
X150688233Y-64410738D01*
X150692000Y-64391801D01*
X150692000Y-62892199D01*
X150688233Y-62873262D01*
X150680886Y-62862267D01*
X150680755Y-62860271D01*
X150682418Y-62859160D01*
X150683660Y-62859493D01*
G37*
G36*
X147483660Y-62859493D02*
G01*
X147497452Y-62868709D01*
X147498615Y-62866969D01*
X147500409Y-62866084D01*
X147501560Y-62866545D01*
X147518952Y-62881078D01*
X147587670Y-62889704D01*
X147635288Y-62866918D01*
X147637282Y-62867072D01*
X147637814Y-62867611D01*
X147638548Y-62868709D01*
X147652340Y-62859493D01*
X147654336Y-62859362D01*
X147655447Y-62861025D01*
X147655114Y-62862267D01*
X147647767Y-62873262D01*
X147644000Y-62892199D01*
X147644000Y-64391801D01*
X147647767Y-64410738D01*
X147655114Y-64421733D01*
X147655245Y-64423729D01*
X147653582Y-64424840D01*
X147652340Y-64424507D01*
X147638548Y-64415291D01*
X147637385Y-64417031D01*
X147635591Y-64417916D01*
X147634440Y-64417455D01*
X147617048Y-64402922D01*
X147548330Y-64394296D01*
X147500712Y-64417082D01*
X147498718Y-64416928D01*
X147498186Y-64416389D01*
X147497452Y-64415291D01*
X147483660Y-64424507D01*
X147481664Y-64424638D01*
X147480553Y-64422975D01*
X147480886Y-64421733D01*
X147488233Y-64410738D01*
X147492000Y-64391801D01*
X147492000Y-62892199D01*
X147488233Y-62873262D01*
X147480886Y-62862267D01*
X147480755Y-62860271D01*
X147482418Y-62859160D01*
X147483660Y-62859493D01*
G37*
G36*
X146683660Y-62859493D02*
G01*
X146697452Y-62868709D01*
X146698615Y-62866969D01*
X146700409Y-62866084D01*
X146701560Y-62866545D01*
X146718952Y-62881078D01*
X146787670Y-62889704D01*
X146835288Y-62866918D01*
X146837282Y-62867072D01*
X146837814Y-62867611D01*
X146838548Y-62868709D01*
X146852340Y-62859493D01*
X146854336Y-62859362D01*
X146855447Y-62861025D01*
X146855114Y-62862267D01*
X146847767Y-62873262D01*
X146844000Y-62892199D01*
X146844000Y-64391801D01*
X146847767Y-64410738D01*
X146855114Y-64421733D01*
X146855245Y-64423729D01*
X146853582Y-64424840D01*
X146852340Y-64424507D01*
X146838548Y-64415291D01*
X146837385Y-64417031D01*
X146835591Y-64417916D01*
X146834440Y-64417455D01*
X146817048Y-64402922D01*
X146748330Y-64394296D01*
X146700712Y-64417082D01*
X146698718Y-64416928D01*
X146698186Y-64416389D01*
X146697452Y-64415291D01*
X146683660Y-64424507D01*
X146681664Y-64424638D01*
X146680553Y-64422975D01*
X146680886Y-64421733D01*
X146688233Y-64410738D01*
X146692000Y-64391801D01*
X146692000Y-62892199D01*
X146688233Y-62873262D01*
X146680886Y-62862267D01*
X146680755Y-62860271D01*
X146682418Y-62859160D01*
X146683660Y-62859493D01*
G37*
G36*
X149083660Y-62859493D02*
G01*
X149097452Y-62868709D01*
X149098615Y-62866969D01*
X149100409Y-62866084D01*
X149101560Y-62866545D01*
X149118952Y-62881078D01*
X149187670Y-62889704D01*
X149235288Y-62866918D01*
X149237282Y-62867072D01*
X149237814Y-62867611D01*
X149238548Y-62868709D01*
X149252340Y-62859493D01*
X149254336Y-62859362D01*
X149255447Y-62861025D01*
X149255114Y-62862267D01*
X149247767Y-62873262D01*
X149244000Y-62892199D01*
X149244000Y-64391801D01*
X149247767Y-64410738D01*
X149255114Y-64421733D01*
X149255245Y-64423729D01*
X149253582Y-64424840D01*
X149252340Y-64424507D01*
X149238548Y-64415291D01*
X149237385Y-64417031D01*
X149235591Y-64417916D01*
X149234440Y-64417455D01*
X149217048Y-64402922D01*
X149148330Y-64394296D01*
X149100712Y-64417082D01*
X149098718Y-64416928D01*
X149098186Y-64416389D01*
X149097452Y-64415291D01*
X149083660Y-64424507D01*
X149081664Y-64424638D01*
X149080553Y-64422975D01*
X149080886Y-64421733D01*
X149088233Y-64410738D01*
X149092000Y-64391801D01*
X149092000Y-62892199D01*
X149088233Y-62873262D01*
X149080886Y-62862267D01*
X149080755Y-62860271D01*
X149082418Y-62859160D01*
X149083660Y-62859493D01*
G37*
G36*
X177305262Y-50293854D02*
G01*
X177305980Y-50294220D01*
X178530541Y-51273868D01*
X178595125Y-51300352D01*
X178607646Y-51301000D01*
X180068027Y-51301000D01*
X180068590Y-51301081D01*
X180085618Y-51306081D01*
X180085962Y-51306442D01*
X180086101Y-51306349D01*
X180086793Y-51306426D01*
X180091554Y-51307824D01*
X180092393Y-51308317D01*
X180098724Y-51314542D01*
X180098986Y-51314859D01*
X180561072Y-52007990D01*
X180614463Y-52052705D01*
X180663781Y-52063000D01*
X206484027Y-52063000D01*
X206484590Y-52063081D01*
X206501620Y-52068081D01*
X206502185Y-52068673D01*
X206503000Y-52068673D01*
X206503512Y-52069095D01*
X206506403Y-52072432D01*
X206506845Y-52073317D01*
X206508954Y-52083013D01*
X206509000Y-52083438D01*
X206509000Y-52193714D01*
X206528596Y-52260453D01*
X206580999Y-52305859D01*
X206632213Y-52317000D01*
X207239680Y-52317000D01*
X207284184Y-52308736D01*
X208895713Y-51688917D01*
X208896268Y-51688791D01*
X208913958Y-51687345D01*
X208914413Y-51687560D01*
X208915322Y-51687233D01*
X208925384Y-51686411D01*
X208926393Y-51686592D01*
X210806674Y-52564056D01*
X210807150Y-52564367D01*
X210820468Y-52576100D01*
X210820657Y-52576662D01*
X210821566Y-52577068D01*
X210830306Y-52584768D01*
X210830822Y-52585481D01*
X211581354Y-54336722D01*
X211581502Y-54337272D01*
X211583614Y-54354894D01*
X211583388Y-54355423D01*
X211583786Y-54356329D01*
X211585130Y-54367544D01*
X211585030Y-54368448D01*
X210832582Y-56500382D01*
X210832318Y-56500886D01*
X210821936Y-56515280D01*
X210821005Y-56515699D01*
X210821005Y-56516000D01*
X210820005Y-56516861D01*
X210807292Y-56521861D01*
X210806560Y-56522000D01*
X207026127Y-56522000D01*
X206996052Y-56525702D01*
X206602447Y-56624104D01*
X206542452Y-56659303D01*
X206511054Y-56721264D01*
X206509000Y-56743597D01*
X206509000Y-57640027D01*
X206508919Y-57640590D01*
X206503919Y-57657620D01*
X206503327Y-57658185D01*
X206503327Y-57659000D01*
X206502905Y-57659512D01*
X206499568Y-57662403D01*
X206498683Y-57662845D01*
X206488987Y-57664954D01*
X206488562Y-57665000D01*
X179844971Y-57665000D01*
X179820657Y-57667407D01*
X178594625Y-57912614D01*
X178541485Y-57937376D01*
X177310406Y-58922240D01*
X177309916Y-58922528D01*
X177293495Y-58929261D01*
X177292521Y-58929129D01*
X177292327Y-58929420D01*
X177291079Y-58929594D01*
X177278626Y-58927302D01*
X177277879Y-58926999D01*
X175787510Y-57933420D01*
X175739118Y-57914283D01*
X174260578Y-57667860D01*
X174260036Y-57667687D01*
X174244062Y-57659955D01*
X174243495Y-57659120D01*
X174243181Y-57659172D01*
X174242177Y-57658342D01*
X174235209Y-57646947D01*
X174234942Y-57646233D01*
X173988934Y-56170184D01*
X173961884Y-56111194D01*
X172726129Y-54628288D01*
X172725830Y-54627804D01*
X172718769Y-54611521D01*
X172718871Y-54610632D01*
X172718458Y-54610288D01*
X172718430Y-54610000D01*
X172722603Y-54610000D01*
X173991536Y-56132720D01*
X173991973Y-56133671D01*
X174245738Y-57656261D01*
X175768329Y-57910027D01*
X175769109Y-57910336D01*
X177291892Y-58925525D01*
X178560751Y-57910438D01*
X178561608Y-57910039D01*
X179831608Y-57656039D01*
X179832000Y-57656000D01*
X206500000Y-57656000D01*
X206500000Y-56642000D01*
X206501000Y-56640268D01*
X206501515Y-56640060D01*
X207009515Y-56513060D01*
X207010000Y-56513000D01*
X210818585Y-56513000D01*
X211579877Y-54356007D01*
X211579790Y-54355920D01*
X210818433Y-52579420D01*
X210818300Y-52579413D01*
X208914892Y-51691156D01*
X208914839Y-51691205D01*
X207264718Y-52325867D01*
X207264000Y-52326000D01*
X206502000Y-52326000D01*
X206500268Y-52325000D01*
X206500000Y-52324000D01*
X206500000Y-52072000D01*
X180594000Y-52072000D01*
X180592336Y-52071109D01*
X180084930Y-51310000D01*
X178562000Y-51310000D01*
X178560751Y-51309562D01*
X177291892Y-50294475D01*
X175769109Y-51309664D01*
X175768283Y-51309980D01*
X173992000Y-51563735D01*
X173992000Y-53086000D01*
X173991536Y-53087280D01*
X172722603Y-54610000D01*
X172718430Y-54610000D01*
X172718361Y-54609275D01*
X172719950Y-54599558D01*
X172720388Y-54598601D01*
X173954306Y-53117899D01*
X173982073Y-53053862D01*
X173983000Y-53038875D01*
X173983000Y-51579973D01*
X173983081Y-51579410D01*
X173988081Y-51562380D01*
X173988713Y-51561776D01*
X173988629Y-51561186D01*
X173989175Y-51560419D01*
X173995970Y-51554532D01*
X173996717Y-51554125D01*
X173997606Y-51553864D01*
X173997886Y-51553803D01*
X175737599Y-51305272D01*
X175788839Y-51285695D01*
X177273163Y-50296145D01*
X177273676Y-50295900D01*
X177290618Y-50290615D01*
X177291578Y-50290831D01*
X177291797Y-50290557D01*
X177293056Y-50290492D01*
X177305262Y-50293854D01*
G37*
G36*
X150750660Y-49268993D02*
G01*
X150764452Y-49278209D01*
X150765615Y-49276469D01*
X150767409Y-49275584D01*
X150768560Y-49276045D01*
X150785952Y-49290578D01*
X150854670Y-49299204D01*
X150902288Y-49276418D01*
X150904282Y-49276572D01*
X150904814Y-49277111D01*
X150905548Y-49278209D01*
X150919340Y-49268993D01*
X150921336Y-49268862D01*
X150922447Y-49270525D01*
X150922114Y-49271767D01*
X150914767Y-49282762D01*
X150911000Y-49301699D01*
X150911000Y-50651301D01*
X150914767Y-50670238D01*
X150922114Y-50681233D01*
X150922245Y-50683229D01*
X150920582Y-50684340D01*
X150919340Y-50684007D01*
X150905548Y-50674791D01*
X150904385Y-50676531D01*
X150902591Y-50677416D01*
X150901440Y-50676955D01*
X150884048Y-50662422D01*
X150815330Y-50653796D01*
X150767712Y-50676582D01*
X150765718Y-50676428D01*
X150765186Y-50675889D01*
X150764452Y-50674791D01*
X150750660Y-50684007D01*
X150748664Y-50684138D01*
X150747553Y-50682475D01*
X150747886Y-50681233D01*
X150755233Y-50670238D01*
X150759000Y-50651301D01*
X150759000Y-49301699D01*
X150755233Y-49282762D01*
X150747886Y-49271767D01*
X150747755Y-49269771D01*
X150749418Y-49268660D01*
X150750660Y-49268993D01*
G37*
G36*
X148800660Y-49268993D02*
G01*
X148814452Y-49278209D01*
X148815615Y-49276469D01*
X148817409Y-49275584D01*
X148818560Y-49276045D01*
X148835952Y-49290578D01*
X148904670Y-49299204D01*
X148952288Y-49276418D01*
X148954282Y-49276572D01*
X148954814Y-49277111D01*
X148955548Y-49278209D01*
X148969340Y-49268993D01*
X148971336Y-49268862D01*
X148972447Y-49270525D01*
X148972114Y-49271767D01*
X148964767Y-49282762D01*
X148961000Y-49301699D01*
X148961000Y-50651301D01*
X148964767Y-50670238D01*
X148972114Y-50681233D01*
X148972245Y-50683229D01*
X148970582Y-50684340D01*
X148969340Y-50684007D01*
X148955548Y-50674791D01*
X148954385Y-50676531D01*
X148952591Y-50677416D01*
X148951440Y-50676955D01*
X148934048Y-50662422D01*
X148865330Y-50653796D01*
X148817712Y-50676582D01*
X148815718Y-50676428D01*
X148815186Y-50675889D01*
X148814452Y-50674791D01*
X148800660Y-50684007D01*
X148798664Y-50684138D01*
X148797553Y-50682475D01*
X148797886Y-50681233D01*
X148805233Y-50670238D01*
X148809000Y-50651301D01*
X148809000Y-49301699D01*
X148805233Y-49282762D01*
X148797886Y-49271767D01*
X148797755Y-49269771D01*
X148799418Y-49268660D01*
X148800660Y-49268993D01*
G37*
G36*
X150100660Y-49268993D02*
G01*
X150114452Y-49278209D01*
X150115615Y-49276469D01*
X150117409Y-49275584D01*
X150118560Y-49276045D01*
X150135952Y-49290578D01*
X150204670Y-49299204D01*
X150252288Y-49276418D01*
X150254282Y-49276572D01*
X150254814Y-49277111D01*
X150255548Y-49278209D01*
X150269340Y-49268993D01*
X150271336Y-49268862D01*
X150272447Y-49270525D01*
X150272114Y-49271767D01*
X150264767Y-49282762D01*
X150261000Y-49301699D01*
X150261000Y-50651301D01*
X150264767Y-50670238D01*
X150272114Y-50681233D01*
X150272245Y-50683229D01*
X150270582Y-50684340D01*
X150269340Y-50684007D01*
X150255548Y-50674791D01*
X150254385Y-50676531D01*
X150252591Y-50677416D01*
X150251440Y-50676955D01*
X150234048Y-50662422D01*
X150165330Y-50653796D01*
X150117712Y-50676582D01*
X150115718Y-50676428D01*
X150115186Y-50675889D01*
X150114452Y-50674791D01*
X150100660Y-50684007D01*
X150098664Y-50684138D01*
X150097553Y-50682475D01*
X150097886Y-50681233D01*
X150105233Y-50670238D01*
X150109000Y-50651301D01*
X150109000Y-49301699D01*
X150105233Y-49282762D01*
X150097886Y-49271767D01*
X150097755Y-49269771D01*
X150099418Y-49268660D01*
X150100660Y-49268993D01*
G37*
G36*
X149450660Y-49268993D02*
G01*
X149464452Y-49278209D01*
X149465615Y-49276469D01*
X149467409Y-49275584D01*
X149468560Y-49276045D01*
X149485952Y-49290578D01*
X149554670Y-49299204D01*
X149602288Y-49276418D01*
X149604282Y-49276572D01*
X149604814Y-49277111D01*
X149605548Y-49278209D01*
X149619340Y-49268993D01*
X149621336Y-49268862D01*
X149622447Y-49270525D01*
X149622114Y-49271767D01*
X149614767Y-49282762D01*
X149611000Y-49301699D01*
X149611000Y-50651301D01*
X149614767Y-50670238D01*
X149622114Y-50681233D01*
X149622245Y-50683229D01*
X149620582Y-50684340D01*
X149619340Y-50684007D01*
X149605548Y-50674791D01*
X149604385Y-50676531D01*
X149602591Y-50677416D01*
X149601440Y-50676955D01*
X149584048Y-50662422D01*
X149515330Y-50653796D01*
X149467712Y-50676582D01*
X149465718Y-50676428D01*
X149465186Y-50675889D01*
X149464452Y-50674791D01*
X149450660Y-50684007D01*
X149448664Y-50684138D01*
X149447553Y-50682475D01*
X149447886Y-50681233D01*
X149455233Y-50670238D01*
X149459000Y-50651301D01*
X149459000Y-49301699D01*
X149455233Y-49282762D01*
X149447886Y-49271767D01*
X149447755Y-49269771D01*
X149449418Y-49268660D01*
X149450660Y-49268993D01*
G37*
G36*
X151412919Y-49612234D02*
G01*
X151432595Y-49679246D01*
X151484938Y-49724601D01*
X151553491Y-49734458D01*
X151616504Y-49705680D01*
X151640398Y-49669645D01*
X151642189Y-49668754D01*
X151643065Y-49669018D01*
X151644416Y-49669798D01*
X151654203Y-49652846D01*
X151655935Y-49651846D01*
X151657667Y-49652846D01*
X151657823Y-49654507D01*
X151605417Y-49804275D01*
X151586012Y-49976500D01*
X151605417Y-50148725D01*
X151657823Y-50298493D01*
X151657451Y-50300459D01*
X151655563Y-50301119D01*
X151654203Y-50300154D01*
X151644416Y-50283202D01*
X151642775Y-50284149D01*
X151640775Y-50284149D01*
X151640124Y-50283546D01*
X151613808Y-50245057D01*
X151550015Y-50218095D01*
X151481771Y-50229903D01*
X151430732Y-50276742D01*
X151412927Y-50340744D01*
X151411499Y-50342145D01*
X151409572Y-50341609D01*
X151409000Y-50340208D01*
X151409000Y-49612797D01*
X151410000Y-49611065D01*
X151412000Y-49611065D01*
X151412919Y-49612234D01*
G37*
M02*
