M48
; DRILL file {KiCad 5.1.9+dfsg1-1+deb11u1} date Mon Oct  3 19:41:35 2022
; FORMAT={-:-/ absolute / metric / decimal}
; #@! TF.CreationDate,2022-10-03T19:41:35+02:00
; #@! TF.GenerationSoftware,Kicad,Pcbnew,5.1.9+dfsg1-1+deb11u1
; #@! TF.FileFunction,NonPlated,1,4,NPTH
FMAT,2
METRIC
T1C1.750
T2C4.000
%
G90
G05
T1
X10.504Y-81.153
X10.504Y-102.87
X10.504Y-124.46
X14.187Y-59.69
X20.484Y-81.153
X20.484Y-102.87
X20.484Y-124.46
X24.167Y-59.69
X29.808Y-80.01
X29.808Y-99.314
X29.808Y-118.618
X29.808Y-141.478
X33.491Y-60.706
X39.788Y-80.01
X39.788Y-99.314
X39.788Y-118.618
X39.788Y-141.478
X43.471Y-60.706
X49.112Y-83.439
X49.112Y-102.743
X49.112Y-122.174
X49.112Y-141.478
X52.795Y-64.262
X59.092Y-83.439
X59.092Y-102.743
X59.092Y-122.174
X59.092Y-141.478
X62.775Y-64.262
X68.416Y-86.995
X68.416Y-106.299
X68.416Y-125.73
X68.416Y-144.78
X72.099Y-67.691
X78.396Y-86.995
X78.396Y-106.299
X78.396Y-125.73
X78.396Y-144.78
X82.079Y-67.691
X87.72Y-90.551
X87.72Y-110.109
X87.72Y-129.159
X87.72Y-148.59
X87.72Y-164.846
X91.403Y-71.247
X97.7Y-90.551
X97.7Y-110.109
X97.7Y-129.159
X97.7Y-148.59
X97.7Y-164.846
X101.383Y-71.247
X107.024Y-94.234
X107.024Y-113.538
X107.024Y-132.842
X107.024Y-152.146
X110.707Y-74.93
X117.004Y-94.234
X117.004Y-113.538
X117.004Y-132.842
X117.004Y-152.146
X120.687Y-74.93
X126.328Y-98.806
X126.328Y-118.11
X126.328Y-137.414
X126.328Y-156.718
X130.011Y-79.375
X136.308Y-98.806
X136.308Y-118.11
X136.308Y-137.414
X136.308Y-156.718
X139.991Y-79.375
X145.632Y-100.457
X145.632Y-119.888
X145.632Y-139.192
X145.632Y-158.496
X155.612Y-100.457
X155.612Y-119.888
X155.612Y-139.192
X155.612Y-158.496
X160.11Y-79.502
X164.936Y-98.806
X164.936Y-118.11
X164.936Y-137.414
X164.936Y-156.718
X170.09Y-79.502
X174.916Y-98.806
X174.916Y-118.11
X174.916Y-137.414
X174.916Y-156.718
X179.414Y-74.93
X184.24Y-94.234
X184.24Y-113.538
X184.24Y-132.842
X184.24Y-152.146
X189.394Y-74.93
X194.22Y-94.234
X194.22Y-113.538
X194.22Y-132.842
X194.22Y-152.146
X198.718Y-71.12
X203.544Y-90.678
X203.544Y-109.982
X203.544Y-129.286
X203.798Y-148.59
X203.798Y-164.846
X208.698Y-71.12
X213.524Y-90.678
X213.524Y-109.982
X213.524Y-129.286
X213.778Y-148.59
X213.778Y-164.846
X218.022Y-67.818
X222.848Y-87.122
X222.848Y-106.426
X222.848Y-125.73
X222.848Y-145.034
X228.002Y-67.818
X232.828Y-87.122
X232.828Y-106.426
X232.828Y-125.73
X232.828Y-145.034
X237.326Y-64.262
X242.152Y-83.566
X242.152Y-102.87
X242.152Y-122.174
X242.152Y-141.224
X242.152Y-160.782
X247.306Y-64.262
X252.132Y-83.566
X252.132Y-102.87
X252.132Y-122.174
X252.132Y-141.224
X252.132Y-160.782
X256.63Y-60.706
X261.456Y-80.01
X261.456Y-99.314
X261.456Y-118.618
X261.456Y-140.97
X261.456Y-160.528
X266.61Y-60.706
X271.436Y-80.01
X271.436Y-99.314
X271.436Y-118.618
X271.436Y-140.97
X271.436Y-160.528
X275.934Y-59.69
X280.76Y-78.994
X280.76Y-98.044
X280.76Y-119.888
X280.76Y-141.224
X280.76Y-160.782
X285.914Y-59.69
X290.74Y-78.994
X290.74Y-98.044
X290.74Y-119.888
X290.74Y-141.224
X290.74Y-160.782
T2
X15.494Y-81.153
X15.494Y-102.87
X15.494Y-124.46
X19.177Y-59.69
X34.798Y-80.01
X34.798Y-99.314
X34.798Y-118.618
X34.798Y-141.478
X38.481Y-60.706
X54.102Y-83.439
X54.102Y-102.743
X54.102Y-122.174
X54.102Y-141.478
X57.785Y-64.262
X73.406Y-86.995
X73.406Y-106.299
X73.406Y-125.73
X73.406Y-144.78
X77.089Y-67.691
X92.71Y-90.551
X92.71Y-110.109
X92.71Y-129.159
X92.71Y-148.59
X92.71Y-164.846
X96.393Y-71.247
X112.014Y-94.234
X112.014Y-113.538
X112.014Y-132.842
X112.014Y-152.146
X115.697Y-74.93
X131.318Y-98.806
X131.318Y-118.11
X131.318Y-137.414
X131.318Y-156.718
X135.001Y-79.375
X150.622Y-100.457
X150.622Y-119.888
X150.622Y-139.192
X150.622Y-158.496
X165.1Y-79.502
X169.926Y-98.806
X169.926Y-118.11
X169.926Y-137.414
X169.926Y-156.718
X184.404Y-74.93
X189.23Y-94.234
X189.23Y-113.538
X189.23Y-132.842
X189.23Y-152.146
X203.708Y-71.12
X208.534Y-90.678
X208.534Y-109.982
X208.534Y-129.286
X208.788Y-148.59
X208.788Y-164.846
X223.012Y-67.818
X227.838Y-87.122
X227.838Y-106.426
X227.838Y-125.73
X227.838Y-145.034
X242.316Y-64.262
X247.142Y-83.566
X247.142Y-102.87
X247.142Y-122.174
X247.142Y-141.224
X247.142Y-160.782
X261.62Y-60.706
X266.446Y-80.01
X266.446Y-99.314
X266.446Y-118.618
X266.446Y-140.97
X266.446Y-160.528
X280.924Y-59.69
X285.75Y-78.994
X285.75Y-98.044
X285.75Y-119.888
X285.75Y-141.224
X285.75Y-160.782
T0
M30
