M48
; DRILL file {KiCad (6.99.0-1603-g82820d4b1c)} date Fri Jun 17 11:00:46 2022
; FORMAT={-:-/ absolute / metric / decimal}
; #@! TF.CreationDate,2022-06-17T11:00:46+02:00
; #@! TF.GenerationSoftware,Kicad,Pcbnew,(6.99.0-1603-g82820d4b1c)
; #@! TF.FileFunction,NonPlated,1,2,NPTH
FMAT,2
METRIC
; #@! TA.AperFunction,NonPlated,NPTH,ComponentDrill
T1C1.750
; #@! TA.AperFunction,NonPlated,NPTH,ComponentDrill
T2C4.000
%
G90
G05
T1
X15.494Y-76.163
X15.494Y-86.143
X15.494Y-97.88
X15.494Y-107.86
X15.494Y-119.47
X15.494Y-129.45
X19.177Y-54.7
X19.177Y-64.68
X34.798Y-75.02
X34.798Y-85.0
X34.798Y-94.324
X34.798Y-104.304
X34.798Y-113.628
X34.798Y-123.608
X34.798Y-136.488
X34.798Y-146.468
X38.481Y-55.716
X38.481Y-65.696
X54.102Y-78.449
X54.102Y-88.429
X54.102Y-97.753
X54.102Y-107.733
X54.102Y-117.184
X54.102Y-127.164
X54.102Y-136.488
X54.102Y-146.468
X57.785Y-59.272
X57.785Y-69.252
X73.406Y-82.005
X73.406Y-91.985
X73.406Y-101.309
X73.406Y-111.289
X73.406Y-120.74
X73.406Y-130.72
X73.406Y-139.79
X73.406Y-149.77
X77.089Y-62.701
X77.089Y-72.681
X92.71Y-85.561
X92.71Y-95.541
X92.71Y-105.119
X92.71Y-115.099
X92.71Y-124.169
X92.71Y-134.149
X92.71Y-143.6
X92.71Y-153.58
X92.71Y-159.856
X92.71Y-169.836
X96.393Y-66.257
X96.393Y-76.237
X112.014Y-89.244
X112.014Y-99.224
X112.014Y-108.548
X112.014Y-118.528
X112.014Y-127.852
X112.014Y-137.832
X112.014Y-147.156
X112.014Y-157.136
X115.697Y-69.94
X115.697Y-79.92
X131.318Y-93.816
X131.318Y-103.796
X131.318Y-113.12
X131.318Y-123.1
X131.318Y-132.424
X131.318Y-142.404
X131.318Y-151.728
X131.318Y-161.708
X135.001Y-74.385
X135.001Y-84.365
X150.622Y-95.467
X150.622Y-105.447
X150.622Y-114.898
X150.622Y-124.878
X150.622Y-134.202
X150.622Y-144.182
X150.622Y-153.506
X150.622Y-163.486
X165.1Y-74.512
X165.1Y-84.492
X169.926Y-93.816
X169.926Y-103.796
X169.926Y-113.12
X169.926Y-123.1
X169.926Y-132.424
X169.926Y-142.404
X169.926Y-151.728
X169.926Y-161.708
X184.404Y-69.94
X184.404Y-79.92
X189.23Y-89.244
X189.23Y-99.224
X189.23Y-108.548
X189.23Y-118.528
X189.23Y-127.852
X189.23Y-137.832
X189.23Y-147.156
X189.23Y-157.136
X203.708Y-66.13
X203.708Y-76.11
X208.534Y-85.688
X208.534Y-95.668
X208.534Y-104.992
X208.534Y-114.972
X208.534Y-124.296
X208.534Y-134.276
X208.788Y-143.6
X208.788Y-153.58
X208.788Y-159.856
X208.788Y-169.836
X223.012Y-62.828
X223.012Y-72.808
X227.838Y-82.132
X227.838Y-92.112
X227.838Y-101.436
X227.838Y-111.416
X227.838Y-120.74
X227.838Y-130.72
X227.838Y-140.044
X227.838Y-150.024
X242.316Y-59.272
X242.316Y-69.252
X247.142Y-78.576
X247.142Y-88.556
X247.142Y-97.88
X247.142Y-107.86
X247.142Y-117.184
X247.142Y-127.164
X247.142Y-136.234
X247.142Y-146.214
X247.142Y-155.792
X247.142Y-165.772
X261.62Y-55.716
X261.62Y-65.696
X266.446Y-75.02
X266.446Y-85.0
X266.446Y-94.324
X266.446Y-104.304
X266.446Y-113.628
X266.446Y-123.608
X266.446Y-135.98
X266.446Y-145.96
X266.446Y-155.538
X266.446Y-165.518
X280.924Y-54.7
X280.924Y-64.68
X285.75Y-74.004
X285.75Y-83.984
X285.75Y-93.054
X285.75Y-103.034
X285.75Y-114.898
X285.75Y-124.878
X285.75Y-136.234
X285.75Y-146.214
X285.75Y-155.792
X285.75Y-165.772
T2
X15.494Y-81.153
X15.494Y-102.87
X15.494Y-124.46
X19.177Y-59.69
X34.798Y-80.01
X34.798Y-99.314
X34.798Y-118.618
X34.798Y-141.478
X38.481Y-60.706
X54.102Y-83.439
X54.102Y-102.743
X54.102Y-122.174
X54.102Y-141.478
X57.785Y-64.262
X73.406Y-86.995
X73.406Y-106.299
X73.406Y-125.73
X73.406Y-144.78
X77.089Y-67.691
X92.71Y-90.551
X92.71Y-110.109
X92.71Y-129.159
X92.71Y-148.59
X92.71Y-164.846
X96.393Y-71.247
X112.014Y-94.234
X112.014Y-113.538
X112.014Y-132.842
X112.014Y-152.146
X115.697Y-74.93
X131.318Y-98.806
X131.318Y-118.11
X131.318Y-137.414
X131.318Y-156.718
X135.001Y-79.375
X150.622Y-100.457
X150.622Y-119.888
X150.622Y-139.192
X150.622Y-158.496
X165.1Y-79.502
X169.926Y-98.806
X169.926Y-118.11
X169.926Y-137.414
X169.926Y-156.718
X184.404Y-74.93
X189.23Y-94.234
X189.23Y-113.538
X189.23Y-132.842
X189.23Y-152.146
X203.708Y-71.12
X208.534Y-90.678
X208.534Y-109.982
X208.534Y-129.286
X208.788Y-148.59
X208.788Y-164.846
X223.012Y-67.818
X227.838Y-87.122
X227.838Y-106.426
X227.838Y-125.73
X227.838Y-145.034
X242.316Y-64.262
X247.142Y-83.566
X247.142Y-102.87
X247.142Y-122.174
X247.142Y-141.224
X247.142Y-160.782
X261.62Y-60.706
X266.446Y-80.01
X266.446Y-99.314
X266.446Y-118.618
X266.446Y-140.97
X266.446Y-160.528
X280.924Y-59.69
X285.75Y-78.994
X285.75Y-98.044
X285.75Y-119.888
X285.75Y-141.224
X285.75Y-160.782
T0
M30
