%FSLAX45Y45*%
G04 Gerber Fmt 4.5, Leading zero omitted, Abs format (unit mm)*
G04 Created by KiCad (PCBNEW 5.1.9+dfsg1-1+deb11u1) date 2022-10-03 19:41:36*
%MOMM*%
%LPD*%
G01*
G04 APERTURE LIST*
%TA.AperFunction,Profile*%
%ADD10C,0.100000*%
%TD*%
%ADD11C,0.200000*%
%ADD12C,0.300000*%
G04 APERTURE END LIST*
D10*
X29540200Y-4572000D02*
X29540200Y-17272000D01*
X482600Y-4572000D02*
X29540200Y-4572000D01*
X482600Y-17272000D02*
X482600Y-4572000D01*
X29540200Y-17272000D02*
X482600Y-17272000D01*
D11*
X962900Y-8027800D02*
X1137900Y-8202800D01*
X1137900Y-8027800D02*
X962900Y-8202800D01*
X962900Y-10199500D02*
X1137900Y-10374500D01*
X1137900Y-10199500D02*
X962900Y-10374500D01*
X962900Y-12358500D02*
X1137900Y-12533500D01*
X1137900Y-12358500D02*
X962900Y-12533500D01*
X1331200Y-5881500D02*
X1506200Y-6056500D01*
X1506200Y-5881500D02*
X1331200Y-6056500D01*
X1960900Y-8027800D02*
X2135900Y-8202800D01*
X2135900Y-8027800D02*
X1960900Y-8202800D01*
X1960900Y-10199500D02*
X2135900Y-10374500D01*
X2135900Y-10199500D02*
X1960900Y-10374500D01*
X1960900Y-12358500D02*
X2135900Y-12533500D01*
X2135900Y-12358500D02*
X1960900Y-12533500D01*
X2329200Y-5881500D02*
X2504200Y-6056500D01*
X2504200Y-5881500D02*
X2329200Y-6056500D01*
X2893300Y-7913500D02*
X3068300Y-8088500D01*
X3068300Y-7913500D02*
X2893300Y-8088500D01*
X2893300Y-9843900D02*
X3068300Y-10018900D01*
X3068300Y-9843900D02*
X2893300Y-10018900D01*
X2893300Y-11774300D02*
X3068300Y-11949300D01*
X3068300Y-11774300D02*
X2893300Y-11949300D01*
X2893300Y-14060300D02*
X3068300Y-14235300D01*
X3068300Y-14060300D02*
X2893300Y-14235300D01*
X3261600Y-5983100D02*
X3436600Y-6158100D01*
X3436600Y-5983100D02*
X3261600Y-6158100D01*
X3891300Y-7913500D02*
X4066300Y-8088500D01*
X4066300Y-7913500D02*
X3891300Y-8088500D01*
X3891300Y-9843900D02*
X4066300Y-10018900D01*
X4066300Y-9843900D02*
X3891300Y-10018900D01*
X3891300Y-11774300D02*
X4066300Y-11949300D01*
X4066300Y-11774300D02*
X3891300Y-11949300D01*
X3891300Y-14060300D02*
X4066300Y-14235300D01*
X4066300Y-14060300D02*
X3891300Y-14235300D01*
X4259600Y-5983100D02*
X4434600Y-6158100D01*
X4434600Y-5983100D02*
X4259600Y-6158100D01*
X4823700Y-8256400D02*
X4998700Y-8431400D01*
X4998700Y-8256400D02*
X4823700Y-8431400D01*
X4823700Y-10186800D02*
X4998700Y-10361800D01*
X4998700Y-10186800D02*
X4823700Y-10361800D01*
X4823700Y-12129900D02*
X4998700Y-12304900D01*
X4998700Y-12129900D02*
X4823700Y-12304900D01*
X4823700Y-14060300D02*
X4998700Y-14235300D01*
X4998700Y-14060300D02*
X4823700Y-14235300D01*
X5192000Y-6338700D02*
X5367000Y-6513700D01*
X5367000Y-6338700D02*
X5192000Y-6513700D01*
X5821700Y-8256400D02*
X5996700Y-8431400D01*
X5996700Y-8256400D02*
X5821700Y-8431400D01*
X5821700Y-10186800D02*
X5996700Y-10361800D01*
X5996700Y-10186800D02*
X5821700Y-10361800D01*
X5821700Y-12129900D02*
X5996700Y-12304900D01*
X5996700Y-12129900D02*
X5821700Y-12304900D01*
X5821700Y-14060300D02*
X5996700Y-14235300D01*
X5996700Y-14060300D02*
X5821700Y-14235300D01*
X6190000Y-6338700D02*
X6365000Y-6513700D01*
X6365000Y-6338700D02*
X6190000Y-6513700D01*
X6754100Y-8612000D02*
X6929100Y-8787000D01*
X6929100Y-8612000D02*
X6754100Y-8787000D01*
X6754100Y-10542400D02*
X6929100Y-10717400D01*
X6929100Y-10542400D02*
X6754100Y-10717400D01*
X6754100Y-12485500D02*
X6929100Y-12660500D01*
X6929100Y-12485500D02*
X6754100Y-12660500D01*
X6754100Y-14390500D02*
X6929100Y-14565500D01*
X6929100Y-14390500D02*
X6754100Y-14565500D01*
X7122400Y-6681600D02*
X7297400Y-6856600D01*
X7297400Y-6681600D02*
X7122400Y-6856600D01*
X7752100Y-8612000D02*
X7927100Y-8787000D01*
X7927100Y-8612000D02*
X7752100Y-8787000D01*
X7752100Y-10542400D02*
X7927100Y-10717400D01*
X7927100Y-10542400D02*
X7752100Y-10717400D01*
X7752100Y-12485500D02*
X7927100Y-12660500D01*
X7927100Y-12485500D02*
X7752100Y-12660500D01*
X7752100Y-14390500D02*
X7927100Y-14565500D01*
X7927100Y-14390500D02*
X7752100Y-14565500D01*
X8120400Y-6681600D02*
X8295400Y-6856600D01*
X8295400Y-6681600D02*
X8120400Y-6856600D01*
X8684500Y-8967600D02*
X8859500Y-9142600D01*
X8859500Y-8967600D02*
X8684500Y-9142600D01*
X8684500Y-10923400D02*
X8859500Y-11098400D01*
X8859500Y-10923400D02*
X8684500Y-11098400D01*
X8684500Y-12828400D02*
X8859500Y-13003400D01*
X8859500Y-12828400D02*
X8684500Y-13003400D01*
X8684500Y-14771500D02*
X8859500Y-14946500D01*
X8859500Y-14771500D02*
X8684500Y-14946500D01*
X8684500Y-16397100D02*
X8859500Y-16572100D01*
X8859500Y-16397100D02*
X8684500Y-16572100D01*
X9052800Y-7037200D02*
X9227800Y-7212200D01*
X9227800Y-7037200D02*
X9052800Y-7212200D01*
X9682500Y-8967600D02*
X9857500Y-9142600D01*
X9857500Y-8967600D02*
X9682500Y-9142600D01*
X9682500Y-10923400D02*
X9857500Y-11098400D01*
X9857500Y-10923400D02*
X9682500Y-11098400D01*
X9682500Y-12828400D02*
X9857500Y-13003400D01*
X9857500Y-12828400D02*
X9682500Y-13003400D01*
X9682500Y-14771500D02*
X9857500Y-14946500D01*
X9857500Y-14771500D02*
X9682500Y-14946500D01*
X9682500Y-16397100D02*
X9857500Y-16572100D01*
X9857500Y-16397100D02*
X9682500Y-16572100D01*
X10050800Y-7037200D02*
X10225800Y-7212200D01*
X10225800Y-7037200D02*
X10050800Y-7212200D01*
X10614900Y-9335900D02*
X10789900Y-9510900D01*
X10789900Y-9335900D02*
X10614900Y-9510900D01*
X10614900Y-11266300D02*
X10789900Y-11441300D01*
X10789900Y-11266300D02*
X10614900Y-11441300D01*
X10614900Y-13196700D02*
X10789900Y-13371700D01*
X10789900Y-13196700D02*
X10614900Y-13371700D01*
X10614900Y-15127100D02*
X10789900Y-15302100D01*
X10789900Y-15127100D02*
X10614900Y-15302100D01*
X10983200Y-7405500D02*
X11158200Y-7580500D01*
X11158200Y-7405500D02*
X10983200Y-7580500D01*
X11612900Y-9335900D02*
X11787900Y-9510900D01*
X11787900Y-9335900D02*
X11612900Y-9510900D01*
X11612900Y-11266300D02*
X11787900Y-11441300D01*
X11787900Y-11266300D02*
X11612900Y-11441300D01*
X11612900Y-13196700D02*
X11787900Y-13371700D01*
X11787900Y-13196700D02*
X11612900Y-13371700D01*
X11612900Y-15127100D02*
X11787900Y-15302100D01*
X11787900Y-15127100D02*
X11612900Y-15302100D01*
X11981200Y-7405500D02*
X12156200Y-7580500D01*
X12156200Y-7405500D02*
X11981200Y-7580500D01*
X12545300Y-9793100D02*
X12720300Y-9968100D01*
X12720300Y-9793100D02*
X12545300Y-9968100D01*
X12545300Y-11723500D02*
X12720300Y-11898500D01*
X12720300Y-11723500D02*
X12545300Y-11898500D01*
X12545300Y-13653900D02*
X12720300Y-13828900D01*
X12720300Y-13653900D02*
X12545300Y-13828900D01*
X12545300Y-15584300D02*
X12720300Y-15759300D01*
X12720300Y-15584300D02*
X12545300Y-15759300D01*
X12913600Y-7850000D02*
X13088600Y-8025000D01*
X13088600Y-7850000D02*
X12913600Y-8025000D01*
X13543300Y-9793100D02*
X13718300Y-9968100D01*
X13718300Y-9793100D02*
X13543300Y-9968100D01*
X13543300Y-11723500D02*
X13718300Y-11898500D01*
X13718300Y-11723500D02*
X13543300Y-11898500D01*
X13543300Y-13653900D02*
X13718300Y-13828900D01*
X13718300Y-13653900D02*
X13543300Y-13828900D01*
X13543300Y-15584300D02*
X13718300Y-15759300D01*
X13718300Y-15584300D02*
X13543300Y-15759300D01*
X13911600Y-7850000D02*
X14086600Y-8025000D01*
X14086600Y-7850000D02*
X13911600Y-8025000D01*
X14475700Y-9958200D02*
X14650700Y-10133200D01*
X14650700Y-9958200D02*
X14475700Y-10133200D01*
X14475700Y-11901300D02*
X14650700Y-12076300D01*
X14650700Y-11901300D02*
X14475700Y-12076300D01*
X14475700Y-13831700D02*
X14650700Y-14006700D01*
X14650700Y-13831700D02*
X14475700Y-14006700D01*
X14475700Y-15762100D02*
X14650700Y-15937100D01*
X14650700Y-15762100D02*
X14475700Y-15937100D01*
X15473700Y-9958200D02*
X15648700Y-10133200D01*
X15648700Y-9958200D02*
X15473700Y-10133200D01*
X15473700Y-11901300D02*
X15648700Y-12076300D01*
X15648700Y-11901300D02*
X15473700Y-12076300D01*
X15473700Y-13831700D02*
X15648700Y-14006700D01*
X15648700Y-13831700D02*
X15473700Y-14006700D01*
X15473700Y-15762100D02*
X15648700Y-15937100D01*
X15648700Y-15762100D02*
X15473700Y-15937100D01*
X15923500Y-7862700D02*
X16098500Y-8037700D01*
X16098500Y-7862700D02*
X15923500Y-8037700D01*
X16406100Y-9793100D02*
X16581100Y-9968100D01*
X16581100Y-9793100D02*
X16406100Y-9968100D01*
X16406100Y-11723500D02*
X16581100Y-11898500D01*
X16581100Y-11723500D02*
X16406100Y-11898500D01*
X16406100Y-13653900D02*
X16581100Y-13828900D01*
X16581100Y-13653900D02*
X16406100Y-13828900D01*
X16406100Y-15584300D02*
X16581100Y-15759300D01*
X16581100Y-15584300D02*
X16406100Y-15759300D01*
X16921500Y-7862700D02*
X17096500Y-8037700D01*
X17096500Y-7862700D02*
X16921500Y-8037700D01*
X17404100Y-9793100D02*
X17579100Y-9968100D01*
X17579100Y-9793100D02*
X17404100Y-9968100D01*
X17404100Y-11723500D02*
X17579100Y-11898500D01*
X17579100Y-11723500D02*
X17404100Y-11898500D01*
X17404100Y-13653900D02*
X17579100Y-13828900D01*
X17579100Y-13653900D02*
X17404100Y-13828900D01*
X17404100Y-15584300D02*
X17579100Y-15759300D01*
X17579100Y-15584300D02*
X17404100Y-15759300D01*
X17853900Y-7405500D02*
X18028900Y-7580500D01*
X18028900Y-7405500D02*
X17853900Y-7580500D01*
X18336500Y-9335900D02*
X18511500Y-9510900D01*
X18511500Y-9335900D02*
X18336500Y-9510900D01*
X18336500Y-11266300D02*
X18511500Y-11441300D01*
X18511500Y-11266300D02*
X18336500Y-11441300D01*
X18336500Y-13196700D02*
X18511500Y-13371700D01*
X18511500Y-13196700D02*
X18336500Y-13371700D01*
X18336500Y-15127100D02*
X18511500Y-15302100D01*
X18511500Y-15127100D02*
X18336500Y-15302100D01*
X18851900Y-7405500D02*
X19026900Y-7580500D01*
X19026900Y-7405500D02*
X18851900Y-7580500D01*
X19334500Y-9335900D02*
X19509500Y-9510900D01*
X19509500Y-9335900D02*
X19334500Y-9510900D01*
X19334500Y-11266300D02*
X19509500Y-11441300D01*
X19509500Y-11266300D02*
X19334500Y-11441300D01*
X19334500Y-13196700D02*
X19509500Y-13371700D01*
X19509500Y-13196700D02*
X19334500Y-13371700D01*
X19334500Y-15127100D02*
X19509500Y-15302100D01*
X19509500Y-15127100D02*
X19334500Y-15302100D01*
X19784300Y-7024500D02*
X19959300Y-7199500D01*
X19959300Y-7024500D02*
X19784300Y-7199500D01*
X20266900Y-8980300D02*
X20441900Y-9155300D01*
X20441900Y-8980300D02*
X20266900Y-9155300D01*
X20266900Y-10910700D02*
X20441900Y-11085700D01*
X20441900Y-10910700D02*
X20266900Y-11085700D01*
X20266900Y-12841100D02*
X20441900Y-13016100D01*
X20441900Y-12841100D02*
X20266900Y-13016100D01*
X20292300Y-14771500D02*
X20467300Y-14946500D01*
X20467300Y-14771500D02*
X20292300Y-14946500D01*
X20292300Y-16397100D02*
X20467300Y-16572100D01*
X20467300Y-16397100D02*
X20292300Y-16572100D01*
X20782300Y-7024500D02*
X20957300Y-7199500D01*
X20957300Y-7024500D02*
X20782300Y-7199500D01*
X21264900Y-8980300D02*
X21439900Y-9155300D01*
X21439900Y-8980300D02*
X21264900Y-9155300D01*
X21264900Y-10910700D02*
X21439900Y-11085700D01*
X21439900Y-10910700D02*
X21264900Y-11085700D01*
X21264900Y-12841100D02*
X21439900Y-13016100D01*
X21439900Y-12841100D02*
X21264900Y-13016100D01*
X21290300Y-14771500D02*
X21465300Y-14946500D01*
X21465300Y-14771500D02*
X21290300Y-14946500D01*
X21290300Y-16397100D02*
X21465300Y-16572100D01*
X21465300Y-16397100D02*
X21290300Y-16572100D01*
X21714700Y-6694300D02*
X21889700Y-6869300D01*
X21889700Y-6694300D02*
X21714700Y-6869300D01*
X22197300Y-8624700D02*
X22372300Y-8799700D01*
X22372300Y-8624700D02*
X22197300Y-8799700D01*
X22197300Y-10555100D02*
X22372300Y-10730100D01*
X22372300Y-10555100D02*
X22197300Y-10730100D01*
X22197300Y-12485500D02*
X22372300Y-12660500D01*
X22372300Y-12485500D02*
X22197300Y-12660500D01*
X22197300Y-14415900D02*
X22372300Y-14590900D01*
X22372300Y-14415900D02*
X22197300Y-14590900D01*
X22712700Y-6694300D02*
X22887700Y-6869300D01*
X22887700Y-6694300D02*
X22712700Y-6869300D01*
X23195300Y-8624700D02*
X23370300Y-8799700D01*
X23370300Y-8624700D02*
X23195300Y-8799700D01*
X23195300Y-10555100D02*
X23370300Y-10730100D01*
X23370300Y-10555100D02*
X23195300Y-10730100D01*
X23195300Y-12485500D02*
X23370300Y-12660500D01*
X23370300Y-12485500D02*
X23195300Y-12660500D01*
X23195300Y-14415900D02*
X23370300Y-14590900D01*
X23370300Y-14415900D02*
X23195300Y-14590900D01*
X23645100Y-6338700D02*
X23820100Y-6513700D01*
X23820100Y-6338700D02*
X23645100Y-6513700D01*
X24127700Y-8269100D02*
X24302700Y-8444100D01*
X24302700Y-8269100D02*
X24127700Y-8444100D01*
X24127700Y-10199500D02*
X24302700Y-10374500D01*
X24302700Y-10199500D02*
X24127700Y-10374500D01*
X24127700Y-12129900D02*
X24302700Y-12304900D01*
X24302700Y-12129900D02*
X24127700Y-12304900D01*
X24127700Y-14034900D02*
X24302700Y-14209900D01*
X24302700Y-14034900D02*
X24127700Y-14209900D01*
X24127700Y-15990700D02*
X24302700Y-16165700D01*
X24302700Y-15990700D02*
X24127700Y-16165700D01*
X24643100Y-6338700D02*
X24818100Y-6513700D01*
X24818100Y-6338700D02*
X24643100Y-6513700D01*
X25125700Y-8269100D02*
X25300700Y-8444100D01*
X25300700Y-8269100D02*
X25125700Y-8444100D01*
X25125700Y-10199500D02*
X25300700Y-10374500D01*
X25300700Y-10199500D02*
X25125700Y-10374500D01*
X25125700Y-12129900D02*
X25300700Y-12304900D01*
X25300700Y-12129900D02*
X25125700Y-12304900D01*
X25125700Y-14034900D02*
X25300700Y-14209900D01*
X25300700Y-14034900D02*
X25125700Y-14209900D01*
X25125700Y-15990700D02*
X25300700Y-16165700D01*
X25300700Y-15990700D02*
X25125700Y-16165700D01*
X25575500Y-5983100D02*
X25750500Y-6158100D01*
X25750500Y-5983100D02*
X25575500Y-6158100D01*
X26058100Y-7913500D02*
X26233100Y-8088500D01*
X26233100Y-7913500D02*
X26058100Y-8088500D01*
X26058100Y-9843900D02*
X26233100Y-10018900D01*
X26233100Y-9843900D02*
X26058100Y-10018900D01*
X26058100Y-11774300D02*
X26233100Y-11949300D01*
X26233100Y-11774300D02*
X26058100Y-11949300D01*
X26058100Y-14009500D02*
X26233100Y-14184500D01*
X26233100Y-14009500D02*
X26058100Y-14184500D01*
X26058100Y-15965300D02*
X26233100Y-16140300D01*
X26233100Y-15965300D02*
X26058100Y-16140300D01*
X26573500Y-5983100D02*
X26748500Y-6158100D01*
X26748500Y-5983100D02*
X26573500Y-6158100D01*
X27056100Y-7913500D02*
X27231100Y-8088500D01*
X27231100Y-7913500D02*
X27056100Y-8088500D01*
X27056100Y-9843900D02*
X27231100Y-10018900D01*
X27231100Y-9843900D02*
X27056100Y-10018900D01*
X27056100Y-11774300D02*
X27231100Y-11949300D01*
X27231100Y-11774300D02*
X27056100Y-11949300D01*
X27056100Y-14009500D02*
X27231100Y-14184500D01*
X27231100Y-14009500D02*
X27056100Y-14184500D01*
X27056100Y-15965300D02*
X27231100Y-16140300D01*
X27231100Y-15965300D02*
X27056100Y-16140300D01*
X27505900Y-5881500D02*
X27680900Y-6056500D01*
X27680900Y-5881500D02*
X27505900Y-6056500D01*
X27988500Y-7811900D02*
X28163500Y-7986900D01*
X28163500Y-7811900D02*
X27988500Y-7986900D01*
X27988500Y-9716900D02*
X28163500Y-9891900D01*
X28163500Y-9716900D02*
X27988500Y-9891900D01*
X27988500Y-11901300D02*
X28163500Y-12076300D01*
X28163500Y-11901300D02*
X27988500Y-12076300D01*
X27988500Y-14034900D02*
X28163500Y-14209900D01*
X28163500Y-14034900D02*
X27988500Y-14209900D01*
X27988500Y-15990700D02*
X28163500Y-16165700D01*
X28163500Y-15990700D02*
X27988500Y-16165700D01*
X28503900Y-5881500D02*
X28678900Y-6056500D01*
X28678900Y-5881500D02*
X28503900Y-6056500D01*
X28986500Y-7811900D02*
X29161500Y-7986900D01*
X29161500Y-7811900D02*
X28986500Y-7986900D01*
X28986500Y-9716900D02*
X29161500Y-9891900D01*
X29161500Y-9716900D02*
X28986500Y-9891900D01*
X28986500Y-11901300D02*
X29161500Y-12076300D01*
X29161500Y-11901300D02*
X28986500Y-12076300D01*
X28986500Y-14034900D02*
X29161500Y-14209900D01*
X29161500Y-14034900D02*
X28986500Y-14209900D01*
X28986500Y-15990700D02*
X29161500Y-16165700D01*
X29161500Y-15990700D02*
X28986500Y-16165700D01*
X1749400Y-8115300D02*
G75*
G03*
X1749400Y-8115300I-200000J0D01*
G01*
X1749400Y-10287000D02*
G75*
G03*
X1749400Y-10287000I-200000J0D01*
G01*
X1749400Y-12446000D02*
G75*
G03*
X1749400Y-12446000I-200000J0D01*
G01*
X2117700Y-5969000D02*
G75*
G03*
X2117700Y-5969000I-200000J0D01*
G01*
X3679800Y-8001000D02*
G75*
G03*
X3679800Y-8001000I-200000J0D01*
G01*
X3679800Y-9931400D02*
G75*
G03*
X3679800Y-9931400I-200000J0D01*
G01*
X3679800Y-11861800D02*
G75*
G03*
X3679800Y-11861800I-200000J0D01*
G01*
X3679800Y-14147800D02*
G75*
G03*
X3679800Y-14147800I-200000J0D01*
G01*
X4048100Y-6070600D02*
G75*
G03*
X4048100Y-6070600I-200000J0D01*
G01*
X5610200Y-8343900D02*
G75*
G03*
X5610200Y-8343900I-200000J0D01*
G01*
X5610200Y-10274300D02*
G75*
G03*
X5610200Y-10274300I-200000J0D01*
G01*
X5610200Y-12217400D02*
G75*
G03*
X5610200Y-12217400I-200000J0D01*
G01*
X5610200Y-14147800D02*
G75*
G03*
X5610200Y-14147800I-200000J0D01*
G01*
X5978500Y-6426200D02*
G75*
G03*
X5978500Y-6426200I-200000J0D01*
G01*
X7540600Y-8699500D02*
G75*
G03*
X7540600Y-8699500I-200000J0D01*
G01*
X7540600Y-10629900D02*
G75*
G03*
X7540600Y-10629900I-200000J0D01*
G01*
X7540600Y-12573000D02*
G75*
G03*
X7540600Y-12573000I-200000J0D01*
G01*
X7540600Y-14478000D02*
G75*
G03*
X7540600Y-14478000I-200000J0D01*
G01*
X7908900Y-6769100D02*
G75*
G03*
X7908900Y-6769100I-200000J0D01*
G01*
X9471000Y-9055100D02*
G75*
G03*
X9471000Y-9055100I-200000J0D01*
G01*
X9471000Y-11010900D02*
G75*
G03*
X9471000Y-11010900I-200000J0D01*
G01*
X9471000Y-12915900D02*
G75*
G03*
X9471000Y-12915900I-200000J0D01*
G01*
X9471000Y-14859000D02*
G75*
G03*
X9471000Y-14859000I-200000J0D01*
G01*
X9471000Y-16484600D02*
G75*
G03*
X9471000Y-16484600I-200000J0D01*
G01*
X9839300Y-7124700D02*
G75*
G03*
X9839300Y-7124700I-200000J0D01*
G01*
X11401400Y-9423400D02*
G75*
G03*
X11401400Y-9423400I-200000J0D01*
G01*
X11401400Y-11353800D02*
G75*
G03*
X11401400Y-11353800I-200000J0D01*
G01*
X11401400Y-13284200D02*
G75*
G03*
X11401400Y-13284200I-200000J0D01*
G01*
X11401400Y-15214600D02*
G75*
G03*
X11401400Y-15214600I-200000J0D01*
G01*
X11769700Y-7493000D02*
G75*
G03*
X11769700Y-7493000I-200000J0D01*
G01*
X13331800Y-9880600D02*
G75*
G03*
X13331800Y-9880600I-200000J0D01*
G01*
X13331800Y-11811000D02*
G75*
G03*
X13331800Y-11811000I-200000J0D01*
G01*
X13331800Y-13741400D02*
G75*
G03*
X13331800Y-13741400I-200000J0D01*
G01*
X13331800Y-15671800D02*
G75*
G03*
X13331800Y-15671800I-200000J0D01*
G01*
X13700100Y-7937500D02*
G75*
G03*
X13700100Y-7937500I-200000J0D01*
G01*
X15262200Y-10045700D02*
G75*
G03*
X15262200Y-10045700I-200000J0D01*
G01*
X15262200Y-11988800D02*
G75*
G03*
X15262200Y-11988800I-200000J0D01*
G01*
X15262200Y-13919200D02*
G75*
G03*
X15262200Y-13919200I-200000J0D01*
G01*
X15262200Y-15849600D02*
G75*
G03*
X15262200Y-15849600I-200000J0D01*
G01*
X16710000Y-7950200D02*
G75*
G03*
X16710000Y-7950200I-200000J0D01*
G01*
X17192600Y-9880600D02*
G75*
G03*
X17192600Y-9880600I-200000J0D01*
G01*
X17192600Y-11811000D02*
G75*
G03*
X17192600Y-11811000I-200000J0D01*
G01*
X17192600Y-13741400D02*
G75*
G03*
X17192600Y-13741400I-200000J0D01*
G01*
X17192600Y-15671800D02*
G75*
G03*
X17192600Y-15671800I-200000J0D01*
G01*
X18640400Y-7493000D02*
G75*
G03*
X18640400Y-7493000I-200000J0D01*
G01*
X19123000Y-9423400D02*
G75*
G03*
X19123000Y-9423400I-200000J0D01*
G01*
X19123000Y-11353800D02*
G75*
G03*
X19123000Y-11353800I-200000J0D01*
G01*
X19123000Y-13284200D02*
G75*
G03*
X19123000Y-13284200I-200000J0D01*
G01*
X19123000Y-15214600D02*
G75*
G03*
X19123000Y-15214600I-200000J0D01*
G01*
X20570800Y-7112000D02*
G75*
G03*
X20570800Y-7112000I-200000J0D01*
G01*
X21053400Y-9067800D02*
G75*
G03*
X21053400Y-9067800I-200000J0D01*
G01*
X21053400Y-10998200D02*
G75*
G03*
X21053400Y-10998200I-200000J0D01*
G01*
X21053400Y-12928600D02*
G75*
G03*
X21053400Y-12928600I-200000J0D01*
G01*
X21078800Y-14859000D02*
G75*
G03*
X21078800Y-14859000I-200000J0D01*
G01*
X21078800Y-16484600D02*
G75*
G03*
X21078800Y-16484600I-200000J0D01*
G01*
X22501200Y-6781800D02*
G75*
G03*
X22501200Y-6781800I-200000J0D01*
G01*
X22983800Y-8712200D02*
G75*
G03*
X22983800Y-8712200I-200000J0D01*
G01*
X22983800Y-10642600D02*
G75*
G03*
X22983800Y-10642600I-200000J0D01*
G01*
X22983800Y-12573000D02*
G75*
G03*
X22983800Y-12573000I-200000J0D01*
G01*
X22983800Y-14503400D02*
G75*
G03*
X22983800Y-14503400I-200000J0D01*
G01*
X24431600Y-6426200D02*
G75*
G03*
X24431600Y-6426200I-200000J0D01*
G01*
X24914200Y-8356600D02*
G75*
G03*
X24914200Y-8356600I-200000J0D01*
G01*
X24914200Y-10287000D02*
G75*
G03*
X24914200Y-10287000I-200000J0D01*
G01*
X24914200Y-12217400D02*
G75*
G03*
X24914200Y-12217400I-200000J0D01*
G01*
X24914200Y-14122400D02*
G75*
G03*
X24914200Y-14122400I-200000J0D01*
G01*
X24914200Y-16078200D02*
G75*
G03*
X24914200Y-16078200I-200000J0D01*
G01*
X26362000Y-6070600D02*
G75*
G03*
X26362000Y-6070600I-200000J0D01*
G01*
X26844600Y-8001000D02*
G75*
G03*
X26844600Y-8001000I-200000J0D01*
G01*
X26844600Y-9931400D02*
G75*
G03*
X26844600Y-9931400I-200000J0D01*
G01*
X26844600Y-11861800D02*
G75*
G03*
X26844600Y-11861800I-200000J0D01*
G01*
X26844600Y-14097000D02*
G75*
G03*
X26844600Y-14097000I-200000J0D01*
G01*
X26844600Y-16052800D02*
G75*
G03*
X26844600Y-16052800I-200000J0D01*
G01*
X28292400Y-5969000D02*
G75*
G03*
X28292400Y-5969000I-200000J0D01*
G01*
X28775000Y-7899400D02*
G75*
G03*
X28775000Y-7899400I-200000J0D01*
G01*
X28775000Y-9804400D02*
G75*
G03*
X28775000Y-9804400I-200000J0D01*
G01*
X28775000Y-11988800D02*
G75*
G03*
X28775000Y-11988800I-200000J0D01*
G01*
X28775000Y-14122400D02*
G75*
G03*
X28775000Y-14122400I-200000J0D01*
G01*
X28775000Y-16078200D02*
G75*
G03*
X28775000Y-16078200I-200000J0D01*
G01*
D12*
X764028Y-17742714D02*
X764028Y-17442714D01*
X835457Y-17442714D01*
X878314Y-17457000D01*
X906886Y-17485572D01*
X921171Y-17514143D01*
X935457Y-17571286D01*
X935457Y-17614143D01*
X921171Y-17671286D01*
X906886Y-17699857D01*
X878314Y-17728429D01*
X835457Y-17742714D01*
X764028Y-17742714D01*
X1064028Y-17742714D02*
X1064028Y-17542714D01*
X1064028Y-17599857D02*
X1078314Y-17571286D01*
X1092600Y-17557000D01*
X1121171Y-17542714D01*
X1149743Y-17542714D01*
X1249743Y-17742714D02*
X1249743Y-17542714D01*
X1249743Y-17442714D02*
X1235457Y-17457000D01*
X1249743Y-17471286D01*
X1264028Y-17457000D01*
X1249743Y-17442714D01*
X1249743Y-17471286D01*
X1435457Y-17742714D02*
X1406886Y-17728429D01*
X1392600Y-17699857D01*
X1392600Y-17442714D01*
X1592600Y-17742714D02*
X1564028Y-17728429D01*
X1549743Y-17699857D01*
X1549743Y-17442714D01*
X1935457Y-17742714D02*
X1935457Y-17442714D01*
X2035457Y-17657000D01*
X2135457Y-17442714D01*
X2135457Y-17742714D01*
X2406886Y-17742714D02*
X2406886Y-17585572D01*
X2392600Y-17557000D01*
X2364028Y-17542714D01*
X2306886Y-17542714D01*
X2278314Y-17557000D01*
X2406886Y-17728429D02*
X2378314Y-17742714D01*
X2306886Y-17742714D01*
X2278314Y-17728429D01*
X2264028Y-17699857D01*
X2264028Y-17671286D01*
X2278314Y-17642714D01*
X2306886Y-17628429D01*
X2378314Y-17628429D01*
X2406886Y-17614143D01*
X2549743Y-17542714D02*
X2549743Y-17842714D01*
X2549743Y-17557000D02*
X2578314Y-17542714D01*
X2635457Y-17542714D01*
X2664028Y-17557000D01*
X2678314Y-17571286D01*
X2692600Y-17599857D01*
X2692600Y-17685572D01*
X2678314Y-17714143D01*
X2664028Y-17728429D01*
X2635457Y-17742714D01*
X2578314Y-17742714D01*
X2549743Y-17728429D01*
X2821171Y-17714143D02*
X2835457Y-17728429D01*
X2821171Y-17742714D01*
X2806886Y-17728429D01*
X2821171Y-17714143D01*
X2821171Y-17742714D01*
X2821171Y-17557000D02*
X2835457Y-17571286D01*
X2821171Y-17585572D01*
X2806886Y-17571286D01*
X2821171Y-17557000D01*
X2821171Y-17585572D01*
X302600Y-18149500D02*
X477600Y-18324500D01*
X477600Y-18149500D02*
X302600Y-18324500D01*
X921171Y-18372714D02*
X749743Y-18372714D01*
X835457Y-18372714D02*
X835457Y-18072714D01*
X806886Y-18115572D01*
X778314Y-18144143D01*
X749743Y-18158429D01*
X1049743Y-18344143D02*
X1064028Y-18358429D01*
X1049743Y-18372714D01*
X1035457Y-18358429D01*
X1049743Y-18344143D01*
X1049743Y-18372714D01*
X1164028Y-18072714D02*
X1364028Y-18072714D01*
X1235457Y-18372714D01*
X1621171Y-18072714D02*
X1478314Y-18072714D01*
X1464028Y-18215572D01*
X1478314Y-18201286D01*
X1506886Y-18187000D01*
X1578314Y-18187000D01*
X1606886Y-18201286D01*
X1621171Y-18215572D01*
X1635457Y-18244143D01*
X1635457Y-18315572D01*
X1621171Y-18344143D01*
X1606886Y-18358429D01*
X1578314Y-18372714D01*
X1506886Y-18372714D01*
X1478314Y-18358429D01*
X1464028Y-18344143D01*
X1764028Y-18372714D02*
X1764028Y-18172714D01*
X1764028Y-18201286D02*
X1778314Y-18187000D01*
X1806886Y-18172714D01*
X1849743Y-18172714D01*
X1878314Y-18187000D01*
X1892600Y-18215572D01*
X1892600Y-18372714D01*
X1892600Y-18215572D02*
X1906886Y-18187000D01*
X1935457Y-18172714D01*
X1978314Y-18172714D01*
X2006886Y-18187000D01*
X2021171Y-18215572D01*
X2021171Y-18372714D01*
X2164028Y-18372714D02*
X2164028Y-18172714D01*
X2164028Y-18201286D02*
X2178314Y-18187000D01*
X2206886Y-18172714D01*
X2249743Y-18172714D01*
X2278314Y-18187000D01*
X2292600Y-18215572D01*
X2292600Y-18372714D01*
X2292600Y-18215572D02*
X2306886Y-18187000D01*
X2335457Y-18172714D01*
X2378314Y-18172714D01*
X2406886Y-18187000D01*
X2421171Y-18215572D01*
X2421171Y-18372714D01*
X3006886Y-18058429D02*
X2749743Y-18444143D01*
X3392600Y-18072714D02*
X3421171Y-18072714D01*
X3449743Y-18087000D01*
X3464028Y-18101286D01*
X3478314Y-18129857D01*
X3492600Y-18187000D01*
X3492600Y-18258429D01*
X3478314Y-18315572D01*
X3464028Y-18344143D01*
X3449743Y-18358429D01*
X3421171Y-18372714D01*
X3392600Y-18372714D01*
X3364028Y-18358429D01*
X3349743Y-18344143D01*
X3335457Y-18315572D01*
X3321171Y-18258429D01*
X3321171Y-18187000D01*
X3335457Y-18129857D01*
X3349743Y-18101286D01*
X3364028Y-18087000D01*
X3392600Y-18072714D01*
X3621171Y-18344143D02*
X3635457Y-18358429D01*
X3621171Y-18372714D01*
X3606886Y-18358429D01*
X3621171Y-18344143D01*
X3621171Y-18372714D01*
X3821171Y-18072714D02*
X3849743Y-18072714D01*
X3878314Y-18087000D01*
X3892600Y-18101286D01*
X3906886Y-18129857D01*
X3921171Y-18187000D01*
X3921171Y-18258429D01*
X3906886Y-18315572D01*
X3892600Y-18344143D01*
X3878314Y-18358429D01*
X3849743Y-18372714D01*
X3821171Y-18372714D01*
X3792600Y-18358429D01*
X3778314Y-18344143D01*
X3764028Y-18315572D01*
X3749743Y-18258429D01*
X3749743Y-18187000D01*
X3764028Y-18129857D01*
X3778314Y-18101286D01*
X3792600Y-18087000D01*
X3821171Y-18072714D01*
X4178314Y-18072714D02*
X4121171Y-18072714D01*
X4092600Y-18087000D01*
X4078314Y-18101286D01*
X4049743Y-18144143D01*
X4035457Y-18201286D01*
X4035457Y-18315572D01*
X4049743Y-18344143D01*
X4064028Y-18358429D01*
X4092600Y-18372714D01*
X4149743Y-18372714D01*
X4178314Y-18358429D01*
X4192600Y-18344143D01*
X4206886Y-18315572D01*
X4206886Y-18244143D01*
X4192600Y-18215572D01*
X4178314Y-18201286D01*
X4149743Y-18187000D01*
X4092600Y-18187000D01*
X4064028Y-18201286D01*
X4049743Y-18215572D01*
X4035457Y-18244143D01*
X4349743Y-18372714D02*
X4406886Y-18372714D01*
X4435457Y-18358429D01*
X4449743Y-18344143D01*
X4478314Y-18301286D01*
X4492600Y-18244143D01*
X4492600Y-18129857D01*
X4478314Y-18101286D01*
X4464028Y-18087000D01*
X4435457Y-18072714D01*
X4378314Y-18072714D01*
X4349743Y-18087000D01*
X4335457Y-18101286D01*
X4321171Y-18129857D01*
X4321171Y-18201286D01*
X4335457Y-18229857D01*
X4349743Y-18244143D01*
X4378314Y-18258429D01*
X4435457Y-18258429D01*
X4464028Y-18244143D01*
X4478314Y-18229857D01*
X4492600Y-18201286D01*
X4606886Y-18072714D02*
X4606886Y-18129857D01*
X4721171Y-18072714D02*
X4721171Y-18129857D01*
X5164028Y-18487000D02*
X5149743Y-18472714D01*
X5121171Y-18429857D01*
X5106886Y-18401286D01*
X5092600Y-18358429D01*
X5078314Y-18287000D01*
X5078314Y-18229857D01*
X5092600Y-18158429D01*
X5106886Y-18115572D01*
X5121171Y-18087000D01*
X5149743Y-18044143D01*
X5164028Y-18029857D01*
X5435457Y-18372714D02*
X5264028Y-18372714D01*
X5349743Y-18372714D02*
X5349743Y-18072714D01*
X5321171Y-18115572D01*
X5292600Y-18144143D01*
X5264028Y-18158429D01*
X5706886Y-18072714D02*
X5564028Y-18072714D01*
X5549743Y-18215572D01*
X5564028Y-18201286D01*
X5592600Y-18187000D01*
X5664028Y-18187000D01*
X5692600Y-18201286D01*
X5706886Y-18215572D01*
X5721171Y-18244143D01*
X5721171Y-18315572D01*
X5706886Y-18344143D01*
X5692600Y-18358429D01*
X5664028Y-18372714D01*
X5592600Y-18372714D01*
X5564028Y-18358429D01*
X5549743Y-18344143D01*
X5978314Y-18072714D02*
X5921171Y-18072714D01*
X5892600Y-18087000D01*
X5878314Y-18101286D01*
X5849743Y-18144143D01*
X5835457Y-18201286D01*
X5835457Y-18315572D01*
X5849743Y-18344143D01*
X5864028Y-18358429D01*
X5892600Y-18372714D01*
X5949743Y-18372714D01*
X5978314Y-18358429D01*
X5992600Y-18344143D01*
X6006886Y-18315572D01*
X6006886Y-18244143D01*
X5992600Y-18215572D01*
X5978314Y-18201286D01*
X5949743Y-18187000D01*
X5892600Y-18187000D01*
X5864028Y-18201286D01*
X5849743Y-18215572D01*
X5835457Y-18244143D01*
X6364028Y-18372714D02*
X6364028Y-18072714D01*
X6492600Y-18372714D02*
X6492600Y-18215572D01*
X6478314Y-18187000D01*
X6449743Y-18172714D01*
X6406886Y-18172714D01*
X6378314Y-18187000D01*
X6364028Y-18201286D01*
X6678314Y-18372714D02*
X6649743Y-18358429D01*
X6635457Y-18344143D01*
X6621171Y-18315572D01*
X6621171Y-18229857D01*
X6635457Y-18201286D01*
X6649743Y-18187000D01*
X6678314Y-18172714D01*
X6721171Y-18172714D01*
X6749743Y-18187000D01*
X6764028Y-18201286D01*
X6778314Y-18229857D01*
X6778314Y-18315572D01*
X6764028Y-18344143D01*
X6749743Y-18358429D01*
X6721171Y-18372714D01*
X6678314Y-18372714D01*
X6949743Y-18372714D02*
X6921171Y-18358429D01*
X6906886Y-18329857D01*
X6906886Y-18072714D01*
X7178314Y-18358429D02*
X7149743Y-18372714D01*
X7092600Y-18372714D01*
X7064028Y-18358429D01*
X7049743Y-18329857D01*
X7049743Y-18215572D01*
X7064028Y-18187000D01*
X7092600Y-18172714D01*
X7149743Y-18172714D01*
X7178314Y-18187000D01*
X7192600Y-18215572D01*
X7192600Y-18244143D01*
X7049743Y-18272714D01*
X7306886Y-18358429D02*
X7335457Y-18372714D01*
X7392600Y-18372714D01*
X7421171Y-18358429D01*
X7435457Y-18329857D01*
X7435457Y-18315572D01*
X7421171Y-18287000D01*
X7392600Y-18272714D01*
X7349743Y-18272714D01*
X7321171Y-18258429D01*
X7306886Y-18229857D01*
X7306886Y-18215572D01*
X7321171Y-18187000D01*
X7349743Y-18172714D01*
X7392600Y-18172714D01*
X7421171Y-18187000D01*
X7535457Y-18487000D02*
X7549743Y-18472714D01*
X7578314Y-18429857D01*
X7592600Y-18401286D01*
X7606886Y-18358429D01*
X7621171Y-18287000D01*
X7621171Y-18229857D01*
X7606886Y-18158429D01*
X7592600Y-18115572D01*
X7578314Y-18087000D01*
X7549743Y-18044143D01*
X7535457Y-18029857D01*
X8078314Y-18487000D02*
X8064028Y-18472714D01*
X8035457Y-18429857D01*
X8021171Y-18401286D01*
X8006886Y-18358429D01*
X7992600Y-18287000D01*
X7992600Y-18229857D01*
X8006886Y-18158429D01*
X8021171Y-18115572D01*
X8035457Y-18087000D01*
X8064028Y-18044143D01*
X8078314Y-18029857D01*
X8192600Y-18172714D02*
X8192600Y-18372714D01*
X8192600Y-18201286D02*
X8206886Y-18187000D01*
X8235457Y-18172714D01*
X8278314Y-18172714D01*
X8306886Y-18187000D01*
X8321171Y-18215572D01*
X8321171Y-18372714D01*
X8506886Y-18372714D02*
X8478314Y-18358429D01*
X8464028Y-18344143D01*
X8449743Y-18315572D01*
X8449743Y-18229857D01*
X8464028Y-18201286D01*
X8478314Y-18187000D01*
X8506886Y-18172714D01*
X8549743Y-18172714D01*
X8578314Y-18187000D01*
X8592600Y-18201286D01*
X8606886Y-18229857D01*
X8606886Y-18315572D01*
X8592600Y-18344143D01*
X8578314Y-18358429D01*
X8549743Y-18372714D01*
X8506886Y-18372714D01*
X8692600Y-18172714D02*
X8806886Y-18172714D01*
X8735457Y-18072714D02*
X8735457Y-18329857D01*
X8749743Y-18358429D01*
X8778314Y-18372714D01*
X8806886Y-18372714D01*
X9135457Y-18172714D02*
X9135457Y-18472714D01*
X9135457Y-18187000D02*
X9164028Y-18172714D01*
X9221171Y-18172714D01*
X9249743Y-18187000D01*
X9264028Y-18201286D01*
X9278314Y-18229857D01*
X9278314Y-18315572D01*
X9264028Y-18344143D01*
X9249743Y-18358429D01*
X9221171Y-18372714D01*
X9164028Y-18372714D01*
X9135457Y-18358429D01*
X9449743Y-18372714D02*
X9421171Y-18358429D01*
X9406886Y-18329857D01*
X9406886Y-18072714D01*
X9692600Y-18372714D02*
X9692600Y-18215572D01*
X9678314Y-18187000D01*
X9649743Y-18172714D01*
X9592600Y-18172714D01*
X9564028Y-18187000D01*
X9692600Y-18358429D02*
X9664028Y-18372714D01*
X9592600Y-18372714D01*
X9564028Y-18358429D01*
X9549743Y-18329857D01*
X9549743Y-18301286D01*
X9564028Y-18272714D01*
X9592600Y-18258429D01*
X9664028Y-18258429D01*
X9692600Y-18244143D01*
X9792600Y-18172714D02*
X9906886Y-18172714D01*
X9835457Y-18072714D02*
X9835457Y-18329857D01*
X9849743Y-18358429D01*
X9878314Y-18372714D01*
X9906886Y-18372714D01*
X10121171Y-18358429D02*
X10092600Y-18372714D01*
X10035457Y-18372714D01*
X10006886Y-18358429D01*
X9992600Y-18329857D01*
X9992600Y-18215572D01*
X10006886Y-18187000D01*
X10035457Y-18172714D01*
X10092600Y-18172714D01*
X10121171Y-18187000D01*
X10135457Y-18215572D01*
X10135457Y-18244143D01*
X9992600Y-18272714D01*
X10392600Y-18372714D02*
X10392600Y-18072714D01*
X10392600Y-18358429D02*
X10364028Y-18372714D01*
X10306886Y-18372714D01*
X10278314Y-18358429D01*
X10264028Y-18344143D01*
X10249743Y-18315572D01*
X10249743Y-18229857D01*
X10264028Y-18201286D01*
X10278314Y-18187000D01*
X10306886Y-18172714D01*
X10364028Y-18172714D01*
X10392600Y-18187000D01*
X10506886Y-18487000D02*
X10521171Y-18472714D01*
X10549743Y-18429857D01*
X10564028Y-18401286D01*
X10578314Y-18358429D01*
X10592600Y-18287000D01*
X10592600Y-18229857D01*
X10578314Y-18158429D01*
X10564028Y-18115572D01*
X10549743Y-18087000D01*
X10521171Y-18044143D01*
X10506886Y-18029857D01*
X477600Y-18633000D02*
G75*
G03*
X477600Y-18633000I-200000J0D01*
G01*
X892600Y-18568714D02*
X892600Y-18768714D01*
X821171Y-18454429D02*
X749743Y-18668714D01*
X935457Y-18668714D01*
X1049743Y-18740143D02*
X1064028Y-18754429D01*
X1049743Y-18768714D01*
X1035457Y-18754429D01*
X1049743Y-18740143D01*
X1049743Y-18768714D01*
X1249743Y-18468714D02*
X1278314Y-18468714D01*
X1306886Y-18483000D01*
X1321171Y-18497286D01*
X1335457Y-18525857D01*
X1349743Y-18583000D01*
X1349743Y-18654429D01*
X1335457Y-18711572D01*
X1321171Y-18740143D01*
X1306886Y-18754429D01*
X1278314Y-18768714D01*
X1249743Y-18768714D01*
X1221171Y-18754429D01*
X1206886Y-18740143D01*
X1192600Y-18711572D01*
X1178314Y-18654429D01*
X1178314Y-18583000D01*
X1192600Y-18525857D01*
X1206886Y-18497286D01*
X1221171Y-18483000D01*
X1249743Y-18468714D01*
X1535457Y-18468714D02*
X1564028Y-18468714D01*
X1592600Y-18483000D01*
X1606886Y-18497286D01*
X1621171Y-18525857D01*
X1635457Y-18583000D01*
X1635457Y-18654429D01*
X1621171Y-18711572D01*
X1606886Y-18740143D01*
X1592600Y-18754429D01*
X1564028Y-18768714D01*
X1535457Y-18768714D01*
X1506886Y-18754429D01*
X1492600Y-18740143D01*
X1478314Y-18711572D01*
X1464028Y-18654429D01*
X1464028Y-18583000D01*
X1478314Y-18525857D01*
X1492600Y-18497286D01*
X1506886Y-18483000D01*
X1535457Y-18468714D01*
X1764028Y-18768714D02*
X1764028Y-18568714D01*
X1764028Y-18597286D02*
X1778314Y-18583000D01*
X1806886Y-18568714D01*
X1849743Y-18568714D01*
X1878314Y-18583000D01*
X1892600Y-18611572D01*
X1892600Y-18768714D01*
X1892600Y-18611572D02*
X1906886Y-18583000D01*
X1935457Y-18568714D01*
X1978314Y-18568714D01*
X2006886Y-18583000D01*
X2021171Y-18611572D01*
X2021171Y-18768714D01*
X2164028Y-18768714D02*
X2164028Y-18568714D01*
X2164028Y-18597286D02*
X2178314Y-18583000D01*
X2206886Y-18568714D01*
X2249743Y-18568714D01*
X2278314Y-18583000D01*
X2292600Y-18611572D01*
X2292600Y-18768714D01*
X2292600Y-18611572D02*
X2306886Y-18583000D01*
X2335457Y-18568714D01*
X2378314Y-18568714D01*
X2406886Y-18583000D01*
X2421171Y-18611572D01*
X2421171Y-18768714D01*
X3006886Y-18454429D02*
X2749743Y-18840143D01*
X3392600Y-18468714D02*
X3421171Y-18468714D01*
X3449743Y-18483000D01*
X3464028Y-18497286D01*
X3478314Y-18525857D01*
X3492600Y-18583000D01*
X3492600Y-18654429D01*
X3478314Y-18711572D01*
X3464028Y-18740143D01*
X3449743Y-18754429D01*
X3421171Y-18768714D01*
X3392600Y-18768714D01*
X3364028Y-18754429D01*
X3349743Y-18740143D01*
X3335457Y-18711572D01*
X3321171Y-18654429D01*
X3321171Y-18583000D01*
X3335457Y-18525857D01*
X3349743Y-18497286D01*
X3364028Y-18483000D01*
X3392600Y-18468714D01*
X3621171Y-18740143D02*
X3635457Y-18754429D01*
X3621171Y-18768714D01*
X3606886Y-18754429D01*
X3621171Y-18740143D01*
X3621171Y-18768714D01*
X3921171Y-18768714D02*
X3749743Y-18768714D01*
X3835457Y-18768714D02*
X3835457Y-18468714D01*
X3806886Y-18511572D01*
X3778314Y-18540143D01*
X3749743Y-18554429D01*
X4192600Y-18468714D02*
X4049743Y-18468714D01*
X4035457Y-18611572D01*
X4049743Y-18597286D01*
X4078314Y-18583000D01*
X4149743Y-18583000D01*
X4178314Y-18597286D01*
X4192600Y-18611572D01*
X4206886Y-18640143D01*
X4206886Y-18711572D01*
X4192600Y-18740143D01*
X4178314Y-18754429D01*
X4149743Y-18768714D01*
X4078314Y-18768714D01*
X4049743Y-18754429D01*
X4035457Y-18740143D01*
X4306886Y-18468714D02*
X4506886Y-18468714D01*
X4378314Y-18768714D01*
X4606886Y-18468714D02*
X4606886Y-18525857D01*
X4721171Y-18468714D02*
X4721171Y-18525857D01*
X5164028Y-18883000D02*
X5149743Y-18868714D01*
X5121171Y-18825857D01*
X5106886Y-18797286D01*
X5092600Y-18754429D01*
X5078314Y-18683000D01*
X5078314Y-18625857D01*
X5092600Y-18554429D01*
X5106886Y-18511572D01*
X5121171Y-18483000D01*
X5149743Y-18440143D01*
X5164028Y-18425857D01*
X5249743Y-18468714D02*
X5449743Y-18468714D01*
X5321171Y-18768714D01*
X5606886Y-18597286D02*
X5578314Y-18583000D01*
X5564028Y-18568714D01*
X5549743Y-18540143D01*
X5549743Y-18525857D01*
X5564028Y-18497286D01*
X5578314Y-18483000D01*
X5606886Y-18468714D01*
X5664028Y-18468714D01*
X5692600Y-18483000D01*
X5706886Y-18497286D01*
X5721171Y-18525857D01*
X5721171Y-18540143D01*
X5706886Y-18568714D01*
X5692600Y-18583000D01*
X5664028Y-18597286D01*
X5606886Y-18597286D01*
X5578314Y-18611572D01*
X5564028Y-18625857D01*
X5549743Y-18654429D01*
X5549743Y-18711572D01*
X5564028Y-18740143D01*
X5578314Y-18754429D01*
X5606886Y-18768714D01*
X5664028Y-18768714D01*
X5692600Y-18754429D01*
X5706886Y-18740143D01*
X5721171Y-18711572D01*
X5721171Y-18654429D01*
X5706886Y-18625857D01*
X5692600Y-18611572D01*
X5664028Y-18597286D01*
X6078314Y-18768714D02*
X6078314Y-18468714D01*
X6206886Y-18768714D02*
X6206886Y-18611572D01*
X6192600Y-18583000D01*
X6164028Y-18568714D01*
X6121171Y-18568714D01*
X6092600Y-18583000D01*
X6078314Y-18597286D01*
X6392600Y-18768714D02*
X6364028Y-18754429D01*
X6349743Y-18740143D01*
X6335457Y-18711572D01*
X6335457Y-18625857D01*
X6349743Y-18597286D01*
X6364028Y-18583000D01*
X6392600Y-18568714D01*
X6435457Y-18568714D01*
X6464028Y-18583000D01*
X6478314Y-18597286D01*
X6492600Y-18625857D01*
X6492600Y-18711572D01*
X6478314Y-18740143D01*
X6464028Y-18754429D01*
X6435457Y-18768714D01*
X6392600Y-18768714D01*
X6664028Y-18768714D02*
X6635457Y-18754429D01*
X6621171Y-18725857D01*
X6621171Y-18468714D01*
X6892600Y-18754429D02*
X6864028Y-18768714D01*
X6806886Y-18768714D01*
X6778314Y-18754429D01*
X6764028Y-18725857D01*
X6764028Y-18611572D01*
X6778314Y-18583000D01*
X6806886Y-18568714D01*
X6864028Y-18568714D01*
X6892600Y-18583000D01*
X6906886Y-18611572D01*
X6906886Y-18640143D01*
X6764028Y-18668714D01*
X7021171Y-18754429D02*
X7049743Y-18768714D01*
X7106886Y-18768714D01*
X7135457Y-18754429D01*
X7149743Y-18725857D01*
X7149743Y-18711572D01*
X7135457Y-18683000D01*
X7106886Y-18668714D01*
X7064028Y-18668714D01*
X7035457Y-18654429D01*
X7021171Y-18625857D01*
X7021171Y-18611572D01*
X7035457Y-18583000D01*
X7064028Y-18568714D01*
X7106886Y-18568714D01*
X7135457Y-18583000D01*
X7249743Y-18883000D02*
X7264028Y-18868714D01*
X7292600Y-18825857D01*
X7306886Y-18797286D01*
X7321171Y-18754429D01*
X7335457Y-18683000D01*
X7335457Y-18625857D01*
X7321171Y-18554429D01*
X7306886Y-18511572D01*
X7292600Y-18483000D01*
X7264028Y-18440143D01*
X7249743Y-18425857D01*
X7792600Y-18883000D02*
X7778314Y-18868714D01*
X7749743Y-18825857D01*
X7735457Y-18797286D01*
X7721171Y-18754429D01*
X7706886Y-18683000D01*
X7706886Y-18625857D01*
X7721171Y-18554429D01*
X7735457Y-18511572D01*
X7749743Y-18483000D01*
X7778314Y-18440143D01*
X7792600Y-18425857D01*
X7906886Y-18568714D02*
X7906886Y-18768714D01*
X7906886Y-18597286D02*
X7921171Y-18583000D01*
X7949743Y-18568714D01*
X7992600Y-18568714D01*
X8021171Y-18583000D01*
X8035457Y-18611572D01*
X8035457Y-18768714D01*
X8221171Y-18768714D02*
X8192600Y-18754429D01*
X8178314Y-18740143D01*
X8164028Y-18711572D01*
X8164028Y-18625857D01*
X8178314Y-18597286D01*
X8192600Y-18583000D01*
X8221171Y-18568714D01*
X8264028Y-18568714D01*
X8292600Y-18583000D01*
X8306886Y-18597286D01*
X8321171Y-18625857D01*
X8321171Y-18711572D01*
X8306886Y-18740143D01*
X8292600Y-18754429D01*
X8264028Y-18768714D01*
X8221171Y-18768714D01*
X8406886Y-18568714D02*
X8521171Y-18568714D01*
X8449743Y-18468714D02*
X8449743Y-18725857D01*
X8464028Y-18754429D01*
X8492600Y-18768714D01*
X8521171Y-18768714D01*
X8849743Y-18568714D02*
X8849743Y-18868714D01*
X8849743Y-18583000D02*
X8878314Y-18568714D01*
X8935457Y-18568714D01*
X8964028Y-18583000D01*
X8978314Y-18597286D01*
X8992600Y-18625857D01*
X8992600Y-18711572D01*
X8978314Y-18740143D01*
X8964028Y-18754429D01*
X8935457Y-18768714D01*
X8878314Y-18768714D01*
X8849743Y-18754429D01*
X9164028Y-18768714D02*
X9135457Y-18754429D01*
X9121171Y-18725857D01*
X9121171Y-18468714D01*
X9406886Y-18768714D02*
X9406886Y-18611572D01*
X9392600Y-18583000D01*
X9364028Y-18568714D01*
X9306886Y-18568714D01*
X9278314Y-18583000D01*
X9406886Y-18754429D02*
X9378314Y-18768714D01*
X9306886Y-18768714D01*
X9278314Y-18754429D01*
X9264028Y-18725857D01*
X9264028Y-18697286D01*
X9278314Y-18668714D01*
X9306886Y-18654429D01*
X9378314Y-18654429D01*
X9406886Y-18640143D01*
X9506886Y-18568714D02*
X9621171Y-18568714D01*
X9549743Y-18468714D02*
X9549743Y-18725857D01*
X9564028Y-18754429D01*
X9592600Y-18768714D01*
X9621171Y-18768714D01*
X9835457Y-18754429D02*
X9806886Y-18768714D01*
X9749743Y-18768714D01*
X9721171Y-18754429D01*
X9706886Y-18725857D01*
X9706886Y-18611572D01*
X9721171Y-18583000D01*
X9749743Y-18568714D01*
X9806886Y-18568714D01*
X9835457Y-18583000D01*
X9849743Y-18611572D01*
X9849743Y-18640143D01*
X9706886Y-18668714D01*
X10106886Y-18768714D02*
X10106886Y-18468714D01*
X10106886Y-18754429D02*
X10078314Y-18768714D01*
X10021171Y-18768714D01*
X9992600Y-18754429D01*
X9978314Y-18740143D01*
X9964028Y-18711572D01*
X9964028Y-18625857D01*
X9978314Y-18597286D01*
X9992600Y-18583000D01*
X10021171Y-18568714D01*
X10078314Y-18568714D01*
X10106886Y-18583000D01*
X10221171Y-18883000D02*
X10235457Y-18868714D01*
X10264028Y-18825857D01*
X10278314Y-18797286D01*
X10292600Y-18754429D01*
X10306886Y-18683000D01*
X10306886Y-18625857D01*
X10292600Y-18554429D01*
X10278314Y-18511572D01*
X10264028Y-18483000D01*
X10235457Y-18440143D01*
X10221171Y-18425857D01*
M02*
