G04 #@! TF.GenerationSoftware,KiCad,Pcbnew,5.1.9+dfsg1-1+deb11u1*
G04 #@! TF.CreationDate,2022-10-03T19:41:32+02:00*
G04 #@! TF.ProjectId,BalthazarKeyboard3-keycaps,42616c74-6861-47a6-9172-4b6579626f61,v0.2*
G04 #@! TF.SameCoordinates,Original*
G04 #@! TF.FileFunction,Soldermask,Bot*
G04 #@! TF.FilePolarity,Negative*
%FSLAX46Y46*%
G04 Gerber Fmt 4.6, Leading zero omitted, Abs format (unit mm)*
G04 Created by KiCad (PCBNEW 5.1.9+dfsg1-1+deb11u1) date 2022-10-03 19:41:32*
%MOMM*%
%LPD*%
G01*
G04 APERTURE LIST*
%ADD10C,1.750000*%
%ADD11O,2.200000X1.500000*%
%ADD12O,2.200000X1.700000*%
%ADD13C,4.000000*%
%ADD14R,0.550000X1.500000*%
%ADD15R,1.500000X0.550000*%
%ADD16R,1.500000X1.900000*%
%ADD17R,0.400000X1.350000*%
%ADD18C,1.450000*%
%ADD19O,1.200000X1.900000*%
%ADD20R,1.200000X1.900000*%
%ADD21C,4.700000*%
%ADD22O,1.350000X1.350000*%
%ADD23R,1.350000X1.350000*%
%ADD24C,0.100000*%
%ADD25R,1.500000X1.500000*%
%ADD26R,1.700000X1.700000*%
%ADD27O,1.700000X1.700000*%
%ADD28C,1.000000*%
%ADD29C,0.254000*%
G04 APERTURE END LIST*
D10*
X252132000Y-102870000D03*
X242152000Y-102870000D03*
D11*
X249642000Y-97570000D03*
D12*
X243392000Y-100340000D03*
D13*
X247142000Y-102870000D03*
D10*
X136308000Y-156718000D03*
X126328000Y-156718000D03*
D11*
X133818000Y-151418000D03*
D12*
X127568000Y-154188000D03*
D13*
X131318000Y-156718000D03*
D10*
X252132000Y-141224000D03*
X242152000Y-141224000D03*
D11*
X249642000Y-135924000D03*
D12*
X243392000Y-138694000D03*
D13*
X247142000Y-141224000D03*
D10*
X24167000Y-59690000D03*
X14187000Y-59690000D03*
D11*
X21677000Y-54390000D03*
D12*
X15427000Y-57160000D03*
D13*
X19177000Y-59690000D03*
D10*
X43471000Y-60706000D03*
X33491000Y-60706000D03*
D11*
X40981000Y-55406000D03*
D12*
X34731000Y-58176000D03*
D13*
X38481000Y-60706000D03*
D10*
X62775000Y-64262000D03*
X52795000Y-64262000D03*
D11*
X60285000Y-58962000D03*
D12*
X54035000Y-61732000D03*
D13*
X57785000Y-64262000D03*
D10*
X82079000Y-67691000D03*
X72099000Y-67691000D03*
D11*
X79589000Y-62391000D03*
D12*
X73339000Y-65161000D03*
D13*
X77089000Y-67691000D03*
D10*
X101383000Y-71247000D03*
X91403000Y-71247000D03*
D11*
X98893000Y-65947000D03*
D12*
X92643000Y-68717000D03*
D13*
X96393000Y-71247000D03*
D10*
X120687000Y-74930000D03*
X110707000Y-74930000D03*
D11*
X118197000Y-69630000D03*
D12*
X111947000Y-72400000D03*
D13*
X115697000Y-74930000D03*
D10*
X139991000Y-79375000D03*
X130011000Y-79375000D03*
D11*
X137501000Y-74075000D03*
D12*
X131251000Y-76845000D03*
D13*
X135001000Y-79375000D03*
D10*
X39788000Y-80010000D03*
X29808000Y-80010000D03*
D11*
X37298000Y-74710000D03*
D12*
X31048000Y-77480000D03*
D13*
X34798000Y-80010000D03*
D10*
X59092000Y-83439000D03*
X49112000Y-83439000D03*
D11*
X56602000Y-78139000D03*
D12*
X50352000Y-80909000D03*
D13*
X54102000Y-83439000D03*
D10*
X78396000Y-86995000D03*
X68416000Y-86995000D03*
D11*
X75906000Y-81695000D03*
D12*
X69656000Y-84465000D03*
D13*
X73406000Y-86995000D03*
D10*
X97700000Y-90551000D03*
X87720000Y-90551000D03*
D11*
X95210000Y-85251000D03*
D12*
X88960000Y-88021000D03*
D13*
X92710000Y-90551000D03*
D10*
X117004000Y-94234000D03*
X107024000Y-94234000D03*
D11*
X114514000Y-88934000D03*
D12*
X108264000Y-91704000D03*
D13*
X112014000Y-94234000D03*
D10*
X136308000Y-98806000D03*
X126328000Y-98806000D03*
D11*
X133818000Y-93506000D03*
D12*
X127568000Y-96276000D03*
D13*
X131318000Y-98806000D03*
D10*
X155612000Y-100457000D03*
X145632000Y-100457000D03*
D11*
X153122000Y-95157000D03*
D12*
X146872000Y-97927000D03*
D13*
X150622000Y-100457000D03*
D10*
X20484000Y-81153000D03*
X10504000Y-81153000D03*
D11*
X17994000Y-75853000D03*
D12*
X11744000Y-78623000D03*
D13*
X15494000Y-81153000D03*
D10*
X59092000Y-102743000D03*
X49112000Y-102743000D03*
D11*
X56602000Y-97443000D03*
D12*
X50352000Y-100213000D03*
D13*
X54102000Y-102743000D03*
D10*
X78396000Y-106299000D03*
X68416000Y-106299000D03*
D11*
X75906000Y-100999000D03*
D12*
X69656000Y-103769000D03*
D13*
X73406000Y-106299000D03*
D10*
X97700000Y-110109000D03*
X87720000Y-110109000D03*
D11*
X95210000Y-104809000D03*
D12*
X88960000Y-107579000D03*
D13*
X92710000Y-110109000D03*
D10*
X117004000Y-113538000D03*
X107024000Y-113538000D03*
D11*
X114514000Y-108238000D03*
D12*
X108264000Y-111008000D03*
D13*
X112014000Y-113538000D03*
D10*
X136308000Y-118110000D03*
X126328000Y-118110000D03*
D11*
X133818000Y-112810000D03*
D12*
X127568000Y-115580000D03*
D13*
X131318000Y-118110000D03*
D10*
X155612000Y-119888000D03*
X145632000Y-119888000D03*
D11*
X153122000Y-114588000D03*
D12*
X146872000Y-117358000D03*
D13*
X150622000Y-119888000D03*
D10*
X39788000Y-99314000D03*
X29808000Y-99314000D03*
D11*
X37298000Y-94014000D03*
D12*
X31048000Y-96784000D03*
D13*
X34798000Y-99314000D03*
D10*
X59092000Y-122174000D03*
X49112000Y-122174000D03*
D11*
X56602000Y-116874000D03*
D12*
X50352000Y-119644000D03*
D13*
X54102000Y-122174000D03*
D10*
X78396000Y-125730000D03*
X68416000Y-125730000D03*
D11*
X75906000Y-120430000D03*
D12*
X69656000Y-123200000D03*
D13*
X73406000Y-125730000D03*
D10*
X97700000Y-129159000D03*
X87720000Y-129159000D03*
D11*
X95210000Y-123859000D03*
D12*
X88960000Y-126629000D03*
D13*
X92710000Y-129159000D03*
D10*
X117004000Y-132842000D03*
X107024000Y-132842000D03*
D11*
X114514000Y-127542000D03*
D12*
X108264000Y-130312000D03*
D13*
X112014000Y-132842000D03*
D10*
X136308000Y-137414000D03*
X126328000Y-137414000D03*
D11*
X133818000Y-132114000D03*
D12*
X127568000Y-134884000D03*
D13*
X131318000Y-137414000D03*
D10*
X155612000Y-139192000D03*
X145632000Y-139192000D03*
D11*
X153122000Y-133892000D03*
D12*
X146872000Y-136662000D03*
D13*
X150622000Y-139192000D03*
D10*
X20484000Y-102870000D03*
X10504000Y-102870000D03*
D11*
X17994000Y-97570000D03*
D12*
X11744000Y-100340000D03*
D13*
X15494000Y-102870000D03*
D10*
X59092000Y-141478000D03*
X49112000Y-141478000D03*
D11*
X56602000Y-136178000D03*
D12*
X50352000Y-138948000D03*
D13*
X54102000Y-141478000D03*
D10*
X78396000Y-144780000D03*
X68416000Y-144780000D03*
D11*
X75906000Y-139480000D03*
D12*
X69656000Y-142250000D03*
D13*
X73406000Y-144780000D03*
D10*
X97700000Y-148590000D03*
X87720000Y-148590000D03*
D11*
X95210000Y-143290000D03*
D12*
X88960000Y-146060000D03*
D13*
X92710000Y-148590000D03*
D10*
X117004000Y-152146000D03*
X107024000Y-152146000D03*
D11*
X114514000Y-146846000D03*
D12*
X108264000Y-149616000D03*
D13*
X112014000Y-152146000D03*
D10*
X155612000Y-158496000D03*
X145632000Y-158496000D03*
D11*
X153122000Y-153196000D03*
D12*
X146872000Y-155966000D03*
D13*
X150622000Y-158496000D03*
D10*
X20484000Y-124460000D03*
X10504000Y-124460000D03*
D11*
X17994000Y-119160000D03*
D12*
X11744000Y-121930000D03*
D13*
X15494000Y-124460000D03*
D10*
X39788000Y-118618000D03*
X29808000Y-118618000D03*
D11*
X37298000Y-113318000D03*
D12*
X31048000Y-116088000D03*
D13*
X34798000Y-118618000D03*
D10*
X39788000Y-141478000D03*
X29808000Y-141478000D03*
D11*
X37298000Y-136178000D03*
D12*
X31048000Y-138948000D03*
D13*
X34798000Y-141478000D03*
D10*
X97700000Y-164846000D03*
X87720000Y-164846000D03*
D11*
X95210000Y-159546000D03*
D12*
X88960000Y-162316000D03*
D13*
X92710000Y-164846000D03*
D10*
X213778000Y-164846000D03*
X203798000Y-164846000D03*
D11*
X211288000Y-159546000D03*
D12*
X205038000Y-162316000D03*
D13*
X208788000Y-164846000D03*
D10*
X252132000Y-160782000D03*
X242152000Y-160782000D03*
D11*
X249642000Y-155482000D03*
D12*
X243392000Y-158252000D03*
D13*
X247142000Y-160782000D03*
D10*
X271436000Y-160528000D03*
X261456000Y-160528000D03*
D11*
X268946000Y-155228000D03*
D12*
X262696000Y-157998000D03*
D13*
X266446000Y-160528000D03*
D10*
X290740000Y-160782000D03*
X280760000Y-160782000D03*
D11*
X288250000Y-155482000D03*
D12*
X282000000Y-158252000D03*
D13*
X285750000Y-160782000D03*
D10*
X170090000Y-79502000D03*
X160110000Y-79502000D03*
D11*
X167600000Y-74202000D03*
D12*
X161350000Y-76972000D03*
D13*
X165100000Y-79502000D03*
D10*
X189394000Y-74930000D03*
X179414000Y-74930000D03*
D11*
X186904000Y-69630000D03*
D12*
X180654000Y-72400000D03*
D13*
X184404000Y-74930000D03*
D10*
X208698000Y-71120000D03*
X198718000Y-71120000D03*
D11*
X206208000Y-65820000D03*
D12*
X199958000Y-68590000D03*
D13*
X203708000Y-71120000D03*
D10*
X228002000Y-67818000D03*
X218022000Y-67818000D03*
D11*
X225512000Y-62518000D03*
D12*
X219262000Y-65288000D03*
D13*
X223012000Y-67818000D03*
D10*
X247306000Y-64262000D03*
X237326000Y-64262000D03*
D11*
X244816000Y-58962000D03*
D12*
X238566000Y-61732000D03*
D13*
X242316000Y-64262000D03*
D10*
X266610000Y-60706000D03*
X256630000Y-60706000D03*
D11*
X264120000Y-55406000D03*
D12*
X257870000Y-58176000D03*
D13*
X261620000Y-60706000D03*
D10*
X285914000Y-59690000D03*
X275934000Y-59690000D03*
D11*
X283424000Y-54390000D03*
D12*
X277174000Y-57160000D03*
D13*
X280924000Y-59690000D03*
D10*
X174916000Y-98806000D03*
X164936000Y-98806000D03*
D11*
X172426000Y-93506000D03*
D12*
X166176000Y-96276000D03*
D13*
X169926000Y-98806000D03*
D10*
X194220000Y-94234000D03*
X184240000Y-94234000D03*
D11*
X191730000Y-88934000D03*
D12*
X185480000Y-91704000D03*
D13*
X189230000Y-94234000D03*
D10*
X213524000Y-90678000D03*
X203544000Y-90678000D03*
D11*
X211034000Y-85378000D03*
D12*
X204784000Y-88148000D03*
D13*
X208534000Y-90678000D03*
D10*
X232828000Y-87122000D03*
X222848000Y-87122000D03*
D11*
X230338000Y-81822000D03*
D12*
X224088000Y-84592000D03*
D13*
X227838000Y-87122000D03*
D10*
X252132000Y-83566000D03*
X242152000Y-83566000D03*
D11*
X249642000Y-78266000D03*
D12*
X243392000Y-81036000D03*
D13*
X247142000Y-83566000D03*
D10*
X271436000Y-80010000D03*
X261456000Y-80010000D03*
D11*
X268946000Y-74710000D03*
D12*
X262696000Y-77480000D03*
D13*
X266446000Y-80010000D03*
D10*
X290740000Y-78994000D03*
X280760000Y-78994000D03*
D11*
X288250000Y-73694000D03*
D12*
X282000000Y-76464000D03*
D13*
X285750000Y-78994000D03*
D10*
X174916000Y-118110000D03*
X164936000Y-118110000D03*
D11*
X172426000Y-112810000D03*
D12*
X166176000Y-115580000D03*
D13*
X169926000Y-118110000D03*
D10*
X194220000Y-113538000D03*
X184240000Y-113538000D03*
D11*
X191730000Y-108238000D03*
D12*
X185480000Y-111008000D03*
D13*
X189230000Y-113538000D03*
D10*
X213524000Y-109982000D03*
X203544000Y-109982000D03*
D11*
X211034000Y-104682000D03*
D12*
X204784000Y-107452000D03*
D13*
X208534000Y-109982000D03*
D10*
X232828000Y-106426000D03*
X222848000Y-106426000D03*
D11*
X230338000Y-101126000D03*
D12*
X224088000Y-103896000D03*
D13*
X227838000Y-106426000D03*
D10*
X271436000Y-99314000D03*
X261456000Y-99314000D03*
D11*
X268946000Y-94014000D03*
D12*
X262696000Y-96784000D03*
D13*
X266446000Y-99314000D03*
D10*
X290740000Y-98044000D03*
X280760000Y-98044000D03*
D11*
X288250000Y-92744000D03*
D12*
X282000000Y-95514000D03*
D13*
X285750000Y-98044000D03*
D10*
X174916000Y-137414000D03*
X164936000Y-137414000D03*
D11*
X172426000Y-132114000D03*
D12*
X166176000Y-134884000D03*
D13*
X169926000Y-137414000D03*
D10*
X194220000Y-132842000D03*
X184240000Y-132842000D03*
D11*
X191730000Y-127542000D03*
D12*
X185480000Y-130312000D03*
D13*
X189230000Y-132842000D03*
D10*
X213524000Y-129286000D03*
X203544000Y-129286000D03*
D11*
X211034000Y-123986000D03*
D12*
X204784000Y-126756000D03*
D13*
X208534000Y-129286000D03*
D10*
X232828000Y-125730000D03*
X222848000Y-125730000D03*
D11*
X230338000Y-120430000D03*
D12*
X224088000Y-123200000D03*
D13*
X227838000Y-125730000D03*
D10*
X252132000Y-122174000D03*
X242152000Y-122174000D03*
D11*
X249642000Y-116874000D03*
D12*
X243392000Y-119644000D03*
D13*
X247142000Y-122174000D03*
D10*
X271436000Y-118618000D03*
X261456000Y-118618000D03*
D11*
X268946000Y-113318000D03*
D12*
X262696000Y-116088000D03*
D13*
X266446000Y-118618000D03*
D10*
X290740000Y-119888000D03*
X280760000Y-119888000D03*
D11*
X288250000Y-114588000D03*
D12*
X282000000Y-117358000D03*
D13*
X285750000Y-119888000D03*
D10*
X174916000Y-156718000D03*
X164936000Y-156718000D03*
D11*
X172426000Y-151418000D03*
D12*
X166176000Y-154188000D03*
D13*
X169926000Y-156718000D03*
D10*
X194220000Y-152146000D03*
X184240000Y-152146000D03*
D11*
X191730000Y-146846000D03*
D12*
X185480000Y-149616000D03*
D13*
X189230000Y-152146000D03*
D10*
X213778000Y-148590000D03*
X203798000Y-148590000D03*
D11*
X211288000Y-143290000D03*
D12*
X205038000Y-146060000D03*
D13*
X208788000Y-148590000D03*
D10*
X232828000Y-145034000D03*
X222848000Y-145034000D03*
D11*
X230338000Y-139734000D03*
D12*
X224088000Y-142504000D03*
D13*
X227838000Y-145034000D03*
D10*
X271436000Y-140970000D03*
X261456000Y-140970000D03*
D11*
X268946000Y-135670000D03*
D12*
X262696000Y-138440000D03*
D13*
X266446000Y-140970000D03*
D10*
X290740000Y-141224000D03*
X280760000Y-141224000D03*
D11*
X288250000Y-135924000D03*
D12*
X282000000Y-138694000D03*
D13*
X285750000Y-141224000D03*
D14*
X146368000Y-63642000D03*
X147168000Y-63642000D03*
X147968000Y-63642000D03*
X148768000Y-63642000D03*
X149568000Y-63642000D03*
X150368000Y-63642000D03*
X151168000Y-63642000D03*
X151968000Y-63642000D03*
X152768000Y-63642000D03*
X153568000Y-63642000D03*
X154368000Y-63642000D03*
D15*
X156068000Y-65342000D03*
X156068000Y-66142000D03*
X156068000Y-66942000D03*
X156068000Y-67742000D03*
X156068000Y-68542000D03*
X156068000Y-69342000D03*
X156068000Y-70142000D03*
X156068000Y-70942000D03*
X156068000Y-71742000D03*
X156068000Y-72542000D03*
X156068000Y-73342000D03*
D14*
X154368000Y-75042000D03*
X153568000Y-75042000D03*
X152768000Y-75042000D03*
X151968000Y-75042000D03*
X151168000Y-75042000D03*
X150368000Y-75042000D03*
X149568000Y-75042000D03*
X148768000Y-75042000D03*
X147968000Y-75042000D03*
X147168000Y-75042000D03*
X146368000Y-75042000D03*
D15*
X144668000Y-73342000D03*
X144668000Y-72542000D03*
X144668000Y-71742000D03*
X144668000Y-70942000D03*
X144668000Y-70142000D03*
X144668000Y-69342000D03*
X144668000Y-68542000D03*
X144668000Y-67742000D03*
X144668000Y-66942000D03*
X144668000Y-66142000D03*
X144668000Y-65342000D03*
D16*
X150860000Y-47276500D03*
D17*
X149210000Y-49976500D03*
X148560000Y-49976500D03*
X151160000Y-49976500D03*
X150510000Y-49976500D03*
X149860000Y-49976500D03*
D18*
X152360000Y-49976500D03*
D16*
X148860000Y-47276500D03*
D19*
X146360000Y-47276500D03*
X153360000Y-47276500D03*
D20*
X152760000Y-47276500D03*
X146960000Y-47276500D03*
D21*
X101854000Y-100330000D03*
X195834000Y-82296000D03*
X8664000Y-135626000D03*
X291592000Y-108966000D03*
X160020000Y-129540000D03*
G36*
G01*
X271055000Y-166945000D02*
X271055000Y-165695000D01*
G75*
G02*
X271305000Y-165445000I250000J0D01*
G01*
X272055000Y-165445000D01*
G75*
G02*
X272305000Y-165695000I0J-250000D01*
G01*
X272305000Y-166945000D01*
G75*
G02*
X272055000Y-167195000I-250000J0D01*
G01*
X271305000Y-167195000D01*
G75*
G02*
X271055000Y-166945000I0J250000D01*
G01*
G37*
G36*
G01*
X268255000Y-166945000D02*
X268255000Y-165695000D01*
G75*
G02*
X268505000Y-165445000I250000J0D01*
G01*
X269255000Y-165445000D01*
G75*
G02*
X269505000Y-165695000I0J-250000D01*
G01*
X269505000Y-166945000D01*
G75*
G02*
X269255000Y-167195000I-250000J0D01*
G01*
X268505000Y-167195000D01*
G75*
G02*
X268255000Y-166945000I0J250000D01*
G01*
G37*
G36*
G01*
X187058000Y-48397000D02*
X187058000Y-49647000D01*
G75*
G02*
X186808000Y-49897000I-250000J0D01*
G01*
X186058000Y-49897000D01*
G75*
G02*
X185808000Y-49647000I0J250000D01*
G01*
X185808000Y-48397000D01*
G75*
G02*
X186058000Y-48147000I250000J0D01*
G01*
X186808000Y-48147000D01*
G75*
G02*
X187058000Y-48397000I0J-250000D01*
G01*
G37*
G36*
G01*
X189858000Y-48397000D02*
X189858000Y-49647000D01*
G75*
G02*
X189608000Y-49897000I-250000J0D01*
G01*
X188858000Y-49897000D01*
G75*
G02*
X188608000Y-49647000I0J250000D01*
G01*
X188608000Y-48397000D01*
G75*
G02*
X188858000Y-48147000I250000J0D01*
G01*
X189608000Y-48147000D01*
G75*
G02*
X189858000Y-48397000I0J-250000D01*
G01*
G37*
D22*
X168052000Y-51816000D03*
X166052000Y-51816000D03*
X164052000Y-51816000D03*
D23*
X162052000Y-51816000D03*
G36*
G01*
X156327000Y-55489000D02*
X155077000Y-55489000D01*
G75*
G02*
X154827000Y-55239000I0J250000D01*
G01*
X154827000Y-54489000D01*
G75*
G02*
X155077000Y-54239000I250000J0D01*
G01*
X156327000Y-54239000D01*
G75*
G02*
X156577000Y-54489000I0J-250000D01*
G01*
X156577000Y-55239000D01*
G75*
G02*
X156327000Y-55489000I-250000J0D01*
G01*
G37*
G36*
G01*
X156327000Y-58289000D02*
X155077000Y-58289000D01*
G75*
G02*
X154827000Y-58039000I0J250000D01*
G01*
X154827000Y-57289000D01*
G75*
G02*
X155077000Y-57039000I250000J0D01*
G01*
X156327000Y-57039000D01*
G75*
G02*
X156577000Y-57289000I0J-250000D01*
G01*
X156577000Y-58039000D01*
G75*
G02*
X156327000Y-58289000I-250000J0D01*
G01*
G37*
G36*
G01*
X23889000Y-66665000D02*
X23889000Y-65415000D01*
G75*
G02*
X24139000Y-65165000I250000J0D01*
G01*
X24889000Y-65165000D01*
G75*
G02*
X25139000Y-65415000I0J-250000D01*
G01*
X25139000Y-66665000D01*
G75*
G02*
X24889000Y-66915000I-250000J0D01*
G01*
X24139000Y-66915000D01*
G75*
G02*
X23889000Y-66665000I0J250000D01*
G01*
G37*
G36*
G01*
X21089000Y-66665000D02*
X21089000Y-65415000D01*
G75*
G02*
X21339000Y-65165000I250000J0D01*
G01*
X22089000Y-65165000D01*
G75*
G02*
X22339000Y-65415000I0J-250000D01*
G01*
X22339000Y-66665000D01*
G75*
G02*
X22089000Y-66915000I-250000J0D01*
G01*
X21339000Y-66915000D01*
G75*
G02*
X21089000Y-66665000I0J250000D01*
G01*
G37*
G36*
G01*
X43193000Y-67427000D02*
X43193000Y-66177000D01*
G75*
G02*
X43443000Y-65927000I250000J0D01*
G01*
X44193000Y-65927000D01*
G75*
G02*
X44443000Y-66177000I0J-250000D01*
G01*
X44443000Y-67427000D01*
G75*
G02*
X44193000Y-67677000I-250000J0D01*
G01*
X43443000Y-67677000D01*
G75*
G02*
X43193000Y-67427000I0J250000D01*
G01*
G37*
G36*
G01*
X40393000Y-67427000D02*
X40393000Y-66177000D01*
G75*
G02*
X40643000Y-65927000I250000J0D01*
G01*
X41393000Y-65927000D01*
G75*
G02*
X41643000Y-66177000I0J-250000D01*
G01*
X41643000Y-67427000D01*
G75*
G02*
X41393000Y-67677000I-250000J0D01*
G01*
X40643000Y-67677000D01*
G75*
G02*
X40393000Y-67427000I0J250000D01*
G01*
G37*
G36*
G01*
X62497000Y-70983000D02*
X62497000Y-69733000D01*
G75*
G02*
X62747000Y-69483000I250000J0D01*
G01*
X63497000Y-69483000D01*
G75*
G02*
X63747000Y-69733000I0J-250000D01*
G01*
X63747000Y-70983000D01*
G75*
G02*
X63497000Y-71233000I-250000J0D01*
G01*
X62747000Y-71233000D01*
G75*
G02*
X62497000Y-70983000I0J250000D01*
G01*
G37*
G36*
G01*
X59697000Y-70983000D02*
X59697000Y-69733000D01*
G75*
G02*
X59947000Y-69483000I250000J0D01*
G01*
X60697000Y-69483000D01*
G75*
G02*
X60947000Y-69733000I0J-250000D01*
G01*
X60947000Y-70983000D01*
G75*
G02*
X60697000Y-71233000I-250000J0D01*
G01*
X59947000Y-71233000D01*
G75*
G02*
X59697000Y-70983000I0J250000D01*
G01*
G37*
G36*
G01*
X81801000Y-74539000D02*
X81801000Y-73289000D01*
G75*
G02*
X82051000Y-73039000I250000J0D01*
G01*
X82801000Y-73039000D01*
G75*
G02*
X83051000Y-73289000I0J-250000D01*
G01*
X83051000Y-74539000D01*
G75*
G02*
X82801000Y-74789000I-250000J0D01*
G01*
X82051000Y-74789000D01*
G75*
G02*
X81801000Y-74539000I0J250000D01*
G01*
G37*
G36*
G01*
X79001000Y-74539000D02*
X79001000Y-73289000D01*
G75*
G02*
X79251000Y-73039000I250000J0D01*
G01*
X80001000Y-73039000D01*
G75*
G02*
X80251000Y-73289000I0J-250000D01*
G01*
X80251000Y-74539000D01*
G75*
G02*
X80001000Y-74789000I-250000J0D01*
G01*
X79251000Y-74789000D01*
G75*
G02*
X79001000Y-74539000I0J250000D01*
G01*
G37*
G36*
G01*
X101105000Y-78095000D02*
X101105000Y-76845000D01*
G75*
G02*
X101355000Y-76595000I250000J0D01*
G01*
X102105000Y-76595000D01*
G75*
G02*
X102355000Y-76845000I0J-250000D01*
G01*
X102355000Y-78095000D01*
G75*
G02*
X102105000Y-78345000I-250000J0D01*
G01*
X101355000Y-78345000D01*
G75*
G02*
X101105000Y-78095000I0J250000D01*
G01*
G37*
G36*
G01*
X98305000Y-78095000D02*
X98305000Y-76845000D01*
G75*
G02*
X98555000Y-76595000I250000J0D01*
G01*
X99305000Y-76595000D01*
G75*
G02*
X99555000Y-76845000I0J-250000D01*
G01*
X99555000Y-78095000D01*
G75*
G02*
X99305000Y-78345000I-250000J0D01*
G01*
X98555000Y-78345000D01*
G75*
G02*
X98305000Y-78095000I0J250000D01*
G01*
G37*
G36*
G01*
X120409000Y-81905000D02*
X120409000Y-80655000D01*
G75*
G02*
X120659000Y-80405000I250000J0D01*
G01*
X121409000Y-80405000D01*
G75*
G02*
X121659000Y-80655000I0J-250000D01*
G01*
X121659000Y-81905000D01*
G75*
G02*
X121409000Y-82155000I-250000J0D01*
G01*
X120659000Y-82155000D01*
G75*
G02*
X120409000Y-81905000I0J250000D01*
G01*
G37*
G36*
G01*
X117609000Y-81905000D02*
X117609000Y-80655000D01*
G75*
G02*
X117859000Y-80405000I250000J0D01*
G01*
X118609000Y-80405000D01*
G75*
G02*
X118859000Y-80655000I0J-250000D01*
G01*
X118859000Y-81905000D01*
G75*
G02*
X118609000Y-82155000I-250000J0D01*
G01*
X117859000Y-82155000D01*
G75*
G02*
X117609000Y-81905000I0J250000D01*
G01*
G37*
G36*
G01*
X139459000Y-86223000D02*
X139459000Y-84973000D01*
G75*
G02*
X139709000Y-84723000I250000J0D01*
G01*
X140459000Y-84723000D01*
G75*
G02*
X140709000Y-84973000I0J-250000D01*
G01*
X140709000Y-86223000D01*
G75*
G02*
X140459000Y-86473000I-250000J0D01*
G01*
X139709000Y-86473000D01*
G75*
G02*
X139459000Y-86223000I0J250000D01*
G01*
G37*
G36*
G01*
X136659000Y-86223000D02*
X136659000Y-84973000D01*
G75*
G02*
X136909000Y-84723000I250000J0D01*
G01*
X137659000Y-84723000D01*
G75*
G02*
X137909000Y-84973000I0J-250000D01*
G01*
X137909000Y-86223000D01*
G75*
G02*
X137659000Y-86473000I-250000J0D01*
G01*
X136909000Y-86473000D01*
G75*
G02*
X136659000Y-86223000I0J250000D01*
G01*
G37*
G36*
G01*
X39383000Y-86985000D02*
X39383000Y-85735000D01*
G75*
G02*
X39633000Y-85485000I250000J0D01*
G01*
X40383000Y-85485000D01*
G75*
G02*
X40633000Y-85735000I0J-250000D01*
G01*
X40633000Y-86985000D01*
G75*
G02*
X40383000Y-87235000I-250000J0D01*
G01*
X39633000Y-87235000D01*
G75*
G02*
X39383000Y-86985000I0J250000D01*
G01*
G37*
G36*
G01*
X36583000Y-86985000D02*
X36583000Y-85735000D01*
G75*
G02*
X36833000Y-85485000I250000J0D01*
G01*
X37583000Y-85485000D01*
G75*
G02*
X37833000Y-85735000I0J-250000D01*
G01*
X37833000Y-86985000D01*
G75*
G02*
X37583000Y-87235000I-250000J0D01*
G01*
X36833000Y-87235000D01*
G75*
G02*
X36583000Y-86985000I0J250000D01*
G01*
G37*
G36*
G01*
X58687000Y-90287000D02*
X58687000Y-89037000D01*
G75*
G02*
X58937000Y-88787000I250000J0D01*
G01*
X59687000Y-88787000D01*
G75*
G02*
X59937000Y-89037000I0J-250000D01*
G01*
X59937000Y-90287000D01*
G75*
G02*
X59687000Y-90537000I-250000J0D01*
G01*
X58937000Y-90537000D01*
G75*
G02*
X58687000Y-90287000I0J250000D01*
G01*
G37*
G36*
G01*
X55887000Y-90287000D02*
X55887000Y-89037000D01*
G75*
G02*
X56137000Y-88787000I250000J0D01*
G01*
X56887000Y-88787000D01*
G75*
G02*
X57137000Y-89037000I0J-250000D01*
G01*
X57137000Y-90287000D01*
G75*
G02*
X56887000Y-90537000I-250000J0D01*
G01*
X56137000Y-90537000D01*
G75*
G02*
X55887000Y-90287000I0J250000D01*
G01*
G37*
G36*
G01*
X77991000Y-93843000D02*
X77991000Y-92593000D01*
G75*
G02*
X78241000Y-92343000I250000J0D01*
G01*
X78991000Y-92343000D01*
G75*
G02*
X79241000Y-92593000I0J-250000D01*
G01*
X79241000Y-93843000D01*
G75*
G02*
X78991000Y-94093000I-250000J0D01*
G01*
X78241000Y-94093000D01*
G75*
G02*
X77991000Y-93843000I0J250000D01*
G01*
G37*
G36*
G01*
X75191000Y-93843000D02*
X75191000Y-92593000D01*
G75*
G02*
X75441000Y-92343000I250000J0D01*
G01*
X76191000Y-92343000D01*
G75*
G02*
X76441000Y-92593000I0J-250000D01*
G01*
X76441000Y-93843000D01*
G75*
G02*
X76191000Y-94093000I-250000J0D01*
G01*
X75441000Y-94093000D01*
G75*
G02*
X75191000Y-93843000I0J250000D01*
G01*
G37*
G36*
G01*
X97295000Y-97399000D02*
X97295000Y-96149000D01*
G75*
G02*
X97545000Y-95899000I250000J0D01*
G01*
X98295000Y-95899000D01*
G75*
G02*
X98545000Y-96149000I0J-250000D01*
G01*
X98545000Y-97399000D01*
G75*
G02*
X98295000Y-97649000I-250000J0D01*
G01*
X97545000Y-97649000D01*
G75*
G02*
X97295000Y-97399000I0J250000D01*
G01*
G37*
G36*
G01*
X94495000Y-97399000D02*
X94495000Y-96149000D01*
G75*
G02*
X94745000Y-95899000I250000J0D01*
G01*
X95495000Y-95899000D01*
G75*
G02*
X95745000Y-96149000I0J-250000D01*
G01*
X95745000Y-97399000D01*
G75*
G02*
X95495000Y-97649000I-250000J0D01*
G01*
X94745000Y-97649000D01*
G75*
G02*
X94495000Y-97399000I0J250000D01*
G01*
G37*
G36*
G01*
X116599000Y-101209000D02*
X116599000Y-99959000D01*
G75*
G02*
X116849000Y-99709000I250000J0D01*
G01*
X117599000Y-99709000D01*
G75*
G02*
X117849000Y-99959000I0J-250000D01*
G01*
X117849000Y-101209000D01*
G75*
G02*
X117599000Y-101459000I-250000J0D01*
G01*
X116849000Y-101459000D01*
G75*
G02*
X116599000Y-101209000I0J250000D01*
G01*
G37*
G36*
G01*
X113799000Y-101209000D02*
X113799000Y-99959000D01*
G75*
G02*
X114049000Y-99709000I250000J0D01*
G01*
X114799000Y-99709000D01*
G75*
G02*
X115049000Y-99959000I0J-250000D01*
G01*
X115049000Y-101209000D01*
G75*
G02*
X114799000Y-101459000I-250000J0D01*
G01*
X114049000Y-101459000D01*
G75*
G02*
X113799000Y-101209000I0J250000D01*
G01*
G37*
G36*
G01*
X135903000Y-105527000D02*
X135903000Y-104277000D01*
G75*
G02*
X136153000Y-104027000I250000J0D01*
G01*
X136903000Y-104027000D01*
G75*
G02*
X137153000Y-104277000I0J-250000D01*
G01*
X137153000Y-105527000D01*
G75*
G02*
X136903000Y-105777000I-250000J0D01*
G01*
X136153000Y-105777000D01*
G75*
G02*
X135903000Y-105527000I0J250000D01*
G01*
G37*
G36*
G01*
X133103000Y-105527000D02*
X133103000Y-104277000D01*
G75*
G02*
X133353000Y-104027000I250000J0D01*
G01*
X134103000Y-104027000D01*
G75*
G02*
X134353000Y-104277000I0J-250000D01*
G01*
X134353000Y-105527000D01*
G75*
G02*
X134103000Y-105777000I-250000J0D01*
G01*
X133353000Y-105777000D01*
G75*
G02*
X133103000Y-105527000I0J250000D01*
G01*
G37*
G36*
G01*
X155207000Y-107559000D02*
X155207000Y-106309000D01*
G75*
G02*
X155457000Y-106059000I250000J0D01*
G01*
X156207000Y-106059000D01*
G75*
G02*
X156457000Y-106309000I0J-250000D01*
G01*
X156457000Y-107559000D01*
G75*
G02*
X156207000Y-107809000I-250000J0D01*
G01*
X155457000Y-107809000D01*
G75*
G02*
X155207000Y-107559000I0J250000D01*
G01*
G37*
G36*
G01*
X152407000Y-107559000D02*
X152407000Y-106309000D01*
G75*
G02*
X152657000Y-106059000I250000J0D01*
G01*
X153407000Y-106059000D01*
G75*
G02*
X153657000Y-106309000I0J-250000D01*
G01*
X153657000Y-107559000D01*
G75*
G02*
X153407000Y-107809000I-250000J0D01*
G01*
X152657000Y-107809000D01*
G75*
G02*
X152407000Y-107559000I0J250000D01*
G01*
G37*
G36*
G01*
X20079000Y-88001000D02*
X20079000Y-86751000D01*
G75*
G02*
X20329000Y-86501000I250000J0D01*
G01*
X21079000Y-86501000D01*
G75*
G02*
X21329000Y-86751000I0J-250000D01*
G01*
X21329000Y-88001000D01*
G75*
G02*
X21079000Y-88251000I-250000J0D01*
G01*
X20329000Y-88251000D01*
G75*
G02*
X20079000Y-88001000I0J250000D01*
G01*
G37*
G36*
G01*
X17279000Y-88001000D02*
X17279000Y-86751000D01*
G75*
G02*
X17529000Y-86501000I250000J0D01*
G01*
X18279000Y-86501000D01*
G75*
G02*
X18529000Y-86751000I0J-250000D01*
G01*
X18529000Y-88001000D01*
G75*
G02*
X18279000Y-88251000I-250000J0D01*
G01*
X17529000Y-88251000D01*
G75*
G02*
X17279000Y-88001000I0J250000D01*
G01*
G37*
G36*
G01*
X58687000Y-109591000D02*
X58687000Y-108341000D01*
G75*
G02*
X58937000Y-108091000I250000J0D01*
G01*
X59687000Y-108091000D01*
G75*
G02*
X59937000Y-108341000I0J-250000D01*
G01*
X59937000Y-109591000D01*
G75*
G02*
X59687000Y-109841000I-250000J0D01*
G01*
X58937000Y-109841000D01*
G75*
G02*
X58687000Y-109591000I0J250000D01*
G01*
G37*
G36*
G01*
X55887000Y-109591000D02*
X55887000Y-108341000D01*
G75*
G02*
X56137000Y-108091000I250000J0D01*
G01*
X56887000Y-108091000D01*
G75*
G02*
X57137000Y-108341000I0J-250000D01*
G01*
X57137000Y-109591000D01*
G75*
G02*
X56887000Y-109841000I-250000J0D01*
G01*
X56137000Y-109841000D01*
G75*
G02*
X55887000Y-109591000I0J250000D01*
G01*
G37*
G36*
G01*
X77991000Y-113147000D02*
X77991000Y-111897000D01*
G75*
G02*
X78241000Y-111647000I250000J0D01*
G01*
X78991000Y-111647000D01*
G75*
G02*
X79241000Y-111897000I0J-250000D01*
G01*
X79241000Y-113147000D01*
G75*
G02*
X78991000Y-113397000I-250000J0D01*
G01*
X78241000Y-113397000D01*
G75*
G02*
X77991000Y-113147000I0J250000D01*
G01*
G37*
G36*
G01*
X75191000Y-113147000D02*
X75191000Y-111897000D01*
G75*
G02*
X75441000Y-111647000I250000J0D01*
G01*
X76191000Y-111647000D01*
G75*
G02*
X76441000Y-111897000I0J-250000D01*
G01*
X76441000Y-113147000D01*
G75*
G02*
X76191000Y-113397000I-250000J0D01*
G01*
X75441000Y-113397000D01*
G75*
G02*
X75191000Y-113147000I0J250000D01*
G01*
G37*
G36*
G01*
X97295000Y-116957000D02*
X97295000Y-115707000D01*
G75*
G02*
X97545000Y-115457000I250000J0D01*
G01*
X98295000Y-115457000D01*
G75*
G02*
X98545000Y-115707000I0J-250000D01*
G01*
X98545000Y-116957000D01*
G75*
G02*
X98295000Y-117207000I-250000J0D01*
G01*
X97545000Y-117207000D01*
G75*
G02*
X97295000Y-116957000I0J250000D01*
G01*
G37*
G36*
G01*
X94495000Y-116957000D02*
X94495000Y-115707000D01*
G75*
G02*
X94745000Y-115457000I250000J0D01*
G01*
X95495000Y-115457000D01*
G75*
G02*
X95745000Y-115707000I0J-250000D01*
G01*
X95745000Y-116957000D01*
G75*
G02*
X95495000Y-117207000I-250000J0D01*
G01*
X94745000Y-117207000D01*
G75*
G02*
X94495000Y-116957000I0J250000D01*
G01*
G37*
G36*
G01*
X116599000Y-120259000D02*
X116599000Y-119009000D01*
G75*
G02*
X116849000Y-118759000I250000J0D01*
G01*
X117599000Y-118759000D01*
G75*
G02*
X117849000Y-119009000I0J-250000D01*
G01*
X117849000Y-120259000D01*
G75*
G02*
X117599000Y-120509000I-250000J0D01*
G01*
X116849000Y-120509000D01*
G75*
G02*
X116599000Y-120259000I0J250000D01*
G01*
G37*
G36*
G01*
X113799000Y-120259000D02*
X113799000Y-119009000D01*
G75*
G02*
X114049000Y-118759000I250000J0D01*
G01*
X114799000Y-118759000D01*
G75*
G02*
X115049000Y-119009000I0J-250000D01*
G01*
X115049000Y-120259000D01*
G75*
G02*
X114799000Y-120509000I-250000J0D01*
G01*
X114049000Y-120509000D01*
G75*
G02*
X113799000Y-120259000I0J250000D01*
G01*
G37*
G36*
G01*
X135903000Y-124831000D02*
X135903000Y-123581000D01*
G75*
G02*
X136153000Y-123331000I250000J0D01*
G01*
X136903000Y-123331000D01*
G75*
G02*
X137153000Y-123581000I0J-250000D01*
G01*
X137153000Y-124831000D01*
G75*
G02*
X136903000Y-125081000I-250000J0D01*
G01*
X136153000Y-125081000D01*
G75*
G02*
X135903000Y-124831000I0J250000D01*
G01*
G37*
G36*
G01*
X133103000Y-124831000D02*
X133103000Y-123581000D01*
G75*
G02*
X133353000Y-123331000I250000J0D01*
G01*
X134103000Y-123331000D01*
G75*
G02*
X134353000Y-123581000I0J-250000D01*
G01*
X134353000Y-124831000D01*
G75*
G02*
X134103000Y-125081000I-250000J0D01*
G01*
X133353000Y-125081000D01*
G75*
G02*
X133103000Y-124831000I0J250000D01*
G01*
G37*
G36*
G01*
X155207000Y-126863000D02*
X155207000Y-125613000D01*
G75*
G02*
X155457000Y-125363000I250000J0D01*
G01*
X156207000Y-125363000D01*
G75*
G02*
X156457000Y-125613000I0J-250000D01*
G01*
X156457000Y-126863000D01*
G75*
G02*
X156207000Y-127113000I-250000J0D01*
G01*
X155457000Y-127113000D01*
G75*
G02*
X155207000Y-126863000I0J250000D01*
G01*
G37*
G36*
G01*
X152407000Y-126863000D02*
X152407000Y-125613000D01*
G75*
G02*
X152657000Y-125363000I250000J0D01*
G01*
X153407000Y-125363000D01*
G75*
G02*
X153657000Y-125613000I0J-250000D01*
G01*
X153657000Y-126863000D01*
G75*
G02*
X153407000Y-127113000I-250000J0D01*
G01*
X152657000Y-127113000D01*
G75*
G02*
X152407000Y-126863000I0J250000D01*
G01*
G37*
G36*
G01*
X39383000Y-106035000D02*
X39383000Y-104785000D01*
G75*
G02*
X39633000Y-104535000I250000J0D01*
G01*
X40383000Y-104535000D01*
G75*
G02*
X40633000Y-104785000I0J-250000D01*
G01*
X40633000Y-106035000D01*
G75*
G02*
X40383000Y-106285000I-250000J0D01*
G01*
X39633000Y-106285000D01*
G75*
G02*
X39383000Y-106035000I0J250000D01*
G01*
G37*
G36*
G01*
X36583000Y-106035000D02*
X36583000Y-104785000D01*
G75*
G02*
X36833000Y-104535000I250000J0D01*
G01*
X37583000Y-104535000D01*
G75*
G02*
X37833000Y-104785000I0J-250000D01*
G01*
X37833000Y-106035000D01*
G75*
G02*
X37583000Y-106285000I-250000J0D01*
G01*
X36833000Y-106285000D01*
G75*
G02*
X36583000Y-106035000I0J250000D01*
G01*
G37*
G36*
G01*
X58687000Y-129149000D02*
X58687000Y-127899000D01*
G75*
G02*
X58937000Y-127649000I250000J0D01*
G01*
X59687000Y-127649000D01*
G75*
G02*
X59937000Y-127899000I0J-250000D01*
G01*
X59937000Y-129149000D01*
G75*
G02*
X59687000Y-129399000I-250000J0D01*
G01*
X58937000Y-129399000D01*
G75*
G02*
X58687000Y-129149000I0J250000D01*
G01*
G37*
G36*
G01*
X55887000Y-129149000D02*
X55887000Y-127899000D01*
G75*
G02*
X56137000Y-127649000I250000J0D01*
G01*
X56887000Y-127649000D01*
G75*
G02*
X57137000Y-127899000I0J-250000D01*
G01*
X57137000Y-129149000D01*
G75*
G02*
X56887000Y-129399000I-250000J0D01*
G01*
X56137000Y-129399000D01*
G75*
G02*
X55887000Y-129149000I0J250000D01*
G01*
G37*
G36*
G01*
X77991000Y-132451000D02*
X77991000Y-131201000D01*
G75*
G02*
X78241000Y-130951000I250000J0D01*
G01*
X78991000Y-130951000D01*
G75*
G02*
X79241000Y-131201000I0J-250000D01*
G01*
X79241000Y-132451000D01*
G75*
G02*
X78991000Y-132701000I-250000J0D01*
G01*
X78241000Y-132701000D01*
G75*
G02*
X77991000Y-132451000I0J250000D01*
G01*
G37*
G36*
G01*
X75191000Y-132451000D02*
X75191000Y-131201000D01*
G75*
G02*
X75441000Y-130951000I250000J0D01*
G01*
X76191000Y-130951000D01*
G75*
G02*
X76441000Y-131201000I0J-250000D01*
G01*
X76441000Y-132451000D01*
G75*
G02*
X76191000Y-132701000I-250000J0D01*
G01*
X75441000Y-132701000D01*
G75*
G02*
X75191000Y-132451000I0J250000D01*
G01*
G37*
G36*
G01*
X97295000Y-136007000D02*
X97295000Y-134757000D01*
G75*
G02*
X97545000Y-134507000I250000J0D01*
G01*
X98295000Y-134507000D01*
G75*
G02*
X98545000Y-134757000I0J-250000D01*
G01*
X98545000Y-136007000D01*
G75*
G02*
X98295000Y-136257000I-250000J0D01*
G01*
X97545000Y-136257000D01*
G75*
G02*
X97295000Y-136007000I0J250000D01*
G01*
G37*
G36*
G01*
X94495000Y-136007000D02*
X94495000Y-134757000D01*
G75*
G02*
X94745000Y-134507000I250000J0D01*
G01*
X95495000Y-134507000D01*
G75*
G02*
X95745000Y-134757000I0J-250000D01*
G01*
X95745000Y-136007000D01*
G75*
G02*
X95495000Y-136257000I-250000J0D01*
G01*
X94745000Y-136257000D01*
G75*
G02*
X94495000Y-136007000I0J250000D01*
G01*
G37*
G36*
G01*
X116599000Y-139563000D02*
X116599000Y-138313000D01*
G75*
G02*
X116849000Y-138063000I250000J0D01*
G01*
X117599000Y-138063000D01*
G75*
G02*
X117849000Y-138313000I0J-250000D01*
G01*
X117849000Y-139563000D01*
G75*
G02*
X117599000Y-139813000I-250000J0D01*
G01*
X116849000Y-139813000D01*
G75*
G02*
X116599000Y-139563000I0J250000D01*
G01*
G37*
G36*
G01*
X113799000Y-139563000D02*
X113799000Y-138313000D01*
G75*
G02*
X114049000Y-138063000I250000J0D01*
G01*
X114799000Y-138063000D01*
G75*
G02*
X115049000Y-138313000I0J-250000D01*
G01*
X115049000Y-139563000D01*
G75*
G02*
X114799000Y-139813000I-250000J0D01*
G01*
X114049000Y-139813000D01*
G75*
G02*
X113799000Y-139563000I0J250000D01*
G01*
G37*
G36*
G01*
X135903000Y-144135000D02*
X135903000Y-142885000D01*
G75*
G02*
X136153000Y-142635000I250000J0D01*
G01*
X136903000Y-142635000D01*
G75*
G02*
X137153000Y-142885000I0J-250000D01*
G01*
X137153000Y-144135000D01*
G75*
G02*
X136903000Y-144385000I-250000J0D01*
G01*
X136153000Y-144385000D01*
G75*
G02*
X135903000Y-144135000I0J250000D01*
G01*
G37*
G36*
G01*
X133103000Y-144135000D02*
X133103000Y-142885000D01*
G75*
G02*
X133353000Y-142635000I250000J0D01*
G01*
X134103000Y-142635000D01*
G75*
G02*
X134353000Y-142885000I0J-250000D01*
G01*
X134353000Y-144135000D01*
G75*
G02*
X134103000Y-144385000I-250000J0D01*
G01*
X133353000Y-144385000D01*
G75*
G02*
X133103000Y-144135000I0J250000D01*
G01*
G37*
G36*
G01*
X155207000Y-145913000D02*
X155207000Y-144663000D01*
G75*
G02*
X155457000Y-144413000I250000J0D01*
G01*
X156207000Y-144413000D01*
G75*
G02*
X156457000Y-144663000I0J-250000D01*
G01*
X156457000Y-145913000D01*
G75*
G02*
X156207000Y-146163000I-250000J0D01*
G01*
X155457000Y-146163000D01*
G75*
G02*
X155207000Y-145913000I0J250000D01*
G01*
G37*
G36*
G01*
X152407000Y-145913000D02*
X152407000Y-144663000D01*
G75*
G02*
X152657000Y-144413000I250000J0D01*
G01*
X153407000Y-144413000D01*
G75*
G02*
X153657000Y-144663000I0J-250000D01*
G01*
X153657000Y-145913000D01*
G75*
G02*
X153407000Y-146163000I-250000J0D01*
G01*
X152657000Y-146163000D01*
G75*
G02*
X152407000Y-145913000I0J250000D01*
G01*
G37*
G36*
G01*
X20079000Y-109845000D02*
X20079000Y-108595000D01*
G75*
G02*
X20329000Y-108345000I250000J0D01*
G01*
X21079000Y-108345000D01*
G75*
G02*
X21329000Y-108595000I0J-250000D01*
G01*
X21329000Y-109845000D01*
G75*
G02*
X21079000Y-110095000I-250000J0D01*
G01*
X20329000Y-110095000D01*
G75*
G02*
X20079000Y-109845000I0J250000D01*
G01*
G37*
G36*
G01*
X17279000Y-109845000D02*
X17279000Y-108595000D01*
G75*
G02*
X17529000Y-108345000I250000J0D01*
G01*
X18279000Y-108345000D01*
G75*
G02*
X18529000Y-108595000I0J-250000D01*
G01*
X18529000Y-109845000D01*
G75*
G02*
X18279000Y-110095000I-250000J0D01*
G01*
X17529000Y-110095000D01*
G75*
G02*
X17279000Y-109845000I0J250000D01*
G01*
G37*
G36*
G01*
X58687000Y-148199000D02*
X58687000Y-146949000D01*
G75*
G02*
X58937000Y-146699000I250000J0D01*
G01*
X59687000Y-146699000D01*
G75*
G02*
X59937000Y-146949000I0J-250000D01*
G01*
X59937000Y-148199000D01*
G75*
G02*
X59687000Y-148449000I-250000J0D01*
G01*
X58937000Y-148449000D01*
G75*
G02*
X58687000Y-148199000I0J250000D01*
G01*
G37*
G36*
G01*
X55887000Y-148199000D02*
X55887000Y-146949000D01*
G75*
G02*
X56137000Y-146699000I250000J0D01*
G01*
X56887000Y-146699000D01*
G75*
G02*
X57137000Y-146949000I0J-250000D01*
G01*
X57137000Y-148199000D01*
G75*
G02*
X56887000Y-148449000I-250000J0D01*
G01*
X56137000Y-148449000D01*
G75*
G02*
X55887000Y-148199000I0J250000D01*
G01*
G37*
G36*
G01*
X77991000Y-151501000D02*
X77991000Y-150251000D01*
G75*
G02*
X78241000Y-150001000I250000J0D01*
G01*
X78991000Y-150001000D01*
G75*
G02*
X79241000Y-150251000I0J-250000D01*
G01*
X79241000Y-151501000D01*
G75*
G02*
X78991000Y-151751000I-250000J0D01*
G01*
X78241000Y-151751000D01*
G75*
G02*
X77991000Y-151501000I0J250000D01*
G01*
G37*
G36*
G01*
X75191000Y-151501000D02*
X75191000Y-150251000D01*
G75*
G02*
X75441000Y-150001000I250000J0D01*
G01*
X76191000Y-150001000D01*
G75*
G02*
X76441000Y-150251000I0J-250000D01*
G01*
X76441000Y-151501000D01*
G75*
G02*
X76191000Y-151751000I-250000J0D01*
G01*
X75441000Y-151751000D01*
G75*
G02*
X75191000Y-151501000I0J250000D01*
G01*
G37*
G36*
G01*
X97295000Y-155565000D02*
X97295000Y-154315000D01*
G75*
G02*
X97545000Y-154065000I250000J0D01*
G01*
X98295000Y-154065000D01*
G75*
G02*
X98545000Y-154315000I0J-250000D01*
G01*
X98545000Y-155565000D01*
G75*
G02*
X98295000Y-155815000I-250000J0D01*
G01*
X97545000Y-155815000D01*
G75*
G02*
X97295000Y-155565000I0J250000D01*
G01*
G37*
G36*
G01*
X94495000Y-155565000D02*
X94495000Y-154315000D01*
G75*
G02*
X94745000Y-154065000I250000J0D01*
G01*
X95495000Y-154065000D01*
G75*
G02*
X95745000Y-154315000I0J-250000D01*
G01*
X95745000Y-155565000D01*
G75*
G02*
X95495000Y-155815000I-250000J0D01*
G01*
X94745000Y-155815000D01*
G75*
G02*
X94495000Y-155565000I0J250000D01*
G01*
G37*
G36*
G01*
X116599000Y-158867000D02*
X116599000Y-157617000D01*
G75*
G02*
X116849000Y-157367000I250000J0D01*
G01*
X117599000Y-157367000D01*
G75*
G02*
X117849000Y-157617000I0J-250000D01*
G01*
X117849000Y-158867000D01*
G75*
G02*
X117599000Y-159117000I-250000J0D01*
G01*
X116849000Y-159117000D01*
G75*
G02*
X116599000Y-158867000I0J250000D01*
G01*
G37*
G36*
G01*
X113799000Y-158867000D02*
X113799000Y-157617000D01*
G75*
G02*
X114049000Y-157367000I250000J0D01*
G01*
X114799000Y-157367000D01*
G75*
G02*
X115049000Y-157617000I0J-250000D01*
G01*
X115049000Y-158867000D01*
G75*
G02*
X114799000Y-159117000I-250000J0D01*
G01*
X114049000Y-159117000D01*
G75*
G02*
X113799000Y-158867000I0J250000D01*
G01*
G37*
G36*
G01*
X135903000Y-163439000D02*
X135903000Y-162189000D01*
G75*
G02*
X136153000Y-161939000I250000J0D01*
G01*
X136903000Y-161939000D01*
G75*
G02*
X137153000Y-162189000I0J-250000D01*
G01*
X137153000Y-163439000D01*
G75*
G02*
X136903000Y-163689000I-250000J0D01*
G01*
X136153000Y-163689000D01*
G75*
G02*
X135903000Y-163439000I0J250000D01*
G01*
G37*
G36*
G01*
X133103000Y-163439000D02*
X133103000Y-162189000D01*
G75*
G02*
X133353000Y-161939000I250000J0D01*
G01*
X134103000Y-161939000D01*
G75*
G02*
X134353000Y-162189000I0J-250000D01*
G01*
X134353000Y-163439000D01*
G75*
G02*
X134103000Y-163689000I-250000J0D01*
G01*
X133353000Y-163689000D01*
G75*
G02*
X133103000Y-163439000I0J250000D01*
G01*
G37*
G36*
G01*
X155207000Y-165217000D02*
X155207000Y-163967000D01*
G75*
G02*
X155457000Y-163717000I250000J0D01*
G01*
X156207000Y-163717000D01*
G75*
G02*
X156457000Y-163967000I0J-250000D01*
G01*
X156457000Y-165217000D01*
G75*
G02*
X156207000Y-165467000I-250000J0D01*
G01*
X155457000Y-165467000D01*
G75*
G02*
X155207000Y-165217000I0J250000D01*
G01*
G37*
G36*
G01*
X152407000Y-165217000D02*
X152407000Y-163967000D01*
G75*
G02*
X152657000Y-163717000I250000J0D01*
G01*
X153407000Y-163717000D01*
G75*
G02*
X153657000Y-163967000I0J-250000D01*
G01*
X153657000Y-165217000D01*
G75*
G02*
X153407000Y-165467000I-250000J0D01*
G01*
X152657000Y-165467000D01*
G75*
G02*
X152407000Y-165217000I0J250000D01*
G01*
G37*
G36*
G01*
X20079000Y-131181000D02*
X20079000Y-129931000D01*
G75*
G02*
X20329000Y-129681000I250000J0D01*
G01*
X21079000Y-129681000D01*
G75*
G02*
X21329000Y-129931000I0J-250000D01*
G01*
X21329000Y-131181000D01*
G75*
G02*
X21079000Y-131431000I-250000J0D01*
G01*
X20329000Y-131431000D01*
G75*
G02*
X20079000Y-131181000I0J250000D01*
G01*
G37*
G36*
G01*
X17279000Y-131181000D02*
X17279000Y-129931000D01*
G75*
G02*
X17529000Y-129681000I250000J0D01*
G01*
X18279000Y-129681000D01*
G75*
G02*
X18529000Y-129931000I0J-250000D01*
G01*
X18529000Y-131181000D01*
G75*
G02*
X18279000Y-131431000I-250000J0D01*
G01*
X17529000Y-131431000D01*
G75*
G02*
X17279000Y-131181000I0J250000D01*
G01*
G37*
G36*
G01*
X39383000Y-125593000D02*
X39383000Y-124343000D01*
G75*
G02*
X39633000Y-124093000I250000J0D01*
G01*
X40383000Y-124093000D01*
G75*
G02*
X40633000Y-124343000I0J-250000D01*
G01*
X40633000Y-125593000D01*
G75*
G02*
X40383000Y-125843000I-250000J0D01*
G01*
X39633000Y-125843000D01*
G75*
G02*
X39383000Y-125593000I0J250000D01*
G01*
G37*
G36*
G01*
X36583000Y-125593000D02*
X36583000Y-124343000D01*
G75*
G02*
X36833000Y-124093000I250000J0D01*
G01*
X37583000Y-124093000D01*
G75*
G02*
X37833000Y-124343000I0J-250000D01*
G01*
X37833000Y-125593000D01*
G75*
G02*
X37583000Y-125843000I-250000J0D01*
G01*
X36833000Y-125843000D01*
G75*
G02*
X36583000Y-125593000I0J250000D01*
G01*
G37*
G36*
G01*
X39383000Y-148199000D02*
X39383000Y-146949000D01*
G75*
G02*
X39633000Y-146699000I250000J0D01*
G01*
X40383000Y-146699000D01*
G75*
G02*
X40633000Y-146949000I0J-250000D01*
G01*
X40633000Y-148199000D01*
G75*
G02*
X40383000Y-148449000I-250000J0D01*
G01*
X39633000Y-148449000D01*
G75*
G02*
X39383000Y-148199000I0J250000D01*
G01*
G37*
G36*
G01*
X36583000Y-148199000D02*
X36583000Y-146949000D01*
G75*
G02*
X36833000Y-146699000I250000J0D01*
G01*
X37583000Y-146699000D01*
G75*
G02*
X37833000Y-146949000I0J-250000D01*
G01*
X37833000Y-148199000D01*
G75*
G02*
X37583000Y-148449000I-250000J0D01*
G01*
X36833000Y-148449000D01*
G75*
G02*
X36583000Y-148199000I0J250000D01*
G01*
G37*
G36*
G01*
X86249000Y-159375000D02*
X86249000Y-158125000D01*
G75*
G02*
X86499000Y-157875000I250000J0D01*
G01*
X87249000Y-157875000D01*
G75*
G02*
X87499000Y-158125000I0J-250000D01*
G01*
X87499000Y-159375000D01*
G75*
G02*
X87249000Y-159625000I-250000J0D01*
G01*
X86499000Y-159625000D01*
G75*
G02*
X86249000Y-159375000I0J250000D01*
G01*
G37*
G36*
G01*
X83449000Y-159375000D02*
X83449000Y-158125000D01*
G75*
G02*
X83699000Y-157875000I250000J0D01*
G01*
X84449000Y-157875000D01*
G75*
G02*
X84699000Y-158125000I0J-250000D01*
G01*
X84699000Y-159375000D01*
G75*
G02*
X84449000Y-159625000I-250000J0D01*
G01*
X83699000Y-159625000D01*
G75*
G02*
X83449000Y-159375000I0J250000D01*
G01*
G37*
G36*
G01*
X251727000Y-167335000D02*
X251727000Y-166085000D01*
G75*
G02*
X251977000Y-165835000I250000J0D01*
G01*
X252727000Y-165835000D01*
G75*
G02*
X252977000Y-166085000I0J-250000D01*
G01*
X252977000Y-167335000D01*
G75*
G02*
X252727000Y-167585000I-250000J0D01*
G01*
X251977000Y-167585000D01*
G75*
G02*
X251727000Y-167335000I0J250000D01*
G01*
G37*
G36*
G01*
X248927000Y-167335000D02*
X248927000Y-166085000D01*
G75*
G02*
X249177000Y-165835000I250000J0D01*
G01*
X249927000Y-165835000D01*
G75*
G02*
X250177000Y-166085000I0J-250000D01*
G01*
X250177000Y-167335000D01*
G75*
G02*
X249927000Y-167585000I-250000J0D01*
G01*
X249177000Y-167585000D01*
G75*
G02*
X248927000Y-167335000I0J250000D01*
G01*
G37*
G36*
G01*
X290365000Y-167205000D02*
X290365000Y-165955000D01*
G75*
G02*
X290615000Y-165705000I250000J0D01*
G01*
X291365000Y-165705000D01*
G75*
G02*
X291615000Y-165955000I0J-250000D01*
G01*
X291615000Y-167205000D01*
G75*
G02*
X291365000Y-167455000I-250000J0D01*
G01*
X290615000Y-167455000D01*
G75*
G02*
X290365000Y-167205000I0J250000D01*
G01*
G37*
G36*
G01*
X287565000Y-167205000D02*
X287565000Y-165955000D01*
G75*
G02*
X287815000Y-165705000I250000J0D01*
G01*
X288565000Y-165705000D01*
G75*
G02*
X288815000Y-165955000I0J-250000D01*
G01*
X288815000Y-167205000D01*
G75*
G02*
X288565000Y-167455000I-250000J0D01*
G01*
X287815000Y-167455000D01*
G75*
G02*
X287565000Y-167205000I0J250000D01*
G01*
G37*
G36*
G01*
X169685000Y-86477000D02*
X169685000Y-85227000D01*
G75*
G02*
X169935000Y-84977000I250000J0D01*
G01*
X170685000Y-84977000D01*
G75*
G02*
X170935000Y-85227000I0J-250000D01*
G01*
X170935000Y-86477000D01*
G75*
G02*
X170685000Y-86727000I-250000J0D01*
G01*
X169935000Y-86727000D01*
G75*
G02*
X169685000Y-86477000I0J250000D01*
G01*
G37*
G36*
G01*
X166885000Y-86477000D02*
X166885000Y-85227000D01*
G75*
G02*
X167135000Y-84977000I250000J0D01*
G01*
X167885000Y-84977000D01*
G75*
G02*
X168135000Y-85227000I0J-250000D01*
G01*
X168135000Y-86477000D01*
G75*
G02*
X167885000Y-86727000I-250000J0D01*
G01*
X167135000Y-86727000D01*
G75*
G02*
X166885000Y-86477000I0J250000D01*
G01*
G37*
G36*
G01*
X188989000Y-81905000D02*
X188989000Y-80655000D01*
G75*
G02*
X189239000Y-80405000I250000J0D01*
G01*
X189989000Y-80405000D01*
G75*
G02*
X190239000Y-80655000I0J-250000D01*
G01*
X190239000Y-81905000D01*
G75*
G02*
X189989000Y-82155000I-250000J0D01*
G01*
X189239000Y-82155000D01*
G75*
G02*
X188989000Y-81905000I0J250000D01*
G01*
G37*
G36*
G01*
X186189000Y-81905000D02*
X186189000Y-80655000D01*
G75*
G02*
X186439000Y-80405000I250000J0D01*
G01*
X187189000Y-80405000D01*
G75*
G02*
X187439000Y-80655000I0J-250000D01*
G01*
X187439000Y-81905000D01*
G75*
G02*
X187189000Y-82155000I-250000J0D01*
G01*
X186439000Y-82155000D01*
G75*
G02*
X186189000Y-81905000I0J250000D01*
G01*
G37*
G36*
G01*
X208293000Y-78095000D02*
X208293000Y-76845000D01*
G75*
G02*
X208543000Y-76595000I250000J0D01*
G01*
X209293000Y-76595000D01*
G75*
G02*
X209543000Y-76845000I0J-250000D01*
G01*
X209543000Y-78095000D01*
G75*
G02*
X209293000Y-78345000I-250000J0D01*
G01*
X208543000Y-78345000D01*
G75*
G02*
X208293000Y-78095000I0J250000D01*
G01*
G37*
G36*
G01*
X205493000Y-78095000D02*
X205493000Y-76845000D01*
G75*
G02*
X205743000Y-76595000I250000J0D01*
G01*
X206493000Y-76595000D01*
G75*
G02*
X206743000Y-76845000I0J-250000D01*
G01*
X206743000Y-78095000D01*
G75*
G02*
X206493000Y-78345000I-250000J0D01*
G01*
X205743000Y-78345000D01*
G75*
G02*
X205493000Y-78095000I0J250000D01*
G01*
G37*
G36*
G01*
X227597000Y-74793000D02*
X227597000Y-73543000D01*
G75*
G02*
X227847000Y-73293000I250000J0D01*
G01*
X228597000Y-73293000D01*
G75*
G02*
X228847000Y-73543000I0J-250000D01*
G01*
X228847000Y-74793000D01*
G75*
G02*
X228597000Y-75043000I-250000J0D01*
G01*
X227847000Y-75043000D01*
G75*
G02*
X227597000Y-74793000I0J250000D01*
G01*
G37*
G36*
G01*
X224797000Y-74793000D02*
X224797000Y-73543000D01*
G75*
G02*
X225047000Y-73293000I250000J0D01*
G01*
X225797000Y-73293000D01*
G75*
G02*
X226047000Y-73543000I0J-250000D01*
G01*
X226047000Y-74793000D01*
G75*
G02*
X225797000Y-75043000I-250000J0D01*
G01*
X225047000Y-75043000D01*
G75*
G02*
X224797000Y-74793000I0J250000D01*
G01*
G37*
G36*
G01*
X246901000Y-70983000D02*
X246901000Y-69733000D01*
G75*
G02*
X247151000Y-69483000I250000J0D01*
G01*
X247901000Y-69483000D01*
G75*
G02*
X248151000Y-69733000I0J-250000D01*
G01*
X248151000Y-70983000D01*
G75*
G02*
X247901000Y-71233000I-250000J0D01*
G01*
X247151000Y-71233000D01*
G75*
G02*
X246901000Y-70983000I0J250000D01*
G01*
G37*
G36*
G01*
X244101000Y-70983000D02*
X244101000Y-69733000D01*
G75*
G02*
X244351000Y-69483000I250000J0D01*
G01*
X245101000Y-69483000D01*
G75*
G02*
X245351000Y-69733000I0J-250000D01*
G01*
X245351000Y-70983000D01*
G75*
G02*
X245101000Y-71233000I-250000J0D01*
G01*
X244351000Y-71233000D01*
G75*
G02*
X244101000Y-70983000I0J250000D01*
G01*
G37*
G36*
G01*
X266205000Y-67427000D02*
X266205000Y-66177000D01*
G75*
G02*
X266455000Y-65927000I250000J0D01*
G01*
X267205000Y-65927000D01*
G75*
G02*
X267455000Y-66177000I0J-250000D01*
G01*
X267455000Y-67427000D01*
G75*
G02*
X267205000Y-67677000I-250000J0D01*
G01*
X266455000Y-67677000D01*
G75*
G02*
X266205000Y-67427000I0J250000D01*
G01*
G37*
G36*
G01*
X263405000Y-67427000D02*
X263405000Y-66177000D01*
G75*
G02*
X263655000Y-65927000I250000J0D01*
G01*
X264405000Y-65927000D01*
G75*
G02*
X264655000Y-66177000I0J-250000D01*
G01*
X264655000Y-67427000D01*
G75*
G02*
X264405000Y-67677000I-250000J0D01*
G01*
X263655000Y-67677000D01*
G75*
G02*
X263405000Y-67427000I0J250000D01*
G01*
G37*
G36*
G01*
X285509000Y-66411000D02*
X285509000Y-65161000D01*
G75*
G02*
X285759000Y-64911000I250000J0D01*
G01*
X286509000Y-64911000D01*
G75*
G02*
X286759000Y-65161000I0J-250000D01*
G01*
X286759000Y-66411000D01*
G75*
G02*
X286509000Y-66661000I-250000J0D01*
G01*
X285759000Y-66661000D01*
G75*
G02*
X285509000Y-66411000I0J250000D01*
G01*
G37*
G36*
G01*
X282709000Y-66411000D02*
X282709000Y-65161000D01*
G75*
G02*
X282959000Y-64911000I250000J0D01*
G01*
X283709000Y-64911000D01*
G75*
G02*
X283959000Y-65161000I0J-250000D01*
G01*
X283959000Y-66411000D01*
G75*
G02*
X283709000Y-66661000I-250000J0D01*
G01*
X282959000Y-66661000D01*
G75*
G02*
X282709000Y-66411000I0J250000D01*
G01*
G37*
G36*
G01*
X174511000Y-105527000D02*
X174511000Y-104277000D01*
G75*
G02*
X174761000Y-104027000I250000J0D01*
G01*
X175511000Y-104027000D01*
G75*
G02*
X175761000Y-104277000I0J-250000D01*
G01*
X175761000Y-105527000D01*
G75*
G02*
X175511000Y-105777000I-250000J0D01*
G01*
X174761000Y-105777000D01*
G75*
G02*
X174511000Y-105527000I0J250000D01*
G01*
G37*
G36*
G01*
X171711000Y-105527000D02*
X171711000Y-104277000D01*
G75*
G02*
X171961000Y-104027000I250000J0D01*
G01*
X172711000Y-104027000D01*
G75*
G02*
X172961000Y-104277000I0J-250000D01*
G01*
X172961000Y-105527000D01*
G75*
G02*
X172711000Y-105777000I-250000J0D01*
G01*
X171961000Y-105777000D01*
G75*
G02*
X171711000Y-105527000I0J250000D01*
G01*
G37*
G36*
G01*
X193815000Y-101209000D02*
X193815000Y-99959000D01*
G75*
G02*
X194065000Y-99709000I250000J0D01*
G01*
X194815000Y-99709000D01*
G75*
G02*
X195065000Y-99959000I0J-250000D01*
G01*
X195065000Y-101209000D01*
G75*
G02*
X194815000Y-101459000I-250000J0D01*
G01*
X194065000Y-101459000D01*
G75*
G02*
X193815000Y-101209000I0J250000D01*
G01*
G37*
G36*
G01*
X191015000Y-101209000D02*
X191015000Y-99959000D01*
G75*
G02*
X191265000Y-99709000I250000J0D01*
G01*
X192015000Y-99709000D01*
G75*
G02*
X192265000Y-99959000I0J-250000D01*
G01*
X192265000Y-101209000D01*
G75*
G02*
X192015000Y-101459000I-250000J0D01*
G01*
X191265000Y-101459000D01*
G75*
G02*
X191015000Y-101209000I0J250000D01*
G01*
G37*
G36*
G01*
X213119000Y-97399000D02*
X213119000Y-96149000D01*
G75*
G02*
X213369000Y-95899000I250000J0D01*
G01*
X214119000Y-95899000D01*
G75*
G02*
X214369000Y-96149000I0J-250000D01*
G01*
X214369000Y-97399000D01*
G75*
G02*
X214119000Y-97649000I-250000J0D01*
G01*
X213369000Y-97649000D01*
G75*
G02*
X213119000Y-97399000I0J250000D01*
G01*
G37*
G36*
G01*
X210319000Y-97399000D02*
X210319000Y-96149000D01*
G75*
G02*
X210569000Y-95899000I250000J0D01*
G01*
X211319000Y-95899000D01*
G75*
G02*
X211569000Y-96149000I0J-250000D01*
G01*
X211569000Y-97399000D01*
G75*
G02*
X211319000Y-97649000I-250000J0D01*
G01*
X210569000Y-97649000D01*
G75*
G02*
X210319000Y-97399000I0J250000D01*
G01*
G37*
G36*
G01*
X232423000Y-93843000D02*
X232423000Y-92593000D01*
G75*
G02*
X232673000Y-92343000I250000J0D01*
G01*
X233423000Y-92343000D01*
G75*
G02*
X233673000Y-92593000I0J-250000D01*
G01*
X233673000Y-93843000D01*
G75*
G02*
X233423000Y-94093000I-250000J0D01*
G01*
X232673000Y-94093000D01*
G75*
G02*
X232423000Y-93843000I0J250000D01*
G01*
G37*
G36*
G01*
X229623000Y-93843000D02*
X229623000Y-92593000D01*
G75*
G02*
X229873000Y-92343000I250000J0D01*
G01*
X230623000Y-92343000D01*
G75*
G02*
X230873000Y-92593000I0J-250000D01*
G01*
X230873000Y-93843000D01*
G75*
G02*
X230623000Y-94093000I-250000J0D01*
G01*
X229873000Y-94093000D01*
G75*
G02*
X229623000Y-93843000I0J250000D01*
G01*
G37*
G36*
G01*
X251727000Y-90541000D02*
X251727000Y-89291000D01*
G75*
G02*
X251977000Y-89041000I250000J0D01*
G01*
X252727000Y-89041000D01*
G75*
G02*
X252977000Y-89291000I0J-250000D01*
G01*
X252977000Y-90541000D01*
G75*
G02*
X252727000Y-90791000I-250000J0D01*
G01*
X251977000Y-90791000D01*
G75*
G02*
X251727000Y-90541000I0J250000D01*
G01*
G37*
G36*
G01*
X248927000Y-90541000D02*
X248927000Y-89291000D01*
G75*
G02*
X249177000Y-89041000I250000J0D01*
G01*
X249927000Y-89041000D01*
G75*
G02*
X250177000Y-89291000I0J-250000D01*
G01*
X250177000Y-90541000D01*
G75*
G02*
X249927000Y-90791000I-250000J0D01*
G01*
X249177000Y-90791000D01*
G75*
G02*
X248927000Y-90541000I0J250000D01*
G01*
G37*
G36*
G01*
X271031000Y-86731000D02*
X271031000Y-85481000D01*
G75*
G02*
X271281000Y-85231000I250000J0D01*
G01*
X272031000Y-85231000D01*
G75*
G02*
X272281000Y-85481000I0J-250000D01*
G01*
X272281000Y-86731000D01*
G75*
G02*
X272031000Y-86981000I-250000J0D01*
G01*
X271281000Y-86981000D01*
G75*
G02*
X271031000Y-86731000I0J250000D01*
G01*
G37*
G36*
G01*
X268231000Y-86731000D02*
X268231000Y-85481000D01*
G75*
G02*
X268481000Y-85231000I250000J0D01*
G01*
X269231000Y-85231000D01*
G75*
G02*
X269481000Y-85481000I0J-250000D01*
G01*
X269481000Y-86731000D01*
G75*
G02*
X269231000Y-86981000I-250000J0D01*
G01*
X268481000Y-86981000D01*
G75*
G02*
X268231000Y-86731000I0J250000D01*
G01*
G37*
G36*
G01*
X290335000Y-85715000D02*
X290335000Y-84465000D01*
G75*
G02*
X290585000Y-84215000I250000J0D01*
G01*
X291335000Y-84215000D01*
G75*
G02*
X291585000Y-84465000I0J-250000D01*
G01*
X291585000Y-85715000D01*
G75*
G02*
X291335000Y-85965000I-250000J0D01*
G01*
X290585000Y-85965000D01*
G75*
G02*
X290335000Y-85715000I0J250000D01*
G01*
G37*
G36*
G01*
X287535000Y-85715000D02*
X287535000Y-84465000D01*
G75*
G02*
X287785000Y-84215000I250000J0D01*
G01*
X288535000Y-84215000D01*
G75*
G02*
X288785000Y-84465000I0J-250000D01*
G01*
X288785000Y-85715000D01*
G75*
G02*
X288535000Y-85965000I-250000J0D01*
G01*
X287785000Y-85965000D01*
G75*
G02*
X287535000Y-85715000I0J250000D01*
G01*
G37*
G36*
G01*
X174511000Y-124577000D02*
X174511000Y-123327000D01*
G75*
G02*
X174761000Y-123077000I250000J0D01*
G01*
X175511000Y-123077000D01*
G75*
G02*
X175761000Y-123327000I0J-250000D01*
G01*
X175761000Y-124577000D01*
G75*
G02*
X175511000Y-124827000I-250000J0D01*
G01*
X174761000Y-124827000D01*
G75*
G02*
X174511000Y-124577000I0J250000D01*
G01*
G37*
G36*
G01*
X171711000Y-124577000D02*
X171711000Y-123327000D01*
G75*
G02*
X171961000Y-123077000I250000J0D01*
G01*
X172711000Y-123077000D01*
G75*
G02*
X172961000Y-123327000I0J-250000D01*
G01*
X172961000Y-124577000D01*
G75*
G02*
X172711000Y-124827000I-250000J0D01*
G01*
X171961000Y-124827000D01*
G75*
G02*
X171711000Y-124577000I0J250000D01*
G01*
G37*
G36*
G01*
X193815000Y-120259000D02*
X193815000Y-119009000D01*
G75*
G02*
X194065000Y-118759000I250000J0D01*
G01*
X194815000Y-118759000D01*
G75*
G02*
X195065000Y-119009000I0J-250000D01*
G01*
X195065000Y-120259000D01*
G75*
G02*
X194815000Y-120509000I-250000J0D01*
G01*
X194065000Y-120509000D01*
G75*
G02*
X193815000Y-120259000I0J250000D01*
G01*
G37*
G36*
G01*
X191015000Y-120259000D02*
X191015000Y-119009000D01*
G75*
G02*
X191265000Y-118759000I250000J0D01*
G01*
X192015000Y-118759000D01*
G75*
G02*
X192265000Y-119009000I0J-250000D01*
G01*
X192265000Y-120259000D01*
G75*
G02*
X192015000Y-120509000I-250000J0D01*
G01*
X191265000Y-120509000D01*
G75*
G02*
X191015000Y-120259000I0J250000D01*
G01*
G37*
G36*
G01*
X213119000Y-116703000D02*
X213119000Y-115453000D01*
G75*
G02*
X213369000Y-115203000I250000J0D01*
G01*
X214119000Y-115203000D01*
G75*
G02*
X214369000Y-115453000I0J-250000D01*
G01*
X214369000Y-116703000D01*
G75*
G02*
X214119000Y-116953000I-250000J0D01*
G01*
X213369000Y-116953000D01*
G75*
G02*
X213119000Y-116703000I0J250000D01*
G01*
G37*
G36*
G01*
X210319000Y-116703000D02*
X210319000Y-115453000D01*
G75*
G02*
X210569000Y-115203000I250000J0D01*
G01*
X211319000Y-115203000D01*
G75*
G02*
X211569000Y-115453000I0J-250000D01*
G01*
X211569000Y-116703000D01*
G75*
G02*
X211319000Y-116953000I-250000J0D01*
G01*
X210569000Y-116953000D01*
G75*
G02*
X210319000Y-116703000I0J250000D01*
G01*
G37*
G36*
G01*
X232423000Y-113147000D02*
X232423000Y-111897000D01*
G75*
G02*
X232673000Y-111647000I250000J0D01*
G01*
X233423000Y-111647000D01*
G75*
G02*
X233673000Y-111897000I0J-250000D01*
G01*
X233673000Y-113147000D01*
G75*
G02*
X233423000Y-113397000I-250000J0D01*
G01*
X232673000Y-113397000D01*
G75*
G02*
X232423000Y-113147000I0J250000D01*
G01*
G37*
G36*
G01*
X229623000Y-113147000D02*
X229623000Y-111897000D01*
G75*
G02*
X229873000Y-111647000I250000J0D01*
G01*
X230623000Y-111647000D01*
G75*
G02*
X230873000Y-111897000I0J-250000D01*
G01*
X230873000Y-113147000D01*
G75*
G02*
X230623000Y-113397000I-250000J0D01*
G01*
X229873000Y-113397000D01*
G75*
G02*
X229623000Y-113147000I0J250000D01*
G01*
G37*
G36*
G01*
X251727000Y-109591000D02*
X251727000Y-108341000D01*
G75*
G02*
X251977000Y-108091000I250000J0D01*
G01*
X252727000Y-108091000D01*
G75*
G02*
X252977000Y-108341000I0J-250000D01*
G01*
X252977000Y-109591000D01*
G75*
G02*
X252727000Y-109841000I-250000J0D01*
G01*
X251977000Y-109841000D01*
G75*
G02*
X251727000Y-109591000I0J250000D01*
G01*
G37*
G36*
G01*
X248927000Y-109591000D02*
X248927000Y-108341000D01*
G75*
G02*
X249177000Y-108091000I250000J0D01*
G01*
X249927000Y-108091000D01*
G75*
G02*
X250177000Y-108341000I0J-250000D01*
G01*
X250177000Y-109591000D01*
G75*
G02*
X249927000Y-109841000I-250000J0D01*
G01*
X249177000Y-109841000D01*
G75*
G02*
X248927000Y-109591000I0J250000D01*
G01*
G37*
G36*
G01*
X271031000Y-106035000D02*
X271031000Y-104785000D01*
G75*
G02*
X271281000Y-104535000I250000J0D01*
G01*
X272031000Y-104535000D01*
G75*
G02*
X272281000Y-104785000I0J-250000D01*
G01*
X272281000Y-106035000D01*
G75*
G02*
X272031000Y-106285000I-250000J0D01*
G01*
X271281000Y-106285000D01*
G75*
G02*
X271031000Y-106035000I0J250000D01*
G01*
G37*
G36*
G01*
X268231000Y-106035000D02*
X268231000Y-104785000D01*
G75*
G02*
X268481000Y-104535000I250000J0D01*
G01*
X269231000Y-104535000D01*
G75*
G02*
X269481000Y-104785000I0J-250000D01*
G01*
X269481000Y-106035000D01*
G75*
G02*
X269231000Y-106285000I-250000J0D01*
G01*
X268481000Y-106285000D01*
G75*
G02*
X268231000Y-106035000I0J250000D01*
G01*
G37*
G36*
G01*
X290335000Y-104765000D02*
X290335000Y-103515000D01*
G75*
G02*
X290585000Y-103265000I250000J0D01*
G01*
X291335000Y-103265000D01*
G75*
G02*
X291585000Y-103515000I0J-250000D01*
G01*
X291585000Y-104765000D01*
G75*
G02*
X291335000Y-105015000I-250000J0D01*
G01*
X290585000Y-105015000D01*
G75*
G02*
X290335000Y-104765000I0J250000D01*
G01*
G37*
G36*
G01*
X287535000Y-104765000D02*
X287535000Y-103515000D01*
G75*
G02*
X287785000Y-103265000I250000J0D01*
G01*
X288535000Y-103265000D01*
G75*
G02*
X288785000Y-103515000I0J-250000D01*
G01*
X288785000Y-104765000D01*
G75*
G02*
X288535000Y-105015000I-250000J0D01*
G01*
X287785000Y-105015000D01*
G75*
G02*
X287535000Y-104765000I0J250000D01*
G01*
G37*
G36*
G01*
X174511000Y-144389000D02*
X174511000Y-143139000D01*
G75*
G02*
X174761000Y-142889000I250000J0D01*
G01*
X175511000Y-142889000D01*
G75*
G02*
X175761000Y-143139000I0J-250000D01*
G01*
X175761000Y-144389000D01*
G75*
G02*
X175511000Y-144639000I-250000J0D01*
G01*
X174761000Y-144639000D01*
G75*
G02*
X174511000Y-144389000I0J250000D01*
G01*
G37*
G36*
G01*
X171711000Y-144389000D02*
X171711000Y-143139000D01*
G75*
G02*
X171961000Y-142889000I250000J0D01*
G01*
X172711000Y-142889000D01*
G75*
G02*
X172961000Y-143139000I0J-250000D01*
G01*
X172961000Y-144389000D01*
G75*
G02*
X172711000Y-144639000I-250000J0D01*
G01*
X171961000Y-144639000D01*
G75*
G02*
X171711000Y-144389000I0J250000D01*
G01*
G37*
G36*
G01*
X193815000Y-139563000D02*
X193815000Y-138313000D01*
G75*
G02*
X194065000Y-138063000I250000J0D01*
G01*
X194815000Y-138063000D01*
G75*
G02*
X195065000Y-138313000I0J-250000D01*
G01*
X195065000Y-139563000D01*
G75*
G02*
X194815000Y-139813000I-250000J0D01*
G01*
X194065000Y-139813000D01*
G75*
G02*
X193815000Y-139563000I0J250000D01*
G01*
G37*
G36*
G01*
X191015000Y-139563000D02*
X191015000Y-138313000D01*
G75*
G02*
X191265000Y-138063000I250000J0D01*
G01*
X192015000Y-138063000D01*
G75*
G02*
X192265000Y-138313000I0J-250000D01*
G01*
X192265000Y-139563000D01*
G75*
G02*
X192015000Y-139813000I-250000J0D01*
G01*
X191265000Y-139813000D01*
G75*
G02*
X191015000Y-139563000I0J250000D01*
G01*
G37*
G36*
G01*
X213119000Y-136007000D02*
X213119000Y-134757000D01*
G75*
G02*
X213369000Y-134507000I250000J0D01*
G01*
X214119000Y-134507000D01*
G75*
G02*
X214369000Y-134757000I0J-250000D01*
G01*
X214369000Y-136007000D01*
G75*
G02*
X214119000Y-136257000I-250000J0D01*
G01*
X213369000Y-136257000D01*
G75*
G02*
X213119000Y-136007000I0J250000D01*
G01*
G37*
G36*
G01*
X210319000Y-136007000D02*
X210319000Y-134757000D01*
G75*
G02*
X210569000Y-134507000I250000J0D01*
G01*
X211319000Y-134507000D01*
G75*
G02*
X211569000Y-134757000I0J-250000D01*
G01*
X211569000Y-136007000D01*
G75*
G02*
X211319000Y-136257000I-250000J0D01*
G01*
X210569000Y-136257000D01*
G75*
G02*
X210319000Y-136007000I0J250000D01*
G01*
G37*
G36*
G01*
X232423000Y-132451000D02*
X232423000Y-131201000D01*
G75*
G02*
X232673000Y-130951000I250000J0D01*
G01*
X233423000Y-130951000D01*
G75*
G02*
X233673000Y-131201000I0J-250000D01*
G01*
X233673000Y-132451000D01*
G75*
G02*
X233423000Y-132701000I-250000J0D01*
G01*
X232673000Y-132701000D01*
G75*
G02*
X232423000Y-132451000I0J250000D01*
G01*
G37*
G36*
G01*
X229623000Y-132451000D02*
X229623000Y-131201000D01*
G75*
G02*
X229873000Y-130951000I250000J0D01*
G01*
X230623000Y-130951000D01*
G75*
G02*
X230873000Y-131201000I0J-250000D01*
G01*
X230873000Y-132451000D01*
G75*
G02*
X230623000Y-132701000I-250000J0D01*
G01*
X229873000Y-132701000D01*
G75*
G02*
X229623000Y-132451000I0J250000D01*
G01*
G37*
G36*
G01*
X251727000Y-128895000D02*
X251727000Y-127645000D01*
G75*
G02*
X251977000Y-127395000I250000J0D01*
G01*
X252727000Y-127395000D01*
G75*
G02*
X252977000Y-127645000I0J-250000D01*
G01*
X252977000Y-128895000D01*
G75*
G02*
X252727000Y-129145000I-250000J0D01*
G01*
X251977000Y-129145000D01*
G75*
G02*
X251727000Y-128895000I0J250000D01*
G01*
G37*
G36*
G01*
X248927000Y-128895000D02*
X248927000Y-127645000D01*
G75*
G02*
X249177000Y-127395000I250000J0D01*
G01*
X249927000Y-127395000D01*
G75*
G02*
X250177000Y-127645000I0J-250000D01*
G01*
X250177000Y-128895000D01*
G75*
G02*
X249927000Y-129145000I-250000J0D01*
G01*
X249177000Y-129145000D01*
G75*
G02*
X248927000Y-128895000I0J250000D01*
G01*
G37*
G36*
G01*
X268231000Y-125339000D02*
X268231000Y-124089000D01*
G75*
G02*
X268481000Y-123839000I250000J0D01*
G01*
X269231000Y-123839000D01*
G75*
G02*
X269481000Y-124089000I0J-250000D01*
G01*
X269481000Y-125339000D01*
G75*
G02*
X269231000Y-125589000I-250000J0D01*
G01*
X268481000Y-125589000D01*
G75*
G02*
X268231000Y-125339000I0J250000D01*
G01*
G37*
G36*
G01*
X271031000Y-125339000D02*
X271031000Y-124089000D01*
G75*
G02*
X271281000Y-123839000I250000J0D01*
G01*
X272031000Y-123839000D01*
G75*
G02*
X272281000Y-124089000I0J-250000D01*
G01*
X272281000Y-125339000D01*
G75*
G02*
X272031000Y-125589000I-250000J0D01*
G01*
X271281000Y-125589000D01*
G75*
G02*
X271031000Y-125339000I0J250000D01*
G01*
G37*
G36*
G01*
X287535000Y-126609000D02*
X287535000Y-125359000D01*
G75*
G02*
X287785000Y-125109000I250000J0D01*
G01*
X288535000Y-125109000D01*
G75*
G02*
X288785000Y-125359000I0J-250000D01*
G01*
X288785000Y-126609000D01*
G75*
G02*
X288535000Y-126859000I-250000J0D01*
G01*
X287785000Y-126859000D01*
G75*
G02*
X287535000Y-126609000I0J250000D01*
G01*
G37*
G36*
G01*
X290335000Y-126609000D02*
X290335000Y-125359000D01*
G75*
G02*
X290585000Y-125109000I250000J0D01*
G01*
X291335000Y-125109000D01*
G75*
G02*
X291585000Y-125359000I0J-250000D01*
G01*
X291585000Y-126609000D01*
G75*
G02*
X291335000Y-126859000I-250000J0D01*
G01*
X290585000Y-126859000D01*
G75*
G02*
X290335000Y-126609000I0J250000D01*
G01*
G37*
G36*
G01*
X174511000Y-163439000D02*
X174511000Y-162189000D01*
G75*
G02*
X174761000Y-161939000I250000J0D01*
G01*
X175511000Y-161939000D01*
G75*
G02*
X175761000Y-162189000I0J-250000D01*
G01*
X175761000Y-163439000D01*
G75*
G02*
X175511000Y-163689000I-250000J0D01*
G01*
X174761000Y-163689000D01*
G75*
G02*
X174511000Y-163439000I0J250000D01*
G01*
G37*
G36*
G01*
X171711000Y-163439000D02*
X171711000Y-162189000D01*
G75*
G02*
X171961000Y-161939000I250000J0D01*
G01*
X172711000Y-161939000D01*
G75*
G02*
X172961000Y-162189000I0J-250000D01*
G01*
X172961000Y-163439000D01*
G75*
G02*
X172711000Y-163689000I-250000J0D01*
G01*
X171961000Y-163689000D01*
G75*
G02*
X171711000Y-163439000I0J250000D01*
G01*
G37*
G36*
G01*
X193815000Y-158867000D02*
X193815000Y-157617000D01*
G75*
G02*
X194065000Y-157367000I250000J0D01*
G01*
X194815000Y-157367000D01*
G75*
G02*
X195065000Y-157617000I0J-250000D01*
G01*
X195065000Y-158867000D01*
G75*
G02*
X194815000Y-159117000I-250000J0D01*
G01*
X194065000Y-159117000D01*
G75*
G02*
X193815000Y-158867000I0J250000D01*
G01*
G37*
G36*
G01*
X191015000Y-158867000D02*
X191015000Y-157617000D01*
G75*
G02*
X191265000Y-157367000I250000J0D01*
G01*
X192015000Y-157367000D01*
G75*
G02*
X192265000Y-157617000I0J-250000D01*
G01*
X192265000Y-158867000D01*
G75*
G02*
X192015000Y-159117000I-250000J0D01*
G01*
X191265000Y-159117000D01*
G75*
G02*
X191015000Y-158867000I0J250000D01*
G01*
G37*
G36*
G01*
X213373000Y-155311000D02*
X213373000Y-154061000D01*
G75*
G02*
X213623000Y-153811000I250000J0D01*
G01*
X214373000Y-153811000D01*
G75*
G02*
X214623000Y-154061000I0J-250000D01*
G01*
X214623000Y-155311000D01*
G75*
G02*
X214373000Y-155561000I-250000J0D01*
G01*
X213623000Y-155561000D01*
G75*
G02*
X213373000Y-155311000I0J250000D01*
G01*
G37*
G36*
G01*
X210573000Y-155311000D02*
X210573000Y-154061000D01*
G75*
G02*
X210823000Y-153811000I250000J0D01*
G01*
X211573000Y-153811000D01*
G75*
G02*
X211823000Y-154061000I0J-250000D01*
G01*
X211823000Y-155311000D01*
G75*
G02*
X211573000Y-155561000I-250000J0D01*
G01*
X210823000Y-155561000D01*
G75*
G02*
X210573000Y-155311000I0J250000D01*
G01*
G37*
G36*
G01*
X232423000Y-151755000D02*
X232423000Y-150505000D01*
G75*
G02*
X232673000Y-150255000I250000J0D01*
G01*
X233423000Y-150255000D01*
G75*
G02*
X233673000Y-150505000I0J-250000D01*
G01*
X233673000Y-151755000D01*
G75*
G02*
X233423000Y-152005000I-250000J0D01*
G01*
X232673000Y-152005000D01*
G75*
G02*
X232423000Y-151755000I0J250000D01*
G01*
G37*
G36*
G01*
X229623000Y-151755000D02*
X229623000Y-150505000D01*
G75*
G02*
X229873000Y-150255000I250000J0D01*
G01*
X230623000Y-150255000D01*
G75*
G02*
X230873000Y-150505000I0J-250000D01*
G01*
X230873000Y-151755000D01*
G75*
G02*
X230623000Y-152005000I-250000J0D01*
G01*
X229873000Y-152005000D01*
G75*
G02*
X229623000Y-151755000I0J250000D01*
G01*
G37*
G36*
G01*
X251727000Y-147945000D02*
X251727000Y-146695000D01*
G75*
G02*
X251977000Y-146445000I250000J0D01*
G01*
X252727000Y-146445000D01*
G75*
G02*
X252977000Y-146695000I0J-250000D01*
G01*
X252977000Y-147945000D01*
G75*
G02*
X252727000Y-148195000I-250000J0D01*
G01*
X251977000Y-148195000D01*
G75*
G02*
X251727000Y-147945000I0J250000D01*
G01*
G37*
G36*
G01*
X248927000Y-147945000D02*
X248927000Y-146695000D01*
G75*
G02*
X249177000Y-146445000I250000J0D01*
G01*
X249927000Y-146445000D01*
G75*
G02*
X250177000Y-146695000I0J-250000D01*
G01*
X250177000Y-147945000D01*
G75*
G02*
X249927000Y-148195000I-250000J0D01*
G01*
X249177000Y-148195000D01*
G75*
G02*
X248927000Y-147945000I0J250000D01*
G01*
G37*
G36*
G01*
X271031000Y-147691000D02*
X271031000Y-146441000D01*
G75*
G02*
X271281000Y-146191000I250000J0D01*
G01*
X272031000Y-146191000D01*
G75*
G02*
X272281000Y-146441000I0J-250000D01*
G01*
X272281000Y-147691000D01*
G75*
G02*
X272031000Y-147941000I-250000J0D01*
G01*
X271281000Y-147941000D01*
G75*
G02*
X271031000Y-147691000I0J250000D01*
G01*
G37*
G36*
G01*
X268231000Y-147691000D02*
X268231000Y-146441000D01*
G75*
G02*
X268481000Y-146191000I250000J0D01*
G01*
X269231000Y-146191000D01*
G75*
G02*
X269481000Y-146441000I0J-250000D01*
G01*
X269481000Y-147691000D01*
G75*
G02*
X269231000Y-147941000I-250000J0D01*
G01*
X268481000Y-147941000D01*
G75*
G02*
X268231000Y-147691000I0J250000D01*
G01*
G37*
G36*
G01*
X290335000Y-147945000D02*
X290335000Y-146695000D01*
G75*
G02*
X290585000Y-146445000I250000J0D01*
G01*
X291335000Y-146445000D01*
G75*
G02*
X291585000Y-146695000I0J-250000D01*
G01*
X291585000Y-147945000D01*
G75*
G02*
X291335000Y-148195000I-250000J0D01*
G01*
X290585000Y-148195000D01*
G75*
G02*
X290335000Y-147945000I0J250000D01*
G01*
G37*
G36*
G01*
X287535000Y-147945000D02*
X287535000Y-146695000D01*
G75*
G02*
X287785000Y-146445000I250000J0D01*
G01*
X288535000Y-146445000D01*
G75*
G02*
X288785000Y-146695000I0J-250000D01*
G01*
X288785000Y-147945000D01*
G75*
G02*
X288535000Y-148195000I-250000J0D01*
G01*
X287785000Y-148195000D01*
G75*
G02*
X287535000Y-147945000I0J250000D01*
G01*
G37*
G36*
G01*
X148219000Y-57163000D02*
X149469000Y-57163000D01*
G75*
G02*
X149719000Y-57413000I0J-250000D01*
G01*
X149719000Y-58163000D01*
G75*
G02*
X149469000Y-58413000I-250000J0D01*
G01*
X148219000Y-58413000D01*
G75*
G02*
X147969000Y-58163000I0J250000D01*
G01*
X147969000Y-57413000D01*
G75*
G02*
X148219000Y-57163000I250000J0D01*
G01*
G37*
G36*
G01*
X148219000Y-54363000D02*
X149469000Y-54363000D01*
G75*
G02*
X149719000Y-54613000I0J-250000D01*
G01*
X149719000Y-55363000D01*
G75*
G02*
X149469000Y-55613000I-250000J0D01*
G01*
X148219000Y-55613000D01*
G75*
G02*
X147969000Y-55363000I0J250000D01*
G01*
X147969000Y-54613000D01*
G75*
G02*
X148219000Y-54363000I250000J0D01*
G01*
G37*
G36*
G01*
X150505000Y-57163000D02*
X151755000Y-57163000D01*
G75*
G02*
X152005000Y-57413000I0J-250000D01*
G01*
X152005000Y-58163000D01*
G75*
G02*
X151755000Y-58413000I-250000J0D01*
G01*
X150505000Y-58413000D01*
G75*
G02*
X150255000Y-58163000I0J250000D01*
G01*
X150255000Y-57413000D01*
G75*
G02*
X150505000Y-57163000I250000J0D01*
G01*
G37*
G36*
G01*
X150505000Y-54363000D02*
X151755000Y-54363000D01*
G75*
G02*
X152005000Y-54613000I0J-250000D01*
G01*
X152005000Y-55363000D01*
G75*
G02*
X151755000Y-55613000I-250000J0D01*
G01*
X150505000Y-55613000D01*
G75*
G02*
X150255000Y-55363000I0J250000D01*
G01*
X150255000Y-54613000D01*
G75*
G02*
X150505000Y-54363000I250000J0D01*
G01*
G37*
G36*
G01*
X136411000Y-54473000D02*
X136411000Y-53223000D01*
G75*
G02*
X136661000Y-52973000I250000J0D01*
G01*
X137411000Y-52973000D01*
G75*
G02*
X137661000Y-53223000I0J-250000D01*
G01*
X137661000Y-54473000D01*
G75*
G02*
X137411000Y-54723000I-250000J0D01*
G01*
X136661000Y-54723000D01*
G75*
G02*
X136411000Y-54473000I0J250000D01*
G01*
G37*
G36*
G01*
X133611000Y-54473000D02*
X133611000Y-53223000D01*
G75*
G02*
X133861000Y-52973000I250000J0D01*
G01*
X134611000Y-52973000D01*
G75*
G02*
X134861000Y-53223000I0J-250000D01*
G01*
X134861000Y-54473000D01*
G75*
G02*
X134611000Y-54723000I-250000J0D01*
G01*
X133861000Y-54723000D01*
G75*
G02*
X133611000Y-54473000I0J250000D01*
G01*
G37*
D24*
G36*
X159494039Y-68304787D02*
G01*
X161509294Y-66289532D01*
X162520457Y-67300695D01*
X160505202Y-69315950D01*
X159494039Y-68304787D01*
G37*
G36*
X163475050Y-72285798D02*
G01*
X165490305Y-70270543D01*
X166501468Y-71281706D01*
X164486213Y-73296961D01*
X163475050Y-72285798D01*
G37*
G36*
X166409543Y-69351305D02*
G01*
X168424798Y-67336050D01*
X169435961Y-68347213D01*
X167420706Y-70362468D01*
X166409543Y-69351305D01*
G37*
G36*
X162428532Y-65370294D02*
G01*
X164443787Y-63355039D01*
X165454950Y-64366202D01*
X163439695Y-66381457D01*
X162428532Y-65370294D01*
G37*
G36*
G01*
X192014000Y-48397000D02*
X192014000Y-49647000D01*
G75*
G02*
X191764000Y-49897000I-250000J0D01*
G01*
X191014000Y-49897000D01*
G75*
G02*
X190764000Y-49647000I0J250000D01*
G01*
X190764000Y-48397000D01*
G75*
G02*
X191014000Y-48147000I250000J0D01*
G01*
X191764000Y-48147000D01*
G75*
G02*
X192014000Y-48397000I0J-250000D01*
G01*
G37*
G36*
G01*
X194814000Y-48397000D02*
X194814000Y-49647000D01*
G75*
G02*
X194564000Y-49897000I-250000J0D01*
G01*
X193814000Y-49897000D01*
G75*
G02*
X193564000Y-49647000I0J250000D01*
G01*
X193564000Y-48397000D01*
G75*
G02*
X193814000Y-48147000I250000J0D01*
G01*
X194564000Y-48147000D01*
G75*
G02*
X194814000Y-48397000I0J-250000D01*
G01*
G37*
D22*
X152812000Y-51816000D03*
X150812000Y-51816000D03*
X148812000Y-51816000D03*
D23*
X146812000Y-51816000D03*
D21*
X81788000Y-168402000D03*
X57912000Y-50038000D03*
X219710000Y-168402000D03*
X242316000Y-50038000D03*
G36*
G01*
X154041000Y-58407000D02*
X152791000Y-58407000D01*
G75*
G02*
X152541000Y-58157000I0J250000D01*
G01*
X152541000Y-57407000D01*
G75*
G02*
X152791000Y-57157000I250000J0D01*
G01*
X154041000Y-57157000D01*
G75*
G02*
X154291000Y-57407000I0J-250000D01*
G01*
X154291000Y-58157000D01*
G75*
G02*
X154041000Y-58407000I-250000J0D01*
G01*
G37*
G36*
G01*
X154041000Y-61207000D02*
X152791000Y-61207000D01*
G75*
G02*
X152541000Y-60957000I0J250000D01*
G01*
X152541000Y-60207000D01*
G75*
G02*
X152791000Y-59957000I250000J0D01*
G01*
X154041000Y-59957000D01*
G75*
G02*
X154291000Y-60207000I0J-250000D01*
G01*
X154291000Y-60957000D01*
G75*
G02*
X154041000Y-61207000I-250000J0D01*
G01*
G37*
G36*
G01*
X139199000Y-75047000D02*
X139199000Y-73797000D01*
G75*
G02*
X139449000Y-73547000I250000J0D01*
G01*
X140199000Y-73547000D01*
G75*
G02*
X140449000Y-73797000I0J-250000D01*
G01*
X140449000Y-75047000D01*
G75*
G02*
X140199000Y-75297000I-250000J0D01*
G01*
X139449000Y-75297000D01*
G75*
G02*
X139199000Y-75047000I0J250000D01*
G01*
G37*
G36*
G01*
X141999000Y-75047000D02*
X141999000Y-73797000D01*
G75*
G02*
X142249000Y-73547000I250000J0D01*
G01*
X142999000Y-73547000D01*
G75*
G02*
X143249000Y-73797000I0J-250000D01*
G01*
X143249000Y-75047000D01*
G75*
G02*
X142999000Y-75297000I-250000J0D01*
G01*
X142249000Y-75297000D01*
G75*
G02*
X141999000Y-75047000I0J250000D01*
G01*
G37*
G36*
G01*
X147056000Y-58413000D02*
X145806000Y-58413000D01*
G75*
G02*
X145556000Y-58163000I0J250000D01*
G01*
X145556000Y-57413000D01*
G75*
G02*
X145806000Y-57163000I250000J0D01*
G01*
X147056000Y-57163000D01*
G75*
G02*
X147306000Y-57413000I0J-250000D01*
G01*
X147306000Y-58163000D01*
G75*
G02*
X147056000Y-58413000I-250000J0D01*
G01*
G37*
G36*
G01*
X147056000Y-55613000D02*
X145806000Y-55613000D01*
G75*
G02*
X145556000Y-55363000I0J250000D01*
G01*
X145556000Y-54613000D01*
G75*
G02*
X145806000Y-54363000I250000J0D01*
G01*
X147056000Y-54363000D01*
G75*
G02*
X147306000Y-54613000I0J-250000D01*
G01*
X147306000Y-55363000D01*
G75*
G02*
X147056000Y-55613000I-250000J0D01*
G01*
G37*
G36*
G01*
X138042000Y-59827000D02*
X138042000Y-61077000D01*
G75*
G02*
X137792000Y-61327000I-250000J0D01*
G01*
X137042000Y-61327000D01*
G75*
G02*
X136792000Y-61077000I0J250000D01*
G01*
X136792000Y-59827000D01*
G75*
G02*
X137042000Y-59577000I250000J0D01*
G01*
X137792000Y-59577000D01*
G75*
G02*
X138042000Y-59827000I0J-250000D01*
G01*
G37*
G36*
G01*
X135242000Y-59827000D02*
X135242000Y-61077000D01*
G75*
G02*
X134992000Y-61327000I-250000J0D01*
G01*
X134242000Y-61327000D01*
G75*
G02*
X133992000Y-61077000I0J250000D01*
G01*
X133992000Y-59827000D01*
G75*
G02*
X134242000Y-59577000I250000J0D01*
G01*
X134992000Y-59577000D01*
G75*
G02*
X135242000Y-59827000I0J-250000D01*
G01*
G37*
G36*
G01*
X158091000Y-76725000D02*
X158091000Y-77975000D01*
G75*
G02*
X157841000Y-78225000I-250000J0D01*
G01*
X157091000Y-78225000D01*
G75*
G02*
X156841000Y-77975000I0J250000D01*
G01*
X156841000Y-76725000D01*
G75*
G02*
X157091000Y-76475000I250000J0D01*
G01*
X157841000Y-76475000D01*
G75*
G02*
X158091000Y-76725000I0J-250000D01*
G01*
G37*
G36*
G01*
X155291000Y-76725000D02*
X155291000Y-77975000D01*
G75*
G02*
X155041000Y-78225000I-250000J0D01*
G01*
X154291000Y-78225000D01*
G75*
G02*
X154041000Y-77975000I0J250000D01*
G01*
X154041000Y-76725000D01*
G75*
G02*
X154291000Y-76475000I250000J0D01*
G01*
X155041000Y-76475000D01*
G75*
G02*
X155291000Y-76725000I0J-250000D01*
G01*
G37*
G36*
G01*
X141791000Y-62754000D02*
X143041000Y-62754000D01*
G75*
G02*
X143291000Y-63004000I0J-250000D01*
G01*
X143291000Y-63754000D01*
G75*
G02*
X143041000Y-64004000I-250000J0D01*
G01*
X141791000Y-64004000D01*
G75*
G02*
X141541000Y-63754000I0J250000D01*
G01*
X141541000Y-63004000D01*
G75*
G02*
X141791000Y-62754000I250000J0D01*
G01*
G37*
G36*
G01*
X141791000Y-59954000D02*
X143041000Y-59954000D01*
G75*
G02*
X143291000Y-60204000I0J-250000D01*
G01*
X143291000Y-60954000D01*
G75*
G02*
X143041000Y-61204000I-250000J0D01*
G01*
X141791000Y-61204000D01*
G75*
G02*
X141541000Y-60954000I0J250000D01*
G01*
X141541000Y-60204000D01*
G75*
G02*
X141791000Y-59954000I250000J0D01*
G01*
G37*
G36*
G01*
X160882949Y-61753167D02*
X161766833Y-62637051D01*
G75*
G02*
X161766833Y-62990605I-176777J-176777D01*
G01*
X161236503Y-63520935D01*
G75*
G02*
X160882949Y-63520935I-176777J176777D01*
G01*
X159999065Y-62637051D01*
G75*
G02*
X159999065Y-62283497I176777J176777D01*
G01*
X160529395Y-61753167D01*
G75*
G02*
X160882949Y-61753167I176777J-176777D01*
G01*
G37*
G36*
G01*
X158903051Y-63733065D02*
X159786935Y-64616949D01*
G75*
G02*
X159786935Y-64970503I-176777J-176777D01*
G01*
X159256605Y-65500833D01*
G75*
G02*
X158903051Y-65500833I-176777J176777D01*
G01*
X158019167Y-64616949D01*
G75*
G02*
X158019167Y-64263395I176777J176777D01*
G01*
X158549497Y-63733065D01*
G75*
G02*
X158903051Y-63733065I176777J-176777D01*
G01*
G37*
G36*
G01*
X164862000Y-57394000D02*
X164862000Y-56144000D01*
G75*
G02*
X165112000Y-55894000I250000J0D01*
G01*
X165862000Y-55894000D01*
G75*
G02*
X166112000Y-56144000I0J-250000D01*
G01*
X166112000Y-57394000D01*
G75*
G02*
X165862000Y-57644000I-250000J0D01*
G01*
X165112000Y-57644000D01*
G75*
G02*
X164862000Y-57394000I0J250000D01*
G01*
G37*
G36*
G01*
X162062000Y-57394000D02*
X162062000Y-56144000D01*
G75*
G02*
X162312000Y-55894000I250000J0D01*
G01*
X163062000Y-55894000D01*
G75*
G02*
X163312000Y-56144000I0J-250000D01*
G01*
X163312000Y-57394000D01*
G75*
G02*
X163062000Y-57644000I-250000J0D01*
G01*
X162312000Y-57644000D01*
G75*
G02*
X162062000Y-57394000I0J250000D01*
G01*
G37*
G36*
G01*
X162059000Y-55108000D02*
X162059000Y-53858000D01*
G75*
G02*
X162309000Y-53608000I250000J0D01*
G01*
X163059000Y-53608000D01*
G75*
G02*
X163309000Y-53858000I0J-250000D01*
G01*
X163309000Y-55108000D01*
G75*
G02*
X163059000Y-55358000I-250000J0D01*
G01*
X162309000Y-55358000D01*
G75*
G02*
X162059000Y-55108000I0J250000D01*
G01*
G37*
G36*
G01*
X164859000Y-55108000D02*
X164859000Y-53858000D01*
G75*
G02*
X165109000Y-53608000I250000J0D01*
G01*
X165859000Y-53608000D01*
G75*
G02*
X166109000Y-53858000I0J-250000D01*
G01*
X166109000Y-55108000D01*
G75*
G02*
X165859000Y-55358000I-250000J0D01*
G01*
X165109000Y-55358000D01*
G75*
G02*
X164859000Y-55108000I0J250000D01*
G01*
G37*
D25*
X129450000Y-57150000D03*
X137250000Y-57150000D03*
G36*
G01*
X166492581Y-63759816D02*
X167137816Y-63114581D01*
G75*
G02*
X167482530Y-63114581I172357J-172357D01*
G01*
X167827245Y-63459296D01*
G75*
G02*
X167827245Y-63804010I-172357J-172357D01*
G01*
X167182010Y-64449245D01*
G75*
G02*
X166837296Y-64449245I-172357J172357D01*
G01*
X166492581Y-64104530D01*
G75*
G02*
X166492581Y-63759816I172357J172357D01*
G01*
G37*
G36*
G01*
X165166755Y-62433990D02*
X165811990Y-61788755D01*
G75*
G02*
X166156704Y-61788755I172357J-172357D01*
G01*
X166501419Y-62133470D01*
G75*
G02*
X166501419Y-62478184I-172357J-172357D01*
G01*
X165856184Y-63123419D01*
G75*
G02*
X165511470Y-63123419I-172357J172357D01*
G01*
X165166755Y-62778704D01*
G75*
G02*
X165166755Y-62433990I172357J172357D01*
G01*
G37*
G36*
G01*
X168420990Y-72620245D02*
X167775755Y-71975010D01*
G75*
G02*
X167775755Y-71630296I172357J172357D01*
G01*
X168120470Y-71285581D01*
G75*
G02*
X168465184Y-71285581I172357J-172357D01*
G01*
X169110419Y-71930816D01*
G75*
G02*
X169110419Y-72275530I-172357J-172357D01*
G01*
X168765704Y-72620245D01*
G75*
G02*
X168420990Y-72620245I-172357J172357D01*
G01*
G37*
G36*
G01*
X169746816Y-71294419D02*
X169101581Y-70649184D01*
G75*
G02*
X169101581Y-70304470I172357J172357D01*
G01*
X169446296Y-69959755D01*
G75*
G02*
X169791010Y-69959755I172357J-172357D01*
G01*
X170436245Y-70604990D01*
G75*
G02*
X170436245Y-70949704I-172357J-172357D01*
G01*
X170091530Y-71294419D01*
G75*
G02*
X169746816Y-71294419I-172357J172357D01*
G01*
G37*
G36*
G01*
X195065000Y-61859000D02*
X195065000Y-63109000D01*
G75*
G02*
X194815000Y-63359000I-250000J0D01*
G01*
X194065000Y-63359000D01*
G75*
G02*
X193815000Y-63109000I0J250000D01*
G01*
X193815000Y-61859000D01*
G75*
G02*
X194065000Y-61609000I250000J0D01*
G01*
X194815000Y-61609000D01*
G75*
G02*
X195065000Y-61859000I0J-250000D01*
G01*
G37*
G36*
G01*
X192265000Y-61859000D02*
X192265000Y-63109000D01*
G75*
G02*
X192015000Y-63359000I-250000J0D01*
G01*
X191265000Y-63359000D01*
G75*
G02*
X191015000Y-63109000I0J250000D01*
G01*
X191015000Y-61859000D01*
G75*
G02*
X191265000Y-61609000I250000J0D01*
G01*
X192015000Y-61609000D01*
G75*
G02*
X192265000Y-61859000I0J-250000D01*
G01*
G37*
G36*
G01*
X190239000Y-61859000D02*
X190239000Y-63109000D01*
G75*
G02*
X189989000Y-63359000I-250000J0D01*
G01*
X189239000Y-63359000D01*
G75*
G02*
X188989000Y-63109000I0J250000D01*
G01*
X188989000Y-61859000D01*
G75*
G02*
X189239000Y-61609000I250000J0D01*
G01*
X189989000Y-61609000D01*
G75*
G02*
X190239000Y-61859000I0J-250000D01*
G01*
G37*
G36*
G01*
X187439000Y-61859000D02*
X187439000Y-63109000D01*
G75*
G02*
X187189000Y-63359000I-250000J0D01*
G01*
X186439000Y-63359000D01*
G75*
G02*
X186189000Y-63109000I0J250000D01*
G01*
X186189000Y-61859000D01*
G75*
G02*
X186439000Y-61609000I250000J0D01*
G01*
X187189000Y-61609000D01*
G75*
G02*
X187439000Y-61859000I0J-250000D01*
G01*
G37*
D22*
X142748000Y-51816000D03*
X140748000Y-51816000D03*
X138748000Y-51816000D03*
X136748000Y-51816000D03*
D23*
X134748000Y-51816000D03*
D22*
X132748000Y-51816000D03*
D26*
X120650000Y-49022000D03*
D27*
X123190000Y-49022000D03*
X125730000Y-49022000D03*
X128270000Y-49022000D03*
D28*
X292636000Y-49940000D03*
X8186000Y-49930000D03*
X292606000Y-170470000D03*
D29*
X178482664Y-51407170D02*
X178503535Y-51420743D01*
X178526654Y-51429982D01*
X178562000Y-51435000D01*
X180018032Y-51435000D01*
X180488330Y-52140447D01*
X180504104Y-52159709D01*
X180523332Y-52175523D01*
X180545276Y-52187282D01*
X180569093Y-52194534D01*
X180594000Y-52197000D01*
X206375000Y-52197000D01*
X206375000Y-52324000D01*
X206377440Y-52348776D01*
X206384667Y-52372601D01*
X206396403Y-52394557D01*
X206412197Y-52413803D01*
X206431443Y-52429597D01*
X206453399Y-52441333D01*
X206477224Y-52448560D01*
X206502000Y-52451000D01*
X207264000Y-52451000D01*
X207288776Y-52448560D01*
X207309590Y-52442535D01*
X208910209Y-51826912D01*
X210722365Y-52672585D01*
X211445744Y-54360470D01*
X210730145Y-56388000D01*
X207010000Y-56388000D01*
X206979198Y-56391792D01*
X206471198Y-56518792D01*
X206447753Y-56527168D01*
X206426393Y-56539958D01*
X206407938Y-56556669D01*
X206393098Y-56576659D01*
X206382444Y-56599160D01*
X206376383Y-56623308D01*
X206375000Y-56642000D01*
X206375000Y-57531000D01*
X179832000Y-57531000D01*
X179807093Y-57533466D01*
X178537093Y-57787466D01*
X178513276Y-57794718D01*
X178482664Y-57812830D01*
X177285179Y-58770818D01*
X175838447Y-57806330D01*
X175816478Y-57794617D01*
X175788879Y-57786728D01*
X174354359Y-57547641D01*
X174115272Y-56113121D01*
X174108792Y-56089083D01*
X174097746Y-56066771D01*
X174087564Y-56052697D01*
X172885317Y-54610000D01*
X174087564Y-53167303D01*
X174101551Y-53146707D01*
X174111251Y-53123778D01*
X174116291Y-53099398D01*
X174117000Y-53086000D01*
X174117000Y-51672147D01*
X175785961Y-51433724D01*
X175810143Y-51427804D01*
X175838447Y-51413670D01*
X177285179Y-50449182D01*
X178482664Y-51407170D01*
D24*
G36*
X178482664Y-51407170D02*
G01*
X178503535Y-51420743D01*
X178526654Y-51429982D01*
X178562000Y-51435000D01*
X180018032Y-51435000D01*
X180488330Y-52140447D01*
X180504104Y-52159709D01*
X180523332Y-52175523D01*
X180545276Y-52187282D01*
X180569093Y-52194534D01*
X180594000Y-52197000D01*
X206375000Y-52197000D01*
X206375000Y-52324000D01*
X206377440Y-52348776D01*
X206384667Y-52372601D01*
X206396403Y-52394557D01*
X206412197Y-52413803D01*
X206431443Y-52429597D01*
X206453399Y-52441333D01*
X206477224Y-52448560D01*
X206502000Y-52451000D01*
X207264000Y-52451000D01*
X207288776Y-52448560D01*
X207309590Y-52442535D01*
X208910209Y-51826912D01*
X210722365Y-52672585D01*
X211445744Y-54360470D01*
X210730145Y-56388000D01*
X207010000Y-56388000D01*
X206979198Y-56391792D01*
X206471198Y-56518792D01*
X206447753Y-56527168D01*
X206426393Y-56539958D01*
X206407938Y-56556669D01*
X206393098Y-56576659D01*
X206382444Y-56599160D01*
X206376383Y-56623308D01*
X206375000Y-56642000D01*
X206375000Y-57531000D01*
X179832000Y-57531000D01*
X179807093Y-57533466D01*
X178537093Y-57787466D01*
X178513276Y-57794718D01*
X178482664Y-57812830D01*
X177285179Y-58770818D01*
X175838447Y-57806330D01*
X175816478Y-57794617D01*
X175788879Y-57786728D01*
X174354359Y-57547641D01*
X174115272Y-56113121D01*
X174108792Y-56089083D01*
X174097746Y-56066771D01*
X174087564Y-56052697D01*
X172885317Y-54610000D01*
X174087564Y-53167303D01*
X174101551Y-53146707D01*
X174111251Y-53123778D01*
X174116291Y-53099398D01*
X174117000Y-53086000D01*
X174117000Y-51672147D01*
X175785961Y-51433724D01*
X175810143Y-51427804D01*
X175838447Y-51413670D01*
X177285179Y-50449182D01*
X178482664Y-51407170D01*
G37*
M02*
