G04 #@! TF.GenerationSoftware,KiCad,Pcbnew,(6.99.0-1603-g82820d4b1c)*
G04 #@! TF.CreationDate,2022-06-17T11:00:42+02:00*
G04 #@! TF.ProjectId,BalthazarKeyboard3-keycaps,42616c74-6861-47a6-9172-4b6579626f61,rev?*
G04 #@! TF.SameCoordinates,Original*
G04 #@! TF.FileFunction,Legend,Bot*
G04 #@! TF.FilePolarity,Positive*
%FSLAX46Y46*%
G04 Gerber Fmt 4.6, Leading zero omitted, Abs format (unit mm)*
G04 Created by KiCad (PCBNEW (6.99.0-1603-g82820d4b1c)) date 2022-06-17 11:00:42*
%MOMM*%
%LPD*%
G01*
G04 APERTURE LIST*
%ADD10C,0.150000*%
%ADD11C,0.120000*%
G04 APERTURE END LIST*
D10*
X142285380Y-68580095D02*
X143094904Y-68580095D01*
X143094904Y-68580095D02*
X143190142Y-68627714D01*
X143190142Y-68627714D02*
X143237761Y-68675333D01*
X143237761Y-68675333D02*
X143285380Y-68770571D01*
X143285380Y-68770571D02*
X143285380Y-68961047D01*
X143285380Y-68961047D02*
X143237761Y-69056285D01*
X143237761Y-69056285D02*
X143190142Y-69103904D01*
X143190142Y-69103904D02*
X143094904Y-69151523D01*
X143094904Y-69151523D02*
X142285380Y-69151523D01*
X143285380Y-70151523D02*
X143285380Y-69580095D01*
X143285380Y-69865809D02*
X142285380Y-69865809D01*
X142285380Y-69865809D02*
X142428238Y-69770571D01*
X142428238Y-69770571D02*
X142523476Y-69675333D01*
X142523476Y-69675333D02*
X142571095Y-69580095D01*
X150193333Y-50993880D02*
X150193333Y-51708166D01*
X150193333Y-51708166D02*
X150240952Y-51851023D01*
X150240952Y-51851023D02*
X150336190Y-51946261D01*
X150336190Y-51946261D02*
X150479047Y-51993880D01*
X150479047Y-51993880D02*
X150574285Y-51993880D01*
X149764761Y-51089119D02*
X149717142Y-51041500D01*
X149717142Y-51041500D02*
X149621904Y-50993880D01*
X149621904Y-50993880D02*
X149383809Y-50993880D01*
X149383809Y-50993880D02*
X149288571Y-51041500D01*
X149288571Y-51041500D02*
X149240952Y-51089119D01*
X149240952Y-51089119D02*
X149193333Y-51184357D01*
X149193333Y-51184357D02*
X149193333Y-51279595D01*
X149193333Y-51279595D02*
X149240952Y-51422452D01*
X149240952Y-51422452D02*
X149812380Y-51993880D01*
X149812380Y-51993880D02*
X149193333Y-51993880D01*
X271470285Y-156111380D02*
X271470285Y-155111380D01*
X271470285Y-155111380D02*
X271232190Y-155111380D01*
X271232190Y-155111380D02*
X271089333Y-155159000D01*
X271089333Y-155159000D02*
X270994095Y-155254238D01*
X270994095Y-155254238D02*
X270946476Y-155349476D01*
X270946476Y-155349476D02*
X270898857Y-155539952D01*
X270898857Y-155539952D02*
X270898857Y-155682809D01*
X270898857Y-155682809D02*
X270946476Y-155873285D01*
X270946476Y-155873285D02*
X270994095Y-155968523D01*
X270994095Y-155968523D02*
X271089333Y-156063761D01*
X271089333Y-156063761D02*
X271232190Y-156111380D01*
X271232190Y-156111380D02*
X271470285Y-156111380D01*
X270041714Y-155444714D02*
X270041714Y-156111380D01*
X270279809Y-155063761D02*
X270517904Y-155778047D01*
X270517904Y-155778047D02*
X269898857Y-155778047D01*
X269613142Y-155111380D02*
X268994095Y-155111380D01*
X268994095Y-155111380D02*
X269327428Y-155492333D01*
X269327428Y-155492333D02*
X269184571Y-155492333D01*
X269184571Y-155492333D02*
X269089333Y-155539952D01*
X269089333Y-155539952D02*
X269041714Y-155587571D01*
X269041714Y-155587571D02*
X268994095Y-155682809D01*
X268994095Y-155682809D02*
X268994095Y-155920904D01*
X268994095Y-155920904D02*
X269041714Y-156016142D01*
X269041714Y-156016142D02*
X269089333Y-156063761D01*
X269089333Y-156063761D02*
X269184571Y-156111380D01*
X269184571Y-156111380D02*
X269470285Y-156111380D01*
X269470285Y-156111380D02*
X269565523Y-156063761D01*
X269565523Y-156063761D02*
X269613142Y-156016142D01*
X187999666Y-47569380D02*
X188332999Y-47093190D01*
X188571094Y-47569380D02*
X188571094Y-46569380D01*
X188571094Y-46569380D02*
X188190142Y-46569380D01*
X188190142Y-46569380D02*
X188094904Y-46617000D01*
X188094904Y-46617000D02*
X188047285Y-46664619D01*
X188047285Y-46664619D02*
X187999666Y-46759857D01*
X187999666Y-46759857D02*
X187999666Y-46902714D01*
X187999666Y-46902714D02*
X188047285Y-46997952D01*
X188047285Y-46997952D02*
X188094904Y-47045571D01*
X188094904Y-47045571D02*
X188190142Y-47093190D01*
X188190142Y-47093190D02*
X188571094Y-47093190D01*
X187428237Y-46997952D02*
X187523475Y-46950333D01*
X187523475Y-46950333D02*
X187571094Y-46902714D01*
X187571094Y-46902714D02*
X187618713Y-46807476D01*
X187618713Y-46807476D02*
X187618713Y-46759857D01*
X187618713Y-46759857D02*
X187571094Y-46664619D01*
X187571094Y-46664619D02*
X187523475Y-46617000D01*
X187523475Y-46617000D02*
X187428237Y-46569380D01*
X187428237Y-46569380D02*
X187237761Y-46569380D01*
X187237761Y-46569380D02*
X187142523Y-46617000D01*
X187142523Y-46617000D02*
X187094904Y-46664619D01*
X187094904Y-46664619D02*
X187047285Y-46759857D01*
X187047285Y-46759857D02*
X187047285Y-46807476D01*
X187047285Y-46807476D02*
X187094904Y-46902714D01*
X187094904Y-46902714D02*
X187142523Y-46950333D01*
X187142523Y-46950333D02*
X187237761Y-46997952D01*
X187237761Y-46997952D02*
X187428237Y-46997952D01*
X187428237Y-46997952D02*
X187523475Y-47045571D01*
X187523475Y-47045571D02*
X187571094Y-47093190D01*
X187571094Y-47093190D02*
X187618713Y-47188428D01*
X187618713Y-47188428D02*
X187618713Y-47378904D01*
X187618713Y-47378904D02*
X187571094Y-47474142D01*
X187571094Y-47474142D02*
X187523475Y-47521761D01*
X187523475Y-47521761D02*
X187428237Y-47569380D01*
X187428237Y-47569380D02*
X187237761Y-47569380D01*
X187237761Y-47569380D02*
X187142523Y-47521761D01*
X187142523Y-47521761D02*
X187094904Y-47474142D01*
X187094904Y-47474142D02*
X187047285Y-47378904D01*
X187047285Y-47378904D02*
X187047285Y-47188428D01*
X187047285Y-47188428D02*
X187094904Y-47093190D01*
X187094904Y-47093190D02*
X187142523Y-47045571D01*
X187142523Y-47045571D02*
X187237761Y-46997952D01*
X158649380Y-47102666D02*
X159363666Y-47102666D01*
X159363666Y-47102666D02*
X159506523Y-47055047D01*
X159506523Y-47055047D02*
X159601761Y-46959809D01*
X159601761Y-46959809D02*
X159649380Y-46816952D01*
X159649380Y-46816952D02*
X159649380Y-46721714D01*
X158649380Y-47483619D02*
X158649380Y-48102666D01*
X158649380Y-48102666D02*
X159030333Y-47769333D01*
X159030333Y-47769333D02*
X159030333Y-47912190D01*
X159030333Y-47912190D02*
X159077952Y-48007428D01*
X159077952Y-48007428D02*
X159125571Y-48055047D01*
X159125571Y-48055047D02*
X159220809Y-48102666D01*
X159220809Y-48102666D02*
X159458904Y-48102666D01*
X159458904Y-48102666D02*
X159554142Y-48055047D01*
X159554142Y-48055047D02*
X159601761Y-48007428D01*
X159601761Y-48007428D02*
X159649380Y-47912190D01*
X159649380Y-47912190D02*
X159649380Y-47626476D01*
X159649380Y-47626476D02*
X159601761Y-47531238D01*
X159601761Y-47531238D02*
X159554142Y-47483619D01*
X157794142Y-56097333D02*
X157841761Y-56049714D01*
X157841761Y-56049714D02*
X157889380Y-55906857D01*
X157889380Y-55906857D02*
X157889380Y-55811619D01*
X157889380Y-55811619D02*
X157841761Y-55668762D01*
X157841761Y-55668762D02*
X157746523Y-55573524D01*
X157746523Y-55573524D02*
X157651285Y-55525905D01*
X157651285Y-55525905D02*
X157460809Y-55478286D01*
X157460809Y-55478286D02*
X157317952Y-55478286D01*
X157317952Y-55478286D02*
X157127476Y-55525905D01*
X157127476Y-55525905D02*
X157032238Y-55573524D01*
X157032238Y-55573524D02*
X156937000Y-55668762D01*
X156937000Y-55668762D02*
X156889380Y-55811619D01*
X156889380Y-55811619D02*
X156889380Y-55906857D01*
X156889380Y-55906857D02*
X156937000Y-56049714D01*
X156937000Y-56049714D02*
X156984619Y-56097333D01*
X156889380Y-56430667D02*
X156889380Y-57049714D01*
X156889380Y-57049714D02*
X157270333Y-56716381D01*
X157270333Y-56716381D02*
X157270333Y-56859238D01*
X157270333Y-56859238D02*
X157317952Y-56954476D01*
X157317952Y-56954476D02*
X157365571Y-57002095D01*
X157365571Y-57002095D02*
X157460809Y-57049714D01*
X157460809Y-57049714D02*
X157698904Y-57049714D01*
X157698904Y-57049714D02*
X157794142Y-57002095D01*
X157794142Y-57002095D02*
X157841761Y-56954476D01*
X157841761Y-56954476D02*
X157889380Y-56859238D01*
X157889380Y-56859238D02*
X157889380Y-56573524D01*
X157889380Y-56573524D02*
X157841761Y-56478286D01*
X157841761Y-56478286D02*
X157794142Y-56430667D01*
X23852094Y-68227380D02*
X23852094Y-67227380D01*
X23852094Y-67227380D02*
X23613999Y-67227380D01*
X23613999Y-67227380D02*
X23471142Y-67275000D01*
X23471142Y-67275000D02*
X23375904Y-67370238D01*
X23375904Y-67370238D02*
X23328285Y-67465476D01*
X23328285Y-67465476D02*
X23280666Y-67655952D01*
X23280666Y-67655952D02*
X23280666Y-67798809D01*
X23280666Y-67798809D02*
X23328285Y-67989285D01*
X23328285Y-67989285D02*
X23375904Y-68084523D01*
X23375904Y-68084523D02*
X23471142Y-68179761D01*
X23471142Y-68179761D02*
X23613999Y-68227380D01*
X23613999Y-68227380D02*
X23852094Y-68227380D01*
X22328285Y-68227380D02*
X22899713Y-68227380D01*
X22613999Y-68227380D02*
X22613999Y-67227380D01*
X22613999Y-67227380D02*
X22709237Y-67370238D01*
X22709237Y-67370238D02*
X22804475Y-67465476D01*
X22804475Y-67465476D02*
X22899713Y-67513095D01*
X43156094Y-68989380D02*
X43156094Y-67989380D01*
X43156094Y-67989380D02*
X42917999Y-67989380D01*
X42917999Y-67989380D02*
X42775142Y-68037000D01*
X42775142Y-68037000D02*
X42679904Y-68132238D01*
X42679904Y-68132238D02*
X42632285Y-68227476D01*
X42632285Y-68227476D02*
X42584666Y-68417952D01*
X42584666Y-68417952D02*
X42584666Y-68560809D01*
X42584666Y-68560809D02*
X42632285Y-68751285D01*
X42632285Y-68751285D02*
X42679904Y-68846523D01*
X42679904Y-68846523D02*
X42775142Y-68941761D01*
X42775142Y-68941761D02*
X42917999Y-68989380D01*
X42917999Y-68989380D02*
X43156094Y-68989380D01*
X42203713Y-68084619D02*
X42156094Y-68037000D01*
X42156094Y-68037000D02*
X42060856Y-67989380D01*
X42060856Y-67989380D02*
X41822761Y-67989380D01*
X41822761Y-67989380D02*
X41727523Y-68037000D01*
X41727523Y-68037000D02*
X41679904Y-68084619D01*
X41679904Y-68084619D02*
X41632285Y-68179857D01*
X41632285Y-68179857D02*
X41632285Y-68275095D01*
X41632285Y-68275095D02*
X41679904Y-68417952D01*
X41679904Y-68417952D02*
X42251332Y-68989380D01*
X42251332Y-68989380D02*
X41632285Y-68989380D01*
X62460094Y-72545380D02*
X62460094Y-71545380D01*
X62460094Y-71545380D02*
X62221999Y-71545380D01*
X62221999Y-71545380D02*
X62079142Y-71593000D01*
X62079142Y-71593000D02*
X61983904Y-71688238D01*
X61983904Y-71688238D02*
X61936285Y-71783476D01*
X61936285Y-71783476D02*
X61888666Y-71973952D01*
X61888666Y-71973952D02*
X61888666Y-72116809D01*
X61888666Y-72116809D02*
X61936285Y-72307285D01*
X61936285Y-72307285D02*
X61983904Y-72402523D01*
X61983904Y-72402523D02*
X62079142Y-72497761D01*
X62079142Y-72497761D02*
X62221999Y-72545380D01*
X62221999Y-72545380D02*
X62460094Y-72545380D01*
X61555332Y-71545380D02*
X60936285Y-71545380D01*
X60936285Y-71545380D02*
X61269618Y-71926333D01*
X61269618Y-71926333D02*
X61126761Y-71926333D01*
X61126761Y-71926333D02*
X61031523Y-71973952D01*
X61031523Y-71973952D02*
X60983904Y-72021571D01*
X60983904Y-72021571D02*
X60936285Y-72116809D01*
X60936285Y-72116809D02*
X60936285Y-72354904D01*
X60936285Y-72354904D02*
X60983904Y-72450142D01*
X60983904Y-72450142D02*
X61031523Y-72497761D01*
X61031523Y-72497761D02*
X61126761Y-72545380D01*
X61126761Y-72545380D02*
X61412475Y-72545380D01*
X61412475Y-72545380D02*
X61507713Y-72497761D01*
X61507713Y-72497761D02*
X61555332Y-72450142D01*
X81764094Y-76101380D02*
X81764094Y-75101380D01*
X81764094Y-75101380D02*
X81525999Y-75101380D01*
X81525999Y-75101380D02*
X81383142Y-75149000D01*
X81383142Y-75149000D02*
X81287904Y-75244238D01*
X81287904Y-75244238D02*
X81240285Y-75339476D01*
X81240285Y-75339476D02*
X81192666Y-75529952D01*
X81192666Y-75529952D02*
X81192666Y-75672809D01*
X81192666Y-75672809D02*
X81240285Y-75863285D01*
X81240285Y-75863285D02*
X81287904Y-75958523D01*
X81287904Y-75958523D02*
X81383142Y-76053761D01*
X81383142Y-76053761D02*
X81525999Y-76101380D01*
X81525999Y-76101380D02*
X81764094Y-76101380D01*
X80335523Y-75434714D02*
X80335523Y-76101380D01*
X80573618Y-75053761D02*
X80811713Y-75768047D01*
X80811713Y-75768047D02*
X80192666Y-75768047D01*
X101068094Y-79657380D02*
X101068094Y-78657380D01*
X101068094Y-78657380D02*
X100829999Y-78657380D01*
X100829999Y-78657380D02*
X100687142Y-78705000D01*
X100687142Y-78705000D02*
X100591904Y-78800238D01*
X100591904Y-78800238D02*
X100544285Y-78895476D01*
X100544285Y-78895476D02*
X100496666Y-79085952D01*
X100496666Y-79085952D02*
X100496666Y-79228809D01*
X100496666Y-79228809D02*
X100544285Y-79419285D01*
X100544285Y-79419285D02*
X100591904Y-79514523D01*
X100591904Y-79514523D02*
X100687142Y-79609761D01*
X100687142Y-79609761D02*
X100829999Y-79657380D01*
X100829999Y-79657380D02*
X101068094Y-79657380D01*
X99591904Y-78657380D02*
X100068094Y-78657380D01*
X100068094Y-78657380D02*
X100115713Y-79133571D01*
X100115713Y-79133571D02*
X100068094Y-79085952D01*
X100068094Y-79085952D02*
X99972856Y-79038333D01*
X99972856Y-79038333D02*
X99734761Y-79038333D01*
X99734761Y-79038333D02*
X99639523Y-79085952D01*
X99639523Y-79085952D02*
X99591904Y-79133571D01*
X99591904Y-79133571D02*
X99544285Y-79228809D01*
X99544285Y-79228809D02*
X99544285Y-79466904D01*
X99544285Y-79466904D02*
X99591904Y-79562142D01*
X99591904Y-79562142D02*
X99639523Y-79609761D01*
X99639523Y-79609761D02*
X99734761Y-79657380D01*
X99734761Y-79657380D02*
X99972856Y-79657380D01*
X99972856Y-79657380D02*
X100068094Y-79609761D01*
X100068094Y-79609761D02*
X100115713Y-79562142D01*
X120372094Y-83467380D02*
X120372094Y-82467380D01*
X120372094Y-82467380D02*
X120133999Y-82467380D01*
X120133999Y-82467380D02*
X119991142Y-82515000D01*
X119991142Y-82515000D02*
X119895904Y-82610238D01*
X119895904Y-82610238D02*
X119848285Y-82705476D01*
X119848285Y-82705476D02*
X119800666Y-82895952D01*
X119800666Y-82895952D02*
X119800666Y-83038809D01*
X119800666Y-83038809D02*
X119848285Y-83229285D01*
X119848285Y-83229285D02*
X119895904Y-83324523D01*
X119895904Y-83324523D02*
X119991142Y-83419761D01*
X119991142Y-83419761D02*
X120133999Y-83467380D01*
X120133999Y-83467380D02*
X120372094Y-83467380D01*
X118943523Y-82467380D02*
X119133999Y-82467380D01*
X119133999Y-82467380D02*
X119229237Y-82515000D01*
X119229237Y-82515000D02*
X119276856Y-82562619D01*
X119276856Y-82562619D02*
X119372094Y-82705476D01*
X119372094Y-82705476D02*
X119419713Y-82895952D01*
X119419713Y-82895952D02*
X119419713Y-83276904D01*
X119419713Y-83276904D02*
X119372094Y-83372142D01*
X119372094Y-83372142D02*
X119324475Y-83419761D01*
X119324475Y-83419761D02*
X119229237Y-83467380D01*
X119229237Y-83467380D02*
X119038761Y-83467380D01*
X119038761Y-83467380D02*
X118943523Y-83419761D01*
X118943523Y-83419761D02*
X118895904Y-83372142D01*
X118895904Y-83372142D02*
X118848285Y-83276904D01*
X118848285Y-83276904D02*
X118848285Y-83038809D01*
X118848285Y-83038809D02*
X118895904Y-82943571D01*
X118895904Y-82943571D02*
X118943523Y-82895952D01*
X118943523Y-82895952D02*
X119038761Y-82848333D01*
X119038761Y-82848333D02*
X119229237Y-82848333D01*
X119229237Y-82848333D02*
X119324475Y-82895952D01*
X119324475Y-82895952D02*
X119372094Y-82943571D01*
X119372094Y-82943571D02*
X119419713Y-83038809D01*
X139422094Y-87785380D02*
X139422094Y-86785380D01*
X139422094Y-86785380D02*
X139183999Y-86785380D01*
X139183999Y-86785380D02*
X139041142Y-86833000D01*
X139041142Y-86833000D02*
X138945904Y-86928238D01*
X138945904Y-86928238D02*
X138898285Y-87023476D01*
X138898285Y-87023476D02*
X138850666Y-87213952D01*
X138850666Y-87213952D02*
X138850666Y-87356809D01*
X138850666Y-87356809D02*
X138898285Y-87547285D01*
X138898285Y-87547285D02*
X138945904Y-87642523D01*
X138945904Y-87642523D02*
X139041142Y-87737761D01*
X139041142Y-87737761D02*
X139183999Y-87785380D01*
X139183999Y-87785380D02*
X139422094Y-87785380D01*
X138517332Y-86785380D02*
X137850666Y-86785380D01*
X137850666Y-86785380D02*
X138279237Y-87785380D01*
X39346094Y-88547380D02*
X39346094Y-87547380D01*
X39346094Y-87547380D02*
X39107999Y-87547380D01*
X39107999Y-87547380D02*
X38965142Y-87595000D01*
X38965142Y-87595000D02*
X38869904Y-87690238D01*
X38869904Y-87690238D02*
X38822285Y-87785476D01*
X38822285Y-87785476D02*
X38774666Y-87975952D01*
X38774666Y-87975952D02*
X38774666Y-88118809D01*
X38774666Y-88118809D02*
X38822285Y-88309285D01*
X38822285Y-88309285D02*
X38869904Y-88404523D01*
X38869904Y-88404523D02*
X38965142Y-88499761D01*
X38965142Y-88499761D02*
X39107999Y-88547380D01*
X39107999Y-88547380D02*
X39346094Y-88547380D01*
X38203237Y-87975952D02*
X38298475Y-87928333D01*
X38298475Y-87928333D02*
X38346094Y-87880714D01*
X38346094Y-87880714D02*
X38393713Y-87785476D01*
X38393713Y-87785476D02*
X38393713Y-87737857D01*
X38393713Y-87737857D02*
X38346094Y-87642619D01*
X38346094Y-87642619D02*
X38298475Y-87595000D01*
X38298475Y-87595000D02*
X38203237Y-87547380D01*
X38203237Y-87547380D02*
X38012761Y-87547380D01*
X38012761Y-87547380D02*
X37917523Y-87595000D01*
X37917523Y-87595000D02*
X37869904Y-87642619D01*
X37869904Y-87642619D02*
X37822285Y-87737857D01*
X37822285Y-87737857D02*
X37822285Y-87785476D01*
X37822285Y-87785476D02*
X37869904Y-87880714D01*
X37869904Y-87880714D02*
X37917523Y-87928333D01*
X37917523Y-87928333D02*
X38012761Y-87975952D01*
X38012761Y-87975952D02*
X38203237Y-87975952D01*
X38203237Y-87975952D02*
X38298475Y-88023571D01*
X38298475Y-88023571D02*
X38346094Y-88071190D01*
X38346094Y-88071190D02*
X38393713Y-88166428D01*
X38393713Y-88166428D02*
X38393713Y-88356904D01*
X38393713Y-88356904D02*
X38346094Y-88452142D01*
X38346094Y-88452142D02*
X38298475Y-88499761D01*
X38298475Y-88499761D02*
X38203237Y-88547380D01*
X38203237Y-88547380D02*
X38012761Y-88547380D01*
X38012761Y-88547380D02*
X37917523Y-88499761D01*
X37917523Y-88499761D02*
X37869904Y-88452142D01*
X37869904Y-88452142D02*
X37822285Y-88356904D01*
X37822285Y-88356904D02*
X37822285Y-88166428D01*
X37822285Y-88166428D02*
X37869904Y-88071190D01*
X37869904Y-88071190D02*
X37917523Y-88023571D01*
X37917523Y-88023571D02*
X38012761Y-87975952D01*
X58650094Y-91849380D02*
X58650094Y-90849380D01*
X58650094Y-90849380D02*
X58411999Y-90849380D01*
X58411999Y-90849380D02*
X58269142Y-90897000D01*
X58269142Y-90897000D02*
X58173904Y-90992238D01*
X58173904Y-90992238D02*
X58126285Y-91087476D01*
X58126285Y-91087476D02*
X58078666Y-91277952D01*
X58078666Y-91277952D02*
X58078666Y-91420809D01*
X58078666Y-91420809D02*
X58126285Y-91611285D01*
X58126285Y-91611285D02*
X58173904Y-91706523D01*
X58173904Y-91706523D02*
X58269142Y-91801761D01*
X58269142Y-91801761D02*
X58411999Y-91849380D01*
X58411999Y-91849380D02*
X58650094Y-91849380D01*
X57602475Y-91849380D02*
X57411999Y-91849380D01*
X57411999Y-91849380D02*
X57316761Y-91801761D01*
X57316761Y-91801761D02*
X57269142Y-91754142D01*
X57269142Y-91754142D02*
X57173904Y-91611285D01*
X57173904Y-91611285D02*
X57126285Y-91420809D01*
X57126285Y-91420809D02*
X57126285Y-91039857D01*
X57126285Y-91039857D02*
X57173904Y-90944619D01*
X57173904Y-90944619D02*
X57221523Y-90897000D01*
X57221523Y-90897000D02*
X57316761Y-90849380D01*
X57316761Y-90849380D02*
X57507237Y-90849380D01*
X57507237Y-90849380D02*
X57602475Y-90897000D01*
X57602475Y-90897000D02*
X57650094Y-90944619D01*
X57650094Y-90944619D02*
X57697713Y-91039857D01*
X57697713Y-91039857D02*
X57697713Y-91277952D01*
X57697713Y-91277952D02*
X57650094Y-91373190D01*
X57650094Y-91373190D02*
X57602475Y-91420809D01*
X57602475Y-91420809D02*
X57507237Y-91468428D01*
X57507237Y-91468428D02*
X57316761Y-91468428D01*
X57316761Y-91468428D02*
X57221523Y-91420809D01*
X57221523Y-91420809D02*
X57173904Y-91373190D01*
X57173904Y-91373190D02*
X57126285Y-91277952D01*
X78430285Y-95405380D02*
X78430285Y-94405380D01*
X78430285Y-94405380D02*
X78192190Y-94405380D01*
X78192190Y-94405380D02*
X78049333Y-94453000D01*
X78049333Y-94453000D02*
X77954095Y-94548238D01*
X77954095Y-94548238D02*
X77906476Y-94643476D01*
X77906476Y-94643476D02*
X77858857Y-94833952D01*
X77858857Y-94833952D02*
X77858857Y-94976809D01*
X77858857Y-94976809D02*
X77906476Y-95167285D01*
X77906476Y-95167285D02*
X77954095Y-95262523D01*
X77954095Y-95262523D02*
X78049333Y-95357761D01*
X78049333Y-95357761D02*
X78192190Y-95405380D01*
X78192190Y-95405380D02*
X78430285Y-95405380D01*
X76906476Y-95405380D02*
X77477904Y-95405380D01*
X77192190Y-95405380D02*
X77192190Y-94405380D01*
X77192190Y-94405380D02*
X77287428Y-94548238D01*
X77287428Y-94548238D02*
X77382666Y-94643476D01*
X77382666Y-94643476D02*
X77477904Y-94691095D01*
X76287428Y-94405380D02*
X76192190Y-94405380D01*
X76192190Y-94405380D02*
X76096952Y-94453000D01*
X76096952Y-94453000D02*
X76049333Y-94500619D01*
X76049333Y-94500619D02*
X76001714Y-94595857D01*
X76001714Y-94595857D02*
X75954095Y-94786333D01*
X75954095Y-94786333D02*
X75954095Y-95024428D01*
X75954095Y-95024428D02*
X76001714Y-95214904D01*
X76001714Y-95214904D02*
X76049333Y-95310142D01*
X76049333Y-95310142D02*
X76096952Y-95357761D01*
X76096952Y-95357761D02*
X76192190Y-95405380D01*
X76192190Y-95405380D02*
X76287428Y-95405380D01*
X76287428Y-95405380D02*
X76382666Y-95357761D01*
X76382666Y-95357761D02*
X76430285Y-95310142D01*
X76430285Y-95310142D02*
X76477904Y-95214904D01*
X76477904Y-95214904D02*
X76525523Y-95024428D01*
X76525523Y-95024428D02*
X76525523Y-94786333D01*
X76525523Y-94786333D02*
X76477904Y-94595857D01*
X76477904Y-94595857D02*
X76430285Y-94500619D01*
X76430285Y-94500619D02*
X76382666Y-94453000D01*
X76382666Y-94453000D02*
X76287428Y-94405380D01*
X97734285Y-98961380D02*
X97734285Y-97961380D01*
X97734285Y-97961380D02*
X97496190Y-97961380D01*
X97496190Y-97961380D02*
X97353333Y-98009000D01*
X97353333Y-98009000D02*
X97258095Y-98104238D01*
X97258095Y-98104238D02*
X97210476Y-98199476D01*
X97210476Y-98199476D02*
X97162857Y-98389952D01*
X97162857Y-98389952D02*
X97162857Y-98532809D01*
X97162857Y-98532809D02*
X97210476Y-98723285D01*
X97210476Y-98723285D02*
X97258095Y-98818523D01*
X97258095Y-98818523D02*
X97353333Y-98913761D01*
X97353333Y-98913761D02*
X97496190Y-98961380D01*
X97496190Y-98961380D02*
X97734285Y-98961380D01*
X96210476Y-98961380D02*
X96781904Y-98961380D01*
X96496190Y-98961380D02*
X96496190Y-97961380D01*
X96496190Y-97961380D02*
X96591428Y-98104238D01*
X96591428Y-98104238D02*
X96686666Y-98199476D01*
X96686666Y-98199476D02*
X96781904Y-98247095D01*
X95258095Y-98961380D02*
X95829523Y-98961380D01*
X95543809Y-98961380D02*
X95543809Y-97961380D01*
X95543809Y-97961380D02*
X95639047Y-98104238D01*
X95639047Y-98104238D02*
X95734285Y-98199476D01*
X95734285Y-98199476D02*
X95829523Y-98247095D01*
X117038285Y-102771380D02*
X117038285Y-101771380D01*
X117038285Y-101771380D02*
X116800190Y-101771380D01*
X116800190Y-101771380D02*
X116657333Y-101819000D01*
X116657333Y-101819000D02*
X116562095Y-101914238D01*
X116562095Y-101914238D02*
X116514476Y-102009476D01*
X116514476Y-102009476D02*
X116466857Y-102199952D01*
X116466857Y-102199952D02*
X116466857Y-102342809D01*
X116466857Y-102342809D02*
X116514476Y-102533285D01*
X116514476Y-102533285D02*
X116562095Y-102628523D01*
X116562095Y-102628523D02*
X116657333Y-102723761D01*
X116657333Y-102723761D02*
X116800190Y-102771380D01*
X116800190Y-102771380D02*
X117038285Y-102771380D01*
X115514476Y-102771380D02*
X116085904Y-102771380D01*
X115800190Y-102771380D02*
X115800190Y-101771380D01*
X115800190Y-101771380D02*
X115895428Y-101914238D01*
X115895428Y-101914238D02*
X115990666Y-102009476D01*
X115990666Y-102009476D02*
X116085904Y-102057095D01*
X115133523Y-101866619D02*
X115085904Y-101819000D01*
X115085904Y-101819000D02*
X114990666Y-101771380D01*
X114990666Y-101771380D02*
X114752571Y-101771380D01*
X114752571Y-101771380D02*
X114657333Y-101819000D01*
X114657333Y-101819000D02*
X114609714Y-101866619D01*
X114609714Y-101866619D02*
X114562095Y-101961857D01*
X114562095Y-101961857D02*
X114562095Y-102057095D01*
X114562095Y-102057095D02*
X114609714Y-102199952D01*
X114609714Y-102199952D02*
X115181142Y-102771380D01*
X115181142Y-102771380D02*
X114562095Y-102771380D01*
X136342285Y-107089380D02*
X136342285Y-106089380D01*
X136342285Y-106089380D02*
X136104190Y-106089380D01*
X136104190Y-106089380D02*
X135961333Y-106137000D01*
X135961333Y-106137000D02*
X135866095Y-106232238D01*
X135866095Y-106232238D02*
X135818476Y-106327476D01*
X135818476Y-106327476D02*
X135770857Y-106517952D01*
X135770857Y-106517952D02*
X135770857Y-106660809D01*
X135770857Y-106660809D02*
X135818476Y-106851285D01*
X135818476Y-106851285D02*
X135866095Y-106946523D01*
X135866095Y-106946523D02*
X135961333Y-107041761D01*
X135961333Y-107041761D02*
X136104190Y-107089380D01*
X136104190Y-107089380D02*
X136342285Y-107089380D01*
X134818476Y-107089380D02*
X135389904Y-107089380D01*
X135104190Y-107089380D02*
X135104190Y-106089380D01*
X135104190Y-106089380D02*
X135199428Y-106232238D01*
X135199428Y-106232238D02*
X135294666Y-106327476D01*
X135294666Y-106327476D02*
X135389904Y-106375095D01*
X134485142Y-106089380D02*
X133866095Y-106089380D01*
X133866095Y-106089380D02*
X134199428Y-106470333D01*
X134199428Y-106470333D02*
X134056571Y-106470333D01*
X134056571Y-106470333D02*
X133961333Y-106517952D01*
X133961333Y-106517952D02*
X133913714Y-106565571D01*
X133913714Y-106565571D02*
X133866095Y-106660809D01*
X133866095Y-106660809D02*
X133866095Y-106898904D01*
X133866095Y-106898904D02*
X133913714Y-106994142D01*
X133913714Y-106994142D02*
X133961333Y-107041761D01*
X133961333Y-107041761D02*
X134056571Y-107089380D01*
X134056571Y-107089380D02*
X134342285Y-107089380D01*
X134342285Y-107089380D02*
X134437523Y-107041761D01*
X134437523Y-107041761D02*
X134485142Y-106994142D01*
X155646285Y-109121380D02*
X155646285Y-108121380D01*
X155646285Y-108121380D02*
X155408190Y-108121380D01*
X155408190Y-108121380D02*
X155265333Y-108169000D01*
X155265333Y-108169000D02*
X155170095Y-108264238D01*
X155170095Y-108264238D02*
X155122476Y-108359476D01*
X155122476Y-108359476D02*
X155074857Y-108549952D01*
X155074857Y-108549952D02*
X155074857Y-108692809D01*
X155074857Y-108692809D02*
X155122476Y-108883285D01*
X155122476Y-108883285D02*
X155170095Y-108978523D01*
X155170095Y-108978523D02*
X155265333Y-109073761D01*
X155265333Y-109073761D02*
X155408190Y-109121380D01*
X155408190Y-109121380D02*
X155646285Y-109121380D01*
X154122476Y-109121380D02*
X154693904Y-109121380D01*
X154408190Y-109121380D02*
X154408190Y-108121380D01*
X154408190Y-108121380D02*
X154503428Y-108264238D01*
X154503428Y-108264238D02*
X154598666Y-108359476D01*
X154598666Y-108359476D02*
X154693904Y-108407095D01*
X153265333Y-108454714D02*
X153265333Y-109121380D01*
X153503428Y-108073761D02*
X153741523Y-108788047D01*
X153741523Y-108788047D02*
X153122476Y-108788047D01*
X20518285Y-89563380D02*
X20518285Y-88563380D01*
X20518285Y-88563380D02*
X20280190Y-88563380D01*
X20280190Y-88563380D02*
X20137333Y-88611000D01*
X20137333Y-88611000D02*
X20042095Y-88706238D01*
X20042095Y-88706238D02*
X19994476Y-88801476D01*
X19994476Y-88801476D02*
X19946857Y-88991952D01*
X19946857Y-88991952D02*
X19946857Y-89134809D01*
X19946857Y-89134809D02*
X19994476Y-89325285D01*
X19994476Y-89325285D02*
X20042095Y-89420523D01*
X20042095Y-89420523D02*
X20137333Y-89515761D01*
X20137333Y-89515761D02*
X20280190Y-89563380D01*
X20280190Y-89563380D02*
X20518285Y-89563380D01*
X18994476Y-89563380D02*
X19565904Y-89563380D01*
X19280190Y-89563380D02*
X19280190Y-88563380D01*
X19280190Y-88563380D02*
X19375428Y-88706238D01*
X19375428Y-88706238D02*
X19470666Y-88801476D01*
X19470666Y-88801476D02*
X19565904Y-88849095D01*
X18089714Y-88563380D02*
X18565904Y-88563380D01*
X18565904Y-88563380D02*
X18613523Y-89039571D01*
X18613523Y-89039571D02*
X18565904Y-88991952D01*
X18565904Y-88991952D02*
X18470666Y-88944333D01*
X18470666Y-88944333D02*
X18232571Y-88944333D01*
X18232571Y-88944333D02*
X18137333Y-88991952D01*
X18137333Y-88991952D02*
X18089714Y-89039571D01*
X18089714Y-89039571D02*
X18042095Y-89134809D01*
X18042095Y-89134809D02*
X18042095Y-89372904D01*
X18042095Y-89372904D02*
X18089714Y-89468142D01*
X18089714Y-89468142D02*
X18137333Y-89515761D01*
X18137333Y-89515761D02*
X18232571Y-89563380D01*
X18232571Y-89563380D02*
X18470666Y-89563380D01*
X18470666Y-89563380D02*
X18565904Y-89515761D01*
X18565904Y-89515761D02*
X18613523Y-89468142D01*
X59126285Y-111153380D02*
X59126285Y-110153380D01*
X59126285Y-110153380D02*
X58888190Y-110153380D01*
X58888190Y-110153380D02*
X58745333Y-110201000D01*
X58745333Y-110201000D02*
X58650095Y-110296238D01*
X58650095Y-110296238D02*
X58602476Y-110391476D01*
X58602476Y-110391476D02*
X58554857Y-110581952D01*
X58554857Y-110581952D02*
X58554857Y-110724809D01*
X58554857Y-110724809D02*
X58602476Y-110915285D01*
X58602476Y-110915285D02*
X58650095Y-111010523D01*
X58650095Y-111010523D02*
X58745333Y-111105761D01*
X58745333Y-111105761D02*
X58888190Y-111153380D01*
X58888190Y-111153380D02*
X59126285Y-111153380D01*
X57602476Y-111153380D02*
X58173904Y-111153380D01*
X57888190Y-111153380D02*
X57888190Y-110153380D01*
X57888190Y-110153380D02*
X57983428Y-110296238D01*
X57983428Y-110296238D02*
X58078666Y-110391476D01*
X58078666Y-110391476D02*
X58173904Y-110439095D01*
X56745333Y-110153380D02*
X56935809Y-110153380D01*
X56935809Y-110153380D02*
X57031047Y-110201000D01*
X57031047Y-110201000D02*
X57078666Y-110248619D01*
X57078666Y-110248619D02*
X57173904Y-110391476D01*
X57173904Y-110391476D02*
X57221523Y-110581952D01*
X57221523Y-110581952D02*
X57221523Y-110962904D01*
X57221523Y-110962904D02*
X57173904Y-111058142D01*
X57173904Y-111058142D02*
X57126285Y-111105761D01*
X57126285Y-111105761D02*
X57031047Y-111153380D01*
X57031047Y-111153380D02*
X56840571Y-111153380D01*
X56840571Y-111153380D02*
X56745333Y-111105761D01*
X56745333Y-111105761D02*
X56697714Y-111058142D01*
X56697714Y-111058142D02*
X56650095Y-110962904D01*
X56650095Y-110962904D02*
X56650095Y-110724809D01*
X56650095Y-110724809D02*
X56697714Y-110629571D01*
X56697714Y-110629571D02*
X56745333Y-110581952D01*
X56745333Y-110581952D02*
X56840571Y-110534333D01*
X56840571Y-110534333D02*
X57031047Y-110534333D01*
X57031047Y-110534333D02*
X57126285Y-110581952D01*
X57126285Y-110581952D02*
X57173904Y-110629571D01*
X57173904Y-110629571D02*
X57221523Y-110724809D01*
X78430285Y-114709380D02*
X78430285Y-113709380D01*
X78430285Y-113709380D02*
X78192190Y-113709380D01*
X78192190Y-113709380D02*
X78049333Y-113757000D01*
X78049333Y-113757000D02*
X77954095Y-113852238D01*
X77954095Y-113852238D02*
X77906476Y-113947476D01*
X77906476Y-113947476D02*
X77858857Y-114137952D01*
X77858857Y-114137952D02*
X77858857Y-114280809D01*
X77858857Y-114280809D02*
X77906476Y-114471285D01*
X77906476Y-114471285D02*
X77954095Y-114566523D01*
X77954095Y-114566523D02*
X78049333Y-114661761D01*
X78049333Y-114661761D02*
X78192190Y-114709380D01*
X78192190Y-114709380D02*
X78430285Y-114709380D01*
X76906476Y-114709380D02*
X77477904Y-114709380D01*
X77192190Y-114709380D02*
X77192190Y-113709380D01*
X77192190Y-113709380D02*
X77287428Y-113852238D01*
X77287428Y-113852238D02*
X77382666Y-113947476D01*
X77382666Y-113947476D02*
X77477904Y-113995095D01*
X76573142Y-113709380D02*
X75906476Y-113709380D01*
X75906476Y-113709380D02*
X76335047Y-114709380D01*
X97734285Y-118519380D02*
X97734285Y-117519380D01*
X97734285Y-117519380D02*
X97496190Y-117519380D01*
X97496190Y-117519380D02*
X97353333Y-117567000D01*
X97353333Y-117567000D02*
X97258095Y-117662238D01*
X97258095Y-117662238D02*
X97210476Y-117757476D01*
X97210476Y-117757476D02*
X97162857Y-117947952D01*
X97162857Y-117947952D02*
X97162857Y-118090809D01*
X97162857Y-118090809D02*
X97210476Y-118281285D01*
X97210476Y-118281285D02*
X97258095Y-118376523D01*
X97258095Y-118376523D02*
X97353333Y-118471761D01*
X97353333Y-118471761D02*
X97496190Y-118519380D01*
X97496190Y-118519380D02*
X97734285Y-118519380D01*
X96210476Y-118519380D02*
X96781904Y-118519380D01*
X96496190Y-118519380D02*
X96496190Y-117519380D01*
X96496190Y-117519380D02*
X96591428Y-117662238D01*
X96591428Y-117662238D02*
X96686666Y-117757476D01*
X96686666Y-117757476D02*
X96781904Y-117805095D01*
X95639047Y-117947952D02*
X95734285Y-117900333D01*
X95734285Y-117900333D02*
X95781904Y-117852714D01*
X95781904Y-117852714D02*
X95829523Y-117757476D01*
X95829523Y-117757476D02*
X95829523Y-117709857D01*
X95829523Y-117709857D02*
X95781904Y-117614619D01*
X95781904Y-117614619D02*
X95734285Y-117567000D01*
X95734285Y-117567000D02*
X95639047Y-117519380D01*
X95639047Y-117519380D02*
X95448571Y-117519380D01*
X95448571Y-117519380D02*
X95353333Y-117567000D01*
X95353333Y-117567000D02*
X95305714Y-117614619D01*
X95305714Y-117614619D02*
X95258095Y-117709857D01*
X95258095Y-117709857D02*
X95258095Y-117757476D01*
X95258095Y-117757476D02*
X95305714Y-117852714D01*
X95305714Y-117852714D02*
X95353333Y-117900333D01*
X95353333Y-117900333D02*
X95448571Y-117947952D01*
X95448571Y-117947952D02*
X95639047Y-117947952D01*
X95639047Y-117947952D02*
X95734285Y-117995571D01*
X95734285Y-117995571D02*
X95781904Y-118043190D01*
X95781904Y-118043190D02*
X95829523Y-118138428D01*
X95829523Y-118138428D02*
X95829523Y-118328904D01*
X95829523Y-118328904D02*
X95781904Y-118424142D01*
X95781904Y-118424142D02*
X95734285Y-118471761D01*
X95734285Y-118471761D02*
X95639047Y-118519380D01*
X95639047Y-118519380D02*
X95448571Y-118519380D01*
X95448571Y-118519380D02*
X95353333Y-118471761D01*
X95353333Y-118471761D02*
X95305714Y-118424142D01*
X95305714Y-118424142D02*
X95258095Y-118328904D01*
X95258095Y-118328904D02*
X95258095Y-118138428D01*
X95258095Y-118138428D02*
X95305714Y-118043190D01*
X95305714Y-118043190D02*
X95353333Y-117995571D01*
X95353333Y-117995571D02*
X95448571Y-117947952D01*
X117038285Y-121821380D02*
X117038285Y-120821380D01*
X117038285Y-120821380D02*
X116800190Y-120821380D01*
X116800190Y-120821380D02*
X116657333Y-120869000D01*
X116657333Y-120869000D02*
X116562095Y-120964238D01*
X116562095Y-120964238D02*
X116514476Y-121059476D01*
X116514476Y-121059476D02*
X116466857Y-121249952D01*
X116466857Y-121249952D02*
X116466857Y-121392809D01*
X116466857Y-121392809D02*
X116514476Y-121583285D01*
X116514476Y-121583285D02*
X116562095Y-121678523D01*
X116562095Y-121678523D02*
X116657333Y-121773761D01*
X116657333Y-121773761D02*
X116800190Y-121821380D01*
X116800190Y-121821380D02*
X117038285Y-121821380D01*
X115514476Y-121821380D02*
X116085904Y-121821380D01*
X115800190Y-121821380D02*
X115800190Y-120821380D01*
X115800190Y-120821380D02*
X115895428Y-120964238D01*
X115895428Y-120964238D02*
X115990666Y-121059476D01*
X115990666Y-121059476D02*
X116085904Y-121107095D01*
X115038285Y-121821380D02*
X114847809Y-121821380D01*
X114847809Y-121821380D02*
X114752571Y-121773761D01*
X114752571Y-121773761D02*
X114704952Y-121726142D01*
X114704952Y-121726142D02*
X114609714Y-121583285D01*
X114609714Y-121583285D02*
X114562095Y-121392809D01*
X114562095Y-121392809D02*
X114562095Y-121011857D01*
X114562095Y-121011857D02*
X114609714Y-120916619D01*
X114609714Y-120916619D02*
X114657333Y-120869000D01*
X114657333Y-120869000D02*
X114752571Y-120821380D01*
X114752571Y-120821380D02*
X114943047Y-120821380D01*
X114943047Y-120821380D02*
X115038285Y-120869000D01*
X115038285Y-120869000D02*
X115085904Y-120916619D01*
X115085904Y-120916619D02*
X115133523Y-121011857D01*
X115133523Y-121011857D02*
X115133523Y-121249952D01*
X115133523Y-121249952D02*
X115085904Y-121345190D01*
X115085904Y-121345190D02*
X115038285Y-121392809D01*
X115038285Y-121392809D02*
X114943047Y-121440428D01*
X114943047Y-121440428D02*
X114752571Y-121440428D01*
X114752571Y-121440428D02*
X114657333Y-121392809D01*
X114657333Y-121392809D02*
X114609714Y-121345190D01*
X114609714Y-121345190D02*
X114562095Y-121249952D01*
X136342285Y-126393380D02*
X136342285Y-125393380D01*
X136342285Y-125393380D02*
X136104190Y-125393380D01*
X136104190Y-125393380D02*
X135961333Y-125441000D01*
X135961333Y-125441000D02*
X135866095Y-125536238D01*
X135866095Y-125536238D02*
X135818476Y-125631476D01*
X135818476Y-125631476D02*
X135770857Y-125821952D01*
X135770857Y-125821952D02*
X135770857Y-125964809D01*
X135770857Y-125964809D02*
X135818476Y-126155285D01*
X135818476Y-126155285D02*
X135866095Y-126250523D01*
X135866095Y-126250523D02*
X135961333Y-126345761D01*
X135961333Y-126345761D02*
X136104190Y-126393380D01*
X136104190Y-126393380D02*
X136342285Y-126393380D01*
X135389904Y-125488619D02*
X135342285Y-125441000D01*
X135342285Y-125441000D02*
X135247047Y-125393380D01*
X135247047Y-125393380D02*
X135008952Y-125393380D01*
X135008952Y-125393380D02*
X134913714Y-125441000D01*
X134913714Y-125441000D02*
X134866095Y-125488619D01*
X134866095Y-125488619D02*
X134818476Y-125583857D01*
X134818476Y-125583857D02*
X134818476Y-125679095D01*
X134818476Y-125679095D02*
X134866095Y-125821952D01*
X134866095Y-125821952D02*
X135437523Y-126393380D01*
X135437523Y-126393380D02*
X134818476Y-126393380D01*
X134199428Y-125393380D02*
X134104190Y-125393380D01*
X134104190Y-125393380D02*
X134008952Y-125441000D01*
X134008952Y-125441000D02*
X133961333Y-125488619D01*
X133961333Y-125488619D02*
X133913714Y-125583857D01*
X133913714Y-125583857D02*
X133866095Y-125774333D01*
X133866095Y-125774333D02*
X133866095Y-126012428D01*
X133866095Y-126012428D02*
X133913714Y-126202904D01*
X133913714Y-126202904D02*
X133961333Y-126298142D01*
X133961333Y-126298142D02*
X134008952Y-126345761D01*
X134008952Y-126345761D02*
X134104190Y-126393380D01*
X134104190Y-126393380D02*
X134199428Y-126393380D01*
X134199428Y-126393380D02*
X134294666Y-126345761D01*
X134294666Y-126345761D02*
X134342285Y-126298142D01*
X134342285Y-126298142D02*
X134389904Y-126202904D01*
X134389904Y-126202904D02*
X134437523Y-126012428D01*
X134437523Y-126012428D02*
X134437523Y-125774333D01*
X134437523Y-125774333D02*
X134389904Y-125583857D01*
X134389904Y-125583857D02*
X134342285Y-125488619D01*
X134342285Y-125488619D02*
X134294666Y-125441000D01*
X134294666Y-125441000D02*
X134199428Y-125393380D01*
X155646285Y-128425380D02*
X155646285Y-127425380D01*
X155646285Y-127425380D02*
X155408190Y-127425380D01*
X155408190Y-127425380D02*
X155265333Y-127473000D01*
X155265333Y-127473000D02*
X155170095Y-127568238D01*
X155170095Y-127568238D02*
X155122476Y-127663476D01*
X155122476Y-127663476D02*
X155074857Y-127853952D01*
X155074857Y-127853952D02*
X155074857Y-127996809D01*
X155074857Y-127996809D02*
X155122476Y-128187285D01*
X155122476Y-128187285D02*
X155170095Y-128282523D01*
X155170095Y-128282523D02*
X155265333Y-128377761D01*
X155265333Y-128377761D02*
X155408190Y-128425380D01*
X155408190Y-128425380D02*
X155646285Y-128425380D01*
X154693904Y-127520619D02*
X154646285Y-127473000D01*
X154646285Y-127473000D02*
X154551047Y-127425380D01*
X154551047Y-127425380D02*
X154312952Y-127425380D01*
X154312952Y-127425380D02*
X154217714Y-127473000D01*
X154217714Y-127473000D02*
X154170095Y-127520619D01*
X154170095Y-127520619D02*
X154122476Y-127615857D01*
X154122476Y-127615857D02*
X154122476Y-127711095D01*
X154122476Y-127711095D02*
X154170095Y-127853952D01*
X154170095Y-127853952D02*
X154741523Y-128425380D01*
X154741523Y-128425380D02*
X154122476Y-128425380D01*
X153170095Y-128425380D02*
X153741523Y-128425380D01*
X153455809Y-128425380D02*
X153455809Y-127425380D01*
X153455809Y-127425380D02*
X153551047Y-127568238D01*
X153551047Y-127568238D02*
X153646285Y-127663476D01*
X153646285Y-127663476D02*
X153741523Y-127711095D01*
X39822285Y-107597380D02*
X39822285Y-106597380D01*
X39822285Y-106597380D02*
X39584190Y-106597380D01*
X39584190Y-106597380D02*
X39441333Y-106645000D01*
X39441333Y-106645000D02*
X39346095Y-106740238D01*
X39346095Y-106740238D02*
X39298476Y-106835476D01*
X39298476Y-106835476D02*
X39250857Y-107025952D01*
X39250857Y-107025952D02*
X39250857Y-107168809D01*
X39250857Y-107168809D02*
X39298476Y-107359285D01*
X39298476Y-107359285D02*
X39346095Y-107454523D01*
X39346095Y-107454523D02*
X39441333Y-107549761D01*
X39441333Y-107549761D02*
X39584190Y-107597380D01*
X39584190Y-107597380D02*
X39822285Y-107597380D01*
X38869904Y-106692619D02*
X38822285Y-106645000D01*
X38822285Y-106645000D02*
X38727047Y-106597380D01*
X38727047Y-106597380D02*
X38488952Y-106597380D01*
X38488952Y-106597380D02*
X38393714Y-106645000D01*
X38393714Y-106645000D02*
X38346095Y-106692619D01*
X38346095Y-106692619D02*
X38298476Y-106787857D01*
X38298476Y-106787857D02*
X38298476Y-106883095D01*
X38298476Y-106883095D02*
X38346095Y-107025952D01*
X38346095Y-107025952D02*
X38917523Y-107597380D01*
X38917523Y-107597380D02*
X38298476Y-107597380D01*
X37965142Y-106597380D02*
X37346095Y-106597380D01*
X37346095Y-106597380D02*
X37679428Y-106978333D01*
X37679428Y-106978333D02*
X37536571Y-106978333D01*
X37536571Y-106978333D02*
X37441333Y-107025952D01*
X37441333Y-107025952D02*
X37393714Y-107073571D01*
X37393714Y-107073571D02*
X37346095Y-107168809D01*
X37346095Y-107168809D02*
X37346095Y-107406904D01*
X37346095Y-107406904D02*
X37393714Y-107502142D01*
X37393714Y-107502142D02*
X37441333Y-107549761D01*
X37441333Y-107549761D02*
X37536571Y-107597380D01*
X37536571Y-107597380D02*
X37822285Y-107597380D01*
X37822285Y-107597380D02*
X37917523Y-107549761D01*
X37917523Y-107549761D02*
X37965142Y-107502142D01*
X59126285Y-130711380D02*
X59126285Y-129711380D01*
X59126285Y-129711380D02*
X58888190Y-129711380D01*
X58888190Y-129711380D02*
X58745333Y-129759000D01*
X58745333Y-129759000D02*
X58650095Y-129854238D01*
X58650095Y-129854238D02*
X58602476Y-129949476D01*
X58602476Y-129949476D02*
X58554857Y-130139952D01*
X58554857Y-130139952D02*
X58554857Y-130282809D01*
X58554857Y-130282809D02*
X58602476Y-130473285D01*
X58602476Y-130473285D02*
X58650095Y-130568523D01*
X58650095Y-130568523D02*
X58745333Y-130663761D01*
X58745333Y-130663761D02*
X58888190Y-130711380D01*
X58888190Y-130711380D02*
X59126285Y-130711380D01*
X58173904Y-129806619D02*
X58126285Y-129759000D01*
X58126285Y-129759000D02*
X58031047Y-129711380D01*
X58031047Y-129711380D02*
X57792952Y-129711380D01*
X57792952Y-129711380D02*
X57697714Y-129759000D01*
X57697714Y-129759000D02*
X57650095Y-129806619D01*
X57650095Y-129806619D02*
X57602476Y-129901857D01*
X57602476Y-129901857D02*
X57602476Y-129997095D01*
X57602476Y-129997095D02*
X57650095Y-130139952D01*
X57650095Y-130139952D02*
X58221523Y-130711380D01*
X58221523Y-130711380D02*
X57602476Y-130711380D01*
X56745333Y-130044714D02*
X56745333Y-130711380D01*
X56983428Y-129663761D02*
X57221523Y-130378047D01*
X57221523Y-130378047D02*
X56602476Y-130378047D01*
X78430285Y-134013380D02*
X78430285Y-133013380D01*
X78430285Y-133013380D02*
X78192190Y-133013380D01*
X78192190Y-133013380D02*
X78049333Y-133061000D01*
X78049333Y-133061000D02*
X77954095Y-133156238D01*
X77954095Y-133156238D02*
X77906476Y-133251476D01*
X77906476Y-133251476D02*
X77858857Y-133441952D01*
X77858857Y-133441952D02*
X77858857Y-133584809D01*
X77858857Y-133584809D02*
X77906476Y-133775285D01*
X77906476Y-133775285D02*
X77954095Y-133870523D01*
X77954095Y-133870523D02*
X78049333Y-133965761D01*
X78049333Y-133965761D02*
X78192190Y-134013380D01*
X78192190Y-134013380D02*
X78430285Y-134013380D01*
X77477904Y-133108619D02*
X77430285Y-133061000D01*
X77430285Y-133061000D02*
X77335047Y-133013380D01*
X77335047Y-133013380D02*
X77096952Y-133013380D01*
X77096952Y-133013380D02*
X77001714Y-133061000D01*
X77001714Y-133061000D02*
X76954095Y-133108619D01*
X76954095Y-133108619D02*
X76906476Y-133203857D01*
X76906476Y-133203857D02*
X76906476Y-133299095D01*
X76906476Y-133299095D02*
X76954095Y-133441952D01*
X76954095Y-133441952D02*
X77525523Y-134013380D01*
X77525523Y-134013380D02*
X76906476Y-134013380D01*
X76001714Y-133013380D02*
X76477904Y-133013380D01*
X76477904Y-133013380D02*
X76525523Y-133489571D01*
X76525523Y-133489571D02*
X76477904Y-133441952D01*
X76477904Y-133441952D02*
X76382666Y-133394333D01*
X76382666Y-133394333D02*
X76144571Y-133394333D01*
X76144571Y-133394333D02*
X76049333Y-133441952D01*
X76049333Y-133441952D02*
X76001714Y-133489571D01*
X76001714Y-133489571D02*
X75954095Y-133584809D01*
X75954095Y-133584809D02*
X75954095Y-133822904D01*
X75954095Y-133822904D02*
X76001714Y-133918142D01*
X76001714Y-133918142D02*
X76049333Y-133965761D01*
X76049333Y-133965761D02*
X76144571Y-134013380D01*
X76144571Y-134013380D02*
X76382666Y-134013380D01*
X76382666Y-134013380D02*
X76477904Y-133965761D01*
X76477904Y-133965761D02*
X76525523Y-133918142D01*
X97734285Y-137569380D02*
X97734285Y-136569380D01*
X97734285Y-136569380D02*
X97496190Y-136569380D01*
X97496190Y-136569380D02*
X97353333Y-136617000D01*
X97353333Y-136617000D02*
X97258095Y-136712238D01*
X97258095Y-136712238D02*
X97210476Y-136807476D01*
X97210476Y-136807476D02*
X97162857Y-136997952D01*
X97162857Y-136997952D02*
X97162857Y-137140809D01*
X97162857Y-137140809D02*
X97210476Y-137331285D01*
X97210476Y-137331285D02*
X97258095Y-137426523D01*
X97258095Y-137426523D02*
X97353333Y-137521761D01*
X97353333Y-137521761D02*
X97496190Y-137569380D01*
X97496190Y-137569380D02*
X97734285Y-137569380D01*
X96781904Y-136664619D02*
X96734285Y-136617000D01*
X96734285Y-136617000D02*
X96639047Y-136569380D01*
X96639047Y-136569380D02*
X96400952Y-136569380D01*
X96400952Y-136569380D02*
X96305714Y-136617000D01*
X96305714Y-136617000D02*
X96258095Y-136664619D01*
X96258095Y-136664619D02*
X96210476Y-136759857D01*
X96210476Y-136759857D02*
X96210476Y-136855095D01*
X96210476Y-136855095D02*
X96258095Y-136997952D01*
X96258095Y-136997952D02*
X96829523Y-137569380D01*
X96829523Y-137569380D02*
X96210476Y-137569380D01*
X95353333Y-136569380D02*
X95543809Y-136569380D01*
X95543809Y-136569380D02*
X95639047Y-136617000D01*
X95639047Y-136617000D02*
X95686666Y-136664619D01*
X95686666Y-136664619D02*
X95781904Y-136807476D01*
X95781904Y-136807476D02*
X95829523Y-136997952D01*
X95829523Y-136997952D02*
X95829523Y-137378904D01*
X95829523Y-137378904D02*
X95781904Y-137474142D01*
X95781904Y-137474142D02*
X95734285Y-137521761D01*
X95734285Y-137521761D02*
X95639047Y-137569380D01*
X95639047Y-137569380D02*
X95448571Y-137569380D01*
X95448571Y-137569380D02*
X95353333Y-137521761D01*
X95353333Y-137521761D02*
X95305714Y-137474142D01*
X95305714Y-137474142D02*
X95258095Y-137378904D01*
X95258095Y-137378904D02*
X95258095Y-137140809D01*
X95258095Y-137140809D02*
X95305714Y-137045571D01*
X95305714Y-137045571D02*
X95353333Y-136997952D01*
X95353333Y-136997952D02*
X95448571Y-136950333D01*
X95448571Y-136950333D02*
X95639047Y-136950333D01*
X95639047Y-136950333D02*
X95734285Y-136997952D01*
X95734285Y-136997952D02*
X95781904Y-137045571D01*
X95781904Y-137045571D02*
X95829523Y-137140809D01*
X117038285Y-141125380D02*
X117038285Y-140125380D01*
X117038285Y-140125380D02*
X116800190Y-140125380D01*
X116800190Y-140125380D02*
X116657333Y-140173000D01*
X116657333Y-140173000D02*
X116562095Y-140268238D01*
X116562095Y-140268238D02*
X116514476Y-140363476D01*
X116514476Y-140363476D02*
X116466857Y-140553952D01*
X116466857Y-140553952D02*
X116466857Y-140696809D01*
X116466857Y-140696809D02*
X116514476Y-140887285D01*
X116514476Y-140887285D02*
X116562095Y-140982523D01*
X116562095Y-140982523D02*
X116657333Y-141077761D01*
X116657333Y-141077761D02*
X116800190Y-141125380D01*
X116800190Y-141125380D02*
X117038285Y-141125380D01*
X116085904Y-140220619D02*
X116038285Y-140173000D01*
X116038285Y-140173000D02*
X115943047Y-140125380D01*
X115943047Y-140125380D02*
X115704952Y-140125380D01*
X115704952Y-140125380D02*
X115609714Y-140173000D01*
X115609714Y-140173000D02*
X115562095Y-140220619D01*
X115562095Y-140220619D02*
X115514476Y-140315857D01*
X115514476Y-140315857D02*
X115514476Y-140411095D01*
X115514476Y-140411095D02*
X115562095Y-140553952D01*
X115562095Y-140553952D02*
X116133523Y-141125380D01*
X116133523Y-141125380D02*
X115514476Y-141125380D01*
X115181142Y-140125380D02*
X114514476Y-140125380D01*
X114514476Y-140125380D02*
X114943047Y-141125380D01*
X136342285Y-145697380D02*
X136342285Y-144697380D01*
X136342285Y-144697380D02*
X136104190Y-144697380D01*
X136104190Y-144697380D02*
X135961333Y-144745000D01*
X135961333Y-144745000D02*
X135866095Y-144840238D01*
X135866095Y-144840238D02*
X135818476Y-144935476D01*
X135818476Y-144935476D02*
X135770857Y-145125952D01*
X135770857Y-145125952D02*
X135770857Y-145268809D01*
X135770857Y-145268809D02*
X135818476Y-145459285D01*
X135818476Y-145459285D02*
X135866095Y-145554523D01*
X135866095Y-145554523D02*
X135961333Y-145649761D01*
X135961333Y-145649761D02*
X136104190Y-145697380D01*
X136104190Y-145697380D02*
X136342285Y-145697380D01*
X135389904Y-144792619D02*
X135342285Y-144745000D01*
X135342285Y-144745000D02*
X135247047Y-144697380D01*
X135247047Y-144697380D02*
X135008952Y-144697380D01*
X135008952Y-144697380D02*
X134913714Y-144745000D01*
X134913714Y-144745000D02*
X134866095Y-144792619D01*
X134866095Y-144792619D02*
X134818476Y-144887857D01*
X134818476Y-144887857D02*
X134818476Y-144983095D01*
X134818476Y-144983095D02*
X134866095Y-145125952D01*
X134866095Y-145125952D02*
X135437523Y-145697380D01*
X135437523Y-145697380D02*
X134818476Y-145697380D01*
X134247047Y-145125952D02*
X134342285Y-145078333D01*
X134342285Y-145078333D02*
X134389904Y-145030714D01*
X134389904Y-145030714D02*
X134437523Y-144935476D01*
X134437523Y-144935476D02*
X134437523Y-144887857D01*
X134437523Y-144887857D02*
X134389904Y-144792619D01*
X134389904Y-144792619D02*
X134342285Y-144745000D01*
X134342285Y-144745000D02*
X134247047Y-144697380D01*
X134247047Y-144697380D02*
X134056571Y-144697380D01*
X134056571Y-144697380D02*
X133961333Y-144745000D01*
X133961333Y-144745000D02*
X133913714Y-144792619D01*
X133913714Y-144792619D02*
X133866095Y-144887857D01*
X133866095Y-144887857D02*
X133866095Y-144935476D01*
X133866095Y-144935476D02*
X133913714Y-145030714D01*
X133913714Y-145030714D02*
X133961333Y-145078333D01*
X133961333Y-145078333D02*
X134056571Y-145125952D01*
X134056571Y-145125952D02*
X134247047Y-145125952D01*
X134247047Y-145125952D02*
X134342285Y-145173571D01*
X134342285Y-145173571D02*
X134389904Y-145221190D01*
X134389904Y-145221190D02*
X134437523Y-145316428D01*
X134437523Y-145316428D02*
X134437523Y-145506904D01*
X134437523Y-145506904D02*
X134389904Y-145602142D01*
X134389904Y-145602142D02*
X134342285Y-145649761D01*
X134342285Y-145649761D02*
X134247047Y-145697380D01*
X134247047Y-145697380D02*
X134056571Y-145697380D01*
X134056571Y-145697380D02*
X133961333Y-145649761D01*
X133961333Y-145649761D02*
X133913714Y-145602142D01*
X133913714Y-145602142D02*
X133866095Y-145506904D01*
X133866095Y-145506904D02*
X133866095Y-145316428D01*
X133866095Y-145316428D02*
X133913714Y-145221190D01*
X133913714Y-145221190D02*
X133961333Y-145173571D01*
X133961333Y-145173571D02*
X134056571Y-145125952D01*
X155646285Y-147475380D02*
X155646285Y-146475380D01*
X155646285Y-146475380D02*
X155408190Y-146475380D01*
X155408190Y-146475380D02*
X155265333Y-146523000D01*
X155265333Y-146523000D02*
X155170095Y-146618238D01*
X155170095Y-146618238D02*
X155122476Y-146713476D01*
X155122476Y-146713476D02*
X155074857Y-146903952D01*
X155074857Y-146903952D02*
X155074857Y-147046809D01*
X155074857Y-147046809D02*
X155122476Y-147237285D01*
X155122476Y-147237285D02*
X155170095Y-147332523D01*
X155170095Y-147332523D02*
X155265333Y-147427761D01*
X155265333Y-147427761D02*
X155408190Y-147475380D01*
X155408190Y-147475380D02*
X155646285Y-147475380D01*
X154693904Y-146570619D02*
X154646285Y-146523000D01*
X154646285Y-146523000D02*
X154551047Y-146475380D01*
X154551047Y-146475380D02*
X154312952Y-146475380D01*
X154312952Y-146475380D02*
X154217714Y-146523000D01*
X154217714Y-146523000D02*
X154170095Y-146570619D01*
X154170095Y-146570619D02*
X154122476Y-146665857D01*
X154122476Y-146665857D02*
X154122476Y-146761095D01*
X154122476Y-146761095D02*
X154170095Y-146903952D01*
X154170095Y-146903952D02*
X154741523Y-147475380D01*
X154741523Y-147475380D02*
X154122476Y-147475380D01*
X153646285Y-147475380D02*
X153455809Y-147475380D01*
X153455809Y-147475380D02*
X153360571Y-147427761D01*
X153360571Y-147427761D02*
X153312952Y-147380142D01*
X153312952Y-147380142D02*
X153217714Y-147237285D01*
X153217714Y-147237285D02*
X153170095Y-147046809D01*
X153170095Y-147046809D02*
X153170095Y-146665857D01*
X153170095Y-146665857D02*
X153217714Y-146570619D01*
X153217714Y-146570619D02*
X153265333Y-146523000D01*
X153265333Y-146523000D02*
X153360571Y-146475380D01*
X153360571Y-146475380D02*
X153551047Y-146475380D01*
X153551047Y-146475380D02*
X153646285Y-146523000D01*
X153646285Y-146523000D02*
X153693904Y-146570619D01*
X153693904Y-146570619D02*
X153741523Y-146665857D01*
X153741523Y-146665857D02*
X153741523Y-146903952D01*
X153741523Y-146903952D02*
X153693904Y-146999190D01*
X153693904Y-146999190D02*
X153646285Y-147046809D01*
X153646285Y-147046809D02*
X153551047Y-147094428D01*
X153551047Y-147094428D02*
X153360571Y-147094428D01*
X153360571Y-147094428D02*
X153265333Y-147046809D01*
X153265333Y-147046809D02*
X153217714Y-146999190D01*
X153217714Y-146999190D02*
X153170095Y-146903952D01*
X20518285Y-111407380D02*
X20518285Y-110407380D01*
X20518285Y-110407380D02*
X20280190Y-110407380D01*
X20280190Y-110407380D02*
X20137333Y-110455000D01*
X20137333Y-110455000D02*
X20042095Y-110550238D01*
X20042095Y-110550238D02*
X19994476Y-110645476D01*
X19994476Y-110645476D02*
X19946857Y-110835952D01*
X19946857Y-110835952D02*
X19946857Y-110978809D01*
X19946857Y-110978809D02*
X19994476Y-111169285D01*
X19994476Y-111169285D02*
X20042095Y-111264523D01*
X20042095Y-111264523D02*
X20137333Y-111359761D01*
X20137333Y-111359761D02*
X20280190Y-111407380D01*
X20280190Y-111407380D02*
X20518285Y-111407380D01*
X19613523Y-110407380D02*
X18994476Y-110407380D01*
X18994476Y-110407380D02*
X19327809Y-110788333D01*
X19327809Y-110788333D02*
X19184952Y-110788333D01*
X19184952Y-110788333D02*
X19089714Y-110835952D01*
X19089714Y-110835952D02*
X19042095Y-110883571D01*
X19042095Y-110883571D02*
X18994476Y-110978809D01*
X18994476Y-110978809D02*
X18994476Y-111216904D01*
X18994476Y-111216904D02*
X19042095Y-111312142D01*
X19042095Y-111312142D02*
X19089714Y-111359761D01*
X19089714Y-111359761D02*
X19184952Y-111407380D01*
X19184952Y-111407380D02*
X19470666Y-111407380D01*
X19470666Y-111407380D02*
X19565904Y-111359761D01*
X19565904Y-111359761D02*
X19613523Y-111312142D01*
X18375428Y-110407380D02*
X18280190Y-110407380D01*
X18280190Y-110407380D02*
X18184952Y-110455000D01*
X18184952Y-110455000D02*
X18137333Y-110502619D01*
X18137333Y-110502619D02*
X18089714Y-110597857D01*
X18089714Y-110597857D02*
X18042095Y-110788333D01*
X18042095Y-110788333D02*
X18042095Y-111026428D01*
X18042095Y-111026428D02*
X18089714Y-111216904D01*
X18089714Y-111216904D02*
X18137333Y-111312142D01*
X18137333Y-111312142D02*
X18184952Y-111359761D01*
X18184952Y-111359761D02*
X18280190Y-111407380D01*
X18280190Y-111407380D02*
X18375428Y-111407380D01*
X18375428Y-111407380D02*
X18470666Y-111359761D01*
X18470666Y-111359761D02*
X18518285Y-111312142D01*
X18518285Y-111312142D02*
X18565904Y-111216904D01*
X18565904Y-111216904D02*
X18613523Y-111026428D01*
X18613523Y-111026428D02*
X18613523Y-110788333D01*
X18613523Y-110788333D02*
X18565904Y-110597857D01*
X18565904Y-110597857D02*
X18518285Y-110502619D01*
X18518285Y-110502619D02*
X18470666Y-110455000D01*
X18470666Y-110455000D02*
X18375428Y-110407380D01*
X59126285Y-149761380D02*
X59126285Y-148761380D01*
X59126285Y-148761380D02*
X58888190Y-148761380D01*
X58888190Y-148761380D02*
X58745333Y-148809000D01*
X58745333Y-148809000D02*
X58650095Y-148904238D01*
X58650095Y-148904238D02*
X58602476Y-148999476D01*
X58602476Y-148999476D02*
X58554857Y-149189952D01*
X58554857Y-149189952D02*
X58554857Y-149332809D01*
X58554857Y-149332809D02*
X58602476Y-149523285D01*
X58602476Y-149523285D02*
X58650095Y-149618523D01*
X58650095Y-149618523D02*
X58745333Y-149713761D01*
X58745333Y-149713761D02*
X58888190Y-149761380D01*
X58888190Y-149761380D02*
X59126285Y-149761380D01*
X58221523Y-148761380D02*
X57602476Y-148761380D01*
X57602476Y-148761380D02*
X57935809Y-149142333D01*
X57935809Y-149142333D02*
X57792952Y-149142333D01*
X57792952Y-149142333D02*
X57697714Y-149189952D01*
X57697714Y-149189952D02*
X57650095Y-149237571D01*
X57650095Y-149237571D02*
X57602476Y-149332809D01*
X57602476Y-149332809D02*
X57602476Y-149570904D01*
X57602476Y-149570904D02*
X57650095Y-149666142D01*
X57650095Y-149666142D02*
X57697714Y-149713761D01*
X57697714Y-149713761D02*
X57792952Y-149761380D01*
X57792952Y-149761380D02*
X58078666Y-149761380D01*
X58078666Y-149761380D02*
X58173904Y-149713761D01*
X58173904Y-149713761D02*
X58221523Y-149666142D01*
X56650095Y-149761380D02*
X57221523Y-149761380D01*
X56935809Y-149761380D02*
X56935809Y-148761380D01*
X56935809Y-148761380D02*
X57031047Y-148904238D01*
X57031047Y-148904238D02*
X57126285Y-148999476D01*
X57126285Y-148999476D02*
X57221523Y-149047095D01*
X78430285Y-153063380D02*
X78430285Y-152063380D01*
X78430285Y-152063380D02*
X78192190Y-152063380D01*
X78192190Y-152063380D02*
X78049333Y-152111000D01*
X78049333Y-152111000D02*
X77954095Y-152206238D01*
X77954095Y-152206238D02*
X77906476Y-152301476D01*
X77906476Y-152301476D02*
X77858857Y-152491952D01*
X77858857Y-152491952D02*
X77858857Y-152634809D01*
X77858857Y-152634809D02*
X77906476Y-152825285D01*
X77906476Y-152825285D02*
X77954095Y-152920523D01*
X77954095Y-152920523D02*
X78049333Y-153015761D01*
X78049333Y-153015761D02*
X78192190Y-153063380D01*
X78192190Y-153063380D02*
X78430285Y-153063380D01*
X77525523Y-152063380D02*
X76906476Y-152063380D01*
X76906476Y-152063380D02*
X77239809Y-152444333D01*
X77239809Y-152444333D02*
X77096952Y-152444333D01*
X77096952Y-152444333D02*
X77001714Y-152491952D01*
X77001714Y-152491952D02*
X76954095Y-152539571D01*
X76954095Y-152539571D02*
X76906476Y-152634809D01*
X76906476Y-152634809D02*
X76906476Y-152872904D01*
X76906476Y-152872904D02*
X76954095Y-152968142D01*
X76954095Y-152968142D02*
X77001714Y-153015761D01*
X77001714Y-153015761D02*
X77096952Y-153063380D01*
X77096952Y-153063380D02*
X77382666Y-153063380D01*
X77382666Y-153063380D02*
X77477904Y-153015761D01*
X77477904Y-153015761D02*
X77525523Y-152968142D01*
X76525523Y-152158619D02*
X76477904Y-152111000D01*
X76477904Y-152111000D02*
X76382666Y-152063380D01*
X76382666Y-152063380D02*
X76144571Y-152063380D01*
X76144571Y-152063380D02*
X76049333Y-152111000D01*
X76049333Y-152111000D02*
X76001714Y-152158619D01*
X76001714Y-152158619D02*
X75954095Y-152253857D01*
X75954095Y-152253857D02*
X75954095Y-152349095D01*
X75954095Y-152349095D02*
X76001714Y-152491952D01*
X76001714Y-152491952D02*
X76573142Y-153063380D01*
X76573142Y-153063380D02*
X75954095Y-153063380D01*
X97734285Y-157127380D02*
X97734285Y-156127380D01*
X97734285Y-156127380D02*
X97496190Y-156127380D01*
X97496190Y-156127380D02*
X97353333Y-156175000D01*
X97353333Y-156175000D02*
X97258095Y-156270238D01*
X97258095Y-156270238D02*
X97210476Y-156365476D01*
X97210476Y-156365476D02*
X97162857Y-156555952D01*
X97162857Y-156555952D02*
X97162857Y-156698809D01*
X97162857Y-156698809D02*
X97210476Y-156889285D01*
X97210476Y-156889285D02*
X97258095Y-156984523D01*
X97258095Y-156984523D02*
X97353333Y-157079761D01*
X97353333Y-157079761D02*
X97496190Y-157127380D01*
X97496190Y-157127380D02*
X97734285Y-157127380D01*
X96829523Y-156127380D02*
X96210476Y-156127380D01*
X96210476Y-156127380D02*
X96543809Y-156508333D01*
X96543809Y-156508333D02*
X96400952Y-156508333D01*
X96400952Y-156508333D02*
X96305714Y-156555952D01*
X96305714Y-156555952D02*
X96258095Y-156603571D01*
X96258095Y-156603571D02*
X96210476Y-156698809D01*
X96210476Y-156698809D02*
X96210476Y-156936904D01*
X96210476Y-156936904D02*
X96258095Y-157032142D01*
X96258095Y-157032142D02*
X96305714Y-157079761D01*
X96305714Y-157079761D02*
X96400952Y-157127380D01*
X96400952Y-157127380D02*
X96686666Y-157127380D01*
X96686666Y-157127380D02*
X96781904Y-157079761D01*
X96781904Y-157079761D02*
X96829523Y-157032142D01*
X95877142Y-156127380D02*
X95258095Y-156127380D01*
X95258095Y-156127380D02*
X95591428Y-156508333D01*
X95591428Y-156508333D02*
X95448571Y-156508333D01*
X95448571Y-156508333D02*
X95353333Y-156555952D01*
X95353333Y-156555952D02*
X95305714Y-156603571D01*
X95305714Y-156603571D02*
X95258095Y-156698809D01*
X95258095Y-156698809D02*
X95258095Y-156936904D01*
X95258095Y-156936904D02*
X95305714Y-157032142D01*
X95305714Y-157032142D02*
X95353333Y-157079761D01*
X95353333Y-157079761D02*
X95448571Y-157127380D01*
X95448571Y-157127380D02*
X95734285Y-157127380D01*
X95734285Y-157127380D02*
X95829523Y-157079761D01*
X95829523Y-157079761D02*
X95877142Y-157032142D01*
X117038285Y-160429380D02*
X117038285Y-159429380D01*
X117038285Y-159429380D02*
X116800190Y-159429380D01*
X116800190Y-159429380D02*
X116657333Y-159477000D01*
X116657333Y-159477000D02*
X116562095Y-159572238D01*
X116562095Y-159572238D02*
X116514476Y-159667476D01*
X116514476Y-159667476D02*
X116466857Y-159857952D01*
X116466857Y-159857952D02*
X116466857Y-160000809D01*
X116466857Y-160000809D02*
X116514476Y-160191285D01*
X116514476Y-160191285D02*
X116562095Y-160286523D01*
X116562095Y-160286523D02*
X116657333Y-160381761D01*
X116657333Y-160381761D02*
X116800190Y-160429380D01*
X116800190Y-160429380D02*
X117038285Y-160429380D01*
X116133523Y-159429380D02*
X115514476Y-159429380D01*
X115514476Y-159429380D02*
X115847809Y-159810333D01*
X115847809Y-159810333D02*
X115704952Y-159810333D01*
X115704952Y-159810333D02*
X115609714Y-159857952D01*
X115609714Y-159857952D02*
X115562095Y-159905571D01*
X115562095Y-159905571D02*
X115514476Y-160000809D01*
X115514476Y-160000809D02*
X115514476Y-160238904D01*
X115514476Y-160238904D02*
X115562095Y-160334142D01*
X115562095Y-160334142D02*
X115609714Y-160381761D01*
X115609714Y-160381761D02*
X115704952Y-160429380D01*
X115704952Y-160429380D02*
X115990666Y-160429380D01*
X115990666Y-160429380D02*
X116085904Y-160381761D01*
X116085904Y-160381761D02*
X116133523Y-160334142D01*
X114657333Y-159762714D02*
X114657333Y-160429380D01*
X114895428Y-159381761D02*
X115133523Y-160096047D01*
X115133523Y-160096047D02*
X114514476Y-160096047D01*
X136342285Y-165001380D02*
X136342285Y-164001380D01*
X136342285Y-164001380D02*
X136104190Y-164001380D01*
X136104190Y-164001380D02*
X135961333Y-164049000D01*
X135961333Y-164049000D02*
X135866095Y-164144238D01*
X135866095Y-164144238D02*
X135818476Y-164239476D01*
X135818476Y-164239476D02*
X135770857Y-164429952D01*
X135770857Y-164429952D02*
X135770857Y-164572809D01*
X135770857Y-164572809D02*
X135818476Y-164763285D01*
X135818476Y-164763285D02*
X135866095Y-164858523D01*
X135866095Y-164858523D02*
X135961333Y-164953761D01*
X135961333Y-164953761D02*
X136104190Y-165001380D01*
X136104190Y-165001380D02*
X136342285Y-165001380D01*
X135437523Y-164001380D02*
X134818476Y-164001380D01*
X134818476Y-164001380D02*
X135151809Y-164382333D01*
X135151809Y-164382333D02*
X135008952Y-164382333D01*
X135008952Y-164382333D02*
X134913714Y-164429952D01*
X134913714Y-164429952D02*
X134866095Y-164477571D01*
X134866095Y-164477571D02*
X134818476Y-164572809D01*
X134818476Y-164572809D02*
X134818476Y-164810904D01*
X134818476Y-164810904D02*
X134866095Y-164906142D01*
X134866095Y-164906142D02*
X134913714Y-164953761D01*
X134913714Y-164953761D02*
X135008952Y-165001380D01*
X135008952Y-165001380D02*
X135294666Y-165001380D01*
X135294666Y-165001380D02*
X135389904Y-164953761D01*
X135389904Y-164953761D02*
X135437523Y-164906142D01*
X133913714Y-164001380D02*
X134389904Y-164001380D01*
X134389904Y-164001380D02*
X134437523Y-164477571D01*
X134437523Y-164477571D02*
X134389904Y-164429952D01*
X134389904Y-164429952D02*
X134294666Y-164382333D01*
X134294666Y-164382333D02*
X134056571Y-164382333D01*
X134056571Y-164382333D02*
X133961333Y-164429952D01*
X133961333Y-164429952D02*
X133913714Y-164477571D01*
X133913714Y-164477571D02*
X133866095Y-164572809D01*
X133866095Y-164572809D02*
X133866095Y-164810904D01*
X133866095Y-164810904D02*
X133913714Y-164906142D01*
X133913714Y-164906142D02*
X133961333Y-164953761D01*
X133961333Y-164953761D02*
X134056571Y-165001380D01*
X134056571Y-165001380D02*
X134294666Y-165001380D01*
X134294666Y-165001380D02*
X134389904Y-164953761D01*
X134389904Y-164953761D02*
X134437523Y-164906142D01*
X155646285Y-166779380D02*
X155646285Y-165779380D01*
X155646285Y-165779380D02*
X155408190Y-165779380D01*
X155408190Y-165779380D02*
X155265333Y-165827000D01*
X155265333Y-165827000D02*
X155170095Y-165922238D01*
X155170095Y-165922238D02*
X155122476Y-166017476D01*
X155122476Y-166017476D02*
X155074857Y-166207952D01*
X155074857Y-166207952D02*
X155074857Y-166350809D01*
X155074857Y-166350809D02*
X155122476Y-166541285D01*
X155122476Y-166541285D02*
X155170095Y-166636523D01*
X155170095Y-166636523D02*
X155265333Y-166731761D01*
X155265333Y-166731761D02*
X155408190Y-166779380D01*
X155408190Y-166779380D02*
X155646285Y-166779380D01*
X154741523Y-165779380D02*
X154122476Y-165779380D01*
X154122476Y-165779380D02*
X154455809Y-166160333D01*
X154455809Y-166160333D02*
X154312952Y-166160333D01*
X154312952Y-166160333D02*
X154217714Y-166207952D01*
X154217714Y-166207952D02*
X154170095Y-166255571D01*
X154170095Y-166255571D02*
X154122476Y-166350809D01*
X154122476Y-166350809D02*
X154122476Y-166588904D01*
X154122476Y-166588904D02*
X154170095Y-166684142D01*
X154170095Y-166684142D02*
X154217714Y-166731761D01*
X154217714Y-166731761D02*
X154312952Y-166779380D01*
X154312952Y-166779380D02*
X154598666Y-166779380D01*
X154598666Y-166779380D02*
X154693904Y-166731761D01*
X154693904Y-166731761D02*
X154741523Y-166684142D01*
X153265333Y-165779380D02*
X153455809Y-165779380D01*
X153455809Y-165779380D02*
X153551047Y-165827000D01*
X153551047Y-165827000D02*
X153598666Y-165874619D01*
X153598666Y-165874619D02*
X153693904Y-166017476D01*
X153693904Y-166017476D02*
X153741523Y-166207952D01*
X153741523Y-166207952D02*
X153741523Y-166588904D01*
X153741523Y-166588904D02*
X153693904Y-166684142D01*
X153693904Y-166684142D02*
X153646285Y-166731761D01*
X153646285Y-166731761D02*
X153551047Y-166779380D01*
X153551047Y-166779380D02*
X153360571Y-166779380D01*
X153360571Y-166779380D02*
X153265333Y-166731761D01*
X153265333Y-166731761D02*
X153217714Y-166684142D01*
X153217714Y-166684142D02*
X153170095Y-166588904D01*
X153170095Y-166588904D02*
X153170095Y-166350809D01*
X153170095Y-166350809D02*
X153217714Y-166255571D01*
X153217714Y-166255571D02*
X153265333Y-166207952D01*
X153265333Y-166207952D02*
X153360571Y-166160333D01*
X153360571Y-166160333D02*
X153551047Y-166160333D01*
X153551047Y-166160333D02*
X153646285Y-166207952D01*
X153646285Y-166207952D02*
X153693904Y-166255571D01*
X153693904Y-166255571D02*
X153741523Y-166350809D01*
X20518285Y-132743380D02*
X20518285Y-131743380D01*
X20518285Y-131743380D02*
X20280190Y-131743380D01*
X20280190Y-131743380D02*
X20137333Y-131791000D01*
X20137333Y-131791000D02*
X20042095Y-131886238D01*
X20042095Y-131886238D02*
X19994476Y-131981476D01*
X19994476Y-131981476D02*
X19946857Y-132171952D01*
X19946857Y-132171952D02*
X19946857Y-132314809D01*
X19946857Y-132314809D02*
X19994476Y-132505285D01*
X19994476Y-132505285D02*
X20042095Y-132600523D01*
X20042095Y-132600523D02*
X20137333Y-132695761D01*
X20137333Y-132695761D02*
X20280190Y-132743380D01*
X20280190Y-132743380D02*
X20518285Y-132743380D01*
X19613523Y-131743380D02*
X18994476Y-131743380D01*
X18994476Y-131743380D02*
X19327809Y-132124333D01*
X19327809Y-132124333D02*
X19184952Y-132124333D01*
X19184952Y-132124333D02*
X19089714Y-132171952D01*
X19089714Y-132171952D02*
X19042095Y-132219571D01*
X19042095Y-132219571D02*
X18994476Y-132314809D01*
X18994476Y-132314809D02*
X18994476Y-132552904D01*
X18994476Y-132552904D02*
X19042095Y-132648142D01*
X19042095Y-132648142D02*
X19089714Y-132695761D01*
X19089714Y-132695761D02*
X19184952Y-132743380D01*
X19184952Y-132743380D02*
X19470666Y-132743380D01*
X19470666Y-132743380D02*
X19565904Y-132695761D01*
X19565904Y-132695761D02*
X19613523Y-132648142D01*
X18423047Y-132171952D02*
X18518285Y-132124333D01*
X18518285Y-132124333D02*
X18565904Y-132076714D01*
X18565904Y-132076714D02*
X18613523Y-131981476D01*
X18613523Y-131981476D02*
X18613523Y-131933857D01*
X18613523Y-131933857D02*
X18565904Y-131838619D01*
X18565904Y-131838619D02*
X18518285Y-131791000D01*
X18518285Y-131791000D02*
X18423047Y-131743380D01*
X18423047Y-131743380D02*
X18232571Y-131743380D01*
X18232571Y-131743380D02*
X18137333Y-131791000D01*
X18137333Y-131791000D02*
X18089714Y-131838619D01*
X18089714Y-131838619D02*
X18042095Y-131933857D01*
X18042095Y-131933857D02*
X18042095Y-131981476D01*
X18042095Y-131981476D02*
X18089714Y-132076714D01*
X18089714Y-132076714D02*
X18137333Y-132124333D01*
X18137333Y-132124333D02*
X18232571Y-132171952D01*
X18232571Y-132171952D02*
X18423047Y-132171952D01*
X18423047Y-132171952D02*
X18518285Y-132219571D01*
X18518285Y-132219571D02*
X18565904Y-132267190D01*
X18565904Y-132267190D02*
X18613523Y-132362428D01*
X18613523Y-132362428D02*
X18613523Y-132552904D01*
X18613523Y-132552904D02*
X18565904Y-132648142D01*
X18565904Y-132648142D02*
X18518285Y-132695761D01*
X18518285Y-132695761D02*
X18423047Y-132743380D01*
X18423047Y-132743380D02*
X18232571Y-132743380D01*
X18232571Y-132743380D02*
X18137333Y-132695761D01*
X18137333Y-132695761D02*
X18089714Y-132648142D01*
X18089714Y-132648142D02*
X18042095Y-132552904D01*
X18042095Y-132552904D02*
X18042095Y-132362428D01*
X18042095Y-132362428D02*
X18089714Y-132267190D01*
X18089714Y-132267190D02*
X18137333Y-132219571D01*
X18137333Y-132219571D02*
X18232571Y-132171952D01*
X39822285Y-127155380D02*
X39822285Y-126155380D01*
X39822285Y-126155380D02*
X39584190Y-126155380D01*
X39584190Y-126155380D02*
X39441333Y-126203000D01*
X39441333Y-126203000D02*
X39346095Y-126298238D01*
X39346095Y-126298238D02*
X39298476Y-126393476D01*
X39298476Y-126393476D02*
X39250857Y-126583952D01*
X39250857Y-126583952D02*
X39250857Y-126726809D01*
X39250857Y-126726809D02*
X39298476Y-126917285D01*
X39298476Y-126917285D02*
X39346095Y-127012523D01*
X39346095Y-127012523D02*
X39441333Y-127107761D01*
X39441333Y-127107761D02*
X39584190Y-127155380D01*
X39584190Y-127155380D02*
X39822285Y-127155380D01*
X38917523Y-126155380D02*
X38298476Y-126155380D01*
X38298476Y-126155380D02*
X38631809Y-126536333D01*
X38631809Y-126536333D02*
X38488952Y-126536333D01*
X38488952Y-126536333D02*
X38393714Y-126583952D01*
X38393714Y-126583952D02*
X38346095Y-126631571D01*
X38346095Y-126631571D02*
X38298476Y-126726809D01*
X38298476Y-126726809D02*
X38298476Y-126964904D01*
X38298476Y-126964904D02*
X38346095Y-127060142D01*
X38346095Y-127060142D02*
X38393714Y-127107761D01*
X38393714Y-127107761D02*
X38488952Y-127155380D01*
X38488952Y-127155380D02*
X38774666Y-127155380D01*
X38774666Y-127155380D02*
X38869904Y-127107761D01*
X38869904Y-127107761D02*
X38917523Y-127060142D01*
X37822285Y-127155380D02*
X37631809Y-127155380D01*
X37631809Y-127155380D02*
X37536571Y-127107761D01*
X37536571Y-127107761D02*
X37488952Y-127060142D01*
X37488952Y-127060142D02*
X37393714Y-126917285D01*
X37393714Y-126917285D02*
X37346095Y-126726809D01*
X37346095Y-126726809D02*
X37346095Y-126345857D01*
X37346095Y-126345857D02*
X37393714Y-126250619D01*
X37393714Y-126250619D02*
X37441333Y-126203000D01*
X37441333Y-126203000D02*
X37536571Y-126155380D01*
X37536571Y-126155380D02*
X37727047Y-126155380D01*
X37727047Y-126155380D02*
X37822285Y-126203000D01*
X37822285Y-126203000D02*
X37869904Y-126250619D01*
X37869904Y-126250619D02*
X37917523Y-126345857D01*
X37917523Y-126345857D02*
X37917523Y-126583952D01*
X37917523Y-126583952D02*
X37869904Y-126679190D01*
X37869904Y-126679190D02*
X37822285Y-126726809D01*
X37822285Y-126726809D02*
X37727047Y-126774428D01*
X37727047Y-126774428D02*
X37536571Y-126774428D01*
X37536571Y-126774428D02*
X37441333Y-126726809D01*
X37441333Y-126726809D02*
X37393714Y-126679190D01*
X37393714Y-126679190D02*
X37346095Y-126583952D01*
X39822285Y-149761380D02*
X39822285Y-148761380D01*
X39822285Y-148761380D02*
X39584190Y-148761380D01*
X39584190Y-148761380D02*
X39441333Y-148809000D01*
X39441333Y-148809000D02*
X39346095Y-148904238D01*
X39346095Y-148904238D02*
X39298476Y-148999476D01*
X39298476Y-148999476D02*
X39250857Y-149189952D01*
X39250857Y-149189952D02*
X39250857Y-149332809D01*
X39250857Y-149332809D02*
X39298476Y-149523285D01*
X39298476Y-149523285D02*
X39346095Y-149618523D01*
X39346095Y-149618523D02*
X39441333Y-149713761D01*
X39441333Y-149713761D02*
X39584190Y-149761380D01*
X39584190Y-149761380D02*
X39822285Y-149761380D01*
X38393714Y-149094714D02*
X38393714Y-149761380D01*
X38631809Y-148713761D02*
X38869904Y-149428047D01*
X38869904Y-149428047D02*
X38250857Y-149428047D01*
X37679428Y-148761380D02*
X37584190Y-148761380D01*
X37584190Y-148761380D02*
X37488952Y-148809000D01*
X37488952Y-148809000D02*
X37441333Y-148856619D01*
X37441333Y-148856619D02*
X37393714Y-148951857D01*
X37393714Y-148951857D02*
X37346095Y-149142333D01*
X37346095Y-149142333D02*
X37346095Y-149380428D01*
X37346095Y-149380428D02*
X37393714Y-149570904D01*
X37393714Y-149570904D02*
X37441333Y-149666142D01*
X37441333Y-149666142D02*
X37488952Y-149713761D01*
X37488952Y-149713761D02*
X37584190Y-149761380D01*
X37584190Y-149761380D02*
X37679428Y-149761380D01*
X37679428Y-149761380D02*
X37774666Y-149713761D01*
X37774666Y-149713761D02*
X37822285Y-149666142D01*
X37822285Y-149666142D02*
X37869904Y-149570904D01*
X37869904Y-149570904D02*
X37917523Y-149380428D01*
X37917523Y-149380428D02*
X37917523Y-149142333D01*
X37917523Y-149142333D02*
X37869904Y-148951857D01*
X37869904Y-148951857D02*
X37822285Y-148856619D01*
X37822285Y-148856619D02*
X37774666Y-148809000D01*
X37774666Y-148809000D02*
X37679428Y-148761380D01*
X86688285Y-160937380D02*
X86688285Y-159937380D01*
X86688285Y-159937380D02*
X86450190Y-159937380D01*
X86450190Y-159937380D02*
X86307333Y-159985000D01*
X86307333Y-159985000D02*
X86212095Y-160080238D01*
X86212095Y-160080238D02*
X86164476Y-160175476D01*
X86164476Y-160175476D02*
X86116857Y-160365952D01*
X86116857Y-160365952D02*
X86116857Y-160508809D01*
X86116857Y-160508809D02*
X86164476Y-160699285D01*
X86164476Y-160699285D02*
X86212095Y-160794523D01*
X86212095Y-160794523D02*
X86307333Y-160889761D01*
X86307333Y-160889761D02*
X86450190Y-160937380D01*
X86450190Y-160937380D02*
X86688285Y-160937380D01*
X85259714Y-160270714D02*
X85259714Y-160937380D01*
X85497809Y-159889761D02*
X85735904Y-160604047D01*
X85735904Y-160604047D02*
X85116857Y-160604047D01*
X84212095Y-160937380D02*
X84783523Y-160937380D01*
X84497809Y-160937380D02*
X84497809Y-159937380D01*
X84497809Y-159937380D02*
X84593047Y-160080238D01*
X84593047Y-160080238D02*
X84688285Y-160175476D01*
X84688285Y-160175476D02*
X84783523Y-160223095D01*
X252166285Y-156365380D02*
X252166285Y-155365380D01*
X252166285Y-155365380D02*
X251928190Y-155365380D01*
X251928190Y-155365380D02*
X251785333Y-155413000D01*
X251785333Y-155413000D02*
X251690095Y-155508238D01*
X251690095Y-155508238D02*
X251642476Y-155603476D01*
X251642476Y-155603476D02*
X251594857Y-155793952D01*
X251594857Y-155793952D02*
X251594857Y-155936809D01*
X251594857Y-155936809D02*
X251642476Y-156127285D01*
X251642476Y-156127285D02*
X251690095Y-156222523D01*
X251690095Y-156222523D02*
X251785333Y-156317761D01*
X251785333Y-156317761D02*
X251928190Y-156365380D01*
X251928190Y-156365380D02*
X252166285Y-156365380D01*
X250737714Y-155698714D02*
X250737714Y-156365380D01*
X250975809Y-155317761D02*
X251213904Y-156032047D01*
X251213904Y-156032047D02*
X250594857Y-156032047D01*
X250261523Y-155460619D02*
X250213904Y-155413000D01*
X250213904Y-155413000D02*
X250118666Y-155365380D01*
X250118666Y-155365380D02*
X249880571Y-155365380D01*
X249880571Y-155365380D02*
X249785333Y-155413000D01*
X249785333Y-155413000D02*
X249737714Y-155460619D01*
X249737714Y-155460619D02*
X249690095Y-155555857D01*
X249690095Y-155555857D02*
X249690095Y-155651095D01*
X249690095Y-155651095D02*
X249737714Y-155793952D01*
X249737714Y-155793952D02*
X250309142Y-156365380D01*
X250309142Y-156365380D02*
X249690095Y-156365380D01*
X290774285Y-156111380D02*
X290774285Y-155111380D01*
X290774285Y-155111380D02*
X290536190Y-155111380D01*
X290536190Y-155111380D02*
X290393333Y-155159000D01*
X290393333Y-155159000D02*
X290298095Y-155254238D01*
X290298095Y-155254238D02*
X290250476Y-155349476D01*
X290250476Y-155349476D02*
X290202857Y-155539952D01*
X290202857Y-155539952D02*
X290202857Y-155682809D01*
X290202857Y-155682809D02*
X290250476Y-155873285D01*
X290250476Y-155873285D02*
X290298095Y-155968523D01*
X290298095Y-155968523D02*
X290393333Y-156063761D01*
X290393333Y-156063761D02*
X290536190Y-156111380D01*
X290536190Y-156111380D02*
X290774285Y-156111380D01*
X289345714Y-155444714D02*
X289345714Y-156111380D01*
X289583809Y-155063761D02*
X289821904Y-155778047D01*
X289821904Y-155778047D02*
X289202857Y-155778047D01*
X288393333Y-155444714D02*
X288393333Y-156111380D01*
X288631428Y-155063761D02*
X288869523Y-155778047D01*
X288869523Y-155778047D02*
X288250476Y-155778047D01*
X170124285Y-88039380D02*
X170124285Y-87039380D01*
X170124285Y-87039380D02*
X169886190Y-87039380D01*
X169886190Y-87039380D02*
X169743333Y-87087000D01*
X169743333Y-87087000D02*
X169648095Y-87182238D01*
X169648095Y-87182238D02*
X169600476Y-87277476D01*
X169600476Y-87277476D02*
X169552857Y-87467952D01*
X169552857Y-87467952D02*
X169552857Y-87610809D01*
X169552857Y-87610809D02*
X169600476Y-87801285D01*
X169600476Y-87801285D02*
X169648095Y-87896523D01*
X169648095Y-87896523D02*
X169743333Y-87991761D01*
X169743333Y-87991761D02*
X169886190Y-88039380D01*
X169886190Y-88039380D02*
X170124285Y-88039380D01*
X168695714Y-87372714D02*
X168695714Y-88039380D01*
X168933809Y-86991761D02*
X169171904Y-87706047D01*
X169171904Y-87706047D02*
X168552857Y-87706047D01*
X167695714Y-87039380D02*
X168171904Y-87039380D01*
X168171904Y-87039380D02*
X168219523Y-87515571D01*
X168219523Y-87515571D02*
X168171904Y-87467952D01*
X168171904Y-87467952D02*
X168076666Y-87420333D01*
X168076666Y-87420333D02*
X167838571Y-87420333D01*
X167838571Y-87420333D02*
X167743333Y-87467952D01*
X167743333Y-87467952D02*
X167695714Y-87515571D01*
X167695714Y-87515571D02*
X167648095Y-87610809D01*
X167648095Y-87610809D02*
X167648095Y-87848904D01*
X167648095Y-87848904D02*
X167695714Y-87944142D01*
X167695714Y-87944142D02*
X167743333Y-87991761D01*
X167743333Y-87991761D02*
X167838571Y-88039380D01*
X167838571Y-88039380D02*
X168076666Y-88039380D01*
X168076666Y-88039380D02*
X168171904Y-87991761D01*
X168171904Y-87991761D02*
X168219523Y-87944142D01*
X189428285Y-83467380D02*
X189428285Y-82467380D01*
X189428285Y-82467380D02*
X189190190Y-82467380D01*
X189190190Y-82467380D02*
X189047333Y-82515000D01*
X189047333Y-82515000D02*
X188952095Y-82610238D01*
X188952095Y-82610238D02*
X188904476Y-82705476D01*
X188904476Y-82705476D02*
X188856857Y-82895952D01*
X188856857Y-82895952D02*
X188856857Y-83038809D01*
X188856857Y-83038809D02*
X188904476Y-83229285D01*
X188904476Y-83229285D02*
X188952095Y-83324523D01*
X188952095Y-83324523D02*
X189047333Y-83419761D01*
X189047333Y-83419761D02*
X189190190Y-83467380D01*
X189190190Y-83467380D02*
X189428285Y-83467380D01*
X187999714Y-82800714D02*
X187999714Y-83467380D01*
X188237809Y-82419761D02*
X188475904Y-83134047D01*
X188475904Y-83134047D02*
X187856857Y-83134047D01*
X187047333Y-82467380D02*
X187237809Y-82467380D01*
X187237809Y-82467380D02*
X187333047Y-82515000D01*
X187333047Y-82515000D02*
X187380666Y-82562619D01*
X187380666Y-82562619D02*
X187475904Y-82705476D01*
X187475904Y-82705476D02*
X187523523Y-82895952D01*
X187523523Y-82895952D02*
X187523523Y-83276904D01*
X187523523Y-83276904D02*
X187475904Y-83372142D01*
X187475904Y-83372142D02*
X187428285Y-83419761D01*
X187428285Y-83419761D02*
X187333047Y-83467380D01*
X187333047Y-83467380D02*
X187142571Y-83467380D01*
X187142571Y-83467380D02*
X187047333Y-83419761D01*
X187047333Y-83419761D02*
X186999714Y-83372142D01*
X186999714Y-83372142D02*
X186952095Y-83276904D01*
X186952095Y-83276904D02*
X186952095Y-83038809D01*
X186952095Y-83038809D02*
X186999714Y-82943571D01*
X186999714Y-82943571D02*
X187047333Y-82895952D01*
X187047333Y-82895952D02*
X187142571Y-82848333D01*
X187142571Y-82848333D02*
X187333047Y-82848333D01*
X187333047Y-82848333D02*
X187428285Y-82895952D01*
X187428285Y-82895952D02*
X187475904Y-82943571D01*
X187475904Y-82943571D02*
X187523523Y-83038809D01*
X208732285Y-79657380D02*
X208732285Y-78657380D01*
X208732285Y-78657380D02*
X208494190Y-78657380D01*
X208494190Y-78657380D02*
X208351333Y-78705000D01*
X208351333Y-78705000D02*
X208256095Y-78800238D01*
X208256095Y-78800238D02*
X208208476Y-78895476D01*
X208208476Y-78895476D02*
X208160857Y-79085952D01*
X208160857Y-79085952D02*
X208160857Y-79228809D01*
X208160857Y-79228809D02*
X208208476Y-79419285D01*
X208208476Y-79419285D02*
X208256095Y-79514523D01*
X208256095Y-79514523D02*
X208351333Y-79609761D01*
X208351333Y-79609761D02*
X208494190Y-79657380D01*
X208494190Y-79657380D02*
X208732285Y-79657380D01*
X207303714Y-78990714D02*
X207303714Y-79657380D01*
X207541809Y-78609761D02*
X207779904Y-79324047D01*
X207779904Y-79324047D02*
X207160857Y-79324047D01*
X206875142Y-78657380D02*
X206208476Y-78657380D01*
X206208476Y-78657380D02*
X206637047Y-79657380D01*
X228036285Y-76355380D02*
X228036285Y-75355380D01*
X228036285Y-75355380D02*
X227798190Y-75355380D01*
X227798190Y-75355380D02*
X227655333Y-75403000D01*
X227655333Y-75403000D02*
X227560095Y-75498238D01*
X227560095Y-75498238D02*
X227512476Y-75593476D01*
X227512476Y-75593476D02*
X227464857Y-75783952D01*
X227464857Y-75783952D02*
X227464857Y-75926809D01*
X227464857Y-75926809D02*
X227512476Y-76117285D01*
X227512476Y-76117285D02*
X227560095Y-76212523D01*
X227560095Y-76212523D02*
X227655333Y-76307761D01*
X227655333Y-76307761D02*
X227798190Y-76355380D01*
X227798190Y-76355380D02*
X228036285Y-76355380D01*
X226607714Y-75688714D02*
X226607714Y-76355380D01*
X226845809Y-75307761D02*
X227083904Y-76022047D01*
X227083904Y-76022047D02*
X226464857Y-76022047D01*
X225941047Y-75783952D02*
X226036285Y-75736333D01*
X226036285Y-75736333D02*
X226083904Y-75688714D01*
X226083904Y-75688714D02*
X226131523Y-75593476D01*
X226131523Y-75593476D02*
X226131523Y-75545857D01*
X226131523Y-75545857D02*
X226083904Y-75450619D01*
X226083904Y-75450619D02*
X226036285Y-75403000D01*
X226036285Y-75403000D02*
X225941047Y-75355380D01*
X225941047Y-75355380D02*
X225750571Y-75355380D01*
X225750571Y-75355380D02*
X225655333Y-75403000D01*
X225655333Y-75403000D02*
X225607714Y-75450619D01*
X225607714Y-75450619D02*
X225560095Y-75545857D01*
X225560095Y-75545857D02*
X225560095Y-75593476D01*
X225560095Y-75593476D02*
X225607714Y-75688714D01*
X225607714Y-75688714D02*
X225655333Y-75736333D01*
X225655333Y-75736333D02*
X225750571Y-75783952D01*
X225750571Y-75783952D02*
X225941047Y-75783952D01*
X225941047Y-75783952D02*
X226036285Y-75831571D01*
X226036285Y-75831571D02*
X226083904Y-75879190D01*
X226083904Y-75879190D02*
X226131523Y-75974428D01*
X226131523Y-75974428D02*
X226131523Y-76164904D01*
X226131523Y-76164904D02*
X226083904Y-76260142D01*
X226083904Y-76260142D02*
X226036285Y-76307761D01*
X226036285Y-76307761D02*
X225941047Y-76355380D01*
X225941047Y-76355380D02*
X225750571Y-76355380D01*
X225750571Y-76355380D02*
X225655333Y-76307761D01*
X225655333Y-76307761D02*
X225607714Y-76260142D01*
X225607714Y-76260142D02*
X225560095Y-76164904D01*
X225560095Y-76164904D02*
X225560095Y-75974428D01*
X225560095Y-75974428D02*
X225607714Y-75879190D01*
X225607714Y-75879190D02*
X225655333Y-75831571D01*
X225655333Y-75831571D02*
X225750571Y-75783952D01*
X247340285Y-72545380D02*
X247340285Y-71545380D01*
X247340285Y-71545380D02*
X247102190Y-71545380D01*
X247102190Y-71545380D02*
X246959333Y-71593000D01*
X246959333Y-71593000D02*
X246864095Y-71688238D01*
X246864095Y-71688238D02*
X246816476Y-71783476D01*
X246816476Y-71783476D02*
X246768857Y-71973952D01*
X246768857Y-71973952D02*
X246768857Y-72116809D01*
X246768857Y-72116809D02*
X246816476Y-72307285D01*
X246816476Y-72307285D02*
X246864095Y-72402523D01*
X246864095Y-72402523D02*
X246959333Y-72497761D01*
X246959333Y-72497761D02*
X247102190Y-72545380D01*
X247102190Y-72545380D02*
X247340285Y-72545380D01*
X245911714Y-71878714D02*
X245911714Y-72545380D01*
X246149809Y-71497761D02*
X246387904Y-72212047D01*
X246387904Y-72212047D02*
X245768857Y-72212047D01*
X245340285Y-72545380D02*
X245149809Y-72545380D01*
X245149809Y-72545380D02*
X245054571Y-72497761D01*
X245054571Y-72497761D02*
X245006952Y-72450142D01*
X245006952Y-72450142D02*
X244911714Y-72307285D01*
X244911714Y-72307285D02*
X244864095Y-72116809D01*
X244864095Y-72116809D02*
X244864095Y-71735857D01*
X244864095Y-71735857D02*
X244911714Y-71640619D01*
X244911714Y-71640619D02*
X244959333Y-71593000D01*
X244959333Y-71593000D02*
X245054571Y-71545380D01*
X245054571Y-71545380D02*
X245245047Y-71545380D01*
X245245047Y-71545380D02*
X245340285Y-71593000D01*
X245340285Y-71593000D02*
X245387904Y-71640619D01*
X245387904Y-71640619D02*
X245435523Y-71735857D01*
X245435523Y-71735857D02*
X245435523Y-71973952D01*
X245435523Y-71973952D02*
X245387904Y-72069190D01*
X245387904Y-72069190D02*
X245340285Y-72116809D01*
X245340285Y-72116809D02*
X245245047Y-72164428D01*
X245245047Y-72164428D02*
X245054571Y-72164428D01*
X245054571Y-72164428D02*
X244959333Y-72116809D01*
X244959333Y-72116809D02*
X244911714Y-72069190D01*
X244911714Y-72069190D02*
X244864095Y-71973952D01*
X266644285Y-68989380D02*
X266644285Y-67989380D01*
X266644285Y-67989380D02*
X266406190Y-67989380D01*
X266406190Y-67989380D02*
X266263333Y-68037000D01*
X266263333Y-68037000D02*
X266168095Y-68132238D01*
X266168095Y-68132238D02*
X266120476Y-68227476D01*
X266120476Y-68227476D02*
X266072857Y-68417952D01*
X266072857Y-68417952D02*
X266072857Y-68560809D01*
X266072857Y-68560809D02*
X266120476Y-68751285D01*
X266120476Y-68751285D02*
X266168095Y-68846523D01*
X266168095Y-68846523D02*
X266263333Y-68941761D01*
X266263333Y-68941761D02*
X266406190Y-68989380D01*
X266406190Y-68989380D02*
X266644285Y-68989380D01*
X265168095Y-67989380D02*
X265644285Y-67989380D01*
X265644285Y-67989380D02*
X265691904Y-68465571D01*
X265691904Y-68465571D02*
X265644285Y-68417952D01*
X265644285Y-68417952D02*
X265549047Y-68370333D01*
X265549047Y-68370333D02*
X265310952Y-68370333D01*
X265310952Y-68370333D02*
X265215714Y-68417952D01*
X265215714Y-68417952D02*
X265168095Y-68465571D01*
X265168095Y-68465571D02*
X265120476Y-68560809D01*
X265120476Y-68560809D02*
X265120476Y-68798904D01*
X265120476Y-68798904D02*
X265168095Y-68894142D01*
X265168095Y-68894142D02*
X265215714Y-68941761D01*
X265215714Y-68941761D02*
X265310952Y-68989380D01*
X265310952Y-68989380D02*
X265549047Y-68989380D01*
X265549047Y-68989380D02*
X265644285Y-68941761D01*
X265644285Y-68941761D02*
X265691904Y-68894142D01*
X264501428Y-67989380D02*
X264406190Y-67989380D01*
X264406190Y-67989380D02*
X264310952Y-68037000D01*
X264310952Y-68037000D02*
X264263333Y-68084619D01*
X264263333Y-68084619D02*
X264215714Y-68179857D01*
X264215714Y-68179857D02*
X264168095Y-68370333D01*
X264168095Y-68370333D02*
X264168095Y-68608428D01*
X264168095Y-68608428D02*
X264215714Y-68798904D01*
X264215714Y-68798904D02*
X264263333Y-68894142D01*
X264263333Y-68894142D02*
X264310952Y-68941761D01*
X264310952Y-68941761D02*
X264406190Y-68989380D01*
X264406190Y-68989380D02*
X264501428Y-68989380D01*
X264501428Y-68989380D02*
X264596666Y-68941761D01*
X264596666Y-68941761D02*
X264644285Y-68894142D01*
X264644285Y-68894142D02*
X264691904Y-68798904D01*
X264691904Y-68798904D02*
X264739523Y-68608428D01*
X264739523Y-68608428D02*
X264739523Y-68370333D01*
X264739523Y-68370333D02*
X264691904Y-68179857D01*
X264691904Y-68179857D02*
X264644285Y-68084619D01*
X264644285Y-68084619D02*
X264596666Y-68037000D01*
X264596666Y-68037000D02*
X264501428Y-67989380D01*
X285948285Y-67973380D02*
X285948285Y-66973380D01*
X285948285Y-66973380D02*
X285710190Y-66973380D01*
X285710190Y-66973380D02*
X285567333Y-67021000D01*
X285567333Y-67021000D02*
X285472095Y-67116238D01*
X285472095Y-67116238D02*
X285424476Y-67211476D01*
X285424476Y-67211476D02*
X285376857Y-67401952D01*
X285376857Y-67401952D02*
X285376857Y-67544809D01*
X285376857Y-67544809D02*
X285424476Y-67735285D01*
X285424476Y-67735285D02*
X285472095Y-67830523D01*
X285472095Y-67830523D02*
X285567333Y-67925761D01*
X285567333Y-67925761D02*
X285710190Y-67973380D01*
X285710190Y-67973380D02*
X285948285Y-67973380D01*
X284472095Y-66973380D02*
X284948285Y-66973380D01*
X284948285Y-66973380D02*
X284995904Y-67449571D01*
X284995904Y-67449571D02*
X284948285Y-67401952D01*
X284948285Y-67401952D02*
X284853047Y-67354333D01*
X284853047Y-67354333D02*
X284614952Y-67354333D01*
X284614952Y-67354333D02*
X284519714Y-67401952D01*
X284519714Y-67401952D02*
X284472095Y-67449571D01*
X284472095Y-67449571D02*
X284424476Y-67544809D01*
X284424476Y-67544809D02*
X284424476Y-67782904D01*
X284424476Y-67782904D02*
X284472095Y-67878142D01*
X284472095Y-67878142D02*
X284519714Y-67925761D01*
X284519714Y-67925761D02*
X284614952Y-67973380D01*
X284614952Y-67973380D02*
X284853047Y-67973380D01*
X284853047Y-67973380D02*
X284948285Y-67925761D01*
X284948285Y-67925761D02*
X284995904Y-67878142D01*
X283472095Y-67973380D02*
X284043523Y-67973380D01*
X283757809Y-67973380D02*
X283757809Y-66973380D01*
X283757809Y-66973380D02*
X283853047Y-67116238D01*
X283853047Y-67116238D02*
X283948285Y-67211476D01*
X283948285Y-67211476D02*
X284043523Y-67259095D01*
X174950285Y-107089380D02*
X174950285Y-106089380D01*
X174950285Y-106089380D02*
X174712190Y-106089380D01*
X174712190Y-106089380D02*
X174569333Y-106137000D01*
X174569333Y-106137000D02*
X174474095Y-106232238D01*
X174474095Y-106232238D02*
X174426476Y-106327476D01*
X174426476Y-106327476D02*
X174378857Y-106517952D01*
X174378857Y-106517952D02*
X174378857Y-106660809D01*
X174378857Y-106660809D02*
X174426476Y-106851285D01*
X174426476Y-106851285D02*
X174474095Y-106946523D01*
X174474095Y-106946523D02*
X174569333Y-107041761D01*
X174569333Y-107041761D02*
X174712190Y-107089380D01*
X174712190Y-107089380D02*
X174950285Y-107089380D01*
X173474095Y-106089380D02*
X173950285Y-106089380D01*
X173950285Y-106089380D02*
X173997904Y-106565571D01*
X173997904Y-106565571D02*
X173950285Y-106517952D01*
X173950285Y-106517952D02*
X173855047Y-106470333D01*
X173855047Y-106470333D02*
X173616952Y-106470333D01*
X173616952Y-106470333D02*
X173521714Y-106517952D01*
X173521714Y-106517952D02*
X173474095Y-106565571D01*
X173474095Y-106565571D02*
X173426476Y-106660809D01*
X173426476Y-106660809D02*
X173426476Y-106898904D01*
X173426476Y-106898904D02*
X173474095Y-106994142D01*
X173474095Y-106994142D02*
X173521714Y-107041761D01*
X173521714Y-107041761D02*
X173616952Y-107089380D01*
X173616952Y-107089380D02*
X173855047Y-107089380D01*
X173855047Y-107089380D02*
X173950285Y-107041761D01*
X173950285Y-107041761D02*
X173997904Y-106994142D01*
X173045523Y-106184619D02*
X172997904Y-106137000D01*
X172997904Y-106137000D02*
X172902666Y-106089380D01*
X172902666Y-106089380D02*
X172664571Y-106089380D01*
X172664571Y-106089380D02*
X172569333Y-106137000D01*
X172569333Y-106137000D02*
X172521714Y-106184619D01*
X172521714Y-106184619D02*
X172474095Y-106279857D01*
X172474095Y-106279857D02*
X172474095Y-106375095D01*
X172474095Y-106375095D02*
X172521714Y-106517952D01*
X172521714Y-106517952D02*
X173093142Y-107089380D01*
X173093142Y-107089380D02*
X172474095Y-107089380D01*
X194254285Y-102771380D02*
X194254285Y-101771380D01*
X194254285Y-101771380D02*
X194016190Y-101771380D01*
X194016190Y-101771380D02*
X193873333Y-101819000D01*
X193873333Y-101819000D02*
X193778095Y-101914238D01*
X193778095Y-101914238D02*
X193730476Y-102009476D01*
X193730476Y-102009476D02*
X193682857Y-102199952D01*
X193682857Y-102199952D02*
X193682857Y-102342809D01*
X193682857Y-102342809D02*
X193730476Y-102533285D01*
X193730476Y-102533285D02*
X193778095Y-102628523D01*
X193778095Y-102628523D02*
X193873333Y-102723761D01*
X193873333Y-102723761D02*
X194016190Y-102771380D01*
X194016190Y-102771380D02*
X194254285Y-102771380D01*
X192778095Y-101771380D02*
X193254285Y-101771380D01*
X193254285Y-101771380D02*
X193301904Y-102247571D01*
X193301904Y-102247571D02*
X193254285Y-102199952D01*
X193254285Y-102199952D02*
X193159047Y-102152333D01*
X193159047Y-102152333D02*
X192920952Y-102152333D01*
X192920952Y-102152333D02*
X192825714Y-102199952D01*
X192825714Y-102199952D02*
X192778095Y-102247571D01*
X192778095Y-102247571D02*
X192730476Y-102342809D01*
X192730476Y-102342809D02*
X192730476Y-102580904D01*
X192730476Y-102580904D02*
X192778095Y-102676142D01*
X192778095Y-102676142D02*
X192825714Y-102723761D01*
X192825714Y-102723761D02*
X192920952Y-102771380D01*
X192920952Y-102771380D02*
X193159047Y-102771380D01*
X193159047Y-102771380D02*
X193254285Y-102723761D01*
X193254285Y-102723761D02*
X193301904Y-102676142D01*
X192397142Y-101771380D02*
X191778095Y-101771380D01*
X191778095Y-101771380D02*
X192111428Y-102152333D01*
X192111428Y-102152333D02*
X191968571Y-102152333D01*
X191968571Y-102152333D02*
X191873333Y-102199952D01*
X191873333Y-102199952D02*
X191825714Y-102247571D01*
X191825714Y-102247571D02*
X191778095Y-102342809D01*
X191778095Y-102342809D02*
X191778095Y-102580904D01*
X191778095Y-102580904D02*
X191825714Y-102676142D01*
X191825714Y-102676142D02*
X191873333Y-102723761D01*
X191873333Y-102723761D02*
X191968571Y-102771380D01*
X191968571Y-102771380D02*
X192254285Y-102771380D01*
X192254285Y-102771380D02*
X192349523Y-102723761D01*
X192349523Y-102723761D02*
X192397142Y-102676142D01*
X213558285Y-98961380D02*
X213558285Y-97961380D01*
X213558285Y-97961380D02*
X213320190Y-97961380D01*
X213320190Y-97961380D02*
X213177333Y-98009000D01*
X213177333Y-98009000D02*
X213082095Y-98104238D01*
X213082095Y-98104238D02*
X213034476Y-98199476D01*
X213034476Y-98199476D02*
X212986857Y-98389952D01*
X212986857Y-98389952D02*
X212986857Y-98532809D01*
X212986857Y-98532809D02*
X213034476Y-98723285D01*
X213034476Y-98723285D02*
X213082095Y-98818523D01*
X213082095Y-98818523D02*
X213177333Y-98913761D01*
X213177333Y-98913761D02*
X213320190Y-98961380D01*
X213320190Y-98961380D02*
X213558285Y-98961380D01*
X212082095Y-97961380D02*
X212558285Y-97961380D01*
X212558285Y-97961380D02*
X212605904Y-98437571D01*
X212605904Y-98437571D02*
X212558285Y-98389952D01*
X212558285Y-98389952D02*
X212463047Y-98342333D01*
X212463047Y-98342333D02*
X212224952Y-98342333D01*
X212224952Y-98342333D02*
X212129714Y-98389952D01*
X212129714Y-98389952D02*
X212082095Y-98437571D01*
X212082095Y-98437571D02*
X212034476Y-98532809D01*
X212034476Y-98532809D02*
X212034476Y-98770904D01*
X212034476Y-98770904D02*
X212082095Y-98866142D01*
X212082095Y-98866142D02*
X212129714Y-98913761D01*
X212129714Y-98913761D02*
X212224952Y-98961380D01*
X212224952Y-98961380D02*
X212463047Y-98961380D01*
X212463047Y-98961380D02*
X212558285Y-98913761D01*
X212558285Y-98913761D02*
X212605904Y-98866142D01*
X211177333Y-98294714D02*
X211177333Y-98961380D01*
X211415428Y-97913761D02*
X211653523Y-98628047D01*
X211653523Y-98628047D02*
X211034476Y-98628047D01*
X232862285Y-95405380D02*
X232862285Y-94405380D01*
X232862285Y-94405380D02*
X232624190Y-94405380D01*
X232624190Y-94405380D02*
X232481333Y-94453000D01*
X232481333Y-94453000D02*
X232386095Y-94548238D01*
X232386095Y-94548238D02*
X232338476Y-94643476D01*
X232338476Y-94643476D02*
X232290857Y-94833952D01*
X232290857Y-94833952D02*
X232290857Y-94976809D01*
X232290857Y-94976809D02*
X232338476Y-95167285D01*
X232338476Y-95167285D02*
X232386095Y-95262523D01*
X232386095Y-95262523D02*
X232481333Y-95357761D01*
X232481333Y-95357761D02*
X232624190Y-95405380D01*
X232624190Y-95405380D02*
X232862285Y-95405380D01*
X231386095Y-94405380D02*
X231862285Y-94405380D01*
X231862285Y-94405380D02*
X231909904Y-94881571D01*
X231909904Y-94881571D02*
X231862285Y-94833952D01*
X231862285Y-94833952D02*
X231767047Y-94786333D01*
X231767047Y-94786333D02*
X231528952Y-94786333D01*
X231528952Y-94786333D02*
X231433714Y-94833952D01*
X231433714Y-94833952D02*
X231386095Y-94881571D01*
X231386095Y-94881571D02*
X231338476Y-94976809D01*
X231338476Y-94976809D02*
X231338476Y-95214904D01*
X231338476Y-95214904D02*
X231386095Y-95310142D01*
X231386095Y-95310142D02*
X231433714Y-95357761D01*
X231433714Y-95357761D02*
X231528952Y-95405380D01*
X231528952Y-95405380D02*
X231767047Y-95405380D01*
X231767047Y-95405380D02*
X231862285Y-95357761D01*
X231862285Y-95357761D02*
X231909904Y-95310142D01*
X230433714Y-94405380D02*
X230909904Y-94405380D01*
X230909904Y-94405380D02*
X230957523Y-94881571D01*
X230957523Y-94881571D02*
X230909904Y-94833952D01*
X230909904Y-94833952D02*
X230814666Y-94786333D01*
X230814666Y-94786333D02*
X230576571Y-94786333D01*
X230576571Y-94786333D02*
X230481333Y-94833952D01*
X230481333Y-94833952D02*
X230433714Y-94881571D01*
X230433714Y-94881571D02*
X230386095Y-94976809D01*
X230386095Y-94976809D02*
X230386095Y-95214904D01*
X230386095Y-95214904D02*
X230433714Y-95310142D01*
X230433714Y-95310142D02*
X230481333Y-95357761D01*
X230481333Y-95357761D02*
X230576571Y-95405380D01*
X230576571Y-95405380D02*
X230814666Y-95405380D01*
X230814666Y-95405380D02*
X230909904Y-95357761D01*
X230909904Y-95357761D02*
X230957523Y-95310142D01*
X252166285Y-92103380D02*
X252166285Y-91103380D01*
X252166285Y-91103380D02*
X251928190Y-91103380D01*
X251928190Y-91103380D02*
X251785333Y-91151000D01*
X251785333Y-91151000D02*
X251690095Y-91246238D01*
X251690095Y-91246238D02*
X251642476Y-91341476D01*
X251642476Y-91341476D02*
X251594857Y-91531952D01*
X251594857Y-91531952D02*
X251594857Y-91674809D01*
X251594857Y-91674809D02*
X251642476Y-91865285D01*
X251642476Y-91865285D02*
X251690095Y-91960523D01*
X251690095Y-91960523D02*
X251785333Y-92055761D01*
X251785333Y-92055761D02*
X251928190Y-92103380D01*
X251928190Y-92103380D02*
X252166285Y-92103380D01*
X250690095Y-91103380D02*
X251166285Y-91103380D01*
X251166285Y-91103380D02*
X251213904Y-91579571D01*
X251213904Y-91579571D02*
X251166285Y-91531952D01*
X251166285Y-91531952D02*
X251071047Y-91484333D01*
X251071047Y-91484333D02*
X250832952Y-91484333D01*
X250832952Y-91484333D02*
X250737714Y-91531952D01*
X250737714Y-91531952D02*
X250690095Y-91579571D01*
X250690095Y-91579571D02*
X250642476Y-91674809D01*
X250642476Y-91674809D02*
X250642476Y-91912904D01*
X250642476Y-91912904D02*
X250690095Y-92008142D01*
X250690095Y-92008142D02*
X250737714Y-92055761D01*
X250737714Y-92055761D02*
X250832952Y-92103380D01*
X250832952Y-92103380D02*
X251071047Y-92103380D01*
X251071047Y-92103380D02*
X251166285Y-92055761D01*
X251166285Y-92055761D02*
X251213904Y-92008142D01*
X249785333Y-91103380D02*
X249975809Y-91103380D01*
X249975809Y-91103380D02*
X250071047Y-91151000D01*
X250071047Y-91151000D02*
X250118666Y-91198619D01*
X250118666Y-91198619D02*
X250213904Y-91341476D01*
X250213904Y-91341476D02*
X250261523Y-91531952D01*
X250261523Y-91531952D02*
X250261523Y-91912904D01*
X250261523Y-91912904D02*
X250213904Y-92008142D01*
X250213904Y-92008142D02*
X250166285Y-92055761D01*
X250166285Y-92055761D02*
X250071047Y-92103380D01*
X250071047Y-92103380D02*
X249880571Y-92103380D01*
X249880571Y-92103380D02*
X249785333Y-92055761D01*
X249785333Y-92055761D02*
X249737714Y-92008142D01*
X249737714Y-92008142D02*
X249690095Y-91912904D01*
X249690095Y-91912904D02*
X249690095Y-91674809D01*
X249690095Y-91674809D02*
X249737714Y-91579571D01*
X249737714Y-91579571D02*
X249785333Y-91531952D01*
X249785333Y-91531952D02*
X249880571Y-91484333D01*
X249880571Y-91484333D02*
X250071047Y-91484333D01*
X250071047Y-91484333D02*
X250166285Y-91531952D01*
X250166285Y-91531952D02*
X250213904Y-91579571D01*
X250213904Y-91579571D02*
X250261523Y-91674809D01*
X271470285Y-88293380D02*
X271470285Y-87293380D01*
X271470285Y-87293380D02*
X271232190Y-87293380D01*
X271232190Y-87293380D02*
X271089333Y-87341000D01*
X271089333Y-87341000D02*
X270994095Y-87436238D01*
X270994095Y-87436238D02*
X270946476Y-87531476D01*
X270946476Y-87531476D02*
X270898857Y-87721952D01*
X270898857Y-87721952D02*
X270898857Y-87864809D01*
X270898857Y-87864809D02*
X270946476Y-88055285D01*
X270946476Y-88055285D02*
X270994095Y-88150523D01*
X270994095Y-88150523D02*
X271089333Y-88245761D01*
X271089333Y-88245761D02*
X271232190Y-88293380D01*
X271232190Y-88293380D02*
X271470285Y-88293380D01*
X269994095Y-87293380D02*
X270470285Y-87293380D01*
X270470285Y-87293380D02*
X270517904Y-87769571D01*
X270517904Y-87769571D02*
X270470285Y-87721952D01*
X270470285Y-87721952D02*
X270375047Y-87674333D01*
X270375047Y-87674333D02*
X270136952Y-87674333D01*
X270136952Y-87674333D02*
X270041714Y-87721952D01*
X270041714Y-87721952D02*
X269994095Y-87769571D01*
X269994095Y-87769571D02*
X269946476Y-87864809D01*
X269946476Y-87864809D02*
X269946476Y-88102904D01*
X269946476Y-88102904D02*
X269994095Y-88198142D01*
X269994095Y-88198142D02*
X270041714Y-88245761D01*
X270041714Y-88245761D02*
X270136952Y-88293380D01*
X270136952Y-88293380D02*
X270375047Y-88293380D01*
X270375047Y-88293380D02*
X270470285Y-88245761D01*
X270470285Y-88245761D02*
X270517904Y-88198142D01*
X269613142Y-87293380D02*
X268946476Y-87293380D01*
X268946476Y-87293380D02*
X269375047Y-88293380D01*
X290774285Y-87277380D02*
X290774285Y-86277380D01*
X290774285Y-86277380D02*
X290536190Y-86277380D01*
X290536190Y-86277380D02*
X290393333Y-86325000D01*
X290393333Y-86325000D02*
X290298095Y-86420238D01*
X290298095Y-86420238D02*
X290250476Y-86515476D01*
X290250476Y-86515476D02*
X290202857Y-86705952D01*
X290202857Y-86705952D02*
X290202857Y-86848809D01*
X290202857Y-86848809D02*
X290250476Y-87039285D01*
X290250476Y-87039285D02*
X290298095Y-87134523D01*
X290298095Y-87134523D02*
X290393333Y-87229761D01*
X290393333Y-87229761D02*
X290536190Y-87277380D01*
X290536190Y-87277380D02*
X290774285Y-87277380D01*
X289298095Y-86277380D02*
X289774285Y-86277380D01*
X289774285Y-86277380D02*
X289821904Y-86753571D01*
X289821904Y-86753571D02*
X289774285Y-86705952D01*
X289774285Y-86705952D02*
X289679047Y-86658333D01*
X289679047Y-86658333D02*
X289440952Y-86658333D01*
X289440952Y-86658333D02*
X289345714Y-86705952D01*
X289345714Y-86705952D02*
X289298095Y-86753571D01*
X289298095Y-86753571D02*
X289250476Y-86848809D01*
X289250476Y-86848809D02*
X289250476Y-87086904D01*
X289250476Y-87086904D02*
X289298095Y-87182142D01*
X289298095Y-87182142D02*
X289345714Y-87229761D01*
X289345714Y-87229761D02*
X289440952Y-87277380D01*
X289440952Y-87277380D02*
X289679047Y-87277380D01*
X289679047Y-87277380D02*
X289774285Y-87229761D01*
X289774285Y-87229761D02*
X289821904Y-87182142D01*
X288679047Y-86705952D02*
X288774285Y-86658333D01*
X288774285Y-86658333D02*
X288821904Y-86610714D01*
X288821904Y-86610714D02*
X288869523Y-86515476D01*
X288869523Y-86515476D02*
X288869523Y-86467857D01*
X288869523Y-86467857D02*
X288821904Y-86372619D01*
X288821904Y-86372619D02*
X288774285Y-86325000D01*
X288774285Y-86325000D02*
X288679047Y-86277380D01*
X288679047Y-86277380D02*
X288488571Y-86277380D01*
X288488571Y-86277380D02*
X288393333Y-86325000D01*
X288393333Y-86325000D02*
X288345714Y-86372619D01*
X288345714Y-86372619D02*
X288298095Y-86467857D01*
X288298095Y-86467857D02*
X288298095Y-86515476D01*
X288298095Y-86515476D02*
X288345714Y-86610714D01*
X288345714Y-86610714D02*
X288393333Y-86658333D01*
X288393333Y-86658333D02*
X288488571Y-86705952D01*
X288488571Y-86705952D02*
X288679047Y-86705952D01*
X288679047Y-86705952D02*
X288774285Y-86753571D01*
X288774285Y-86753571D02*
X288821904Y-86801190D01*
X288821904Y-86801190D02*
X288869523Y-86896428D01*
X288869523Y-86896428D02*
X288869523Y-87086904D01*
X288869523Y-87086904D02*
X288821904Y-87182142D01*
X288821904Y-87182142D02*
X288774285Y-87229761D01*
X288774285Y-87229761D02*
X288679047Y-87277380D01*
X288679047Y-87277380D02*
X288488571Y-87277380D01*
X288488571Y-87277380D02*
X288393333Y-87229761D01*
X288393333Y-87229761D02*
X288345714Y-87182142D01*
X288345714Y-87182142D02*
X288298095Y-87086904D01*
X288298095Y-87086904D02*
X288298095Y-86896428D01*
X288298095Y-86896428D02*
X288345714Y-86801190D01*
X288345714Y-86801190D02*
X288393333Y-86753571D01*
X288393333Y-86753571D02*
X288488571Y-86705952D01*
X174950285Y-126139380D02*
X174950285Y-125139380D01*
X174950285Y-125139380D02*
X174712190Y-125139380D01*
X174712190Y-125139380D02*
X174569333Y-125187000D01*
X174569333Y-125187000D02*
X174474095Y-125282238D01*
X174474095Y-125282238D02*
X174426476Y-125377476D01*
X174426476Y-125377476D02*
X174378857Y-125567952D01*
X174378857Y-125567952D02*
X174378857Y-125710809D01*
X174378857Y-125710809D02*
X174426476Y-125901285D01*
X174426476Y-125901285D02*
X174474095Y-125996523D01*
X174474095Y-125996523D02*
X174569333Y-126091761D01*
X174569333Y-126091761D02*
X174712190Y-126139380D01*
X174712190Y-126139380D02*
X174950285Y-126139380D01*
X173474095Y-125139380D02*
X173950285Y-125139380D01*
X173950285Y-125139380D02*
X173997904Y-125615571D01*
X173997904Y-125615571D02*
X173950285Y-125567952D01*
X173950285Y-125567952D02*
X173855047Y-125520333D01*
X173855047Y-125520333D02*
X173616952Y-125520333D01*
X173616952Y-125520333D02*
X173521714Y-125567952D01*
X173521714Y-125567952D02*
X173474095Y-125615571D01*
X173474095Y-125615571D02*
X173426476Y-125710809D01*
X173426476Y-125710809D02*
X173426476Y-125948904D01*
X173426476Y-125948904D02*
X173474095Y-126044142D01*
X173474095Y-126044142D02*
X173521714Y-126091761D01*
X173521714Y-126091761D02*
X173616952Y-126139380D01*
X173616952Y-126139380D02*
X173855047Y-126139380D01*
X173855047Y-126139380D02*
X173950285Y-126091761D01*
X173950285Y-126091761D02*
X173997904Y-126044142D01*
X172950285Y-126139380D02*
X172759809Y-126139380D01*
X172759809Y-126139380D02*
X172664571Y-126091761D01*
X172664571Y-126091761D02*
X172616952Y-126044142D01*
X172616952Y-126044142D02*
X172521714Y-125901285D01*
X172521714Y-125901285D02*
X172474095Y-125710809D01*
X172474095Y-125710809D02*
X172474095Y-125329857D01*
X172474095Y-125329857D02*
X172521714Y-125234619D01*
X172521714Y-125234619D02*
X172569333Y-125187000D01*
X172569333Y-125187000D02*
X172664571Y-125139380D01*
X172664571Y-125139380D02*
X172855047Y-125139380D01*
X172855047Y-125139380D02*
X172950285Y-125187000D01*
X172950285Y-125187000D02*
X172997904Y-125234619D01*
X172997904Y-125234619D02*
X173045523Y-125329857D01*
X173045523Y-125329857D02*
X173045523Y-125567952D01*
X173045523Y-125567952D02*
X172997904Y-125663190D01*
X172997904Y-125663190D02*
X172950285Y-125710809D01*
X172950285Y-125710809D02*
X172855047Y-125758428D01*
X172855047Y-125758428D02*
X172664571Y-125758428D01*
X172664571Y-125758428D02*
X172569333Y-125710809D01*
X172569333Y-125710809D02*
X172521714Y-125663190D01*
X172521714Y-125663190D02*
X172474095Y-125567952D01*
X194254285Y-121821380D02*
X194254285Y-120821380D01*
X194254285Y-120821380D02*
X194016190Y-120821380D01*
X194016190Y-120821380D02*
X193873333Y-120869000D01*
X193873333Y-120869000D02*
X193778095Y-120964238D01*
X193778095Y-120964238D02*
X193730476Y-121059476D01*
X193730476Y-121059476D02*
X193682857Y-121249952D01*
X193682857Y-121249952D02*
X193682857Y-121392809D01*
X193682857Y-121392809D02*
X193730476Y-121583285D01*
X193730476Y-121583285D02*
X193778095Y-121678523D01*
X193778095Y-121678523D02*
X193873333Y-121773761D01*
X193873333Y-121773761D02*
X194016190Y-121821380D01*
X194016190Y-121821380D02*
X194254285Y-121821380D01*
X192825714Y-120821380D02*
X193016190Y-120821380D01*
X193016190Y-120821380D02*
X193111428Y-120869000D01*
X193111428Y-120869000D02*
X193159047Y-120916619D01*
X193159047Y-120916619D02*
X193254285Y-121059476D01*
X193254285Y-121059476D02*
X193301904Y-121249952D01*
X193301904Y-121249952D02*
X193301904Y-121630904D01*
X193301904Y-121630904D02*
X193254285Y-121726142D01*
X193254285Y-121726142D02*
X193206666Y-121773761D01*
X193206666Y-121773761D02*
X193111428Y-121821380D01*
X193111428Y-121821380D02*
X192920952Y-121821380D01*
X192920952Y-121821380D02*
X192825714Y-121773761D01*
X192825714Y-121773761D02*
X192778095Y-121726142D01*
X192778095Y-121726142D02*
X192730476Y-121630904D01*
X192730476Y-121630904D02*
X192730476Y-121392809D01*
X192730476Y-121392809D02*
X192778095Y-121297571D01*
X192778095Y-121297571D02*
X192825714Y-121249952D01*
X192825714Y-121249952D02*
X192920952Y-121202333D01*
X192920952Y-121202333D02*
X193111428Y-121202333D01*
X193111428Y-121202333D02*
X193206666Y-121249952D01*
X193206666Y-121249952D02*
X193254285Y-121297571D01*
X193254285Y-121297571D02*
X193301904Y-121392809D01*
X192111428Y-120821380D02*
X192016190Y-120821380D01*
X192016190Y-120821380D02*
X191920952Y-120869000D01*
X191920952Y-120869000D02*
X191873333Y-120916619D01*
X191873333Y-120916619D02*
X191825714Y-121011857D01*
X191825714Y-121011857D02*
X191778095Y-121202333D01*
X191778095Y-121202333D02*
X191778095Y-121440428D01*
X191778095Y-121440428D02*
X191825714Y-121630904D01*
X191825714Y-121630904D02*
X191873333Y-121726142D01*
X191873333Y-121726142D02*
X191920952Y-121773761D01*
X191920952Y-121773761D02*
X192016190Y-121821380D01*
X192016190Y-121821380D02*
X192111428Y-121821380D01*
X192111428Y-121821380D02*
X192206666Y-121773761D01*
X192206666Y-121773761D02*
X192254285Y-121726142D01*
X192254285Y-121726142D02*
X192301904Y-121630904D01*
X192301904Y-121630904D02*
X192349523Y-121440428D01*
X192349523Y-121440428D02*
X192349523Y-121202333D01*
X192349523Y-121202333D02*
X192301904Y-121011857D01*
X192301904Y-121011857D02*
X192254285Y-120916619D01*
X192254285Y-120916619D02*
X192206666Y-120869000D01*
X192206666Y-120869000D02*
X192111428Y-120821380D01*
X213558285Y-118265380D02*
X213558285Y-117265380D01*
X213558285Y-117265380D02*
X213320190Y-117265380D01*
X213320190Y-117265380D02*
X213177333Y-117313000D01*
X213177333Y-117313000D02*
X213082095Y-117408238D01*
X213082095Y-117408238D02*
X213034476Y-117503476D01*
X213034476Y-117503476D02*
X212986857Y-117693952D01*
X212986857Y-117693952D02*
X212986857Y-117836809D01*
X212986857Y-117836809D02*
X213034476Y-118027285D01*
X213034476Y-118027285D02*
X213082095Y-118122523D01*
X213082095Y-118122523D02*
X213177333Y-118217761D01*
X213177333Y-118217761D02*
X213320190Y-118265380D01*
X213320190Y-118265380D02*
X213558285Y-118265380D01*
X212129714Y-117265380D02*
X212320190Y-117265380D01*
X212320190Y-117265380D02*
X212415428Y-117313000D01*
X212415428Y-117313000D02*
X212463047Y-117360619D01*
X212463047Y-117360619D02*
X212558285Y-117503476D01*
X212558285Y-117503476D02*
X212605904Y-117693952D01*
X212605904Y-117693952D02*
X212605904Y-118074904D01*
X212605904Y-118074904D02*
X212558285Y-118170142D01*
X212558285Y-118170142D02*
X212510666Y-118217761D01*
X212510666Y-118217761D02*
X212415428Y-118265380D01*
X212415428Y-118265380D02*
X212224952Y-118265380D01*
X212224952Y-118265380D02*
X212129714Y-118217761D01*
X212129714Y-118217761D02*
X212082095Y-118170142D01*
X212082095Y-118170142D02*
X212034476Y-118074904D01*
X212034476Y-118074904D02*
X212034476Y-117836809D01*
X212034476Y-117836809D02*
X212082095Y-117741571D01*
X212082095Y-117741571D02*
X212129714Y-117693952D01*
X212129714Y-117693952D02*
X212224952Y-117646333D01*
X212224952Y-117646333D02*
X212415428Y-117646333D01*
X212415428Y-117646333D02*
X212510666Y-117693952D01*
X212510666Y-117693952D02*
X212558285Y-117741571D01*
X212558285Y-117741571D02*
X212605904Y-117836809D01*
X211082095Y-118265380D02*
X211653523Y-118265380D01*
X211367809Y-118265380D02*
X211367809Y-117265380D01*
X211367809Y-117265380D02*
X211463047Y-117408238D01*
X211463047Y-117408238D02*
X211558285Y-117503476D01*
X211558285Y-117503476D02*
X211653523Y-117551095D01*
X232862285Y-114709380D02*
X232862285Y-113709380D01*
X232862285Y-113709380D02*
X232624190Y-113709380D01*
X232624190Y-113709380D02*
X232481333Y-113757000D01*
X232481333Y-113757000D02*
X232386095Y-113852238D01*
X232386095Y-113852238D02*
X232338476Y-113947476D01*
X232338476Y-113947476D02*
X232290857Y-114137952D01*
X232290857Y-114137952D02*
X232290857Y-114280809D01*
X232290857Y-114280809D02*
X232338476Y-114471285D01*
X232338476Y-114471285D02*
X232386095Y-114566523D01*
X232386095Y-114566523D02*
X232481333Y-114661761D01*
X232481333Y-114661761D02*
X232624190Y-114709380D01*
X232624190Y-114709380D02*
X232862285Y-114709380D01*
X231433714Y-113709380D02*
X231624190Y-113709380D01*
X231624190Y-113709380D02*
X231719428Y-113757000D01*
X231719428Y-113757000D02*
X231767047Y-113804619D01*
X231767047Y-113804619D02*
X231862285Y-113947476D01*
X231862285Y-113947476D02*
X231909904Y-114137952D01*
X231909904Y-114137952D02*
X231909904Y-114518904D01*
X231909904Y-114518904D02*
X231862285Y-114614142D01*
X231862285Y-114614142D02*
X231814666Y-114661761D01*
X231814666Y-114661761D02*
X231719428Y-114709380D01*
X231719428Y-114709380D02*
X231528952Y-114709380D01*
X231528952Y-114709380D02*
X231433714Y-114661761D01*
X231433714Y-114661761D02*
X231386095Y-114614142D01*
X231386095Y-114614142D02*
X231338476Y-114518904D01*
X231338476Y-114518904D02*
X231338476Y-114280809D01*
X231338476Y-114280809D02*
X231386095Y-114185571D01*
X231386095Y-114185571D02*
X231433714Y-114137952D01*
X231433714Y-114137952D02*
X231528952Y-114090333D01*
X231528952Y-114090333D02*
X231719428Y-114090333D01*
X231719428Y-114090333D02*
X231814666Y-114137952D01*
X231814666Y-114137952D02*
X231862285Y-114185571D01*
X231862285Y-114185571D02*
X231909904Y-114280809D01*
X230957523Y-113804619D02*
X230909904Y-113757000D01*
X230909904Y-113757000D02*
X230814666Y-113709380D01*
X230814666Y-113709380D02*
X230576571Y-113709380D01*
X230576571Y-113709380D02*
X230481333Y-113757000D01*
X230481333Y-113757000D02*
X230433714Y-113804619D01*
X230433714Y-113804619D02*
X230386095Y-113899857D01*
X230386095Y-113899857D02*
X230386095Y-113995095D01*
X230386095Y-113995095D02*
X230433714Y-114137952D01*
X230433714Y-114137952D02*
X231005142Y-114709380D01*
X231005142Y-114709380D02*
X230386095Y-114709380D01*
X252166285Y-111153380D02*
X252166285Y-110153380D01*
X252166285Y-110153380D02*
X251928190Y-110153380D01*
X251928190Y-110153380D02*
X251785333Y-110201000D01*
X251785333Y-110201000D02*
X251690095Y-110296238D01*
X251690095Y-110296238D02*
X251642476Y-110391476D01*
X251642476Y-110391476D02*
X251594857Y-110581952D01*
X251594857Y-110581952D02*
X251594857Y-110724809D01*
X251594857Y-110724809D02*
X251642476Y-110915285D01*
X251642476Y-110915285D02*
X251690095Y-111010523D01*
X251690095Y-111010523D02*
X251785333Y-111105761D01*
X251785333Y-111105761D02*
X251928190Y-111153380D01*
X251928190Y-111153380D02*
X252166285Y-111153380D01*
X250737714Y-110153380D02*
X250928190Y-110153380D01*
X250928190Y-110153380D02*
X251023428Y-110201000D01*
X251023428Y-110201000D02*
X251071047Y-110248619D01*
X251071047Y-110248619D02*
X251166285Y-110391476D01*
X251166285Y-110391476D02*
X251213904Y-110581952D01*
X251213904Y-110581952D02*
X251213904Y-110962904D01*
X251213904Y-110962904D02*
X251166285Y-111058142D01*
X251166285Y-111058142D02*
X251118666Y-111105761D01*
X251118666Y-111105761D02*
X251023428Y-111153380D01*
X251023428Y-111153380D02*
X250832952Y-111153380D01*
X250832952Y-111153380D02*
X250737714Y-111105761D01*
X250737714Y-111105761D02*
X250690095Y-111058142D01*
X250690095Y-111058142D02*
X250642476Y-110962904D01*
X250642476Y-110962904D02*
X250642476Y-110724809D01*
X250642476Y-110724809D02*
X250690095Y-110629571D01*
X250690095Y-110629571D02*
X250737714Y-110581952D01*
X250737714Y-110581952D02*
X250832952Y-110534333D01*
X250832952Y-110534333D02*
X251023428Y-110534333D01*
X251023428Y-110534333D02*
X251118666Y-110581952D01*
X251118666Y-110581952D02*
X251166285Y-110629571D01*
X251166285Y-110629571D02*
X251213904Y-110724809D01*
X250309142Y-110153380D02*
X249690095Y-110153380D01*
X249690095Y-110153380D02*
X250023428Y-110534333D01*
X250023428Y-110534333D02*
X249880571Y-110534333D01*
X249880571Y-110534333D02*
X249785333Y-110581952D01*
X249785333Y-110581952D02*
X249737714Y-110629571D01*
X249737714Y-110629571D02*
X249690095Y-110724809D01*
X249690095Y-110724809D02*
X249690095Y-110962904D01*
X249690095Y-110962904D02*
X249737714Y-111058142D01*
X249737714Y-111058142D02*
X249785333Y-111105761D01*
X249785333Y-111105761D02*
X249880571Y-111153380D01*
X249880571Y-111153380D02*
X250166285Y-111153380D01*
X250166285Y-111153380D02*
X250261523Y-111105761D01*
X250261523Y-111105761D02*
X250309142Y-111058142D01*
X271470285Y-107597380D02*
X271470285Y-106597380D01*
X271470285Y-106597380D02*
X271232190Y-106597380D01*
X271232190Y-106597380D02*
X271089333Y-106645000D01*
X271089333Y-106645000D02*
X270994095Y-106740238D01*
X270994095Y-106740238D02*
X270946476Y-106835476D01*
X270946476Y-106835476D02*
X270898857Y-107025952D01*
X270898857Y-107025952D02*
X270898857Y-107168809D01*
X270898857Y-107168809D02*
X270946476Y-107359285D01*
X270946476Y-107359285D02*
X270994095Y-107454523D01*
X270994095Y-107454523D02*
X271089333Y-107549761D01*
X271089333Y-107549761D02*
X271232190Y-107597380D01*
X271232190Y-107597380D02*
X271470285Y-107597380D01*
X270041714Y-106597380D02*
X270232190Y-106597380D01*
X270232190Y-106597380D02*
X270327428Y-106645000D01*
X270327428Y-106645000D02*
X270375047Y-106692619D01*
X270375047Y-106692619D02*
X270470285Y-106835476D01*
X270470285Y-106835476D02*
X270517904Y-107025952D01*
X270517904Y-107025952D02*
X270517904Y-107406904D01*
X270517904Y-107406904D02*
X270470285Y-107502142D01*
X270470285Y-107502142D02*
X270422666Y-107549761D01*
X270422666Y-107549761D02*
X270327428Y-107597380D01*
X270327428Y-107597380D02*
X270136952Y-107597380D01*
X270136952Y-107597380D02*
X270041714Y-107549761D01*
X270041714Y-107549761D02*
X269994095Y-107502142D01*
X269994095Y-107502142D02*
X269946476Y-107406904D01*
X269946476Y-107406904D02*
X269946476Y-107168809D01*
X269946476Y-107168809D02*
X269994095Y-107073571D01*
X269994095Y-107073571D02*
X270041714Y-107025952D01*
X270041714Y-107025952D02*
X270136952Y-106978333D01*
X270136952Y-106978333D02*
X270327428Y-106978333D01*
X270327428Y-106978333D02*
X270422666Y-107025952D01*
X270422666Y-107025952D02*
X270470285Y-107073571D01*
X270470285Y-107073571D02*
X270517904Y-107168809D01*
X269089333Y-106930714D02*
X269089333Y-107597380D01*
X269327428Y-106549761D02*
X269565523Y-107264047D01*
X269565523Y-107264047D02*
X268946476Y-107264047D01*
X290774285Y-106327380D02*
X290774285Y-105327380D01*
X290774285Y-105327380D02*
X290536190Y-105327380D01*
X290536190Y-105327380D02*
X290393333Y-105375000D01*
X290393333Y-105375000D02*
X290298095Y-105470238D01*
X290298095Y-105470238D02*
X290250476Y-105565476D01*
X290250476Y-105565476D02*
X290202857Y-105755952D01*
X290202857Y-105755952D02*
X290202857Y-105898809D01*
X290202857Y-105898809D02*
X290250476Y-106089285D01*
X290250476Y-106089285D02*
X290298095Y-106184523D01*
X290298095Y-106184523D02*
X290393333Y-106279761D01*
X290393333Y-106279761D02*
X290536190Y-106327380D01*
X290536190Y-106327380D02*
X290774285Y-106327380D01*
X289345714Y-105327380D02*
X289536190Y-105327380D01*
X289536190Y-105327380D02*
X289631428Y-105375000D01*
X289631428Y-105375000D02*
X289679047Y-105422619D01*
X289679047Y-105422619D02*
X289774285Y-105565476D01*
X289774285Y-105565476D02*
X289821904Y-105755952D01*
X289821904Y-105755952D02*
X289821904Y-106136904D01*
X289821904Y-106136904D02*
X289774285Y-106232142D01*
X289774285Y-106232142D02*
X289726666Y-106279761D01*
X289726666Y-106279761D02*
X289631428Y-106327380D01*
X289631428Y-106327380D02*
X289440952Y-106327380D01*
X289440952Y-106327380D02*
X289345714Y-106279761D01*
X289345714Y-106279761D02*
X289298095Y-106232142D01*
X289298095Y-106232142D02*
X289250476Y-106136904D01*
X289250476Y-106136904D02*
X289250476Y-105898809D01*
X289250476Y-105898809D02*
X289298095Y-105803571D01*
X289298095Y-105803571D02*
X289345714Y-105755952D01*
X289345714Y-105755952D02*
X289440952Y-105708333D01*
X289440952Y-105708333D02*
X289631428Y-105708333D01*
X289631428Y-105708333D02*
X289726666Y-105755952D01*
X289726666Y-105755952D02*
X289774285Y-105803571D01*
X289774285Y-105803571D02*
X289821904Y-105898809D01*
X288345714Y-105327380D02*
X288821904Y-105327380D01*
X288821904Y-105327380D02*
X288869523Y-105803571D01*
X288869523Y-105803571D02*
X288821904Y-105755952D01*
X288821904Y-105755952D02*
X288726666Y-105708333D01*
X288726666Y-105708333D02*
X288488571Y-105708333D01*
X288488571Y-105708333D02*
X288393333Y-105755952D01*
X288393333Y-105755952D02*
X288345714Y-105803571D01*
X288345714Y-105803571D02*
X288298095Y-105898809D01*
X288298095Y-105898809D02*
X288298095Y-106136904D01*
X288298095Y-106136904D02*
X288345714Y-106232142D01*
X288345714Y-106232142D02*
X288393333Y-106279761D01*
X288393333Y-106279761D02*
X288488571Y-106327380D01*
X288488571Y-106327380D02*
X288726666Y-106327380D01*
X288726666Y-106327380D02*
X288821904Y-106279761D01*
X288821904Y-106279761D02*
X288869523Y-106232142D01*
X174950285Y-145951380D02*
X174950285Y-144951380D01*
X174950285Y-144951380D02*
X174712190Y-144951380D01*
X174712190Y-144951380D02*
X174569333Y-144999000D01*
X174569333Y-144999000D02*
X174474095Y-145094238D01*
X174474095Y-145094238D02*
X174426476Y-145189476D01*
X174426476Y-145189476D02*
X174378857Y-145379952D01*
X174378857Y-145379952D02*
X174378857Y-145522809D01*
X174378857Y-145522809D02*
X174426476Y-145713285D01*
X174426476Y-145713285D02*
X174474095Y-145808523D01*
X174474095Y-145808523D02*
X174569333Y-145903761D01*
X174569333Y-145903761D02*
X174712190Y-145951380D01*
X174712190Y-145951380D02*
X174950285Y-145951380D01*
X173521714Y-144951380D02*
X173712190Y-144951380D01*
X173712190Y-144951380D02*
X173807428Y-144999000D01*
X173807428Y-144999000D02*
X173855047Y-145046619D01*
X173855047Y-145046619D02*
X173950285Y-145189476D01*
X173950285Y-145189476D02*
X173997904Y-145379952D01*
X173997904Y-145379952D02*
X173997904Y-145760904D01*
X173997904Y-145760904D02*
X173950285Y-145856142D01*
X173950285Y-145856142D02*
X173902666Y-145903761D01*
X173902666Y-145903761D02*
X173807428Y-145951380D01*
X173807428Y-145951380D02*
X173616952Y-145951380D01*
X173616952Y-145951380D02*
X173521714Y-145903761D01*
X173521714Y-145903761D02*
X173474095Y-145856142D01*
X173474095Y-145856142D02*
X173426476Y-145760904D01*
X173426476Y-145760904D02*
X173426476Y-145522809D01*
X173426476Y-145522809D02*
X173474095Y-145427571D01*
X173474095Y-145427571D02*
X173521714Y-145379952D01*
X173521714Y-145379952D02*
X173616952Y-145332333D01*
X173616952Y-145332333D02*
X173807428Y-145332333D01*
X173807428Y-145332333D02*
X173902666Y-145379952D01*
X173902666Y-145379952D02*
X173950285Y-145427571D01*
X173950285Y-145427571D02*
X173997904Y-145522809D01*
X172569333Y-144951380D02*
X172759809Y-144951380D01*
X172759809Y-144951380D02*
X172855047Y-144999000D01*
X172855047Y-144999000D02*
X172902666Y-145046619D01*
X172902666Y-145046619D02*
X172997904Y-145189476D01*
X172997904Y-145189476D02*
X173045523Y-145379952D01*
X173045523Y-145379952D02*
X173045523Y-145760904D01*
X173045523Y-145760904D02*
X172997904Y-145856142D01*
X172997904Y-145856142D02*
X172950285Y-145903761D01*
X172950285Y-145903761D02*
X172855047Y-145951380D01*
X172855047Y-145951380D02*
X172664571Y-145951380D01*
X172664571Y-145951380D02*
X172569333Y-145903761D01*
X172569333Y-145903761D02*
X172521714Y-145856142D01*
X172521714Y-145856142D02*
X172474095Y-145760904D01*
X172474095Y-145760904D02*
X172474095Y-145522809D01*
X172474095Y-145522809D02*
X172521714Y-145427571D01*
X172521714Y-145427571D02*
X172569333Y-145379952D01*
X172569333Y-145379952D02*
X172664571Y-145332333D01*
X172664571Y-145332333D02*
X172855047Y-145332333D01*
X172855047Y-145332333D02*
X172950285Y-145379952D01*
X172950285Y-145379952D02*
X172997904Y-145427571D01*
X172997904Y-145427571D02*
X173045523Y-145522809D01*
X194254285Y-141125380D02*
X194254285Y-140125380D01*
X194254285Y-140125380D02*
X194016190Y-140125380D01*
X194016190Y-140125380D02*
X193873333Y-140173000D01*
X193873333Y-140173000D02*
X193778095Y-140268238D01*
X193778095Y-140268238D02*
X193730476Y-140363476D01*
X193730476Y-140363476D02*
X193682857Y-140553952D01*
X193682857Y-140553952D02*
X193682857Y-140696809D01*
X193682857Y-140696809D02*
X193730476Y-140887285D01*
X193730476Y-140887285D02*
X193778095Y-140982523D01*
X193778095Y-140982523D02*
X193873333Y-141077761D01*
X193873333Y-141077761D02*
X194016190Y-141125380D01*
X194016190Y-141125380D02*
X194254285Y-141125380D01*
X192825714Y-140125380D02*
X193016190Y-140125380D01*
X193016190Y-140125380D02*
X193111428Y-140173000D01*
X193111428Y-140173000D02*
X193159047Y-140220619D01*
X193159047Y-140220619D02*
X193254285Y-140363476D01*
X193254285Y-140363476D02*
X193301904Y-140553952D01*
X193301904Y-140553952D02*
X193301904Y-140934904D01*
X193301904Y-140934904D02*
X193254285Y-141030142D01*
X193254285Y-141030142D02*
X193206666Y-141077761D01*
X193206666Y-141077761D02*
X193111428Y-141125380D01*
X193111428Y-141125380D02*
X192920952Y-141125380D01*
X192920952Y-141125380D02*
X192825714Y-141077761D01*
X192825714Y-141077761D02*
X192778095Y-141030142D01*
X192778095Y-141030142D02*
X192730476Y-140934904D01*
X192730476Y-140934904D02*
X192730476Y-140696809D01*
X192730476Y-140696809D02*
X192778095Y-140601571D01*
X192778095Y-140601571D02*
X192825714Y-140553952D01*
X192825714Y-140553952D02*
X192920952Y-140506333D01*
X192920952Y-140506333D02*
X193111428Y-140506333D01*
X193111428Y-140506333D02*
X193206666Y-140553952D01*
X193206666Y-140553952D02*
X193254285Y-140601571D01*
X193254285Y-140601571D02*
X193301904Y-140696809D01*
X192397142Y-140125380D02*
X191730476Y-140125380D01*
X191730476Y-140125380D02*
X192159047Y-141125380D01*
X213558285Y-137569380D02*
X213558285Y-136569380D01*
X213558285Y-136569380D02*
X213320190Y-136569380D01*
X213320190Y-136569380D02*
X213177333Y-136617000D01*
X213177333Y-136617000D02*
X213082095Y-136712238D01*
X213082095Y-136712238D02*
X213034476Y-136807476D01*
X213034476Y-136807476D02*
X212986857Y-136997952D01*
X212986857Y-136997952D02*
X212986857Y-137140809D01*
X212986857Y-137140809D02*
X213034476Y-137331285D01*
X213034476Y-137331285D02*
X213082095Y-137426523D01*
X213082095Y-137426523D02*
X213177333Y-137521761D01*
X213177333Y-137521761D02*
X213320190Y-137569380D01*
X213320190Y-137569380D02*
X213558285Y-137569380D01*
X212129714Y-136569380D02*
X212320190Y-136569380D01*
X212320190Y-136569380D02*
X212415428Y-136617000D01*
X212415428Y-136617000D02*
X212463047Y-136664619D01*
X212463047Y-136664619D02*
X212558285Y-136807476D01*
X212558285Y-136807476D02*
X212605904Y-136997952D01*
X212605904Y-136997952D02*
X212605904Y-137378904D01*
X212605904Y-137378904D02*
X212558285Y-137474142D01*
X212558285Y-137474142D02*
X212510666Y-137521761D01*
X212510666Y-137521761D02*
X212415428Y-137569380D01*
X212415428Y-137569380D02*
X212224952Y-137569380D01*
X212224952Y-137569380D02*
X212129714Y-137521761D01*
X212129714Y-137521761D02*
X212082095Y-137474142D01*
X212082095Y-137474142D02*
X212034476Y-137378904D01*
X212034476Y-137378904D02*
X212034476Y-137140809D01*
X212034476Y-137140809D02*
X212082095Y-137045571D01*
X212082095Y-137045571D02*
X212129714Y-136997952D01*
X212129714Y-136997952D02*
X212224952Y-136950333D01*
X212224952Y-136950333D02*
X212415428Y-136950333D01*
X212415428Y-136950333D02*
X212510666Y-136997952D01*
X212510666Y-136997952D02*
X212558285Y-137045571D01*
X212558285Y-137045571D02*
X212605904Y-137140809D01*
X211463047Y-136997952D02*
X211558285Y-136950333D01*
X211558285Y-136950333D02*
X211605904Y-136902714D01*
X211605904Y-136902714D02*
X211653523Y-136807476D01*
X211653523Y-136807476D02*
X211653523Y-136759857D01*
X211653523Y-136759857D02*
X211605904Y-136664619D01*
X211605904Y-136664619D02*
X211558285Y-136617000D01*
X211558285Y-136617000D02*
X211463047Y-136569380D01*
X211463047Y-136569380D02*
X211272571Y-136569380D01*
X211272571Y-136569380D02*
X211177333Y-136617000D01*
X211177333Y-136617000D02*
X211129714Y-136664619D01*
X211129714Y-136664619D02*
X211082095Y-136759857D01*
X211082095Y-136759857D02*
X211082095Y-136807476D01*
X211082095Y-136807476D02*
X211129714Y-136902714D01*
X211129714Y-136902714D02*
X211177333Y-136950333D01*
X211177333Y-136950333D02*
X211272571Y-136997952D01*
X211272571Y-136997952D02*
X211463047Y-136997952D01*
X211463047Y-136997952D02*
X211558285Y-137045571D01*
X211558285Y-137045571D02*
X211605904Y-137093190D01*
X211605904Y-137093190D02*
X211653523Y-137188428D01*
X211653523Y-137188428D02*
X211653523Y-137378904D01*
X211653523Y-137378904D02*
X211605904Y-137474142D01*
X211605904Y-137474142D02*
X211558285Y-137521761D01*
X211558285Y-137521761D02*
X211463047Y-137569380D01*
X211463047Y-137569380D02*
X211272571Y-137569380D01*
X211272571Y-137569380D02*
X211177333Y-137521761D01*
X211177333Y-137521761D02*
X211129714Y-137474142D01*
X211129714Y-137474142D02*
X211082095Y-137378904D01*
X211082095Y-137378904D02*
X211082095Y-137188428D01*
X211082095Y-137188428D02*
X211129714Y-137093190D01*
X211129714Y-137093190D02*
X211177333Y-137045571D01*
X211177333Y-137045571D02*
X211272571Y-136997952D01*
X232862285Y-134013380D02*
X232862285Y-133013380D01*
X232862285Y-133013380D02*
X232624190Y-133013380D01*
X232624190Y-133013380D02*
X232481333Y-133061000D01*
X232481333Y-133061000D02*
X232386095Y-133156238D01*
X232386095Y-133156238D02*
X232338476Y-133251476D01*
X232338476Y-133251476D02*
X232290857Y-133441952D01*
X232290857Y-133441952D02*
X232290857Y-133584809D01*
X232290857Y-133584809D02*
X232338476Y-133775285D01*
X232338476Y-133775285D02*
X232386095Y-133870523D01*
X232386095Y-133870523D02*
X232481333Y-133965761D01*
X232481333Y-133965761D02*
X232624190Y-134013380D01*
X232624190Y-134013380D02*
X232862285Y-134013380D01*
X231433714Y-133013380D02*
X231624190Y-133013380D01*
X231624190Y-133013380D02*
X231719428Y-133061000D01*
X231719428Y-133061000D02*
X231767047Y-133108619D01*
X231767047Y-133108619D02*
X231862285Y-133251476D01*
X231862285Y-133251476D02*
X231909904Y-133441952D01*
X231909904Y-133441952D02*
X231909904Y-133822904D01*
X231909904Y-133822904D02*
X231862285Y-133918142D01*
X231862285Y-133918142D02*
X231814666Y-133965761D01*
X231814666Y-133965761D02*
X231719428Y-134013380D01*
X231719428Y-134013380D02*
X231528952Y-134013380D01*
X231528952Y-134013380D02*
X231433714Y-133965761D01*
X231433714Y-133965761D02*
X231386095Y-133918142D01*
X231386095Y-133918142D02*
X231338476Y-133822904D01*
X231338476Y-133822904D02*
X231338476Y-133584809D01*
X231338476Y-133584809D02*
X231386095Y-133489571D01*
X231386095Y-133489571D02*
X231433714Y-133441952D01*
X231433714Y-133441952D02*
X231528952Y-133394333D01*
X231528952Y-133394333D02*
X231719428Y-133394333D01*
X231719428Y-133394333D02*
X231814666Y-133441952D01*
X231814666Y-133441952D02*
X231862285Y-133489571D01*
X231862285Y-133489571D02*
X231909904Y-133584809D01*
X230862285Y-134013380D02*
X230671809Y-134013380D01*
X230671809Y-134013380D02*
X230576571Y-133965761D01*
X230576571Y-133965761D02*
X230528952Y-133918142D01*
X230528952Y-133918142D02*
X230433714Y-133775285D01*
X230433714Y-133775285D02*
X230386095Y-133584809D01*
X230386095Y-133584809D02*
X230386095Y-133203857D01*
X230386095Y-133203857D02*
X230433714Y-133108619D01*
X230433714Y-133108619D02*
X230481333Y-133061000D01*
X230481333Y-133061000D02*
X230576571Y-133013380D01*
X230576571Y-133013380D02*
X230767047Y-133013380D01*
X230767047Y-133013380D02*
X230862285Y-133061000D01*
X230862285Y-133061000D02*
X230909904Y-133108619D01*
X230909904Y-133108619D02*
X230957523Y-133203857D01*
X230957523Y-133203857D02*
X230957523Y-133441952D01*
X230957523Y-133441952D02*
X230909904Y-133537190D01*
X230909904Y-133537190D02*
X230862285Y-133584809D01*
X230862285Y-133584809D02*
X230767047Y-133632428D01*
X230767047Y-133632428D02*
X230576571Y-133632428D01*
X230576571Y-133632428D02*
X230481333Y-133584809D01*
X230481333Y-133584809D02*
X230433714Y-133537190D01*
X230433714Y-133537190D02*
X230386095Y-133441952D01*
X252166285Y-130457380D02*
X252166285Y-129457380D01*
X252166285Y-129457380D02*
X251928190Y-129457380D01*
X251928190Y-129457380D02*
X251785333Y-129505000D01*
X251785333Y-129505000D02*
X251690095Y-129600238D01*
X251690095Y-129600238D02*
X251642476Y-129695476D01*
X251642476Y-129695476D02*
X251594857Y-129885952D01*
X251594857Y-129885952D02*
X251594857Y-130028809D01*
X251594857Y-130028809D02*
X251642476Y-130219285D01*
X251642476Y-130219285D02*
X251690095Y-130314523D01*
X251690095Y-130314523D02*
X251785333Y-130409761D01*
X251785333Y-130409761D02*
X251928190Y-130457380D01*
X251928190Y-130457380D02*
X252166285Y-130457380D01*
X251261523Y-129457380D02*
X250594857Y-129457380D01*
X250594857Y-129457380D02*
X251023428Y-130457380D01*
X250023428Y-129457380D02*
X249928190Y-129457380D01*
X249928190Y-129457380D02*
X249832952Y-129505000D01*
X249832952Y-129505000D02*
X249785333Y-129552619D01*
X249785333Y-129552619D02*
X249737714Y-129647857D01*
X249737714Y-129647857D02*
X249690095Y-129838333D01*
X249690095Y-129838333D02*
X249690095Y-130076428D01*
X249690095Y-130076428D02*
X249737714Y-130266904D01*
X249737714Y-130266904D02*
X249785333Y-130362142D01*
X249785333Y-130362142D02*
X249832952Y-130409761D01*
X249832952Y-130409761D02*
X249928190Y-130457380D01*
X249928190Y-130457380D02*
X250023428Y-130457380D01*
X250023428Y-130457380D02*
X250118666Y-130409761D01*
X250118666Y-130409761D02*
X250166285Y-130362142D01*
X250166285Y-130362142D02*
X250213904Y-130266904D01*
X250213904Y-130266904D02*
X250261523Y-130076428D01*
X250261523Y-130076428D02*
X250261523Y-129838333D01*
X250261523Y-129838333D02*
X250213904Y-129647857D01*
X250213904Y-129647857D02*
X250166285Y-129552619D01*
X250166285Y-129552619D02*
X250118666Y-129505000D01*
X250118666Y-129505000D02*
X250023428Y-129457380D01*
X271470285Y-126901380D02*
X271470285Y-125901380D01*
X271470285Y-125901380D02*
X271232190Y-125901380D01*
X271232190Y-125901380D02*
X271089333Y-125949000D01*
X271089333Y-125949000D02*
X270994095Y-126044238D01*
X270994095Y-126044238D02*
X270946476Y-126139476D01*
X270946476Y-126139476D02*
X270898857Y-126329952D01*
X270898857Y-126329952D02*
X270898857Y-126472809D01*
X270898857Y-126472809D02*
X270946476Y-126663285D01*
X270946476Y-126663285D02*
X270994095Y-126758523D01*
X270994095Y-126758523D02*
X271089333Y-126853761D01*
X271089333Y-126853761D02*
X271232190Y-126901380D01*
X271232190Y-126901380D02*
X271470285Y-126901380D01*
X270565523Y-125901380D02*
X269898857Y-125901380D01*
X269898857Y-125901380D02*
X270327428Y-126901380D01*
X268994095Y-126901380D02*
X269565523Y-126901380D01*
X269279809Y-126901380D02*
X269279809Y-125901380D01*
X269279809Y-125901380D02*
X269375047Y-126044238D01*
X269375047Y-126044238D02*
X269470285Y-126139476D01*
X269470285Y-126139476D02*
X269565523Y-126187095D01*
X290774285Y-128171380D02*
X290774285Y-127171380D01*
X290774285Y-127171380D02*
X290536190Y-127171380D01*
X290536190Y-127171380D02*
X290393333Y-127219000D01*
X290393333Y-127219000D02*
X290298095Y-127314238D01*
X290298095Y-127314238D02*
X290250476Y-127409476D01*
X290250476Y-127409476D02*
X290202857Y-127599952D01*
X290202857Y-127599952D02*
X290202857Y-127742809D01*
X290202857Y-127742809D02*
X290250476Y-127933285D01*
X290250476Y-127933285D02*
X290298095Y-128028523D01*
X290298095Y-128028523D02*
X290393333Y-128123761D01*
X290393333Y-128123761D02*
X290536190Y-128171380D01*
X290536190Y-128171380D02*
X290774285Y-128171380D01*
X289869523Y-127171380D02*
X289202857Y-127171380D01*
X289202857Y-127171380D02*
X289631428Y-128171380D01*
X288869523Y-127266619D02*
X288821904Y-127219000D01*
X288821904Y-127219000D02*
X288726666Y-127171380D01*
X288726666Y-127171380D02*
X288488571Y-127171380D01*
X288488571Y-127171380D02*
X288393333Y-127219000D01*
X288393333Y-127219000D02*
X288345714Y-127266619D01*
X288345714Y-127266619D02*
X288298095Y-127361857D01*
X288298095Y-127361857D02*
X288298095Y-127457095D01*
X288298095Y-127457095D02*
X288345714Y-127599952D01*
X288345714Y-127599952D02*
X288917142Y-128171380D01*
X288917142Y-128171380D02*
X288298095Y-128171380D01*
X174950285Y-165001380D02*
X174950285Y-164001380D01*
X174950285Y-164001380D02*
X174712190Y-164001380D01*
X174712190Y-164001380D02*
X174569333Y-164049000D01*
X174569333Y-164049000D02*
X174474095Y-164144238D01*
X174474095Y-164144238D02*
X174426476Y-164239476D01*
X174426476Y-164239476D02*
X174378857Y-164429952D01*
X174378857Y-164429952D02*
X174378857Y-164572809D01*
X174378857Y-164572809D02*
X174426476Y-164763285D01*
X174426476Y-164763285D02*
X174474095Y-164858523D01*
X174474095Y-164858523D02*
X174569333Y-164953761D01*
X174569333Y-164953761D02*
X174712190Y-165001380D01*
X174712190Y-165001380D02*
X174950285Y-165001380D01*
X174045523Y-164001380D02*
X173378857Y-164001380D01*
X173378857Y-164001380D02*
X173807428Y-165001380D01*
X173093142Y-164001380D02*
X172474095Y-164001380D01*
X172474095Y-164001380D02*
X172807428Y-164382333D01*
X172807428Y-164382333D02*
X172664571Y-164382333D01*
X172664571Y-164382333D02*
X172569333Y-164429952D01*
X172569333Y-164429952D02*
X172521714Y-164477571D01*
X172521714Y-164477571D02*
X172474095Y-164572809D01*
X172474095Y-164572809D02*
X172474095Y-164810904D01*
X172474095Y-164810904D02*
X172521714Y-164906142D01*
X172521714Y-164906142D02*
X172569333Y-164953761D01*
X172569333Y-164953761D02*
X172664571Y-165001380D01*
X172664571Y-165001380D02*
X172950285Y-165001380D01*
X172950285Y-165001380D02*
X173045523Y-164953761D01*
X173045523Y-164953761D02*
X173093142Y-164906142D01*
X194254285Y-160429380D02*
X194254285Y-159429380D01*
X194254285Y-159429380D02*
X194016190Y-159429380D01*
X194016190Y-159429380D02*
X193873333Y-159477000D01*
X193873333Y-159477000D02*
X193778095Y-159572238D01*
X193778095Y-159572238D02*
X193730476Y-159667476D01*
X193730476Y-159667476D02*
X193682857Y-159857952D01*
X193682857Y-159857952D02*
X193682857Y-160000809D01*
X193682857Y-160000809D02*
X193730476Y-160191285D01*
X193730476Y-160191285D02*
X193778095Y-160286523D01*
X193778095Y-160286523D02*
X193873333Y-160381761D01*
X193873333Y-160381761D02*
X194016190Y-160429380D01*
X194016190Y-160429380D02*
X194254285Y-160429380D01*
X193349523Y-159429380D02*
X192682857Y-159429380D01*
X192682857Y-159429380D02*
X193111428Y-160429380D01*
X191873333Y-159762714D02*
X191873333Y-160429380D01*
X192111428Y-159381761D02*
X192349523Y-160096047D01*
X192349523Y-160096047D02*
X191730476Y-160096047D01*
X213812285Y-156873380D02*
X213812285Y-155873380D01*
X213812285Y-155873380D02*
X213574190Y-155873380D01*
X213574190Y-155873380D02*
X213431333Y-155921000D01*
X213431333Y-155921000D02*
X213336095Y-156016238D01*
X213336095Y-156016238D02*
X213288476Y-156111476D01*
X213288476Y-156111476D02*
X213240857Y-156301952D01*
X213240857Y-156301952D02*
X213240857Y-156444809D01*
X213240857Y-156444809D02*
X213288476Y-156635285D01*
X213288476Y-156635285D02*
X213336095Y-156730523D01*
X213336095Y-156730523D02*
X213431333Y-156825761D01*
X213431333Y-156825761D02*
X213574190Y-156873380D01*
X213574190Y-156873380D02*
X213812285Y-156873380D01*
X212907523Y-155873380D02*
X212240857Y-155873380D01*
X212240857Y-155873380D02*
X212669428Y-156873380D01*
X211383714Y-155873380D02*
X211859904Y-155873380D01*
X211859904Y-155873380D02*
X211907523Y-156349571D01*
X211907523Y-156349571D02*
X211859904Y-156301952D01*
X211859904Y-156301952D02*
X211764666Y-156254333D01*
X211764666Y-156254333D02*
X211526571Y-156254333D01*
X211526571Y-156254333D02*
X211431333Y-156301952D01*
X211431333Y-156301952D02*
X211383714Y-156349571D01*
X211383714Y-156349571D02*
X211336095Y-156444809D01*
X211336095Y-156444809D02*
X211336095Y-156682904D01*
X211336095Y-156682904D02*
X211383714Y-156778142D01*
X211383714Y-156778142D02*
X211431333Y-156825761D01*
X211431333Y-156825761D02*
X211526571Y-156873380D01*
X211526571Y-156873380D02*
X211764666Y-156873380D01*
X211764666Y-156873380D02*
X211859904Y-156825761D01*
X211859904Y-156825761D02*
X211907523Y-156778142D01*
X232862285Y-153317380D02*
X232862285Y-152317380D01*
X232862285Y-152317380D02*
X232624190Y-152317380D01*
X232624190Y-152317380D02*
X232481333Y-152365000D01*
X232481333Y-152365000D02*
X232386095Y-152460238D01*
X232386095Y-152460238D02*
X232338476Y-152555476D01*
X232338476Y-152555476D02*
X232290857Y-152745952D01*
X232290857Y-152745952D02*
X232290857Y-152888809D01*
X232290857Y-152888809D02*
X232338476Y-153079285D01*
X232338476Y-153079285D02*
X232386095Y-153174523D01*
X232386095Y-153174523D02*
X232481333Y-153269761D01*
X232481333Y-153269761D02*
X232624190Y-153317380D01*
X232624190Y-153317380D02*
X232862285Y-153317380D01*
X231957523Y-152317380D02*
X231290857Y-152317380D01*
X231290857Y-152317380D02*
X231719428Y-153317380D01*
X230481333Y-152317380D02*
X230671809Y-152317380D01*
X230671809Y-152317380D02*
X230767047Y-152365000D01*
X230767047Y-152365000D02*
X230814666Y-152412619D01*
X230814666Y-152412619D02*
X230909904Y-152555476D01*
X230909904Y-152555476D02*
X230957523Y-152745952D01*
X230957523Y-152745952D02*
X230957523Y-153126904D01*
X230957523Y-153126904D02*
X230909904Y-153222142D01*
X230909904Y-153222142D02*
X230862285Y-153269761D01*
X230862285Y-153269761D02*
X230767047Y-153317380D01*
X230767047Y-153317380D02*
X230576571Y-153317380D01*
X230576571Y-153317380D02*
X230481333Y-153269761D01*
X230481333Y-153269761D02*
X230433714Y-153222142D01*
X230433714Y-153222142D02*
X230386095Y-153126904D01*
X230386095Y-153126904D02*
X230386095Y-152888809D01*
X230386095Y-152888809D02*
X230433714Y-152793571D01*
X230433714Y-152793571D02*
X230481333Y-152745952D01*
X230481333Y-152745952D02*
X230576571Y-152698333D01*
X230576571Y-152698333D02*
X230767047Y-152698333D01*
X230767047Y-152698333D02*
X230862285Y-152745952D01*
X230862285Y-152745952D02*
X230909904Y-152793571D01*
X230909904Y-152793571D02*
X230957523Y-152888809D01*
X252166285Y-149507380D02*
X252166285Y-148507380D01*
X252166285Y-148507380D02*
X251928190Y-148507380D01*
X251928190Y-148507380D02*
X251785333Y-148555000D01*
X251785333Y-148555000D02*
X251690095Y-148650238D01*
X251690095Y-148650238D02*
X251642476Y-148745476D01*
X251642476Y-148745476D02*
X251594857Y-148935952D01*
X251594857Y-148935952D02*
X251594857Y-149078809D01*
X251594857Y-149078809D02*
X251642476Y-149269285D01*
X251642476Y-149269285D02*
X251690095Y-149364523D01*
X251690095Y-149364523D02*
X251785333Y-149459761D01*
X251785333Y-149459761D02*
X251928190Y-149507380D01*
X251928190Y-149507380D02*
X252166285Y-149507380D01*
X251261523Y-148507380D02*
X250594857Y-148507380D01*
X250594857Y-148507380D02*
X251023428Y-149507380D01*
X250309142Y-148507380D02*
X249642476Y-148507380D01*
X249642476Y-148507380D02*
X250071047Y-149507380D01*
X271470285Y-149253380D02*
X271470285Y-148253380D01*
X271470285Y-148253380D02*
X271232190Y-148253380D01*
X271232190Y-148253380D02*
X271089333Y-148301000D01*
X271089333Y-148301000D02*
X270994095Y-148396238D01*
X270994095Y-148396238D02*
X270946476Y-148491476D01*
X270946476Y-148491476D02*
X270898857Y-148681952D01*
X270898857Y-148681952D02*
X270898857Y-148824809D01*
X270898857Y-148824809D02*
X270946476Y-149015285D01*
X270946476Y-149015285D02*
X270994095Y-149110523D01*
X270994095Y-149110523D02*
X271089333Y-149205761D01*
X271089333Y-149205761D02*
X271232190Y-149253380D01*
X271232190Y-149253380D02*
X271470285Y-149253380D01*
X270565523Y-148253380D02*
X269898857Y-148253380D01*
X269898857Y-148253380D02*
X270327428Y-149253380D01*
X269375047Y-148681952D02*
X269470285Y-148634333D01*
X269470285Y-148634333D02*
X269517904Y-148586714D01*
X269517904Y-148586714D02*
X269565523Y-148491476D01*
X269565523Y-148491476D02*
X269565523Y-148443857D01*
X269565523Y-148443857D02*
X269517904Y-148348619D01*
X269517904Y-148348619D02*
X269470285Y-148301000D01*
X269470285Y-148301000D02*
X269375047Y-148253380D01*
X269375047Y-148253380D02*
X269184571Y-148253380D01*
X269184571Y-148253380D02*
X269089333Y-148301000D01*
X269089333Y-148301000D02*
X269041714Y-148348619D01*
X269041714Y-148348619D02*
X268994095Y-148443857D01*
X268994095Y-148443857D02*
X268994095Y-148491476D01*
X268994095Y-148491476D02*
X269041714Y-148586714D01*
X269041714Y-148586714D02*
X269089333Y-148634333D01*
X269089333Y-148634333D02*
X269184571Y-148681952D01*
X269184571Y-148681952D02*
X269375047Y-148681952D01*
X269375047Y-148681952D02*
X269470285Y-148729571D01*
X269470285Y-148729571D02*
X269517904Y-148777190D01*
X269517904Y-148777190D02*
X269565523Y-148872428D01*
X269565523Y-148872428D02*
X269565523Y-149062904D01*
X269565523Y-149062904D02*
X269517904Y-149158142D01*
X269517904Y-149158142D02*
X269470285Y-149205761D01*
X269470285Y-149205761D02*
X269375047Y-149253380D01*
X269375047Y-149253380D02*
X269184571Y-149253380D01*
X269184571Y-149253380D02*
X269089333Y-149205761D01*
X269089333Y-149205761D02*
X269041714Y-149158142D01*
X269041714Y-149158142D02*
X268994095Y-149062904D01*
X268994095Y-149062904D02*
X268994095Y-148872428D01*
X268994095Y-148872428D02*
X269041714Y-148777190D01*
X269041714Y-148777190D02*
X269089333Y-148729571D01*
X269089333Y-148729571D02*
X269184571Y-148681952D01*
X290774285Y-149507380D02*
X290774285Y-148507380D01*
X290774285Y-148507380D02*
X290536190Y-148507380D01*
X290536190Y-148507380D02*
X290393333Y-148555000D01*
X290393333Y-148555000D02*
X290298095Y-148650238D01*
X290298095Y-148650238D02*
X290250476Y-148745476D01*
X290250476Y-148745476D02*
X290202857Y-148935952D01*
X290202857Y-148935952D02*
X290202857Y-149078809D01*
X290202857Y-149078809D02*
X290250476Y-149269285D01*
X290250476Y-149269285D02*
X290298095Y-149364523D01*
X290298095Y-149364523D02*
X290393333Y-149459761D01*
X290393333Y-149459761D02*
X290536190Y-149507380D01*
X290536190Y-149507380D02*
X290774285Y-149507380D01*
X289869523Y-148507380D02*
X289202857Y-148507380D01*
X289202857Y-148507380D02*
X289631428Y-149507380D01*
X288774285Y-149507380D02*
X288583809Y-149507380D01*
X288583809Y-149507380D02*
X288488571Y-149459761D01*
X288488571Y-149459761D02*
X288440952Y-149412142D01*
X288440952Y-149412142D02*
X288345714Y-149269285D01*
X288345714Y-149269285D02*
X288298095Y-149078809D01*
X288298095Y-149078809D02*
X288298095Y-148697857D01*
X288298095Y-148697857D02*
X288345714Y-148602619D01*
X288345714Y-148602619D02*
X288393333Y-148555000D01*
X288393333Y-148555000D02*
X288488571Y-148507380D01*
X288488571Y-148507380D02*
X288679047Y-148507380D01*
X288679047Y-148507380D02*
X288774285Y-148555000D01*
X288774285Y-148555000D02*
X288821904Y-148602619D01*
X288821904Y-148602619D02*
X288869523Y-148697857D01*
X288869523Y-148697857D02*
X288869523Y-148935952D01*
X288869523Y-148935952D02*
X288821904Y-149031190D01*
X288821904Y-149031190D02*
X288774285Y-149078809D01*
X288774285Y-149078809D02*
X288679047Y-149126428D01*
X288679047Y-149126428D02*
X288488571Y-149126428D01*
X288488571Y-149126428D02*
X288393333Y-149078809D01*
X288393333Y-149078809D02*
X288345714Y-149031190D01*
X288345714Y-149031190D02*
X288298095Y-148935952D01*
X147391380Y-56221333D02*
X146915190Y-55888000D01*
X147391380Y-55649905D02*
X146391380Y-55649905D01*
X146391380Y-55649905D02*
X146391380Y-56030857D01*
X146391380Y-56030857D02*
X146439000Y-56126095D01*
X146439000Y-56126095D02*
X146486619Y-56173714D01*
X146486619Y-56173714D02*
X146581857Y-56221333D01*
X146581857Y-56221333D02*
X146724714Y-56221333D01*
X146724714Y-56221333D02*
X146819952Y-56173714D01*
X146819952Y-56173714D02*
X146867571Y-56126095D01*
X146867571Y-56126095D02*
X146915190Y-56030857D01*
X146915190Y-56030857D02*
X146915190Y-55649905D01*
X146391380Y-56554667D02*
X146391380Y-57173714D01*
X146391380Y-57173714D02*
X146772333Y-56840381D01*
X146772333Y-56840381D02*
X146772333Y-56983238D01*
X146772333Y-56983238D02*
X146819952Y-57078476D01*
X146819952Y-57078476D02*
X146867571Y-57126095D01*
X146867571Y-57126095D02*
X146962809Y-57173714D01*
X146962809Y-57173714D02*
X147200904Y-57173714D01*
X147200904Y-57173714D02*
X147296142Y-57126095D01*
X147296142Y-57126095D02*
X147343761Y-57078476D01*
X147343761Y-57078476D02*
X147391380Y-56983238D01*
X147391380Y-56983238D02*
X147391380Y-56697524D01*
X147391380Y-56697524D02*
X147343761Y-56602286D01*
X147343761Y-56602286D02*
X147296142Y-56554667D01*
X149677380Y-56221333D02*
X149201190Y-55888000D01*
X149677380Y-55649905D02*
X148677380Y-55649905D01*
X148677380Y-55649905D02*
X148677380Y-56030857D01*
X148677380Y-56030857D02*
X148725000Y-56126095D01*
X148725000Y-56126095D02*
X148772619Y-56173714D01*
X148772619Y-56173714D02*
X148867857Y-56221333D01*
X148867857Y-56221333D02*
X149010714Y-56221333D01*
X149010714Y-56221333D02*
X149105952Y-56173714D01*
X149105952Y-56173714D02*
X149153571Y-56126095D01*
X149153571Y-56126095D02*
X149201190Y-56030857D01*
X149201190Y-56030857D02*
X149201190Y-55649905D01*
X149010714Y-57078476D02*
X149677380Y-57078476D01*
X148629761Y-56840381D02*
X149344047Y-56602286D01*
X149344047Y-56602286D02*
X149344047Y-57221333D01*
X135802666Y-56035380D02*
X136135999Y-55559190D01*
X136374094Y-56035380D02*
X136374094Y-55035380D01*
X136374094Y-55035380D02*
X135993142Y-55035380D01*
X135993142Y-55035380D02*
X135897904Y-55083000D01*
X135897904Y-55083000D02*
X135850285Y-55130619D01*
X135850285Y-55130619D02*
X135802666Y-55225857D01*
X135802666Y-55225857D02*
X135802666Y-55368714D01*
X135802666Y-55368714D02*
X135850285Y-55463952D01*
X135850285Y-55463952D02*
X135897904Y-55511571D01*
X135897904Y-55511571D02*
X135993142Y-55559190D01*
X135993142Y-55559190D02*
X136374094Y-55559190D01*
X135469332Y-55035380D02*
X134802666Y-55035380D01*
X134802666Y-55035380D02*
X135231237Y-56035380D01*
X161696676Y-71767758D02*
X161359959Y-72104476D01*
X162302768Y-71633071D02*
X161696676Y-71767758D01*
X161696676Y-71767758D02*
X161831363Y-71161667D01*
X160518165Y-71262682D02*
X160922226Y-71666743D01*
X160720195Y-71464712D02*
X161427302Y-70757605D01*
X161427302Y-70757605D02*
X161393630Y-70925964D01*
X161393630Y-70925964D02*
X161393630Y-71060651D01*
X161393630Y-71060651D02*
X161427302Y-71161667D01*
X194003285Y-47569380D02*
X194003285Y-46569380D01*
X194003285Y-46569380D02*
X193765190Y-46569380D01*
X193765190Y-46569380D02*
X193622333Y-46617000D01*
X193622333Y-46617000D02*
X193527095Y-46712238D01*
X193527095Y-46712238D02*
X193479476Y-46807476D01*
X193479476Y-46807476D02*
X193431857Y-46997952D01*
X193431857Y-46997952D02*
X193431857Y-47140809D01*
X193431857Y-47140809D02*
X193479476Y-47331285D01*
X193479476Y-47331285D02*
X193527095Y-47426523D01*
X193527095Y-47426523D02*
X193622333Y-47521761D01*
X193622333Y-47521761D02*
X193765190Y-47569380D01*
X193765190Y-47569380D02*
X194003285Y-47569380D01*
X193098523Y-46569380D02*
X192479476Y-46569380D01*
X192479476Y-46569380D02*
X192812809Y-46950333D01*
X192812809Y-46950333D02*
X192669952Y-46950333D01*
X192669952Y-46950333D02*
X192574714Y-46997952D01*
X192574714Y-46997952D02*
X192527095Y-47045571D01*
X192527095Y-47045571D02*
X192479476Y-47140809D01*
X192479476Y-47140809D02*
X192479476Y-47378904D01*
X192479476Y-47378904D02*
X192527095Y-47474142D01*
X192527095Y-47474142D02*
X192574714Y-47521761D01*
X192574714Y-47521761D02*
X192669952Y-47569380D01*
X192669952Y-47569380D02*
X192955666Y-47569380D01*
X192955666Y-47569380D02*
X193050904Y-47521761D01*
X193050904Y-47521761D02*
X193098523Y-47474142D01*
X192146142Y-46569380D02*
X191479476Y-46569380D01*
X191479476Y-46569380D02*
X191908047Y-47569380D01*
X143679380Y-48172666D02*
X144393666Y-48172666D01*
X144393666Y-48172666D02*
X144536523Y-48125047D01*
X144536523Y-48125047D02*
X144631761Y-48029809D01*
X144631761Y-48029809D02*
X144679380Y-47886952D01*
X144679380Y-47886952D02*
X144679380Y-47791714D01*
X144679380Y-49172666D02*
X144679380Y-48601238D01*
X144679380Y-48886952D02*
X143679380Y-48886952D01*
X143679380Y-48886952D02*
X143822238Y-48791714D01*
X143822238Y-48791714D02*
X143917476Y-48696476D01*
X143917476Y-48696476D02*
X143965095Y-48601238D01*
X155508142Y-59015333D02*
X155555761Y-58967714D01*
X155555761Y-58967714D02*
X155603380Y-58824857D01*
X155603380Y-58824857D02*
X155603380Y-58729619D01*
X155603380Y-58729619D02*
X155555761Y-58586762D01*
X155555761Y-58586762D02*
X155460523Y-58491524D01*
X155460523Y-58491524D02*
X155365285Y-58443905D01*
X155365285Y-58443905D02*
X155174809Y-58396286D01*
X155174809Y-58396286D02*
X155031952Y-58396286D01*
X155031952Y-58396286D02*
X154841476Y-58443905D01*
X154841476Y-58443905D02*
X154746238Y-58491524D01*
X154746238Y-58491524D02*
X154651000Y-58586762D01*
X154651000Y-58586762D02*
X154603380Y-58729619D01*
X154603380Y-58729619D02*
X154603380Y-58824857D01*
X154603380Y-58824857D02*
X154651000Y-58967714D01*
X154651000Y-58967714D02*
X154698619Y-59015333D01*
X155603380Y-59967714D02*
X155603380Y-59396286D01*
X155603380Y-59682000D02*
X154603380Y-59682000D01*
X154603380Y-59682000D02*
X154746238Y-59586762D01*
X154746238Y-59586762D02*
X154841476Y-59491524D01*
X154841476Y-59491524D02*
X154889095Y-59396286D01*
X141390666Y-76514142D02*
X141438285Y-76561761D01*
X141438285Y-76561761D02*
X141581142Y-76609380D01*
X141581142Y-76609380D02*
X141676380Y-76609380D01*
X141676380Y-76609380D02*
X141819237Y-76561761D01*
X141819237Y-76561761D02*
X141914475Y-76466523D01*
X141914475Y-76466523D02*
X141962094Y-76371285D01*
X141962094Y-76371285D02*
X142009713Y-76180809D01*
X142009713Y-76180809D02*
X142009713Y-76037952D01*
X142009713Y-76037952D02*
X141962094Y-75847476D01*
X141962094Y-75847476D02*
X141914475Y-75752238D01*
X141914475Y-75752238D02*
X141819237Y-75657000D01*
X141819237Y-75657000D02*
X141676380Y-75609380D01*
X141676380Y-75609380D02*
X141581142Y-75609380D01*
X141581142Y-75609380D02*
X141438285Y-75657000D01*
X141438285Y-75657000D02*
X141390666Y-75704619D01*
X141009713Y-75704619D02*
X140962094Y-75657000D01*
X140962094Y-75657000D02*
X140866856Y-75609380D01*
X140866856Y-75609380D02*
X140628761Y-75609380D01*
X140628761Y-75609380D02*
X140533523Y-75657000D01*
X140533523Y-75657000D02*
X140485904Y-75704619D01*
X140485904Y-75704619D02*
X140438285Y-75799857D01*
X140438285Y-75799857D02*
X140438285Y-75895095D01*
X140438285Y-75895095D02*
X140485904Y-76037952D01*
X140485904Y-76037952D02*
X141057332Y-76609380D01*
X141057332Y-76609380D02*
X140438285Y-76609380D01*
X148618380Y-56221333D02*
X148618380Y-55745143D01*
X148618380Y-55745143D02*
X147618380Y-55745143D01*
X148618380Y-57078476D02*
X148618380Y-56507048D01*
X148618380Y-56792762D02*
X147618380Y-56792762D01*
X147618380Y-56792762D02*
X147761238Y-56697524D01*
X147761238Y-56697524D02*
X147856476Y-56602286D01*
X147856476Y-56602286D02*
X147904095Y-56507048D01*
X136183666Y-58904142D02*
X136231285Y-58951761D01*
X136231285Y-58951761D02*
X136374142Y-58999380D01*
X136374142Y-58999380D02*
X136469380Y-58999380D01*
X136469380Y-58999380D02*
X136612237Y-58951761D01*
X136612237Y-58951761D02*
X136707475Y-58856523D01*
X136707475Y-58856523D02*
X136755094Y-58761285D01*
X136755094Y-58761285D02*
X136802713Y-58570809D01*
X136802713Y-58570809D02*
X136802713Y-58427952D01*
X136802713Y-58427952D02*
X136755094Y-58237476D01*
X136755094Y-58237476D02*
X136707475Y-58142238D01*
X136707475Y-58142238D02*
X136612237Y-58047000D01*
X136612237Y-58047000D02*
X136469380Y-57999380D01*
X136469380Y-57999380D02*
X136374142Y-57999380D01*
X136374142Y-57999380D02*
X136231285Y-58047000D01*
X136231285Y-58047000D02*
X136183666Y-58094619D01*
X135326523Y-58332714D02*
X135326523Y-58999380D01*
X135564618Y-57951761D02*
X135802713Y-58666047D01*
X135802713Y-58666047D02*
X135183666Y-58666047D01*
X154408142Y-76287333D02*
X154455761Y-76239714D01*
X154455761Y-76239714D02*
X154503380Y-76096857D01*
X154503380Y-76096857D02*
X154503380Y-76001619D01*
X154503380Y-76001619D02*
X154455761Y-75858762D01*
X154455761Y-75858762D02*
X154360523Y-75763524D01*
X154360523Y-75763524D02*
X154265285Y-75715905D01*
X154265285Y-75715905D02*
X154074809Y-75668286D01*
X154074809Y-75668286D02*
X153931952Y-75668286D01*
X153931952Y-75668286D02*
X153741476Y-75715905D01*
X153741476Y-75715905D02*
X153646238Y-75763524D01*
X153646238Y-75763524D02*
X153551000Y-75858762D01*
X153551000Y-75858762D02*
X153503380Y-76001619D01*
X153503380Y-76001619D02*
X153503380Y-76096857D01*
X153503380Y-76096857D02*
X153551000Y-76239714D01*
X153551000Y-76239714D02*
X153598619Y-76287333D01*
X153503380Y-76620667D02*
X153503380Y-77287333D01*
X153503380Y-77287333D02*
X154503380Y-76858762D01*
X141835142Y-61812333D02*
X141882761Y-61764714D01*
X141882761Y-61764714D02*
X141930380Y-61621857D01*
X141930380Y-61621857D02*
X141930380Y-61526619D01*
X141930380Y-61526619D02*
X141882761Y-61383762D01*
X141882761Y-61383762D02*
X141787523Y-61288524D01*
X141787523Y-61288524D02*
X141692285Y-61240905D01*
X141692285Y-61240905D02*
X141501809Y-61193286D01*
X141501809Y-61193286D02*
X141358952Y-61193286D01*
X141358952Y-61193286D02*
X141168476Y-61240905D01*
X141168476Y-61240905D02*
X141073238Y-61288524D01*
X141073238Y-61288524D02*
X140978000Y-61383762D01*
X140978000Y-61383762D02*
X140930380Y-61526619D01*
X140930380Y-61526619D02*
X140930380Y-61621857D01*
X140930380Y-61621857D02*
X140978000Y-61764714D01*
X140978000Y-61764714D02*
X141025619Y-61812333D01*
X141358952Y-62383762D02*
X141311333Y-62288524D01*
X141311333Y-62288524D02*
X141263714Y-62240905D01*
X141263714Y-62240905D02*
X141168476Y-62193286D01*
X141168476Y-62193286D02*
X141120857Y-62193286D01*
X141120857Y-62193286D02*
X141025619Y-62240905D01*
X141025619Y-62240905D02*
X140978000Y-62288524D01*
X140978000Y-62288524D02*
X140930380Y-62383762D01*
X140930380Y-62383762D02*
X140930380Y-62574238D01*
X140930380Y-62574238D02*
X140978000Y-62669476D01*
X140978000Y-62669476D02*
X141025619Y-62717095D01*
X141025619Y-62717095D02*
X141120857Y-62764714D01*
X141120857Y-62764714D02*
X141168476Y-62764714D01*
X141168476Y-62764714D02*
X141263714Y-62717095D01*
X141263714Y-62717095D02*
X141311333Y-62669476D01*
X141311333Y-62669476D02*
X141358952Y-62574238D01*
X141358952Y-62574238D02*
X141358952Y-62383762D01*
X141358952Y-62383762D02*
X141406571Y-62288524D01*
X141406571Y-62288524D02*
X141454190Y-62240905D01*
X141454190Y-62240905D02*
X141549428Y-62193286D01*
X141549428Y-62193286D02*
X141739904Y-62193286D01*
X141739904Y-62193286D02*
X141835142Y-62240905D01*
X141835142Y-62240905D02*
X141882761Y-62288524D01*
X141882761Y-62288524D02*
X141930380Y-62383762D01*
X141930380Y-62383762D02*
X141930380Y-62574238D01*
X141930380Y-62574238D02*
X141882761Y-62669476D01*
X141882761Y-62669476D02*
X141835142Y-62717095D01*
X141835142Y-62717095D02*
X141739904Y-62764714D01*
X141739904Y-62764714D02*
X141549428Y-62764714D01*
X141549428Y-62764714D02*
X141454190Y-62717095D01*
X141454190Y-62717095D02*
X141406571Y-62669476D01*
X141406571Y-62669476D02*
X141358952Y-62574238D01*
X158916350Y-62414649D02*
X158983694Y-62414649D01*
X158983694Y-62414649D02*
X159118381Y-62347305D01*
X159118381Y-62347305D02*
X159185724Y-62279962D01*
X159185724Y-62279962D02*
X159253068Y-62145275D01*
X159253068Y-62145275D02*
X159253068Y-62010588D01*
X159253068Y-62010588D02*
X159219396Y-61909572D01*
X159219396Y-61909572D02*
X159118381Y-61741214D01*
X159118381Y-61741214D02*
X159017366Y-61640198D01*
X159017366Y-61640198D02*
X158849007Y-61539183D01*
X158849007Y-61539183D02*
X158747992Y-61505511D01*
X158747992Y-61505511D02*
X158613305Y-61505511D01*
X158613305Y-61505511D02*
X158478618Y-61572855D01*
X158478618Y-61572855D02*
X158411274Y-61640198D01*
X158411274Y-61640198D02*
X158343931Y-61774885D01*
X158343931Y-61774885D02*
X158343931Y-61842229D01*
X158646976Y-62818710D02*
X158512289Y-62953397D01*
X158512289Y-62953397D02*
X158411274Y-62987069D01*
X158411274Y-62987069D02*
X158343931Y-62987069D01*
X158343931Y-62987069D02*
X158175572Y-62953397D01*
X158175572Y-62953397D02*
X158007213Y-62852382D01*
X158007213Y-62852382D02*
X157737839Y-62583008D01*
X157737839Y-62583008D02*
X157704167Y-62481992D01*
X157704167Y-62481992D02*
X157704167Y-62414649D01*
X157704167Y-62414649D02*
X157737839Y-62313634D01*
X157737839Y-62313634D02*
X157872526Y-62178947D01*
X157872526Y-62178947D02*
X157973541Y-62145275D01*
X157973541Y-62145275D02*
X158040885Y-62145275D01*
X158040885Y-62145275D02*
X158141900Y-62178947D01*
X158141900Y-62178947D02*
X158310259Y-62347305D01*
X158310259Y-62347305D02*
X158343931Y-62448321D01*
X158343931Y-62448321D02*
X158343931Y-62515664D01*
X158343931Y-62515664D02*
X158310259Y-62616679D01*
X158310259Y-62616679D02*
X158175572Y-62751366D01*
X158175572Y-62751366D02*
X158074557Y-62785038D01*
X158074557Y-62785038D02*
X158007213Y-62785038D01*
X158007213Y-62785038D02*
X157906198Y-62751366D01*
X164729857Y-58956380D02*
X165063190Y-58480190D01*
X165301285Y-58956380D02*
X165301285Y-57956380D01*
X165301285Y-57956380D02*
X164920333Y-57956380D01*
X164920333Y-57956380D02*
X164825095Y-58004000D01*
X164825095Y-58004000D02*
X164777476Y-58051619D01*
X164777476Y-58051619D02*
X164729857Y-58146857D01*
X164729857Y-58146857D02*
X164729857Y-58289714D01*
X164729857Y-58289714D02*
X164777476Y-58384952D01*
X164777476Y-58384952D02*
X164825095Y-58432571D01*
X164825095Y-58432571D02*
X164920333Y-58480190D01*
X164920333Y-58480190D02*
X165301285Y-58480190D01*
X163777476Y-58956380D02*
X164348904Y-58956380D01*
X164063190Y-58956380D02*
X164063190Y-57956380D01*
X164063190Y-57956380D02*
X164158428Y-58099238D01*
X164158428Y-58099238D02*
X164253666Y-58194476D01*
X164253666Y-58194476D02*
X164348904Y-58242095D01*
X163206047Y-58384952D02*
X163301285Y-58337333D01*
X163301285Y-58337333D02*
X163348904Y-58289714D01*
X163348904Y-58289714D02*
X163396523Y-58194476D01*
X163396523Y-58194476D02*
X163396523Y-58146857D01*
X163396523Y-58146857D02*
X163348904Y-58051619D01*
X163348904Y-58051619D02*
X163301285Y-58004000D01*
X163301285Y-58004000D02*
X163206047Y-57956380D01*
X163206047Y-57956380D02*
X163015571Y-57956380D01*
X163015571Y-57956380D02*
X162920333Y-58004000D01*
X162920333Y-58004000D02*
X162872714Y-58051619D01*
X162872714Y-58051619D02*
X162825095Y-58146857D01*
X162825095Y-58146857D02*
X162825095Y-58194476D01*
X162825095Y-58194476D02*
X162872714Y-58289714D01*
X162872714Y-58289714D02*
X162920333Y-58337333D01*
X162920333Y-58337333D02*
X163015571Y-58384952D01*
X163015571Y-58384952D02*
X163206047Y-58384952D01*
X163206047Y-58384952D02*
X163301285Y-58432571D01*
X163301285Y-58432571D02*
X163348904Y-58480190D01*
X163348904Y-58480190D02*
X163396523Y-58575428D01*
X163396523Y-58575428D02*
X163396523Y-58765904D01*
X163396523Y-58765904D02*
X163348904Y-58861142D01*
X163348904Y-58861142D02*
X163301285Y-58908761D01*
X163301285Y-58908761D02*
X163206047Y-58956380D01*
X163206047Y-58956380D02*
X163015571Y-58956380D01*
X163015571Y-58956380D02*
X162920333Y-58908761D01*
X162920333Y-58908761D02*
X162872714Y-58861142D01*
X162872714Y-58861142D02*
X162825095Y-58765904D01*
X162825095Y-58765904D02*
X162825095Y-58575428D01*
X162825095Y-58575428D02*
X162872714Y-58480190D01*
X162872714Y-58480190D02*
X162920333Y-58432571D01*
X162920333Y-58432571D02*
X163015571Y-58384952D01*
X164726857Y-56670380D02*
X165060190Y-56194190D01*
X165298285Y-56670380D02*
X165298285Y-55670380D01*
X165298285Y-55670380D02*
X164917333Y-55670380D01*
X164917333Y-55670380D02*
X164822095Y-55718000D01*
X164822095Y-55718000D02*
X164774476Y-55765619D01*
X164774476Y-55765619D02*
X164726857Y-55860857D01*
X164726857Y-55860857D02*
X164726857Y-56003714D01*
X164726857Y-56003714D02*
X164774476Y-56098952D01*
X164774476Y-56098952D02*
X164822095Y-56146571D01*
X164822095Y-56146571D02*
X164917333Y-56194190D01*
X164917333Y-56194190D02*
X165298285Y-56194190D01*
X163774476Y-56670380D02*
X164345904Y-56670380D01*
X164060190Y-56670380D02*
X164060190Y-55670380D01*
X164060190Y-55670380D02*
X164155428Y-55813238D01*
X164155428Y-55813238D02*
X164250666Y-55908476D01*
X164250666Y-55908476D02*
X164345904Y-55956095D01*
X163298285Y-56670380D02*
X163107809Y-56670380D01*
X163107809Y-56670380D02*
X163012571Y-56622761D01*
X163012571Y-56622761D02*
X162964952Y-56575142D01*
X162964952Y-56575142D02*
X162869714Y-56432285D01*
X162869714Y-56432285D02*
X162822095Y-56241809D01*
X162822095Y-56241809D02*
X162822095Y-55860857D01*
X162822095Y-55860857D02*
X162869714Y-55765619D01*
X162869714Y-55765619D02*
X162917333Y-55718000D01*
X162917333Y-55718000D02*
X163012571Y-55670380D01*
X163012571Y-55670380D02*
X163203047Y-55670380D01*
X163203047Y-55670380D02*
X163298285Y-55718000D01*
X163298285Y-55718000D02*
X163345904Y-55765619D01*
X163345904Y-55765619D02*
X163393523Y-55860857D01*
X163393523Y-55860857D02*
X163393523Y-56098952D01*
X163393523Y-56098952D02*
X163345904Y-56194190D01*
X163345904Y-56194190D02*
X163298285Y-56241809D01*
X163298285Y-56241809D02*
X163203047Y-56289428D01*
X163203047Y-56289428D02*
X163012571Y-56289428D01*
X163012571Y-56289428D02*
X162917333Y-56241809D01*
X162917333Y-56241809D02*
X162869714Y-56194190D01*
X162869714Y-56194190D02*
X162822095Y-56098952D01*
X135159523Y-60069761D02*
X135016666Y-60117380D01*
X135016666Y-60117380D02*
X134778571Y-60117380D01*
X134778571Y-60117380D02*
X134683333Y-60069761D01*
X134683333Y-60069761D02*
X134635714Y-60022142D01*
X134635714Y-60022142D02*
X134588095Y-59926904D01*
X134588095Y-59926904D02*
X134588095Y-59831666D01*
X134588095Y-59831666D02*
X134635714Y-59736428D01*
X134635714Y-59736428D02*
X134683333Y-59688809D01*
X134683333Y-59688809D02*
X134778571Y-59641190D01*
X134778571Y-59641190D02*
X134969047Y-59593571D01*
X134969047Y-59593571D02*
X135064285Y-59545952D01*
X135064285Y-59545952D02*
X135111904Y-59498333D01*
X135111904Y-59498333D02*
X135159523Y-59403095D01*
X135159523Y-59403095D02*
X135159523Y-59307857D01*
X135159523Y-59307857D02*
X135111904Y-59212619D01*
X135111904Y-59212619D02*
X135064285Y-59165000D01*
X135064285Y-59165000D02*
X134969047Y-59117380D01*
X134969047Y-59117380D02*
X134730952Y-59117380D01*
X134730952Y-59117380D02*
X134588095Y-59165000D01*
X134254761Y-59117380D02*
X134016666Y-60117380D01*
X134016666Y-60117380D02*
X133826190Y-59403095D01*
X133826190Y-59403095D02*
X133635714Y-60117380D01*
X133635714Y-60117380D02*
X133397619Y-59117380D01*
X132873809Y-59545952D02*
X132969047Y-59498333D01*
X132969047Y-59498333D02*
X133016666Y-59450714D01*
X133016666Y-59450714D02*
X133064285Y-59355476D01*
X133064285Y-59355476D02*
X133064285Y-59307857D01*
X133064285Y-59307857D02*
X133016666Y-59212619D01*
X133016666Y-59212619D02*
X132969047Y-59165000D01*
X132969047Y-59165000D02*
X132873809Y-59117380D01*
X132873809Y-59117380D02*
X132683333Y-59117380D01*
X132683333Y-59117380D02*
X132588095Y-59165000D01*
X132588095Y-59165000D02*
X132540476Y-59212619D01*
X132540476Y-59212619D02*
X132492857Y-59307857D01*
X132492857Y-59307857D02*
X132492857Y-59355476D01*
X132492857Y-59355476D02*
X132540476Y-59450714D01*
X132540476Y-59450714D02*
X132588095Y-59498333D01*
X132588095Y-59498333D02*
X132683333Y-59545952D01*
X132683333Y-59545952D02*
X132873809Y-59545952D01*
X132873809Y-59545952D02*
X132969047Y-59593571D01*
X132969047Y-59593571D02*
X133016666Y-59641190D01*
X133016666Y-59641190D02*
X133064285Y-59736428D01*
X133064285Y-59736428D02*
X133064285Y-59926904D01*
X133064285Y-59926904D02*
X133016666Y-60022142D01*
X133016666Y-60022142D02*
X132969047Y-60069761D01*
X132969047Y-60069761D02*
X132873809Y-60117380D01*
X132873809Y-60117380D02*
X132683333Y-60117380D01*
X132683333Y-60117380D02*
X132588095Y-60069761D01*
X132588095Y-60069761D02*
X132540476Y-60022142D01*
X132540476Y-60022142D02*
X132492857Y-59926904D01*
X132492857Y-59926904D02*
X132492857Y-59736428D01*
X132492857Y-59736428D02*
X132540476Y-59641190D01*
X132540476Y-59641190D02*
X132588095Y-59593571D01*
X132588095Y-59593571D02*
X132683333Y-59545952D01*
X131873809Y-59117380D02*
X131778571Y-59117380D01*
X131778571Y-59117380D02*
X131683333Y-59165000D01*
X131683333Y-59165000D02*
X131635714Y-59212619D01*
X131635714Y-59212619D02*
X131588095Y-59307857D01*
X131588095Y-59307857D02*
X131540476Y-59498333D01*
X131540476Y-59498333D02*
X131540476Y-59736428D01*
X131540476Y-59736428D02*
X131588095Y-59926904D01*
X131588095Y-59926904D02*
X131635714Y-60022142D01*
X131635714Y-60022142D02*
X131683333Y-60069761D01*
X131683333Y-60069761D02*
X131778571Y-60117380D01*
X131778571Y-60117380D02*
X131873809Y-60117380D01*
X131873809Y-60117380D02*
X131969047Y-60069761D01*
X131969047Y-60069761D02*
X132016666Y-60022142D01*
X132016666Y-60022142D02*
X132064285Y-59926904D01*
X132064285Y-59926904D02*
X132111904Y-59736428D01*
X132111904Y-59736428D02*
X132111904Y-59498333D01*
X132111904Y-59498333D02*
X132064285Y-59307857D01*
X132064285Y-59307857D02*
X132016666Y-59212619D01*
X132016666Y-59212619D02*
X131969047Y-59165000D01*
X131969047Y-59165000D02*
X131873809Y-59117380D01*
X165255690Y-64596010D02*
X165255690Y-64663354D01*
X165255690Y-64663354D02*
X165323034Y-64798041D01*
X165323034Y-64798041D02*
X165390377Y-64865384D01*
X165390377Y-64865384D02*
X165525064Y-64932728D01*
X165525064Y-64932728D02*
X165659751Y-64932728D01*
X165659751Y-64932728D02*
X165760767Y-64899056D01*
X165760767Y-64899056D02*
X165929125Y-64798041D01*
X165929125Y-64798041D02*
X166030141Y-64697026D01*
X166030141Y-64697026D02*
X166131156Y-64528667D01*
X166131156Y-64528667D02*
X166164828Y-64427652D01*
X166164828Y-64427652D02*
X166164828Y-64292965D01*
X166164828Y-64292965D02*
X166097484Y-64158278D01*
X166097484Y-64158278D02*
X166030141Y-64090934D01*
X166030141Y-64090934D02*
X165895454Y-64023591D01*
X165895454Y-64023591D02*
X165828110Y-64023591D01*
X165255690Y-63316484D02*
X165592408Y-63653201D01*
X165592408Y-63653201D02*
X165289362Y-64023591D01*
X165289362Y-64023591D02*
X165289362Y-63956247D01*
X165289362Y-63956247D02*
X165255690Y-63855232D01*
X165255690Y-63855232D02*
X165087331Y-63686873D01*
X165087331Y-63686873D02*
X164986316Y-63653201D01*
X164986316Y-63653201D02*
X164918973Y-63653201D01*
X164918973Y-63653201D02*
X164817957Y-63686873D01*
X164817957Y-63686873D02*
X164649599Y-63855232D01*
X164649599Y-63855232D02*
X164615927Y-63956247D01*
X164615927Y-63956247D02*
X164615927Y-64023591D01*
X164615927Y-64023591D02*
X164649599Y-64124606D01*
X164649599Y-64124606D02*
X164817957Y-64292965D01*
X164817957Y-64292965D02*
X164918973Y-64326636D01*
X164918973Y-64326636D02*
X164986316Y-64326636D01*
X169371010Y-72996309D02*
X169438354Y-72996309D01*
X169438354Y-72996309D02*
X169573041Y-72928965D01*
X169573041Y-72928965D02*
X169640384Y-72861622D01*
X169640384Y-72861622D02*
X169707728Y-72726935D01*
X169707728Y-72726935D02*
X169707728Y-72592248D01*
X169707728Y-72592248D02*
X169674056Y-72491232D01*
X169674056Y-72491232D02*
X169573041Y-72322874D01*
X169573041Y-72322874D02*
X169472026Y-72221858D01*
X169472026Y-72221858D02*
X169303667Y-72120843D01*
X169303667Y-72120843D02*
X169202652Y-72087171D01*
X169202652Y-72087171D02*
X169067965Y-72087171D01*
X169067965Y-72087171D02*
X168933278Y-72154515D01*
X168933278Y-72154515D02*
X168865934Y-72221858D01*
X168865934Y-72221858D02*
X168798591Y-72356545D01*
X168798591Y-72356545D02*
X168798591Y-72423889D01*
X168125156Y-72962637D02*
X168259843Y-72827950D01*
X168259843Y-72827950D02*
X168360858Y-72794278D01*
X168360858Y-72794278D02*
X168428201Y-72794278D01*
X168428201Y-72794278D02*
X168596560Y-72827950D01*
X168596560Y-72827950D02*
X168764919Y-72928965D01*
X168764919Y-72928965D02*
X169034293Y-73198339D01*
X169034293Y-73198339D02*
X169067965Y-73299355D01*
X169067965Y-73299355D02*
X169067965Y-73366698D01*
X169067965Y-73366698D02*
X169034293Y-73467713D01*
X169034293Y-73467713D02*
X168899606Y-73602400D01*
X168899606Y-73602400D02*
X168798591Y-73636072D01*
X168798591Y-73636072D02*
X168731247Y-73636072D01*
X168731247Y-73636072D02*
X168630232Y-73602400D01*
X168630232Y-73602400D02*
X168461873Y-73434042D01*
X168461873Y-73434042D02*
X168428201Y-73333026D01*
X168428201Y-73333026D02*
X168428201Y-73265683D01*
X168428201Y-73265683D02*
X168461873Y-73164668D01*
X168461873Y-73164668D02*
X168596560Y-73029981D01*
X168596560Y-73029981D02*
X168697575Y-72996309D01*
X168697575Y-72996309D02*
X168764919Y-72996309D01*
X168764919Y-72996309D02*
X168865934Y-73029981D01*
X194254285Y-61031380D02*
X194254285Y-60031380D01*
X194254285Y-60031380D02*
X194016190Y-60031380D01*
X194016190Y-60031380D02*
X193873333Y-60079000D01*
X193873333Y-60079000D02*
X193778095Y-60174238D01*
X193778095Y-60174238D02*
X193730476Y-60269476D01*
X193730476Y-60269476D02*
X193682857Y-60459952D01*
X193682857Y-60459952D02*
X193682857Y-60602809D01*
X193682857Y-60602809D02*
X193730476Y-60793285D01*
X193730476Y-60793285D02*
X193778095Y-60888523D01*
X193778095Y-60888523D02*
X193873333Y-60983761D01*
X193873333Y-60983761D02*
X194016190Y-61031380D01*
X194016190Y-61031380D02*
X194254285Y-61031380D01*
X193301904Y-60126619D02*
X193254285Y-60079000D01*
X193254285Y-60079000D02*
X193159047Y-60031380D01*
X193159047Y-60031380D02*
X192920952Y-60031380D01*
X192920952Y-60031380D02*
X192825714Y-60079000D01*
X192825714Y-60079000D02*
X192778095Y-60126619D01*
X192778095Y-60126619D02*
X192730476Y-60221857D01*
X192730476Y-60221857D02*
X192730476Y-60317095D01*
X192730476Y-60317095D02*
X192778095Y-60459952D01*
X192778095Y-60459952D02*
X193349523Y-61031380D01*
X193349523Y-61031380D02*
X192730476Y-61031380D01*
X192349523Y-60126619D02*
X192301904Y-60079000D01*
X192301904Y-60079000D02*
X192206666Y-60031380D01*
X192206666Y-60031380D02*
X191968571Y-60031380D01*
X191968571Y-60031380D02*
X191873333Y-60079000D01*
X191873333Y-60079000D02*
X191825714Y-60126619D01*
X191825714Y-60126619D02*
X191778095Y-60221857D01*
X191778095Y-60221857D02*
X191778095Y-60317095D01*
X191778095Y-60317095D02*
X191825714Y-60459952D01*
X191825714Y-60459952D02*
X192397142Y-61031380D01*
X192397142Y-61031380D02*
X191778095Y-61031380D01*
X188856857Y-61031380D02*
X189190190Y-60555190D01*
X189428285Y-61031380D02*
X189428285Y-60031380D01*
X189428285Y-60031380D02*
X189047333Y-60031380D01*
X189047333Y-60031380D02*
X188952095Y-60079000D01*
X188952095Y-60079000D02*
X188904476Y-60126619D01*
X188904476Y-60126619D02*
X188856857Y-60221857D01*
X188856857Y-60221857D02*
X188856857Y-60364714D01*
X188856857Y-60364714D02*
X188904476Y-60459952D01*
X188904476Y-60459952D02*
X188952095Y-60507571D01*
X188952095Y-60507571D02*
X189047333Y-60555190D01*
X189047333Y-60555190D02*
X189428285Y-60555190D01*
X187904476Y-61031380D02*
X188475904Y-61031380D01*
X188190190Y-61031380D02*
X188190190Y-60031380D01*
X188190190Y-60031380D02*
X188285428Y-60174238D01*
X188285428Y-60174238D02*
X188380666Y-60269476D01*
X188380666Y-60269476D02*
X188475904Y-60317095D01*
X187571142Y-60031380D02*
X186904476Y-60031380D01*
X186904476Y-60031380D02*
X187333047Y-61031380D01*
X144115380Y-48382666D02*
X144829666Y-48382666D01*
X144829666Y-48382666D02*
X144972523Y-48335047D01*
X144972523Y-48335047D02*
X145067761Y-48239809D01*
X145067761Y-48239809D02*
X145115380Y-48096952D01*
X145115380Y-48096952D02*
X145115380Y-48001714D01*
X144448714Y-49287428D02*
X145115380Y-49287428D01*
X144067761Y-49049333D02*
X144782047Y-48811238D01*
X144782047Y-48811238D02*
X144782047Y-49430285D01*
X145193000Y-64167000D02*
X145768000Y-64167000D01*
X145193000Y-74517000D02*
X145868000Y-74517000D01*
X155543000Y-74517000D02*
X154868000Y-74517000D01*
X155543000Y-64167000D02*
X154868000Y-64167000D01*
X145193000Y-64167000D02*
X145193000Y-64842000D01*
X155543000Y-64167000D02*
X155543000Y-64842000D01*
X155543000Y-74517000D02*
X155543000Y-73842000D01*
X145193000Y-74517000D02*
X145193000Y-73842000D01*
X145768000Y-64167000D02*
X145768000Y-62892000D01*
D11*
X145960000Y-50276500D02*
X146410000Y-50276500D01*
X145960000Y-48426500D02*
X145960000Y-50276500D01*
X153760000Y-45876500D02*
X153760000Y-46126500D01*
X145960000Y-45876500D02*
X145960000Y-46126500D01*
X153760000Y-48426500D02*
X153760000Y-50276500D01*
X153760000Y-50276500D02*
X153310000Y-50276500D01*
X148160000Y-50826500D02*
X148610000Y-50826500D01*
X148160000Y-50826500D02*
X148160000Y-50376500D01*
X267971000Y-152789000D02*
X271856000Y-152789000D01*
X267971000Y-155059000D02*
X267971000Y-152789000D01*
X271856000Y-155059000D02*
X267971000Y-155059000D01*
X188435064Y-49932000D02*
X187230936Y-49932000D01*
X188435064Y-48112000D02*
X187230936Y-48112000D01*
X160992000Y-51816000D02*
X160992000Y-52751000D01*
X160992000Y-52751000D02*
X162052000Y-52751000D01*
X160992000Y-44136000D02*
X169112000Y-44136000D01*
X169112000Y-44136000D02*
X169112000Y-50606000D01*
X160992000Y-50606000D02*
X169112000Y-50606000D01*
X160992000Y-44136000D02*
X160992000Y-50606000D01*
X167052000Y-44136000D02*
X167052000Y-50606000D01*
X165052000Y-44136000D02*
X165052000Y-50606000D01*
X163052000Y-44136000D02*
X163052000Y-50606000D01*
X168412000Y-50606000D02*
X168412000Y-50953083D01*
X167692000Y-50606000D02*
X167692000Y-50953083D01*
X166412000Y-50606000D02*
X166412000Y-50953083D01*
X165692000Y-50606000D02*
X165692000Y-50953083D01*
X164412000Y-50606000D02*
X164412000Y-50953083D01*
X163692000Y-50606000D02*
X163692000Y-50953083D01*
X162412000Y-50606000D02*
X162412000Y-50881000D01*
X161692000Y-50606000D02*
X161692000Y-50881000D01*
X162937888Y-44136000D02*
X162937888Y-50606000D01*
X162823770Y-44136000D02*
X162823770Y-50606000D01*
X162709652Y-44136000D02*
X162709652Y-50606000D01*
X162595534Y-44136000D02*
X162595534Y-50606000D01*
X162481416Y-44136000D02*
X162481416Y-50606000D01*
X162367298Y-44136000D02*
X162367298Y-50606000D01*
X162253180Y-44136000D02*
X162253180Y-50606000D01*
X162139062Y-44136000D02*
X162139062Y-50606000D01*
X162024944Y-44136000D02*
X162024944Y-50606000D01*
X161910826Y-44136000D02*
X161910826Y-50606000D01*
X161796708Y-44136000D02*
X161796708Y-50606000D01*
X161682590Y-44136000D02*
X161682590Y-50606000D01*
X161568472Y-44136000D02*
X161568472Y-50606000D01*
X161454354Y-44136000D02*
X161454354Y-50606000D01*
X161340236Y-44136000D02*
X161340236Y-50606000D01*
X161226118Y-44136000D02*
X161226118Y-50606000D01*
X161112000Y-44136000D02*
X161112000Y-50606000D01*
X154792000Y-56866064D02*
X154792000Y-55661936D01*
X156612000Y-56866064D02*
X156612000Y-55661936D01*
X20829000Y-64905000D02*
X24714000Y-64905000D01*
X20829000Y-67175000D02*
X20829000Y-64905000D01*
X24714000Y-67175000D02*
X20829000Y-67175000D01*
X40133000Y-65667000D02*
X44018000Y-65667000D01*
X40133000Y-67937000D02*
X40133000Y-65667000D01*
X44018000Y-67937000D02*
X40133000Y-67937000D01*
X59437000Y-69223000D02*
X63322000Y-69223000D01*
X59437000Y-71493000D02*
X59437000Y-69223000D01*
X63322000Y-71493000D02*
X59437000Y-71493000D01*
X78741000Y-72779000D02*
X82626000Y-72779000D01*
X78741000Y-75049000D02*
X78741000Y-72779000D01*
X82626000Y-75049000D02*
X78741000Y-75049000D01*
X98045000Y-76335000D02*
X101930000Y-76335000D01*
X98045000Y-78605000D02*
X98045000Y-76335000D01*
X101930000Y-78605000D02*
X98045000Y-78605000D01*
X117349000Y-80145000D02*
X121234000Y-80145000D01*
X117349000Y-82415000D02*
X117349000Y-80145000D01*
X121234000Y-82415000D02*
X117349000Y-82415000D01*
X136399000Y-84463000D02*
X140284000Y-84463000D01*
X136399000Y-86733000D02*
X136399000Y-84463000D01*
X140284000Y-86733000D02*
X136399000Y-86733000D01*
X36323000Y-85225000D02*
X40208000Y-85225000D01*
X36323000Y-87495000D02*
X36323000Y-85225000D01*
X40208000Y-87495000D02*
X36323000Y-87495000D01*
X55627000Y-88527000D02*
X59512000Y-88527000D01*
X55627000Y-90797000D02*
X55627000Y-88527000D01*
X59512000Y-90797000D02*
X55627000Y-90797000D01*
X74931000Y-92083000D02*
X78816000Y-92083000D01*
X74931000Y-94353000D02*
X74931000Y-92083000D01*
X78816000Y-94353000D02*
X74931000Y-94353000D01*
X94235000Y-95639000D02*
X98120000Y-95639000D01*
X94235000Y-97909000D02*
X94235000Y-95639000D01*
X98120000Y-97909000D02*
X94235000Y-97909000D01*
X113539000Y-99449000D02*
X117424000Y-99449000D01*
X113539000Y-101719000D02*
X113539000Y-99449000D01*
X117424000Y-101719000D02*
X113539000Y-101719000D01*
X132843000Y-103767000D02*
X136728000Y-103767000D01*
X132843000Y-106037000D02*
X132843000Y-103767000D01*
X136728000Y-106037000D02*
X132843000Y-106037000D01*
X152147000Y-105799000D02*
X156032000Y-105799000D01*
X152147000Y-108069000D02*
X152147000Y-105799000D01*
X156032000Y-108069000D02*
X152147000Y-108069000D01*
X17019000Y-86241000D02*
X20904000Y-86241000D01*
X17019000Y-88511000D02*
X17019000Y-86241000D01*
X20904000Y-88511000D02*
X17019000Y-88511000D01*
X55627000Y-107831000D02*
X59512000Y-107831000D01*
X55627000Y-110101000D02*
X55627000Y-107831000D01*
X59512000Y-110101000D02*
X55627000Y-110101000D01*
X74931000Y-111387000D02*
X78816000Y-111387000D01*
X74931000Y-113657000D02*
X74931000Y-111387000D01*
X78816000Y-113657000D02*
X74931000Y-113657000D01*
X94235000Y-115197000D02*
X98120000Y-115197000D01*
X94235000Y-117467000D02*
X94235000Y-115197000D01*
X98120000Y-117467000D02*
X94235000Y-117467000D01*
X113539000Y-118499000D02*
X117424000Y-118499000D01*
X113539000Y-120769000D02*
X113539000Y-118499000D01*
X117424000Y-120769000D02*
X113539000Y-120769000D01*
X132843000Y-123071000D02*
X136728000Y-123071000D01*
X132843000Y-125341000D02*
X132843000Y-123071000D01*
X136728000Y-125341000D02*
X132843000Y-125341000D01*
X152147000Y-125103000D02*
X156032000Y-125103000D01*
X152147000Y-127373000D02*
X152147000Y-125103000D01*
X156032000Y-127373000D02*
X152147000Y-127373000D01*
X36323000Y-104275000D02*
X40208000Y-104275000D01*
X36323000Y-106545000D02*
X36323000Y-104275000D01*
X40208000Y-106545000D02*
X36323000Y-106545000D01*
X55627000Y-127389000D02*
X59512000Y-127389000D01*
X55627000Y-129659000D02*
X55627000Y-127389000D01*
X59512000Y-129659000D02*
X55627000Y-129659000D01*
X74931000Y-130691000D02*
X78816000Y-130691000D01*
X74931000Y-132961000D02*
X74931000Y-130691000D01*
X78816000Y-132961000D02*
X74931000Y-132961000D01*
X94235000Y-134247000D02*
X98120000Y-134247000D01*
X94235000Y-136517000D02*
X94235000Y-134247000D01*
X98120000Y-136517000D02*
X94235000Y-136517000D01*
X113539000Y-137803000D02*
X117424000Y-137803000D01*
X113539000Y-140073000D02*
X113539000Y-137803000D01*
X117424000Y-140073000D02*
X113539000Y-140073000D01*
X132843000Y-142375000D02*
X136728000Y-142375000D01*
X132843000Y-144645000D02*
X132843000Y-142375000D01*
X136728000Y-144645000D02*
X132843000Y-144645000D01*
X152147000Y-144153000D02*
X156032000Y-144153000D01*
X152147000Y-146423000D02*
X152147000Y-144153000D01*
X156032000Y-146423000D02*
X152147000Y-146423000D01*
X17019000Y-108085000D02*
X20904000Y-108085000D01*
X17019000Y-110355000D02*
X17019000Y-108085000D01*
X20904000Y-110355000D02*
X17019000Y-110355000D01*
X55627000Y-146439000D02*
X59512000Y-146439000D01*
X55627000Y-148709000D02*
X55627000Y-146439000D01*
X59512000Y-148709000D02*
X55627000Y-148709000D01*
X74931000Y-149741000D02*
X78816000Y-149741000D01*
X74931000Y-152011000D02*
X74931000Y-149741000D01*
X78816000Y-152011000D02*
X74931000Y-152011000D01*
X94235000Y-153805000D02*
X98120000Y-153805000D01*
X94235000Y-156075000D02*
X94235000Y-153805000D01*
X98120000Y-156075000D02*
X94235000Y-156075000D01*
X113539000Y-157107000D02*
X117424000Y-157107000D01*
X113539000Y-159377000D02*
X113539000Y-157107000D01*
X117424000Y-159377000D02*
X113539000Y-159377000D01*
X132843000Y-161679000D02*
X136728000Y-161679000D01*
X132843000Y-163949000D02*
X132843000Y-161679000D01*
X136728000Y-163949000D02*
X132843000Y-163949000D01*
X152147000Y-163457000D02*
X156032000Y-163457000D01*
X152147000Y-165727000D02*
X152147000Y-163457000D01*
X156032000Y-165727000D02*
X152147000Y-165727000D01*
X17019000Y-129421000D02*
X20904000Y-129421000D01*
X17019000Y-131691000D02*
X17019000Y-129421000D01*
X20904000Y-131691000D02*
X17019000Y-131691000D01*
X36323000Y-123833000D02*
X40208000Y-123833000D01*
X36323000Y-126103000D02*
X36323000Y-123833000D01*
X40208000Y-126103000D02*
X36323000Y-126103000D01*
X36323000Y-146439000D02*
X40208000Y-146439000D01*
X36323000Y-148709000D02*
X36323000Y-146439000D01*
X40208000Y-148709000D02*
X36323000Y-148709000D01*
X83189000Y-157615000D02*
X87074000Y-157615000D01*
X83189000Y-159885000D02*
X83189000Y-157615000D01*
X87074000Y-159885000D02*
X83189000Y-159885000D01*
X248667000Y-153043000D02*
X252552000Y-153043000D01*
X248667000Y-155313000D02*
X248667000Y-153043000D01*
X252552000Y-155313000D02*
X248667000Y-155313000D01*
X287275000Y-152789000D02*
X291160000Y-152789000D01*
X287275000Y-155059000D02*
X287275000Y-152789000D01*
X291160000Y-155059000D02*
X287275000Y-155059000D01*
X166625000Y-84717000D02*
X170510000Y-84717000D01*
X166625000Y-86987000D02*
X166625000Y-84717000D01*
X170510000Y-86987000D02*
X166625000Y-86987000D01*
X185929000Y-80145000D02*
X189814000Y-80145000D01*
X185929000Y-82415000D02*
X185929000Y-80145000D01*
X189814000Y-82415000D02*
X185929000Y-82415000D01*
X205233000Y-76335000D02*
X209118000Y-76335000D01*
X205233000Y-78605000D02*
X205233000Y-76335000D01*
X209118000Y-78605000D02*
X205233000Y-78605000D01*
X224537000Y-73033000D02*
X228422000Y-73033000D01*
X224537000Y-75303000D02*
X224537000Y-73033000D01*
X228422000Y-75303000D02*
X224537000Y-75303000D01*
X243841000Y-69223000D02*
X247726000Y-69223000D01*
X243841000Y-71493000D02*
X243841000Y-69223000D01*
X247726000Y-71493000D02*
X243841000Y-71493000D01*
X263145000Y-65667000D02*
X267030000Y-65667000D01*
X263145000Y-67937000D02*
X263145000Y-65667000D01*
X267030000Y-67937000D02*
X263145000Y-67937000D01*
X282449000Y-64651000D02*
X286334000Y-64651000D01*
X282449000Y-66921000D02*
X282449000Y-64651000D01*
X286334000Y-66921000D02*
X282449000Y-66921000D01*
X171451000Y-103767000D02*
X175336000Y-103767000D01*
X171451000Y-106037000D02*
X171451000Y-103767000D01*
X175336000Y-106037000D02*
X171451000Y-106037000D01*
X190755000Y-99449000D02*
X194640000Y-99449000D01*
X190755000Y-101719000D02*
X190755000Y-99449000D01*
X194640000Y-101719000D02*
X190755000Y-101719000D01*
X210059000Y-95639000D02*
X213944000Y-95639000D01*
X210059000Y-97909000D02*
X210059000Y-95639000D01*
X213944000Y-97909000D02*
X210059000Y-97909000D01*
X229363000Y-92083000D02*
X233248000Y-92083000D01*
X229363000Y-94353000D02*
X229363000Y-92083000D01*
X233248000Y-94353000D02*
X229363000Y-94353000D01*
X248667000Y-88781000D02*
X252552000Y-88781000D01*
X248667000Y-91051000D02*
X248667000Y-88781000D01*
X252552000Y-91051000D02*
X248667000Y-91051000D01*
X267971000Y-84971000D02*
X271856000Y-84971000D01*
X267971000Y-87241000D02*
X267971000Y-84971000D01*
X271856000Y-87241000D02*
X267971000Y-87241000D01*
X287275000Y-83955000D02*
X291160000Y-83955000D01*
X287275000Y-86225000D02*
X287275000Y-83955000D01*
X291160000Y-86225000D02*
X287275000Y-86225000D01*
X171451000Y-122817000D02*
X175336000Y-122817000D01*
X171451000Y-125087000D02*
X171451000Y-122817000D01*
X175336000Y-125087000D02*
X171451000Y-125087000D01*
X190755000Y-118499000D02*
X194640000Y-118499000D01*
X190755000Y-120769000D02*
X190755000Y-118499000D01*
X194640000Y-120769000D02*
X190755000Y-120769000D01*
X210059000Y-114943000D02*
X213944000Y-114943000D01*
X210059000Y-117213000D02*
X210059000Y-114943000D01*
X213944000Y-117213000D02*
X210059000Y-117213000D01*
X229363000Y-111387000D02*
X233248000Y-111387000D01*
X229363000Y-113657000D02*
X229363000Y-111387000D01*
X233248000Y-113657000D02*
X229363000Y-113657000D01*
X248667000Y-107831000D02*
X252552000Y-107831000D01*
X248667000Y-110101000D02*
X248667000Y-107831000D01*
X252552000Y-110101000D02*
X248667000Y-110101000D01*
X267971000Y-104275000D02*
X271856000Y-104275000D01*
X267971000Y-106545000D02*
X267971000Y-104275000D01*
X271856000Y-106545000D02*
X267971000Y-106545000D01*
X287275000Y-103005000D02*
X291160000Y-103005000D01*
X287275000Y-105275000D02*
X287275000Y-103005000D01*
X291160000Y-105275000D02*
X287275000Y-105275000D01*
X171451000Y-142629000D02*
X175336000Y-142629000D01*
X171451000Y-144899000D02*
X171451000Y-142629000D01*
X175336000Y-144899000D02*
X171451000Y-144899000D01*
X190755000Y-137803000D02*
X194640000Y-137803000D01*
X190755000Y-140073000D02*
X190755000Y-137803000D01*
X194640000Y-140073000D02*
X190755000Y-140073000D01*
X210059000Y-134247000D02*
X213944000Y-134247000D01*
X210059000Y-136517000D02*
X210059000Y-134247000D01*
X213944000Y-136517000D02*
X210059000Y-136517000D01*
X229363000Y-130691000D02*
X233248000Y-130691000D01*
X229363000Y-132961000D02*
X229363000Y-130691000D01*
X233248000Y-132961000D02*
X229363000Y-132961000D01*
X248667000Y-127135000D02*
X252552000Y-127135000D01*
X248667000Y-129405000D02*
X248667000Y-127135000D01*
X252552000Y-129405000D02*
X248667000Y-129405000D01*
X271856000Y-125849000D02*
X267971000Y-125849000D01*
X267971000Y-125849000D02*
X267971000Y-123579000D01*
X267971000Y-123579000D02*
X271856000Y-123579000D01*
X291160000Y-127119000D02*
X287275000Y-127119000D01*
X287275000Y-127119000D02*
X287275000Y-124849000D01*
X287275000Y-124849000D02*
X291160000Y-124849000D01*
X171451000Y-161679000D02*
X175336000Y-161679000D01*
X171451000Y-163949000D02*
X171451000Y-161679000D01*
X175336000Y-163949000D02*
X171451000Y-163949000D01*
X190755000Y-157107000D02*
X194640000Y-157107000D01*
X190755000Y-159377000D02*
X190755000Y-157107000D01*
X194640000Y-159377000D02*
X190755000Y-159377000D01*
X210313000Y-153551000D02*
X214198000Y-153551000D01*
X210313000Y-155821000D02*
X210313000Y-153551000D01*
X214198000Y-155821000D02*
X210313000Y-155821000D01*
X229363000Y-149995000D02*
X233248000Y-149995000D01*
X229363000Y-152265000D02*
X229363000Y-149995000D01*
X233248000Y-152265000D02*
X229363000Y-152265000D01*
X248667000Y-146185000D02*
X252552000Y-146185000D01*
X248667000Y-148455000D02*
X248667000Y-146185000D01*
X252552000Y-148455000D02*
X248667000Y-148455000D01*
X267971000Y-145931000D02*
X271856000Y-145931000D01*
X267971000Y-148201000D02*
X267971000Y-145931000D01*
X271856000Y-148201000D02*
X267971000Y-148201000D01*
X287275000Y-146185000D02*
X291160000Y-146185000D01*
X287275000Y-148455000D02*
X287275000Y-146185000D01*
X291160000Y-148455000D02*
X287275000Y-148455000D01*
X149754000Y-55785936D02*
X149754000Y-56990064D01*
X147934000Y-55785936D02*
X147934000Y-56990064D01*
X152040000Y-55785936D02*
X152040000Y-56990064D01*
X150220000Y-55785936D02*
X150220000Y-56990064D01*
X135033936Y-52938000D02*
X136238064Y-52938000D01*
X135033936Y-54758000D02*
X136238064Y-54758000D01*
X161141598Y-65709705D02*
G75*
G03*
X161848705Y-65002598I353554J353553D01*
G01*
X167081295Y-68396711D02*
X164394289Y-65709705D01*
X162767944Y-64083359D02*
X163100284Y-64415700D01*
X160222359Y-66628944D02*
X160554700Y-66961284D01*
X162767944Y-64083359D02*
X161848705Y-65002598D01*
X161141598Y-65709705D02*
X160222359Y-66628944D01*
X161848705Y-68255289D02*
X164535711Y-70942295D01*
X168707641Y-70023056D02*
X168375300Y-69690716D01*
X166162056Y-72568641D02*
X168707641Y-70023056D01*
X165829716Y-72236300D02*
X166162056Y-72568641D01*
X195074000Y-50157000D02*
X191189000Y-50157000D01*
X195074000Y-47887000D02*
X195074000Y-50157000D01*
X191189000Y-47887000D02*
X195074000Y-47887000D01*
X145752000Y-51816000D02*
X145752000Y-52751000D01*
X145752000Y-52751000D02*
X146812000Y-52751000D01*
X145752000Y-44136000D02*
X153872000Y-44136000D01*
X153872000Y-44136000D02*
X153872000Y-50606000D01*
X145752000Y-50606000D02*
X153872000Y-50606000D01*
X145752000Y-44136000D02*
X145752000Y-50606000D01*
X151812000Y-44136000D02*
X151812000Y-50606000D01*
X149812000Y-44136000D02*
X149812000Y-50606000D01*
X147812000Y-44136000D02*
X147812000Y-50606000D01*
X153172000Y-50606000D02*
X153172000Y-50953083D01*
X152452000Y-50606000D02*
X152452000Y-50953083D01*
X151172000Y-50606000D02*
X151172000Y-50953083D01*
X150452000Y-50606000D02*
X150452000Y-50953083D01*
X149172000Y-50606000D02*
X149172000Y-50953083D01*
X148452000Y-50606000D02*
X148452000Y-50953083D01*
X147172000Y-50606000D02*
X147172000Y-50881000D01*
X146452000Y-50606000D02*
X146452000Y-50881000D01*
X147697888Y-44136000D02*
X147697888Y-50606000D01*
X147583770Y-44136000D02*
X147583770Y-50606000D01*
X147469652Y-44136000D02*
X147469652Y-50606000D01*
X147355534Y-44136000D02*
X147355534Y-50606000D01*
X147241416Y-44136000D02*
X147241416Y-50606000D01*
X147127298Y-44136000D02*
X147127298Y-50606000D01*
X147013180Y-44136000D02*
X147013180Y-50606000D01*
X146899062Y-44136000D02*
X146899062Y-50606000D01*
X146784944Y-44136000D02*
X146784944Y-50606000D01*
X146670826Y-44136000D02*
X146670826Y-50606000D01*
X146556708Y-44136000D02*
X146556708Y-50606000D01*
X146442590Y-44136000D02*
X146442590Y-50606000D01*
X146328472Y-44136000D02*
X146328472Y-50606000D01*
X146214354Y-44136000D02*
X146214354Y-50606000D01*
X146100236Y-44136000D02*
X146100236Y-50606000D01*
X145986118Y-44136000D02*
X145986118Y-50606000D01*
X145872000Y-44136000D02*
X145872000Y-50606000D01*
X152506000Y-59784064D02*
X152506000Y-58579936D01*
X154326000Y-59784064D02*
X154326000Y-58579936D01*
X140621936Y-75332000D02*
X141826064Y-75332000D01*
X140621936Y-73512000D02*
X141826064Y-73512000D01*
X147566000Y-54788000D02*
X147566000Y-58673000D01*
X147566000Y-58673000D02*
X145296000Y-58673000D01*
X145296000Y-58673000D02*
X145296000Y-54788000D01*
X136619064Y-59542000D02*
X135414936Y-59542000D01*
X136619064Y-61362000D02*
X135414936Y-61362000D01*
X155046000Y-75851936D02*
X155046000Y-77056064D01*
X156866000Y-75851936D02*
X156866000Y-77056064D01*
X144293000Y-61376936D02*
X144293000Y-62581064D01*
X142473000Y-61376936D02*
X142473000Y-62581064D01*
X159675256Y-62557809D02*
X158823809Y-63409256D01*
X160962191Y-63844744D02*
X160110744Y-64696191D01*
X163484936Y-55859000D02*
X164689064Y-55859000D01*
X163484936Y-57679000D02*
X164689064Y-57679000D01*
X163481936Y-55393000D02*
X164686064Y-55393000D01*
X163481936Y-53573000D02*
X164686064Y-53573000D01*
X130290000Y-59000000D02*
X136410000Y-59000000D01*
X136410000Y-59000000D02*
X136410000Y-55300000D01*
X136410000Y-55300000D02*
X130290000Y-55300000D01*
X130290000Y-55300000D02*
X130290000Y-59000000D01*
X166816204Y-62434112D02*
X167181888Y-62799796D01*
X165812112Y-63438204D02*
X166177796Y-63803888D01*
X168213204Y-72439888D02*
X168578888Y-72074204D01*
X167209112Y-71435796D02*
X167574796Y-71070112D01*
X191440000Y-61349000D02*
X195325000Y-61349000D01*
X195325000Y-61349000D02*
X195325000Y-63619000D01*
X195325000Y-63619000D02*
X191440000Y-63619000D01*
X188816064Y-61574000D02*
X187611936Y-61574000D01*
X188816064Y-63394000D02*
X187611936Y-63394000D01*
X143808000Y-50376000D02*
X131688000Y-50376000D01*
X131688000Y-50376000D02*
X131688000Y-48756000D01*
X131688000Y-48756000D02*
X143808000Y-48756000D01*
X143808000Y-48756000D02*
X143808000Y-50376000D01*
X143058000Y-48756000D02*
X143058000Y-44556000D01*
X143058000Y-44556000D02*
X142438000Y-44556000D01*
X142438000Y-44556000D02*
X142438000Y-48756000D01*
X142998000Y-48756000D02*
X142998000Y-44556000D01*
X142878000Y-48756000D02*
X142878000Y-44556000D01*
X142758000Y-48756000D02*
X142758000Y-44556000D01*
X142638000Y-48756000D02*
X142638000Y-44556000D01*
X142518000Y-48756000D02*
X142518000Y-44556000D01*
X143058000Y-50881000D02*
X143058000Y-50376000D01*
X142438000Y-50881000D02*
X142438000Y-50376000D01*
X141748000Y-50376000D02*
X141748000Y-48756000D01*
X141058000Y-48756000D02*
X141058000Y-44556000D01*
X141058000Y-44556000D02*
X140438000Y-44556000D01*
X140438000Y-44556000D02*
X140438000Y-48756000D01*
X141058000Y-50933886D02*
X141058000Y-50376000D01*
X140438000Y-50933886D02*
X140438000Y-50376000D01*
X139748000Y-50376000D02*
X139748000Y-48756000D01*
X139058000Y-48756000D02*
X139058000Y-44556000D01*
X139058000Y-44556000D02*
X138438000Y-44556000D01*
X138438000Y-44556000D02*
X138438000Y-48756000D01*
X139058000Y-50933886D02*
X139058000Y-50376000D01*
X138438000Y-50933886D02*
X138438000Y-50376000D01*
X137748000Y-50376000D02*
X137748000Y-48756000D01*
X137058000Y-48756000D02*
X137058000Y-44556000D01*
X137058000Y-44556000D02*
X136438000Y-44556000D01*
X136438000Y-44556000D02*
X136438000Y-48756000D01*
X137058000Y-50933886D02*
X137058000Y-50376000D01*
X136438000Y-50933886D02*
X136438000Y-50376000D01*
X135748000Y-50376000D02*
X135748000Y-48756000D01*
X135058000Y-48756000D02*
X135058000Y-44556000D01*
X135058000Y-44556000D02*
X134438000Y-44556000D01*
X134438000Y-44556000D02*
X134438000Y-48756000D01*
X135058000Y-50933886D02*
X135058000Y-50376000D01*
X134438000Y-50933886D02*
X134438000Y-50376000D01*
X133748000Y-50376000D02*
X133748000Y-48756000D01*
X133058000Y-48756000D02*
X133058000Y-44556000D01*
X133058000Y-44556000D02*
X132438000Y-44556000D01*
X132438000Y-44556000D02*
X132438000Y-48756000D01*
X133058000Y-50933886D02*
X133058000Y-50376000D01*
X132438000Y-50933886D02*
X132438000Y-50376000D01*
X142748000Y-52816000D02*
X143748000Y-52816000D01*
X143748000Y-52816000D02*
X143748000Y-51816000D01*
M02*
