%FSLAX45Y45*%
G04 Gerber Fmt 4.5, Leading zero omitted, Abs format (unit mm)*
G04 Created by KiCad (PCBNEW 5.1.9+dfsg1-1+deb11u1) date 2022-10-03 19:41:36*
%MOMM*%
%LPD*%
G01*
G04 APERTURE LIST*
%TA.AperFunction,Profile*%
%ADD10C,0.100000*%
%TD*%
%ADD11C,0.200000*%
%ADD12C,0.300000*%
G04 APERTURE END LIST*
D10*
X29540200Y-4572000D02*
X29540200Y-17272000D01*
X482600Y-4572000D02*
X29540200Y-4572000D01*
X482600Y-17272000D02*
X482600Y-4572000D01*
X29540200Y-17272000D02*
X482600Y-17272000D01*
D11*
X560600Y-17149000D02*
X600600Y-17189000D01*
X600600Y-17149000D02*
X560600Y-17189000D01*
X561600Y-4691000D02*
X601600Y-4731000D01*
X601600Y-4691000D02*
X561600Y-4731000D01*
X561600Y-4945000D02*
X601600Y-4985000D01*
X601600Y-4945000D02*
X561600Y-4985000D01*
X561600Y-5199000D02*
X601600Y-5239000D01*
X601600Y-5199000D02*
X561600Y-5239000D01*
X561600Y-5453000D02*
X601600Y-5493000D01*
X601600Y-5453000D02*
X561600Y-5493000D01*
X561600Y-5707000D02*
X601600Y-5747000D01*
X601600Y-5707000D02*
X561600Y-5747000D01*
X561600Y-5961000D02*
X601600Y-6001000D01*
X601600Y-5961000D02*
X561600Y-6001000D01*
X561600Y-6215000D02*
X601600Y-6255000D01*
X601600Y-6215000D02*
X561600Y-6255000D01*
X561600Y-6469000D02*
X601600Y-6509000D01*
X601600Y-6469000D02*
X561600Y-6509000D01*
X561600Y-6723000D02*
X601600Y-6763000D01*
X601600Y-6723000D02*
X561600Y-6763000D01*
X561600Y-6977000D02*
X601600Y-7017000D01*
X601600Y-6977000D02*
X561600Y-7017000D01*
X561600Y-7231000D02*
X601600Y-7271000D01*
X601600Y-7231000D02*
X561600Y-7271000D01*
X561600Y-7485000D02*
X601600Y-7525000D01*
X601600Y-7485000D02*
X561600Y-7525000D01*
X561600Y-7739000D02*
X601600Y-7779000D01*
X601600Y-7739000D02*
X561600Y-7779000D01*
X561600Y-7993000D02*
X601600Y-8033000D01*
X601600Y-7993000D02*
X561600Y-8033000D01*
X561600Y-8247000D02*
X601600Y-8287000D01*
X601600Y-8247000D02*
X561600Y-8287000D01*
X561600Y-8501000D02*
X601600Y-8541000D01*
X601600Y-8501000D02*
X561600Y-8541000D01*
X561600Y-8755000D02*
X601600Y-8795000D01*
X601600Y-8755000D02*
X561600Y-8795000D01*
X561600Y-9009000D02*
X601600Y-9049000D01*
X601600Y-9009000D02*
X561600Y-9049000D01*
X561600Y-9263000D02*
X601600Y-9303000D01*
X601600Y-9263000D02*
X561600Y-9303000D01*
X561600Y-9517000D02*
X601600Y-9557000D01*
X601600Y-9517000D02*
X561600Y-9557000D01*
X561600Y-9771000D02*
X601600Y-9811000D01*
X601600Y-9771000D02*
X561600Y-9811000D01*
X561600Y-10025000D02*
X601600Y-10065000D01*
X601600Y-10025000D02*
X561600Y-10065000D01*
X561600Y-10279000D02*
X601600Y-10319000D01*
X601600Y-10279000D02*
X561600Y-10319000D01*
X561600Y-10533000D02*
X601600Y-10573000D01*
X601600Y-10533000D02*
X561600Y-10573000D01*
X561600Y-10787000D02*
X601600Y-10827000D01*
X601600Y-10787000D02*
X561600Y-10827000D01*
X561600Y-11041000D02*
X601600Y-11081000D01*
X601600Y-11041000D02*
X561600Y-11081000D01*
X561600Y-11295000D02*
X601600Y-11335000D01*
X601600Y-11295000D02*
X561600Y-11335000D01*
X561600Y-11549000D02*
X601600Y-11589000D01*
X601600Y-11549000D02*
X561600Y-11589000D01*
X561600Y-11803000D02*
X601600Y-11843000D01*
X601600Y-11803000D02*
X561600Y-11843000D01*
X561600Y-12057000D02*
X601600Y-12097000D01*
X601600Y-12057000D02*
X561600Y-12097000D01*
X561600Y-12311000D02*
X601600Y-12351000D01*
X601600Y-12311000D02*
X561600Y-12351000D01*
X561600Y-12565000D02*
X601600Y-12605000D01*
X601600Y-12565000D02*
X561600Y-12605000D01*
X561600Y-12819000D02*
X601600Y-12859000D01*
X601600Y-12819000D02*
X561600Y-12859000D01*
X561600Y-13073000D02*
X601600Y-13113000D01*
X601600Y-13073000D02*
X561600Y-13113000D01*
X561600Y-13327000D02*
X601600Y-13367000D01*
X601600Y-13327000D02*
X561600Y-13367000D01*
X561600Y-13835000D02*
X601600Y-13875000D01*
X601600Y-13835000D02*
X561600Y-13875000D01*
X561600Y-14089000D02*
X601600Y-14129000D01*
X601600Y-14089000D02*
X561600Y-14129000D01*
X561600Y-14343000D02*
X601600Y-14383000D01*
X601600Y-14343000D02*
X561600Y-14383000D01*
X561600Y-14597000D02*
X601600Y-14637000D01*
X601600Y-14597000D02*
X561600Y-14637000D01*
X561600Y-14851000D02*
X601600Y-14891000D01*
X601600Y-14851000D02*
X561600Y-14891000D01*
X561600Y-15105000D02*
X601600Y-15145000D01*
X601600Y-15105000D02*
X561600Y-15145000D01*
X561600Y-15359000D02*
X601600Y-15399000D01*
X601600Y-15359000D02*
X561600Y-15399000D01*
X561600Y-15613000D02*
X601600Y-15653000D01*
X601600Y-15613000D02*
X561600Y-15653000D01*
X561600Y-15867000D02*
X601600Y-15907000D01*
X601600Y-15867000D02*
X561600Y-15907000D01*
X561600Y-16121000D02*
X601600Y-16161000D01*
X601600Y-16121000D02*
X561600Y-16161000D01*
X561600Y-16375000D02*
X601600Y-16415000D01*
X601600Y-16375000D02*
X561600Y-16415000D01*
X561600Y-16629000D02*
X601600Y-16669000D01*
X601600Y-16629000D02*
X561600Y-16669000D01*
X561600Y-16883000D02*
X601600Y-16923000D01*
X601600Y-16883000D02*
X561600Y-16923000D01*
X814600Y-17149000D02*
X854600Y-17189000D01*
X854600Y-17149000D02*
X814600Y-17189000D01*
X863600Y-4692000D02*
X903600Y-4732000D01*
X903600Y-4692000D02*
X863600Y-4732000D01*
X1055600Y-11958000D02*
X1095600Y-11998000D01*
X1095600Y-11958000D02*
X1055600Y-11998000D01*
X1068600Y-17149000D02*
X1108600Y-17189000D01*
X1108600Y-17149000D02*
X1068600Y-17189000D01*
X1117600Y-4692000D02*
X1157600Y-4732000D01*
X1157600Y-4692000D02*
X1117600Y-4732000D01*
X1153600Y-9816000D02*
X1193600Y-9856000D01*
X1193600Y-9816000D02*
X1153600Y-9856000D01*
X1155600Y-7639000D02*
X1195600Y-7679000D01*
X1195600Y-7639000D02*
X1155600Y-7679000D01*
X1322600Y-17149000D02*
X1362600Y-17189000D01*
X1362600Y-17149000D02*
X1322600Y-17189000D01*
X1371600Y-4692000D02*
X1411600Y-4732000D01*
X1411600Y-4692000D02*
X1371600Y-4732000D01*
X1540600Y-5502000D02*
X1580600Y-5542000D01*
X1580600Y-5502000D02*
X1540600Y-5542000D01*
X1576600Y-17149000D02*
X1616600Y-17189000D01*
X1616600Y-17149000D02*
X1576600Y-17189000D01*
X1625600Y-4692000D02*
X1665600Y-4732000D01*
X1665600Y-4692000D02*
X1625600Y-4732000D01*
X1765000Y-5537000D02*
X1805000Y-5577000D01*
X1805000Y-5537000D02*
X1765000Y-5577000D01*
X1767600Y-10733000D02*
X1807600Y-10773000D01*
X1807600Y-10733000D02*
X1767600Y-10773000D01*
X1769600Y-8556000D02*
X1809600Y-8596000D01*
X1809600Y-8556000D02*
X1769600Y-8596000D01*
X1798600Y-12865000D02*
X1838600Y-12905000D01*
X1838600Y-12865000D02*
X1798600Y-12905000D01*
X1830600Y-17149000D02*
X1870600Y-17189000D01*
X1870600Y-17149000D02*
X1830600Y-17189000D01*
X1879600Y-4692000D02*
X1919600Y-4732000D01*
X1919600Y-4692000D02*
X1879600Y-4732000D01*
X2011600Y-9723000D02*
X2051600Y-9763000D01*
X2051600Y-9723000D02*
X2011600Y-9763000D01*
X2013600Y-7546000D02*
X2053600Y-7586000D01*
X2053600Y-7546000D02*
X2013600Y-7586000D01*
X2042600Y-11855000D02*
X2082600Y-11895000D01*
X2082600Y-11855000D02*
X2042600Y-11895000D01*
X2050600Y-11059000D02*
X2090600Y-11099000D01*
X2090600Y-11059000D02*
X2050600Y-11099000D01*
X2052600Y-8882000D02*
X2092600Y-8922000D01*
X2092600Y-8882000D02*
X2052600Y-8922000D01*
X2081600Y-13191000D02*
X2121600Y-13231000D01*
X2121600Y-13191000D02*
X2081600Y-13231000D01*
X2084600Y-17149000D02*
X2124600Y-17189000D01*
X2124600Y-17149000D02*
X2084600Y-17189000D01*
X2133600Y-4692000D02*
X2173600Y-4732000D01*
X2173600Y-4692000D02*
X2133600Y-4732000D01*
X2154600Y-6419000D02*
X2194600Y-6459000D01*
X2194600Y-6419000D02*
X2154600Y-6459000D01*
X2338600Y-17149000D02*
X2378600Y-17189000D01*
X2378600Y-17149000D02*
X2338600Y-17189000D01*
X2387600Y-4692000D02*
X2427600Y-4732000D01*
X2427600Y-4692000D02*
X2387600Y-4732000D01*
X2398600Y-5409000D02*
X2438600Y-5449000D01*
X2438600Y-5409000D02*
X2398600Y-5449000D01*
X2437600Y-6745000D02*
X2477600Y-6785000D01*
X2477600Y-6745000D02*
X2437600Y-6785000D01*
X2592600Y-17149000D02*
X2632600Y-17189000D01*
X2632600Y-17149000D02*
X2592600Y-17189000D01*
X2641600Y-4692000D02*
X2681600Y-4732000D01*
X2681600Y-4692000D02*
X2641600Y-4732000D01*
X2846600Y-17149000D02*
X2886600Y-17189000D01*
X2886600Y-17149000D02*
X2846600Y-17189000D01*
X2895600Y-4692000D02*
X2935600Y-4732000D01*
X2935600Y-4692000D02*
X2895600Y-4732000D01*
X2949600Y-13677000D02*
X2989600Y-13717000D01*
X2989600Y-13677000D02*
X2949600Y-13717000D01*
X2962000Y-5637000D02*
X3002000Y-5677000D01*
X3002000Y-5637000D02*
X2962000Y-5677000D01*
X2992600Y-11387000D02*
X3032600Y-11427000D01*
X3032600Y-11387000D02*
X2992600Y-11427000D01*
X3048600Y-7535000D02*
X3088600Y-7575000D01*
X3088600Y-7535000D02*
X3048600Y-7575000D01*
X3081600Y-9436000D02*
X3121600Y-9476000D01*
X3121600Y-9436000D02*
X3081600Y-9476000D01*
X3100600Y-17149000D02*
X3140600Y-17189000D01*
X3140600Y-17149000D02*
X3100600Y-17189000D01*
X3149600Y-4692000D02*
X3189600Y-4732000D01*
X3189600Y-4692000D02*
X3149600Y-4732000D01*
X3157000Y-6528000D02*
X3197000Y-6568000D01*
X3197000Y-6528000D02*
X3157000Y-6568000D01*
X3354600Y-17149000D02*
X3394600Y-17189000D01*
X3394600Y-17149000D02*
X3354600Y-17189000D01*
X3403600Y-4692000D02*
X3443600Y-4732000D01*
X3443600Y-4692000D02*
X3403600Y-4732000D01*
X3460600Y-5569000D02*
X3500600Y-5609000D01*
X3500600Y-5569000D02*
X3460600Y-5609000D01*
X3608600Y-17149000D02*
X3648600Y-17189000D01*
X3648600Y-17149000D02*
X3608600Y-17189000D01*
X3657600Y-4692000D02*
X3697600Y-4732000D01*
X3697600Y-4692000D02*
X3657600Y-4732000D01*
X3662600Y-8452000D02*
X3702600Y-8492000D01*
X3702600Y-8452000D02*
X3662600Y-8492000D01*
X3692600Y-14584000D02*
X3732600Y-14624000D01*
X3732600Y-14584000D02*
X3692600Y-14624000D01*
X3695600Y-10353000D02*
X3735600Y-10393000D01*
X3735600Y-10353000D02*
X3695600Y-10393000D01*
X3704600Y-12303000D02*
X3744600Y-12343000D01*
X3744600Y-12303000D02*
X3704600Y-12343000D01*
X3862600Y-17149000D02*
X3902600Y-17189000D01*
X3902600Y-17149000D02*
X3862600Y-17189000D01*
X3911600Y-4692000D02*
X3951600Y-4732000D01*
X3951600Y-4692000D02*
X3911600Y-4732000D01*
X3926600Y-11384000D02*
X3966600Y-11424000D01*
X3966600Y-11384000D02*
X3926600Y-11424000D01*
X3936600Y-13574000D02*
X3976600Y-13614000D01*
X3976600Y-13574000D02*
X3936600Y-13614000D01*
X3939600Y-7447000D02*
X3979600Y-7487000D01*
X3979600Y-7447000D02*
X3939600Y-7487000D01*
X3939600Y-9343000D02*
X3979600Y-9383000D01*
X3979600Y-9343000D02*
X3939600Y-9383000D01*
X3945600Y-8778000D02*
X3985600Y-8818000D01*
X3985600Y-8778000D02*
X3945600Y-8818000D01*
X3975600Y-14910000D02*
X4015600Y-14950000D01*
X4015600Y-14910000D02*
X3975600Y-14950000D01*
X3978600Y-10679000D02*
X4018600Y-10719000D01*
X4018600Y-10679000D02*
X3978600Y-10719000D01*
X3987600Y-12629000D02*
X4027600Y-12669000D01*
X4027600Y-12629000D02*
X3987600Y-12669000D01*
X3991600Y-5733000D02*
X4031600Y-5773000D01*
X4031600Y-5733000D02*
X3991600Y-5773000D01*
X4074600Y-6486000D02*
X4114600Y-6526000D01*
X4114600Y-6486000D02*
X4074600Y-6526000D01*
X4116600Y-17149000D02*
X4156600Y-17189000D01*
X4156600Y-17149000D02*
X4116600Y-17189000D01*
X4165600Y-4692000D02*
X4205600Y-4732000D01*
X4205600Y-4692000D02*
X4165600Y-4732000D01*
X4318600Y-5476000D02*
X4358600Y-5516000D01*
X4358600Y-5476000D02*
X4318600Y-5516000D01*
X4357600Y-6812000D02*
X4397600Y-6852000D01*
X4397600Y-6812000D02*
X4357600Y-6852000D01*
X4370600Y-17149000D02*
X4410600Y-17189000D01*
X4410600Y-17149000D02*
X4370600Y-17189000D01*
X4419600Y-4692000D02*
X4459600Y-4732000D01*
X4459600Y-4692000D02*
X4419600Y-4732000D01*
X4624600Y-17149000D02*
X4664600Y-17189000D01*
X4664600Y-17149000D02*
X4624600Y-17189000D01*
X4673600Y-4692000D02*
X4713600Y-4732000D01*
X4713600Y-4692000D02*
X4673600Y-4732000D01*
X4878600Y-17149000D02*
X4918600Y-17189000D01*
X4918600Y-17149000D02*
X4878600Y-17189000D01*
X4883600Y-11762000D02*
X4923600Y-11802000D01*
X4923600Y-11762000D02*
X4883600Y-11802000D01*
X4893600Y-13672000D02*
X4933600Y-13712000D01*
X4933600Y-13672000D02*
X4893600Y-13712000D01*
X4902000Y-5812000D02*
X4942000Y-5852000D01*
X4942000Y-5812000D02*
X4902000Y-5852000D01*
X4927600Y-4692000D02*
X4967600Y-4732000D01*
X4967600Y-4692000D02*
X4927600Y-4732000D01*
X5009600Y-9809000D02*
X5049600Y-9849000D01*
X5049600Y-9809000D02*
X5009600Y-9849000D01*
X5013600Y-7867000D02*
X5053600Y-7907000D01*
X5053600Y-7867000D02*
X5013600Y-7907000D01*
X5132600Y-17149000D02*
X5172600Y-17189000D01*
X5172600Y-17149000D02*
X5132600Y-17189000D01*
X5181600Y-4692000D02*
X5221600Y-4732000D01*
X5221600Y-4692000D02*
X5181600Y-4732000D01*
X5386600Y-17149000D02*
X5426600Y-17189000D01*
X5426600Y-17149000D02*
X5386600Y-17189000D01*
X5393600Y-5931000D02*
X5433600Y-5971000D01*
X5433600Y-5931000D02*
X5393600Y-5971000D01*
X5435600Y-4692000D02*
X5475600Y-4732000D01*
X5475600Y-4692000D02*
X5435600Y-4732000D01*
X5623600Y-10726000D02*
X5663600Y-10766000D01*
X5663600Y-10726000D02*
X5623600Y-10766000D01*
X5626600Y-12669000D02*
X5666600Y-12709000D01*
X5666600Y-12669000D02*
X5626600Y-12709000D01*
X5627600Y-8784000D02*
X5667600Y-8824000D01*
X5667600Y-8784000D02*
X5627600Y-8824000D01*
X5636600Y-14579000D02*
X5676600Y-14619000D01*
X5676600Y-14579000D02*
X5636600Y-14619000D01*
X5640600Y-17149000D02*
X5680600Y-17189000D01*
X5680600Y-17149000D02*
X5640600Y-17189000D01*
X5691000Y-5917000D02*
X5731000Y-5957000D01*
X5731000Y-5917000D02*
X5691000Y-5957000D01*
X5867600Y-9716000D02*
X5907600Y-9756000D01*
X5907600Y-9716000D02*
X5867600Y-9756000D01*
X5870600Y-11659000D02*
X5910600Y-11699000D01*
X5910600Y-11659000D02*
X5870600Y-11699000D01*
X5871600Y-7774000D02*
X5911600Y-7814000D01*
X5911600Y-7774000D02*
X5871600Y-7814000D01*
X5880600Y-13569000D02*
X5920600Y-13609000D01*
X5920600Y-13569000D02*
X5880600Y-13609000D01*
X5894600Y-17149000D02*
X5934600Y-17189000D01*
X5934600Y-17149000D02*
X5894600Y-17189000D01*
X5906600Y-11052000D02*
X5946600Y-11092000D01*
X5946600Y-11052000D02*
X5906600Y-11092000D01*
X5909600Y-12995000D02*
X5949600Y-13035000D01*
X5949600Y-12995000D02*
X5909600Y-13035000D01*
X5910600Y-9110000D02*
X5950600Y-9150000D01*
X5950600Y-9110000D02*
X5910600Y-9150000D01*
X5919600Y-14905000D02*
X5959600Y-14945000D01*
X5959600Y-14905000D02*
X5919600Y-14945000D01*
X6007600Y-6848000D02*
X6047600Y-6888000D01*
X6047600Y-6848000D02*
X6007600Y-6888000D01*
X6092600Y-4692000D02*
X6132600Y-4732000D01*
X6132600Y-4692000D02*
X6092600Y-4732000D01*
X6148600Y-17149000D02*
X6188600Y-17189000D01*
X6188600Y-17149000D02*
X6148600Y-17189000D01*
X6194000Y-11662000D02*
X6234000Y-11702000D01*
X6234000Y-11662000D02*
X6194000Y-11702000D01*
X6251600Y-5838000D02*
X6291600Y-5878000D01*
X6291600Y-5838000D02*
X6251600Y-5878000D01*
X6290600Y-7174000D02*
X6330600Y-7214000D01*
X6330600Y-7174000D02*
X6290600Y-7214000D01*
X6346600Y-4692000D02*
X6386600Y-4732000D01*
X6386600Y-4692000D02*
X6346600Y-4732000D01*
X6402600Y-17149000D02*
X6442600Y-17189000D01*
X6442600Y-17149000D02*
X6402600Y-17189000D01*
X6482400Y-14102400D02*
X6522400Y-14142400D01*
X6522400Y-14102400D02*
X6482400Y-14142400D01*
X6600600Y-4692000D02*
X6640600Y-4732000D01*
X6640600Y-4692000D02*
X6600600Y-4732000D01*
X6656600Y-17149000D02*
X6696600Y-17189000D01*
X6696600Y-17149000D02*
X6656600Y-17189000D01*
X6812600Y-13992000D02*
X6852600Y-14032000D01*
X6852600Y-13992000D02*
X6812600Y-14032000D01*
X6854600Y-4692000D02*
X6894600Y-4732000D01*
X6894600Y-4692000D02*
X6854600Y-4732000D01*
X6910600Y-17149000D02*
X6950600Y-17189000D01*
X6950600Y-17149000D02*
X6910600Y-17189000D01*
X6914600Y-12089000D02*
X6954600Y-12129000D01*
X6954600Y-12089000D02*
X6914600Y-12129000D01*
X6940600Y-10136000D02*
X6980600Y-10176000D01*
X6980600Y-10136000D02*
X6940600Y-10176000D01*
X7108600Y-4692000D02*
X7148600Y-4732000D01*
X7148600Y-4692000D02*
X7108600Y-4732000D01*
X7109000Y-5953000D02*
X7149000Y-5993000D01*
X7149000Y-5953000D02*
X7109000Y-5993000D01*
X7164600Y-17149000D02*
X7204600Y-17189000D01*
X7204600Y-17149000D02*
X7164600Y-17189000D01*
X7323600Y-6303000D02*
X7363600Y-6343000D01*
X7363600Y-6303000D02*
X7323600Y-6343000D01*
X7362600Y-4692000D02*
X7402600Y-4732000D01*
X7402600Y-4692000D02*
X7362600Y-4732000D01*
X7418600Y-17149000D02*
X7458600Y-17189000D01*
X7458600Y-17149000D02*
X7418600Y-17189000D01*
X7554600Y-11053000D02*
X7594600Y-11093000D01*
X7594600Y-11053000D02*
X7554600Y-11093000D01*
X7555600Y-14899000D02*
X7595600Y-14939000D01*
X7595600Y-14899000D02*
X7555600Y-14939000D01*
X7561600Y-12996000D02*
X7601600Y-13036000D01*
X7601600Y-12996000D02*
X7561600Y-13036000D01*
X7616600Y-4692000D02*
X7656600Y-4732000D01*
X7656600Y-4692000D02*
X7616600Y-4732000D01*
X7672600Y-17149000D02*
X7712600Y-17189000D01*
X7712600Y-17149000D02*
X7672600Y-17189000D01*
X7790000Y-6408000D02*
X7830000Y-6448000D01*
X7830000Y-6408000D02*
X7790000Y-6448000D01*
X7798600Y-10043000D02*
X7838600Y-10083000D01*
X7838600Y-10043000D02*
X7798600Y-10083000D01*
X7799600Y-13889000D02*
X7839600Y-13929000D01*
X7839600Y-13889000D02*
X7799600Y-13929000D01*
X7805600Y-11986000D02*
X7845600Y-12026000D01*
X7845600Y-11986000D02*
X7805600Y-12026000D01*
X7838600Y-15225000D02*
X7878600Y-15265000D01*
X7878600Y-15225000D02*
X7838600Y-15265000D01*
X7844600Y-13322000D02*
X7884600Y-13362000D01*
X7884600Y-13322000D02*
X7844600Y-13362000D01*
X7870600Y-4692000D02*
X7910600Y-4732000D01*
X7910600Y-4692000D02*
X7870600Y-4732000D01*
X7909600Y-11394000D02*
X7949600Y-11434000D01*
X7949600Y-11394000D02*
X7909600Y-11434000D01*
X7926600Y-17149000D02*
X7966600Y-17189000D01*
X7966600Y-17149000D02*
X7926600Y-17189000D01*
X7937600Y-7220000D02*
X7977600Y-7260000D01*
X7977600Y-7220000D02*
X7937600Y-7260000D01*
X8124600Y-4692000D02*
X8164600Y-4732000D01*
X8164600Y-4692000D02*
X8124600Y-4732000D01*
X8180600Y-17149000D02*
X8220600Y-17189000D01*
X8220600Y-17149000D02*
X8180600Y-17189000D01*
X8181600Y-6210000D02*
X8221600Y-6250000D01*
X8221600Y-6210000D02*
X8181600Y-6250000D01*
X8220600Y-7546000D02*
X8260600Y-7586000D01*
X8260600Y-7546000D02*
X8220600Y-7586000D01*
X8283600Y-15708000D02*
X8323600Y-15748000D01*
X8323600Y-15708000D02*
X8283600Y-15748000D01*
X8378600Y-4692000D02*
X8418600Y-4732000D01*
X8418600Y-4692000D02*
X8378600Y-4732000D01*
X8434600Y-17149000D02*
X8474600Y-17189000D01*
X8474600Y-17149000D02*
X8434600Y-17189000D01*
X8632600Y-4692000D02*
X8672600Y-4732000D01*
X8672600Y-4692000D02*
X8632600Y-4732000D01*
X8688600Y-17149000D02*
X8728600Y-17189000D01*
X8728600Y-17149000D02*
X8688600Y-17189000D01*
X8735600Y-16012000D02*
X8775600Y-16052000D01*
X8775600Y-16012000D02*
X8735600Y-16052000D01*
X8754600Y-14406000D02*
X8794600Y-14446000D01*
X8794600Y-14406000D02*
X8754600Y-14446000D01*
X8755700Y-6139500D02*
X8795700Y-6179500D01*
X8795700Y-6139500D02*
X8755700Y-6179500D01*
X8835600Y-12441000D02*
X8875600Y-12481000D01*
X8875600Y-12441000D02*
X8835600Y-12481000D01*
X8870600Y-8569000D02*
X8910600Y-8609000D01*
X8910600Y-8569000D02*
X8870600Y-8609000D01*
X8874600Y-10542000D02*
X8914600Y-10582000D01*
X8914600Y-10542000D02*
X8874600Y-10582000D01*
X8886600Y-4692000D02*
X8926600Y-4732000D01*
X8926600Y-4692000D02*
X8886600Y-4732000D01*
X8942600Y-17149000D02*
X8982600Y-17189000D01*
X8982600Y-17149000D02*
X8942600Y-17189000D01*
X9124000Y-16159800D02*
X9164000Y-16199800D01*
X9164000Y-16159800D02*
X9124000Y-16199800D01*
X9140600Y-4692000D02*
X9180600Y-4732000D01*
X9180600Y-4692000D02*
X9140600Y-4732000D01*
X9196600Y-17149000D02*
X9236600Y-17189000D01*
X9236600Y-17149000D02*
X9196600Y-17189000D01*
X9254600Y-6656000D02*
X9294600Y-6696000D01*
X9294600Y-6656000D02*
X9254600Y-6696000D01*
X9394600Y-4692000D02*
X9434600Y-4732000D01*
X9434600Y-4692000D02*
X9394600Y-4732000D01*
X9450600Y-17149000D02*
X9490600Y-17189000D01*
X9490600Y-17149000D02*
X9450600Y-17189000D01*
X9482600Y-13348000D02*
X9522600Y-13388000D01*
X9522600Y-13348000D02*
X9482600Y-13388000D01*
X9484600Y-9486000D02*
X9524600Y-9526000D01*
X9524600Y-9486000D02*
X9484600Y-9526000D01*
X9488600Y-11459000D02*
X9528600Y-11499000D01*
X9528600Y-11459000D02*
X9488600Y-11499000D01*
X9497600Y-15313000D02*
X9537600Y-15353000D01*
X9537600Y-15313000D02*
X9497600Y-15353000D01*
X9617600Y-6645000D02*
X9657600Y-6685000D01*
X9657600Y-6645000D02*
X9617600Y-6685000D01*
X9648600Y-4692000D02*
X9688600Y-4732000D01*
X9688600Y-4692000D02*
X9648600Y-4732000D01*
X9704600Y-17149000D02*
X9744600Y-17189000D01*
X9744600Y-17149000D02*
X9704600Y-17189000D01*
X9726600Y-12338000D02*
X9766600Y-12378000D01*
X9766600Y-12338000D02*
X9726600Y-12378000D01*
X9728600Y-8476000D02*
X9768600Y-8516000D01*
X9768600Y-8476000D02*
X9728600Y-8516000D01*
X9732600Y-10449000D02*
X9772600Y-10489000D01*
X9772600Y-10449000D02*
X9732600Y-10489000D01*
X9741600Y-14303000D02*
X9781600Y-14343000D01*
X9781600Y-14303000D02*
X9741600Y-14343000D01*
X9765600Y-13674000D02*
X9805600Y-13714000D01*
X9805600Y-13674000D02*
X9765600Y-13714000D01*
X9767600Y-9812000D02*
X9807600Y-9852000D01*
X9807600Y-9812000D02*
X9767600Y-9852000D01*
X9771600Y-11785000D02*
X9811600Y-11825000D01*
X9811600Y-11785000D02*
X9771600Y-11825000D01*
X9780600Y-15639000D02*
X9820600Y-15679000D01*
X9820600Y-15639000D02*
X9780600Y-15679000D01*
X9868600Y-7573000D02*
X9908600Y-7613000D01*
X9908600Y-7573000D02*
X9868600Y-7613000D01*
X9902600Y-4692000D02*
X9942600Y-4732000D01*
X9942600Y-4692000D02*
X9902600Y-4732000D01*
X9958600Y-17149000D02*
X9998600Y-17189000D01*
X9998600Y-17149000D02*
X9958600Y-17189000D01*
X10112600Y-6563000D02*
X10152600Y-6603000D01*
X10152600Y-6563000D02*
X10112600Y-6603000D01*
X10151600Y-7899000D02*
X10191600Y-7939000D01*
X10191600Y-7899000D02*
X10151600Y-7939000D01*
X10156600Y-4692000D02*
X10196600Y-4732000D01*
X10196600Y-4692000D02*
X10156600Y-4732000D01*
X10212600Y-17149000D02*
X10252600Y-17189000D01*
X10252600Y-17149000D02*
X10212600Y-17189000D01*
X10277000Y-12273000D02*
X10317000Y-12313000D01*
X10317000Y-12273000D02*
X10277000Y-12313000D01*
X10410600Y-4692000D02*
X10450600Y-4732000D01*
X10450600Y-4692000D02*
X10410600Y-4732000D01*
X10444800Y-16388400D02*
X10484800Y-16428400D01*
X10484800Y-16388400D02*
X10444800Y-16428400D01*
X10466600Y-17149000D02*
X10506600Y-17189000D01*
X10506600Y-17149000D02*
X10466600Y-17189000D01*
X10664600Y-4692000D02*
X10704600Y-4732000D01*
X10704600Y-4692000D02*
X10664600Y-4732000D01*
X10693600Y-14735000D02*
X10733600Y-14775000D01*
X10733600Y-14735000D02*
X10693600Y-14775000D01*
X10720600Y-17149000D02*
X10760600Y-17189000D01*
X10760600Y-17149000D02*
X10720600Y-17189000D01*
X10759600Y-12805000D02*
X10799600Y-12845000D01*
X10799600Y-12805000D02*
X10759600Y-12845000D01*
X10773600Y-10877000D02*
X10813600Y-10917000D01*
X10813600Y-10877000D02*
X10773600Y-10917000D01*
X10806600Y-8959000D02*
X10846600Y-8999000D01*
X10846600Y-8959000D02*
X10806600Y-8999000D01*
X10918600Y-4692000D02*
X10958600Y-4732000D01*
X10958600Y-4692000D02*
X10918600Y-4732000D01*
X10974600Y-17149000D02*
X11014600Y-17189000D01*
X11014600Y-17149000D02*
X10974600Y-17189000D01*
X11156600Y-4689000D02*
X11196600Y-4729000D01*
X11196600Y-4689000D02*
X11156600Y-4729000D01*
X11185600Y-7028000D02*
X11225600Y-7068000D01*
X11225600Y-7028000D02*
X11185600Y-7068000D01*
X11228600Y-17149000D02*
X11268600Y-17189000D01*
X11268600Y-17149000D02*
X11228600Y-17189000D01*
X11406600Y-13712000D02*
X11446600Y-13752000D01*
X11446600Y-13712000D02*
X11406600Y-13752000D01*
X11410600Y-4689000D02*
X11450600Y-4729000D01*
X11450600Y-4689000D02*
X11410600Y-4729000D01*
X11420600Y-9876000D02*
X11460600Y-9916000D01*
X11460600Y-9876000D02*
X11420600Y-9916000D01*
X11420600Y-11784000D02*
X11460600Y-11824000D01*
X11460600Y-11784000D02*
X11420600Y-11824000D01*
X11436600Y-15642000D02*
X11476600Y-15682000D01*
X11476600Y-15642000D02*
X11436600Y-15682000D01*
X11482600Y-17149000D02*
X11522600Y-17189000D01*
X11522600Y-17149000D02*
X11482600Y-17189000D01*
X11540000Y-6963000D02*
X11580000Y-7003000D01*
X11580000Y-6963000D02*
X11540000Y-7003000D01*
X11650600Y-12702000D02*
X11690600Y-12742000D01*
X11690600Y-12702000D02*
X11650600Y-12742000D01*
X11664600Y-4689000D02*
X11704600Y-4729000D01*
X11704600Y-4689000D02*
X11664600Y-4729000D01*
X11664600Y-8866000D02*
X11704600Y-8906000D01*
X11704600Y-8866000D02*
X11664600Y-8906000D01*
X11664600Y-10774000D02*
X11704600Y-10814000D01*
X11704600Y-10774000D02*
X11664600Y-10814000D01*
X11680600Y-14632000D02*
X11720600Y-14672000D01*
X11720600Y-14632000D02*
X11680600Y-14672000D01*
X11689600Y-14038000D02*
X11729600Y-14078000D01*
X11729600Y-14038000D02*
X11689600Y-14078000D01*
X11703600Y-10202000D02*
X11743600Y-10242000D01*
X11743600Y-10202000D02*
X11703600Y-10242000D01*
X11703600Y-12110000D02*
X11743600Y-12150000D01*
X11743600Y-12110000D02*
X11703600Y-12150000D01*
X11719600Y-15968000D02*
X11759600Y-16008000D01*
X11759600Y-15968000D02*
X11719600Y-16008000D01*
X11736600Y-17149000D02*
X11776600Y-17189000D01*
X11776600Y-17149000D02*
X11736600Y-17189000D01*
X11799600Y-7945000D02*
X11839600Y-7985000D01*
X11839600Y-7945000D02*
X11799600Y-7985000D01*
X11918600Y-4689000D02*
X11958600Y-4729000D01*
X11958600Y-4689000D02*
X11918600Y-4729000D01*
X11990600Y-17149000D02*
X12030600Y-17189000D01*
X12030600Y-17149000D02*
X11990600Y-17189000D01*
X12043600Y-6935000D02*
X12083600Y-6975000D01*
X12083600Y-6935000D02*
X12043600Y-6975000D01*
X12082600Y-8271000D02*
X12122600Y-8311000D01*
X12122600Y-8271000D02*
X12082600Y-8311000D01*
X12210000Y-12831000D02*
X12250000Y-12871000D01*
X12250000Y-12831000D02*
X12210000Y-12871000D01*
X12244600Y-17149000D02*
X12284600Y-17189000D01*
X12284600Y-17149000D02*
X12244600Y-17189000D01*
X12498600Y-17149000D02*
X12538600Y-17189000D01*
X12538600Y-17149000D02*
X12498600Y-17189000D01*
X12507000Y-16175000D02*
X12547000Y-16215000D01*
X12547000Y-16175000D02*
X12507000Y-16215000D01*
X12540300Y-7003100D02*
X12580300Y-7043100D01*
X12580300Y-7003100D02*
X12540300Y-7043100D01*
X12606600Y-15176000D02*
X12646600Y-15216000D01*
X12646600Y-15176000D02*
X12606600Y-15216000D01*
X12692600Y-13275000D02*
X12732600Y-13315000D01*
X12732600Y-13275000D02*
X12692600Y-13315000D01*
X12707600Y-11339000D02*
X12747600Y-11379000D01*
X12747600Y-11339000D02*
X12707600Y-11379000D01*
X12731600Y-9391000D02*
X12771600Y-9431000D01*
X12771600Y-9391000D02*
X12731600Y-9431000D01*
X12752600Y-17149000D02*
X12792600Y-17189000D01*
X12792600Y-17149000D02*
X12752600Y-17189000D01*
X12922600Y-5819000D02*
X12962600Y-5859000D01*
X12962600Y-5819000D02*
X12922600Y-5859000D01*
X12962000Y-12242000D02*
X13002000Y-12282000D01*
X13002000Y-12242000D02*
X12962000Y-12282000D01*
X12972000Y-13044000D02*
X13012000Y-13084000D01*
X13012000Y-13044000D02*
X12972000Y-13084000D01*
X13006600Y-17149000D02*
X13046600Y-17189000D01*
X13046600Y-17149000D02*
X13006600Y-17189000D01*
X13034000Y-14218000D02*
X13074000Y-14258000D01*
X13074000Y-14218000D02*
X13034000Y-14258000D01*
X13143000Y-14681000D02*
X13183000Y-14721000D01*
X13183000Y-14681000D02*
X13143000Y-14721000D01*
X13180600Y-14983000D02*
X13220600Y-15023000D01*
X13220600Y-14983000D02*
X13180600Y-15023000D01*
X13260600Y-17149000D02*
X13300600Y-17189000D01*
X13300600Y-17149000D02*
X13260600Y-17189000D01*
X13275600Y-8288000D02*
X13315600Y-8328000D01*
X13315600Y-8288000D02*
X13275600Y-8328000D01*
X13321600Y-7580000D02*
X13361600Y-7620000D01*
X13361600Y-7580000D02*
X13321600Y-7620000D01*
X13339600Y-14182000D02*
X13379600Y-14222000D01*
X13379600Y-14182000D02*
X13339600Y-14222000D01*
X13345600Y-10308000D02*
X13385600Y-10348000D01*
X13385600Y-10308000D02*
X13345600Y-10348000D01*
X13349600Y-16083000D02*
X13389600Y-16123000D01*
X13389600Y-16083000D02*
X13349600Y-16123000D01*
X13354600Y-12246000D02*
X13394600Y-12286000D01*
X13394600Y-12246000D02*
X13354600Y-12286000D01*
X13403900Y-6825300D02*
X13443900Y-6865300D01*
X13443900Y-6825300D02*
X13403900Y-6865300D01*
X13444600Y-6140000D02*
X13484600Y-6180000D01*
X13484600Y-6140000D02*
X13444600Y-6180000D01*
X13514600Y-17149000D02*
X13554600Y-17189000D01*
X13554600Y-17149000D02*
X13514600Y-17189000D01*
X13519600Y-7278000D02*
X13559600Y-7318000D01*
X13559600Y-7278000D02*
X13519600Y-7318000D01*
X13543600Y-10698800D02*
X13583600Y-10738800D01*
X13583600Y-10698800D02*
X13543600Y-10738800D01*
X13557000Y-15383000D02*
X13597000Y-15423000D01*
X13597000Y-15383000D02*
X13557000Y-15423000D01*
X13581700Y-6507800D02*
X13621700Y-6547800D01*
X13621700Y-6507800D02*
X13581700Y-6547800D01*
X13583600Y-13172000D02*
X13623600Y-13212000D01*
X13623600Y-13172000D02*
X13583600Y-13212000D01*
X13589600Y-9298000D02*
X13629600Y-9338000D01*
X13629600Y-9298000D02*
X13589600Y-9338000D01*
X13598600Y-11236000D02*
X13638600Y-11276000D01*
X13638600Y-11236000D02*
X13598600Y-11276000D01*
X13619800Y-14534200D02*
X13659800Y-14574200D01*
X13659800Y-14534200D02*
X13619800Y-14574200D01*
X13632600Y-16409000D02*
X13672600Y-16449000D01*
X13672600Y-16409000D02*
X13632600Y-16449000D01*
X13645200Y-6355401D02*
X13685200Y-6395401D01*
X13685200Y-6355401D02*
X13645200Y-6395401D01*
X13645200Y-14889800D02*
X13685200Y-14929800D01*
X13685200Y-14889800D02*
X13645200Y-14929800D01*
X13662000Y-12963000D02*
X13702000Y-13003000D01*
X13702000Y-12963000D02*
X13662000Y-13003000D01*
X13684600Y-10628000D02*
X13724600Y-10668000D01*
X13724600Y-10628000D02*
X13684600Y-10668000D01*
X13701600Y-8698000D02*
X13741600Y-8738000D01*
X13741600Y-8698000D02*
X13701600Y-8738000D01*
X13728600Y-12251000D02*
X13768600Y-12291000D01*
X13768600Y-12251000D02*
X13728600Y-12291000D01*
X13768600Y-17149000D02*
X13808600Y-17189000D01*
X13808600Y-17149000D02*
X13768600Y-17189000D01*
X13798600Y-14326000D02*
X13838600Y-14366000D01*
X13838600Y-14326000D02*
X13798600Y-14366000D01*
X13825600Y-12667000D02*
X13865600Y-12707000D01*
X13865600Y-12667000D02*
X13825600Y-12707000D01*
X13866000Y-15958000D02*
X13906000Y-15998000D01*
X13906000Y-15958000D02*
X13866000Y-15998000D01*
X13899199Y-6342700D02*
X13939199Y-6382700D01*
X13939199Y-6342700D02*
X13899199Y-6382700D01*
X13951064Y-7284184D02*
X13991064Y-7324184D01*
X13991064Y-7284184D02*
X13951064Y-7324184D01*
X14022600Y-17149000D02*
X14062600Y-17189000D01*
X14062600Y-17149000D02*
X14022600Y-17189000D01*
X14078600Y-8370000D02*
X14118600Y-8410000D01*
X14118600Y-8370000D02*
X14078600Y-8410000D01*
X14085600Y-6039000D02*
X14125600Y-6079000D01*
X14125600Y-6039000D02*
X14085600Y-6079000D01*
X14093000Y-14715000D02*
X14133000Y-14755000D01*
X14133000Y-14715000D02*
X14093000Y-14755000D01*
X14125000Y-15097000D02*
X14165000Y-15137000D01*
X14165000Y-15097000D02*
X14125000Y-15137000D01*
X14270584Y-6568193D02*
X14310584Y-6608193D01*
X14310584Y-6568193D02*
X14270584Y-6608193D01*
X14276600Y-17149000D02*
X14316600Y-17189000D01*
X14316600Y-17149000D02*
X14276600Y-17189000D01*
X14423000Y-15345000D02*
X14463000Y-15385000D01*
X14463000Y-15345000D02*
X14423000Y-15385000D01*
X14458002Y-12629200D02*
X14498002Y-12669200D01*
X14498002Y-12629200D02*
X14458002Y-12669200D01*
X14483400Y-7447600D02*
X14523400Y-7487600D01*
X14523400Y-7447600D02*
X14483400Y-7487600D01*
X14530600Y-17149000D02*
X14570600Y-17189000D01*
X14570600Y-17149000D02*
X14530600Y-17189000D01*
X14534200Y-10800400D02*
X14574200Y-10840400D01*
X14574200Y-10800400D02*
X14534200Y-10840400D01*
X14534200Y-14661200D02*
X14574200Y-14701200D01*
X14574200Y-14661200D02*
X14534200Y-14701200D01*
X14534200Y-15093000D02*
X14574200Y-15133000D01*
X14574200Y-15093000D02*
X14534200Y-15133000D01*
X14540600Y-15371000D02*
X14580600Y-15411000D01*
X14580600Y-15371000D02*
X14540600Y-15411000D01*
X14571600Y-7230000D02*
X14611600Y-7270000D01*
X14611600Y-7230000D02*
X14571600Y-7270000D01*
X14571633Y-6613284D02*
X14611633Y-6653284D01*
X14611633Y-6613284D02*
X14571633Y-6653284D01*
X14589600Y-7078000D02*
X14629600Y-7118000D01*
X14629600Y-7078000D02*
X14589600Y-7118000D01*
X14591600Y-6794000D02*
X14631600Y-6834000D01*
X14631600Y-6794000D02*
X14591600Y-6834000D01*
X14593600Y-6939000D02*
X14633600Y-6979000D01*
X14633600Y-6939000D02*
X14593600Y-6979000D01*
X14628600Y-11538000D02*
X14668600Y-11578000D01*
X14668600Y-11538000D02*
X14628600Y-11578000D01*
X14638600Y-13440000D02*
X14678600Y-13480000D01*
X14678600Y-13440000D02*
X14638600Y-13480000D01*
X14649600Y-9574000D02*
X14689600Y-9614000D01*
X14689600Y-9574000D02*
X14649600Y-9614000D01*
X14745000Y-16115000D02*
X14785000Y-16155000D01*
X14785000Y-16115000D02*
X14745000Y-16155000D01*
X14784600Y-17149000D02*
X14824600Y-17189000D01*
X14824600Y-17149000D02*
X14784600Y-17189000D01*
X14813600Y-7015800D02*
X14853600Y-7055800D01*
X14853600Y-7015800D02*
X14813600Y-7055800D01*
X14828600Y-7322000D02*
X14868600Y-7362000D01*
X14868600Y-7322000D02*
X14828600Y-7362000D01*
X14865600Y-4826000D02*
X14905600Y-4866000D01*
X14905600Y-4826000D02*
X14865600Y-4866000D01*
X14933600Y-7322000D02*
X14973600Y-7362000D01*
X14973600Y-7322000D02*
X14933600Y-7362000D01*
X14937600Y-6467000D02*
X14977600Y-6507000D01*
X14977600Y-6467000D02*
X14937600Y-6507000D01*
X14988000Y-9294000D02*
X15028000Y-9334000D01*
X15028000Y-9294000D02*
X14988000Y-9334000D01*
X14997000Y-15368000D02*
X15037000Y-15408000D01*
X15037000Y-15368000D02*
X14997000Y-15408000D01*
X15032000Y-14330000D02*
X15072000Y-14370000D01*
X15072000Y-14330000D02*
X15032000Y-14370000D01*
X15038600Y-17149000D02*
X15078600Y-17189000D01*
X15078600Y-17149000D02*
X15038600Y-17189000D01*
X15041000Y-12414000D02*
X15081000Y-12454000D01*
X15081000Y-12414000D02*
X15041000Y-12454000D01*
X15066600Y-4834000D02*
X15106600Y-4874000D01*
X15106600Y-4834000D02*
X15066600Y-4874000D01*
X15093600Y-7322000D02*
X15133600Y-7362000D01*
X15133600Y-7322000D02*
X15093600Y-7362000D01*
X15169200Y-6634800D02*
X15209200Y-6674800D01*
X15209200Y-6634800D02*
X15169200Y-6674800D01*
X15245399Y-6177600D02*
X15285399Y-6217600D01*
X15285399Y-6177600D02*
X15245399Y-6217600D01*
X15263600Y-10491000D02*
X15303600Y-10531000D01*
X15303600Y-10491000D02*
X15263600Y-10531000D01*
X15275600Y-12445000D02*
X15315600Y-12485000D01*
X15315600Y-12445000D02*
X15275600Y-12485000D01*
X15283600Y-16278000D02*
X15323600Y-16318000D01*
X15323600Y-16278000D02*
X15283600Y-16318000D01*
X15285600Y-14347000D02*
X15325600Y-14387000D01*
X15325600Y-14347000D02*
X15285600Y-14387000D01*
X15292600Y-17149000D02*
X15332600Y-17189000D01*
X15332600Y-17149000D02*
X15292600Y-17189000D01*
X15334300Y-5479100D02*
X15374300Y-5519100D01*
X15374300Y-5479100D02*
X15334300Y-5519100D01*
X15391000Y-11110000D02*
X15431000Y-11150000D01*
X15431000Y-11110000D02*
X15391000Y-11150000D01*
X15394000Y-6939600D02*
X15434000Y-6979600D01*
X15434000Y-6939600D02*
X15394000Y-6979600D01*
X15397800Y-7117400D02*
X15437800Y-7157400D01*
X15437800Y-7117400D02*
X15397800Y-7157400D01*
X15409600Y-7311000D02*
X15449600Y-7351000D01*
X15449600Y-7311000D02*
X15409600Y-7351000D01*
X15436600Y-6763000D02*
X15476600Y-6803000D01*
X15476600Y-6763000D02*
X15436600Y-6803000D01*
X15474600Y-4676000D02*
X15514600Y-4716000D01*
X15514600Y-4676000D02*
X15474600Y-4716000D01*
X15507600Y-9481000D02*
X15547600Y-9521000D01*
X15547600Y-9481000D02*
X15507600Y-9521000D01*
X15519600Y-11435000D02*
X15559600Y-11475000D01*
X15559600Y-11435000D02*
X15519600Y-11475000D01*
X15524800Y-6050600D02*
X15564800Y-6090600D01*
X15564800Y-6050600D02*
X15524800Y-6090600D01*
X15527600Y-15268000D02*
X15567600Y-15308000D01*
X15567600Y-15268000D02*
X15527600Y-15308000D01*
X15529600Y-13337000D02*
X15569600Y-13377000D01*
X15569600Y-13337000D02*
X15529600Y-13377000D01*
X15546600Y-17149000D02*
X15586600Y-17189000D01*
X15586600Y-17149000D02*
X15546600Y-17189000D01*
X15558600Y-12771000D02*
X15598600Y-12811000D01*
X15598600Y-12771000D02*
X15558600Y-12811000D01*
X15566600Y-16604000D02*
X15606600Y-16644000D01*
X15606600Y-16604000D02*
X15566600Y-16644000D01*
X15568600Y-14673000D02*
X15608600Y-14713000D01*
X15608600Y-14673000D02*
X15568600Y-14713000D01*
X15589600Y-10849000D02*
X15629600Y-10889000D01*
X15629600Y-10849000D02*
X15589600Y-10889000D01*
X15699600Y-5747000D02*
X15739600Y-5787000D01*
X15739600Y-5747000D02*
X15699600Y-5787000D01*
X15702600Y-5949000D02*
X15742600Y-5989000D01*
X15742600Y-5949000D02*
X15702600Y-5989000D01*
X15727600Y-7854000D02*
X15767600Y-7894000D01*
X15767600Y-7854000D02*
X15727600Y-7894000D01*
X15728600Y-4676000D02*
X15768600Y-4716000D01*
X15768600Y-4676000D02*
X15728600Y-4716000D01*
X15759878Y-7320861D02*
X15799878Y-7360861D01*
X15799878Y-7320861D02*
X15759878Y-7360861D01*
X15800600Y-17149000D02*
X15840600Y-17189000D01*
X15840600Y-17149000D02*
X15800600Y-17189000D01*
X15816899Y-7079300D02*
X15856899Y-7119300D01*
X15856899Y-7079300D02*
X15816899Y-7119300D01*
X15880400Y-5644200D02*
X15920400Y-5684200D01*
X15920400Y-5644200D02*
X15880400Y-5684200D01*
X15982600Y-4676000D02*
X16022600Y-4716000D01*
X16022600Y-4676000D02*
X15982600Y-4716000D01*
X16007400Y-8920800D02*
X16047400Y-8960800D01*
X16047400Y-8920800D02*
X16007400Y-8960800D01*
X16054600Y-17149000D02*
X16094600Y-17189000D01*
X16094600Y-17149000D02*
X16054600Y-17189000D01*
X16120600Y-7490000D02*
X16160600Y-7530000D01*
X16160600Y-7490000D02*
X16120600Y-7530000D01*
X16144600Y-6128000D02*
X16184600Y-6168000D01*
X16184600Y-6128000D02*
X16144600Y-6168000D01*
X16175600Y-6859000D02*
X16215600Y-6899000D01*
X16215600Y-6859000D02*
X16175600Y-6899000D01*
X16308600Y-17149000D02*
X16348600Y-17189000D01*
X16348600Y-17149000D02*
X16308600Y-17189000D01*
X16312200Y-10495600D02*
X16352200Y-10535600D01*
X16352200Y-10495600D02*
X16312200Y-10535600D01*
X16478600Y-15184000D02*
X16518600Y-15224000D01*
X16518600Y-15184000D02*
X16478600Y-15224000D01*
X16516600Y-9406000D02*
X16556600Y-9446000D01*
X16556600Y-9406000D02*
X16516600Y-9446000D01*
X16562600Y-17149000D02*
X16602600Y-17189000D01*
X16602600Y-17149000D02*
X16562600Y-17189000D01*
X16565600Y-11305000D02*
X16605600Y-11345000D01*
X16605600Y-11305000D02*
X16565600Y-11345000D01*
X16566600Y-13271000D02*
X16606600Y-13311000D01*
X16606600Y-13271000D02*
X16566600Y-13311000D01*
X16676000Y-15955000D02*
X16716000Y-15995000D01*
X16716000Y-15955000D02*
X16676000Y-15995000D01*
X16734600Y-8407000D02*
X16774600Y-8447000D01*
X16774600Y-8407000D02*
X16734600Y-8447000D01*
X16786600Y-6266000D02*
X16826600Y-6306000D01*
X16826600Y-6266000D02*
X16786600Y-6306000D01*
X16816600Y-17149000D02*
X16856600Y-17189000D01*
X16856600Y-17149000D02*
X16816600Y-17189000D01*
X16909000Y-16416000D02*
X16949000Y-16456000D01*
X16949000Y-16416000D02*
X16909000Y-16456000D01*
X16921802Y-12781600D02*
X16961802Y-12821600D01*
X16961802Y-12781600D02*
X16921802Y-12821600D01*
X16958600Y-6874000D02*
X16998600Y-6914000D01*
X16998600Y-6874000D02*
X16958600Y-6914000D01*
X16978600Y-7397000D02*
X17018600Y-7437000D01*
X17018600Y-7397000D02*
X16978600Y-7437000D01*
X17006600Y-4682000D02*
X17046600Y-4722000D01*
X17046600Y-4682000D02*
X17006600Y-4722000D01*
X17017600Y-8733000D02*
X17057600Y-8773000D01*
X17057600Y-8733000D02*
X17017600Y-8773000D01*
X17024000Y-14124000D02*
X17064000Y-14164000D01*
X17064000Y-14124000D02*
X17024000Y-14164000D01*
X17048000Y-12181000D02*
X17088000Y-12221000D01*
X17088000Y-12181000D02*
X17048000Y-12221000D01*
X17050600Y-7127000D02*
X17090600Y-7167000D01*
X17090600Y-7127000D02*
X17050600Y-7167000D01*
X17070600Y-17149000D02*
X17110600Y-17189000D01*
X17110600Y-17149000D02*
X17070600Y-17189000D01*
X17200600Y-10302000D02*
X17240600Y-10342000D01*
X17240600Y-10302000D02*
X17200600Y-10342000D01*
X17212600Y-12212000D02*
X17252600Y-12252000D01*
X17252600Y-12212000D02*
X17212600Y-12252000D01*
X17213600Y-14178000D02*
X17253600Y-14218000D01*
X17253600Y-14178000D02*
X17213600Y-14218000D01*
X17221600Y-16091000D02*
X17261600Y-16131000D01*
X17261600Y-16091000D02*
X17221600Y-16131000D01*
X17244600Y-4679000D02*
X17284600Y-4719000D01*
X17284600Y-4679000D02*
X17244600Y-4719000D01*
X17324600Y-17149000D02*
X17364600Y-17189000D01*
X17364600Y-17149000D02*
X17324600Y-17189000D01*
X17444600Y-9292000D02*
X17484600Y-9332000D01*
X17484600Y-9292000D02*
X17444600Y-9332000D01*
X17456600Y-11202000D02*
X17496600Y-11242000D01*
X17496600Y-11202000D02*
X17456600Y-11242000D01*
X17457600Y-13168000D02*
X17497600Y-13208000D01*
X17497600Y-13168000D02*
X17457600Y-13208000D01*
X17465600Y-15081000D02*
X17505600Y-15121000D01*
X17505600Y-15081000D02*
X17465600Y-15121000D01*
X17483600Y-10628000D02*
X17523600Y-10668000D01*
X17523600Y-10628000D02*
X17483600Y-10668000D01*
X17495600Y-12538000D02*
X17535600Y-12578000D01*
X17535600Y-12538000D02*
X17495600Y-12578000D01*
X17496600Y-14504000D02*
X17536600Y-14544000D01*
X17536600Y-14504000D02*
X17496600Y-14544000D01*
X17498600Y-4679000D02*
X17538600Y-4719000D01*
X17538600Y-4679000D02*
X17498600Y-4719000D01*
X17504600Y-16417000D02*
X17544600Y-16457000D01*
X17544600Y-16417000D02*
X17504600Y-16457000D01*
X17518700Y-8196899D02*
X17558700Y-8236899D01*
X17558700Y-8196899D02*
X17518700Y-8236899D01*
X17578600Y-17149000D02*
X17618600Y-17189000D01*
X17618600Y-17149000D02*
X17578600Y-17189000D01*
X17645700Y-7219000D02*
X17685700Y-7259000D01*
X17685700Y-7219000D02*
X17645700Y-7259000D01*
X17658400Y-7917500D02*
X17698400Y-7957500D01*
X17698400Y-7917500D02*
X17658400Y-7957500D01*
X17752600Y-4679000D02*
X17792600Y-4719000D01*
X17792600Y-4679000D02*
X17752600Y-4719000D01*
X17832600Y-17149000D02*
X17872600Y-17189000D01*
X17872600Y-17149000D02*
X17832600Y-17189000D01*
X17833000Y-13464000D02*
X17873000Y-13504000D01*
X17873000Y-13464000D02*
X17833000Y-13504000D01*
X17870000Y-11139000D02*
X17910000Y-11179000D01*
X17910000Y-11139000D02*
X17870000Y-11179000D01*
X18006600Y-4679000D02*
X18046600Y-4719000D01*
X18046600Y-4679000D02*
X18006600Y-4719000D01*
X18014000Y-9098600D02*
X18054000Y-9138600D01*
X18054000Y-9098600D02*
X18014000Y-9138600D01*
X18054600Y-7038000D02*
X18094600Y-7078000D01*
X18094600Y-7038000D02*
X18054600Y-7078000D01*
X18086600Y-17149000D02*
X18126600Y-17189000D01*
X18126600Y-17149000D02*
X18086600Y-17189000D01*
X18179000Y-9689000D02*
X18219000Y-9729000D01*
X18219000Y-9689000D02*
X18179000Y-9729000D01*
X18260600Y-4679000D02*
X18300600Y-4719000D01*
X18300600Y-4679000D02*
X18260600Y-4719000D01*
X18340600Y-17149000D02*
X18380600Y-17189000D01*
X18380600Y-17149000D02*
X18340600Y-17189000D01*
X18399600Y-14733000D02*
X18439600Y-14773000D01*
X18439600Y-14733000D02*
X18399600Y-14773000D01*
X18489600Y-10878000D02*
X18529600Y-10918000D01*
X18529600Y-10878000D02*
X18489600Y-10918000D01*
X18507600Y-12801000D02*
X18547600Y-12841000D01*
X18547600Y-12801000D02*
X18507600Y-12841000D01*
X18514600Y-4679000D02*
X18554600Y-4719000D01*
X18554600Y-4679000D02*
X18514600Y-4719000D01*
X18521600Y-8945000D02*
X18561600Y-8985000D01*
X18561600Y-8945000D02*
X18521600Y-8985000D01*
X18594600Y-17149000D02*
X18634600Y-17189000D01*
X18634600Y-17149000D02*
X18594600Y-17189000D01*
X18668600Y-7955000D02*
X18708600Y-7995000D01*
X18708600Y-7955000D02*
X18668600Y-7995000D01*
X18768600Y-4679000D02*
X18808600Y-4719000D01*
X18808600Y-4679000D02*
X18768600Y-4719000D01*
X18848600Y-17149000D02*
X18888600Y-17189000D01*
X18888600Y-17149000D02*
X18848600Y-17189000D01*
X18912600Y-6945000D02*
X18952600Y-6985000D01*
X18952600Y-6945000D02*
X18912600Y-6985000D01*
X18927000Y-9859000D02*
X18967000Y-9899000D01*
X18967000Y-9859000D02*
X18927000Y-9899000D01*
X18951600Y-8281000D02*
X18991600Y-8321000D01*
X18991600Y-8281000D02*
X18951600Y-8321000D01*
X19022600Y-4679000D02*
X19062600Y-4719000D01*
X19062600Y-4679000D02*
X19022600Y-4719000D01*
X19102600Y-17149000D02*
X19142600Y-17189000D01*
X19142600Y-17149000D02*
X19102600Y-17189000D01*
X19135600Y-9862000D02*
X19175600Y-9902000D01*
X19175600Y-9862000D02*
X19135600Y-9902000D01*
X19136600Y-11785000D02*
X19176600Y-11825000D01*
X19176600Y-11785000D02*
X19136600Y-11825000D01*
X19142600Y-15640000D02*
X19182600Y-15680000D01*
X19182600Y-15640000D02*
X19142600Y-15680000D01*
X19154600Y-13708000D02*
X19194600Y-13748000D01*
X19194600Y-13708000D02*
X19154600Y-13748000D01*
X19276600Y-4679000D02*
X19316600Y-4719000D01*
X19316600Y-4679000D02*
X19276600Y-4719000D01*
X19347500Y-7346000D02*
X19387500Y-7386000D01*
X19387500Y-7346000D02*
X19347500Y-7386000D01*
X19356600Y-17149000D02*
X19396600Y-17189000D01*
X19396600Y-17149000D02*
X19356600Y-17189000D01*
X19379600Y-8852000D02*
X19419600Y-8892000D01*
X19419600Y-8852000D02*
X19379600Y-8892000D01*
X19380600Y-10775000D02*
X19420600Y-10815000D01*
X19420600Y-10775000D02*
X19380600Y-10815000D01*
X19386600Y-14630000D02*
X19426600Y-14670000D01*
X19426600Y-14630000D02*
X19386600Y-14670000D01*
X19396600Y-5024000D02*
X19436600Y-5064000D01*
X19436600Y-5024000D02*
X19396600Y-5064000D01*
X19398600Y-12698000D02*
X19438600Y-12738000D01*
X19438600Y-12698000D02*
X19398600Y-12738000D01*
X19418600Y-10188000D02*
X19458600Y-10228000D01*
X19458600Y-10188000D02*
X19418600Y-10228000D01*
X19419600Y-12111000D02*
X19459600Y-12151000D01*
X19459600Y-12111000D02*
X19419600Y-12151000D01*
X19423600Y-6373000D02*
X19463600Y-6413000D01*
X19463600Y-6373000D02*
X19423600Y-6413000D01*
X19425600Y-15966000D02*
X19465600Y-16006000D01*
X19465600Y-15966000D02*
X19425600Y-16006000D01*
X19437600Y-14034000D02*
X19477600Y-14074000D01*
X19477600Y-14034000D02*
X19437600Y-14074000D01*
X19530600Y-4679000D02*
X19570600Y-4719000D01*
X19570600Y-4679000D02*
X19530600Y-4719000D01*
X19610600Y-17149000D02*
X19650600Y-17189000D01*
X19650600Y-17149000D02*
X19610600Y-17189000D01*
X19784600Y-4679000D02*
X19824600Y-4719000D01*
X19824600Y-4679000D02*
X19784600Y-4719000D01*
X19792000Y-12898000D02*
X19832000Y-12938000D01*
X19832000Y-12898000D02*
X19792000Y-12938000D01*
X19864600Y-17149000D02*
X19904600Y-17189000D01*
X19904600Y-17149000D02*
X19864600Y-17189000D01*
X19886000Y-11139000D02*
X19926000Y-11179000D01*
X19926000Y-11139000D02*
X19886000Y-11179000D01*
X19941600Y-16462000D02*
X19981600Y-16502000D01*
X19981600Y-16462000D02*
X19941600Y-16502000D01*
X19988600Y-6627000D02*
X20028600Y-6667000D01*
X20028600Y-6627000D02*
X19988600Y-6667000D01*
X20038600Y-4679000D02*
X20078600Y-4719000D01*
X20078600Y-4679000D02*
X20038600Y-4719000D01*
X20118600Y-17149000D02*
X20158600Y-17189000D01*
X20158600Y-17149000D02*
X20118600Y-17189000D01*
X20292600Y-4679000D02*
X20332600Y-4719000D01*
X20332600Y-4679000D02*
X20292600Y-4719000D01*
X20299000Y-6539000D02*
X20339000Y-6579000D01*
X20339000Y-6539000D02*
X20299000Y-6579000D01*
X20369600Y-14377000D02*
X20409600Y-14417000D01*
X20409600Y-14377000D02*
X20369600Y-14417000D01*
X20372600Y-17149000D02*
X20412600Y-17189000D01*
X20412600Y-17149000D02*
X20372600Y-17189000D01*
X20422600Y-10527000D02*
X20462600Y-10567000D01*
X20462600Y-10527000D02*
X20422600Y-10567000D01*
X20435600Y-12446000D02*
X20475600Y-12486000D01*
X20475600Y-12446000D02*
X20435600Y-12486000D01*
X20464600Y-8573000D02*
X20504600Y-8613000D01*
X20504600Y-8573000D02*
X20464600Y-8613000D01*
X20546600Y-4679000D02*
X20586600Y-4719000D01*
X20586600Y-4679000D02*
X20546600Y-4719000D01*
X20602600Y-7544000D02*
X20642600Y-7584000D01*
X20642600Y-7544000D02*
X20602600Y-7584000D01*
X20626600Y-17149000D02*
X20666600Y-17189000D01*
X20666600Y-17149000D02*
X20626600Y-17189000D01*
X20677600Y-16068000D02*
X20717600Y-16108000D01*
X20717600Y-16068000D02*
X20677600Y-16108000D01*
X20800600Y-4679000D02*
X20840600Y-4719000D01*
X20840600Y-4679000D02*
X20800600Y-4719000D01*
X20846600Y-6534000D02*
X20886600Y-6574000D01*
X20886600Y-6534000D02*
X20846600Y-6574000D01*
X20880600Y-17149000D02*
X20920600Y-17189000D01*
X20920600Y-17149000D02*
X20880600Y-17189000D01*
X20919600Y-7900000D02*
X20959600Y-7940000D01*
X20959600Y-7900000D02*
X20919600Y-7940000D01*
X21054600Y-4679000D02*
X21094600Y-4719000D01*
X21094600Y-4679000D02*
X21054600Y-4719000D01*
X21069600Y-11434000D02*
X21109600Y-11474000D01*
X21109600Y-11434000D02*
X21069600Y-11474000D01*
X21078600Y-9490000D02*
X21118600Y-9530000D01*
X21118600Y-9490000D02*
X21078600Y-9530000D01*
X21082600Y-13353000D02*
X21122600Y-13393000D01*
X21122600Y-13353000D02*
X21082600Y-13393000D01*
X21112600Y-15284000D02*
X21152600Y-15324000D01*
X21152600Y-15284000D02*
X21112600Y-15324000D01*
X21134600Y-17149000D02*
X21174600Y-17189000D01*
X21174600Y-17149000D02*
X21134600Y-17189000D01*
X21150900Y-7346000D02*
X21190900Y-7386000D01*
X21190900Y-7346000D02*
X21150900Y-7386000D01*
X21308600Y-4679000D02*
X21348600Y-4719000D01*
X21348600Y-4679000D02*
X21308600Y-4719000D01*
X21313600Y-10424000D02*
X21353600Y-10464000D01*
X21353600Y-10424000D02*
X21313600Y-10464000D01*
X21322600Y-8480000D02*
X21362600Y-8520000D01*
X21362600Y-8480000D02*
X21322600Y-8520000D01*
X21326600Y-12343000D02*
X21366600Y-12383000D01*
X21366600Y-12343000D02*
X21326600Y-12383000D01*
X21341600Y-15987000D02*
X21381600Y-16027000D01*
X21381600Y-15987000D02*
X21341600Y-16027000D01*
X21352600Y-11760000D02*
X21392600Y-11800000D01*
X21392600Y-11760000D02*
X21352600Y-11800000D01*
X21356600Y-14274000D02*
X21396600Y-14314000D01*
X21396600Y-14274000D02*
X21356600Y-14314000D01*
X21361600Y-9816000D02*
X21401600Y-9856000D01*
X21401600Y-9816000D02*
X21361600Y-9856000D01*
X21365600Y-13679000D02*
X21405600Y-13719000D01*
X21405600Y-13679000D02*
X21365600Y-13719000D01*
X21388600Y-17149000D02*
X21428600Y-17189000D01*
X21428600Y-17149000D02*
X21388600Y-17189000D01*
X21395600Y-15610000D02*
X21435600Y-15650000D01*
X21435600Y-15610000D02*
X21395600Y-15650000D01*
X21562600Y-4679000D02*
X21602600Y-4719000D01*
X21602600Y-4679000D02*
X21562600Y-4719000D01*
X21642600Y-17149000D02*
X21682600Y-17189000D01*
X21682600Y-17149000D02*
X21642600Y-17189000D01*
X21816600Y-4679000D02*
X21856600Y-4719000D01*
X21856600Y-4679000D02*
X21816600Y-4719000D01*
X21854000Y-12869000D02*
X21894000Y-12909000D01*
X21894000Y-12869000D02*
X21854000Y-12909000D01*
X21896600Y-17149000D02*
X21936600Y-17189000D01*
X21936600Y-17149000D02*
X21896600Y-17189000D01*
X21913600Y-6310000D02*
X21953600Y-6350000D01*
X21953600Y-6310000D02*
X21913600Y-6350000D01*
X22070600Y-4679000D02*
X22110600Y-4719000D01*
X22110600Y-4679000D02*
X22070600Y-4719000D01*
X22150600Y-17149000D02*
X22190600Y-17189000D01*
X22190600Y-17149000D02*
X22150600Y-17189000D01*
X22263600Y-14017000D02*
X22303600Y-14057000D01*
X22303600Y-14017000D02*
X22263600Y-14057000D01*
X22324600Y-4679000D02*
X22364600Y-4719000D01*
X22364600Y-4679000D02*
X22324600Y-4719000D01*
X22367600Y-12104000D02*
X22407600Y-12144000D01*
X22407600Y-12104000D02*
X22367600Y-12144000D01*
X22368600Y-10159000D02*
X22408600Y-10199000D01*
X22408600Y-10159000D02*
X22368600Y-10199000D01*
X22388600Y-8226000D02*
X22428600Y-8266000D01*
X22428600Y-8226000D02*
X22388600Y-8266000D01*
X22404600Y-17149000D02*
X22444600Y-17189000D01*
X22444600Y-17149000D02*
X22404600Y-17189000D01*
X22527600Y-7227000D02*
X22567600Y-7267000D01*
X22567600Y-7227000D02*
X22527600Y-7267000D01*
X22554600Y-15965000D02*
X22594600Y-16005000D01*
X22594600Y-15965000D02*
X22554600Y-16005000D01*
X22578600Y-4679000D02*
X22618600Y-4719000D01*
X22618600Y-4679000D02*
X22578600Y-4719000D01*
X22658600Y-17149000D02*
X22698600Y-17189000D01*
X22698600Y-17149000D02*
X22658600Y-17189000D01*
X22771600Y-6217000D02*
X22811600Y-6257000D01*
X22811600Y-6217000D02*
X22771600Y-6257000D01*
X22810600Y-7553000D02*
X22850600Y-7593000D01*
X22850600Y-7553000D02*
X22810600Y-7593000D01*
X22832600Y-4679000D02*
X22872600Y-4719000D01*
X22872600Y-4679000D02*
X22832600Y-4719000D01*
X22912600Y-17149000D02*
X22952600Y-17189000D01*
X22952600Y-17149000D02*
X22912600Y-17189000D01*
X23002600Y-9143000D02*
X23042600Y-9183000D01*
X23042600Y-9143000D02*
X23002600Y-9183000D01*
X23006600Y-14924000D02*
X23046600Y-14964000D01*
X23046600Y-14924000D02*
X23006600Y-14964000D01*
X23014600Y-13011000D02*
X23054600Y-13051000D01*
X23054600Y-13011000D02*
X23014600Y-13051000D01*
X23015600Y-11066000D02*
X23055600Y-11106000D01*
X23055600Y-11066000D02*
X23015600Y-11106000D01*
X23086600Y-4679000D02*
X23126600Y-4719000D01*
X23126600Y-4679000D02*
X23086600Y-4719000D01*
X23166600Y-17149000D02*
X23206600Y-17189000D01*
X23206600Y-17149000D02*
X23166600Y-17189000D01*
X23246600Y-8133000D02*
X23286600Y-8173000D01*
X23286600Y-8133000D02*
X23246600Y-8173000D01*
X23250600Y-13914000D02*
X23290600Y-13954000D01*
X23290600Y-13914000D02*
X23250600Y-13954000D01*
X23258600Y-12001000D02*
X23298600Y-12041000D01*
X23298600Y-12001000D02*
X23258600Y-12041000D01*
X23259600Y-10056000D02*
X23299600Y-10096000D01*
X23299600Y-10056000D02*
X23259600Y-10096000D01*
X23285600Y-9469000D02*
X23325600Y-9509000D01*
X23325600Y-9469000D02*
X23285600Y-9509000D01*
X23289600Y-15250000D02*
X23329600Y-15290000D01*
X23329600Y-15250000D02*
X23289600Y-15290000D01*
X23298600Y-11392000D02*
X23338600Y-11432000D01*
X23338600Y-11392000D02*
X23298600Y-11432000D01*
X23335600Y-13332000D02*
X23375600Y-13372000D01*
X23375600Y-13332000D02*
X23335600Y-13372000D01*
X23340600Y-4679000D02*
X23380600Y-4719000D01*
X23380600Y-4679000D02*
X23340600Y-4719000D01*
X23420600Y-17149000D02*
X23460600Y-17189000D01*
X23460600Y-17149000D02*
X23420600Y-17189000D01*
X23594600Y-4679000D02*
X23634600Y-4719000D01*
X23634600Y-4679000D02*
X23594600Y-4719000D01*
X23674600Y-17149000D02*
X23714600Y-17189000D01*
X23714600Y-17149000D02*
X23674600Y-17189000D01*
X23848600Y-4679000D02*
X23888600Y-4719000D01*
X23888600Y-4679000D02*
X23848600Y-4719000D01*
X23849600Y-5936000D02*
X23889600Y-5976000D01*
X23889600Y-5936000D02*
X23849600Y-5976000D01*
X23886000Y-12636000D02*
X23926000Y-12676000D01*
X23926000Y-12636000D02*
X23886000Y-12676000D01*
X23928600Y-17149000D02*
X23968600Y-17189000D01*
X23968600Y-17149000D02*
X23928600Y-17189000D01*
X24102600Y-4679000D02*
X24142600Y-4719000D01*
X24142600Y-4679000D02*
X24102600Y-4719000D01*
X24182600Y-17149000D02*
X24222600Y-17189000D01*
X24222600Y-17149000D02*
X24182600Y-17189000D01*
X24191600Y-13636000D02*
X24231600Y-13676000D01*
X24231600Y-13636000D02*
X24191600Y-13676000D01*
X24213600Y-15576000D02*
X24253600Y-15616000D01*
X24253600Y-15576000D02*
X24213600Y-15616000D01*
X24288600Y-9796000D02*
X24328600Y-9836000D01*
X24328600Y-9796000D02*
X24288600Y-9836000D01*
X24292600Y-11736000D02*
X24332600Y-11776000D01*
X24332600Y-11736000D02*
X24292600Y-11776000D01*
X24331600Y-7885000D02*
X24371600Y-7925000D01*
X24371600Y-7885000D02*
X24331600Y-7925000D01*
X24356600Y-4679000D02*
X24396600Y-4719000D01*
X24396600Y-4679000D02*
X24356600Y-4719000D01*
X24436600Y-17149000D02*
X24476600Y-17189000D01*
X24476600Y-17149000D02*
X24436600Y-17189000D01*
X24463600Y-6853000D02*
X24503600Y-6893000D01*
X24503600Y-6853000D02*
X24463600Y-6893000D01*
X24610600Y-4679000D02*
X24650600Y-4719000D01*
X24650600Y-4679000D02*
X24610600Y-4719000D01*
X24690600Y-17149000D02*
X24730600Y-17189000D01*
X24730600Y-17149000D02*
X24690600Y-17189000D01*
X24707600Y-5843000D02*
X24747600Y-5883000D01*
X24747600Y-5843000D02*
X24707600Y-5883000D01*
X24746600Y-7179000D02*
X24786600Y-7219000D01*
X24786600Y-7179000D02*
X24746600Y-7219000D01*
X24864600Y-4679000D02*
X24904600Y-4719000D01*
X24904600Y-4679000D02*
X24864600Y-4719000D01*
X24934600Y-14543000D02*
X24974600Y-14583000D01*
X24974600Y-14543000D02*
X24934600Y-14583000D01*
X24935600Y-10703000D02*
X24975600Y-10743000D01*
X24975600Y-10703000D02*
X24935600Y-10743000D01*
X24939600Y-12643000D02*
X24979600Y-12683000D01*
X24979600Y-12643000D02*
X24939600Y-12683000D01*
X24944600Y-17149000D02*
X24984600Y-17189000D01*
X24984600Y-17149000D02*
X24944600Y-17189000D01*
X24945600Y-8802000D02*
X24985600Y-8842000D01*
X24985600Y-8802000D02*
X24945600Y-8842000D01*
X24956600Y-16483000D02*
X24996600Y-16523000D01*
X24996600Y-16483000D02*
X24956600Y-16523000D01*
X25077000Y-6307000D02*
X25117000Y-6347000D01*
X25117000Y-6307000D02*
X25077000Y-6347000D01*
X25118600Y-4679000D02*
X25158600Y-4719000D01*
X25158600Y-4679000D02*
X25118600Y-4719000D01*
X25178600Y-13533000D02*
X25218600Y-13573000D01*
X25218600Y-13533000D02*
X25178600Y-13573000D01*
X25179600Y-9693000D02*
X25219600Y-9733000D01*
X25219600Y-9693000D02*
X25179600Y-9733000D01*
X25183600Y-11633000D02*
X25223600Y-11673000D01*
X25223600Y-11633000D02*
X25183600Y-11673000D01*
X25189600Y-7792000D02*
X25229600Y-7832000D01*
X25229600Y-7792000D02*
X25189600Y-7832000D01*
X25198600Y-17149000D02*
X25238600Y-17189000D01*
X25238600Y-17149000D02*
X25198600Y-17189000D01*
X25200600Y-15473000D02*
X25240600Y-15513000D01*
X25240600Y-15473000D02*
X25200600Y-15513000D01*
X25217600Y-14869000D02*
X25257600Y-14909000D01*
X25257600Y-14869000D02*
X25217600Y-14909000D01*
X25218600Y-11029000D02*
X25258600Y-11069000D01*
X25258600Y-11029000D02*
X25218600Y-11069000D01*
X25222600Y-12969000D02*
X25262600Y-13009000D01*
X25262600Y-12969000D02*
X25222600Y-13009000D01*
X25228600Y-9128000D02*
X25268600Y-9168000D01*
X25268600Y-9128000D02*
X25228600Y-9168000D01*
X25239600Y-16809000D02*
X25279600Y-16849000D01*
X25279600Y-16809000D02*
X25239600Y-16849000D01*
X25372600Y-4679000D02*
X25412600Y-4719000D01*
X25412600Y-4679000D02*
X25372600Y-4719000D01*
X25452600Y-17149000D02*
X25492600Y-17189000D01*
X25492600Y-17149000D02*
X25452600Y-17189000D01*
X25626600Y-4679000D02*
X25666600Y-4719000D01*
X25666600Y-4679000D02*
X25626600Y-4719000D01*
X25706600Y-17149000D02*
X25746600Y-17189000D01*
X25746600Y-17149000D02*
X25706600Y-17189000D01*
X25774600Y-5583000D02*
X25814600Y-5623000D01*
X25814600Y-5583000D02*
X25774600Y-5623000D01*
X25880600Y-4679000D02*
X25920600Y-4719000D01*
X25920600Y-4679000D02*
X25880600Y-4719000D01*
X25960600Y-17149000D02*
X26000600Y-17189000D01*
X26000600Y-17149000D02*
X25960600Y-17189000D01*
X26120600Y-13611000D02*
X26160600Y-13651000D01*
X26160600Y-13611000D02*
X26120600Y-13651000D01*
X26134600Y-4679000D02*
X26174600Y-4719000D01*
X26174600Y-4679000D02*
X26134600Y-4719000D01*
X26147600Y-15545000D02*
X26187600Y-15585000D01*
X26187600Y-15545000D02*
X26147600Y-15585000D01*
X26214600Y-17149000D02*
X26254600Y-17189000D01*
X26254600Y-17149000D02*
X26214600Y-17189000D01*
X26216600Y-9453000D02*
X26256600Y-9493000D01*
X26256600Y-9453000D02*
X26216600Y-9493000D01*
X26229600Y-11385000D02*
X26269600Y-11425000D01*
X26269600Y-11385000D02*
X26229600Y-11425000D01*
X26243600Y-7502000D02*
X26283600Y-7542000D01*
X26283600Y-7502000D02*
X26243600Y-7542000D01*
X26388600Y-4679000D02*
X26428600Y-4719000D01*
X26428600Y-4679000D02*
X26388600Y-4719000D01*
X26388600Y-6500000D02*
X26428600Y-6540000D01*
X26428600Y-6500000D02*
X26388600Y-6540000D01*
X26468600Y-17149000D02*
X26508600Y-17189000D01*
X26508600Y-17149000D02*
X26468600Y-17189000D01*
X26632600Y-5490000D02*
X26672600Y-5530000D01*
X26672600Y-5490000D02*
X26632600Y-5530000D01*
X26642600Y-4679000D02*
X26682600Y-4719000D01*
X26682600Y-4679000D02*
X26642600Y-4719000D01*
X26671600Y-6826000D02*
X26711600Y-6866000D01*
X26711600Y-6826000D02*
X26671600Y-6866000D01*
X26722600Y-17149000D02*
X26762600Y-17189000D01*
X26762600Y-17149000D02*
X26722600Y-17189000D01*
X26857600Y-8419000D02*
X26897600Y-8459000D01*
X26897600Y-8419000D02*
X26857600Y-8459000D01*
X26863600Y-10360000D02*
X26903600Y-10400000D01*
X26903600Y-10360000D02*
X26863600Y-10400000D01*
X26863600Y-14518000D02*
X26903600Y-14558000D01*
X26903600Y-14518000D02*
X26863600Y-14558000D01*
X26876600Y-12292000D02*
X26916600Y-12332000D01*
X26916600Y-12292000D02*
X26876600Y-12332000D01*
X26890600Y-16452000D02*
X26930600Y-16492000D01*
X26930600Y-16452000D02*
X26890600Y-16492000D01*
X26896600Y-4679000D02*
X26936600Y-4719000D01*
X26936600Y-4679000D02*
X26896600Y-4719000D01*
X26976600Y-17149000D02*
X27016600Y-17189000D01*
X27016600Y-17149000D02*
X26976600Y-17189000D01*
X27101600Y-7409000D02*
X27141600Y-7449000D01*
X27141600Y-7409000D02*
X27101600Y-7449000D01*
X27107600Y-9350000D02*
X27147600Y-9390000D01*
X27147600Y-9350000D02*
X27107600Y-9390000D01*
X27107600Y-13508000D02*
X27147600Y-13548000D01*
X27147600Y-13508000D02*
X27107600Y-13548000D01*
X27120600Y-11282000D02*
X27160600Y-11322000D01*
X27160600Y-11282000D02*
X27120600Y-11322000D01*
X27134600Y-15442000D02*
X27174600Y-15482000D01*
X27174600Y-15442000D02*
X27134600Y-15482000D01*
X27140600Y-8745000D02*
X27180600Y-8785000D01*
X27180600Y-8745000D02*
X27140600Y-8785000D01*
X27146600Y-10686000D02*
X27186600Y-10726000D01*
X27186600Y-10686000D02*
X27146600Y-10726000D01*
X27146600Y-14844000D02*
X27186600Y-14884000D01*
X27186600Y-14844000D02*
X27146600Y-14884000D01*
X27150600Y-4679000D02*
X27190600Y-4719000D01*
X27190600Y-4679000D02*
X27150600Y-4719000D01*
X27159600Y-12618000D02*
X27199600Y-12658000D01*
X27199600Y-12618000D02*
X27159600Y-12658000D01*
X27173600Y-16778000D02*
X27213600Y-16818000D01*
X27213600Y-16778000D02*
X27173600Y-16818000D01*
X27209000Y-6328000D02*
X27249000Y-6368000D01*
X27249000Y-6328000D02*
X27209000Y-6368000D01*
X27230600Y-17149000D02*
X27270600Y-17189000D01*
X27270600Y-17149000D02*
X27230600Y-17189000D01*
X27404600Y-4679000D02*
X27444600Y-4719000D01*
X27444600Y-4679000D02*
X27404600Y-4719000D01*
X27484600Y-17149000D02*
X27524600Y-17189000D01*
X27524600Y-17149000D02*
X27484600Y-17189000D01*
X27658600Y-4679000D02*
X27698600Y-4719000D01*
X27698600Y-4679000D02*
X27658600Y-4719000D01*
X27686600Y-5486000D02*
X27726600Y-5526000D01*
X27726600Y-5486000D02*
X27686600Y-5526000D01*
X27738600Y-17149000D02*
X27778600Y-17189000D01*
X27778600Y-17149000D02*
X27738600Y-17189000D01*
X27912600Y-4679000D02*
X27952600Y-4719000D01*
X27952600Y-4679000D02*
X27912600Y-4719000D01*
X27992600Y-17149000D02*
X28032600Y-17189000D01*
X28032600Y-17149000D02*
X27992600Y-17189000D01*
X28054600Y-15580000D02*
X28094600Y-15620000D01*
X28094600Y-15580000D02*
X28054600Y-15620000D01*
X28084600Y-13642000D02*
X28124600Y-13682000D01*
X28124600Y-13642000D02*
X28084600Y-13682000D01*
X28140600Y-11508000D02*
X28180600Y-11548000D01*
X28180600Y-11508000D02*
X28140600Y-11548000D01*
X28166600Y-4679000D02*
X28206600Y-4719000D01*
X28206600Y-4679000D02*
X28166600Y-4719000D01*
X28178600Y-9330000D02*
X28218600Y-9370000D01*
X28218600Y-9330000D02*
X28178600Y-9370000D01*
X28198600Y-7417000D02*
X28238600Y-7457000D01*
X28238600Y-7417000D02*
X28198600Y-7457000D01*
X28246600Y-17149000D02*
X28286600Y-17189000D01*
X28286600Y-17149000D02*
X28246600Y-17189000D01*
X28300600Y-6403000D02*
X28340600Y-6443000D01*
X28340600Y-6403000D02*
X28300600Y-6443000D01*
X28420600Y-4679000D02*
X28460600Y-4719000D01*
X28460600Y-4679000D02*
X28420600Y-4719000D01*
X28500600Y-17149000D02*
X28540600Y-17189000D01*
X28540600Y-17149000D02*
X28500600Y-17189000D01*
X28544600Y-5393000D02*
X28584600Y-5433000D01*
X28584600Y-5393000D02*
X28544600Y-5433000D01*
X28583600Y-6729000D02*
X28623600Y-6769000D01*
X28623600Y-6729000D02*
X28583600Y-6769000D01*
X28674600Y-4679000D02*
X28714600Y-4719000D01*
X28714600Y-4679000D02*
X28674600Y-4719000D01*
X28754600Y-17149000D02*
X28794600Y-17189000D01*
X28794600Y-17149000D02*
X28754600Y-17189000D01*
X28787600Y-12415000D02*
X28827600Y-12455000D01*
X28827600Y-12415000D02*
X28787600Y-12455000D01*
X28797600Y-16487000D02*
X28837600Y-16527000D01*
X28837600Y-16487000D02*
X28797600Y-16527000D01*
X28812600Y-8334000D02*
X28852600Y-8374000D01*
X28852600Y-8334000D02*
X28812600Y-8374000D01*
X28825600Y-10237000D02*
X28865600Y-10277000D01*
X28865600Y-10237000D02*
X28825600Y-10277000D01*
X28827600Y-14549000D02*
X28867600Y-14589000D01*
X28867600Y-14549000D02*
X28827600Y-14589000D01*
X28928600Y-4679000D02*
X28968600Y-4719000D01*
X28968600Y-4679000D02*
X28928600Y-4719000D01*
X29008600Y-17149000D02*
X29048600Y-17189000D01*
X29048600Y-17149000D02*
X29008600Y-17189000D01*
X29031600Y-11405000D02*
X29071600Y-11445000D01*
X29071600Y-11405000D02*
X29031600Y-11445000D01*
X29041600Y-15477000D02*
X29081600Y-15517000D01*
X29081600Y-15477000D02*
X29041600Y-15517000D01*
X29056600Y-7324000D02*
X29096600Y-7364000D01*
X29096600Y-7324000D02*
X29056600Y-7364000D01*
X29069600Y-9227000D02*
X29109600Y-9267000D01*
X29109600Y-9227000D02*
X29069600Y-9267000D01*
X29070600Y-12741000D02*
X29110600Y-12781000D01*
X29110600Y-12741000D02*
X29070600Y-12781000D01*
X29071600Y-13539000D02*
X29111600Y-13579000D01*
X29111600Y-13539000D02*
X29071600Y-13579000D01*
X29080600Y-16813000D02*
X29120600Y-16853000D01*
X29120600Y-16813000D02*
X29080600Y-16853000D01*
X29095600Y-8660000D02*
X29135600Y-8700000D01*
X29135600Y-8660000D02*
X29095600Y-8700000D01*
X29108600Y-10563000D02*
X29148600Y-10603000D01*
X29148600Y-10563000D02*
X29108600Y-10603000D01*
X29110600Y-14875000D02*
X29150600Y-14915000D01*
X29150600Y-14875000D02*
X29110600Y-14915000D01*
X29182600Y-4679000D02*
X29222600Y-4719000D01*
X29222600Y-4679000D02*
X29182600Y-4719000D01*
X29262600Y-17149000D02*
X29302600Y-17189000D01*
X29302600Y-17149000D02*
X29262600Y-17189000D01*
X29436600Y-4679000D02*
X29476600Y-4719000D01*
X29476600Y-4679000D02*
X29436600Y-4719000D01*
X29436600Y-4933000D02*
X29476600Y-4973000D01*
X29476600Y-4933000D02*
X29436600Y-4973000D01*
X29436600Y-5187000D02*
X29476600Y-5227000D01*
X29476600Y-5187000D02*
X29436600Y-5227000D01*
X29436600Y-5441000D02*
X29476600Y-5481000D01*
X29476600Y-5441000D02*
X29436600Y-5481000D01*
X29436600Y-5695000D02*
X29476600Y-5735000D01*
X29476600Y-5695000D02*
X29436600Y-5735000D01*
X29436600Y-5949000D02*
X29476600Y-5989000D01*
X29476600Y-5949000D02*
X29436600Y-5989000D01*
X29436600Y-6203000D02*
X29476600Y-6243000D01*
X29476600Y-6203000D02*
X29436600Y-6243000D01*
X29436600Y-6457000D02*
X29476600Y-6497000D01*
X29476600Y-6457000D02*
X29436600Y-6497000D01*
X29436600Y-6711000D02*
X29476600Y-6751000D01*
X29476600Y-6711000D02*
X29436600Y-6751000D01*
X29436600Y-6965000D02*
X29476600Y-7005000D01*
X29476600Y-6965000D02*
X29436600Y-7005000D01*
X29436600Y-7219000D02*
X29476600Y-7259000D01*
X29476600Y-7219000D02*
X29436600Y-7259000D01*
X29436600Y-7473000D02*
X29476600Y-7513000D01*
X29476600Y-7473000D02*
X29436600Y-7513000D01*
X29436600Y-7727000D02*
X29476600Y-7767000D01*
X29476600Y-7727000D02*
X29436600Y-7767000D01*
X29436600Y-7981000D02*
X29476600Y-8021000D01*
X29476600Y-7981000D02*
X29436600Y-8021000D01*
X29436600Y-8235000D02*
X29476600Y-8275000D01*
X29476600Y-8235000D02*
X29436600Y-8275000D01*
X29436600Y-8489000D02*
X29476600Y-8529000D01*
X29476600Y-8489000D02*
X29436600Y-8529000D01*
X29436600Y-8743000D02*
X29476600Y-8783000D01*
X29476600Y-8743000D02*
X29436600Y-8783000D01*
X29436600Y-8997000D02*
X29476600Y-9037000D01*
X29476600Y-8997000D02*
X29436600Y-9037000D01*
X29436600Y-9251000D02*
X29476600Y-9291000D01*
X29476600Y-9251000D02*
X29436600Y-9291000D01*
X29436600Y-9505000D02*
X29476600Y-9545000D01*
X29476600Y-9505000D02*
X29436600Y-9545000D01*
X29436600Y-9759000D02*
X29476600Y-9799000D01*
X29476600Y-9759000D02*
X29436600Y-9799000D01*
X29436600Y-10013000D02*
X29476600Y-10053000D01*
X29476600Y-10013000D02*
X29436600Y-10053000D01*
X29436600Y-10267000D02*
X29476600Y-10307000D01*
X29476600Y-10267000D02*
X29436600Y-10307000D01*
X29436600Y-10521000D02*
X29476600Y-10561000D01*
X29476600Y-10521000D02*
X29436600Y-10561000D01*
X29436600Y-10775000D02*
X29476600Y-10815000D01*
X29476600Y-10775000D02*
X29436600Y-10815000D01*
X29436600Y-11029000D02*
X29476600Y-11069000D01*
X29476600Y-11029000D02*
X29436600Y-11069000D01*
X29436600Y-11283000D02*
X29476600Y-11323000D01*
X29476600Y-11283000D02*
X29436600Y-11323000D01*
X29436600Y-11537000D02*
X29476600Y-11577000D01*
X29476600Y-11537000D02*
X29436600Y-11577000D01*
X29436600Y-11791000D02*
X29476600Y-11831000D01*
X29476600Y-11791000D02*
X29436600Y-11831000D01*
X29436600Y-12045000D02*
X29476600Y-12085000D01*
X29476600Y-12045000D02*
X29436600Y-12085000D01*
X29436600Y-12299000D02*
X29476600Y-12339000D01*
X29476600Y-12299000D02*
X29436600Y-12339000D01*
X29436600Y-12553000D02*
X29476600Y-12593000D01*
X29476600Y-12553000D02*
X29436600Y-12593000D01*
X29436600Y-12807000D02*
X29476600Y-12847000D01*
X29476600Y-12807000D02*
X29436600Y-12847000D01*
X29436600Y-13061000D02*
X29476600Y-13101000D01*
X29476600Y-13061000D02*
X29436600Y-13101000D01*
X29436600Y-13315000D02*
X29476600Y-13355000D01*
X29476600Y-13315000D02*
X29436600Y-13355000D01*
X29436600Y-13569000D02*
X29476600Y-13609000D01*
X29476600Y-13569000D02*
X29436600Y-13609000D01*
X29436600Y-13823000D02*
X29476600Y-13863000D01*
X29476600Y-13823000D02*
X29436600Y-13863000D01*
X29436600Y-14077000D02*
X29476600Y-14117000D01*
X29476600Y-14077000D02*
X29436600Y-14117000D01*
X29436600Y-14331000D02*
X29476600Y-14371000D01*
X29476600Y-14331000D02*
X29436600Y-14371000D01*
X29436600Y-14585000D02*
X29476600Y-14625000D01*
X29476600Y-14585000D02*
X29436600Y-14625000D01*
X29436600Y-14839000D02*
X29476600Y-14879000D01*
X29476600Y-14839000D02*
X29436600Y-14879000D01*
X29436600Y-15093000D02*
X29476600Y-15133000D01*
X29476600Y-15093000D02*
X29436600Y-15133000D01*
X29436600Y-15347000D02*
X29476600Y-15387000D01*
X29476600Y-15347000D02*
X29436600Y-15387000D01*
X29436600Y-15601000D02*
X29476600Y-15641000D01*
X29476600Y-15601000D02*
X29436600Y-15641000D01*
X29436600Y-15855000D02*
X29476600Y-15895000D01*
X29476600Y-15855000D02*
X29436600Y-15895000D01*
X29436600Y-16109000D02*
X29476600Y-16149000D01*
X29476600Y-16109000D02*
X29436600Y-16149000D01*
X29436600Y-16363000D02*
X29476600Y-16403000D01*
X29476600Y-16363000D02*
X29436600Y-16403000D01*
X29436600Y-16617000D02*
X29476600Y-16657000D01*
X29476600Y-16617000D02*
X29436600Y-16657000D01*
X29436600Y-16871000D02*
X29476600Y-16911000D01*
X29476600Y-16871000D02*
X29436600Y-16911000D01*
X1824400Y-7585300D02*
G75*
G03*
X1824400Y-7585300I-25000J0D01*
G01*
X1764400Y-7600300D02*
X1834400Y-7600300D01*
X1764400Y-7570300D02*
X1834400Y-7570300D01*
X1834400Y-7600300D02*
G75*
G03*
X1834400Y-7570300I0J15000D01*
G01*
X1764400Y-7570300D02*
G75*
G03*
X1764400Y-7600300I0J-15000D01*
G01*
X1824400Y-9757000D02*
G75*
G03*
X1824400Y-9757000I-25000J0D01*
G01*
X1764400Y-9772000D02*
X1834400Y-9772000D01*
X1764400Y-9742000D02*
X1834400Y-9742000D01*
X1834400Y-9772000D02*
G75*
G03*
X1834400Y-9742000I0J15000D01*
G01*
X1764400Y-9742000D02*
G75*
G03*
X1764400Y-9772000I0J-15000D01*
G01*
X1824400Y-11916000D02*
G75*
G03*
X1824400Y-11916000I-25000J0D01*
G01*
X1764400Y-11931000D02*
X1834400Y-11931000D01*
X1764400Y-11901000D02*
X1834400Y-11901000D01*
X1834400Y-11931000D02*
G75*
G03*
X1834400Y-11901000I0J15000D01*
G01*
X1764400Y-11901000D02*
G75*
G03*
X1764400Y-11931000I0J-15000D01*
G01*
X2192700Y-5439000D02*
G75*
G03*
X2192700Y-5439000I-25000J0D01*
G01*
X2132700Y-5454000D02*
X2202700Y-5454000D01*
X2132700Y-5424000D02*
X2202700Y-5424000D01*
X2202700Y-5454000D02*
G75*
G03*
X2202700Y-5424000I0J15000D01*
G01*
X2132700Y-5424000D02*
G75*
G03*
X2132700Y-5454000I0J-15000D01*
G01*
X3754800Y-7471000D02*
G75*
G03*
X3754800Y-7471000I-25000J0D01*
G01*
X3694800Y-7486000D02*
X3764800Y-7486000D01*
X3694800Y-7456000D02*
X3764800Y-7456000D01*
X3764800Y-7486000D02*
G75*
G03*
X3764800Y-7456000I0J15000D01*
G01*
X3694800Y-7456000D02*
G75*
G03*
X3694800Y-7486000I0J-15000D01*
G01*
X3754800Y-9401400D02*
G75*
G03*
X3754800Y-9401400I-25000J0D01*
G01*
X3694800Y-9416400D02*
X3764800Y-9416400D01*
X3694800Y-9386400D02*
X3764800Y-9386400D01*
X3764800Y-9416400D02*
G75*
G03*
X3764800Y-9386400I0J15000D01*
G01*
X3694800Y-9386400D02*
G75*
G03*
X3694800Y-9416400I0J-15000D01*
G01*
X3754800Y-11331800D02*
G75*
G03*
X3754800Y-11331800I-25000J0D01*
G01*
X3694800Y-11346800D02*
X3764800Y-11346800D01*
X3694800Y-11316800D02*
X3764800Y-11316800D01*
X3764800Y-11346800D02*
G75*
G03*
X3764800Y-11316800I0J15000D01*
G01*
X3694800Y-11316800D02*
G75*
G03*
X3694800Y-11346800I0J-15000D01*
G01*
X3754800Y-13617800D02*
G75*
G03*
X3754800Y-13617800I-25000J0D01*
G01*
X3694800Y-13632800D02*
X3764800Y-13632800D01*
X3694800Y-13602800D02*
X3764800Y-13602800D01*
X3764800Y-13632800D02*
G75*
G03*
X3764800Y-13602800I0J15000D01*
G01*
X3694800Y-13602800D02*
G75*
G03*
X3694800Y-13632800I0J-15000D01*
G01*
X4123100Y-5540600D02*
G75*
G03*
X4123100Y-5540600I-25000J0D01*
G01*
X4063100Y-5555600D02*
X4133100Y-5555600D01*
X4063100Y-5525600D02*
X4133100Y-5525600D01*
X4133100Y-5555600D02*
G75*
G03*
X4133100Y-5525600I0J15000D01*
G01*
X4063100Y-5525600D02*
G75*
G03*
X4063100Y-5555600I0J-15000D01*
G01*
X5685200Y-7813900D02*
G75*
G03*
X5685200Y-7813900I-25000J0D01*
G01*
X5625200Y-7828900D02*
X5695200Y-7828900D01*
X5625200Y-7798900D02*
X5695200Y-7798900D01*
X5695200Y-7828900D02*
G75*
G03*
X5695200Y-7798900I0J15000D01*
G01*
X5625200Y-7798900D02*
G75*
G03*
X5625200Y-7828900I0J-15000D01*
G01*
X5685200Y-9744300D02*
G75*
G03*
X5685200Y-9744300I-25000J0D01*
G01*
X5625200Y-9759300D02*
X5695200Y-9759300D01*
X5625200Y-9729300D02*
X5695200Y-9729300D01*
X5695200Y-9759300D02*
G75*
G03*
X5695200Y-9729300I0J15000D01*
G01*
X5625200Y-9729300D02*
G75*
G03*
X5625200Y-9759300I0J-15000D01*
G01*
X5685200Y-11687400D02*
G75*
G03*
X5685200Y-11687400I-25000J0D01*
G01*
X5625200Y-11702400D02*
X5695200Y-11702400D01*
X5625200Y-11672400D02*
X5695200Y-11672400D01*
X5695200Y-11702400D02*
G75*
G03*
X5695200Y-11672400I0J15000D01*
G01*
X5625200Y-11672400D02*
G75*
G03*
X5625200Y-11702400I0J-15000D01*
G01*
X5685200Y-13617800D02*
G75*
G03*
X5685200Y-13617800I-25000J0D01*
G01*
X5625200Y-13632800D02*
X5695200Y-13632800D01*
X5625200Y-13602800D02*
X5695200Y-13602800D01*
X5695200Y-13632800D02*
G75*
G03*
X5695200Y-13602800I0J15000D01*
G01*
X5625200Y-13602800D02*
G75*
G03*
X5625200Y-13632800I0J-15000D01*
G01*
X6053500Y-5896200D02*
G75*
G03*
X6053500Y-5896200I-25000J0D01*
G01*
X5993500Y-5911200D02*
X6063500Y-5911200D01*
X5993500Y-5881200D02*
X6063500Y-5881200D01*
X6063500Y-5911200D02*
G75*
G03*
X6063500Y-5881200I0J15000D01*
G01*
X5993500Y-5881200D02*
G75*
G03*
X5993500Y-5911200I0J-15000D01*
G01*
X7615600Y-8169500D02*
G75*
G03*
X7615600Y-8169500I-25000J0D01*
G01*
X7555600Y-8184500D02*
X7625600Y-8184500D01*
X7555600Y-8154500D02*
X7625600Y-8154500D01*
X7625600Y-8184500D02*
G75*
G03*
X7625600Y-8154500I0J15000D01*
G01*
X7555600Y-8154500D02*
G75*
G03*
X7555600Y-8184500I0J-15000D01*
G01*
X7615600Y-10099900D02*
G75*
G03*
X7615600Y-10099900I-25000J0D01*
G01*
X7555600Y-10114900D02*
X7625600Y-10114900D01*
X7555600Y-10084900D02*
X7625600Y-10084900D01*
X7625600Y-10114900D02*
G75*
G03*
X7625600Y-10084900I0J15000D01*
G01*
X7555600Y-10084900D02*
G75*
G03*
X7555600Y-10114900I0J-15000D01*
G01*
X7615600Y-12043000D02*
G75*
G03*
X7615600Y-12043000I-25000J0D01*
G01*
X7555600Y-12058000D02*
X7625600Y-12058000D01*
X7555600Y-12028000D02*
X7625600Y-12028000D01*
X7625600Y-12058000D02*
G75*
G03*
X7625600Y-12028000I0J15000D01*
G01*
X7555600Y-12028000D02*
G75*
G03*
X7555600Y-12058000I0J-15000D01*
G01*
X7615600Y-13948000D02*
G75*
G03*
X7615600Y-13948000I-25000J0D01*
G01*
X7555600Y-13963000D02*
X7625600Y-13963000D01*
X7555600Y-13933000D02*
X7625600Y-13933000D01*
X7625600Y-13963000D02*
G75*
G03*
X7625600Y-13933000I0J15000D01*
G01*
X7555600Y-13933000D02*
G75*
G03*
X7555600Y-13963000I0J-15000D01*
G01*
X7983900Y-6239100D02*
G75*
G03*
X7983900Y-6239100I-25000J0D01*
G01*
X7923900Y-6254100D02*
X7993900Y-6254100D01*
X7923900Y-6224100D02*
X7993900Y-6224100D01*
X7993900Y-6254100D02*
G75*
G03*
X7993900Y-6224100I0J15000D01*
G01*
X7923900Y-6224100D02*
G75*
G03*
X7923900Y-6254100I0J-15000D01*
G01*
X9546000Y-8525100D02*
G75*
G03*
X9546000Y-8525100I-25000J0D01*
G01*
X9486000Y-8540100D02*
X9556000Y-8540100D01*
X9486000Y-8510100D02*
X9556000Y-8510100D01*
X9556000Y-8540100D02*
G75*
G03*
X9556000Y-8510100I0J15000D01*
G01*
X9486000Y-8510100D02*
G75*
G03*
X9486000Y-8540100I0J-15000D01*
G01*
X9546000Y-10480900D02*
G75*
G03*
X9546000Y-10480900I-25000J0D01*
G01*
X9486000Y-10495900D02*
X9556000Y-10495900D01*
X9486000Y-10465900D02*
X9556000Y-10465900D01*
X9556000Y-10495900D02*
G75*
G03*
X9556000Y-10465900I0J15000D01*
G01*
X9486000Y-10465900D02*
G75*
G03*
X9486000Y-10495900I0J-15000D01*
G01*
X9546000Y-12385900D02*
G75*
G03*
X9546000Y-12385900I-25000J0D01*
G01*
X9486000Y-12400900D02*
X9556000Y-12400900D01*
X9486000Y-12370900D02*
X9556000Y-12370900D01*
X9556000Y-12400900D02*
G75*
G03*
X9556000Y-12370900I0J15000D01*
G01*
X9486000Y-12370900D02*
G75*
G03*
X9486000Y-12400900I0J-15000D01*
G01*
X9546000Y-14329000D02*
G75*
G03*
X9546000Y-14329000I-25000J0D01*
G01*
X9486000Y-14344000D02*
X9556000Y-14344000D01*
X9486000Y-14314000D02*
X9556000Y-14314000D01*
X9556000Y-14344000D02*
G75*
G03*
X9556000Y-14314000I0J15000D01*
G01*
X9486000Y-14314000D02*
G75*
G03*
X9486000Y-14344000I0J-15000D01*
G01*
X9546000Y-15954600D02*
G75*
G03*
X9546000Y-15954600I-25000J0D01*
G01*
X9486000Y-15969600D02*
X9556000Y-15969600D01*
X9486000Y-15939600D02*
X9556000Y-15939600D01*
X9556000Y-15969600D02*
G75*
G03*
X9556000Y-15939600I0J15000D01*
G01*
X9486000Y-15939600D02*
G75*
G03*
X9486000Y-15969600I0J-15000D01*
G01*
X9914300Y-6594700D02*
G75*
G03*
X9914300Y-6594700I-25000J0D01*
G01*
X9854300Y-6609700D02*
X9924300Y-6609700D01*
X9854300Y-6579700D02*
X9924300Y-6579700D01*
X9924300Y-6609700D02*
G75*
G03*
X9924300Y-6579700I0J15000D01*
G01*
X9854300Y-6579700D02*
G75*
G03*
X9854300Y-6609700I0J-15000D01*
G01*
X11476400Y-8893400D02*
G75*
G03*
X11476400Y-8893400I-25000J0D01*
G01*
X11416400Y-8908400D02*
X11486400Y-8908400D01*
X11416400Y-8878400D02*
X11486400Y-8878400D01*
X11486400Y-8908400D02*
G75*
G03*
X11486400Y-8878400I0J15000D01*
G01*
X11416400Y-8878400D02*
G75*
G03*
X11416400Y-8908400I0J-15000D01*
G01*
X11476400Y-10823800D02*
G75*
G03*
X11476400Y-10823800I-25000J0D01*
G01*
X11416400Y-10838800D02*
X11486400Y-10838800D01*
X11416400Y-10808800D02*
X11486400Y-10808800D01*
X11486400Y-10838800D02*
G75*
G03*
X11486400Y-10808800I0J15000D01*
G01*
X11416400Y-10808800D02*
G75*
G03*
X11416400Y-10838800I0J-15000D01*
G01*
X11476400Y-12754200D02*
G75*
G03*
X11476400Y-12754200I-25000J0D01*
G01*
X11416400Y-12769200D02*
X11486400Y-12769200D01*
X11416400Y-12739200D02*
X11486400Y-12739200D01*
X11486400Y-12769200D02*
G75*
G03*
X11486400Y-12739200I0J15000D01*
G01*
X11416400Y-12739200D02*
G75*
G03*
X11416400Y-12769200I0J-15000D01*
G01*
X11476400Y-14684600D02*
G75*
G03*
X11476400Y-14684600I-25000J0D01*
G01*
X11416400Y-14699600D02*
X11486400Y-14699600D01*
X11416400Y-14669600D02*
X11486400Y-14669600D01*
X11486400Y-14699600D02*
G75*
G03*
X11486400Y-14669600I0J15000D01*
G01*
X11416400Y-14669600D02*
G75*
G03*
X11416400Y-14699600I0J-15000D01*
G01*
X11844700Y-6963000D02*
G75*
G03*
X11844700Y-6963000I-25000J0D01*
G01*
X11784700Y-6978000D02*
X11854700Y-6978000D01*
X11784700Y-6948000D02*
X11854700Y-6948000D01*
X11854700Y-6978000D02*
G75*
G03*
X11854700Y-6948000I0J15000D01*
G01*
X11784700Y-6948000D02*
G75*
G03*
X11784700Y-6978000I0J-15000D01*
G01*
X13406800Y-9350600D02*
G75*
G03*
X13406800Y-9350600I-25000J0D01*
G01*
X13346800Y-9365600D02*
X13416800Y-9365600D01*
X13346800Y-9335600D02*
X13416800Y-9335600D01*
X13416800Y-9365600D02*
G75*
G03*
X13416800Y-9335600I0J15000D01*
G01*
X13346800Y-9335600D02*
G75*
G03*
X13346800Y-9365600I0J-15000D01*
G01*
X13406800Y-11281000D02*
G75*
G03*
X13406800Y-11281000I-25000J0D01*
G01*
X13346800Y-11296000D02*
X13416800Y-11296000D01*
X13346800Y-11266000D02*
X13416800Y-11266000D01*
X13416800Y-11296000D02*
G75*
G03*
X13416800Y-11266000I0J15000D01*
G01*
X13346800Y-11266000D02*
G75*
G03*
X13346800Y-11296000I0J-15000D01*
G01*
X13406800Y-13211400D02*
G75*
G03*
X13406800Y-13211400I-25000J0D01*
G01*
X13346800Y-13226400D02*
X13416800Y-13226400D01*
X13346800Y-13196400D02*
X13416800Y-13196400D01*
X13416800Y-13226400D02*
G75*
G03*
X13416800Y-13196400I0J15000D01*
G01*
X13346800Y-13196400D02*
G75*
G03*
X13346800Y-13226400I0J-15000D01*
G01*
X13406800Y-15141800D02*
G75*
G03*
X13406800Y-15141800I-25000J0D01*
G01*
X13346800Y-15156800D02*
X13416800Y-15156800D01*
X13346800Y-15126800D02*
X13416800Y-15126800D01*
X13416800Y-15156800D02*
G75*
G03*
X13416800Y-15126800I0J15000D01*
G01*
X13346800Y-15126800D02*
G75*
G03*
X13346800Y-15156800I0J-15000D01*
G01*
X13775100Y-7407500D02*
G75*
G03*
X13775100Y-7407500I-25000J0D01*
G01*
X13715100Y-7422500D02*
X13785100Y-7422500D01*
X13715100Y-7392500D02*
X13785100Y-7392500D01*
X13785100Y-7422500D02*
G75*
G03*
X13785100Y-7392500I0J15000D01*
G01*
X13715100Y-7392500D02*
G75*
G03*
X13715100Y-7422500I0J-15000D01*
G01*
X15337200Y-9515700D02*
G75*
G03*
X15337200Y-9515700I-25000J0D01*
G01*
X15277200Y-9530700D02*
X15347200Y-9530700D01*
X15277200Y-9500700D02*
X15347200Y-9500700D01*
X15347200Y-9530700D02*
G75*
G03*
X15347200Y-9500700I0J15000D01*
G01*
X15277200Y-9500700D02*
G75*
G03*
X15277200Y-9530700I0J-15000D01*
G01*
X15337200Y-11458800D02*
G75*
G03*
X15337200Y-11458800I-25000J0D01*
G01*
X15277200Y-11473800D02*
X15347200Y-11473800D01*
X15277200Y-11443800D02*
X15347200Y-11443800D01*
X15347200Y-11473800D02*
G75*
G03*
X15347200Y-11443800I0J15000D01*
G01*
X15277200Y-11443800D02*
G75*
G03*
X15277200Y-11473800I0J-15000D01*
G01*
X15337200Y-13389200D02*
G75*
G03*
X15337200Y-13389200I-25000J0D01*
G01*
X15277200Y-13404200D02*
X15347200Y-13404200D01*
X15277200Y-13374200D02*
X15347200Y-13374200D01*
X15347200Y-13404200D02*
G75*
G03*
X15347200Y-13374200I0J15000D01*
G01*
X15277200Y-13374200D02*
G75*
G03*
X15277200Y-13404200I0J-15000D01*
G01*
X15337200Y-15319600D02*
G75*
G03*
X15337200Y-15319600I-25000J0D01*
G01*
X15277200Y-15334600D02*
X15347200Y-15334600D01*
X15277200Y-15304600D02*
X15347200Y-15304600D01*
X15347200Y-15334600D02*
G75*
G03*
X15347200Y-15304600I0J15000D01*
G01*
X15277200Y-15304600D02*
G75*
G03*
X15277200Y-15334600I0J-15000D01*
G01*
X16785000Y-7420200D02*
G75*
G03*
X16785000Y-7420200I-25000J0D01*
G01*
X16725000Y-7435200D02*
X16795000Y-7435200D01*
X16725000Y-7405200D02*
X16795000Y-7405200D01*
X16795000Y-7435200D02*
G75*
G03*
X16795000Y-7405200I0J15000D01*
G01*
X16725000Y-7405200D02*
G75*
G03*
X16725000Y-7435200I0J-15000D01*
G01*
X17267600Y-9350600D02*
G75*
G03*
X17267600Y-9350600I-25000J0D01*
G01*
X17207600Y-9365600D02*
X17277600Y-9365600D01*
X17207600Y-9335600D02*
X17277600Y-9335600D01*
X17277600Y-9365600D02*
G75*
G03*
X17277600Y-9335600I0J15000D01*
G01*
X17207600Y-9335600D02*
G75*
G03*
X17207600Y-9365600I0J-15000D01*
G01*
X17267600Y-11281000D02*
G75*
G03*
X17267600Y-11281000I-25000J0D01*
G01*
X17207600Y-11296000D02*
X17277600Y-11296000D01*
X17207600Y-11266000D02*
X17277600Y-11266000D01*
X17277600Y-11296000D02*
G75*
G03*
X17277600Y-11266000I0J15000D01*
G01*
X17207600Y-11266000D02*
G75*
G03*
X17207600Y-11296000I0J-15000D01*
G01*
X17267600Y-13211400D02*
G75*
G03*
X17267600Y-13211400I-25000J0D01*
G01*
X17207600Y-13226400D02*
X17277600Y-13226400D01*
X17207600Y-13196400D02*
X17277600Y-13196400D01*
X17277600Y-13226400D02*
G75*
G03*
X17277600Y-13196400I0J15000D01*
G01*
X17207600Y-13196400D02*
G75*
G03*
X17207600Y-13226400I0J-15000D01*
G01*
X17267600Y-15141800D02*
G75*
G03*
X17267600Y-15141800I-25000J0D01*
G01*
X17207600Y-15156800D02*
X17277600Y-15156800D01*
X17207600Y-15126800D02*
X17277600Y-15126800D01*
X17277600Y-15156800D02*
G75*
G03*
X17277600Y-15126800I0J15000D01*
G01*
X17207600Y-15126800D02*
G75*
G03*
X17207600Y-15156800I0J-15000D01*
G01*
X18715400Y-6963000D02*
G75*
G03*
X18715400Y-6963000I-25000J0D01*
G01*
X18655400Y-6978000D02*
X18725400Y-6978000D01*
X18655400Y-6948000D02*
X18725400Y-6948000D01*
X18725400Y-6978000D02*
G75*
G03*
X18725400Y-6948000I0J15000D01*
G01*
X18655400Y-6948000D02*
G75*
G03*
X18655400Y-6978000I0J-15000D01*
G01*
X19198000Y-8893400D02*
G75*
G03*
X19198000Y-8893400I-25000J0D01*
G01*
X19138000Y-8908400D02*
X19208000Y-8908400D01*
X19138000Y-8878400D02*
X19208000Y-8878400D01*
X19208000Y-8908400D02*
G75*
G03*
X19208000Y-8878400I0J15000D01*
G01*
X19138000Y-8878400D02*
G75*
G03*
X19138000Y-8908400I0J-15000D01*
G01*
X19198000Y-10823800D02*
G75*
G03*
X19198000Y-10823800I-25000J0D01*
G01*
X19138000Y-10838800D02*
X19208000Y-10838800D01*
X19138000Y-10808800D02*
X19208000Y-10808800D01*
X19208000Y-10838800D02*
G75*
G03*
X19208000Y-10808800I0J15000D01*
G01*
X19138000Y-10808800D02*
G75*
G03*
X19138000Y-10838800I0J-15000D01*
G01*
X19198000Y-12754200D02*
G75*
G03*
X19198000Y-12754200I-25000J0D01*
G01*
X19138000Y-12769200D02*
X19208000Y-12769200D01*
X19138000Y-12739200D02*
X19208000Y-12739200D01*
X19208000Y-12769200D02*
G75*
G03*
X19208000Y-12739200I0J15000D01*
G01*
X19138000Y-12739200D02*
G75*
G03*
X19138000Y-12769200I0J-15000D01*
G01*
X19198000Y-14684600D02*
G75*
G03*
X19198000Y-14684600I-25000J0D01*
G01*
X19138000Y-14699600D02*
X19208000Y-14699600D01*
X19138000Y-14669600D02*
X19208000Y-14669600D01*
X19208000Y-14699600D02*
G75*
G03*
X19208000Y-14669600I0J15000D01*
G01*
X19138000Y-14669600D02*
G75*
G03*
X19138000Y-14699600I0J-15000D01*
G01*
X20645800Y-6582000D02*
G75*
G03*
X20645800Y-6582000I-25000J0D01*
G01*
X20585800Y-6597000D02*
X20655800Y-6597000D01*
X20585800Y-6567000D02*
X20655800Y-6567000D01*
X20655800Y-6597000D02*
G75*
G03*
X20655800Y-6567000I0J15000D01*
G01*
X20585800Y-6567000D02*
G75*
G03*
X20585800Y-6597000I0J-15000D01*
G01*
X21128400Y-8537800D02*
G75*
G03*
X21128400Y-8537800I-25000J0D01*
G01*
X21068400Y-8552800D02*
X21138400Y-8552800D01*
X21068400Y-8522800D02*
X21138400Y-8522800D01*
X21138400Y-8552800D02*
G75*
G03*
X21138400Y-8522800I0J15000D01*
G01*
X21068400Y-8522800D02*
G75*
G03*
X21068400Y-8552800I0J-15000D01*
G01*
X21128400Y-10468200D02*
G75*
G03*
X21128400Y-10468200I-25000J0D01*
G01*
X21068400Y-10483200D02*
X21138400Y-10483200D01*
X21068400Y-10453200D02*
X21138400Y-10453200D01*
X21138400Y-10483200D02*
G75*
G03*
X21138400Y-10453200I0J15000D01*
G01*
X21068400Y-10453200D02*
G75*
G03*
X21068400Y-10483200I0J-15000D01*
G01*
X21128400Y-12398600D02*
G75*
G03*
X21128400Y-12398600I-25000J0D01*
G01*
X21068400Y-12413600D02*
X21138400Y-12413600D01*
X21068400Y-12383600D02*
X21138400Y-12383600D01*
X21138400Y-12413600D02*
G75*
G03*
X21138400Y-12383600I0J15000D01*
G01*
X21068400Y-12383600D02*
G75*
G03*
X21068400Y-12413600I0J-15000D01*
G01*
X21153800Y-14329000D02*
G75*
G03*
X21153800Y-14329000I-25000J0D01*
G01*
X21093800Y-14344000D02*
X21163800Y-14344000D01*
X21093800Y-14314000D02*
X21163800Y-14314000D01*
X21163800Y-14344000D02*
G75*
G03*
X21163800Y-14314000I0J15000D01*
G01*
X21093800Y-14314000D02*
G75*
G03*
X21093800Y-14344000I0J-15000D01*
G01*
X21153800Y-15954600D02*
G75*
G03*
X21153800Y-15954600I-25000J0D01*
G01*
X21093800Y-15969600D02*
X21163800Y-15969600D01*
X21093800Y-15939600D02*
X21163800Y-15939600D01*
X21163800Y-15969600D02*
G75*
G03*
X21163800Y-15939600I0J15000D01*
G01*
X21093800Y-15939600D02*
G75*
G03*
X21093800Y-15969600I0J-15000D01*
G01*
X22576200Y-6251800D02*
G75*
G03*
X22576200Y-6251800I-25000J0D01*
G01*
X22516200Y-6266800D02*
X22586200Y-6266800D01*
X22516200Y-6236800D02*
X22586200Y-6236800D01*
X22586200Y-6266800D02*
G75*
G03*
X22586200Y-6236800I0J15000D01*
G01*
X22516200Y-6236800D02*
G75*
G03*
X22516200Y-6266800I0J-15000D01*
G01*
X23058800Y-8182200D02*
G75*
G03*
X23058800Y-8182200I-25000J0D01*
G01*
X22998800Y-8197200D02*
X23068800Y-8197200D01*
X22998800Y-8167200D02*
X23068800Y-8167200D01*
X23068800Y-8197200D02*
G75*
G03*
X23068800Y-8167200I0J15000D01*
G01*
X22998800Y-8167200D02*
G75*
G03*
X22998800Y-8197200I0J-15000D01*
G01*
X23058800Y-10112600D02*
G75*
G03*
X23058800Y-10112600I-25000J0D01*
G01*
X22998800Y-10127600D02*
X23068800Y-10127600D01*
X22998800Y-10097600D02*
X23068800Y-10097600D01*
X23068800Y-10127600D02*
G75*
G03*
X23068800Y-10097600I0J15000D01*
G01*
X22998800Y-10097600D02*
G75*
G03*
X22998800Y-10127600I0J-15000D01*
G01*
X23058800Y-12043000D02*
G75*
G03*
X23058800Y-12043000I-25000J0D01*
G01*
X22998800Y-12058000D02*
X23068800Y-12058000D01*
X22998800Y-12028000D02*
X23068800Y-12028000D01*
X23068800Y-12058000D02*
G75*
G03*
X23068800Y-12028000I0J15000D01*
G01*
X22998800Y-12028000D02*
G75*
G03*
X22998800Y-12058000I0J-15000D01*
G01*
X23058800Y-13973400D02*
G75*
G03*
X23058800Y-13973400I-25000J0D01*
G01*
X22998800Y-13988400D02*
X23068800Y-13988400D01*
X22998800Y-13958400D02*
X23068800Y-13958400D01*
X23068800Y-13988400D02*
G75*
G03*
X23068800Y-13958400I0J15000D01*
G01*
X22998800Y-13958400D02*
G75*
G03*
X22998800Y-13988400I0J-15000D01*
G01*
X24506600Y-5896200D02*
G75*
G03*
X24506600Y-5896200I-25000J0D01*
G01*
X24446600Y-5911200D02*
X24516600Y-5911200D01*
X24446600Y-5881200D02*
X24516600Y-5881200D01*
X24516600Y-5911200D02*
G75*
G03*
X24516600Y-5881200I0J15000D01*
G01*
X24446600Y-5881200D02*
G75*
G03*
X24446600Y-5911200I0J-15000D01*
G01*
X24989200Y-7826600D02*
G75*
G03*
X24989200Y-7826600I-25000J0D01*
G01*
X24929200Y-7841600D02*
X24999200Y-7841600D01*
X24929200Y-7811600D02*
X24999200Y-7811600D01*
X24999200Y-7841600D02*
G75*
G03*
X24999200Y-7811600I0J15000D01*
G01*
X24929200Y-7811600D02*
G75*
G03*
X24929200Y-7841600I0J-15000D01*
G01*
X24989200Y-9757000D02*
G75*
G03*
X24989200Y-9757000I-25000J0D01*
G01*
X24929200Y-9772000D02*
X24999200Y-9772000D01*
X24929200Y-9742000D02*
X24999200Y-9742000D01*
X24999200Y-9772000D02*
G75*
G03*
X24999200Y-9742000I0J15000D01*
G01*
X24929200Y-9742000D02*
G75*
G03*
X24929200Y-9772000I0J-15000D01*
G01*
X24989200Y-11687400D02*
G75*
G03*
X24989200Y-11687400I-25000J0D01*
G01*
X24929200Y-11702400D02*
X24999200Y-11702400D01*
X24929200Y-11672400D02*
X24999200Y-11672400D01*
X24999200Y-11702400D02*
G75*
G03*
X24999200Y-11672400I0J15000D01*
G01*
X24929200Y-11672400D02*
G75*
G03*
X24929200Y-11702400I0J-15000D01*
G01*
X24989200Y-13592400D02*
G75*
G03*
X24989200Y-13592400I-25000J0D01*
G01*
X24929200Y-13607400D02*
X24999200Y-13607400D01*
X24929200Y-13577400D02*
X24999200Y-13577400D01*
X24999200Y-13607400D02*
G75*
G03*
X24999200Y-13577400I0J15000D01*
G01*
X24929200Y-13577400D02*
G75*
G03*
X24929200Y-13607400I0J-15000D01*
G01*
X24989200Y-15548200D02*
G75*
G03*
X24989200Y-15548200I-25000J0D01*
G01*
X24929200Y-15563200D02*
X24999200Y-15563200D01*
X24929200Y-15533200D02*
X24999200Y-15533200D01*
X24999200Y-15563200D02*
G75*
G03*
X24999200Y-15533200I0J15000D01*
G01*
X24929200Y-15533200D02*
G75*
G03*
X24929200Y-15563200I0J-15000D01*
G01*
X26437000Y-5540600D02*
G75*
G03*
X26437000Y-5540600I-25000J0D01*
G01*
X26377000Y-5555600D02*
X26447000Y-5555600D01*
X26377000Y-5525600D02*
X26447000Y-5525600D01*
X26447000Y-5555600D02*
G75*
G03*
X26447000Y-5525600I0J15000D01*
G01*
X26377000Y-5525600D02*
G75*
G03*
X26377000Y-5555600I0J-15000D01*
G01*
X26919600Y-7471000D02*
G75*
G03*
X26919600Y-7471000I-25000J0D01*
G01*
X26859600Y-7486000D02*
X26929600Y-7486000D01*
X26859600Y-7456000D02*
X26929600Y-7456000D01*
X26929600Y-7486000D02*
G75*
G03*
X26929600Y-7456000I0J15000D01*
G01*
X26859600Y-7456000D02*
G75*
G03*
X26859600Y-7486000I0J-15000D01*
G01*
X26919600Y-9401400D02*
G75*
G03*
X26919600Y-9401400I-25000J0D01*
G01*
X26859600Y-9416400D02*
X26929600Y-9416400D01*
X26859600Y-9386400D02*
X26929600Y-9386400D01*
X26929600Y-9416400D02*
G75*
G03*
X26929600Y-9386400I0J15000D01*
G01*
X26859600Y-9386400D02*
G75*
G03*
X26859600Y-9416400I0J-15000D01*
G01*
X26919600Y-11331800D02*
G75*
G03*
X26919600Y-11331800I-25000J0D01*
G01*
X26859600Y-11346800D02*
X26929600Y-11346800D01*
X26859600Y-11316800D02*
X26929600Y-11316800D01*
X26929600Y-11346800D02*
G75*
G03*
X26929600Y-11316800I0J15000D01*
G01*
X26859600Y-11316800D02*
G75*
G03*
X26859600Y-11346800I0J-15000D01*
G01*
X26919600Y-13567000D02*
G75*
G03*
X26919600Y-13567000I-25000J0D01*
G01*
X26859600Y-13582000D02*
X26929600Y-13582000D01*
X26859600Y-13552000D02*
X26929600Y-13552000D01*
X26929600Y-13582000D02*
G75*
G03*
X26929600Y-13552000I0J15000D01*
G01*
X26859600Y-13552000D02*
G75*
G03*
X26859600Y-13582000I0J-15000D01*
G01*
X26919600Y-15522800D02*
G75*
G03*
X26919600Y-15522800I-25000J0D01*
G01*
X26859600Y-15537800D02*
X26929600Y-15537800D01*
X26859600Y-15507800D02*
X26929600Y-15507800D01*
X26929600Y-15537800D02*
G75*
G03*
X26929600Y-15507800I0J15000D01*
G01*
X26859600Y-15507800D02*
G75*
G03*
X26859600Y-15537800I0J-15000D01*
G01*
X28367400Y-5439000D02*
G75*
G03*
X28367400Y-5439000I-25000J0D01*
G01*
X28307400Y-5454000D02*
X28377400Y-5454000D01*
X28307400Y-5424000D02*
X28377400Y-5424000D01*
X28377400Y-5454000D02*
G75*
G03*
X28377400Y-5424000I0J15000D01*
G01*
X28307400Y-5424000D02*
G75*
G03*
X28307400Y-5454000I0J-15000D01*
G01*
X28850000Y-7369400D02*
G75*
G03*
X28850000Y-7369400I-25000J0D01*
G01*
X28790000Y-7384400D02*
X28860000Y-7384400D01*
X28790000Y-7354400D02*
X28860000Y-7354400D01*
X28860000Y-7384400D02*
G75*
G03*
X28860000Y-7354400I0J15000D01*
G01*
X28790000Y-7354400D02*
G75*
G03*
X28790000Y-7384400I0J-15000D01*
G01*
X28850000Y-9274400D02*
G75*
G03*
X28850000Y-9274400I-25000J0D01*
G01*
X28790000Y-9289400D02*
X28860000Y-9289400D01*
X28790000Y-9259400D02*
X28860000Y-9259400D01*
X28860000Y-9289400D02*
G75*
G03*
X28860000Y-9259400I0J15000D01*
G01*
X28790000Y-9259400D02*
G75*
G03*
X28790000Y-9289400I0J-15000D01*
G01*
X28850000Y-11458800D02*
G75*
G03*
X28850000Y-11458800I-25000J0D01*
G01*
X28790000Y-11473800D02*
X28860000Y-11473800D01*
X28790000Y-11443800D02*
X28860000Y-11443800D01*
X28860000Y-11473800D02*
G75*
G03*
X28860000Y-11443800I0J15000D01*
G01*
X28790000Y-11443800D02*
G75*
G03*
X28790000Y-11473800I0J-15000D01*
G01*
X28850000Y-13592400D02*
G75*
G03*
X28850000Y-13592400I-25000J0D01*
G01*
X28790000Y-13607400D02*
X28860000Y-13607400D01*
X28790000Y-13577400D02*
X28860000Y-13577400D01*
X28860000Y-13607400D02*
G75*
G03*
X28860000Y-13577400I0J15000D01*
G01*
X28790000Y-13577400D02*
G75*
G03*
X28790000Y-13607400I0J-15000D01*
G01*
X28850000Y-15548200D02*
G75*
G03*
X28850000Y-15548200I-25000J0D01*
G01*
X28790000Y-15563200D02*
X28860000Y-15563200D01*
X28790000Y-15533200D02*
X28860000Y-15533200D01*
X28860000Y-15563200D02*
G75*
G03*
X28860000Y-15533200I0J15000D01*
G01*
X28790000Y-15533200D02*
G75*
G03*
X28790000Y-15563200I0J-15000D01*
G01*
X14636000Y-4697650D02*
X14636000Y-4757650D01*
X14606000Y-4727650D02*
X14666000Y-4727650D01*
X14656000Y-4762650D02*
X14656000Y-4692650D01*
X14616000Y-4762650D02*
X14616000Y-4692650D01*
X14656000Y-4692650D02*
G75*
G03*
X14616000Y-4692650I-20000J0D01*
G01*
X14616000Y-4762650D02*
G75*
G03*
X14656000Y-4762650I20000J0D01*
G01*
X15336000Y-4697650D02*
X15336000Y-4757650D01*
X15306000Y-4727650D02*
X15366000Y-4727650D01*
X15316000Y-4692650D02*
X15316000Y-4762650D01*
X15356000Y-4692650D02*
X15356000Y-4762650D01*
X15316000Y-4762650D02*
G75*
G03*
X15356000Y-4762650I20000J0D01*
G01*
X15356000Y-4692650D02*
G75*
G03*
X15316000Y-4692650I-20000J0D01*
G01*
X1199149Y-7887049D02*
X1199149Y-7837551D01*
X1149651Y-7837551D01*
X1149651Y-7887049D01*
X1199149Y-7887049D01*
X1149400Y-7887300D02*
X1199400Y-7887300D01*
X1149400Y-7837300D02*
X1199400Y-7837300D01*
X1199400Y-7887300D02*
G75*
G03*
X1199400Y-7837300I0J25000D01*
G01*
X1149400Y-7837300D02*
G75*
G03*
X1149400Y-7887300I0J-25000D01*
G01*
X1199149Y-10058749D02*
X1199149Y-10009251D01*
X1149651Y-10009251D01*
X1149651Y-10058749D01*
X1199149Y-10058749D01*
X1149400Y-10059000D02*
X1199400Y-10059000D01*
X1149400Y-10009000D02*
X1199400Y-10009000D01*
X1199400Y-10059000D02*
G75*
G03*
X1199400Y-10009000I0J25000D01*
G01*
X1149400Y-10009000D02*
G75*
G03*
X1149400Y-10059000I0J-25000D01*
G01*
X1199149Y-12217749D02*
X1199149Y-12168251D01*
X1149651Y-12168251D01*
X1149651Y-12217749D01*
X1199149Y-12217749D01*
X1149400Y-12218000D02*
X1199400Y-12218000D01*
X1149400Y-12168000D02*
X1199400Y-12168000D01*
X1199400Y-12218000D02*
G75*
G03*
X1199400Y-12168000I0J25000D01*
G01*
X1149400Y-12168000D02*
G75*
G03*
X1149400Y-12218000I0J-25000D01*
G01*
X1567449Y-5740749D02*
X1567449Y-5691251D01*
X1517951Y-5691251D01*
X1517951Y-5740749D01*
X1567449Y-5740749D01*
X1517700Y-5741000D02*
X1567700Y-5741000D01*
X1517700Y-5691000D02*
X1567700Y-5691000D01*
X1567700Y-5741000D02*
G75*
G03*
X1567700Y-5691000I0J25000D01*
G01*
X1517700Y-5691000D02*
G75*
G03*
X1517700Y-5741000I0J-25000D01*
G01*
X3129549Y-7772749D02*
X3129549Y-7723251D01*
X3080051Y-7723251D01*
X3080051Y-7772749D01*
X3129549Y-7772749D01*
X3079800Y-7773000D02*
X3129800Y-7773000D01*
X3079800Y-7723000D02*
X3129800Y-7723000D01*
X3129800Y-7773000D02*
G75*
G03*
X3129800Y-7723000I0J25000D01*
G01*
X3079800Y-7723000D02*
G75*
G03*
X3079800Y-7773000I0J-25000D01*
G01*
X3129549Y-9703149D02*
X3129549Y-9653651D01*
X3080051Y-9653651D01*
X3080051Y-9703149D01*
X3129549Y-9703149D01*
X3079800Y-9703400D02*
X3129800Y-9703400D01*
X3079800Y-9653400D02*
X3129800Y-9653400D01*
X3129800Y-9703400D02*
G75*
G03*
X3129800Y-9653400I0J25000D01*
G01*
X3079800Y-9653400D02*
G75*
G03*
X3079800Y-9703400I0J-25000D01*
G01*
X3129549Y-11633549D02*
X3129549Y-11584051D01*
X3080051Y-11584051D01*
X3080051Y-11633549D01*
X3129549Y-11633549D01*
X3079800Y-11633800D02*
X3129800Y-11633800D01*
X3079800Y-11583800D02*
X3129800Y-11583800D01*
X3129800Y-11633800D02*
G75*
G03*
X3129800Y-11583800I0J25000D01*
G01*
X3079800Y-11583800D02*
G75*
G03*
X3079800Y-11633800I0J-25000D01*
G01*
X3129549Y-13919549D02*
X3129549Y-13870051D01*
X3080051Y-13870051D01*
X3080051Y-13919549D01*
X3129549Y-13919549D01*
X3079800Y-13919800D02*
X3129800Y-13919800D01*
X3079800Y-13869800D02*
X3129800Y-13869800D01*
X3129800Y-13919800D02*
G75*
G03*
X3129800Y-13869800I0J25000D01*
G01*
X3079800Y-13869800D02*
G75*
G03*
X3079800Y-13919800I0J-25000D01*
G01*
X3497849Y-5842349D02*
X3497849Y-5792851D01*
X3448351Y-5792851D01*
X3448351Y-5842349D01*
X3497849Y-5842349D01*
X3448100Y-5842600D02*
X3498100Y-5842600D01*
X3448100Y-5792600D02*
X3498100Y-5792600D01*
X3498100Y-5842600D02*
G75*
G03*
X3498100Y-5792600I0J25000D01*
G01*
X3448100Y-5792600D02*
G75*
G03*
X3448100Y-5842600I0J-25000D01*
G01*
X5059949Y-8115649D02*
X5059949Y-8066151D01*
X5010451Y-8066151D01*
X5010451Y-8115649D01*
X5059949Y-8115649D01*
X5010200Y-8115900D02*
X5060200Y-8115900D01*
X5010200Y-8065900D02*
X5060200Y-8065900D01*
X5060200Y-8115900D02*
G75*
G03*
X5060200Y-8065900I0J25000D01*
G01*
X5010200Y-8065900D02*
G75*
G03*
X5010200Y-8115900I0J-25000D01*
G01*
X5059949Y-10046049D02*
X5059949Y-9996551D01*
X5010451Y-9996551D01*
X5010451Y-10046049D01*
X5059949Y-10046049D01*
X5010200Y-10046300D02*
X5060200Y-10046300D01*
X5010200Y-9996300D02*
X5060200Y-9996300D01*
X5060200Y-10046300D02*
G75*
G03*
X5060200Y-9996300I0J25000D01*
G01*
X5010200Y-9996300D02*
G75*
G03*
X5010200Y-10046300I0J-25000D01*
G01*
X5059949Y-11989149D02*
X5059949Y-11939651D01*
X5010451Y-11939651D01*
X5010451Y-11989149D01*
X5059949Y-11989149D01*
X5010200Y-11989400D02*
X5060200Y-11989400D01*
X5010200Y-11939400D02*
X5060200Y-11939400D01*
X5060200Y-11989400D02*
G75*
G03*
X5060200Y-11939400I0J25000D01*
G01*
X5010200Y-11939400D02*
G75*
G03*
X5010200Y-11989400I0J-25000D01*
G01*
X5059949Y-13919549D02*
X5059949Y-13870051D01*
X5010451Y-13870051D01*
X5010451Y-13919549D01*
X5059949Y-13919549D01*
X5010200Y-13919800D02*
X5060200Y-13919800D01*
X5010200Y-13869800D02*
X5060200Y-13869800D01*
X5060200Y-13919800D02*
G75*
G03*
X5060200Y-13869800I0J25000D01*
G01*
X5010200Y-13869800D02*
G75*
G03*
X5010200Y-13919800I0J-25000D01*
G01*
X5428249Y-6197949D02*
X5428249Y-6148451D01*
X5378751Y-6148451D01*
X5378751Y-6197949D01*
X5428249Y-6197949D01*
X5378500Y-6198200D02*
X5428500Y-6198200D01*
X5378500Y-6148200D02*
X5428500Y-6148200D01*
X5428500Y-6198200D02*
G75*
G03*
X5428500Y-6148200I0J25000D01*
G01*
X5378500Y-6148200D02*
G75*
G03*
X5378500Y-6198200I0J-25000D01*
G01*
X6990349Y-8471249D02*
X6990349Y-8421751D01*
X6940851Y-8421751D01*
X6940851Y-8471249D01*
X6990349Y-8471249D01*
X6940600Y-8471500D02*
X6990600Y-8471500D01*
X6940600Y-8421500D02*
X6990600Y-8421500D01*
X6990600Y-8471500D02*
G75*
G03*
X6990600Y-8421500I0J25000D01*
G01*
X6940600Y-8421500D02*
G75*
G03*
X6940600Y-8471500I0J-25000D01*
G01*
X6990349Y-10401649D02*
X6990349Y-10352151D01*
X6940851Y-10352151D01*
X6940851Y-10401649D01*
X6990349Y-10401649D01*
X6940600Y-10401900D02*
X6990600Y-10401900D01*
X6940600Y-10351900D02*
X6990600Y-10351900D01*
X6990600Y-10401900D02*
G75*
G03*
X6990600Y-10351900I0J25000D01*
G01*
X6940600Y-10351900D02*
G75*
G03*
X6940600Y-10401900I0J-25000D01*
G01*
X6990349Y-12344749D02*
X6990349Y-12295251D01*
X6940851Y-12295251D01*
X6940851Y-12344749D01*
X6990349Y-12344749D01*
X6940600Y-12345000D02*
X6990600Y-12345000D01*
X6940600Y-12295000D02*
X6990600Y-12295000D01*
X6990600Y-12345000D02*
G75*
G03*
X6990600Y-12295000I0J25000D01*
G01*
X6940600Y-12295000D02*
G75*
G03*
X6940600Y-12345000I0J-25000D01*
G01*
X6990349Y-14249749D02*
X6990349Y-14200251D01*
X6940851Y-14200251D01*
X6940851Y-14249749D01*
X6990349Y-14249749D01*
X6940600Y-14250000D02*
X6990600Y-14250000D01*
X6940600Y-14200000D02*
X6990600Y-14200000D01*
X6990600Y-14250000D02*
G75*
G03*
X6990600Y-14200000I0J25000D01*
G01*
X6940600Y-14200000D02*
G75*
G03*
X6940600Y-14250000I0J-25000D01*
G01*
X7358649Y-6540849D02*
X7358649Y-6491351D01*
X7309151Y-6491351D01*
X7309151Y-6540849D01*
X7358649Y-6540849D01*
X7308900Y-6541100D02*
X7358900Y-6541100D01*
X7308900Y-6491100D02*
X7358900Y-6491100D01*
X7358900Y-6541100D02*
G75*
G03*
X7358900Y-6491100I0J25000D01*
G01*
X7308900Y-6491100D02*
G75*
G03*
X7308900Y-6541100I0J-25000D01*
G01*
X8920749Y-8826849D02*
X8920749Y-8777351D01*
X8871251Y-8777351D01*
X8871251Y-8826849D01*
X8920749Y-8826849D01*
X8871000Y-8827100D02*
X8921000Y-8827100D01*
X8871000Y-8777100D02*
X8921000Y-8777100D01*
X8921000Y-8827100D02*
G75*
G03*
X8921000Y-8777100I0J25000D01*
G01*
X8871000Y-8777100D02*
G75*
G03*
X8871000Y-8827100I0J-25000D01*
G01*
X8920749Y-10782649D02*
X8920749Y-10733151D01*
X8871251Y-10733151D01*
X8871251Y-10782649D01*
X8920749Y-10782649D01*
X8871000Y-10782900D02*
X8921000Y-10782900D01*
X8871000Y-10732900D02*
X8921000Y-10732900D01*
X8921000Y-10782900D02*
G75*
G03*
X8921000Y-10732900I0J25000D01*
G01*
X8871000Y-10732900D02*
G75*
G03*
X8871000Y-10782900I0J-25000D01*
G01*
X8920749Y-12687649D02*
X8920749Y-12638151D01*
X8871251Y-12638151D01*
X8871251Y-12687649D01*
X8920749Y-12687649D01*
X8871000Y-12687900D02*
X8921000Y-12687900D01*
X8871000Y-12637900D02*
X8921000Y-12637900D01*
X8921000Y-12687900D02*
G75*
G03*
X8921000Y-12637900I0J25000D01*
G01*
X8871000Y-12637900D02*
G75*
G03*
X8871000Y-12687900I0J-25000D01*
G01*
X8920749Y-14630749D02*
X8920749Y-14581251D01*
X8871251Y-14581251D01*
X8871251Y-14630749D01*
X8920749Y-14630749D01*
X8871000Y-14631000D02*
X8921000Y-14631000D01*
X8871000Y-14581000D02*
X8921000Y-14581000D01*
X8921000Y-14631000D02*
G75*
G03*
X8921000Y-14581000I0J25000D01*
G01*
X8871000Y-14581000D02*
G75*
G03*
X8871000Y-14631000I0J-25000D01*
G01*
X8920749Y-16256349D02*
X8920749Y-16206851D01*
X8871251Y-16206851D01*
X8871251Y-16256349D01*
X8920749Y-16256349D01*
X8871000Y-16256600D02*
X8921000Y-16256600D01*
X8871000Y-16206600D02*
X8921000Y-16206600D01*
X8921000Y-16256600D02*
G75*
G03*
X8921000Y-16206600I0J25000D01*
G01*
X8871000Y-16206600D02*
G75*
G03*
X8871000Y-16256600I0J-25000D01*
G01*
X9289049Y-6896449D02*
X9289049Y-6846951D01*
X9239551Y-6846951D01*
X9239551Y-6896449D01*
X9289049Y-6896449D01*
X9239300Y-6896700D02*
X9289300Y-6896700D01*
X9239300Y-6846700D02*
X9289300Y-6846700D01*
X9289300Y-6896700D02*
G75*
G03*
X9289300Y-6846700I0J25000D01*
G01*
X9239300Y-6846700D02*
G75*
G03*
X9239300Y-6896700I0J-25000D01*
G01*
X10851149Y-9195149D02*
X10851149Y-9145651D01*
X10801651Y-9145651D01*
X10801651Y-9195149D01*
X10851149Y-9195149D01*
X10801400Y-9195400D02*
X10851400Y-9195400D01*
X10801400Y-9145400D02*
X10851400Y-9145400D01*
X10851400Y-9195400D02*
G75*
G03*
X10851400Y-9145400I0J25000D01*
G01*
X10801400Y-9145400D02*
G75*
G03*
X10801400Y-9195400I0J-25000D01*
G01*
X10851149Y-11125549D02*
X10851149Y-11076051D01*
X10801651Y-11076051D01*
X10801651Y-11125549D01*
X10851149Y-11125549D01*
X10801400Y-11125800D02*
X10851400Y-11125800D01*
X10801400Y-11075800D02*
X10851400Y-11075800D01*
X10851400Y-11125800D02*
G75*
G03*
X10851400Y-11075800I0J25000D01*
G01*
X10801400Y-11075800D02*
G75*
G03*
X10801400Y-11125800I0J-25000D01*
G01*
X10851149Y-13055949D02*
X10851149Y-13006451D01*
X10801651Y-13006451D01*
X10801651Y-13055949D01*
X10851149Y-13055949D01*
X10801400Y-13056200D02*
X10851400Y-13056200D01*
X10801400Y-13006200D02*
X10851400Y-13006200D01*
X10851400Y-13056200D02*
G75*
G03*
X10851400Y-13006200I0J25000D01*
G01*
X10801400Y-13006200D02*
G75*
G03*
X10801400Y-13056200I0J-25000D01*
G01*
X10851149Y-14986349D02*
X10851149Y-14936851D01*
X10801651Y-14936851D01*
X10801651Y-14986349D01*
X10851149Y-14986349D01*
X10801400Y-14986600D02*
X10851400Y-14986600D01*
X10801400Y-14936600D02*
X10851400Y-14936600D01*
X10851400Y-14986600D02*
G75*
G03*
X10851400Y-14936600I0J25000D01*
G01*
X10801400Y-14936600D02*
G75*
G03*
X10801400Y-14986600I0J-25000D01*
G01*
X11219449Y-7264749D02*
X11219449Y-7215251D01*
X11169951Y-7215251D01*
X11169951Y-7264749D01*
X11219449Y-7264749D01*
X11169700Y-7265000D02*
X11219700Y-7265000D01*
X11169700Y-7215000D02*
X11219700Y-7215000D01*
X11219700Y-7265000D02*
G75*
G03*
X11219700Y-7215000I0J25000D01*
G01*
X11169700Y-7215000D02*
G75*
G03*
X11169700Y-7265000I0J-25000D01*
G01*
X12781549Y-9652349D02*
X12781549Y-9602851D01*
X12732051Y-9602851D01*
X12732051Y-9652349D01*
X12781549Y-9652349D01*
X12731800Y-9652600D02*
X12781800Y-9652600D01*
X12731800Y-9602600D02*
X12781800Y-9602600D01*
X12781800Y-9652600D02*
G75*
G03*
X12781800Y-9602600I0J25000D01*
G01*
X12731800Y-9602600D02*
G75*
G03*
X12731800Y-9652600I0J-25000D01*
G01*
X12781549Y-11582749D02*
X12781549Y-11533251D01*
X12732051Y-11533251D01*
X12732051Y-11582749D01*
X12781549Y-11582749D01*
X12731800Y-11583000D02*
X12781800Y-11583000D01*
X12731800Y-11533000D02*
X12781800Y-11533000D01*
X12781800Y-11583000D02*
G75*
G03*
X12781800Y-11533000I0J25000D01*
G01*
X12731800Y-11533000D02*
G75*
G03*
X12731800Y-11583000I0J-25000D01*
G01*
X12781549Y-13513149D02*
X12781549Y-13463651D01*
X12732051Y-13463651D01*
X12732051Y-13513149D01*
X12781549Y-13513149D01*
X12731800Y-13513400D02*
X12781800Y-13513400D01*
X12731800Y-13463400D02*
X12781800Y-13463400D01*
X12781800Y-13513400D02*
G75*
G03*
X12781800Y-13463400I0J25000D01*
G01*
X12731800Y-13463400D02*
G75*
G03*
X12731800Y-13513400I0J-25000D01*
G01*
X12781549Y-15443549D02*
X12781549Y-15394051D01*
X12732051Y-15394051D01*
X12732051Y-15443549D01*
X12781549Y-15443549D01*
X12731800Y-15443800D02*
X12781800Y-15443800D01*
X12731800Y-15393800D02*
X12781800Y-15393800D01*
X12781800Y-15443800D02*
G75*
G03*
X12781800Y-15393800I0J25000D01*
G01*
X12731800Y-15393800D02*
G75*
G03*
X12731800Y-15443800I0J-25000D01*
G01*
X13149849Y-7709249D02*
X13149849Y-7659751D01*
X13100351Y-7659751D01*
X13100351Y-7709249D01*
X13149849Y-7709249D01*
X13100100Y-7709500D02*
X13150100Y-7709500D01*
X13100100Y-7659500D02*
X13150100Y-7659500D01*
X13150100Y-7709500D02*
G75*
G03*
X13150100Y-7659500I0J25000D01*
G01*
X13100100Y-7659500D02*
G75*
G03*
X13100100Y-7709500I0J-25000D01*
G01*
X14711949Y-9817449D02*
X14711949Y-9767951D01*
X14662451Y-9767951D01*
X14662451Y-9817449D01*
X14711949Y-9817449D01*
X14662200Y-9817700D02*
X14712200Y-9817700D01*
X14662200Y-9767700D02*
X14712200Y-9767700D01*
X14712200Y-9817700D02*
G75*
G03*
X14712200Y-9767700I0J25000D01*
G01*
X14662200Y-9767700D02*
G75*
G03*
X14662200Y-9817700I0J-25000D01*
G01*
X14711949Y-11760549D02*
X14711949Y-11711051D01*
X14662451Y-11711051D01*
X14662451Y-11760549D01*
X14711949Y-11760549D01*
X14662200Y-11760800D02*
X14712200Y-11760800D01*
X14662200Y-11710800D02*
X14712200Y-11710800D01*
X14712200Y-11760800D02*
G75*
G03*
X14712200Y-11710800I0J25000D01*
G01*
X14662200Y-11710800D02*
G75*
G03*
X14662200Y-11760800I0J-25000D01*
G01*
X14711949Y-13690949D02*
X14711949Y-13641451D01*
X14662451Y-13641451D01*
X14662451Y-13690949D01*
X14711949Y-13690949D01*
X14662200Y-13691200D02*
X14712200Y-13691200D01*
X14662200Y-13641200D02*
X14712200Y-13641200D01*
X14712200Y-13691200D02*
G75*
G03*
X14712200Y-13641200I0J25000D01*
G01*
X14662200Y-13641200D02*
G75*
G03*
X14662200Y-13691200I0J-25000D01*
G01*
X14711949Y-15621349D02*
X14711949Y-15571851D01*
X14662451Y-15571851D01*
X14662451Y-15621349D01*
X14711949Y-15621349D01*
X14662200Y-15621600D02*
X14712200Y-15621600D01*
X14662200Y-15571600D02*
X14712200Y-15571600D01*
X14712200Y-15621600D02*
G75*
G03*
X14712200Y-15571600I0J25000D01*
G01*
X14662200Y-15571600D02*
G75*
G03*
X14662200Y-15621600I0J-25000D01*
G01*
X16159749Y-7721949D02*
X16159749Y-7672451D01*
X16110251Y-7672451D01*
X16110251Y-7721949D01*
X16159749Y-7721949D01*
X16110000Y-7722200D02*
X16160000Y-7722200D01*
X16110000Y-7672200D02*
X16160000Y-7672200D01*
X16160000Y-7722200D02*
G75*
G03*
X16160000Y-7672200I0J25000D01*
G01*
X16110000Y-7672200D02*
G75*
G03*
X16110000Y-7722200I0J-25000D01*
G01*
X16642349Y-9652349D02*
X16642349Y-9602851D01*
X16592851Y-9602851D01*
X16592851Y-9652349D01*
X16642349Y-9652349D01*
X16592600Y-9652600D02*
X16642600Y-9652600D01*
X16592600Y-9602600D02*
X16642600Y-9602600D01*
X16642600Y-9652600D02*
G75*
G03*
X16642600Y-9602600I0J25000D01*
G01*
X16592600Y-9602600D02*
G75*
G03*
X16592600Y-9652600I0J-25000D01*
G01*
X16642349Y-11582749D02*
X16642349Y-11533251D01*
X16592851Y-11533251D01*
X16592851Y-11582749D01*
X16642349Y-11582749D01*
X16592600Y-11583000D02*
X16642600Y-11583000D01*
X16592600Y-11533000D02*
X16642600Y-11533000D01*
X16642600Y-11583000D02*
G75*
G03*
X16642600Y-11533000I0J25000D01*
G01*
X16592600Y-11533000D02*
G75*
G03*
X16592600Y-11583000I0J-25000D01*
G01*
X16642349Y-13513149D02*
X16642349Y-13463651D01*
X16592851Y-13463651D01*
X16592851Y-13513149D01*
X16642349Y-13513149D01*
X16592600Y-13513400D02*
X16642600Y-13513400D01*
X16592600Y-13463400D02*
X16642600Y-13463400D01*
X16642600Y-13513400D02*
G75*
G03*
X16642600Y-13463400I0J25000D01*
G01*
X16592600Y-13463400D02*
G75*
G03*
X16592600Y-13513400I0J-25000D01*
G01*
X16642349Y-15443549D02*
X16642349Y-15394051D01*
X16592851Y-15394051D01*
X16592851Y-15443549D01*
X16642349Y-15443549D01*
X16592600Y-15443800D02*
X16642600Y-15443800D01*
X16592600Y-15393800D02*
X16642600Y-15393800D01*
X16642600Y-15443800D02*
G75*
G03*
X16642600Y-15393800I0J25000D01*
G01*
X16592600Y-15393800D02*
G75*
G03*
X16592600Y-15443800I0J-25000D01*
G01*
X18090149Y-7264749D02*
X18090149Y-7215251D01*
X18040651Y-7215251D01*
X18040651Y-7264749D01*
X18090149Y-7264749D01*
X18040400Y-7265000D02*
X18090400Y-7265000D01*
X18040400Y-7215000D02*
X18090400Y-7215000D01*
X18090400Y-7265000D02*
G75*
G03*
X18090400Y-7215000I0J25000D01*
G01*
X18040400Y-7215000D02*
G75*
G03*
X18040400Y-7265000I0J-25000D01*
G01*
X18572749Y-9195149D02*
X18572749Y-9145651D01*
X18523251Y-9145651D01*
X18523251Y-9195149D01*
X18572749Y-9195149D01*
X18523000Y-9195400D02*
X18573000Y-9195400D01*
X18523000Y-9145400D02*
X18573000Y-9145400D01*
X18573000Y-9195400D02*
G75*
G03*
X18573000Y-9145400I0J25000D01*
G01*
X18523000Y-9145400D02*
G75*
G03*
X18523000Y-9195400I0J-25000D01*
G01*
X18572749Y-11125549D02*
X18572749Y-11076051D01*
X18523251Y-11076051D01*
X18523251Y-11125549D01*
X18572749Y-11125549D01*
X18523000Y-11125800D02*
X18573000Y-11125800D01*
X18523000Y-11075800D02*
X18573000Y-11075800D01*
X18573000Y-11125800D02*
G75*
G03*
X18573000Y-11075800I0J25000D01*
G01*
X18523000Y-11075800D02*
G75*
G03*
X18523000Y-11125800I0J-25000D01*
G01*
X18572749Y-13055949D02*
X18572749Y-13006451D01*
X18523251Y-13006451D01*
X18523251Y-13055949D01*
X18572749Y-13055949D01*
X18523000Y-13056200D02*
X18573000Y-13056200D01*
X18523000Y-13006200D02*
X18573000Y-13006200D01*
X18573000Y-13056200D02*
G75*
G03*
X18573000Y-13006200I0J25000D01*
G01*
X18523000Y-13006200D02*
G75*
G03*
X18523000Y-13056200I0J-25000D01*
G01*
X18572749Y-14986349D02*
X18572749Y-14936851D01*
X18523251Y-14936851D01*
X18523251Y-14986349D01*
X18572749Y-14986349D01*
X18523000Y-14986600D02*
X18573000Y-14986600D01*
X18523000Y-14936600D02*
X18573000Y-14936600D01*
X18573000Y-14986600D02*
G75*
G03*
X18573000Y-14936600I0J25000D01*
G01*
X18523000Y-14936600D02*
G75*
G03*
X18523000Y-14986600I0J-25000D01*
G01*
X20020549Y-6883749D02*
X20020549Y-6834251D01*
X19971051Y-6834251D01*
X19971051Y-6883749D01*
X20020549Y-6883749D01*
X19970800Y-6884000D02*
X20020800Y-6884000D01*
X19970800Y-6834000D02*
X20020800Y-6834000D01*
X20020800Y-6884000D02*
G75*
G03*
X20020800Y-6834000I0J25000D01*
G01*
X19970800Y-6834000D02*
G75*
G03*
X19970800Y-6884000I0J-25000D01*
G01*
X20503149Y-8839549D02*
X20503149Y-8790051D01*
X20453651Y-8790051D01*
X20453651Y-8839549D01*
X20503149Y-8839549D01*
X20453400Y-8839800D02*
X20503400Y-8839800D01*
X20453400Y-8789800D02*
X20503400Y-8789800D01*
X20503400Y-8839800D02*
G75*
G03*
X20503400Y-8789800I0J25000D01*
G01*
X20453400Y-8789800D02*
G75*
G03*
X20453400Y-8839800I0J-25000D01*
G01*
X20503149Y-10769949D02*
X20503149Y-10720451D01*
X20453651Y-10720451D01*
X20453651Y-10769949D01*
X20503149Y-10769949D01*
X20453400Y-10770200D02*
X20503400Y-10770200D01*
X20453400Y-10720200D02*
X20503400Y-10720200D01*
X20503400Y-10770200D02*
G75*
G03*
X20503400Y-10720200I0J25000D01*
G01*
X20453400Y-10720200D02*
G75*
G03*
X20453400Y-10770200I0J-25000D01*
G01*
X20503149Y-12700349D02*
X20503149Y-12650851D01*
X20453651Y-12650851D01*
X20453651Y-12700349D01*
X20503149Y-12700349D01*
X20453400Y-12700600D02*
X20503400Y-12700600D01*
X20453400Y-12650600D02*
X20503400Y-12650600D01*
X20503400Y-12700600D02*
G75*
G03*
X20503400Y-12650600I0J25000D01*
G01*
X20453400Y-12650600D02*
G75*
G03*
X20453400Y-12700600I0J-25000D01*
G01*
X20528549Y-14630749D02*
X20528549Y-14581251D01*
X20479051Y-14581251D01*
X20479051Y-14630749D01*
X20528549Y-14630749D01*
X20478800Y-14631000D02*
X20528800Y-14631000D01*
X20478800Y-14581000D02*
X20528800Y-14581000D01*
X20528800Y-14631000D02*
G75*
G03*
X20528800Y-14581000I0J25000D01*
G01*
X20478800Y-14581000D02*
G75*
G03*
X20478800Y-14631000I0J-25000D01*
G01*
X20528549Y-16256349D02*
X20528549Y-16206851D01*
X20479051Y-16206851D01*
X20479051Y-16256349D01*
X20528549Y-16256349D01*
X20478800Y-16256600D02*
X20528800Y-16256600D01*
X20478800Y-16206600D02*
X20528800Y-16206600D01*
X20528800Y-16256600D02*
G75*
G03*
X20528800Y-16206600I0J25000D01*
G01*
X20478800Y-16206600D02*
G75*
G03*
X20478800Y-16256600I0J-25000D01*
G01*
X21950949Y-6553549D02*
X21950949Y-6504051D01*
X21901451Y-6504051D01*
X21901451Y-6553549D01*
X21950949Y-6553549D01*
X21901200Y-6553800D02*
X21951200Y-6553800D01*
X21901200Y-6503800D02*
X21951200Y-6503800D01*
X21951200Y-6553800D02*
G75*
G03*
X21951200Y-6503800I0J25000D01*
G01*
X21901200Y-6503800D02*
G75*
G03*
X21901200Y-6553800I0J-25000D01*
G01*
X22433549Y-8483949D02*
X22433549Y-8434451D01*
X22384051Y-8434451D01*
X22384051Y-8483949D01*
X22433549Y-8483949D01*
X22383800Y-8484200D02*
X22433800Y-8484200D01*
X22383800Y-8434200D02*
X22433800Y-8434200D01*
X22433800Y-8484200D02*
G75*
G03*
X22433800Y-8434200I0J25000D01*
G01*
X22383800Y-8434200D02*
G75*
G03*
X22383800Y-8484200I0J-25000D01*
G01*
X22433549Y-10414349D02*
X22433549Y-10364851D01*
X22384051Y-10364851D01*
X22384051Y-10414349D01*
X22433549Y-10414349D01*
X22383800Y-10414600D02*
X22433800Y-10414600D01*
X22383800Y-10364600D02*
X22433800Y-10364600D01*
X22433800Y-10414600D02*
G75*
G03*
X22433800Y-10364600I0J25000D01*
G01*
X22383800Y-10364600D02*
G75*
G03*
X22383800Y-10414600I0J-25000D01*
G01*
X22433549Y-12344749D02*
X22433549Y-12295251D01*
X22384051Y-12295251D01*
X22384051Y-12344749D01*
X22433549Y-12344749D01*
X22383800Y-12345000D02*
X22433800Y-12345000D01*
X22383800Y-12295000D02*
X22433800Y-12295000D01*
X22433800Y-12345000D02*
G75*
G03*
X22433800Y-12295000I0J25000D01*
G01*
X22383800Y-12295000D02*
G75*
G03*
X22383800Y-12345000I0J-25000D01*
G01*
X22433549Y-14275149D02*
X22433549Y-14225651D01*
X22384051Y-14225651D01*
X22384051Y-14275149D01*
X22433549Y-14275149D01*
X22383800Y-14275400D02*
X22433800Y-14275400D01*
X22383800Y-14225400D02*
X22433800Y-14225400D01*
X22433800Y-14275400D02*
G75*
G03*
X22433800Y-14225400I0J25000D01*
G01*
X22383800Y-14225400D02*
G75*
G03*
X22383800Y-14275400I0J-25000D01*
G01*
X23881349Y-6197949D02*
X23881349Y-6148451D01*
X23831851Y-6148451D01*
X23831851Y-6197949D01*
X23881349Y-6197949D01*
X23831600Y-6198200D02*
X23881600Y-6198200D01*
X23831600Y-6148200D02*
X23881600Y-6148200D01*
X23881600Y-6198200D02*
G75*
G03*
X23881600Y-6148200I0J25000D01*
G01*
X23831600Y-6148200D02*
G75*
G03*
X23831600Y-6198200I0J-25000D01*
G01*
X24363949Y-8128349D02*
X24363949Y-8078851D01*
X24314451Y-8078851D01*
X24314451Y-8128349D01*
X24363949Y-8128349D01*
X24314200Y-8128600D02*
X24364200Y-8128600D01*
X24314200Y-8078600D02*
X24364200Y-8078600D01*
X24364200Y-8128600D02*
G75*
G03*
X24364200Y-8078600I0J25000D01*
G01*
X24314200Y-8078600D02*
G75*
G03*
X24314200Y-8128600I0J-25000D01*
G01*
X24363949Y-10058749D02*
X24363949Y-10009251D01*
X24314451Y-10009251D01*
X24314451Y-10058749D01*
X24363949Y-10058749D01*
X24314200Y-10059000D02*
X24364200Y-10059000D01*
X24314200Y-10009000D02*
X24364200Y-10009000D01*
X24364200Y-10059000D02*
G75*
G03*
X24364200Y-10009000I0J25000D01*
G01*
X24314200Y-10009000D02*
G75*
G03*
X24314200Y-10059000I0J-25000D01*
G01*
X24363949Y-11989149D02*
X24363949Y-11939651D01*
X24314451Y-11939651D01*
X24314451Y-11989149D01*
X24363949Y-11989149D01*
X24314200Y-11989400D02*
X24364200Y-11989400D01*
X24314200Y-11939400D02*
X24364200Y-11939400D01*
X24364200Y-11989400D02*
G75*
G03*
X24364200Y-11939400I0J25000D01*
G01*
X24314200Y-11939400D02*
G75*
G03*
X24314200Y-11989400I0J-25000D01*
G01*
X24363949Y-13894149D02*
X24363949Y-13844651D01*
X24314451Y-13844651D01*
X24314451Y-13894149D01*
X24363949Y-13894149D01*
X24314200Y-13894400D02*
X24364200Y-13894400D01*
X24314200Y-13844400D02*
X24364200Y-13844400D01*
X24364200Y-13894400D02*
G75*
G03*
X24364200Y-13844400I0J25000D01*
G01*
X24314200Y-13844400D02*
G75*
G03*
X24314200Y-13894400I0J-25000D01*
G01*
X24363949Y-15849949D02*
X24363949Y-15800451D01*
X24314451Y-15800451D01*
X24314451Y-15849949D01*
X24363949Y-15849949D01*
X24314200Y-15850200D02*
X24364200Y-15850200D01*
X24314200Y-15800200D02*
X24364200Y-15800200D01*
X24364200Y-15850200D02*
G75*
G03*
X24364200Y-15800200I0J25000D01*
G01*
X24314200Y-15800200D02*
G75*
G03*
X24314200Y-15850200I0J-25000D01*
G01*
X25811749Y-5842349D02*
X25811749Y-5792851D01*
X25762251Y-5792851D01*
X25762251Y-5842349D01*
X25811749Y-5842349D01*
X25762000Y-5842600D02*
X25812000Y-5842600D01*
X25762000Y-5792600D02*
X25812000Y-5792600D01*
X25812000Y-5842600D02*
G75*
G03*
X25812000Y-5792600I0J25000D01*
G01*
X25762000Y-5792600D02*
G75*
G03*
X25762000Y-5842600I0J-25000D01*
G01*
X26294349Y-7772749D02*
X26294349Y-7723251D01*
X26244851Y-7723251D01*
X26244851Y-7772749D01*
X26294349Y-7772749D01*
X26244600Y-7773000D02*
X26294600Y-7773000D01*
X26244600Y-7723000D02*
X26294600Y-7723000D01*
X26294600Y-7773000D02*
G75*
G03*
X26294600Y-7723000I0J25000D01*
G01*
X26244600Y-7723000D02*
G75*
G03*
X26244600Y-7773000I0J-25000D01*
G01*
X26294349Y-9703149D02*
X26294349Y-9653651D01*
X26244851Y-9653651D01*
X26244851Y-9703149D01*
X26294349Y-9703149D01*
X26244600Y-9703400D02*
X26294600Y-9703400D01*
X26244600Y-9653400D02*
X26294600Y-9653400D01*
X26294600Y-9703400D02*
G75*
G03*
X26294600Y-9653400I0J25000D01*
G01*
X26244600Y-9653400D02*
G75*
G03*
X26244600Y-9703400I0J-25000D01*
G01*
X26294349Y-11633549D02*
X26294349Y-11584051D01*
X26244851Y-11584051D01*
X26244851Y-11633549D01*
X26294349Y-11633549D01*
X26244600Y-11633800D02*
X26294600Y-11633800D01*
X26244600Y-11583800D02*
X26294600Y-11583800D01*
X26294600Y-11633800D02*
G75*
G03*
X26294600Y-11583800I0J25000D01*
G01*
X26244600Y-11583800D02*
G75*
G03*
X26244600Y-11633800I0J-25000D01*
G01*
X26294349Y-13868749D02*
X26294349Y-13819251D01*
X26244851Y-13819251D01*
X26244851Y-13868749D01*
X26294349Y-13868749D01*
X26244600Y-13869000D02*
X26294600Y-13869000D01*
X26244600Y-13819000D02*
X26294600Y-13819000D01*
X26294600Y-13869000D02*
G75*
G03*
X26294600Y-13819000I0J25000D01*
G01*
X26244600Y-13819000D02*
G75*
G03*
X26244600Y-13869000I0J-25000D01*
G01*
X26294349Y-15824549D02*
X26294349Y-15775051D01*
X26244851Y-15775051D01*
X26244851Y-15824549D01*
X26294349Y-15824549D01*
X26244600Y-15824800D02*
X26294600Y-15824800D01*
X26244600Y-15774800D02*
X26294600Y-15774800D01*
X26294600Y-15824800D02*
G75*
G03*
X26294600Y-15774800I0J25000D01*
G01*
X26244600Y-15774800D02*
G75*
G03*
X26244600Y-15824800I0J-25000D01*
G01*
X27742149Y-5740749D02*
X27742149Y-5691251D01*
X27692651Y-5691251D01*
X27692651Y-5740749D01*
X27742149Y-5740749D01*
X27692400Y-5741000D02*
X27742400Y-5741000D01*
X27692400Y-5691000D02*
X27742400Y-5691000D01*
X27742400Y-5741000D02*
G75*
G03*
X27742400Y-5691000I0J25000D01*
G01*
X27692400Y-5691000D02*
G75*
G03*
X27692400Y-5741000I0J-25000D01*
G01*
X28224749Y-7671149D02*
X28224749Y-7621651D01*
X28175251Y-7621651D01*
X28175251Y-7671149D01*
X28224749Y-7671149D01*
X28175000Y-7671400D02*
X28225000Y-7671400D01*
X28175000Y-7621400D02*
X28225000Y-7621400D01*
X28225000Y-7671400D02*
G75*
G03*
X28225000Y-7621400I0J25000D01*
G01*
X28175000Y-7621400D02*
G75*
G03*
X28175000Y-7671400I0J-25000D01*
G01*
X28224749Y-9576149D02*
X28224749Y-9526651D01*
X28175251Y-9526651D01*
X28175251Y-9576149D01*
X28224749Y-9576149D01*
X28175000Y-9576400D02*
X28225000Y-9576400D01*
X28175000Y-9526400D02*
X28225000Y-9526400D01*
X28225000Y-9576400D02*
G75*
G03*
X28225000Y-9526400I0J25000D01*
G01*
X28175000Y-9526400D02*
G75*
G03*
X28175000Y-9576400I0J-25000D01*
G01*
X28224749Y-11760549D02*
X28224749Y-11711051D01*
X28175251Y-11711051D01*
X28175251Y-11760549D01*
X28224749Y-11760549D01*
X28175000Y-11760800D02*
X28225000Y-11760800D01*
X28175000Y-11710800D02*
X28225000Y-11710800D01*
X28225000Y-11760800D02*
G75*
G03*
X28225000Y-11710800I0J25000D01*
G01*
X28175000Y-11710800D02*
G75*
G03*
X28175000Y-11760800I0J-25000D01*
G01*
X28224749Y-13894149D02*
X28224749Y-13844651D01*
X28175251Y-13844651D01*
X28175251Y-13894149D01*
X28224749Y-13894149D01*
X28175000Y-13894400D02*
X28225000Y-13894400D01*
X28175000Y-13844400D02*
X28225000Y-13844400D01*
X28225000Y-13894400D02*
G75*
G03*
X28225000Y-13844400I0J25000D01*
G01*
X28175000Y-13844400D02*
G75*
G03*
X28175000Y-13894400I0J-25000D01*
G01*
X28224749Y-15849949D02*
X28224749Y-15800451D01*
X28175251Y-15800451D01*
X28175251Y-15849949D01*
X28224749Y-15849949D01*
X28175000Y-15850200D02*
X28225000Y-15850200D01*
X28175000Y-15800200D02*
X28225000Y-15800200D01*
X28225000Y-15850200D02*
G75*
G03*
X28225000Y-15800200I0J25000D01*
G01*
X28175000Y-15800200D02*
G75*
G03*
X28175000Y-15850200I0J-25000D01*
G01*
X13274800Y-5221600D02*
X13314800Y-5181600D01*
X13274800Y-5141600D01*
X13234800Y-5181600D01*
X13274800Y-5221600D01*
X13474800Y-5221600D02*
X13514800Y-5181600D01*
X13474800Y-5141600D01*
X13434800Y-5181600D01*
X13474800Y-5221600D01*
X13674800Y-5221600D02*
X13714800Y-5181600D01*
X13674800Y-5141600D01*
X13634800Y-5181600D01*
X13674800Y-5221600D01*
X13874800Y-5221600D02*
X13914800Y-5181600D01*
X13874800Y-5141600D01*
X13834800Y-5181600D01*
X13874800Y-5221600D01*
X14074800Y-5221600D02*
X14114800Y-5181600D01*
X14074800Y-5141600D01*
X14034800Y-5181600D01*
X14074800Y-5221600D01*
X14274800Y-5221600D02*
X14314800Y-5181600D01*
X14274800Y-5141600D01*
X14234800Y-5181600D01*
X14274800Y-5221600D01*
X14681200Y-5221600D02*
X14721200Y-5181600D01*
X14681200Y-5141600D01*
X14641200Y-5181600D01*
X14681200Y-5221600D01*
X14881200Y-5221600D02*
X14921200Y-5181600D01*
X14881200Y-5141600D01*
X14841200Y-5181600D01*
X14881200Y-5221600D01*
X15081200Y-5221600D02*
X15121200Y-5181600D01*
X15081200Y-5141600D01*
X15041200Y-5181600D01*
X15081200Y-5221600D01*
X15281200Y-5221600D02*
X15321200Y-5181600D01*
X15281200Y-5141600D01*
X15241200Y-5181600D01*
X15281200Y-5221600D01*
X16205200Y-5221600D02*
X16245200Y-5181600D01*
X16205200Y-5141600D01*
X16165200Y-5181600D01*
X16205200Y-5221600D01*
X16405200Y-5221600D02*
X16445200Y-5181600D01*
X16405200Y-5141600D01*
X16365200Y-5181600D01*
X16405200Y-5221600D01*
X16605200Y-5221600D02*
X16645200Y-5181600D01*
X16605200Y-5141600D01*
X16565200Y-5181600D01*
X16605200Y-5221600D01*
X16805200Y-5221600D02*
X16845200Y-5181600D01*
X16805200Y-5141600D01*
X16765200Y-5181600D01*
X16805200Y-5221600D01*
X15193500Y-4955150D02*
X15278500Y-5040150D01*
X15278500Y-4955150D02*
X15193500Y-5040150D01*
X15278500Y-4997650D02*
G75*
G03*
X15278500Y-4997650I-42500J0D01*
G01*
X12015000Y-4852200D02*
X12115000Y-4952200D01*
X12115000Y-4852200D02*
X12015000Y-4952200D01*
X12065000Y-4852200D02*
X12065000Y-4952200D01*
X12015000Y-4902200D02*
X12115000Y-4902200D01*
X12269000Y-4852200D02*
X12369000Y-4952200D01*
X12369000Y-4852200D02*
X12269000Y-4952200D01*
X12319000Y-4852200D02*
X12319000Y-4952200D01*
X12269000Y-4902200D02*
X12369000Y-4902200D01*
X12523000Y-4852200D02*
X12623000Y-4952200D01*
X12623000Y-4852200D02*
X12523000Y-4952200D01*
X12573000Y-4852200D02*
X12573000Y-4952200D01*
X12523000Y-4902200D02*
X12623000Y-4902200D01*
X12777000Y-4852200D02*
X12877000Y-4952200D01*
X12877000Y-4852200D02*
X12777000Y-4952200D01*
X12827000Y-4852200D02*
X12827000Y-4952200D01*
X12777000Y-4902200D02*
X12877000Y-4902200D01*
X731400Y-13427600D02*
X1001400Y-13697600D01*
X1001400Y-13427600D02*
X731400Y-13697600D01*
X961860Y-13658060D02*
X961860Y-13467140D01*
X770940Y-13467140D01*
X770940Y-13658060D01*
X961860Y-13658060D01*
X5656200Y-4868800D02*
X5926200Y-5138800D01*
X5926200Y-4868800D02*
X5656200Y-5138800D01*
X5886660Y-5099260D02*
X5886660Y-4908340D01*
X5695740Y-4908340D01*
X5695740Y-5099260D01*
X5886660Y-5099260D01*
X8043800Y-16705200D02*
X8313800Y-16975200D01*
X8313800Y-16705200D02*
X8043800Y-16975200D01*
X8274260Y-16935660D02*
X8274260Y-16744740D01*
X8083340Y-16744740D01*
X8083340Y-16935660D01*
X8274260Y-16935660D01*
X10050400Y-9898000D02*
X10320400Y-10168000D01*
X10320400Y-9898000D02*
X10050400Y-10168000D01*
X10280860Y-10128460D02*
X10280860Y-9937540D01*
X10089940Y-9937540D01*
X10089940Y-10128460D01*
X10280860Y-10128460D01*
X15867000Y-12819000D02*
X16137000Y-13089000D01*
X16137000Y-12819000D02*
X15867000Y-13089000D01*
X16097460Y-13049460D02*
X16097460Y-12858540D01*
X15906540Y-12858540D01*
X15906540Y-13049460D01*
X16097460Y-13049460D01*
X19448400Y-8094600D02*
X19718400Y-8364600D01*
X19718400Y-8094600D02*
X19448400Y-8364600D01*
X19678860Y-8325060D02*
X19678860Y-8134140D01*
X19487940Y-8134140D01*
X19487940Y-8325060D01*
X19678860Y-8325060D01*
X21836000Y-16705200D02*
X22106000Y-16975200D01*
X22106000Y-16705200D02*
X21836000Y-16975200D01*
X22066460Y-16935660D02*
X22066460Y-16744740D01*
X21875540Y-16744740D01*
X21875540Y-16935660D01*
X22066460Y-16935660D01*
X24096600Y-4868800D02*
X24366600Y-5138800D01*
X24366600Y-4868800D02*
X24096600Y-5138800D01*
X24327060Y-5099260D02*
X24327060Y-4908340D01*
X24136140Y-4908340D01*
X24136140Y-5099260D01*
X24327060Y-5099260D01*
X29024200Y-10761600D02*
X29294200Y-11031600D01*
X29294200Y-10761600D02*
X29024200Y-11031600D01*
X29254660Y-10992060D02*
X29254660Y-10801140D01*
X29063740Y-10801140D01*
X29063740Y-10992060D01*
X29254660Y-10992060D01*
D12*
X764028Y-17742714D02*
X764028Y-17442714D01*
X835457Y-17442714D01*
X878314Y-17457000D01*
X906886Y-17485572D01*
X921171Y-17514143D01*
X935457Y-17571286D01*
X935457Y-17614143D01*
X921171Y-17671286D01*
X906886Y-17699857D01*
X878314Y-17728429D01*
X835457Y-17742714D01*
X764028Y-17742714D01*
X1064028Y-17742714D02*
X1064028Y-17542714D01*
X1064028Y-17599857D02*
X1078314Y-17571286D01*
X1092600Y-17557000D01*
X1121171Y-17542714D01*
X1149743Y-17542714D01*
X1249743Y-17742714D02*
X1249743Y-17542714D01*
X1249743Y-17442714D02*
X1235457Y-17457000D01*
X1249743Y-17471286D01*
X1264028Y-17457000D01*
X1249743Y-17442714D01*
X1249743Y-17471286D01*
X1435457Y-17742714D02*
X1406886Y-17728429D01*
X1392600Y-17699857D01*
X1392600Y-17442714D01*
X1592600Y-17742714D02*
X1564028Y-17728429D01*
X1549743Y-17699857D01*
X1549743Y-17442714D01*
X1935457Y-17742714D02*
X1935457Y-17442714D01*
X2035457Y-17657000D01*
X2135457Y-17442714D01*
X2135457Y-17742714D01*
X2406886Y-17742714D02*
X2406886Y-17585572D01*
X2392600Y-17557000D01*
X2364028Y-17542714D01*
X2306886Y-17542714D01*
X2278314Y-17557000D01*
X2406886Y-17728429D02*
X2378314Y-17742714D01*
X2306886Y-17742714D01*
X2278314Y-17728429D01*
X2264028Y-17699857D01*
X2264028Y-17671286D01*
X2278314Y-17642714D01*
X2306886Y-17628429D01*
X2378314Y-17628429D01*
X2406886Y-17614143D01*
X2549743Y-17542714D02*
X2549743Y-17842714D01*
X2549743Y-17557000D02*
X2578314Y-17542714D01*
X2635457Y-17542714D01*
X2664028Y-17557000D01*
X2678314Y-17571286D01*
X2692600Y-17599857D01*
X2692600Y-17685572D01*
X2678314Y-17714143D01*
X2664028Y-17728429D01*
X2635457Y-17742714D01*
X2578314Y-17742714D01*
X2549743Y-17728429D01*
X2821171Y-17714143D02*
X2835457Y-17728429D01*
X2821171Y-17742714D01*
X2806886Y-17728429D01*
X2821171Y-17714143D01*
X2821171Y-17742714D01*
X2821171Y-17557000D02*
X2835457Y-17571286D01*
X2821171Y-17585572D01*
X2806886Y-17571286D01*
X2821171Y-17557000D01*
X2821171Y-17585572D01*
X437600Y-18217000D02*
X477600Y-18257000D01*
X477600Y-18217000D02*
X437600Y-18257000D01*
X821171Y-18072714D02*
X849743Y-18072714D01*
X878314Y-18087000D01*
X892600Y-18101286D01*
X906886Y-18129857D01*
X921171Y-18187000D01*
X921171Y-18258429D01*
X906886Y-18315572D01*
X892600Y-18344143D01*
X878314Y-18358429D01*
X849743Y-18372714D01*
X821171Y-18372714D01*
X792600Y-18358429D01*
X778314Y-18344143D01*
X764028Y-18315572D01*
X749743Y-18258429D01*
X749743Y-18187000D01*
X764028Y-18129857D01*
X778314Y-18101286D01*
X792600Y-18087000D01*
X821171Y-18072714D01*
X1049743Y-18344143D02*
X1064028Y-18358429D01*
X1049743Y-18372714D01*
X1035457Y-18358429D01*
X1049743Y-18344143D01*
X1049743Y-18372714D01*
X1321171Y-18172714D02*
X1321171Y-18372714D01*
X1249743Y-18058429D02*
X1178314Y-18272714D01*
X1364028Y-18272714D01*
X1535457Y-18072714D02*
X1564028Y-18072714D01*
X1592600Y-18087000D01*
X1606886Y-18101286D01*
X1621171Y-18129857D01*
X1635457Y-18187000D01*
X1635457Y-18258429D01*
X1621171Y-18315572D01*
X1606886Y-18344143D01*
X1592600Y-18358429D01*
X1564028Y-18372714D01*
X1535457Y-18372714D01*
X1506886Y-18358429D01*
X1492600Y-18344143D01*
X1478314Y-18315572D01*
X1464028Y-18258429D01*
X1464028Y-18187000D01*
X1478314Y-18129857D01*
X1492600Y-18101286D01*
X1506886Y-18087000D01*
X1535457Y-18072714D01*
X1764028Y-18372714D02*
X1764028Y-18172714D01*
X1764028Y-18201286D02*
X1778314Y-18187000D01*
X1806886Y-18172714D01*
X1849743Y-18172714D01*
X1878314Y-18187000D01*
X1892600Y-18215572D01*
X1892600Y-18372714D01*
X1892600Y-18215572D02*
X1906886Y-18187000D01*
X1935457Y-18172714D01*
X1978314Y-18172714D01*
X2006886Y-18187000D01*
X2021171Y-18215572D01*
X2021171Y-18372714D01*
X2164028Y-18372714D02*
X2164028Y-18172714D01*
X2164028Y-18201286D02*
X2178314Y-18187000D01*
X2206886Y-18172714D01*
X2249743Y-18172714D01*
X2278314Y-18187000D01*
X2292600Y-18215572D01*
X2292600Y-18372714D01*
X2292600Y-18215572D02*
X2306886Y-18187000D01*
X2335457Y-18172714D01*
X2378314Y-18172714D01*
X2406886Y-18187000D01*
X2421171Y-18215572D01*
X2421171Y-18372714D01*
X3006886Y-18058429D02*
X2749743Y-18444143D01*
X3392600Y-18072714D02*
X3421171Y-18072714D01*
X3449743Y-18087000D01*
X3464028Y-18101286D01*
X3478314Y-18129857D01*
X3492600Y-18187000D01*
X3492600Y-18258429D01*
X3478314Y-18315572D01*
X3464028Y-18344143D01*
X3449743Y-18358429D01*
X3421171Y-18372714D01*
X3392600Y-18372714D01*
X3364028Y-18358429D01*
X3349743Y-18344143D01*
X3335457Y-18315572D01*
X3321171Y-18258429D01*
X3321171Y-18187000D01*
X3335457Y-18129857D01*
X3349743Y-18101286D01*
X3364028Y-18087000D01*
X3392600Y-18072714D01*
X3621171Y-18344143D02*
X3635457Y-18358429D01*
X3621171Y-18372714D01*
X3606886Y-18358429D01*
X3621171Y-18344143D01*
X3621171Y-18372714D01*
X3821171Y-18072714D02*
X3849743Y-18072714D01*
X3878314Y-18087000D01*
X3892600Y-18101286D01*
X3906886Y-18129857D01*
X3921171Y-18187000D01*
X3921171Y-18258429D01*
X3906886Y-18315572D01*
X3892600Y-18344143D01*
X3878314Y-18358429D01*
X3849743Y-18372714D01*
X3821171Y-18372714D01*
X3792600Y-18358429D01*
X3778314Y-18344143D01*
X3764028Y-18315572D01*
X3749743Y-18258429D01*
X3749743Y-18187000D01*
X3764028Y-18129857D01*
X3778314Y-18101286D01*
X3792600Y-18087000D01*
X3821171Y-18072714D01*
X4206886Y-18372714D02*
X4035457Y-18372714D01*
X4121171Y-18372714D02*
X4121171Y-18072714D01*
X4092600Y-18115572D01*
X4064028Y-18144143D01*
X4035457Y-18158429D01*
X4464028Y-18072714D02*
X4406886Y-18072714D01*
X4378314Y-18087000D01*
X4364028Y-18101286D01*
X4335457Y-18144143D01*
X4321171Y-18201286D01*
X4321171Y-18315572D01*
X4335457Y-18344143D01*
X4349743Y-18358429D01*
X4378314Y-18372714D01*
X4435457Y-18372714D01*
X4464028Y-18358429D01*
X4478314Y-18344143D01*
X4492600Y-18315572D01*
X4492600Y-18244143D01*
X4478314Y-18215572D01*
X4464028Y-18201286D01*
X4435457Y-18187000D01*
X4378314Y-18187000D01*
X4349743Y-18201286D01*
X4335457Y-18215572D01*
X4321171Y-18244143D01*
X4606886Y-18072714D02*
X4606886Y-18129857D01*
X4721171Y-18072714D02*
X4721171Y-18129857D01*
X5164028Y-18487000D02*
X5149743Y-18472714D01*
X5121171Y-18429857D01*
X5106886Y-18401286D01*
X5092600Y-18358429D01*
X5078314Y-18287000D01*
X5078314Y-18229857D01*
X5092600Y-18158429D01*
X5106886Y-18115572D01*
X5121171Y-18087000D01*
X5149743Y-18044143D01*
X5164028Y-18029857D01*
X5249743Y-18072714D02*
X5449743Y-18072714D01*
X5321171Y-18372714D01*
X5549743Y-18101286D02*
X5564028Y-18087000D01*
X5592600Y-18072714D01*
X5664028Y-18072714D01*
X5692600Y-18087000D01*
X5706886Y-18101286D01*
X5721171Y-18129857D01*
X5721171Y-18158429D01*
X5706886Y-18201286D01*
X5535457Y-18372714D01*
X5721171Y-18372714D01*
X5821171Y-18072714D02*
X6006886Y-18072714D01*
X5906886Y-18187000D01*
X5949743Y-18187000D01*
X5978314Y-18201286D01*
X5992600Y-18215572D01*
X6006886Y-18244143D01*
X6006886Y-18315572D01*
X5992600Y-18344143D01*
X5978314Y-18358429D01*
X5949743Y-18372714D01*
X5864028Y-18372714D01*
X5835457Y-18358429D01*
X5821171Y-18344143D01*
X6364028Y-18372714D02*
X6364028Y-18072714D01*
X6492600Y-18372714D02*
X6492600Y-18215572D01*
X6478314Y-18187000D01*
X6449743Y-18172714D01*
X6406886Y-18172714D01*
X6378314Y-18187000D01*
X6364028Y-18201286D01*
X6678314Y-18372714D02*
X6649743Y-18358429D01*
X6635457Y-18344143D01*
X6621171Y-18315572D01*
X6621171Y-18229857D01*
X6635457Y-18201286D01*
X6649743Y-18187000D01*
X6678314Y-18172714D01*
X6721171Y-18172714D01*
X6749743Y-18187000D01*
X6764028Y-18201286D01*
X6778314Y-18229857D01*
X6778314Y-18315572D01*
X6764028Y-18344143D01*
X6749743Y-18358429D01*
X6721171Y-18372714D01*
X6678314Y-18372714D01*
X6949743Y-18372714D02*
X6921171Y-18358429D01*
X6906886Y-18329857D01*
X6906886Y-18072714D01*
X7178314Y-18358429D02*
X7149743Y-18372714D01*
X7092600Y-18372714D01*
X7064028Y-18358429D01*
X7049743Y-18329857D01*
X7049743Y-18215572D01*
X7064028Y-18187000D01*
X7092600Y-18172714D01*
X7149743Y-18172714D01*
X7178314Y-18187000D01*
X7192600Y-18215572D01*
X7192600Y-18244143D01*
X7049743Y-18272714D01*
X7306886Y-18358429D02*
X7335457Y-18372714D01*
X7392600Y-18372714D01*
X7421171Y-18358429D01*
X7435457Y-18329857D01*
X7435457Y-18315572D01*
X7421171Y-18287000D01*
X7392600Y-18272714D01*
X7349743Y-18272714D01*
X7321171Y-18258429D01*
X7306886Y-18229857D01*
X7306886Y-18215572D01*
X7321171Y-18187000D01*
X7349743Y-18172714D01*
X7392600Y-18172714D01*
X7421171Y-18187000D01*
X7535457Y-18487000D02*
X7549743Y-18472714D01*
X7578314Y-18429857D01*
X7592600Y-18401286D01*
X7606886Y-18358429D01*
X7621171Y-18287000D01*
X7621171Y-18229857D01*
X7606886Y-18158429D01*
X7592600Y-18115572D01*
X7578314Y-18087000D01*
X7549743Y-18044143D01*
X7535457Y-18029857D01*
X477600Y-18633000D02*
G75*
G03*
X477600Y-18633000I-25000J0D01*
G01*
X821171Y-18468714D02*
X849743Y-18468714D01*
X878314Y-18483000D01*
X892600Y-18497286D01*
X906886Y-18525857D01*
X921171Y-18583000D01*
X921171Y-18654429D01*
X906886Y-18711572D01*
X892600Y-18740143D01*
X878314Y-18754429D01*
X849743Y-18768714D01*
X821171Y-18768714D01*
X792600Y-18754429D01*
X778314Y-18740143D01*
X764028Y-18711572D01*
X749743Y-18654429D01*
X749743Y-18583000D01*
X764028Y-18525857D01*
X778314Y-18497286D01*
X792600Y-18483000D01*
X821171Y-18468714D01*
X1049743Y-18740143D02*
X1064028Y-18754429D01*
X1049743Y-18768714D01*
X1035457Y-18754429D01*
X1049743Y-18740143D01*
X1049743Y-18768714D01*
X1335457Y-18468714D02*
X1192600Y-18468714D01*
X1178314Y-18611572D01*
X1192600Y-18597286D01*
X1221171Y-18583000D01*
X1292600Y-18583000D01*
X1321171Y-18597286D01*
X1335457Y-18611572D01*
X1349743Y-18640143D01*
X1349743Y-18711572D01*
X1335457Y-18740143D01*
X1321171Y-18754429D01*
X1292600Y-18768714D01*
X1221171Y-18768714D01*
X1192600Y-18754429D01*
X1178314Y-18740143D01*
X1535457Y-18468714D02*
X1564028Y-18468714D01*
X1592600Y-18483000D01*
X1606886Y-18497286D01*
X1621171Y-18525857D01*
X1635457Y-18583000D01*
X1635457Y-18654429D01*
X1621171Y-18711572D01*
X1606886Y-18740143D01*
X1592600Y-18754429D01*
X1564028Y-18768714D01*
X1535457Y-18768714D01*
X1506886Y-18754429D01*
X1492600Y-18740143D01*
X1478314Y-18711572D01*
X1464028Y-18654429D01*
X1464028Y-18583000D01*
X1478314Y-18525857D01*
X1492600Y-18497286D01*
X1506886Y-18483000D01*
X1535457Y-18468714D01*
X1764028Y-18768714D02*
X1764028Y-18568714D01*
X1764028Y-18597286D02*
X1778314Y-18583000D01*
X1806886Y-18568714D01*
X1849743Y-18568714D01*
X1878314Y-18583000D01*
X1892600Y-18611572D01*
X1892600Y-18768714D01*
X1892600Y-18611572D02*
X1906886Y-18583000D01*
X1935457Y-18568714D01*
X1978314Y-18568714D01*
X2006886Y-18583000D01*
X2021171Y-18611572D01*
X2021171Y-18768714D01*
X2164028Y-18768714D02*
X2164028Y-18568714D01*
X2164028Y-18597286D02*
X2178314Y-18583000D01*
X2206886Y-18568714D01*
X2249743Y-18568714D01*
X2278314Y-18583000D01*
X2292600Y-18611572D01*
X2292600Y-18768714D01*
X2292600Y-18611572D02*
X2306886Y-18583000D01*
X2335457Y-18568714D01*
X2378314Y-18568714D01*
X2406886Y-18583000D01*
X2421171Y-18611572D01*
X2421171Y-18768714D01*
X3006886Y-18454429D02*
X2749743Y-18840143D01*
X3392600Y-18468714D02*
X3421171Y-18468714D01*
X3449743Y-18483000D01*
X3464028Y-18497286D01*
X3478314Y-18525857D01*
X3492600Y-18583000D01*
X3492600Y-18654429D01*
X3478314Y-18711572D01*
X3464028Y-18740143D01*
X3449743Y-18754429D01*
X3421171Y-18768714D01*
X3392600Y-18768714D01*
X3364028Y-18754429D01*
X3349743Y-18740143D01*
X3335457Y-18711572D01*
X3321171Y-18654429D01*
X3321171Y-18583000D01*
X3335457Y-18525857D01*
X3349743Y-18497286D01*
X3364028Y-18483000D01*
X3392600Y-18468714D01*
X3621171Y-18740143D02*
X3635457Y-18754429D01*
X3621171Y-18768714D01*
X3606886Y-18754429D01*
X3621171Y-18740143D01*
X3621171Y-18768714D01*
X3821171Y-18468714D02*
X3849743Y-18468714D01*
X3878314Y-18483000D01*
X3892600Y-18497286D01*
X3906886Y-18525857D01*
X3921171Y-18583000D01*
X3921171Y-18654429D01*
X3906886Y-18711572D01*
X3892600Y-18740143D01*
X3878314Y-18754429D01*
X3849743Y-18768714D01*
X3821171Y-18768714D01*
X3792600Y-18754429D01*
X3778314Y-18740143D01*
X3764028Y-18711572D01*
X3749743Y-18654429D01*
X3749743Y-18583000D01*
X3764028Y-18525857D01*
X3778314Y-18497286D01*
X3792600Y-18483000D01*
X3821171Y-18468714D01*
X4035457Y-18497286D02*
X4049743Y-18483000D01*
X4078314Y-18468714D01*
X4149743Y-18468714D01*
X4178314Y-18483000D01*
X4192600Y-18497286D01*
X4206886Y-18525857D01*
X4206886Y-18554429D01*
X4192600Y-18597286D01*
X4021171Y-18768714D01*
X4206886Y-18768714D01*
X4392600Y-18468714D02*
X4421171Y-18468714D01*
X4449743Y-18483000D01*
X4464028Y-18497286D01*
X4478314Y-18525857D01*
X4492600Y-18583000D01*
X4492600Y-18654429D01*
X4478314Y-18711572D01*
X4464028Y-18740143D01*
X4449743Y-18754429D01*
X4421171Y-18768714D01*
X4392600Y-18768714D01*
X4364028Y-18754429D01*
X4349743Y-18740143D01*
X4335457Y-18711572D01*
X4321171Y-18654429D01*
X4321171Y-18583000D01*
X4335457Y-18525857D01*
X4349743Y-18497286D01*
X4364028Y-18483000D01*
X4392600Y-18468714D01*
X4606886Y-18468714D02*
X4606886Y-18525857D01*
X4721171Y-18468714D02*
X4721171Y-18525857D01*
X5164028Y-18883000D02*
X5149743Y-18868714D01*
X5121171Y-18825857D01*
X5106886Y-18797286D01*
X5092600Y-18754429D01*
X5078314Y-18683000D01*
X5078314Y-18625857D01*
X5092600Y-18554429D01*
X5106886Y-18511572D01*
X5121171Y-18483000D01*
X5149743Y-18440143D01*
X5164028Y-18425857D01*
X5335457Y-18468714D02*
X5364028Y-18468714D01*
X5392600Y-18483000D01*
X5406886Y-18497286D01*
X5421171Y-18525857D01*
X5435457Y-18583000D01*
X5435457Y-18654429D01*
X5421171Y-18711572D01*
X5406886Y-18740143D01*
X5392600Y-18754429D01*
X5364028Y-18768714D01*
X5335457Y-18768714D01*
X5306886Y-18754429D01*
X5292600Y-18740143D01*
X5278314Y-18711572D01*
X5264028Y-18654429D01*
X5264028Y-18583000D01*
X5278314Y-18525857D01*
X5292600Y-18497286D01*
X5306886Y-18483000D01*
X5335457Y-18468714D01*
X5792600Y-18768714D02*
X5792600Y-18468714D01*
X5921171Y-18768714D02*
X5921171Y-18611572D01*
X5906886Y-18583000D01*
X5878314Y-18568714D01*
X5835457Y-18568714D01*
X5806886Y-18583000D01*
X5792600Y-18597286D01*
X6106886Y-18768714D02*
X6078314Y-18754429D01*
X6064028Y-18740143D01*
X6049743Y-18711572D01*
X6049743Y-18625857D01*
X6064028Y-18597286D01*
X6078314Y-18583000D01*
X6106886Y-18568714D01*
X6149743Y-18568714D01*
X6178314Y-18583000D01*
X6192600Y-18597286D01*
X6206886Y-18625857D01*
X6206886Y-18711572D01*
X6192600Y-18740143D01*
X6178314Y-18754429D01*
X6149743Y-18768714D01*
X6106886Y-18768714D01*
X6378314Y-18768714D02*
X6349743Y-18754429D01*
X6335457Y-18725857D01*
X6335457Y-18468714D01*
X6606886Y-18754429D02*
X6578314Y-18768714D01*
X6521171Y-18768714D01*
X6492600Y-18754429D01*
X6478314Y-18725857D01*
X6478314Y-18611572D01*
X6492600Y-18583000D01*
X6521171Y-18568714D01*
X6578314Y-18568714D01*
X6606886Y-18583000D01*
X6621171Y-18611572D01*
X6621171Y-18640143D01*
X6478314Y-18668714D01*
X6735457Y-18754429D02*
X6764028Y-18768714D01*
X6821171Y-18768714D01*
X6849743Y-18754429D01*
X6864028Y-18725857D01*
X6864028Y-18711572D01*
X6849743Y-18683000D01*
X6821171Y-18668714D01*
X6778314Y-18668714D01*
X6749743Y-18654429D01*
X6735457Y-18625857D01*
X6735457Y-18611572D01*
X6749743Y-18583000D01*
X6778314Y-18568714D01*
X6821171Y-18568714D01*
X6849743Y-18583000D01*
X7221171Y-18654429D02*
X7449743Y-18654429D01*
X7335457Y-18768714D02*
X7335457Y-18540143D01*
X7792600Y-18468714D02*
X7992600Y-18468714D01*
X7864028Y-18768714D01*
X8149743Y-18597286D02*
X8121171Y-18583000D01*
X8106886Y-18568714D01*
X8092600Y-18540143D01*
X8092600Y-18525857D01*
X8106886Y-18497286D01*
X8121171Y-18483000D01*
X8149743Y-18468714D01*
X8206886Y-18468714D01*
X8235457Y-18483000D01*
X8249743Y-18497286D01*
X8264028Y-18525857D01*
X8264028Y-18540143D01*
X8249743Y-18568714D01*
X8235457Y-18583000D01*
X8206886Y-18597286D01*
X8149743Y-18597286D01*
X8121171Y-18611572D01*
X8106886Y-18625857D01*
X8092600Y-18654429D01*
X8092600Y-18711572D01*
X8106886Y-18740143D01*
X8121171Y-18754429D01*
X8149743Y-18768714D01*
X8206886Y-18768714D01*
X8235457Y-18754429D01*
X8249743Y-18740143D01*
X8264028Y-18711572D01*
X8264028Y-18654429D01*
X8249743Y-18625857D01*
X8235457Y-18611572D01*
X8206886Y-18597286D01*
X8606886Y-18754429D02*
X8635457Y-18768714D01*
X8692600Y-18768714D01*
X8721171Y-18754429D01*
X8735457Y-18725857D01*
X8735457Y-18711572D01*
X8721171Y-18683000D01*
X8692600Y-18668714D01*
X8649743Y-18668714D01*
X8621171Y-18654429D01*
X8606886Y-18625857D01*
X8606886Y-18611572D01*
X8621171Y-18583000D01*
X8649743Y-18568714D01*
X8692600Y-18568714D01*
X8721171Y-18583000D01*
X8906886Y-18768714D02*
X8878314Y-18754429D01*
X8864028Y-18725857D01*
X8864028Y-18468714D01*
X9064028Y-18768714D02*
X9035457Y-18754429D01*
X9021171Y-18740143D01*
X9006886Y-18711572D01*
X9006886Y-18625857D01*
X9021171Y-18597286D01*
X9035457Y-18583000D01*
X9064028Y-18568714D01*
X9106886Y-18568714D01*
X9135457Y-18583000D01*
X9149743Y-18597286D01*
X9164028Y-18625857D01*
X9164028Y-18711572D01*
X9149743Y-18740143D01*
X9135457Y-18754429D01*
X9106886Y-18768714D01*
X9064028Y-18768714D01*
X9249743Y-18568714D02*
X9364028Y-18568714D01*
X9292600Y-18468714D02*
X9292600Y-18725857D01*
X9306886Y-18754429D01*
X9335457Y-18768714D01*
X9364028Y-18768714D01*
X9449743Y-18754429D02*
X9478314Y-18768714D01*
X9535457Y-18768714D01*
X9564028Y-18754429D01*
X9578314Y-18725857D01*
X9578314Y-18711572D01*
X9564028Y-18683000D01*
X9535457Y-18668714D01*
X9492600Y-18668714D01*
X9464028Y-18654429D01*
X9449743Y-18625857D01*
X9449743Y-18611572D01*
X9464028Y-18583000D01*
X9492600Y-18568714D01*
X9535457Y-18568714D01*
X9564028Y-18583000D01*
X9678314Y-18883000D02*
X9692600Y-18868714D01*
X9721171Y-18825857D01*
X9735457Y-18797286D01*
X9749743Y-18754429D01*
X9764028Y-18683000D01*
X9764028Y-18625857D01*
X9749743Y-18554429D01*
X9735457Y-18511572D01*
X9721171Y-18483000D01*
X9692600Y-18440143D01*
X9678314Y-18425857D01*
X447600Y-18999000D02*
X447600Y-19059000D01*
X417600Y-19029000D02*
X477600Y-19029000D01*
X821171Y-18864714D02*
X849743Y-18864714D01*
X878314Y-18879000D01*
X892600Y-18893286D01*
X906886Y-18921857D01*
X921171Y-18979000D01*
X921171Y-19050429D01*
X906886Y-19107572D01*
X892600Y-19136143D01*
X878314Y-19150429D01*
X849743Y-19164714D01*
X821171Y-19164714D01*
X792600Y-19150429D01*
X778314Y-19136143D01*
X764028Y-19107572D01*
X749743Y-19050429D01*
X749743Y-18979000D01*
X764028Y-18921857D01*
X778314Y-18893286D01*
X792600Y-18879000D01*
X821171Y-18864714D01*
X1049743Y-19136143D02*
X1064028Y-19150429D01*
X1049743Y-19164714D01*
X1035457Y-19150429D01*
X1049743Y-19136143D01*
X1049743Y-19164714D01*
X1321171Y-18864714D02*
X1264028Y-18864714D01*
X1235457Y-18879000D01*
X1221171Y-18893286D01*
X1192600Y-18936143D01*
X1178314Y-18993286D01*
X1178314Y-19107572D01*
X1192600Y-19136143D01*
X1206886Y-19150429D01*
X1235457Y-19164714D01*
X1292600Y-19164714D01*
X1321171Y-19150429D01*
X1335457Y-19136143D01*
X1349743Y-19107572D01*
X1349743Y-19036143D01*
X1335457Y-19007572D01*
X1321171Y-18993286D01*
X1292600Y-18979000D01*
X1235457Y-18979000D01*
X1206886Y-18993286D01*
X1192600Y-19007572D01*
X1178314Y-19036143D01*
X1535457Y-18864714D02*
X1564028Y-18864714D01*
X1592600Y-18879000D01*
X1606886Y-18893286D01*
X1621171Y-18921857D01*
X1635457Y-18979000D01*
X1635457Y-19050429D01*
X1621171Y-19107572D01*
X1606886Y-19136143D01*
X1592600Y-19150429D01*
X1564028Y-19164714D01*
X1535457Y-19164714D01*
X1506886Y-19150429D01*
X1492600Y-19136143D01*
X1478314Y-19107572D01*
X1464028Y-19050429D01*
X1464028Y-18979000D01*
X1478314Y-18921857D01*
X1492600Y-18893286D01*
X1506886Y-18879000D01*
X1535457Y-18864714D01*
X1764028Y-19164714D02*
X1764028Y-18964714D01*
X1764028Y-18993286D02*
X1778314Y-18979000D01*
X1806886Y-18964714D01*
X1849743Y-18964714D01*
X1878314Y-18979000D01*
X1892600Y-19007572D01*
X1892600Y-19164714D01*
X1892600Y-19007572D02*
X1906886Y-18979000D01*
X1935457Y-18964714D01*
X1978314Y-18964714D01*
X2006886Y-18979000D01*
X2021171Y-19007572D01*
X2021171Y-19164714D01*
X2164028Y-19164714D02*
X2164028Y-18964714D01*
X2164028Y-18993286D02*
X2178314Y-18979000D01*
X2206886Y-18964714D01*
X2249743Y-18964714D01*
X2278314Y-18979000D01*
X2292600Y-19007572D01*
X2292600Y-19164714D01*
X2292600Y-19007572D02*
X2306886Y-18979000D01*
X2335457Y-18964714D01*
X2378314Y-18964714D01*
X2406886Y-18979000D01*
X2421171Y-19007572D01*
X2421171Y-19164714D01*
X3006886Y-18850429D02*
X2749743Y-19236143D01*
X3392600Y-18864714D02*
X3421171Y-18864714D01*
X3449743Y-18879000D01*
X3464028Y-18893286D01*
X3478314Y-18921857D01*
X3492600Y-18979000D01*
X3492600Y-19050429D01*
X3478314Y-19107572D01*
X3464028Y-19136143D01*
X3449743Y-19150429D01*
X3421171Y-19164714D01*
X3392600Y-19164714D01*
X3364028Y-19150429D01*
X3349743Y-19136143D01*
X3335457Y-19107572D01*
X3321171Y-19050429D01*
X3321171Y-18979000D01*
X3335457Y-18921857D01*
X3349743Y-18893286D01*
X3364028Y-18879000D01*
X3392600Y-18864714D01*
X3621171Y-19136143D02*
X3635457Y-19150429D01*
X3621171Y-19164714D01*
X3606886Y-19150429D01*
X3621171Y-19136143D01*
X3621171Y-19164714D01*
X3821171Y-18864714D02*
X3849743Y-18864714D01*
X3878314Y-18879000D01*
X3892600Y-18893286D01*
X3906886Y-18921857D01*
X3921171Y-18979000D01*
X3921171Y-19050429D01*
X3906886Y-19107572D01*
X3892600Y-19136143D01*
X3878314Y-19150429D01*
X3849743Y-19164714D01*
X3821171Y-19164714D01*
X3792600Y-19150429D01*
X3778314Y-19136143D01*
X3764028Y-19107572D01*
X3749743Y-19050429D01*
X3749743Y-18979000D01*
X3764028Y-18921857D01*
X3778314Y-18893286D01*
X3792600Y-18879000D01*
X3821171Y-18864714D01*
X4035457Y-18893286D02*
X4049743Y-18879000D01*
X4078314Y-18864714D01*
X4149743Y-18864714D01*
X4178314Y-18879000D01*
X4192600Y-18893286D01*
X4206886Y-18921857D01*
X4206886Y-18950429D01*
X4192600Y-18993286D01*
X4021171Y-19164714D01*
X4206886Y-19164714D01*
X4464028Y-18964714D02*
X4464028Y-19164714D01*
X4392600Y-18850429D02*
X4321171Y-19064714D01*
X4506886Y-19064714D01*
X4606886Y-18864714D02*
X4606886Y-18921857D01*
X4721171Y-18864714D02*
X4721171Y-18921857D01*
X5164028Y-19279000D02*
X5149743Y-19264714D01*
X5121171Y-19221857D01*
X5106886Y-19193286D01*
X5092600Y-19150429D01*
X5078314Y-19079000D01*
X5078314Y-19021857D01*
X5092600Y-18950429D01*
X5106886Y-18907572D01*
X5121171Y-18879000D01*
X5149743Y-18836143D01*
X5164028Y-18821857D01*
X5335457Y-18864714D02*
X5364028Y-18864714D01*
X5392600Y-18879000D01*
X5406886Y-18893286D01*
X5421171Y-18921857D01*
X5435457Y-18979000D01*
X5435457Y-19050429D01*
X5421171Y-19107572D01*
X5406886Y-19136143D01*
X5392600Y-19150429D01*
X5364028Y-19164714D01*
X5335457Y-19164714D01*
X5306886Y-19150429D01*
X5292600Y-19136143D01*
X5278314Y-19107572D01*
X5264028Y-19050429D01*
X5264028Y-18979000D01*
X5278314Y-18921857D01*
X5292600Y-18893286D01*
X5306886Y-18879000D01*
X5335457Y-18864714D01*
X5792600Y-19164714D02*
X5792600Y-18864714D01*
X5921171Y-19164714D02*
X5921171Y-19007572D01*
X5906886Y-18979000D01*
X5878314Y-18964714D01*
X5835457Y-18964714D01*
X5806886Y-18979000D01*
X5792600Y-18993286D01*
X6106886Y-19164714D02*
X6078314Y-19150429D01*
X6064028Y-19136143D01*
X6049743Y-19107572D01*
X6049743Y-19021857D01*
X6064028Y-18993286D01*
X6078314Y-18979000D01*
X6106886Y-18964714D01*
X6149743Y-18964714D01*
X6178314Y-18979000D01*
X6192600Y-18993286D01*
X6206886Y-19021857D01*
X6206886Y-19107572D01*
X6192600Y-19136143D01*
X6178314Y-19150429D01*
X6149743Y-19164714D01*
X6106886Y-19164714D01*
X6378314Y-19164714D02*
X6349743Y-19150429D01*
X6335457Y-19121857D01*
X6335457Y-18864714D01*
X6606886Y-19150429D02*
X6578314Y-19164714D01*
X6521171Y-19164714D01*
X6492600Y-19150429D01*
X6478314Y-19121857D01*
X6478314Y-19007572D01*
X6492600Y-18979000D01*
X6521171Y-18964714D01*
X6578314Y-18964714D01*
X6606886Y-18979000D01*
X6621171Y-19007572D01*
X6621171Y-19036143D01*
X6478314Y-19064714D01*
X6735457Y-19150429D02*
X6764028Y-19164714D01*
X6821171Y-19164714D01*
X6849743Y-19150429D01*
X6864028Y-19121857D01*
X6864028Y-19107572D01*
X6849743Y-19079000D01*
X6821171Y-19064714D01*
X6778314Y-19064714D01*
X6749743Y-19050429D01*
X6735457Y-19021857D01*
X6735457Y-19007572D01*
X6749743Y-18979000D01*
X6778314Y-18964714D01*
X6821171Y-18964714D01*
X6849743Y-18979000D01*
X7221171Y-19050429D02*
X7449743Y-19050429D01*
X7335457Y-19164714D02*
X7335457Y-18936143D01*
X7806886Y-18893286D02*
X7821171Y-18879000D01*
X7849743Y-18864714D01*
X7921171Y-18864714D01*
X7949743Y-18879000D01*
X7964028Y-18893286D01*
X7978314Y-18921857D01*
X7978314Y-18950429D01*
X7964028Y-18993286D01*
X7792600Y-19164714D01*
X7978314Y-19164714D01*
X8321171Y-19150429D02*
X8349743Y-19164714D01*
X8406886Y-19164714D01*
X8435457Y-19150429D01*
X8449743Y-19121857D01*
X8449743Y-19107572D01*
X8435457Y-19079000D01*
X8406886Y-19064714D01*
X8364028Y-19064714D01*
X8335457Y-19050429D01*
X8321171Y-19021857D01*
X8321171Y-19007572D01*
X8335457Y-18979000D01*
X8364028Y-18964714D01*
X8406886Y-18964714D01*
X8435457Y-18979000D01*
X8621171Y-19164714D02*
X8592600Y-19150429D01*
X8578314Y-19121857D01*
X8578314Y-18864714D01*
X8778314Y-19164714D02*
X8749743Y-19150429D01*
X8735457Y-19136143D01*
X8721171Y-19107572D01*
X8721171Y-19021857D01*
X8735457Y-18993286D01*
X8749743Y-18979000D01*
X8778314Y-18964714D01*
X8821171Y-18964714D01*
X8849743Y-18979000D01*
X8864028Y-18993286D01*
X8878314Y-19021857D01*
X8878314Y-19107572D01*
X8864028Y-19136143D01*
X8849743Y-19150429D01*
X8821171Y-19164714D01*
X8778314Y-19164714D01*
X8964028Y-18964714D02*
X9078314Y-18964714D01*
X9006886Y-18864714D02*
X9006886Y-19121857D01*
X9021171Y-19150429D01*
X9049743Y-19164714D01*
X9078314Y-19164714D01*
X9164028Y-19150429D02*
X9192600Y-19164714D01*
X9249743Y-19164714D01*
X9278314Y-19150429D01*
X9292600Y-19121857D01*
X9292600Y-19107572D01*
X9278314Y-19079000D01*
X9249743Y-19064714D01*
X9206886Y-19064714D01*
X9178314Y-19050429D01*
X9164028Y-19021857D01*
X9164028Y-19007572D01*
X9178314Y-18979000D01*
X9206886Y-18964714D01*
X9249743Y-18964714D01*
X9278314Y-18979000D01*
X9392600Y-19279000D02*
X9406886Y-19264714D01*
X9435457Y-19221857D01*
X9449743Y-19193286D01*
X9464028Y-19150429D01*
X9478314Y-19079000D01*
X9478314Y-19021857D01*
X9464028Y-18950429D01*
X9449743Y-18907572D01*
X9435457Y-18879000D01*
X9406886Y-18836143D01*
X9392600Y-18821857D01*
X467349Y-19449749D02*
X467349Y-19400251D01*
X417851Y-19400251D01*
X417851Y-19449749D01*
X467349Y-19449749D01*
X821171Y-19260714D02*
X849743Y-19260714D01*
X878314Y-19275000D01*
X892600Y-19289286D01*
X906886Y-19317857D01*
X921171Y-19375000D01*
X921171Y-19446429D01*
X906886Y-19503572D01*
X892600Y-19532143D01*
X878314Y-19546429D01*
X849743Y-19560714D01*
X821171Y-19560714D01*
X792600Y-19546429D01*
X778314Y-19532143D01*
X764028Y-19503572D01*
X749743Y-19446429D01*
X749743Y-19375000D01*
X764028Y-19317857D01*
X778314Y-19289286D01*
X792600Y-19275000D01*
X821171Y-19260714D01*
X1049743Y-19532143D02*
X1064028Y-19546429D01*
X1049743Y-19560714D01*
X1035457Y-19546429D01*
X1049743Y-19532143D01*
X1049743Y-19560714D01*
X1164028Y-19260714D02*
X1364028Y-19260714D01*
X1235457Y-19560714D01*
X1535457Y-19260714D02*
X1564028Y-19260714D01*
X1592600Y-19275000D01*
X1606886Y-19289286D01*
X1621171Y-19317857D01*
X1635457Y-19375000D01*
X1635457Y-19446429D01*
X1621171Y-19503572D01*
X1606886Y-19532143D01*
X1592600Y-19546429D01*
X1564028Y-19560714D01*
X1535457Y-19560714D01*
X1506886Y-19546429D01*
X1492600Y-19532143D01*
X1478314Y-19503572D01*
X1464028Y-19446429D01*
X1464028Y-19375000D01*
X1478314Y-19317857D01*
X1492600Y-19289286D01*
X1506886Y-19275000D01*
X1535457Y-19260714D01*
X1764028Y-19560714D02*
X1764028Y-19360714D01*
X1764028Y-19389286D02*
X1778314Y-19375000D01*
X1806886Y-19360714D01*
X1849743Y-19360714D01*
X1878314Y-19375000D01*
X1892600Y-19403572D01*
X1892600Y-19560714D01*
X1892600Y-19403572D02*
X1906886Y-19375000D01*
X1935457Y-19360714D01*
X1978314Y-19360714D01*
X2006886Y-19375000D01*
X2021171Y-19403572D01*
X2021171Y-19560714D01*
X2164028Y-19560714D02*
X2164028Y-19360714D01*
X2164028Y-19389286D02*
X2178314Y-19375000D01*
X2206886Y-19360714D01*
X2249743Y-19360714D01*
X2278314Y-19375000D01*
X2292600Y-19403572D01*
X2292600Y-19560714D01*
X2292600Y-19403572D02*
X2306886Y-19375000D01*
X2335457Y-19360714D01*
X2378314Y-19360714D01*
X2406886Y-19375000D01*
X2421171Y-19403572D01*
X2421171Y-19560714D01*
X3006886Y-19246429D02*
X2749743Y-19632143D01*
X3392600Y-19260714D02*
X3421171Y-19260714D01*
X3449743Y-19275000D01*
X3464028Y-19289286D01*
X3478314Y-19317857D01*
X3492600Y-19375000D01*
X3492600Y-19446429D01*
X3478314Y-19503572D01*
X3464028Y-19532143D01*
X3449743Y-19546429D01*
X3421171Y-19560714D01*
X3392600Y-19560714D01*
X3364028Y-19546429D01*
X3349743Y-19532143D01*
X3335457Y-19503572D01*
X3321171Y-19446429D01*
X3321171Y-19375000D01*
X3335457Y-19317857D01*
X3349743Y-19289286D01*
X3364028Y-19275000D01*
X3392600Y-19260714D01*
X3621171Y-19532143D02*
X3635457Y-19546429D01*
X3621171Y-19560714D01*
X3606886Y-19546429D01*
X3621171Y-19532143D01*
X3621171Y-19560714D01*
X3821171Y-19260714D02*
X3849743Y-19260714D01*
X3878314Y-19275000D01*
X3892600Y-19289286D01*
X3906886Y-19317857D01*
X3921171Y-19375000D01*
X3921171Y-19446429D01*
X3906886Y-19503572D01*
X3892600Y-19532143D01*
X3878314Y-19546429D01*
X3849743Y-19560714D01*
X3821171Y-19560714D01*
X3792600Y-19546429D01*
X3778314Y-19532143D01*
X3764028Y-19503572D01*
X3749743Y-19446429D01*
X3749743Y-19375000D01*
X3764028Y-19317857D01*
X3778314Y-19289286D01*
X3792600Y-19275000D01*
X3821171Y-19260714D01*
X4035457Y-19289286D02*
X4049743Y-19275000D01*
X4078314Y-19260714D01*
X4149743Y-19260714D01*
X4178314Y-19275000D01*
X4192600Y-19289286D01*
X4206886Y-19317857D01*
X4206886Y-19346429D01*
X4192600Y-19389286D01*
X4021171Y-19560714D01*
X4206886Y-19560714D01*
X4378314Y-19389286D02*
X4349743Y-19375000D01*
X4335457Y-19360714D01*
X4321171Y-19332143D01*
X4321171Y-19317857D01*
X4335457Y-19289286D01*
X4349743Y-19275000D01*
X4378314Y-19260714D01*
X4435457Y-19260714D01*
X4464028Y-19275000D01*
X4478314Y-19289286D01*
X4492600Y-19317857D01*
X4492600Y-19332143D01*
X4478314Y-19360714D01*
X4464028Y-19375000D01*
X4435457Y-19389286D01*
X4378314Y-19389286D01*
X4349743Y-19403572D01*
X4335457Y-19417857D01*
X4321171Y-19446429D01*
X4321171Y-19503572D01*
X4335457Y-19532143D01*
X4349743Y-19546429D01*
X4378314Y-19560714D01*
X4435457Y-19560714D01*
X4464028Y-19546429D01*
X4478314Y-19532143D01*
X4492600Y-19503572D01*
X4492600Y-19446429D01*
X4478314Y-19417857D01*
X4464028Y-19403572D01*
X4435457Y-19389286D01*
X4606886Y-19260714D02*
X4606886Y-19317857D01*
X4721171Y-19260714D02*
X4721171Y-19317857D01*
X5164028Y-19675000D02*
X5149743Y-19660714D01*
X5121171Y-19617857D01*
X5106886Y-19589286D01*
X5092600Y-19546429D01*
X5078314Y-19475000D01*
X5078314Y-19417857D01*
X5092600Y-19346429D01*
X5106886Y-19303572D01*
X5121171Y-19275000D01*
X5149743Y-19232143D01*
X5164028Y-19217857D01*
X5335457Y-19260714D02*
X5364028Y-19260714D01*
X5392600Y-19275000D01*
X5406886Y-19289286D01*
X5421171Y-19317857D01*
X5435457Y-19375000D01*
X5435457Y-19446429D01*
X5421171Y-19503572D01*
X5406886Y-19532143D01*
X5392600Y-19546429D01*
X5364028Y-19560714D01*
X5335457Y-19560714D01*
X5306886Y-19546429D01*
X5292600Y-19532143D01*
X5278314Y-19503572D01*
X5264028Y-19446429D01*
X5264028Y-19375000D01*
X5278314Y-19317857D01*
X5292600Y-19289286D01*
X5306886Y-19275000D01*
X5335457Y-19260714D01*
X5792600Y-19560714D02*
X5792600Y-19260714D01*
X5921171Y-19560714D02*
X5921171Y-19403572D01*
X5906886Y-19375000D01*
X5878314Y-19360714D01*
X5835457Y-19360714D01*
X5806886Y-19375000D01*
X5792600Y-19389286D01*
X6106886Y-19560714D02*
X6078314Y-19546429D01*
X6064028Y-19532143D01*
X6049743Y-19503572D01*
X6049743Y-19417857D01*
X6064028Y-19389286D01*
X6078314Y-19375000D01*
X6106886Y-19360714D01*
X6149743Y-19360714D01*
X6178314Y-19375000D01*
X6192600Y-19389286D01*
X6206886Y-19417857D01*
X6206886Y-19503572D01*
X6192600Y-19532143D01*
X6178314Y-19546429D01*
X6149743Y-19560714D01*
X6106886Y-19560714D01*
X6378314Y-19560714D02*
X6349743Y-19546429D01*
X6335457Y-19517857D01*
X6335457Y-19260714D01*
X6606886Y-19546429D02*
X6578314Y-19560714D01*
X6521171Y-19560714D01*
X6492600Y-19546429D01*
X6478314Y-19517857D01*
X6478314Y-19403572D01*
X6492600Y-19375000D01*
X6521171Y-19360714D01*
X6578314Y-19360714D01*
X6606886Y-19375000D01*
X6621171Y-19403572D01*
X6621171Y-19432143D01*
X6478314Y-19460714D01*
X6735457Y-19546429D02*
X6764028Y-19560714D01*
X6821171Y-19560714D01*
X6849743Y-19546429D01*
X6864028Y-19517857D01*
X6864028Y-19503572D01*
X6849743Y-19475000D01*
X6821171Y-19460714D01*
X6778314Y-19460714D01*
X6749743Y-19446429D01*
X6735457Y-19417857D01*
X6735457Y-19403572D01*
X6749743Y-19375000D01*
X6778314Y-19360714D01*
X6821171Y-19360714D01*
X6849743Y-19375000D01*
X7221171Y-19446429D02*
X7449743Y-19446429D01*
X7335457Y-19560714D02*
X7335457Y-19332143D01*
X7792600Y-19260714D02*
X7992600Y-19260714D01*
X7864028Y-19560714D01*
X8149743Y-19389286D02*
X8121171Y-19375000D01*
X8106886Y-19360714D01*
X8092600Y-19332143D01*
X8092600Y-19317857D01*
X8106886Y-19289286D01*
X8121171Y-19275000D01*
X8149743Y-19260714D01*
X8206886Y-19260714D01*
X8235457Y-19275000D01*
X8249743Y-19289286D01*
X8264028Y-19317857D01*
X8264028Y-19332143D01*
X8249743Y-19360714D01*
X8235457Y-19375000D01*
X8206886Y-19389286D01*
X8149743Y-19389286D01*
X8121171Y-19403572D01*
X8106886Y-19417857D01*
X8092600Y-19446429D01*
X8092600Y-19503572D01*
X8106886Y-19532143D01*
X8121171Y-19546429D01*
X8149743Y-19560714D01*
X8206886Y-19560714D01*
X8235457Y-19546429D01*
X8249743Y-19532143D01*
X8264028Y-19503572D01*
X8264028Y-19446429D01*
X8249743Y-19417857D01*
X8235457Y-19403572D01*
X8206886Y-19389286D01*
X8606886Y-19546429D02*
X8635457Y-19560714D01*
X8692600Y-19560714D01*
X8721171Y-19546429D01*
X8735457Y-19517857D01*
X8735457Y-19503572D01*
X8721171Y-19475000D01*
X8692600Y-19460714D01*
X8649743Y-19460714D01*
X8621171Y-19446429D01*
X8606886Y-19417857D01*
X8606886Y-19403572D01*
X8621171Y-19375000D01*
X8649743Y-19360714D01*
X8692600Y-19360714D01*
X8721171Y-19375000D01*
X8906886Y-19560714D02*
X8878314Y-19546429D01*
X8864028Y-19517857D01*
X8864028Y-19260714D01*
X9064028Y-19560714D02*
X9035457Y-19546429D01*
X9021171Y-19532143D01*
X9006886Y-19503572D01*
X9006886Y-19417857D01*
X9021171Y-19389286D01*
X9035457Y-19375000D01*
X9064028Y-19360714D01*
X9106886Y-19360714D01*
X9135457Y-19375000D01*
X9149743Y-19389286D01*
X9164028Y-19417857D01*
X9164028Y-19503572D01*
X9149743Y-19532143D01*
X9135457Y-19546429D01*
X9106886Y-19560714D01*
X9064028Y-19560714D01*
X9249743Y-19360714D02*
X9364028Y-19360714D01*
X9292600Y-19260714D02*
X9292600Y-19517857D01*
X9306886Y-19546429D01*
X9335457Y-19560714D01*
X9364028Y-19560714D01*
X9449743Y-19546429D02*
X9478314Y-19560714D01*
X9535457Y-19560714D01*
X9564028Y-19546429D01*
X9578314Y-19517857D01*
X9578314Y-19503572D01*
X9564028Y-19475000D01*
X9535457Y-19460714D01*
X9492600Y-19460714D01*
X9464028Y-19446429D01*
X9449743Y-19417857D01*
X9449743Y-19403572D01*
X9464028Y-19375000D01*
X9492600Y-19360714D01*
X9535457Y-19360714D01*
X9564028Y-19375000D01*
X9678314Y-19675000D02*
X9692600Y-19660714D01*
X9721171Y-19617857D01*
X9735457Y-19589286D01*
X9749743Y-19546429D01*
X9764028Y-19475000D01*
X9764028Y-19417857D01*
X9749743Y-19346429D01*
X9735457Y-19303572D01*
X9721171Y-19275000D01*
X9692600Y-19232143D01*
X9678314Y-19217857D01*
X437600Y-19861000D02*
X477600Y-19821000D01*
X437600Y-19781000D01*
X397600Y-19821000D01*
X437600Y-19861000D01*
X821171Y-19656714D02*
X849743Y-19656714D01*
X878314Y-19671000D01*
X892600Y-19685286D01*
X906886Y-19713857D01*
X921171Y-19771000D01*
X921171Y-19842429D01*
X906886Y-19899572D01*
X892600Y-19928143D01*
X878314Y-19942429D01*
X849743Y-19956714D01*
X821171Y-19956714D01*
X792600Y-19942429D01*
X778314Y-19928143D01*
X764028Y-19899572D01*
X749743Y-19842429D01*
X749743Y-19771000D01*
X764028Y-19713857D01*
X778314Y-19685286D01*
X792600Y-19671000D01*
X821171Y-19656714D01*
X1049743Y-19928143D02*
X1064028Y-19942429D01*
X1049743Y-19956714D01*
X1035457Y-19942429D01*
X1049743Y-19928143D01*
X1049743Y-19956714D01*
X1235457Y-19785286D02*
X1206886Y-19771000D01*
X1192600Y-19756714D01*
X1178314Y-19728143D01*
X1178314Y-19713857D01*
X1192600Y-19685286D01*
X1206886Y-19671000D01*
X1235457Y-19656714D01*
X1292600Y-19656714D01*
X1321171Y-19671000D01*
X1335457Y-19685286D01*
X1349743Y-19713857D01*
X1349743Y-19728143D01*
X1335457Y-19756714D01*
X1321171Y-19771000D01*
X1292600Y-19785286D01*
X1235457Y-19785286D01*
X1206886Y-19799572D01*
X1192600Y-19813857D01*
X1178314Y-19842429D01*
X1178314Y-19899572D01*
X1192600Y-19928143D01*
X1206886Y-19942429D01*
X1235457Y-19956714D01*
X1292600Y-19956714D01*
X1321171Y-19942429D01*
X1335457Y-19928143D01*
X1349743Y-19899572D01*
X1349743Y-19842429D01*
X1335457Y-19813857D01*
X1321171Y-19799572D01*
X1292600Y-19785286D01*
X1535457Y-19656714D02*
X1564028Y-19656714D01*
X1592600Y-19671000D01*
X1606886Y-19685286D01*
X1621171Y-19713857D01*
X1635457Y-19771000D01*
X1635457Y-19842429D01*
X1621171Y-19899572D01*
X1606886Y-19928143D01*
X1592600Y-19942429D01*
X1564028Y-19956714D01*
X1535457Y-19956714D01*
X1506886Y-19942429D01*
X1492600Y-19928143D01*
X1478314Y-19899572D01*
X1464028Y-19842429D01*
X1464028Y-19771000D01*
X1478314Y-19713857D01*
X1492600Y-19685286D01*
X1506886Y-19671000D01*
X1535457Y-19656714D01*
X1764028Y-19956714D02*
X1764028Y-19756714D01*
X1764028Y-19785286D02*
X1778314Y-19771000D01*
X1806886Y-19756714D01*
X1849743Y-19756714D01*
X1878314Y-19771000D01*
X1892600Y-19799572D01*
X1892600Y-19956714D01*
X1892600Y-19799572D02*
X1906886Y-19771000D01*
X1935457Y-19756714D01*
X1978314Y-19756714D01*
X2006886Y-19771000D01*
X2021171Y-19799572D01*
X2021171Y-19956714D01*
X2164028Y-19956714D02*
X2164028Y-19756714D01*
X2164028Y-19785286D02*
X2178314Y-19771000D01*
X2206886Y-19756714D01*
X2249743Y-19756714D01*
X2278314Y-19771000D01*
X2292600Y-19799572D01*
X2292600Y-19956714D01*
X2292600Y-19799572D02*
X2306886Y-19771000D01*
X2335457Y-19756714D01*
X2378314Y-19756714D01*
X2406886Y-19771000D01*
X2421171Y-19799572D01*
X2421171Y-19956714D01*
X3006886Y-19642429D02*
X2749743Y-20028143D01*
X3392600Y-19656714D02*
X3421171Y-19656714D01*
X3449743Y-19671000D01*
X3464028Y-19685286D01*
X3478314Y-19713857D01*
X3492600Y-19771000D01*
X3492600Y-19842429D01*
X3478314Y-19899572D01*
X3464028Y-19928143D01*
X3449743Y-19942429D01*
X3421171Y-19956714D01*
X3392600Y-19956714D01*
X3364028Y-19942429D01*
X3349743Y-19928143D01*
X3335457Y-19899572D01*
X3321171Y-19842429D01*
X3321171Y-19771000D01*
X3335457Y-19713857D01*
X3349743Y-19685286D01*
X3364028Y-19671000D01*
X3392600Y-19656714D01*
X3621171Y-19928143D02*
X3635457Y-19942429D01*
X3621171Y-19956714D01*
X3606886Y-19942429D01*
X3621171Y-19928143D01*
X3621171Y-19956714D01*
X3821171Y-19656714D02*
X3849743Y-19656714D01*
X3878314Y-19671000D01*
X3892600Y-19685286D01*
X3906886Y-19713857D01*
X3921171Y-19771000D01*
X3921171Y-19842429D01*
X3906886Y-19899572D01*
X3892600Y-19928143D01*
X3878314Y-19942429D01*
X3849743Y-19956714D01*
X3821171Y-19956714D01*
X3792600Y-19942429D01*
X3778314Y-19928143D01*
X3764028Y-19899572D01*
X3749743Y-19842429D01*
X3749743Y-19771000D01*
X3764028Y-19713857D01*
X3778314Y-19685286D01*
X3792600Y-19671000D01*
X3821171Y-19656714D01*
X4021171Y-19656714D02*
X4206886Y-19656714D01*
X4106886Y-19771000D01*
X4149743Y-19771000D01*
X4178314Y-19785286D01*
X4192600Y-19799572D01*
X4206886Y-19828143D01*
X4206886Y-19899572D01*
X4192600Y-19928143D01*
X4178314Y-19942429D01*
X4149743Y-19956714D01*
X4064028Y-19956714D01*
X4035457Y-19942429D01*
X4021171Y-19928143D01*
X4492600Y-19956714D02*
X4321171Y-19956714D01*
X4406886Y-19956714D02*
X4406886Y-19656714D01*
X4378314Y-19699572D01*
X4349743Y-19728143D01*
X4321171Y-19742429D01*
X4606886Y-19656714D02*
X4606886Y-19713857D01*
X4721171Y-19656714D02*
X4721171Y-19713857D01*
X5164028Y-20071000D02*
X5149743Y-20056714D01*
X5121171Y-20013857D01*
X5106886Y-19985286D01*
X5092600Y-19942429D01*
X5078314Y-19871000D01*
X5078314Y-19813857D01*
X5092600Y-19742429D01*
X5106886Y-19699572D01*
X5121171Y-19671000D01*
X5149743Y-19628143D01*
X5164028Y-19613857D01*
X5435457Y-19956714D02*
X5264028Y-19956714D01*
X5349743Y-19956714D02*
X5349743Y-19656714D01*
X5321171Y-19699572D01*
X5292600Y-19728143D01*
X5264028Y-19742429D01*
X5692600Y-19756714D02*
X5692600Y-19956714D01*
X5621171Y-19642429D02*
X5549743Y-19856714D01*
X5735457Y-19856714D01*
X6078314Y-19956714D02*
X6078314Y-19656714D01*
X6206886Y-19956714D02*
X6206886Y-19799572D01*
X6192600Y-19771000D01*
X6164028Y-19756714D01*
X6121171Y-19756714D01*
X6092600Y-19771000D01*
X6078314Y-19785286D01*
X6392600Y-19956714D02*
X6364028Y-19942429D01*
X6349743Y-19928143D01*
X6335457Y-19899572D01*
X6335457Y-19813857D01*
X6349743Y-19785286D01*
X6364028Y-19771000D01*
X6392600Y-19756714D01*
X6435457Y-19756714D01*
X6464028Y-19771000D01*
X6478314Y-19785286D01*
X6492600Y-19813857D01*
X6492600Y-19899572D01*
X6478314Y-19928143D01*
X6464028Y-19942429D01*
X6435457Y-19956714D01*
X6392600Y-19956714D01*
X6664028Y-19956714D02*
X6635457Y-19942429D01*
X6621171Y-19913857D01*
X6621171Y-19656714D01*
X6892600Y-19942429D02*
X6864028Y-19956714D01*
X6806886Y-19956714D01*
X6778314Y-19942429D01*
X6764028Y-19913857D01*
X6764028Y-19799572D01*
X6778314Y-19771000D01*
X6806886Y-19756714D01*
X6864028Y-19756714D01*
X6892600Y-19771000D01*
X6906886Y-19799572D01*
X6906886Y-19828143D01*
X6764028Y-19856714D01*
X7021171Y-19942429D02*
X7049743Y-19956714D01*
X7106886Y-19956714D01*
X7135457Y-19942429D01*
X7149743Y-19913857D01*
X7149743Y-19899572D01*
X7135457Y-19871000D01*
X7106886Y-19856714D01*
X7064028Y-19856714D01*
X7035457Y-19842429D01*
X7021171Y-19813857D01*
X7021171Y-19799572D01*
X7035457Y-19771000D01*
X7064028Y-19756714D01*
X7106886Y-19756714D01*
X7135457Y-19771000D01*
X7249743Y-20071000D02*
X7264028Y-20056714D01*
X7292600Y-20013857D01*
X7306886Y-19985286D01*
X7321171Y-19942429D01*
X7335457Y-19871000D01*
X7335457Y-19813857D01*
X7321171Y-19742429D01*
X7306886Y-19699572D01*
X7292600Y-19671000D01*
X7264028Y-19628143D01*
X7249743Y-19613857D01*
X392600Y-20174500D02*
X477600Y-20259500D01*
X477600Y-20174500D02*
X392600Y-20259500D01*
X477600Y-20217000D02*
G75*
G03*
X477600Y-20217000I-42500J0D01*
G01*
X821171Y-20052714D02*
X849743Y-20052714D01*
X878314Y-20067000D01*
X892600Y-20081286D01*
X906886Y-20109857D01*
X921171Y-20167000D01*
X921171Y-20238429D01*
X906886Y-20295572D01*
X892600Y-20324143D01*
X878314Y-20338429D01*
X849743Y-20352714D01*
X821171Y-20352714D01*
X792600Y-20338429D01*
X778314Y-20324143D01*
X764028Y-20295572D01*
X749743Y-20238429D01*
X749743Y-20167000D01*
X764028Y-20109857D01*
X778314Y-20081286D01*
X792600Y-20067000D01*
X821171Y-20052714D01*
X1049743Y-20324143D02*
X1064028Y-20338429D01*
X1049743Y-20352714D01*
X1035457Y-20338429D01*
X1049743Y-20324143D01*
X1049743Y-20352714D01*
X1235457Y-20181286D02*
X1206886Y-20167000D01*
X1192600Y-20152714D01*
X1178314Y-20124143D01*
X1178314Y-20109857D01*
X1192600Y-20081286D01*
X1206886Y-20067000D01*
X1235457Y-20052714D01*
X1292600Y-20052714D01*
X1321171Y-20067000D01*
X1335457Y-20081286D01*
X1349743Y-20109857D01*
X1349743Y-20124143D01*
X1335457Y-20152714D01*
X1321171Y-20167000D01*
X1292600Y-20181286D01*
X1235457Y-20181286D01*
X1206886Y-20195572D01*
X1192600Y-20209857D01*
X1178314Y-20238429D01*
X1178314Y-20295572D01*
X1192600Y-20324143D01*
X1206886Y-20338429D01*
X1235457Y-20352714D01*
X1292600Y-20352714D01*
X1321171Y-20338429D01*
X1335457Y-20324143D01*
X1349743Y-20295572D01*
X1349743Y-20238429D01*
X1335457Y-20209857D01*
X1321171Y-20195572D01*
X1292600Y-20181286D01*
X1621171Y-20052714D02*
X1478314Y-20052714D01*
X1464028Y-20195572D01*
X1478314Y-20181286D01*
X1506886Y-20167000D01*
X1578314Y-20167000D01*
X1606886Y-20181286D01*
X1621171Y-20195572D01*
X1635457Y-20224143D01*
X1635457Y-20295572D01*
X1621171Y-20324143D01*
X1606886Y-20338429D01*
X1578314Y-20352714D01*
X1506886Y-20352714D01*
X1478314Y-20338429D01*
X1464028Y-20324143D01*
X1764028Y-20352714D02*
X1764028Y-20152714D01*
X1764028Y-20181286D02*
X1778314Y-20167000D01*
X1806886Y-20152714D01*
X1849743Y-20152714D01*
X1878314Y-20167000D01*
X1892600Y-20195572D01*
X1892600Y-20352714D01*
X1892600Y-20195572D02*
X1906886Y-20167000D01*
X1935457Y-20152714D01*
X1978314Y-20152714D01*
X2006886Y-20167000D01*
X2021171Y-20195572D01*
X2021171Y-20352714D01*
X2164028Y-20352714D02*
X2164028Y-20152714D01*
X2164028Y-20181286D02*
X2178314Y-20167000D01*
X2206886Y-20152714D01*
X2249743Y-20152714D01*
X2278314Y-20167000D01*
X2292600Y-20195572D01*
X2292600Y-20352714D01*
X2292600Y-20195572D02*
X2306886Y-20167000D01*
X2335457Y-20152714D01*
X2378314Y-20152714D01*
X2406886Y-20167000D01*
X2421171Y-20195572D01*
X2421171Y-20352714D01*
X3006886Y-20038429D02*
X2749743Y-20424143D01*
X3392600Y-20052714D02*
X3421171Y-20052714D01*
X3449743Y-20067000D01*
X3464028Y-20081286D01*
X3478314Y-20109857D01*
X3492600Y-20167000D01*
X3492600Y-20238429D01*
X3478314Y-20295572D01*
X3464028Y-20324143D01*
X3449743Y-20338429D01*
X3421171Y-20352714D01*
X3392600Y-20352714D01*
X3364028Y-20338429D01*
X3349743Y-20324143D01*
X3335457Y-20295572D01*
X3321171Y-20238429D01*
X3321171Y-20167000D01*
X3335457Y-20109857D01*
X3349743Y-20081286D01*
X3364028Y-20067000D01*
X3392600Y-20052714D01*
X3621171Y-20324143D02*
X3635457Y-20338429D01*
X3621171Y-20352714D01*
X3606886Y-20338429D01*
X3621171Y-20324143D01*
X3621171Y-20352714D01*
X3821171Y-20052714D02*
X3849743Y-20052714D01*
X3878314Y-20067000D01*
X3892600Y-20081286D01*
X3906886Y-20109857D01*
X3921171Y-20167000D01*
X3921171Y-20238429D01*
X3906886Y-20295572D01*
X3892600Y-20324143D01*
X3878314Y-20338429D01*
X3849743Y-20352714D01*
X3821171Y-20352714D01*
X3792600Y-20338429D01*
X3778314Y-20324143D01*
X3764028Y-20295572D01*
X3749743Y-20238429D01*
X3749743Y-20167000D01*
X3764028Y-20109857D01*
X3778314Y-20081286D01*
X3792600Y-20067000D01*
X3821171Y-20052714D01*
X4021171Y-20052714D02*
X4206886Y-20052714D01*
X4106886Y-20167000D01*
X4149743Y-20167000D01*
X4178314Y-20181286D01*
X4192600Y-20195572D01*
X4206886Y-20224143D01*
X4206886Y-20295572D01*
X4192600Y-20324143D01*
X4178314Y-20338429D01*
X4149743Y-20352714D01*
X4064028Y-20352714D01*
X4035457Y-20338429D01*
X4021171Y-20324143D01*
X4306886Y-20052714D02*
X4492600Y-20052714D01*
X4392600Y-20167000D01*
X4435457Y-20167000D01*
X4464028Y-20181286D01*
X4478314Y-20195572D01*
X4492600Y-20224143D01*
X4492600Y-20295572D01*
X4478314Y-20324143D01*
X4464028Y-20338429D01*
X4435457Y-20352714D01*
X4349743Y-20352714D01*
X4321171Y-20338429D01*
X4306886Y-20324143D01*
X4606886Y-20052714D02*
X4606886Y-20109857D01*
X4721171Y-20052714D02*
X4721171Y-20109857D01*
X5164028Y-20467000D02*
X5149743Y-20452714D01*
X5121171Y-20409857D01*
X5106886Y-20381286D01*
X5092600Y-20338429D01*
X5078314Y-20267000D01*
X5078314Y-20209857D01*
X5092600Y-20138429D01*
X5106886Y-20095572D01*
X5121171Y-20067000D01*
X5149743Y-20024143D01*
X5164028Y-20009857D01*
X5435457Y-20352714D02*
X5264028Y-20352714D01*
X5349743Y-20352714D02*
X5349743Y-20052714D01*
X5321171Y-20095572D01*
X5292600Y-20124143D01*
X5264028Y-20138429D01*
X5792600Y-20352714D02*
X5792600Y-20052714D01*
X5921171Y-20352714D02*
X5921171Y-20195572D01*
X5906886Y-20167000D01*
X5878314Y-20152714D01*
X5835457Y-20152714D01*
X5806886Y-20167000D01*
X5792600Y-20181286D01*
X6106886Y-20352714D02*
X6078314Y-20338429D01*
X6064028Y-20324143D01*
X6049743Y-20295572D01*
X6049743Y-20209857D01*
X6064028Y-20181286D01*
X6078314Y-20167000D01*
X6106886Y-20152714D01*
X6149743Y-20152714D01*
X6178314Y-20167000D01*
X6192600Y-20181286D01*
X6206886Y-20209857D01*
X6206886Y-20295572D01*
X6192600Y-20324143D01*
X6178314Y-20338429D01*
X6149743Y-20352714D01*
X6106886Y-20352714D01*
X6378314Y-20352714D02*
X6349743Y-20338429D01*
X6335457Y-20309857D01*
X6335457Y-20052714D01*
X6606886Y-20338429D02*
X6578314Y-20352714D01*
X6521171Y-20352714D01*
X6492600Y-20338429D01*
X6478314Y-20309857D01*
X6478314Y-20195572D01*
X6492600Y-20167000D01*
X6521171Y-20152714D01*
X6578314Y-20152714D01*
X6606886Y-20167000D01*
X6621171Y-20195572D01*
X6621171Y-20224143D01*
X6478314Y-20252714D01*
X6721171Y-20467000D02*
X6735457Y-20452714D01*
X6764028Y-20409857D01*
X6778314Y-20381286D01*
X6792600Y-20338429D01*
X6806886Y-20267000D01*
X6806886Y-20209857D01*
X6792600Y-20138429D01*
X6778314Y-20095572D01*
X6764028Y-20067000D01*
X6735457Y-20024143D01*
X6721171Y-20009857D01*
X377600Y-20563000D02*
X477600Y-20663000D01*
X477600Y-20563000D02*
X377600Y-20663000D01*
X427600Y-20563000D02*
X427600Y-20663000D01*
X377600Y-20613000D02*
X477600Y-20613000D01*
X921171Y-20748714D02*
X749743Y-20748714D01*
X835457Y-20748714D02*
X835457Y-20448714D01*
X806886Y-20491572D01*
X778314Y-20520143D01*
X749743Y-20534429D01*
X1049743Y-20720143D02*
X1064028Y-20734429D01*
X1049743Y-20748714D01*
X1035457Y-20734429D01*
X1049743Y-20720143D01*
X1049743Y-20748714D01*
X1249743Y-20448714D02*
X1278314Y-20448714D01*
X1306886Y-20463000D01*
X1321171Y-20477286D01*
X1335457Y-20505857D01*
X1349743Y-20563000D01*
X1349743Y-20634429D01*
X1335457Y-20691572D01*
X1321171Y-20720143D01*
X1306886Y-20734429D01*
X1278314Y-20748714D01*
X1249743Y-20748714D01*
X1221171Y-20734429D01*
X1206886Y-20720143D01*
X1192600Y-20691572D01*
X1178314Y-20634429D01*
X1178314Y-20563000D01*
X1192600Y-20505857D01*
X1206886Y-20477286D01*
X1221171Y-20463000D01*
X1249743Y-20448714D01*
X1535457Y-20448714D02*
X1564028Y-20448714D01*
X1592600Y-20463000D01*
X1606886Y-20477286D01*
X1621171Y-20505857D01*
X1635457Y-20563000D01*
X1635457Y-20634429D01*
X1621171Y-20691572D01*
X1606886Y-20720143D01*
X1592600Y-20734429D01*
X1564028Y-20748714D01*
X1535457Y-20748714D01*
X1506886Y-20734429D01*
X1492600Y-20720143D01*
X1478314Y-20691572D01*
X1464028Y-20634429D01*
X1464028Y-20563000D01*
X1478314Y-20505857D01*
X1492600Y-20477286D01*
X1506886Y-20463000D01*
X1535457Y-20448714D01*
X1764028Y-20748714D02*
X1764028Y-20548714D01*
X1764028Y-20577286D02*
X1778314Y-20563000D01*
X1806886Y-20548714D01*
X1849743Y-20548714D01*
X1878314Y-20563000D01*
X1892600Y-20591572D01*
X1892600Y-20748714D01*
X1892600Y-20591572D02*
X1906886Y-20563000D01*
X1935457Y-20548714D01*
X1978314Y-20548714D01*
X2006886Y-20563000D01*
X2021171Y-20591572D01*
X2021171Y-20748714D01*
X2164028Y-20748714D02*
X2164028Y-20548714D01*
X2164028Y-20577286D02*
X2178314Y-20563000D01*
X2206886Y-20548714D01*
X2249743Y-20548714D01*
X2278314Y-20563000D01*
X2292600Y-20591572D01*
X2292600Y-20748714D01*
X2292600Y-20591572D02*
X2306886Y-20563000D01*
X2335457Y-20548714D01*
X2378314Y-20548714D01*
X2406886Y-20563000D01*
X2421171Y-20591572D01*
X2421171Y-20748714D01*
X3006886Y-20434429D02*
X2749743Y-20820143D01*
X3392600Y-20448714D02*
X3421171Y-20448714D01*
X3449743Y-20463000D01*
X3464028Y-20477286D01*
X3478314Y-20505857D01*
X3492600Y-20563000D01*
X3492600Y-20634429D01*
X3478314Y-20691572D01*
X3464028Y-20720143D01*
X3449743Y-20734429D01*
X3421171Y-20748714D01*
X3392600Y-20748714D01*
X3364028Y-20734429D01*
X3349743Y-20720143D01*
X3335457Y-20691572D01*
X3321171Y-20634429D01*
X3321171Y-20563000D01*
X3335457Y-20505857D01*
X3349743Y-20477286D01*
X3364028Y-20463000D01*
X3392600Y-20448714D01*
X3621171Y-20720143D02*
X3635457Y-20734429D01*
X3621171Y-20748714D01*
X3606886Y-20734429D01*
X3621171Y-20720143D01*
X3621171Y-20748714D01*
X3821171Y-20448714D02*
X3849743Y-20448714D01*
X3878314Y-20463000D01*
X3892600Y-20477286D01*
X3906886Y-20505857D01*
X3921171Y-20563000D01*
X3921171Y-20634429D01*
X3906886Y-20691572D01*
X3892600Y-20720143D01*
X3878314Y-20734429D01*
X3849743Y-20748714D01*
X3821171Y-20748714D01*
X3792600Y-20734429D01*
X3778314Y-20720143D01*
X3764028Y-20691572D01*
X3749743Y-20634429D01*
X3749743Y-20563000D01*
X3764028Y-20505857D01*
X3778314Y-20477286D01*
X3792600Y-20463000D01*
X3821171Y-20448714D01*
X4021171Y-20448714D02*
X4206886Y-20448714D01*
X4106886Y-20563000D01*
X4149743Y-20563000D01*
X4178314Y-20577286D01*
X4192600Y-20591572D01*
X4206886Y-20620143D01*
X4206886Y-20691572D01*
X4192600Y-20720143D01*
X4178314Y-20734429D01*
X4149743Y-20748714D01*
X4064028Y-20748714D01*
X4035457Y-20734429D01*
X4021171Y-20720143D01*
X4349743Y-20748714D02*
X4406886Y-20748714D01*
X4435457Y-20734429D01*
X4449743Y-20720143D01*
X4478314Y-20677286D01*
X4492600Y-20620143D01*
X4492600Y-20505857D01*
X4478314Y-20477286D01*
X4464028Y-20463000D01*
X4435457Y-20448714D01*
X4378314Y-20448714D01*
X4349743Y-20463000D01*
X4335457Y-20477286D01*
X4321171Y-20505857D01*
X4321171Y-20577286D01*
X4335457Y-20605857D01*
X4349743Y-20620143D01*
X4378314Y-20634429D01*
X4435457Y-20634429D01*
X4464028Y-20620143D01*
X4478314Y-20605857D01*
X4492600Y-20577286D01*
X4606886Y-20448714D02*
X4606886Y-20505857D01*
X4721171Y-20448714D02*
X4721171Y-20505857D01*
X5164028Y-20863000D02*
X5149743Y-20848714D01*
X5121171Y-20805857D01*
X5106886Y-20777286D01*
X5092600Y-20734429D01*
X5078314Y-20663000D01*
X5078314Y-20605857D01*
X5092600Y-20534429D01*
X5106886Y-20491572D01*
X5121171Y-20463000D01*
X5149743Y-20420143D01*
X5164028Y-20405857D01*
X5406886Y-20548714D02*
X5406886Y-20748714D01*
X5335457Y-20434429D02*
X5264028Y-20648714D01*
X5449743Y-20648714D01*
X5792600Y-20748714D02*
X5792600Y-20448714D01*
X5921171Y-20748714D02*
X5921171Y-20591572D01*
X5906886Y-20563000D01*
X5878314Y-20548714D01*
X5835457Y-20548714D01*
X5806886Y-20563000D01*
X5792600Y-20577286D01*
X6106886Y-20748714D02*
X6078314Y-20734429D01*
X6064028Y-20720143D01*
X6049743Y-20691572D01*
X6049743Y-20605857D01*
X6064028Y-20577286D01*
X6078314Y-20563000D01*
X6106886Y-20548714D01*
X6149743Y-20548714D01*
X6178314Y-20563000D01*
X6192600Y-20577286D01*
X6206886Y-20605857D01*
X6206886Y-20691572D01*
X6192600Y-20720143D01*
X6178314Y-20734429D01*
X6149743Y-20748714D01*
X6106886Y-20748714D01*
X6378314Y-20748714D02*
X6349743Y-20734429D01*
X6335457Y-20705857D01*
X6335457Y-20448714D01*
X6606886Y-20734429D02*
X6578314Y-20748714D01*
X6521171Y-20748714D01*
X6492600Y-20734429D01*
X6478314Y-20705857D01*
X6478314Y-20591572D01*
X6492600Y-20563000D01*
X6521171Y-20548714D01*
X6578314Y-20548714D01*
X6606886Y-20563000D01*
X6621171Y-20591572D01*
X6621171Y-20620143D01*
X6478314Y-20648714D01*
X6735457Y-20734429D02*
X6764028Y-20748714D01*
X6821171Y-20748714D01*
X6849743Y-20734429D01*
X6864028Y-20705857D01*
X6864028Y-20691572D01*
X6849743Y-20663000D01*
X6821171Y-20648714D01*
X6778314Y-20648714D01*
X6749743Y-20634429D01*
X6735457Y-20605857D01*
X6735457Y-20591572D01*
X6749743Y-20563000D01*
X6778314Y-20548714D01*
X6821171Y-20548714D01*
X6849743Y-20563000D01*
X6964028Y-20863000D02*
X6978314Y-20848714D01*
X7006886Y-20805857D01*
X7021171Y-20777286D01*
X7035457Y-20734429D01*
X7049743Y-20663000D01*
X7049743Y-20605857D01*
X7035457Y-20534429D01*
X7021171Y-20491572D01*
X7006886Y-20463000D01*
X6978314Y-20420143D01*
X6964028Y-20405857D01*
X207600Y-20874000D02*
X477600Y-21144000D01*
X477600Y-20874000D02*
X207600Y-21144000D01*
X438060Y-21104460D02*
X438060Y-20913540D01*
X247140Y-20913540D01*
X247140Y-21104460D01*
X438060Y-21104460D01*
X749743Y-20873286D02*
X764028Y-20859000D01*
X792600Y-20844714D01*
X864028Y-20844714D01*
X892600Y-20859000D01*
X906886Y-20873286D01*
X921171Y-20901857D01*
X921171Y-20930429D01*
X906886Y-20973286D01*
X735457Y-21144714D01*
X921171Y-21144714D01*
X1049743Y-21116143D02*
X1064028Y-21130429D01*
X1049743Y-21144714D01*
X1035457Y-21130429D01*
X1049743Y-21116143D01*
X1049743Y-21144714D01*
X1164028Y-20844714D02*
X1364028Y-20844714D01*
X1235457Y-21144714D01*
X1535457Y-20844714D02*
X1564028Y-20844714D01*
X1592600Y-20859000D01*
X1606886Y-20873286D01*
X1621171Y-20901857D01*
X1635457Y-20959000D01*
X1635457Y-21030429D01*
X1621171Y-21087572D01*
X1606886Y-21116143D01*
X1592600Y-21130429D01*
X1564028Y-21144714D01*
X1535457Y-21144714D01*
X1506886Y-21130429D01*
X1492600Y-21116143D01*
X1478314Y-21087572D01*
X1464028Y-21030429D01*
X1464028Y-20959000D01*
X1478314Y-20901857D01*
X1492600Y-20873286D01*
X1506886Y-20859000D01*
X1535457Y-20844714D01*
X1764028Y-21144714D02*
X1764028Y-20944714D01*
X1764028Y-20973286D02*
X1778314Y-20959000D01*
X1806886Y-20944714D01*
X1849743Y-20944714D01*
X1878314Y-20959000D01*
X1892600Y-20987572D01*
X1892600Y-21144714D01*
X1892600Y-20987572D02*
X1906886Y-20959000D01*
X1935457Y-20944714D01*
X1978314Y-20944714D01*
X2006886Y-20959000D01*
X2021171Y-20987572D01*
X2021171Y-21144714D01*
X2164028Y-21144714D02*
X2164028Y-20944714D01*
X2164028Y-20973286D02*
X2178314Y-20959000D01*
X2206886Y-20944714D01*
X2249743Y-20944714D01*
X2278314Y-20959000D01*
X2292600Y-20987572D01*
X2292600Y-21144714D01*
X2292600Y-20987572D02*
X2306886Y-20959000D01*
X2335457Y-20944714D01*
X2378314Y-20944714D01*
X2406886Y-20959000D01*
X2421171Y-20987572D01*
X2421171Y-21144714D01*
X3006886Y-20830429D02*
X2749743Y-21216143D01*
X3392600Y-20844714D02*
X3421171Y-20844714D01*
X3449743Y-20859000D01*
X3464028Y-20873286D01*
X3478314Y-20901857D01*
X3492600Y-20959000D01*
X3492600Y-21030429D01*
X3478314Y-21087572D01*
X3464028Y-21116143D01*
X3449743Y-21130429D01*
X3421171Y-21144714D01*
X3392600Y-21144714D01*
X3364028Y-21130429D01*
X3349743Y-21116143D01*
X3335457Y-21087572D01*
X3321171Y-21030429D01*
X3321171Y-20959000D01*
X3335457Y-20901857D01*
X3349743Y-20873286D01*
X3364028Y-20859000D01*
X3392600Y-20844714D01*
X3621171Y-21116143D02*
X3635457Y-21130429D01*
X3621171Y-21144714D01*
X3606886Y-21130429D01*
X3621171Y-21116143D01*
X3621171Y-21144714D01*
X3921171Y-21144714D02*
X3749743Y-21144714D01*
X3835457Y-21144714D02*
X3835457Y-20844714D01*
X3806886Y-20887572D01*
X3778314Y-20916143D01*
X3749743Y-20930429D01*
X4106886Y-20844714D02*
X4135457Y-20844714D01*
X4164028Y-20859000D01*
X4178314Y-20873286D01*
X4192600Y-20901857D01*
X4206886Y-20959000D01*
X4206886Y-21030429D01*
X4192600Y-21087572D01*
X4178314Y-21116143D01*
X4164028Y-21130429D01*
X4135457Y-21144714D01*
X4106886Y-21144714D01*
X4078314Y-21130429D01*
X4064028Y-21116143D01*
X4049743Y-21087572D01*
X4035457Y-21030429D01*
X4035457Y-20959000D01*
X4049743Y-20901857D01*
X4064028Y-20873286D01*
X4078314Y-20859000D01*
X4106886Y-20844714D01*
X4464028Y-20844714D02*
X4406886Y-20844714D01*
X4378314Y-20859000D01*
X4364028Y-20873286D01*
X4335457Y-20916143D01*
X4321171Y-20973286D01*
X4321171Y-21087572D01*
X4335457Y-21116143D01*
X4349743Y-21130429D01*
X4378314Y-21144714D01*
X4435457Y-21144714D01*
X4464028Y-21130429D01*
X4478314Y-21116143D01*
X4492600Y-21087572D01*
X4492600Y-21016143D01*
X4478314Y-20987572D01*
X4464028Y-20973286D01*
X4435457Y-20959000D01*
X4378314Y-20959000D01*
X4349743Y-20973286D01*
X4335457Y-20987572D01*
X4321171Y-21016143D01*
X4606886Y-20844714D02*
X4606886Y-20901857D01*
X4721171Y-20844714D02*
X4721171Y-20901857D01*
X5164028Y-21259000D02*
X5149743Y-21244714D01*
X5121171Y-21201857D01*
X5106886Y-21173286D01*
X5092600Y-21130429D01*
X5078314Y-21059000D01*
X5078314Y-21001857D01*
X5092600Y-20930429D01*
X5106886Y-20887572D01*
X5121171Y-20859000D01*
X5149743Y-20816143D01*
X5164028Y-20801857D01*
X5292600Y-21144714D02*
X5349743Y-21144714D01*
X5378314Y-21130429D01*
X5392600Y-21116143D01*
X5421171Y-21073286D01*
X5435457Y-21016143D01*
X5435457Y-20901857D01*
X5421171Y-20873286D01*
X5406886Y-20859000D01*
X5378314Y-20844714D01*
X5321171Y-20844714D01*
X5292600Y-20859000D01*
X5278314Y-20873286D01*
X5264028Y-20901857D01*
X5264028Y-20973286D01*
X5278314Y-21001857D01*
X5292600Y-21016143D01*
X5321171Y-21030429D01*
X5378314Y-21030429D01*
X5406886Y-21016143D01*
X5421171Y-21001857D01*
X5435457Y-20973286D01*
X5792600Y-21144714D02*
X5792600Y-20844714D01*
X5921171Y-21144714D02*
X5921171Y-20987572D01*
X5906886Y-20959000D01*
X5878314Y-20944714D01*
X5835457Y-20944714D01*
X5806886Y-20959000D01*
X5792600Y-20973286D01*
X6106886Y-21144714D02*
X6078314Y-21130429D01*
X6064028Y-21116143D01*
X6049743Y-21087572D01*
X6049743Y-21001857D01*
X6064028Y-20973286D01*
X6078314Y-20959000D01*
X6106886Y-20944714D01*
X6149743Y-20944714D01*
X6178314Y-20959000D01*
X6192600Y-20973286D01*
X6206886Y-21001857D01*
X6206886Y-21087572D01*
X6192600Y-21116143D01*
X6178314Y-21130429D01*
X6149743Y-21144714D01*
X6106886Y-21144714D01*
X6378314Y-21144714D02*
X6349743Y-21130429D01*
X6335457Y-21101857D01*
X6335457Y-20844714D01*
X6606886Y-21130429D02*
X6578314Y-21144714D01*
X6521171Y-21144714D01*
X6492600Y-21130429D01*
X6478314Y-21101857D01*
X6478314Y-20987572D01*
X6492600Y-20959000D01*
X6521171Y-20944714D01*
X6578314Y-20944714D01*
X6606886Y-20959000D01*
X6621171Y-20987572D01*
X6621171Y-21016143D01*
X6478314Y-21044714D01*
X6735457Y-21130429D02*
X6764028Y-21144714D01*
X6821171Y-21144714D01*
X6849743Y-21130429D01*
X6864028Y-21101857D01*
X6864028Y-21087572D01*
X6849743Y-21059000D01*
X6821171Y-21044714D01*
X6778314Y-21044714D01*
X6749743Y-21030429D01*
X6735457Y-21001857D01*
X6735457Y-20987572D01*
X6749743Y-20959000D01*
X6778314Y-20944714D01*
X6821171Y-20944714D01*
X6849743Y-20959000D01*
X6964028Y-21259000D02*
X6978314Y-21244714D01*
X7006886Y-21201857D01*
X7021171Y-21173286D01*
X7035457Y-21130429D01*
X7049743Y-21059000D01*
X7049743Y-21001857D01*
X7035457Y-20930429D01*
X7021171Y-20887572D01*
X7006886Y-20859000D01*
X6978314Y-20816143D01*
X6964028Y-20801857D01*
M02*
